<svg xmlns="http://www.w3.org/2000/svg" viewBox="0 0 64 64"><path fill="#374151" d="M27 30a3.75 3.75 0 01-2.75 1.18A3.8 3.8 0 0121.48 30a3.91 3.91 0 012.78-6.69A3.89 3.89 0 0127 30zm-4-1.54a1.65 1.65 0 001.22.51 1.69 1.69 0 001.22-.51 1.61 1.61 0 00.51-1.2 1.71 1.71 0 00-.5-1.23 1.65 1.65 0 00-1.23-.52A1.63 1.63 0 0023 26a1.68 1.68 0 00-.51 1.23 1.61 1.61 0 00.51 1.19zM32 24.79a7.12 7.12 0 015.08-1.67c3.4 0 5.58 1.34 6.52 4a.72.72 0 01-.5 1.05l-1.32.46a.88.88 0 01-.65 0 1 1 0 01-.38-.54c-.53-1.48-1.75-2.21-3.67-2.21a4.19 4.19 0 00-2.85.87 3.23 3.23 0 00-1 2.54v5.3a3.24 3.24 0 001 2.54 4.09 4.09 0 002.85.89c1.9 0 3.12-.74 3.67-2.23a1 1 0 01.41-.56.75.75 0 01.64.06l1.3.45a.75.75 0 01.53 1.06q-1.43 4-6.55 4A7.17 7.17 0 0132 39.21a6 6 0 01-1.79-4.59v-5.26A5.94 5.94 0 0132 24.79z"/></svg>