<svg xmlns="http://www.w3.org/2000/svg" viewBox="0 0 64 64"><defs><linearGradient id="a" x1="19.71" x2="36.98" y1="23.37" y2="53.3" gradientUnits="userSpaceOnUse"><stop offset="0" stop-color="#ffc078"/><stop offset=".45" stop-color="#ffc078"/><stop offset="1" stop-color="#ff922b"/></linearGradient></defs><path fill="url(#a)" stroke="#ffa94d" stroke-miterlimit="10" stroke-width=".5" d="M48.39 44.45L41 30.91l-7.24-13.28a2 2 0 00-3.52 0L23 30.91l-7.39 13.54a2 2 0 001.76 3h29.26a2 2 0 001.76-3zm-18-16.79a1.08 1.08 0 01.68-.16H33a1.09 1.09 0 01.69.16.69.69 0 01.18.58l-.38 8.91a.76.76 0 01-.2.57 1 1 0 01-.66.15h-1.2a1.08 1.08 0 01-.67-.15.8.8 0 01-.2-.57l-.35-8.91a.72.72 0 01.16-.58zM34 41a1.52 1.52 0 01-.37 1.18 2.21 2.21 0 01-1.38.32h-.5a2.21 2.21 0 01-1.38-.32A1.52 1.52 0 0130 41v-.37a1.52 1.52 0 01.37-1.18 2.21 2.21 0 011.38-.32h.5a2.21 2.21 0 011.38.32 1.52 1.52 0 01.37 1.18z"/></svg>