<svg xmlns="http://www.w3.org/2000/svg" xmlns:xlink="http://www.w3.org/1999/xlink" viewBox="0 0 64 64"><defs><linearGradient id="c" x1="22.56" x2="39.2" y1="21.96" y2="50.8" gradientUnits="userSpaceOnUse"><stop offset="0" stop-color="#f3f7fe"/><stop offset=".45" stop-color="#f3f7fe"/><stop offset="1" stop-color="#deeafb"/></linearGradient><linearGradient id="a" x1="22.14" x2="27.53" y1="36" y2="45.32" gradientUnits="userSpaceOnUse"><stop offset="0" stop-color="#fde68a"/><stop offset=".45" stop-color="#fde68a"/><stop offset="1" stop-color="#fde171"/></linearGradient><linearGradient id="d" x1="34.27" x2="39.66" y1="28.99" y2="38.32" xlink:href="#a"/><linearGradient id="e" x1="43.47" x2="48.86" y1="23.68" y2="33" xlink:href="#a"/><linearGradient id="f" x1="32.14" x2="37.53" y1="36" y2="45.32" xlink:href="#a"/><linearGradient id="g" x1="44.27" x2="49.66" y1="28.99" y2="38.32" xlink:href="#a"/><linearGradient id="h" x1="53.47" x2="58.86" y1="23.68" y2="33" xlink:href="#a"/><clipPath id="b"><path fill="none" d="M7.5 7.5h47l-47 47v-47z"/></clipPath></defs><g clip-path="url(#b)"><path fill="url(#c)" stroke="#e6effc" stroke-miterlimit="10" stroke-width=".5" d="M46.5 31.5h-.32a10.49 10.49 0 00-19.11-8 7 7 0 00-10.57 6 7.21 7.21 0 00.1 1.14A7.5 7.5 0 0018 45.5a4.19 4.19 0 00.5 0v0h28a7 7 0 000-14z"/></g><g><path fill="none" stroke="url(#a)" stroke-linecap="round" stroke-miterlimit="10" stroke-width="3" d="M24.89 45.11l3.19-3.19"/><path fill="none" stroke="url(#d)" stroke-dasharray="7 7" stroke-linecap="round" stroke-miterlimit="10" stroke-width="3" d="M33.03 36.97l7.42-7.42"/><path fill="none" stroke="url(#e)" stroke-linecap="round" stroke-miterlimit="10" stroke-width="3" d="M42.92 27.08l3.19-3.19"/><animateTransform attributeName="transform" dur="3s" repeatCount="indefinite" type="translate" values="-2 2; 0 0; -2 2"/></g><g><path fill="none" stroke="url(#f)" stroke-linecap="round" stroke-miterlimit="10" stroke-width="3" d="M34.89 45.11l3.19-3.19"/><path fill="none" stroke="url(#g)" stroke-dasharray="7 7" stroke-linecap="round" stroke-miterlimit="10" stroke-width="3" d="M43.03 36.97l7.42-7.42"/><path fill="none" stroke="url(#h)" stroke-linecap="round" stroke-miterlimit="10" stroke-width="3" d="M52.92 27.08l3.19-3.19"/><animateTransform attributeName="transform" begin="-2.5s" dur="3s" repeatCount="indefinite" type="translate" values="-2 2; 0 0; -2 2"/></g></svg>