<svg xmlns="http://www.w3.org/2000/svg" xmlns:xlink="http://www.w3.org/1999/xlink" viewBox="0 0 64 64"><defs><linearGradient id="c" x1="21.92" x2="38.52" y1="18.75" y2="47.52" gradientUnits="userSpaceOnUse"><stop offset="0" stop-color="#86c3db"/><stop offset=".45" stop-color="#86c3db"/><stop offset="1" stop-color="#5eafcf"/><animateTransform attributeName="gradientTransform" dur="10s" repeatCount="indefinite" type="rotate" values="5 32 32; -15 32 32; 5 32 32"/></linearGradient><linearGradient id="a" x1="22.14" x2="27.53" y1="36" y2="45.32" gradientUnits="userSpaceOnUse"><stop offset="0" stop-color="#fde68a"/><stop offset=".45" stop-color="#fde68a"/><stop offset="1" stop-color="#fde171"/></linearGradient><linearGradient id="d" x1="34.27" x2="39.66" y1="28.99" y2="38.32" xlink:href="#a"/><linearGradient id="e" x1="43.47" x2="48.86" y1="23.68" y2="33" xlink:href="#a"/><linearGradient id="f" x1="32.14" x2="37.53" y1="36" y2="45.32" xlink:href="#a"/><linearGradient id="g" x1="44.27" x2="49.66" y1="28.99" y2="38.32" xlink:href="#a"/><linearGradient id="h" x1="53.47" x2="58.86" y1="23.68" y2="33" xlink:href="#a"/><clipPath id="b"><path fill="none" d="M7.5 7.5h47l-47 47v-47z"/></clipPath></defs><g clip-path="url(#b)"><g><path fill="url(#c)" stroke="#72b9d5" stroke-linecap="round" stroke-linejoin="round" stroke-width=".5" d="M46.66 36.2a16.66 16.66 0 01-16.78-16.55 16.29 16.29 0 01.55-4.15A16.56 16.56 0 1048.5 36.1c-.61.06-1.22.1-1.84.1z"/><animateTransform attributeName="transform" dur="10s" repeatCount="indefinite" type="rotate" values="-5 32 32;15 32 32;-5 32 32"/></g></g><g><path fill="none" stroke="url(#a)" stroke-linecap="round" stroke-miterlimit="10" stroke-width="3" d="M24.89 45.11l3.19-3.19"/><path fill="none" stroke="url(#d)" stroke-dasharray="7 7" stroke-linecap="round" stroke-miterlimit="10" stroke-width="3" d="M33.03 36.97l7.42-7.42"/><path fill="none" stroke="url(#e)" stroke-linecap="round" stroke-miterlimit="10" stroke-width="3" d="M42.92 27.08l3.19-3.19"/><animateTransform attributeName="transform" dur="3s" repeatCount="indefinite" type="translate" values="-2 2; 0 0; -2 2"/></g><g><path fill="none" stroke="url(#f)" stroke-linecap="round" stroke-miterlimit="10" stroke-width="3" d="M34.89 45.11l3.19-3.19"/><path fill="none" stroke="url(#g)" stroke-dasharray="7 7" stroke-linecap="round" stroke-miterlimit="10" stroke-width="3" d="M43.03 36.97l7.42-7.42"/><path fill="none" stroke="url(#h)" stroke-linecap="round" stroke-miterlimit="10" stroke-width="3" d="M52.92 27.08l3.19-3.19"/><animateTransform attributeName="transform" begin="-2.5s" dur="3s" repeatCount="indefinite" type="translate" values="-2 2; 0 0; -2 2"/></g></svg>