<svg xmlns="http://www.w3.org/2000/svg" xmlns:xlink="http://www.w3.org/1999/xlink" viewBox="0 0 64 64"><defs><linearGradient id="a" x1="36.88" x2="41.12" y1="15.33" y2="22.67" gradientUnits="userSpaceOnUse"><stop offset="0" stop-color="#fcd966"/><stop offset=".45" stop-color="#fcd966"/><stop offset="1" stop-color="#fccd34"/></linearGradient><linearGradient id="b" x1="43.79" x2="48.21" y1="25.17" y2="32.83" xlink:href="#a"/><linearGradient id="d" x1="43.11" x2="46.89" y1="18.73" y2="25.27" xlink:href="#a"/><linearGradient id="e" x1="21.92" x2="38.52" y1="18.75" y2="47.52" gradientUnits="userSpaceOnUse"><stop offset="0" stop-color="#86c3db"/><stop offset=".45" stop-color="#86c3db"/><stop offset="1" stop-color="#5eafcf"/><animateTransform attributeName="gradientTransform" dur="10s" repeatCount="indefinite" type="rotate" values="5 32 32; -15 32 32; 5 32 32"/></linearGradient><clipPath id="c"><path fill="none" d="M64 2.79L30 23l2 6 5 4 27-12V2.79z"/></clipPath></defs><path fill="url(#a)" stroke="#fcd34d" stroke-linecap="round" stroke-linejoin="round" stroke-width=".5" d="M35.44 16.87l1.3 2.13a.55.55 0 01.06.5l-.8 2.36a.59.59 0 00.87.7l2.13-1.3a.55.55 0 01.5-.06l2.36.8a.59.59 0 00.7-.87L41.26 19a.55.55 0 01-.06-.5l.8-2.36a.59.59 0 00-.87-.7L39 16.74a.55.55 0 01-.5.06l-2.36-.8a.59.59 0 00-.7.87z"><animate attributeName="opacity" dur="3s" repeatCount="indefinite" values=".8; 0; .8"/></path><path fill="url(#b)" stroke="#fcd34d" stroke-linecap="round" stroke-linejoin="round" stroke-width=".5" d="M42.27 30.82l2.49.07a.62.62 0 01.46.22l1.53 2a.6.6 0 001.07-.35l.07-2.49a.62.62 0 01.22-.46l2-1.53a.6.6 0 00-.35-1.07l-2.49-.07a.62.62 0 01-.46-.22l-1.53-2a.6.6 0 00-1.07.35l-.07 2.49a.62.62 0 01-.22.46l-2 1.53a.6.6 0 00.35 1.07z"><animate attributeName="opacity" begin="-1.5s" dur="3s" repeatCount="indefinite" values=".8; 0; .8"/></path><g clip-path="url(#c)"><g><path fill="url(#d)" stroke="#fcd34d" stroke-linecap="round" stroke-linejoin="round" stroke-width=".5" d="M41 20.81l1.78 1.74A.6.6 0 0143 23l-.2 2.49a.6.6 0 001 .46l1.74-1.78A.6.6 0 0146 24l2.49.2a.6.6 0 00.46-1l-1.78-1.74A.6.6 0 0147 21l.2-2.49a.6.6 0 00-1-.46l-1.74 1.78A.6.6 0 0144 20l-2.49-.2a.6.6 0 00-.51 1.01z"/><path fill="none" stroke="#fcd34d" stroke-linecap="round" stroke-miterlimit="10" d="M41.5 23.5l-1.34.67"/><path fill="none" stroke="#fcd34d" stroke-dasharray="2.53 2.53" stroke-linecap="round" stroke-miterlimit="10" d="M37.9 25.3l-7.93 3.96"/><path fill="none" stroke="#fcd34d" stroke-linecap="round" stroke-miterlimit="10" d="M28.84 29.83l-1.34.67"/><animateTransform attributeName="transform" dur="2s" repeatCount="indefinite" type="translate" values="-15 9; 15 -7; 15 -7"/><animate attributeName="opacity" dur="2s" repeatCount="indefinite" values="1; 1; 0; 0; 0"/></g></g><path fill="url(#e)" stroke="#72b9d5" stroke-linecap="round" stroke-linejoin="round" stroke-width=".5" d="M46.66 36.2a16.66 16.66 0 01-16.78-16.55 16.29 16.29 0 01.55-4.15A16.56 16.56 0 1048.5 36.1c-.61.06-1.22.1-1.84.1z"><animateTransform attributeName="transform" dur="10s" repeatCount="indefinite" type="rotate" values="-5 32 32; 15 32 32; -5 32 32"/></path></svg>