<svg xmlns="http://www.w3.org/2000/svg" xmlns:xlink="http://www.w3.org/1999/xlink" viewBox="0 0 64 64"><defs><linearGradient id="c" x1="21.92" x2="38.52" y1="18.75" y2="47.52" gradientUnits="userSpaceOnUse"><stop offset="0" stop-color="#86c3db"/><stop offset=".45" stop-color="#86c3db"/><stop offset="1" stop-color="#5eafcf"/><animateTransform attributeName="gradientTransform" dur="10s" repeatCount="indefinite" type="rotate" values="5 32 32; -15 32 32; 5 32 32"/></linearGradient><linearGradient id="a" x1="17.94" x2="26.94" y1="41.73" y2="57.32" gradientUnits="userSpaceOnUse"><stop offset="0" stop-color="#d4d7dd"/><stop offset=".45" stop-color="#d4d7dd"/><stop offset="1" stop-color="#bec1c6"/></linearGradient><linearGradient id="d" x1="28.81" x2="37.81" y1="35.45" y2="51.04" xlink:href="#a"/><linearGradient id="e" x1="37.06" x2="46.06" y1="30.68" y2="46.27" xlink:href="#a"/><linearGradient id="f" x1="17.94" x2="26.94" y1="48.73" y2="64.32" xlink:href="#a"/><linearGradient id="g" x1="28.81" x2="37.81" y1="42.45" y2="58.04" xlink:href="#a"/><linearGradient id="h" x1="37.06" x2="46.06" y1="37.68" y2="53.27" xlink:href="#a"/><clipPath id="b"><path fill="none" d="M0 7.5h64v32H0z"/></clipPath></defs><g clip-path="url(#b)"><path fill="url(#c)" stroke="#72b9d5" stroke-linecap="round" stroke-linejoin="round" stroke-width=".5" d="M46.66 36.2a16.66 16.66 0 01-16.78-16.55 16.29 16.29 0 01.55-4.15A16.56 16.56 0 1048.5 36.1c-.61.06-1.22.1-1.84.1z"><animateTransform attributeName="transform" dur="10s" repeatCount="indefinite" type="rotate" values="-5 32 32; 15 32 32; -5 32 32"/></path></g><g><path fill="none" stroke="url(#a)" stroke-linecap="round" stroke-miterlimit="10" stroke-width="3" d="M17 44h4.5"/><path fill="none" stroke="url(#d)" stroke-dasharray="7 7" stroke-linecap="round" stroke-miterlimit="10" stroke-width="3" d="M28.5 44H39"/><path fill="none" stroke="url(#e)" stroke-linecap="round" stroke-miterlimit="10" stroke-width="3" d="M42.5 44H47"/><animateTransform attributeName="transform" begin="0s" dur="5s" repeatCount="indefinite" type="translate" values="-3 0; 3 0; -3 0"/></g><g><path fill="none" stroke="url(#f)" stroke-linecap="round" stroke-miterlimit="10" stroke-width="3" d="M17 51h4.5"/><path fill="none" stroke="url(#g)" stroke-dasharray="7 7" stroke-linecap="round" stroke-miterlimit="10" stroke-width="3" d="M28.5 51H39"/><path fill="none" stroke="url(#h)" stroke-linecap="round" stroke-miterlimit="10" stroke-width="3" d="M42.5 51H47"/><animateTransform attributeName="transform" begin="-4s" dur="5s" repeatCount="indefinite" type="translate" values="-3 0; 3 0; -3 0"/></g></svg>