<svg xmlns="http://www.w3.org/2000/svg" xmlns:xlink="http://www.w3.org/1999/xlink" viewBox="0 0 64 64"><defs><linearGradient id="c" x1="26.75" x2="37.25" y1="29.91" y2="48.09" gradientUnits="userSpaceOnUse"><stop offset="0" stop-color="#fbbf24"/><stop offset=".45" stop-color="#fbbf24"/><stop offset="1" stop-color="#f59e0b"/></linearGradient><linearGradient id="a" x1="17.94" x2="26.94" y1="41.73" y2="57.32" gradientUnits="userSpaceOnUse"><stop offset="0" stop-color="#d4d7dd"/><stop offset=".45" stop-color="#d4d7dd"/><stop offset="1" stop-color="#bec1c6"/></linearGradient><linearGradient id="d" x1="28.81" x2="37.81" y1="35.45" y2="51.04" xlink:href="#a"/><linearGradient id="e" x1="37.06" x2="46.06" y1="30.68" y2="46.27" xlink:href="#a"/><linearGradient id="f" x1="17.94" x2="26.94" y1="48.73" y2="64.32" xlink:href="#a"/><linearGradient id="g" x1="28.81" x2="37.81" y1="42.45" y2="58.04" xlink:href="#a"/><linearGradient id="h" x1="37.06" x2="46.06" y1="37.68" y2="53.27" xlink:href="#a"/><clipPath id="b"><path fill="none" d="M0 7.5h64v32H0z"/></clipPath></defs><g stroke-miterlimit="10" clip-path="url(#b)"><circle cx="32" cy="39" r="10.5" fill="url(#c)" stroke="#f8af18" stroke-width=".5"/><path fill="none" stroke="#fbbf24" stroke-linecap="round" stroke-width="3" d="M32 22.71V16.5m0 45v-6.21m11.52-27.81l4.39-4.39M16.09 54.91l4.39-4.39m0-23l-4.39-4.39m31.82 31.78l-4.39-4.39M15.71 39H9.5m45 0h-6.21"><animateTransform attributeName="transform" dur="45s" repeatCount="indefinite" type="rotate" values="0 32 39; 360 32 39"/></path></g><g><path fill="none" stroke="url(#a)" stroke-linecap="round" stroke-miterlimit="10" stroke-width="3" d="M17 44h4.5"/><path fill="none" stroke="url(#d)" stroke-dasharray="7 7" stroke-linecap="round" stroke-miterlimit="10" stroke-width="3" d="M28.5 44H39"/><path fill="none" stroke="url(#e)" stroke-linecap="round" stroke-miterlimit="10" stroke-width="3" d="M42.5 44H47"/><animateTransform attributeName="transform" begin="0s" dur="5s" repeatCount="indefinite" type="translate" values="-3 0; 3 0; -3 0"/></g><g><path fill="none" stroke="url(#f)" stroke-linecap="round" stroke-miterlimit="10" stroke-width="3" d="M17 51h4.5"/><path fill="none" stroke="url(#g)" stroke-dasharray="7 7" stroke-linecap="round" stroke-miterlimit="10" stroke-width="3" d="M28.5 51H39"/><path fill="none" stroke="url(#h)" stroke-linecap="round" stroke-miterlimit="10" stroke-width="3" d="M42.5 51H47"/><animateTransform attributeName="transform" begin="-4s" dur="5s" repeatCount="indefinite" type="translate" values="-3 0; 3 0; -3 0"/></g></svg>