<svg xmlns="http://www.w3.org/2000/svg" xmlns:xlink="http://www.w3.org/1999/xlink" viewBox="0 0 64 64"><defs><linearGradient id="b" x1="16.5" x2="21.5" y1="19.67" y2="28.33" gradientUnits="userSpaceOnUse"><stop offset="0" stop-color="#fbbf24"/><stop offset=".45" stop-color="#fbbf24"/><stop offset="1" stop-color="#f59e0b"/></linearGradient><linearGradient id="c" x1="40.76" x2="50.83" y1="23" y2="40.46" gradientUnits="userSpaceOnUse"><stop offset="0" stop-color="#9ca3af"/><stop offset=".45" stop-color="#9ca3af"/><stop offset="1" stop-color="#6b7280"/></linearGradient><linearGradient id="d" x1="22.56" x2="39.2" y1="21.96" y2="50.8" gradientUnits="userSpaceOnUse"><stop offset="0" stop-color="#f3f7fe"/><stop offset=".45" stop-color="#f3f7fe"/><stop offset="1" stop-color="#deeafb"/></linearGradient><linearGradient id="a" x1="22.66" x2="25.34" y1="42.68" y2="47.32" gradientUnits="userSpaceOnUse"><stop offset="0" stop-color="#86c3db"/><stop offset=".45" stop-color="#86c3db"/><stop offset="1" stop-color="#5eafcf"/></linearGradient><linearGradient id="e" x1="29.66" x2="32.34" y1="42.68" y2="47.32" xlink:href="#a"/><linearGradient id="f" x1="36.66" x2="39.34" y1="42.68" y2="47.32" xlink:href="#a"/></defs><circle cx="19" cy="24" r="5" fill="url(#b)" stroke="#f8af18" stroke-miterlimit="10" stroke-width=".5"/><path fill="none" stroke="#fbbf24" stroke-linecap="round" stroke-miterlimit="10" stroke-width="2" d="M19 15.67V12.5m0 23v-3.17m5.89-14.22l2.24-2.24M10.87 32.13l2.24-2.24m0-11.78l-2.24-2.24m16.26 16.26l-2.24-2.24M7.5 24h3.17m19.83 0h-3.17"><animateTransform attributeName="transform" dur="45s" repeatCount="indefinite" type="rotate" values="0 19 24; 360 19 24"/></path><path fill="url(#c)" stroke="#848b98" stroke-miterlimit="10" stroke-width=".5" d="M34.23 33.45a4.05 4.05 0 004.05 4h16.51a4.34 4.34 0 00.81-8.61 3.52 3.52 0 00.06-.66 4.06 4.06 0 00-6.13-3.48 6.08 6.08 0 00-11.25 3.19 6.34 6.34 0 00.18 1.46h-.18a4.05 4.05 0 00-4.05 4.1z"><animateTransform attributeName="transform" dur="7s" repeatCount="indefinite" type="translate" values="-2.1 0; 2.1 0; -2.1 0"/></path><path fill="url(#d)" stroke="#e6effc" stroke-miterlimit="10" stroke-width=".5" d="M46.5 31.5h-.32a10.49 10.49 0 00-19.11-8 7 7 0 00-10.57 6 7.21 7.21 0 00.1 1.14A7.5 7.5 0 0018 45.5a4.19 4.19 0 00.5 0v0h28a7 7 0 000-14z"><animateTransform attributeName="transform" dur="7s" repeatCount="indefinite" type="translate" values="-3 0; 3 0; -3 0"/></path><path fill="url(#a)" d="M26.45 45.82l-.73-.41a1.59 1.59 0 000-.81l.73-.42a.49.49 0 00.18-.68.51.51 0 00-.69-.18l-.72.41a1.66 1.66 0 00-.71-.41v-.82a.51.51 0 00-1 0v.83a1.74 1.74 0 00-.71.4l-.72-.41a.51.51 0 00-.69.18.49.49 0 00.18.68l.73.41a1.59 1.59 0 000 .81l-.73.42a.49.49 0 00-.18.68.5.5 0 00.44.25.47.47 0 00.25-.07l.72-.41a2 2 0 00.33.25 1.5 1.5 0 00.38.15v.83a.51.51 0 001 0v-.83a1.74 1.74 0 00.71-.4l.72.41a.47.47 0 00.25.07.5.5 0 00.44-.25.49.49 0 00-.18-.68zm-2.83-.17a.75.75 0 01.38-1.4.75.75 0 01.38.1.75.75 0 01.28 1 .77.77 0 01-1.04.3z"><animateTransform additive="sum" attributeName="transform" begin="-2.7s" dur="4s" repeatCount="indefinite" type="translate" values="1 -6; -1 12"/><animateTransform additive="sum" attributeName="transform" begin="-2.7s" dur="4s" repeatCount="indefinite" type="rotate" values="-45 24 45; 45 24 45"/><animate attributeName="opacity" begin="-2.7s" dur="4s" repeatCount="indefinite" values="0;1;1;1;0"/></path><path fill="url(#e)" d="M33.45 45.82l-.73-.41a1.59 1.59 0 000-.81l.73-.42a.49.49 0 00.18-.68.51.51 0 00-.69-.18l-.72.41a1.66 1.66 0 00-.71-.41v-.82a.51.51 0 00-1 0v.83a1.74 1.74 0 00-.71.4l-.72-.41a.51.51 0 00-.69.18.49.49 0 00.18.68l.73.41a1.59 1.59 0 000 .81l-.73.42a.49.49 0 00-.18.68.5.5 0 00.44.25.47.47 0 00.25-.07l.72-.41a2 2 0 00.33.25 1.5 1.5 0 00.38.15v.83a.51.51 0 001 0v-.83a1.74 1.74 0 00.71-.4l.72.41a.47.47 0 00.25.07.5.5 0 00.44-.25.49.49 0 00-.18-.68zm-2.83-.17a.75.75 0 01.38-1.4.75.75 0 01.38.1.75.75 0 01.28 1 .77.77 0 01-1.04.3z"><animateTransform additive="sum" attributeName="transform" dur="4s" repeatCount="indefinite" type="translate" values="-1 -6; 1 12"/><animateTransform additive="sum" attributeName="transform" dur="4s" repeatCount="indefinite" type="rotate" values="-45 31 45; 45 31 45"/><animate attributeName="opacity" dur="4s" repeatCount="indefinite" values="0;1;1;1;0"/></path><path fill="url(#f)" d="M40.45 45.82l-.73-.41a1.59 1.59 0 000-.81l.73-.42a.49.49 0 00.18-.68.51.51 0 00-.69-.18l-.72.41a1.66 1.66 0 00-.71-.41v-.82a.51.51 0 00-1 0v.83a1.74 1.74 0 00-.71.4l-.72-.41a.51.51 0 00-.69.18.49.49 0 00.18.68l.73.41a1.59 1.59 0 000 .81l-.73.42a.49.49 0 00-.18.68.5.5 0 00.44.25.47.47 0 00.25-.07l.72-.41a2 2 0 00.33.25 1.5 1.5 0 00.38.15v.83a.51.51 0 001 0v-.83a1.74 1.74 0 00.71-.4l.72.41a.47.47 0 00.25.07.5.5 0 00.44-.25.49.49 0 00-.18-.68zm-2.83-.17a.75.75 0 01.38-1.4.75.75 0 01.38.1.75.75 0 01.28 1 .77.77 0 01-1.04.3z"><animateTransform additive="sum" attributeName="transform" begin="-1.3s" dur="4s" repeatCount="indefinite" type="translate" values="1 -6; -1 12"/><animateTransform additive="sum" attributeName="transform" begin="-1.3s" dur="4s" repeatCount="indefinite" type="rotate" values="-45 38 45; 45 38 45"/><animate attributeName="opacity" begin="-1.3s" dur="4s" repeatCount="indefinite" values="0;1;1;1;0"/></path></svg>