<svg xmlns="http://www.w3.org/2000/svg" xmlns:xlink="http://www.w3.org/1999/xlink" viewBox="0 0 64 64"><defs><linearGradient id="b" x1="13.58" x2="24.15" y1="15.57" y2="33.87" gradientUnits="userSpaceOnUse"><stop offset="0" stop-color="#86c3db"/><stop offset=".45" stop-color="#86c3db"/><stop offset="1" stop-color="#5eafcf"/><animateTransform attributeName="gradientTransform" dur="45s" repeatCount="indefinite" type="rotate" values="360 19 24; 0 19 24"/></linearGradient><linearGradient id="c" x1="22.56" x2="39.2" y1="21.96" y2="50.8" gradientUnits="userSpaceOnUse"><stop offset="0" stop-color="#f3f7fe"/><stop offset=".45" stop-color="#f3f7fe"/><stop offset="1" stop-color="#deeafb"/></linearGradient><linearGradient id="a" x1="27.5" x2="36.5" y1="50.21" y2="65.79" gradientUnits="userSpaceOnUse"><stop offset="0" stop-color="#d4d7dd"/><stop offset=".45" stop-color="#d4d7dd"/><stop offset="1" stop-color="#bec1c6"/></linearGradient><linearGradient id="d" y1="44.21" y2="59.79" xlink:href="#a"/></defs><path fill="url(#b)" stroke="#72b9d5" stroke-linecap="round" stroke-linejoin="round" stroke-width=".5" d="M29.33 26.68a10.61 10.61 0 01-10.68-10.54A10.5 10.5 0 0119 13.5a10.54 10.54 0 1011.5 13.11 11.48 11.48 0 01-1.17.07z"><animateTransform attributeName="transform" dur="10s" repeatCount="indefinite" type="rotate" values="-10 19.22 24.293; 10 19.22 24.293; -10 19.22 24.293"/></path><path fill="url(#c)" stroke="#e6effc" stroke-miterlimit="10" stroke-width=".5" d="M46.5 31.5h-.32a10.49 10.49 0 00-19.11-8 7 7 0 00-10.57 6 7.21 7.21 0 00.1 1.14A7.5 7.5 0 0018 45.5a4.19 4.19 0 00.5 0v0h28a7 7 0 000-14z"/><path fill="none" stroke="url(#a)" stroke-linecap="round" stroke-miterlimit="10" stroke-width="3" d="M17 58h30"><animateTransform attributeName="transform" begin="0s" dur="5s" repeatCount="indefinite" type="translate" values="-4 0; 4 0; -4 0"/></path><path fill="none" stroke="url(#d)" stroke-linecap="round" stroke-miterlimit="10" stroke-width="3" d="M17 52h30"><animateTransform attributeName="transform" begin="-4s" dur="5s" repeatCount="indefinite" type="translate" values="-4 0; 4 0; -4 0"/></path></svg>