<svg xmlns="http://www.w3.org/2000/svg" xmlns:xlink="http://www.w3.org/1999/xlink" viewBox="0 0 64 64"><defs><linearGradient id="a" x1="16.5" x2="21.5" y1="19.67" y2="28.33" gradientUnits="userSpaceOnUse"><stop offset="0" stop-color="#fbbf24"/><stop offset=".45" stop-color="#fbbf24"/><stop offset="1" stop-color="#f59e0b"/></linearGradient><linearGradient id="c" x1="23.29" x2="38.11" y1="23.36" y2="49.02" gradientUnits="userSpaceOnUse"><stop offset="0" stop-color="#f87171"/><stop offset=".45" stop-color="#f87171"/><stop offset="1" stop-color="#dc2626"/></linearGradient><linearGradient id="d" x1="24.62" x2="37.18" y1="26.06" y2="47.82" xlink:href="#a"/><linearGradient id="e" x1="18" x2="46" y1="34.25" y2="34.25" gradientUnits="userSpaceOnUse"><stop offset="0" stop-color="#51cf66"/><stop offset=".45" stop-color="#51cf66"/><stop offset="1" stop-color="#37b24d"/></linearGradient><linearGradient id="f" x1="39.75" x2="49.01" y1="32.41" y2="48.46" gradientUnits="userSpaceOnUse"><stop offset="0" stop-color="#f3f7fe"/><stop offset=".45" stop-color="#f3f7fe"/><stop offset="1" stop-color="#deeafb"/></linearGradient><clipPath id="b"><path fill="none" d="M20 27l12-4V11H6v24h8l6-8z"/></clipPath></defs><g stroke-miterlimit="10" clip-path="url(#b)"><circle cx="19" cy="24" r="5" fill="url(#a)" stroke="#f8af18" stroke-width=".5"/><path fill="none" stroke="#fbbf24" stroke-linecap="round" stroke-width="2" d="M19 15.67V12.5m0 23v-3.17m5.89-14.22l2.24-2.24M10.87 32.13l2.24-2.24m0-11.78l-2.24-2.24m16.26 16.26l-2.24-2.24M7.5 24h3.17m19.83 0h-3.17"><animateTransform attributeName="transform" dur="45s" repeatCount="indefinite" type="rotate" values="0 19 24; 360 19 24"/></path></g><path fill="none" stroke="url(#c)" stroke-miterlimit="10" stroke-width="3" d="M13.5 41A18.25 18.25 0 0132 23a18.25 18.25 0 0118.5 18"/><path fill="none" stroke="url(#d)" stroke-miterlimit="10" stroke-width="3" d="M16.5 41A15.26 15.26 0 0132 26a15.26 15.26 0 0115.5 15"/><path fill="none" stroke="url(#e)" stroke-miterlimit="10" stroke-width="3" d="M19.5 41A12.26 12.26 0 0132 29a12.26 12.26 0 0112.5 12"/><path fill="url(#f)" stroke="#e6effc" stroke-miterlimit="10" stroke-width=".5" d="M53.09 37.72h-.17a5.86 5.86 0 00-10.67-4.46 3.9 3.9 0 00-5.9 3.34 4.23 4.23 0 000 .63 4.17 4.17 0 00.79 8.26h15.9a3.89 3.89 0 100-7.78z"><animateTransform attributeName="transform" dur="7s" repeatCount="indefinite" type="translate" values="-3 0; 3 0; -3 0"/></path></svg>