<svg xmlns="http://www.w3.org/2000/svg" viewBox="0 0 64 64"><defs><linearGradient id="a" x1="23.61" x2="37.27" y1="21.85" y2="45.52" gradientUnits="userSpaceOnUse"><stop offset="0" stop-color="#f3f7fe"/><stop offset=".45" stop-color="#f3f7fe"/><stop offset="1" stop-color="#deeafb"/></linearGradient><linearGradient id="b" x1="38.58" x2="53.17" y1="19.34" y2="44.59" gradientUnits="userSpaceOnUse"><stop offset="0" stop-color="#d4d7dd"/><stop offset=".45" stop-color="#d4d7dd"/><stop offset="1" stop-color="#bec1c6"/></linearGradient><linearGradient id="d" x1="23.61" x2="37.27" y1="21.85" y2="45.52" gradientUnits="userSpaceOnUse"><stop offset="0" stop-color="#3392d6"/><stop offset=".45" stop-color="#3392d6"/><stop offset="1" stop-color="#2477b2"/></linearGradient><clipPath id="c"><path fill="none" d="M21 32h22v16H21z"><animate attributeName="d" dur="3s" repeatCount="indefinite" values="M21,32H43V48H21Z; M21,28H43V48H21Z; M21,32H43V48H21Z"/></path></clipPath></defs><path fill="url(#a)" stroke="#e6effc" stroke-miterlimit="10" stroke-width=".5" d="M32 17c-6.09 9-10 14.62-10 20.09a10 10 0 0020 0C42 31.62 38.09 26 32 17z"/><path fill="none" stroke="url(#b)" stroke-linecap="square" stroke-linejoin="round" d="M44 17h4v30h-4m1-15h3m-2 7h2m-2-15h2"/><g clip-path="url(#c)"><path fill="url(#d)" stroke="#2885c7" stroke-miterlimit="10" stroke-width=".5" d="M32 17c-6.09 9-10 14.62-10 20.09a10 10 0 0020 0C42 31.62 38.09 26 32 17z"/></g></svg>