<svg xmlns="http://www.w3.org/2000/svg" viewBox="0 0 64 64"><defs><linearGradient id="a" x1="24" x2="40" y1="18.15" y2="45.85" gradientUnits="userSpaceOnUse"><stop offset="0" stop-color="#86c3db"/><stop offset=".45" stop-color="#86c3db"/><stop offset="1" stop-color="#5eafcf"/></linearGradient></defs><path fill="url(#a)" d="M46.49 36.9l-4.28-2.47a10.5 10.5 0 000-4.86l4.29-2.47a3 3 0 10-3-5.2l-4.28 2.48a11 11 0 00-2-1.47A10.3 10.3 0 0035 22v-5a3 3 0 00-6 0v5a10.62 10.62 0 00-4.21 2.42l-4.28-2.52a3 3 0 10-3 5.2l4.28 2.47a10.5 10.5 0 000 4.86l-4.28 2.47a3 3 0 003 5.2l4.28-2.48a11 11 0 002 1.47 10.3 10.3 0 002.25 1v5a3 3 0 006 0V42a10.4 10.4 0 004.2-2.42l4.29 2.48a3 3 0 103-5.2zm-16.74-1A4.5 4.5 0 0132 27.5a4.56 4.56 0 012.24.6 4.5 4.5 0 11-4.5 7.8z"><animateTransform attributeName="transform" dur="18s" repeatCount="indefinite" type="rotate" values="0 32 32; 360 32 32"/></path></svg>