<svg xmlns="http://www.w3.org/2000/svg" viewBox="0 0 64 64"><defs><linearGradient id="a" x1="23.73" x2="39.18" y1="19.16" y2="45.93" gradientUnits="userSpaceOnUse"><stop offset="0" stop-color="#515a69" stop-opacity=".05"/><stop offset=".45" stop-color="#6b7280" stop-opacity=".05"/><stop offset="1" stop-color="#384354" stop-opacity=".1"/></linearGradient><linearGradient id="b" x1="23.48" x2="39.43" y1="18.73" y2="46.36" gradientUnits="userSpaceOnUse"><stop offset="0" stop-color="#d4d7dd"/><stop offset=".45" stop-color="#d4d7dd"/><stop offset="1" stop-color="#bec1c6"/></linearGradient></defs><circle cx="32" cy="42" r="4.5" fill="#ef4444"/><path fill="none" stroke="#ef4444" stroke-linecap="round" stroke-miterlimit="10" stroke-width="3" d="M32 27v15"><animateTransform attributeName="transform" dur="1s" repeatCount="indefinite" type="translate" values="0 0; 0 1; 0 0"/></path><path fill="url(#a)" stroke="url(#b)" stroke-linecap="round" stroke-linejoin="round" d="M39 41.9a7 7 0 11-14 0 7.12 7.12 0 013-5.83v-17a4 4 0 118 0v17a7.12 7.12 0 013 5.83zM32.5 25H36m-3.5-4H36m-3.5 8H36"/><path fill="#374151" d="M42.72 34.92a2.18 2.18 0 11-1.53-3.72 2.17 2.17 0 011.53 3.72zm-2.21-.86a.91.91 0 00.68.28.93.93 0 00.68-.28.89.89 0 00.28-.67.93.93 0 00-.28-.68.87.87 0 00-.68-.29.89.89 0 00-.68.29.93.93 0 00-.28.68.89.89 0 00.28.67zM50.89 31.41a.47.47 0 01.11.35v.66a.46.46 0 01-.11.35.5.5 0 01-.36.1h-4.09v2.46h3.44a.55.55 0 01.36.1.5.5 0 01.11.36v.65a.5.5 0 01-.11.36.51.51 0 01-.36.1h-3.44v3.44a.38.38 0 01-.45.46h-.76a.55.55 0 01-.36-.1.46.46 0 01-.11-.36v-8.58a.43.43 0 01.11-.35.5.5 0 01.36-.1h5.3a.5.5 0 01.36.1z"/></svg>