<svg xmlns="http://www.w3.org/2000/svg" viewBox="0 0 64 64"><defs><linearGradient id="a" x1="26.75" x2="37.25" y1="22.91" y2="41.09" gradientUnits="userSpaceOnUse"><stop offset="0" stop-color="#fbbf24"/><stop offset=".45" stop-color="#fbbf24"/><stop offset="1" stop-color="#f59e0b"/></linearGradient></defs><circle cx="32" cy="32" r="10.5" fill="url(#a)" stroke="#f8af18" stroke-miterlimit="10" stroke-width=".5"/><path fill="none" stroke="#fbbf24" stroke-linecap="round" stroke-miterlimit="10" stroke-width="3" d="M32 15.71V9.5m0 45v-6.21m11.52-27.81l4.39-4.39M16.09 47.91l4.39-4.39m0-23l-4.39-4.39m31.82 31.78l-4.39-4.39M15.71 32H9.5m45 0h-6.21"><animateTransform attributeName="transform" dur="45s" repeatCount="indefinite" type="rotate" values="0 32 32; 360 32 32"/></path><rect width="21" height="21" x="33.5" y="33.5" fill="#ffb800" stroke="#fff" stroke-miterlimit="10" stroke-width="2" rx="6"/><path fill="#fff" d="M47.4 44.87a.53.53 0 01.1.36v.63a.55.55 0 01-.1.36.54.54 0 01-.38.1h-.64v1.22a.5.5 0 01-.11.36.51.51 0 01-.37.1h-.81a.51.51 0 01-.37-.1.5.5 0 01-.11-.36v-1.22H41a.54.54 0 01-.38-.1.5.5 0 01-.1-.36v-.56a1.44 1.44 0 010-.35.92.92 0 01.17-.25l3.66-4.37a1 1 0 01.3-.26A.81.81 0 0145 40h.86a.51.51 0 01.37.1.5.5 0 01.11.36v4.31H47a.54.54 0 01.4.1zm-4.79-.1h2v-2.38z"/></svg>