<svg xmlns="http://www.w3.org/2000/svg" viewBox="0 0 64 64"><defs><linearGradient id="a" x1="26.75" x2="37.25" y1="22.91" y2="41.09" gradientUnits="userSpaceOnUse"><stop offset="0" stop-color="#fbbf24"/><stop offset=".45" stop-color="#fbbf24"/><stop offset="1" stop-color="#f59e0b"/></linearGradient></defs><circle cx="32" cy="32" r="10.5" fill="url(#a)" stroke="#f8af18" stroke-miterlimit="10" stroke-width=".5"/><path fill="none" stroke="#fbbf24" stroke-linecap="round" stroke-miterlimit="10" stroke-width="3" d="M32 15.71V9.5m0 45v-6.21m11.52-27.81l4.39-4.39M16.09 47.91l4.39-4.39m0-23l-4.39-4.39m31.82 31.78l-4.39-4.39M15.71 32H9.5m45 0h-6.21"><animateTransform attributeName="transform" dur="45s" repeatCount="indefinite" type="rotate" values="0 32 32; 360 32 32"/></path><rect width="21" height="21" x="33.5" y="33.5" fill="#ff3c00" stroke="#fff" stroke-miterlimit="10" stroke-width="2" rx="6"/><path fill="#fff" d="M43.89 45a3.21 3.21 0 01-2.18-.63 2.38 2.38 0 01-.71-1.84 2.25 2.25 0 01.8-1.85A3.29 3.29 0 0144 40a3 3 0 012.23.76 2.84 2.84 0 01.77 2.12v2.24a2.81 2.81 0 01-.78 2.12A3 3 0 0144 48a2.75 2.75 0 01-2.88-1.73.4.4 0 010-.35.53.53 0 01.29-.21l.78-.29a.42.42 0 01.34 0 .75.75 0 01.22.31 1.21 1.21 0 001.26.69 1.11 1.11 0 001.27-1.25v-.23a6.78 6.78 0 01-1.39.06zm.11-3.41q-1.26 0-1.26.93a.84.84 0 00.29.7 1.63 1.63 0 001 .23 3.43 3.43 0 001.26-.18v-.48q-.03-1.2-1.29-1.2z"/></svg>