<svg xmlns="http://www.w3.org/2000/svg" viewBox="0 0 64 64"><defs><linearGradient id="a" x1="26.75" x2="37.25" y1="22.91" y2="41.09" gradientUnits="userSpaceOnUse"><stop offset="0" stop-color="#fbbf24"/><stop offset=".45" stop-color="#fbbf24"/><stop offset="1" stop-color="#f59e0b"/></linearGradient></defs><circle cx="32" cy="32" r="10.5" fill="url(#a)" stroke="#f8af18" stroke-miterlimit="10" stroke-width=".5"/><path fill="none" stroke="#fbbf24" stroke-linecap="round" stroke-miterlimit="10" stroke-width="3" d="M32 15.71V9.5m0 45v-6.21m11.52-27.81l4.39-4.39M16.09 47.91l4.39-4.39m0-23l-4.39-4.39m31.82 31.78l-4.39-4.39M15.71 32H9.5m45 0h-6.21"><animateTransform attributeName="transform" dur="45s" repeatCount="indefinite" type="rotate" values="0 32 32; 360 32 32"/></path><rect width="21" height="21" x="33.5" y="33.5" fill="#ff8d00" stroke="#fff" stroke-miterlimit="10" stroke-width="2" rx="6"/><path fill="#fff" d="M44.11 43C46 43 47 43.8 47 45.47a2.26 2.26 0 01-.8 1.85A3.29 3.29 0 0144 48a3 3 0 01-2.23-.76 2.84 2.84 0 01-.77-2.12v-2.24a2.81 2.81 0 01.78-2.12A3 3 0 0144 40a2.73 2.73 0 012.87 1.73.37.37 0 010 .35.53.53 0 01-.3.21l-.77.29a.42.42 0 01-.34 0 .67.67 0 01-.22-.31 1.23 1.23 0 00-1.24-.66 1.11 1.11 0 00-1.27 1.25v.23a6.56 6.56 0 011.38-.09zM44 46.41q1.26 0 1.26-.93a.84.84 0 00-.29-.7 1.63 1.63 0 00-1-.23 3.7 3.7 0 00-1.26.17v.49q.03 1.2 1.29 1.2z"/></svg>