<svg xmlns="http://www.w3.org/2000/svg" viewBox="0 0 64 64"><defs><linearGradient id="a" x1="26.75" x2="37.25" y1="22.91" y2="41.09" gradientUnits="userSpaceOnUse"><stop offset="0" stop-color="#fbbf24"/><stop offset=".45" stop-color="#fbbf24"/><stop offset="1" stop-color="#f59e0b"/></linearGradient></defs><circle cx="32" cy="32" r="10.5" fill="url(#a)" stroke="#f8af18" stroke-miterlimit="10" stroke-width=".5"/><path fill="none" stroke="#fbbf24" stroke-linecap="round" stroke-miterlimit="10" stroke-width="3" d="M32 15.71V9.5m0 45v-6.21m11.52-27.81l4.39-4.39M16.09 47.91l4.39-4.39m0-23l-4.39-4.39m31.82 31.78l-4.39-4.39M15.71 32H9.5m45 0h-6.21"><animateTransform attributeName="transform" dur="45s" repeatCount="indefinite" type="rotate" values="0 32 32; 360 32 32"/></path><rect width="21" height="21" x="33.5" y="33.5" fill="#ff8d00" stroke="#fff" stroke-miterlimit="10" stroke-width="2" rx="6"/><path fill="#fff" d="M46.9 40.1a.5.5 0 01.1.36V41a1.51 1.51 0 01-.15.65l-2.8 5.93a.61.61 0 01-.27.34 1.88 1.88 0 01-.6.07h-.92c-.28 0-.36-.15-.23-.46l2.79-5.87h-3.36a.53.53 0 01-.36-.1.49.49 0 01-.1-.35v-.76a.5.5 0 01.1-.36.48.48 0 01.36-.1h5.07a.53.53 0 01.37.11z"/></svg>