<svg xmlns="http://www.w3.org/2000/svg" xmlns:xlink="http://www.w3.org/1999/xlink" viewBox="0 0 64 64"><defs><linearGradient id="a" x1="27.56" x2="38.27" y1="17.64" y2="36.19" gradientUnits="userSpaceOnUse"><stop offset="0" stop-color="#d4d7dd"/><stop offset=".45" stop-color="#d4d7dd"/><stop offset="1" stop-color="#bec1c6"/></linearGradient><linearGradient id="b" x1="19.96" x2="31.37" y1="29.03" y2="48.8" xlink:href="#a"/></defs><path fill="none" stroke="url(#a)" stroke-dasharray="35 22" stroke-linecap="round" stroke-miterlimit="10" stroke-width="3" d="M43.64 20a5 5 0 113.61 8.46h-35.5"><animate attributeName="stroke-dashoffset" dur="1.2s" repeatCount="indefinite" values="-57; 57"/></path><path fill="none" stroke="url(#b)" stroke-dasharray="24 15" stroke-linecap="round" stroke-miterlimit="10" stroke-width="3" d="M29.14 44a5 5 0 103.61-8.46h-21"><animate attributeName="stroke-dashoffset" begin="-.3s" dur="1.2s" repeatCount="indefinite" values="-39; 39"/></path><path fill="#374151" d="M46.28 34.82a.57.57 0 01.11.39v9.64a.43.43 0 01-.51.51H45a.52.52 0 01-.4-.12.51.51 0 01-.11-.39V37l-2.1 1.17a.65.65 0 01-.47.12.6.6 0 01-.3-.31l-.37-.67a.53.53 0 01-.07-.4c0-.1.14-.19.31-.29l2.92-1.68a1.37 1.37 0 01.72-.21h.72a.55.55 0 01.43.09zM49.38 35.46a4.84 4.84 0 015.84 0 3.44 3.44 0 011 2.64V42a3.49 3.49 0 01-1 2.66 4.88 4.88 0 01-5.84 0A3.42 3.42 0 0148.33 42v-3.9a3.38 3.38 0 011.05-2.64zm4.46 1.26a2.66 2.66 0 00-3.08 0 1.78 1.78 0 00-.55 1.38V42a1.78 1.78 0 00.55 1.38 2.67 2.67 0 003.08 0 1.78 1.78 0 00.54-1.38v-3.9a1.78 1.78 0 00-.54-1.38z"/></svg>