<svg xmlns="http://www.w3.org/2000/svg" xmlns:xlink="http://www.w3.org/1999/xlink" viewBox="0 0 64 64"><defs><linearGradient id="a" x1="27.56" x2="38.27" y1="17.64" y2="36.19" gradientUnits="userSpaceOnUse"><stop offset="0" stop-color="#d4d7dd"/><stop offset=".45" stop-color="#d4d7dd"/><stop offset="1" stop-color="#bec1c6"/></linearGradient><linearGradient id="b" x1="19.96" x2="31.37" y1="29.03" y2="48.8" xlink:href="#a"/></defs><path fill="none" stroke="url(#a)" stroke-dasharray="35 22" stroke-linecap="round" stroke-miterlimit="10" stroke-width="3" d="M43.64 20a5 5 0 113.61 8.46h-35.5"><animate attributeName="stroke-dashoffset" dur="1.6s" repeatCount="indefinite" values="-57; 57"/></path><path fill="none" stroke="url(#b)" stroke-dasharray="24 15" stroke-linecap="round" stroke-miterlimit="10" stroke-width="3" d="M29.14 44a5 5 0 103.61-8.46h-21"><animate attributeName="stroke-dashoffset" begin="-.4s" dur="1.6s" repeatCount="indefinite" values="-39; 39"/></path><path fill="#374151" d="M49.21 38.72c2.59 0 3.88 1.15 3.88 3.42A3.13 3.13 0 0152 44.66a4.41 4.41 0 01-3 .92 4.11 4.11 0 01-3-1 3.87 3.87 0 01-1-2.87v-3.32a3.88 3.88 0 011-2.88 4.1 4.1 0 013-1q3 0 3.87 2.37a.56.56 0 010 .41.73.73 0 01-.35.25l-.8.28a.46.46 0 01-.4 0 .69.69 0 01-.25-.35 2.05 2.05 0 00-2.11-1.25 1.91 1.91 0 00-2.16 2.15V39a8.91 8.91 0 012.41-.28zm-.15 5.1a2.66 2.66 0 001.61-.42 1.49 1.49 0 00.55-1.26 1.56 1.56 0 00-.5-1.25 2.65 2.65 0 00-1.64-.41 5.3 5.3 0 00-2.18.34v.86a1.9 1.9 0 002.16 2.14z"/></svg>