<svg xmlns="http://www.w3.org/2000/svg" xmlns:xlink="http://www.w3.org/1999/xlink" viewBox="0 0 64 64"><defs><linearGradient id="a" x1="27.56" x2="38.27" y1="17.64" y2="36.19" gradientUnits="userSpaceOnUse"><stop offset="0" stop-color="#d4d7dd"/><stop offset=".45" stop-color="#d4d7dd"/><stop offset="1" stop-color="#bec1c6"/></linearGradient><linearGradient id="b" x1="19.96" x2="31.37" y1="29.03" y2="48.8" xlink:href="#a"/></defs><path fill="none" stroke="url(#a)" stroke-linecap="round" stroke-miterlimit="10" stroke-width="3" d="M43.64 20a5 5 0 113.61 8.46h-35.5"/><path fill="none" stroke="url(#b)" stroke-linecap="round" stroke-miterlimit="10" stroke-width="3" d="M29.14 44a5 5 0 103.61-8.46h-21"/><path fill="#374151" d="M46.08 35.46a4.08 4.08 0 012.92-1 4.08 4.08 0 012.92 1 3.44 3.44 0 011 2.64V42a3.49 3.49 0 01-1 2.66 4.12 4.12 0 01-2.92 1 4.12 4.12 0 01-2.92-1A3.46 3.46 0 0145 42v-3.9a3.41 3.41 0 011.08-2.64zm4.46 1.26a2.66 2.66 0 00-3.08 0 1.78 1.78 0 00-.54 1.38V42a1.78 1.78 0 00.54 1.38 2.67 2.67 0 003.08 0 1.78 1.78 0 00.54-1.38v-3.9a1.78 1.78 0 00-.54-1.38z"/></svg>