<svg xmlns="http://www.w3.org/2000/svg" xmlns:xlink="http://www.w3.org/1999/xlink" viewBox="0 0 64 64"><defs><linearGradient id="a" x1="27.56" x2="38.27" y1="17.64" y2="36.19" gradientUnits="userSpaceOnUse"><stop offset="0" stop-color="#d4d7dd"/><stop offset=".45" stop-color="#d4d7dd"/><stop offset="1" stop-color="#bec1c6"/></linearGradient><linearGradient id="b" x1="19.96" x2="31.37" y1="29.03" y2="48.8" xlink:href="#a"/></defs><path fill="none" stroke="url(#a)" stroke-dasharray="35 22" stroke-linecap="round" stroke-miterlimit="10" stroke-width="3" d="M43.64 20a5 5 0 113.61 8.46h-35.5"><animate attributeName="stroke-dashoffset" dur="1.7s" repeatCount="indefinite" values="-57; 57"/></path><path fill="none" stroke="url(#b)" stroke-dasharray="24 15" stroke-linecap="round" stroke-miterlimit="10" stroke-width="3" d="M29.14 44a5 5 0 103.61-8.46h-21"><animate attributeName="stroke-dashoffset" begin="-.425s" dur="1.7s" repeatCount="indefinite" values="-39; 39"/></path><path fill="#374151" d="M52.37 34.82a.57.57 0 01.11.39V36a.42.42 0 01-.51.51h-4.29l-.22 2.21h1.81a3.62 3.62 0 012.71.95 3.32 3.32 0 01.94 2.33 3.42 3.42 0 01-1 2.52 3.69 3.69 0 01-2.75 1c-2.12 0-3.48-.81-4.07-2.45a.46.46 0 01.32-.66l.83-.28a.54.54 0 01.4 0 .62.62 0 01.24.36 2.15 2.15 0 002.26 1.31 1.8 1.8 0 001.31-.47 1.71 1.71 0 00.47-1.33 1.53 1.53 0 00-.48-1.19 1.82 1.82 0 00-1.28-.45H46a.55.55 0 01-.45-.14.6.6 0 01-.09-.46l.45-4.36a1 1 0 01.22-.58 1 1 0 01.61-.15H52a.55.55 0 01.37.15z"/></svg>