<svg xmlns="http://www.w3.org/2000/svg" xmlns:xlink="http://www.w3.org/1999/xlink" viewBox="0 0 512 512">
    <defs>
        <linearGradient id="a" x1="215.63" y1="215.13" x2="285.25" y2="335.71" gradientUnits="userSpaceOnUse">
            <stop offset="0" stop-color="#f87171"/>
            <stop offset="0.45" stop-color="#f87171"/>
            <stop offset="1" stop-color="#dc2626"/>
        </linearGradient>
        <linearGradient id="b" x1="222.18" y1="276.11" x2="289.82" y2="393.26" gradientUnits="userSpaceOnUse">
            <stop offset="0" stop-color="#f3f7fe"/>
            <stop offset="0.45" stop-color="#f3f7fe"/>
            <stop offset="1" stop-color="#deeafb"/>
        </linearGradient>
        <linearGradient id="c" x1="245" y1="151.63" x2="267" y2="189.74" xlink:href="#b"/>
    </defs>

    <!-- red -->
    <path d="M256,204.68h0a83,83,0,0,1,83,83v17a0,0,0,0,1,0,0H173a0,0,0,0,1,0,0v-17a83,83,0,0,1,83-83Z" stroke="#ef4444" stroke-miterlimit="10" stroke-width="4" fill="url(#a)"/>

    <!-- white -->
    <path d="M160,317.5v34.37c0,6.32,7.13,11.45,15.93,11.45H336.07c8.8,0,15.93-5.13,15.93-11.45V317.5c0-6.33-7.13-11.45-15.93-11.45H175.93C167.13,306.05,160,311.17,160,317.5Z" stroke="#e6effc" stroke-miterlimit="10" stroke-width="4" fill="url(#b)"/>

    <!-- dot -->
    <circle cx="256" cy="170.68" r="22" stroke="#e6effc" stroke-miterlimit="10" stroke-width="4" fill="url(#c)">
        <animateTransform
            id="x"
            attributeName="transform"
            additive="sum"
            type="translate"
            values="0 0; 0 -9; 0 3; 0 0"
            begin="0s; x.end+2.58s"
            dur=".42s"
            fill="freeze"
            calcMode="spline"
            keySplines=".42, 0, .58, 1; .42, 0, .58, 1; .42, 0, .58, 1"
            keyTimes="0; .4; .8; 1"/>

        <animateTransform
            id="y"
            attributeName="transform"
            additive="sum"
            type="rotate"
            values="0 256 256; -15 256 256; 9 256 256; -9 256 256; 6 256 256; 0 256 256"
            begin="1s; y.end+2.25s"
            dur=".75s"
            fill="freeze"
            calcMode="spline"
            keySplines=".42, 0, .58, 1; .42, 0, .58, 1; .42, 0, .58, 1; .42, 0, .58, 1; .42, 0, .58, 1"
            keyTimes="0; .22; .44; .67; .89; 1"/>
    </circle>
</svg>
