<svg xmlns="http://www.w3.org/2000/svg" viewBox="0 0 64 64">
	<defs>
		<linearGradient id="a" x1="23" y1="16.41" x2="41" y2="47.59" gradientUnits="userSpaceOnUse">
			<stop offset="0" stop-color="#6b7280"/>
			<stop offset="0.45" stop-color="#6b7280"/>
			<stop offset="1" stop-color="#374151"/>
		</linearGradient>
	</defs>
	<circle cx="32" cy="32" r="18" stroke="#e5e7eb" stroke-miterlimit="10" stroke-width="2" fill="url(#a)"/>
	<path d="M36.47,39.46l-4.3-15.09A.17.17,0,0,0,32,24.2a.16.16,0,0,0-.17.17L27.51,39.46a.35.35,0,0,0,.07.29q.06.11.24,0l4-1.5a.47.47,0,0,1,.33,0l4,1.5c.13.07.22.07.28,0A.26.26,0,0,0,36.47,39.46Z" fill="#fff" stroke="#fff" stroke-miterlimit="10" stroke-width="0.5">
		<animateTransform attributeName="transform" type="rotate" values="-3 32 32;3 32 32;-3 32 32" calcMode="spline" dur="1s" keySplines="0.5 0 0.5 1; 0.5 0 0.5 1" repeatCount="indefinite"/>
	</path>
</svg>
