<svg xmlns="http://www.w3.org/2000/svg" xmlns:xlink="http://www.w3.org/1999/xlink" viewBox="0 0 512 512">
    <defs>
        <symbol id="a" viewBox="0 0 99.46 70.94">
            <path d="M19.39,0A18.71,18.71,0,0,0,0,19.29,18.88,18.88,0,0,0,19.39,38.78a18.66,18.66,0,0,0,13.92-5.57,18.83,18.83,0,0,0,5.48-13.92A18.73,18.73,0,0,0,19.39,0Zm6.34,25.73a8.61,8.61,0,0,1-6.34,2.49,8.5,8.5,0,0,1-6.24-2.49,8.71,8.71,0,0,1-2.4-6.44A8.6,8.6,0,0,1,13.15,13a8.36,8.36,0,0,1,6.24-2.45,8.39,8.39,0,0,1,8.74,8.73A8.71,8.71,0,0,1,25.73,25.73Z" fill="#374151"/>
            <polygon points="99.46 17.86 99.46 2.59 47.42 2.59 47.42 70.94 65.38 70.94 65.38 44.74 94.27 44.74 94.27 30.05 65.38 30.05 65.38 17.86 99.46 17.86" fill="#374151"/>
        </symbol>
    </defs>
    <use width="99.46" height="70.94" transform="translate(181.49 202.35) scale(1.5 1.51)" xlink:href="#a"/>
</svg>
