<svg xmlns="http://www.w3.org/2000/svg" xmlns:xlink="http://www.w3.org/1999/xlink" viewBox="0 0 512 512">
    <defs>
        <linearGradient id="a" x1="54.33" y1="29.03" x2="187.18" y2="259.13" gradientUnits="userSpaceOnUse">
            <stop offset="0" stop-color="#86c3db"/>
            <stop offset="0.45" stop-color="#86c3db"/>
            <stop offset="1" stop-color="#5eafcf"/>
        </linearGradient>
        <clipPath id="b">
            <polygon points="512 27.48 240 189.12 256 237.12 296 269.12 512 173.12 512 27.48" fill="none"/>
        </clipPath>
        <linearGradient id="c" x1="344.29" y1="153.9" x2="375.71" y2="208.33" gradientUnits="userSpaceOnUse">
            <stop offset="0" stop-color="#fcd966"/>
            <stop offset="0.45" stop-color="#fcd966"/>
            <stop offset="1" stop-color="#fccd34"/>
        </linearGradient>
        <linearGradient id="d" x1="294" y1="112.82" x2="330" y2="175.18" xlink:href="#c"/>
        <linearGradient id="e" x1="356.29" y1="194.78" x2="387.71" y2="249.22" xlink:href="#c"/>
        <symbol id="f" viewBox="0 0 270 270">
            <!-- moon -->
            <path d="M252.25,168.63C178.13,168.63,118,109.35,118,36.21A130.48,130.48,0,0,1,122.47,3C55.29,10.25,3,66.37,3,134.58,3,207.71,63.09,267,137.21,267,199.69,267,252,224.82,267,167.79A135.56,135.56,0,0,1,252.25,168.63Z" stroke="#72b9d5" stroke-linecap="round" stroke-linejoin="round" stroke-width="6" fill="url(#a)">
                <animateTransform
                    attributeName="transform"
                    additive="sum"
                    type="rotate"
                    values="-15 135 135; 9 135 135; -15 135 135"
                    dur="6s"
                    repeatCount="indefinite"/>
            </path>
        </symbol>
    </defs>

    <!-- star-2 -->
    <g clip-path="url(#b)" opacity="0">
        <line x1="332" y1="193.12" x2="326.63" y2="195.8" fill="none" stroke="#fcd34d" stroke-linecap="round" stroke-miterlimit="10" stroke-width="4"/>
        <line x1="315.38" y1="201.42" x2="230.99" y2="243.62" fill="none" stroke="#fcd34d" stroke-linecap="round" stroke-miterlimit="10" stroke-width="4" stroke-dasharray="12.58 12.58"/>
        <line x1="225.37" y1="246.43" x2="220" y2="249.12" fill="none" stroke="#fcd34d" stroke-linecap="round" stroke-miterlimit="10" stroke-width="4"/>
        <path d="M329.1,165.28l18,18.37a1.78,1.78,0,0,1,.46,1.71l-6.42,24.92a1.8,1.8,0,0,0,3,1.74l18.37-18a1.8,1.8,0,0,1,1.71-.46L389.17,200a1.8,1.8,0,0,0,1.73-3l-18-18.37a1.78,1.78,0,0,1-.46-1.71L378.84,152a1.8,1.8,0,0,0-3-1.74l-18.37,18a1.8,1.8,0,0,1-1.71.46l-24.93-6.43A1.8,1.8,0,0,0,329.1,165.28Z" stroke="#fcd34d" stroke-linecap="round" stroke-linejoin="round" stroke-width="2" fill="url(#c)"/>

        <animateTransform
            id="x1"
            attributeName="transform"
            additive="sum"
            type="translate"
            values="-126 48; 42 -30"
            begin="0s; x1.end+2s"
            dur="1s"
            repeatCount="indefinite"/>

        <animate
            id="y1"
            attributeName="opacity"
            values="0; 1; 1; 0"
            begin="0s; y1.end+2s"
            dur="1s"
            calcMode="spline"
            keySplines=".42, 0, .58, 1; .42, 0, .58, 1; .42, 0, .58, 1"
            keyTimes="0; .17; .67; 1"/>
    </g>

    <!-- star-1 -->
    <path d="M282.83,162.84l24.93-6.42a1.78,1.78,0,0,1,1.71.46l18.37,18a1.8,1.8,0,0,0,3-1.73l-6.42-24.93a1.78,1.78,0,0,1,.46-1.71l18-18.37a1.8,1.8,0,0,0-1.73-3l-24.93,6.42a1.78,1.78,0,0,1-1.71-.46l-18.37-18a1.8,1.8,0,0,0-3,1.73l6.42,24.93a1.78,1.78,0,0,1-.46,1.71l-18,18.37A1.8,1.8,0,0,0,282.83,162.84Z" stroke="#fcd34d" stroke-linecap="round" stroke-linejoin="round" stroke-width="2" fill="url(#d)">
        <animateTransform
            attributeName="transform"
            additive="sum"
            type="rotate"
            values="-15 312 144; 15 312 144; -15 312 144"
            dur="6s"
            calcMode="spline"
            keySplines=".42, 0, .58, 1; .42, 0, .58, 1"
            repeatCount="indefinite"/>

        <animate
            attributeName="opacity"
            values="1; .75; 1; .75; 1; .75; 1"
            dur="6s"
            calcMode="spline"
            keySplines=".42, 0, .58, 1; .42, 0, .58, 1; .42, 0, .58, 1; .42, 0, .58, 1; .42, 0, .58, 1; .42, 0, .58, 1"
            repeatCount="indefinite"/>
    </path>

    <!-- star-3 -->
    <path d="M337.32,223.73l24.8,6.9a1.83,1.83,0,0,1,1.25,1.25l6.9,24.8a1.79,1.79,0,0,0,3.46,0l6.9-24.8a1.83,1.83,0,0,1,1.25-1.25l24.8-6.9a1.79,1.79,0,0,0,0-3.46l-24.8-6.9a1.83,1.83,0,0,1-1.25-1.25l-6.9-24.8a1.79,1.79,0,0,0-3.46,0l-6.9,24.8a1.83,1.83,0,0,1-1.25,1.25l-24.8,6.9A1.79,1.79,0,0,0,337.32,223.73Z" stroke="#fcd34d" stroke-linecap="round" stroke-linejoin="round" stroke-width="2" fill="url(#e)">
        <animateTransform
            attributeName="transform"
            additive="sum"
            type="rotate"
            values="-15 372 222; 15 372 222; -15 372 222"
            begin="-.67s"
            dur="6s"
            calcMode="spline"
            keySplines=".42, 0, .58, 1; .42, 0, .58, 1"
            repeatCount="indefinite"/>

        <animate
            attributeName="opacity"
            values="1; .75; 1; .75; 1; .75; 1"
            begin="-.67s"
            dur="6s"
            calcMode="spline"
            keySplines=".42, 0, .58, 1; .42, 0, .58, 1; .42, 0, .58, 1; .42, 0, .58, 1; .42, 0, .58, 1; .42, 0, .58, 1"
            repeatCount="indefinite"/>
    </path>

    <use width="270" height="270" transform="translate(121 121)" xlink:href="#f"/>
</svg>
