<svg xmlns="http://www.w3.org/2000/svg" viewBox="0 0 64 64">
	<defs>
		<clipPath id="a">
			<polygon points="21.17 46.81 18 64 42 64 44.75 46.81 21.17 46.81" fill="none"/>
		</clipPath>
	</defs>
	<g clip-path="url(#a)">
		<g>
			<circle cx="32" cy="50" r="1.5" fill="#72b8d4"/>
			<animateTransform attributeName="transform" type="translate" values="2 -10; -2 12; -1 9" dur="0.6s" repeatCount="indefinite"/>
			<animate attributeName="opacity" values="1;1;0" dur="0.6s" repeatCount="indefinite"/>
		</g>
		<g>
			<circle cx="39" cy="50" r="1.5" fill="#72b8d4"/>
			<animateTransform attributeName="transform" type="translate" values="2 -10; -2 12; -1 9" dur="0.6s" begin="-0.4s" repeatCount="indefinite"/>
			<animate attributeName="opacity" values="1;1;0" dur="0.6s" begin="-0.4s" repeatCount="indefinite"/>
		</g>
		<g>
			<circle cx="25" cy="50" r="1.5" fill="#72b8d4"/>
			<animateTransform attributeName="transform" type="translate" values="2 -10; -2 12; -1 9" dur="0.6s" begin="-0.2s" repeatCount="indefinite"/>
			<animate attributeName="opacity" values="1;1;0" dur="0.6s" begin="-0.2s" repeatCount="indefinite"/>
		</g>
	</g>
	<path d="M46.5,31.5l-.32,0a10.49,10.49,0,0,0-19.11-8,7,7,0,0,0-10.57,6,7.21,7.21,0,0,0,.1,1.14A7.5,7.5,0,0,0,18,45.5a4.19,4.19,0,0,0,.5,0v0h28a7,7,0,0,0,0-14Z" fill="#efefef" stroke="#efefef" stroke-miterlimit="10" stroke-width="3"/>
</svg>
