<svg xmlns="http://www.w3.org/2000/svg" xmlns:xlink="http://www.w3.org/1999/xlink" viewBox="0 0 512 512">
    <defs>
        <linearGradient id="a" x1="99.45" y1="30.68" x2="232.64" y2="261.37" gradientUnits="userSpaceOnUse">
            <stop offset="0" stop-color="#f3f7fe"/>
            <stop offset="0.45" stop-color="#f3f7fe"/>
            <stop offset="1" stop-color="#deeafb"/>
        </linearGradient>
        <linearGradient id="b" x1="52.74" y1="9.62" x2="133.36" y2="149.27" gradientUnits="userSpaceOnUse">
            <stop offset="0" stop-color="#9ca3af"/>
            <stop offset="0.45" stop-color="#9ca3af"/>
            <stop offset="1" stop-color="#6b7280"/>
        </linearGradient>
        <linearGradient id="c" x1="11.38" y1="5.93" x2="32.82" y2="43.07" gradientUnits="userSpaceOnUse">
            <stop offset="0" stop-color="#86c3db"/>
            <stop offset="0.45" stop-color="#86c3db"/>
            <stop offset="1" stop-color="#5eafcf"/>
        </linearGradient>
        <linearGradient id="d" x1="67.38" y1="5.93" x2="88.82" y2="43.07" xlink:href="#c"/>
        <linearGradient id="e" x1="123.38" y1="5.93" x2="144.82" y2="43.07" xlink:href="#c"/>
        <linearGradient id="f" x1="78" y1="63.35" x2="118" y2="132.65" gradientUnits="userSpaceOnUse">
            <stop offset="0" stop-color="#fbbf24"/>
            <stop offset="0.45" stop-color="#fbbf24"/>
            <stop offset="1" stop-color="#f59e0b"/>
        </linearGradient>
        <symbol id="h" viewBox="0 0 196 196">
            <!-- sun-core -->
            <circle cx="98" cy="98" r="40" stroke="#f8af18" stroke-miterlimit="10" stroke-width="4" fill="url(#f)"/>

            <!-- sun-rays -->
            <path d="M98,31.38V6m0,184V164.62M145.11,50.89,163.05,33M33,163.05l17.94-17.94m0-94.22L33,33m130.1,130.1-17.94-17.94M6,98H31.38M190,98H164.62" fill="none" stroke="#fbbf24" stroke-linecap="round" stroke-miterlimit="10" stroke-width="12">
                <animateTransform
                    attributeName="transform"
                    additive="sum"
                    type="rotate"
                    values="0 98 98; 45 98 98"
                    dur="6s"
                    repeatCount="indefinite"/>
            </path>
        </symbol>
        <symbol id="j" viewBox="0 0 200.26 126.12">
            <path d="M.5,93.18a32.44,32.44,0,0,0,32.44,32.44H162.69v-.12c.77,0,1.53.12,2.31.12a34.75,34.75,0,0,0,6.49-68.89A32.38,32.38,0,0,0,123,23.62,48.58,48.58,0,0,0,34.4,60.81c-.49,0-1-.07-1.46-.07A32.44,32.44,0,0,0,.5,93.18Z" stroke="#848b98" stroke-miterlimit="10" fill="url(#b)"/>
        </symbol>
        <symbol id="k" viewBox="0 0 350 222">
            <path d="M291,107c-.85,0-1.68.09-2.53.13A83.9,83.9,0,0,0,135.6,42.92,55.91,55.91,0,0,0,51,91a56.56,56.56,0,0,0,.8,9.08A60,60,0,0,0,63,219c1.35,0,2.67-.11,4-.2v.2H291a56,56,0,0,0,0-112Z" stroke="#e6effc" stroke-miterlimit="10" stroke-width="6" fill="url(#a)"/>
        </symbol>
        <symbol id="i" viewBox="0 0 398 222" overflow="visible">
            <!-- dark-cloud -->
            <use width="200.26" height="126.12" transform="translate(198 27)" xlink:href="#j">
                <animateTransform
                    attributeName="transform"
                    additive="sum"
                    type="translate"
                    values="-9 0; 9 0; -9 0"
                    dur="6s"
                    repeatCount="indefinite"/>
            </use>

            <!-- cloud -->
            <use width="350" height="222" xlink:href="#k">
                <animateTransform
                    attributeName="transform"
                    additive="sum"
                    type="translate"
                    values="-18 0; 18 0; -18 0"
                    dur="6s"
                    repeatCount="indefinite"/>
            </use>
        </symbol>
        <symbol id="g" viewBox="0 0 410.84 258" overflow="visible">
            <use width="196" height="196" xlink:href="#h"/>
            <use width="398" height="222" transform="translate(12.84 36)" xlink:href="#i"/>
        </symbol>
        <symbol id="l" viewBox="0 0 156.2 49" overflow="visible">
            <!-- snowflake-1 -->
            <g>
                <path d="M41.67,31l-5.78-3.3a13.74,13.74,0,0,0,0-6.47L41.67,18a4,4,0,0,0,1.49-5.46A4.08,4.08,0,0,0,37.62,11l-5.79,3.3a13.61,13.61,0,0,0-2.64-2,13.84,13.84,0,0,0-3-1.28V4.5a4.05,4.05,0,0,0-8.1,0v6.6a14.25,14.25,0,0,0-5.69,3.23L6.58,11A4.08,4.08,0,0,0,1,12.5,4,4,0,0,0,2.53,18l5.78,3.3a13.74,13.74,0,0,0,0,6.47L2.53,31A4,4,0,0,0,1,36.5a4.08,4.08,0,0,0,3.52,2,4,4,0,0,0,2-.54l5.79-3.3a13.61,13.61,0,0,0,2.64,2,13.8,13.8,0,0,0,3,1.27V44.5a4.05,4.05,0,0,0,8.1,0V37.89a14.22,14.22,0,0,0,5.68-3.23L37.62,38a4,4,0,0,0,2,.54,4.08,4.08,0,0,0,3.52-2A4,4,0,0,0,41.67,31ZM19.06,29.7a6,6,0,0,1-2.22-8.2,6.1,6.1,0,0,1,5.27-3,6.16,6.16,0,0,1,3,.8,6,6,0,0,1,2.22,8.2A6.12,6.12,0,0,1,19.06,29.7Z" stroke="#86c3db" stroke-miterlimit="10" fill="url(#c)" opacity="0">
                    <animateTransform
                        attributeName="transform"
                        additive="sum"
                        type="rotate"
                        values="0 24 24; 360 24 24"
                        dur="6s"
                        repeatCount="indefinite"/>

                    <animate
                        id="t1"
                        attributeName="opacity"
                        values="0; 1; 1; 0"
                        begin="0s; t1.end+1s"
                        dur="2s"
                        keyTimes="0; .17; .83; 1"/>
                </path>

                <animateTransform
                    id="s1"
                    attributeName="transform"
                    additive="sum"
                    type="translate"
                    values="0 -36; 0 92;"
                    begin="0s; s1.end+1s"
                    dur="2s"/>
            </g>

            <!-- snowflake-2 -->
            <g>
                <path d="M97.67,31l-5.78-3.3a13.74,13.74,0,0,0,0-6.47L97.67,18a4,4,0,0,0,1.49-5.46A4.08,4.08,0,0,0,93.62,11l-5.79,3.3a13.61,13.61,0,0,0-2.64-2,13.84,13.84,0,0,0-3-1.28V4.5a4.05,4.05,0,0,0-8.1,0v6.6a14.25,14.25,0,0,0-5.69,3.23L62.58,11A4.08,4.08,0,0,0,57,12.5,4,4,0,0,0,58.53,18l5.78,3.3a13.74,13.74,0,0,0,0,6.47L58.53,31A4,4,0,0,0,57,36.5a4.08,4.08,0,0,0,3.52,2,4,4,0,0,0,2-.54l5.79-3.3a13.61,13.61,0,0,0,2.64,2,13.8,13.8,0,0,0,3,1.27V44.5a4.05,4.05,0,0,0,8.1,0V37.89a14.22,14.22,0,0,0,5.68-3.23L93.62,38a4,4,0,0,0,2,.54,4.08,4.08,0,0,0,3.52-2A4,4,0,0,0,97.67,31ZM75.06,29.7a6,6,0,0,1-2.22-8.2,6.1,6.1,0,0,1,5.27-3,6.16,6.16,0,0,1,3,.8,6,6,0,0,1,2.22,8.2A6.12,6.12,0,0,1,75.06,29.7Z" stroke="#86c3db" stroke-miterlimit="10" fill="url(#d)" opacity="0">
                    <animateTransform
                        attributeName="transform"
                        additive="sum"
                        type="rotate"
                        values="0 80 24; 360 80 24"
                        dur="6s"
                        repeatCount="indefinite"/>

                    <animate
                        id="t2"
                        attributeName="opacity"
                        values="0; 1; 1; 0"
                        begin="-.83s; t2.end+1s"
                        dur="2s"
                        keyTimes="0; .17; .83; 1"/>
                </path>

                <animateTransform
                    id="s2"
                    attributeName="transform"
                    additive="sum"
                    type="translate"
                    values="0 -36; 0 92;"
                    begin="-.83s; s2.end+1s"
                    dur="2s"/>
            </g>

            <!-- snowflake-3 -->
            <g>
                <path d="M153.67,31l-5.78-3.3a13.74,13.74,0,0,0,0-6.47L153.67,18a4,4,0,0,0,1.49-5.46A4.08,4.08,0,0,0,149.62,11l-5.79,3.3a13.61,13.61,0,0,0-2.64-2,13.84,13.84,0,0,0-3-1.28V4.5a4.05,4.05,0,0,0-8.1,0v6.6a14.25,14.25,0,0,0-5.69,3.23L118.58,11A4.08,4.08,0,0,0,113,12.5,4,4,0,0,0,114.53,18l5.78,3.3a13.74,13.74,0,0,0,0,6.47L114.53,31A4,4,0,0,0,113,36.5a4.08,4.08,0,0,0,3.52,2,4,4,0,0,0,2-.54l5.79-3.3a13.61,13.61,0,0,0,2.64,2,13.8,13.8,0,0,0,3,1.27V44.5a4.05,4.05,0,0,0,8.1,0V37.89a14.22,14.22,0,0,0,5.68-3.23l5.79,3.3a4,4,0,0,0,2,.54,4.08,4.08,0,0,0,3.52-2A4,4,0,0,0,153.67,31ZM131.06,29.7a6,6,0,0,1-2.22-8.2,6.1,6.1,0,0,1,5.27-3,6.16,6.16,0,0,1,3,.8,6,6,0,0,1,2.22,8.2A6.12,6.12,0,0,1,131.06,29.7Z" stroke="#86c3db" stroke-miterlimit="10" fill="url(#e)" opacity="0">
                    <animateTransform
                        attributeName="transform"
                        additive="sum"
                        type="rotate"
                        values="0 136 24; 360 136 24"
                        dur="6s"
                        repeatCount="indefinite"/>

                    <animate
                        id="t3"
                        attributeName="opacity"
                        values="0; 1; 1; 0"
                        begin=".83s; t3.end+1s"
                        dur="2s"
                        keyTimes="0; .17; .83; 1"/>
                </path>

                <animateTransform
                    id="s3"
                    attributeName="transform"
                    additive="sum"
                    type="translate"
                    values="0 -36; 0 92;"
                    begin=".83s; s3.end+1s"
                    dur="2s"/>
            </g>
        </symbol>
    </defs>
    <use width="410.84" height="258" transform="translate(56 109)" xlink:href="#g"/>
    <use width="156.2" height="49" transform="translate(177.9 337.5)" xlink:href="#l"/>
</svg>
