<svg xmlns="http://www.w3.org/2000/svg" xmlns:xlink="http://www.w3.org/1999/xlink" viewBox="0 0 64 64">
	<defs>
		<linearGradient id="a" x1="40.76" y1="23" x2="50.83" y2="40.46" gradientUnits="userSpaceOnUse">
			<stop offset="0" stop-color="#9ca3af"/>
			<stop offset="0.45" stop-color="#9ca3af"/>
			<stop offset="1" stop-color="#6b7280"/>
		</linearGradient>
		<linearGradient id="b" x1="22.56" y1="21.96" x2="39.2" y2="50.8" gradientUnits="userSpaceOnUse">
			<stop offset="0" stop-color="#f3f7fe"/>
			<stop offset="0.45" stop-color="#f3f7fe"/>
			<stop offset="1" stop-color="#deeafb"/>
		</linearGradient>
		<linearGradient id="c" x1="23.25" y1="43.7" x2="24.75" y2="46.3" gradientUnits="userSpaceOnUse">
			<stop offset="0" stop-color="#86c3db"/>
			<stop offset="0.45" stop-color="#86c3db"/>
			<stop offset="1" stop-color="#5eafcf"/>
		</linearGradient>
		<linearGradient id="d" x1="30.25" y1="43.7" x2="31.75" y2="46.3" xlink:href="#c"/>
		<linearGradient id="e" x1="37.25" y1="43.7" x2="38.75" y2="46.3" xlink:href="#c"/>
	</defs>
	<path d="M34.23,33.45a4.05,4.05,0,0,0,4.05,4H54.79a4.34,4.34,0,0,0,.81-8.61,3.52,3.52,0,0,0,.06-.66,4.06,4.06,0,0,0-6.13-3.48,6.08,6.08,0,0,0-11.25,3.19,6.34,6.34,0,0,0,.18,1.46h-.18A4.05,4.05,0,0,0,34.23,33.45Z" stroke="#848b98" stroke-miterlimit="10" stroke-width="0.5" fill="url(#a)">
		<animateTransform attributeName="transform" type="translate" values="-2.1 0; 2.1 0; -2.1 0" dur="7s" repeatCount="indefinite"/>
	</path>
	<path d="M46.5,31.5l-.32,0a10.49,10.49,0,0,0-19.11-8,7,7,0,0,0-10.57,6,7.21,7.21,0,0,0,.1,1.14A7.5,7.5,0,0,0,18,45.5a4.19,4.19,0,0,0,.5,0v0h28a7,7,0,0,0,0-14Z" stroke="#e6effc" stroke-miterlimit="10" stroke-width="0.5" fill="url(#b)">
		<animateTransform attributeName="transform" type="translate" values="-3 0; 3 0; -3 0" dur="7s" repeatCount="indefinite"/>
	</path>
	<path d="M24,43.5A1.5,1.5,0,1,0,25.5,45,1.5,1.5,0,0,0,24,43.5Z" fill="url(#c)">
		<animateTransform attributeName="transform" type="translate" values="1 -5; -2 18; -4 14" dur="0.6s" repeatCount="indefinite"/>
		<animate attributeName="opacity" values="1;1;0" dur="0.6s" repeatCount="indefinite"/>
	</path>
	<path d="M31,43.5A1.5,1.5,0,1,0,32.5,45,1.5,1.5,0,0,0,31,43.5Z" fill="url(#d)">
		<animateTransform attributeName="transform" type="translate" values="1 -5; -2 18; -4 14" dur="0.6s" begin="-0.4s" repeatCount="indefinite"/>
		<animate attributeName="opacity" values="1;1;0" dur="0.6s" begin="-0.4s" repeatCount="indefinite"/>
	</path>
	<path d="M38,43.5A1.5,1.5,0,1,0,39.5,45,1.5,1.5,0,0,0,38,43.5Z" fill="url(#e)">
		<animateTransform attributeName="transform" type="translate" values="1 -5; -2 18; -4 14" dur="0.6s" begin="-0.2s" repeatCount="indefinite"/>
		<animate attributeName="opacity" values="1;1;0" dur="0.6s" begin="-0.2s" repeatCount="indefinite"/>
	</path>
</svg>
