<svg xmlns="http://www.w3.org/2000/svg" xmlns:xlink="http://www.w3.org/1999/xlink" viewBox="0 0 512 512">
    <defs>
        <linearGradient id="a" x1="99.45" y1="30.68" x2="232.64" y2="261.37" gradientUnits="userSpaceOnUse">
            <stop offset="0" stop-color="#f3f7fe"/>
            <stop offset="0.45" stop-color="#f3f7fe"/>
            <stop offset="1" stop-color="#deeafb"/>
        </linearGradient>
        <linearGradient id="b" x1="52.74" y1="9.62" x2="133.36" y2="149.27" gradientUnits="userSpaceOnUse">
            <stop offset="0" stop-color="#9ca3af"/>
            <stop offset="0.45" stop-color="#9ca3af"/>
            <stop offset="1" stop-color="#6b7280"/>
        </linearGradient>
        <linearGradient id="c" x1="74" y1="165.21" x2="98" y2="206.79" gradientUnits="userSpaceOnUse">
            <stop offset="0" stop-color="#b8bdc6"/>
            <stop offset="0.45" stop-color="#b8bdc6"/>
            <stop offset="1" stop-color="#a5aab2"/>
        </linearGradient>
        <linearGradient id="f" x1="78" y1="63.35" x2="118" y2="132.65" gradientUnits="userSpaceOnUse">
            <stop offset="0" stop-color="#fbbf24"/>
            <stop offset="0.45" stop-color="#fbbf24"/>
            <stop offset="1" stop-color="#f59e0b"/>
        </linearGradient>
        <symbol id="h" viewBox="0 0 196 196">
            <!-- sun-core -->
            <circle cx="98" cy="98" r="40" stroke="#f8af18" stroke-miterlimit="10" stroke-width="4" fill="url(#f)"/>

            <!-- sun-rays -->
            <path d="M98,31.38V6m0,184V164.62M145.11,50.89,163.05,33M33,163.05l17.94-17.94m0-94.22L33,33m130.1,130.1-17.94-17.94M6,98H31.38M190,98H164.62" fill="none" stroke="#fbbf24" stroke-linecap="round" stroke-miterlimit="10" stroke-width="12">
                <animateTransform
                    attributeName="transform"
                    additive="sum"
                    type="rotate"
                    values="0 98 98; 45 98 98"
                    dur="6s"
                    repeatCount="indefinite"/>
            </path>
        </symbol>
        <symbol id="j" viewBox="0 0 200.26 126.12">
            <path d="M.5,93.18a32.44,32.44,0,0,0,32.44,32.44H162.69v-.12c.77,0,1.53.12,2.31.12a34.75,34.75,0,0,0,6.49-68.89A32.38,32.38,0,0,0,123,23.62,48.58,48.58,0,0,0,34.4,60.81c-.49,0-1-.07-1.46-.07A32.44,32.44,0,0,0,.5,93.18Z" stroke="#848b98" stroke-miterlimit="10" fill="url(#b)"/>
        </symbol>
        <symbol id="k" viewBox="0 0 350 222">
            <path d="M291,107c-.85,0-1.68.09-2.53.13A83.9,83.9,0,0,0,135.6,42.92,55.91,55.91,0,0,0,51,91a56.56,56.56,0,0,0,.8,9.08A60,60,0,0,0,63,219c1.35,0,2.67-.11,4-.2v.2H291a56,56,0,0,0,0-112Z" stroke="#e6effc" stroke-miterlimit="10" stroke-width="6" fill="url(#a)"/>
        </symbol>
        <symbol id="i" viewBox="0 0 398 222" overflow="visible">
            <!-- dark-cloud -->
            <use width="200.26" height="126.12" transform="translate(198 27)" xlink:href="#j">
                <animateTransform
                    attributeName="transform"
                    additive="sum"
                    type="translate"
                    values="-9 0; 9 0; -9 0"
                    dur="6s"
                    repeatCount="indefinite"/>
            </use>

            <!-- cloud -->
            <use width="350" height="222" xlink:href="#k">
                <animateTransform
                    attributeName="transform"
                    additive="sum"
                    type="translate"
                    values="-18 0; 18 0; -18 0"
                    dur="6s"
                    repeatCount="indefinite"/>
            </use>
        </symbol>
        <symbol id="g" viewBox="0 0 410.84 258" overflow="visible">
            <use width="196" height="196" xlink:href="#h"/>
            <use width="398" height="222" transform="translate(12.84 36)" xlink:href="#i"/>
        </symbol>
        <symbol id="l" viewBox="0 0 168 212" overflow="visible">
            <circle cx="86" cy="186" r="24" stroke="#afb4bc" stroke-miterlimit="10" stroke-width="4" fill="url(#c)" opacity="0">
                <animateTransform
                    id="x1"
                    attributeName="transform"
                    additive="sum"
                    type="translate"
                    values="0 0; -58 -118"
                    begin="0s; x1.end+.75s"
                    dur="2.25s"/>

                <animate
                    id="y1"
                    attributeName="r"
                    values="24; 36"
                    begin="0s; y1.end+.75s"
                    dur="2.25s"/>

                <animate
                    id="z1"
                    attributeName="opacity"
                    values="0; 1; 1; 0"
                    begin="0s; y1.end+.75s"
                    dur="2.25s"
                    keyTimes="0; .17; .83; 1"/>
            </circle>
            <circle cx="86" cy="186" r="24" stroke="#afb4bc" stroke-miterlimit="10" stroke-width="4" fill="url(#c)" opacity="0">
                <animateTransform
                    id="x2"
                    attributeName="transform"
                    additive="sum"
                    type="translate"
                    values="0 0; 58 -118"
                    begin=".83s; x2.end+.75s"
                    dur="2.25s"/>

                <animate
                    id="y2"
                    attributeName="r"
                    values="24; 36"
                    begin=".83s; y2.end+.75s"
                    dur="2.25s"/>

                <animate
                    id="z2"
                    attributeName="opacity"
                    values="0; 1; 1; 0"
                    begin=".83s; z2.end+.75s"
                    dur="2.25s"
                    keyTimes="0; .17; .83; 1"/>
            </circle>
            <circle cx="86" cy="186" r="24" stroke="#afb4bc" stroke-miterlimit="10" stroke-width="4" fill="url(#c)" opacity="0">
                <animateTransform
                    id="x3"
                    attributeName="transform"
                    additive="sum"
                    type="translate"
                    values="0 0; 0 -118"
                    begin="1.66s; x3.end+.75s"
                    dur="2.25s"/>

                <animate
                    id="y3"
                    attributeName="r"
                    values="24; 36"
                    begin="1.66s; y3.end+.75s"
                    dur="2.25s"/>

                <animate
                    id="z3"
                    attributeName="opacity"
                    values="0; 1; 1; 0"
                    begin="1.66s; z3.end+.75s"
                    dur="2.25s"
                    keyTimes="0; .17; .83; 1"/>
            </circle>
        </symbol>
    </defs>
    <use width="410.84" height="258" transform="translate(56 109)" xlink:href="#g"/>
    <use width="168" height="212" transform="translate(172 232)" xlink:href="#l"/>
</svg>
