<svg xmlns="http://www.w3.org/2000/svg" viewBox="0 0 64 64">
	<defs>
		<clipPath id="a">
			<polygon points="10.55 34.21 6.72 30.79 4.72 24.79 5.72 17.79 9.72 12.79 14.72 9.79 20.72 9.79 25.72 10.79 28.72 13.79 31.28 18.15 26.72 22.79 21.72 22.79 16.72 27.79 16.72 30.79 10.55 34.21" fill="none"/>
		</clipPath>
		<clipPath id="b">
			<polygon points="21.17 46.81 18 64 42 64 44.75 46.81 21.17 46.81" fill="none"/>
		</clipPath>
	</defs>
	<g clip-path="url(#a)">
		<g>
			<path d="M29.33,27.13A10.6,10.6,0,0,1,18.65,16.6,10.44,10.44,0,0,1,19,14,10.54,10.54,0,1,0,30.5,27.07,11.46,11.46,0,0,1,29.33,27.13Z" fill="#72b9d5" stroke="#72b9d5" stroke-linecap="round" stroke-linejoin="round" stroke-width="3"/>

			<animateTransform attributeName="transform" type="rotate" values="-10 19.22 24.293;10 19.22 24.293;-10 19.22 24.293" dur="10s" repeatCount="indefinite"/>
		</g>
	</g>
	<path d="M46.5,31.5l-.32,0a10.49,10.49,0,0,0-19.11-8,7,7,0,0,0-10.57,6,7.21,7.21,0,0,0,.1,1.14A7.5,7.5,0,0,0,18,45.5a4.19,4.19,0,0,0,.5,0v0h28a7,7,0,0,0,0-14Z" fill="#efefef" stroke="#efefef" stroke-miterlimit="10" stroke-width="3"/>
	<g clip-path="url(#b)">
		<g>
			<circle cx="32" cy="50" r="1.5" fill="#72b8d4"/>
			<animateTransform attributeName="transform" type="translate" values="2 -10; -2 12; -1 9" dur="0.6s" repeatCount="indefinite"/>
			<animate attributeName="opacity" values="1;1;0" dur="0.6s" repeatCount="indefinite"/>
		</g>
		<g>
			<circle cx="39" cy="50" r="1.5" fill="#72b8d4"/>
			<animateTransform attributeName="transform" type="translate" values="2 -10; -2 12; -1 9" dur="0.6s" begin="-0.4s" repeatCount="indefinite"/>
			<animate attributeName="opacity" values="1;1;0" dur="0.6s" begin="-0.4s" repeatCount="indefinite"/>
		</g>
		<g>
			<circle cx="25" cy="50" r="1.5" fill="#72b8d4"/>
			<animateTransform attributeName="transform" type="translate" values="2 -10; -2 12; -1 9" dur="0.6s" begin="-0.2s" repeatCount="indefinite"/>
			<animate attributeName="opacity" values="1;1;0" dur="0.6s" begin="-0.2s" repeatCount="indefinite"/>
		</g>
	</g>
</svg>
