<svg xmlns="http://www.w3.org/2000/svg" viewBox="0 0 64 64">
	<defs>
		<clipPath id="a">
			<polygon points="10.55 34.21 6.72 30.79 4.72 24.79 5.72 17.79 9.72 12.79 14.72 9.79 20.72 9.79 25.72 10.79 28.72 13.79 31.28 18.15 26.72 22.79 21.72 22.79 16.72 27.79 16.72 30.79 10.55 34.21" fill="none"/>
		</clipPath>
	</defs>
	<g clip-path="url(#a)">
		<g>
			<circle cx="19.22" cy="24.29" r="5.95" fill="#f4a71d"/>
			<line x1="19.22" y1="15.97" x2="19.22" y2="12.79" fill="none" stroke="#f4a71d" stroke-linecap="round" stroke-miterlimit="10" stroke-width="2"/>
			<line x1="19.22" y1="35.79" x2="19.22" y2="32.62" fill="none" stroke="#f4a71d" stroke-linecap="round" stroke-miterlimit="10" stroke-width="2"/>
			<line x1="25.11" y1="18.4" x2="27.35" y2="16.16" fill="none" stroke="#f4a71d" stroke-linecap="round" stroke-miterlimit="10" stroke-width="2"/>
			<line x1="11.09" y1="32.42" x2="13.33" y2="30.18" fill="none" stroke="#f4a71d" stroke-linecap="round" stroke-miterlimit="10" stroke-width="2"/>
			<line x1="13.33" y1="18.4" x2="11.09" y2="16.16" fill="none" stroke="#f4a71d" stroke-linecap="round" stroke-miterlimit="10" stroke-width="2"/>
			<line x1="27.35" y1="32.42" x2="25.11" y2="30.18" fill="none" stroke="#f4a71d" stroke-linecap="round" stroke-miterlimit="10" stroke-width="2"/>
			<line x1="10.89" y1="24.29" x2="7.72" y2="24.29" fill="none" stroke="#f4a71d" stroke-linecap="round" stroke-miterlimit="10" stroke-width="2"/>
			<line x1="30.72" y1="24.29" x2="27.55" y2="24.29" fill="none" stroke="#f4a71d" stroke-linecap="round" stroke-miterlimit="10" stroke-width="2"/>

			<animateTransform attributeName="transform" type="rotate" from="0 19.22 24.293" to="360 19.22 24.293" dur="45s" repeatCount="indefinite"/>
		</g>
	</g>
	<path d="M46.5,31.5l-.32,0a10.49,10.49,0,0,0-19.11-8,7,7,0,0,0-10.57,6,7.21,7.21,0,0,0,.1,1.14A7.5,7.5,0,0,0,18,45.5a4.19,4.19,0,0,0,.5,0v0h28a7,7,0,0,0,0-14Z" fill="#efefef" stroke="#efefef" stroke-miterlimit="10" stroke-width="3"/>
</svg>
