<svg xmlns="http://www.w3.org/2000/svg" viewBox="0 0 512 512">
    <defs>
        <linearGradient id="a" x1="203.02" y1="176.73" x2="298.16" y2="341.52" gradientUnits="userSpaceOnUse">
            <stop offset="0" stop-color="#3392d6"/>
            <stop offset="0.45" stop-color="#3392d6"/>
            <stop offset="1" stop-color="#2477b2"/>
        </linearGradient>
    </defs>
    <path d="M256,364a11.94,11.94,0,0,1-2.15-.19h0a11.81,11.81,0,0,1-1.45-.36h0a12,12,0,0,1-5.52-3.7s0,0,0,0l-46.28-55.15a12,12,0,1,1,18.38-15.43L244,319V160a12,12,0,0,1,24,0V319l25.09-29.9a12,12,0,1,1,18.38,15.43l-46.25,55.12a12.05,12.05,0,0,1-4.85,3.5l-.68.24h0A11.88,11.88,0,0,1,256,364Z" stroke="#2885c7" stroke-miterlimit="10" stroke-width="4" fill="url(#a)"/>
</svg>
