<svg xmlns="http://www.w3.org/2000/svg" viewBox="0 0 64 64">
	<defs>
		<clipPath id="a">
			<polyline points="42 64 44.85 47 21.05 47 17 64" fill="none"/>
		</clipPath>
	</defs>
	<g clip-path="url(#a)">
		<g>
			<line x1="24.52" y1="49.05" x2="23.48" y2="54.95" fill="none" stroke="#2885c7" stroke-linecap="round" stroke-miterlimit="10" stroke-width="2"/>
			<animateTransform attributeName="transform" type="translate" values="2 -10; -2 10" dur="0.5s" repeatCount="indefinite"/>
			<animate attributeName="opacity" values="1;1;0" dur="0.5s" repeatCount="indefinite"/>
		</g>
		<g>
			<line x1="31.52" y1="49.05" x2="30.48" y2="54.95" fill="none" stroke="#2885c7" stroke-linecap="round" stroke-miterlimit="10" stroke-width="2"/>
			<animateTransform attributeName="transform" type="translate" begin="-0.3s" values="2 -10; -2 10" dur="0.5s" repeatCount="indefinite"/>
			<animate attributeName="opacity" values="1;1;0" dur="0.5s" begin="-0.3s" repeatCount="indefinite"/>
		</g>
		<g>
			<line x1="38.52" y1="49.05" x2="37.48" y2="54.95" fill="none" stroke="#2885c7" stroke-linecap="round" stroke-miterlimit="10" stroke-width="2"/>
			<animateTransform attributeName="transform" type="translate" begin="-0.1s" values="2 -10; -2 10" dur="0.5s" repeatCount="indefinite"/>
			<animate attributeName="opacity" values="1;1;0" dur="0.5s" begin="-0.1s" repeatCount="indefinite"/>
		</g>
	</g>
	<path d="M46.5,31.5l-.32,0a10.49,10.49,0,0,0-19.11-8,7,7,0,0,0-10.57,6,7.21,7.21,0,0,0,.1,1.14A7.5,7.5,0,0,0,18,45.5a4.19,4.19,0,0,0,.5,0v0h28a7,7,0,0,0,0-14Z" fill="#efefef" stroke="#efefef" stroke-miterlimit="10" stroke-width="3"/>
</svg>
