<svg xmlns="http://www.w3.org/2000/svg" viewBox="0 0 64 64">
	<defs>
		<clipPath id="a">
			<polygon points="29 16 29 7 57 7 57 37 48 37 39 36 29 26 29 16" fill="none"/>
		</clipPath>
		<linearGradient id="b" x1="26.75" y1="22.91" x2="37.25" y2="41.09" gradientUnits="userSpaceOnUse">
			<stop offset="0" stop-color="#fbbf24"/>
			<stop offset="0.45" stop-color="#fbbf24"/>
			<stop offset="1" stop-color="#f59e0b"/>
		</linearGradient>
		<linearGradient id="c" x1="21.92" y1="18.75" x2="38.52" y2="47.52" gradientUnits="userSpaceOnUse">
			<stop offset="0" stop-color="#86c3db"/>
			<stop offset="0.45" stop-color="#86c3db"/>
			<stop offset="1" stop-color="#5eafcf"/>
		</linearGradient>
	</defs>
	<g clip-path="url(#a)">
		<circle cx="32" cy="32" r="10.5" stroke="#f8af18" stroke-miterlimit="10" stroke-width="0.5" fill="url(#b)"/>
		<path d="M32,15.71V9.5m0,45V48.29M43.52,20.48l4.39-4.39M16.09,47.91l4.39-4.39m0-23-4.39-4.39M47.91,47.91l-4.39-4.39M15.71,32H9.5m45,0H48.29" fill="none" stroke="#fbbf24" stroke-linecap="round" stroke-miterlimit="10" stroke-width="3"/>
	</g>
	<path d="M46.66,36.2A16.66,16.66,0,0,1,29.88,19.65a16.29,16.29,0,0,1,.55-4.15A16.56,16.56,0,1,0,48.5,36.1C47.89,36.16,47.28,36.2,46.66,36.2Z" stroke="#72b9d5" stroke-linecap="round" stroke-linejoin="round" stroke-width="0.5" fill="url(#c)"/>
</svg>
