<svg xmlns="http://www.w3.org/2000/svg" viewBox="0 0 512 512">
    <defs>
        <linearGradient id="a" x1="187.91" y1="138.06" x2="324.09" y2="373.94" gradientUnits="userSpaceOnUse">
            <stop offset="0" stop-color="#fcd966"/>
            <stop offset="0.45" stop-color="#fcd966"/>
            <stop offset="1" stop-color="#fccd34"/>
        </linearGradient>
    </defs>
    <path d="M105.71,263.52,213.17,293.4a7.86,7.86,0,0,1,5.43,5.43l29.88,107.46a7.81,7.81,0,0,0,15,0L293.4,298.83a7.86,7.86,0,0,1,5.43-5.43l107.46-29.88a7.81,7.81,0,0,0,0-15L298.83,218.6a7.86,7.86,0,0,1-5.43-5.43L263.52,105.71a7.81,7.81,0,0,0-15,0L218.6,213.17a7.86,7.86,0,0,1-5.43,5.43L105.71,248.48A7.81,7.81,0,0,0,105.71,263.52Z" stroke="#fcd34d" stroke-linecap="round" stroke-linejoin="round" stroke-width="4" fill="url(#a)"/>
</svg>
