<svg xmlns="http://www.w3.org/2000/svg" viewBox="0 0 64 64">
	<defs>
		<clipPath id="a">
			<path d="M47.5,45.71a4,4,0,0,1-4-4.06,4.07,4.07,0,0,1,1.71-3.32V28.61H13.12v17.1Z" fill="none"/>
		</clipPath>
		<linearGradient id="b" x1="25.82" y1="26.77" x2="38.39" y2="48.54" gradientUnits="userSpaceOnUse">
			<stop offset="0" stop-color="#3392d6"/>
			<stop offset="0.45" stop-color="#3392d6"/>
			<stop offset="1" stop-color="#2477b2"/>
		</linearGradient>
		<linearGradient id="c" x1="42.77" y1="28.66" x2="51.6" y2="43.96" gradientUnits="userSpaceOnUse">
			<stop offset="0" stop-color="#515a69" stop-opacity="0.05"/>
			<stop offset="0.45" stop-color="#6b7280" stop-opacity="0.05"/>
			<stop offset="1" stop-color="#384354" stop-opacity="0.1"/>
		</linearGradient>
		<linearGradient id="d" x1="42.52" y1="28.23" x2="51.85" y2="44.39" gradientUnits="userSpaceOnUse">
			<stop offset="0" stop-color="#d4d7dd"/>
			<stop offset="0.45" stop-color="#d4d7dd"/>
			<stop offset="1" stop-color="#bec1c6"/>
		</linearGradient>
	</defs>
	<g clip-path="url(#a)">
		<path d="M46,33.31a3.72,3.72,0,0,1-3.28-2,.25.25,0,0,0-.44,0,3.71,3.71,0,0,1-6.56,0,.25.25,0,0,0-.44,0,3.71,3.71,0,0,1-6.56,0,.25.25,0,0,0-.44,0,3.71,3.71,0,0,1-6.56,0,.25.25,0,0,0-.44,0,3.72,3.72,0,0,1-3.28,2H14.5V41.2a1.61,1.61,0,0,0,1.61,1.61H47.88a1.62,1.62,0,0,0,1.62-1.62V33.31Z" stroke="#2885c7" stroke-linecap="round" stroke-linejoin="round" stroke-width="0.5" fill="url(#b)">
			<animate attributeName="d" calcMode="spline" keySplines="0.5 0 0.5 1; 0.5 0 0.5 1" dur="3s" repeatCount="indefinite" values="
			M46,33.31a3.72,3.72,0,0,1-3.28-2,.25.25,0,0,0-.44,0,3.71,3.71,0,0,1-6.56,0,.25.25,0,0,0-.44,0,3.71,3.71,0,0,1-6.56,0,.25.25,0,0,0-.44,0,3.71,3.71,0,0,1-6.56,0,.25.25,0,0,0-.44,0,3.72,3.72,0,0,1-3.28,2H14.5V41.2a1.61,1.61,0,0,0,1.61,1.61H47.88a1.62,1.62,0,0,0,1.62-1.62V33.31Z;
			M46,35.31a3.72,3.72,0,0,1-3.28-2,.25.25,0,0,0-.44,0,3.71,3.71,0,0,1-6.56,0,.25.25,0,0,0-.44,0,3.71,3.71,0,0,1-6.56,0,.25.25,0,0,0-.44,0,3.71,3.71,0,0,1-6.56,0,.25.25,0,0,0-.44,0,3.72,3.72,0,0,1-3.28,2H14.5V41.2a1.61,1.61,0,0,0,1.61,1.61H47.88a1.62,1.62,0,0,0,1.62-1.62V35.31Z;
			M46,33.31a3.72,3.72,0,0,1-3.28-2,.25.25,0,0,0-.44,0,3.71,3.71,0,0,1-6.56,0,.25.25,0,0,0-.44,0,3.71,3.71,0,0,1-6.56,0,.25.25,0,0,0-.44,0,3.71,3.71,0,0,1-6.56,0,.25.25,0,0,0-.44,0,3.72,3.72,0,0,1-3.28,2H14.5V41.2a1.61,1.61,0,0,0,1.61,1.61H47.88a1.62,1.62,0,0,0,1.62-1.62V33.31Z"/>
		</path>
	</g>
	<circle cx="47.5" cy="41.71" r="2.57" fill="#ef4444"/>
	<path d="M47.5,33.14v8.57" fill="none" stroke="#ef4444" stroke-linecap="round" stroke-miterlimit="10" stroke-width="2"/>
	<path d="M51.5,41.65a4,4,0,1,1-8,0,4.07,4.07,0,0,1,1.71-3.32V28.61a2.29,2.29,0,1,1,4.58,0v9.72A4.07,4.07,0,0,1,51.5,41.65ZM47.79,32h2m-2-2.29h2m-2,4.58h2" stroke-linecap="round" stroke-linejoin="round" fill="url(#c)" stroke="url(#d)"/>
</svg>
