<svg xmlns="http://www.w3.org/2000/svg" xmlns:xlink="http://www.w3.org/1999/xlink" viewBox="0 0 512 512">
    <defs>
        <linearGradient id="a" x1="79.46" y1="-22.29" x2="165.78" y2="127.22" gradientUnits="userSpaceOnUse">
            <stop offset="0" stop-color="#3392d6"/>
            <stop offset="0.45" stop-color="#3392d6"/>
            <stop offset="1" stop-color="#2477b2"/>
        </linearGradient>
        <clipPath id="b">
            <path d="M372,357c-22.09,0-40-18.15-40-40.54a40.64,40.64,0,0,1,17.14-33.24V186.16A23,23,0,0,1,372,163H119.24V357Zm2.86-136.94h20m-20-22.82h20m-20,45.64h20" fill="none"/>
        </clipPath>
        <linearGradient id="c" x1="324.79" y1="186.75" x2="412.97" y2="339.47" gradientUnits="userSpaceOnUse">
            <stop offset="0" stop-color="#515a69" stop-opacity="0.05"/>
            <stop offset="0.45" stop-color="#6b7280" stop-opacity="0.05"/>
            <stop offset="1" stop-color="#384354" stop-opacity="0.1"/>
        </linearGradient>
        <linearGradient id="d" x1="323.72" y1="184.9" x2="414.04" y2="341.33" gradientUnits="userSpaceOnUse">
            <stop offset="0" stop-color="#d4d7dd"/>
            <stop offset="0.45" stop-color="#d4d7dd"/>
            <stop offset="1" stop-color="#bec1c6"/>
        </linearGradient>
        <symbol id="e" viewBox="0 0 244 92">
            <path d="M242,24.63h-8c-10.92,0-20.85-11.66-26-21.39a2.28,2.28,0,0,0-4.06,0c-5.12,9.73-15.05,21.39-26,21.39S157.15,13,152,3.24a2.28,2.28,0,0,0-4.06,0c-5.12,9.73-15.05,21.39-26,21.39S101.15,13,96,3.24a2.28,2.28,0,0,0-4.06,0c-5.12,9.73-15,21.39-26,21.39S45.15,13,40,3.24a2.28,2.28,0,0,0-4.06,0c-5.12,9.73-15,21.39-26,21.39H2V73.7A16.14,16.14,0,0,0,18,90H226a16.14,16.14,0,0,0,16-16.3Z" stroke="#2885c7" stroke-linecap="round" stroke-linejoin="round" stroke-width="4" fill="url(#a)"/>
        </symbol>
    </defs>
    <g clip-path="url(#b)">
        <use width="244" height="92" transform="translate(134 242)" xlink:href="#e"/>
    </g>
    <ellipse cx="372" cy="317.06" rx="25.71" ry="25.68" fill="#ef4444"/>
    <path d="M372,231.47v85.59" fill="none" stroke="#ef4444" stroke-linecap="round" stroke-miterlimit="10" stroke-width="17.13"/>
    <path d="M412,316.46c0,22.39-17.91,40.54-40,40.54s-40-18.15-40-40.54a40.64,40.64,0,0,1,17.14-33.24V186.16a22.86,22.86,0,1,1,45.72,0v97.06A40.64,40.64,0,0,1,412,316.46Zm-37.14-96.4h20m-20-22.82h20m-20,45.64h20" stroke-linecap="round" stroke-linejoin="round" stroke-width="4.28" fill="url(#c)" stroke="url(#d)"/>
</svg>
