<svg xmlns="http://www.w3.org/2000/svg" viewBox="0 0 64 64">
	<defs>
		<linearGradient id="a" x1="22.56" y1="21.96" x2="39.2" y2="50.8" gradientUnits="userSpaceOnUse">
			<stop offset="0" stop-color="#f3f7fe"/>
			<stop offset="0.45" stop-color="#f3f7fe"/>
			<stop offset="1" stop-color="#deeafb"/>
		</linearGradient>
		<linearGradient id="b" x1="26.74" y1="37.88" x2="35.76" y2="53.52" gradientUnits="userSpaceOnUse">
			<stop offset="0" stop-color="#f7b23b"/>
			<stop offset="0.45" stop-color="#f7b23b"/>
			<stop offset="1" stop-color="#f59e0b"/>
		</linearGradient>
	</defs>
	<path d="M46.5,31.5l-.32,0a10.49,10.49,0,0,0-19.11-8,7,7,0,0,0-10.57,6,7.21,7.21,0,0,0,.1,1.14A7.5,7.5,0,0,0,18,45.5a4.19,4.19,0,0,0,.5,0v0h28a7,7,0,0,0,0-14Z" stroke="#e6effc" stroke-miterlimit="10" stroke-width="0.5" fill="url(#a)"/>
	<polygon points="30 36 26 48 30 48 28 58 38 44 32 44 36 36 30 36" stroke="#f6a823" stroke-miterlimit="10" stroke-width="0.5" fill="url(#b)">
		<animate attributeName="opacity" values="1; 1; 1; 1; 1; 1; 0.1; 1; 0.1; 1; 1; 0.1; 1; 0.1; 1" dur="2s" repeatCount="indefinite"/>
	</polygon>
</svg>
