<svg xmlns="http://www.w3.org/2000/svg" xmlns:xlink="http://www.w3.org/1999/xlink" viewBox="0 0 512 512">
    <defs>
        <linearGradient id="a" x1="54.52" y1="2.17" x2="89.18" y2="62.19" gradientUnits="userSpaceOnUse">
            <stop offset="0" stop-color="#d4d7dd"/>
            <stop offset="0.45" stop-color="#d4d7dd"/>
            <stop offset="1" stop-color="#bec1c6"/>
        </linearGradient>
        <linearGradient id="b" x1="31.42" y1="37.6" x2="68.27" y2="101.43" xlink:href="#a"/>
        <linearGradient id="c" x1="-2197.13" y1="5168.62" x2="-2077" y2="5376.69" gradientTransform="translate(5497.74 -1952.71) rotate(45)" xlink:href="#a"/>
        <linearGradient id="d" x1="-2191.36" y1="5157.82" x2="-2110.09" y2="5298.58" gradientTransform="translate(5497.74 -1952.71) rotate(45)" gradientUnits="userSpaceOnUse">
            <stop offset="0" stop-color="#f87171"/>
            <stop offset="0.45" stop-color="#f87171"/>
            <stop offset="1" stop-color="#dc2626"/>
        </linearGradient>
        <symbol id="e" viewBox="0 0 138 96">
            <path d="M105.23,10.78a15.55,15.55,0,1,1,11.21,26.33H6" fill="none" stroke-linecap="round" stroke-miterlimit="10" stroke-width="12" stroke="url(#a)"/>
            <path d="M60.67,85.22A15.55,15.55,0,1,0,71.89,58.89H6.56" fill="none" stroke-linecap="round" stroke-miterlimit="10" stroke-width="12" stroke="url(#b)"/>
        </symbol>
    </defs>
    <path d="M219.94,359.94A24,24,0,1,1,186,326l1.76-1.76L343,169" fill="none" stroke-linecap="round" stroke-linejoin="round" stroke-width="12" stroke="url(#c)"/>
    <path d="M354.29,327.42c37.49-37.49,29.89-105.87-17-152.74s-115.25-54.46-152.74-17l13.15,4.87c18.48,6.84,34.57,23.23,41,41.73l4,11.54,7.29,2.34c19.83,6.38,37.42,24,43.8,43.8l2.34,7.29,11.54,4c18.5,6.42,34.89,22.51,41.73,41Z" stroke="#ef4444" stroke-miterlimit="10" stroke-width="4" fill="url(#d)"/>
    <path d="M296.15,269.28c42.61-33.19,41.17-94.6,41.17-94.6s-61.41-1.44-94.6,41.17" fill="none" stroke="#ef4444" stroke-linecap="round" stroke-linejoin="round" stroke-width="2"/>
    <use width="138" height="96" transform="translate(62.5 201)" xlink:href="#e"/>
</svg>
