<svg xmlns="http://www.w3.org/2000/svg" xmlns:xlink="http://www.w3.org/1999/xlink" viewBox="0 0 64 64">
	<defs>
		<linearGradient id="a" x1="25.32" y1="20.7" x2="40.58" y2="47.15" gradientTransform="translate(44.9 -11.03) rotate(60)" gradientUnits="userSpaceOnUse">
			<stop offset="0" stop-color="#d4d7dd"/>
			<stop offset="0.45" stop-color="#d4d7dd"/>
			<stop offset="1" stop-color="#bec1c6"/>
		</linearGradient>
		<linearGradient id="b" x1="17" y1="25" x2="47" y2="25" gradientTransform="translate(44.9 -11.03) rotate(60)" gradientUnits="userSpaceOnUse">
			<stop offset="0" stop-color="#f87171"/>
			<stop offset="0.45" stop-color="#f87171"/>
			<stop offset="1" stop-color="#dc2626"/>
		</linearGradient>
		<linearGradient id="c" x1="14.86" y1="24.33" x2="19.95" y2="33.15" gradientTransform="matrix(1, 0, 0, 1, 0, 0)" xlink:href="#a"/>
		<linearGradient id="d" x1="11.48" y1="29.39" x2="16.89" y2="38.76" gradientTransform="matrix(1, 0, 0, 1, 0, 0)" xlink:href="#a"/>
	</defs>
	<path d="M24.28,44.76a3,3,0,0,1-3-5.2l.27-.15L45.32,25.69" fill="none" stroke-linecap="round" stroke-linejoin="round" stroke-width="2" stroke="url(#a)"/>
	<g>
		<path d="M41.56,45.18c5.74-3.32,7-11.82,2.89-19s-12.15-10.31-17.89-7l1.43,1a8.89,8.89,0,0,1,3.6,6.36l.11,1.53.8.52a8.83,8.83,0,0,1,3.87,6.7l.05,1,1.26.85a8.87,8.87,0,0,1,3.71,6.3Z" stroke="#ef4444" stroke-miterlimit="10" stroke-width="0.5" fill="url(#b)"/>
		<path d="M36.42,36.28c6.22-2.63,8-10.09,8-10.09S37.08,24,31.7,28.1" fill="none" stroke="#ef4444" stroke-linecap="round" stroke-linejoin="round" stroke-width="0.5"/>
		<animateTransform attributeName="transform" type="translate" values="0 0; -1 0.5; 0 0" dur="1s" repeatCount="indefinite"/>
	</g>
	<path d="M22.18,25.68a2.22,2.22,0,1,1,1.6,3.76H8" fill="none" stroke-dasharray="12 15" stroke-linecap="round" stroke-miterlimit="10" stroke-width="2" stroke="url(#c)">
		<animate attributeName="stroke-dashoffset" values="-27; 27" dur="2s" repeatCount="indefinite"/>
	</path>
	<path d="M15.73,36.32a2.22,2.22,0,1,0,1.6-3.76H8" fill="none" stroke-dasharray="7 14" stroke-linecap="round" stroke-miterlimit="10" stroke-width="2" stroke="url(#d)">
		<animate attributeName="stroke-dashoffset" values="-21; 21" dur="2s" begin="-1.5s" repeatCount="indefinite"/>
	</path>
</svg>
