<svg xmlns="http://www.w3.org/2000/svg" xmlns:xlink="http://www.w3.org/1999/xlink" viewBox="0 0 64 64">
	<defs>
		<linearGradient id="a" x1="14.86" y1="24.33" x2="19.95" y2="33.15" gradientUnits="userSpaceOnUse">
			<stop offset="0" stop-color="#d4d7dd"/>
			<stop offset="0.45" stop-color="#d4d7dd"/>
			<stop offset="1" stop-color="#bec1c6"/>
		</linearGradient>
		<linearGradient id="b" x1="11.48" y1="29.39" x2="16.89" y2="38.76" xlink:href="#a"/>
		<linearGradient id="c" x1="-9.68" y1="-39.92" x2="5.58" y2="-13.48" gradientTransform="translate(9.9 49.6) rotate(60)" xlink:href="#a"/>
		<linearGradient id="d" x1="-17.83" y1="-25.33" x2="12.17" y2="-25.33" gradientTransform="matrix(0.5, 0.87, 0.87, -0.5, 65.77, 17.34)" gradientUnits="userSpaceOnUse">
			<stop offset="0" stop-color="#f87171"/>
			<stop offset="0.45" stop-color="#f87171"/>
			<stop offset="1" stop-color="#dc2626"/>
		</linearGradient>
	</defs>
	<path d="M22.18,25.68a2.22,2.22,0,1,1,1.6,3.76H8" fill="none" stroke-dasharray="12 15" stroke-linecap="round" stroke-miterlimit="10" stroke-width="2" stroke="url(#a)">
		<animate attributeName="stroke-dashoffset" values="-27; 27" dur="2s" repeatCount="indefinite"/>
	</path>
	<path d="M15.73,36.32a2.22,2.22,0,1,0,1.6-3.76H8" fill="none" stroke-dasharray="7 14" stroke-linecap="round" stroke-miterlimit="10" stroke-width="2" stroke="url(#b)">
		<animate attributeName="stroke-dashoffset" values="-21; 21" dur="2s" begin="-1.5s" repeatCount="indefinite"/>
	</path>
	<path d="M24.28,44.76a3,3,0,0,1-3-5.2l.27-.15L45.32,25.69" fill="none" stroke-linecap="round" stroke-linejoin="round" stroke-width="2" stroke="url(#c)"/>
	<g>
		<path d="M55.12,37.55c-5.74,3.31-13.75.18-17.9-7s-2.84-15.67,2.9-19l.16,1.75A8.92,8.92,0,0,0,44,19.61l1.27.86,0,1a8.9,8.9,0,0,0,3.87,6.71l.81.51.11,1.53a8.86,8.86,0,0,0,3.6,6.36Z" stroke="#ef4444" stroke-miterlimit="10" stroke-width="0.5" fill="url(#d)"/>
		<path d="M50,28.64c-5.39,4.08-12.76,1.91-12.76,1.91s1.82-7.46,8-10.08" fill="none" stroke="#ef4444" stroke-linecap="round" stroke-linejoin="round" stroke-width="0.5"/>
		<animateTransform attributeName="transform" type="translate" values="0 0; 1 -0.5; 0 0" dur="1s" repeatCount="indefinite"/>
	</g>
</svg>
