<svg xmlns="http://www.w3.org/2000/svg" viewBox="0 0 64 64">
	<defs>
		<linearGradient id="a" x1="26.75" y1="22.91" x2="37.25" y2="41.09" gradientUnits="userSpaceOnUse">
			<stop offset="0" stop-color="#fbbf24"/>
			<stop offset="0.45" stop-color="#fbbf24"/>
			<stop offset="1" stop-color="#f59e0b"/>
		</linearGradient>
	</defs>
	<circle cx="32" cy="32" r="10.5" stroke="#f8af18" stroke-miterlimit="10" stroke-width="0.5" fill="url(#a)"/>
	<path d="M32,15.71V9.5m0,45V48.29M43.52,20.48l4.39-4.39M16.09,47.91l4.39-4.39m0-23-4.39-4.39M47.91,47.91l-4.39-4.39M15.71,32H9.5m45,0H48.29" fill="none" stroke="#fbbf24" stroke-linecap="round" stroke-miterlimit="10" stroke-width="3">
		<animateTransform attributeName="transform" dur="45s" values="0 32 32; 360 32 32" repeatCount="indefinite" type="rotate"/>
	</path>
	<rect x="33.5" y="33.5" width="21" height="21" rx="6" fill="#ffb800" stroke="#fff" stroke-miterlimit="10" stroke-width="2"/>
	<path d="M47.4,44.87a.53.53,0,0,1,.1.36v.63a.55.55,0,0,1-.1.36.54.54,0,0,1-.38.1h-.64v1.22a.5.5,0,0,1-.11.36.51.51,0,0,1-.37.1h-.81a.51.51,0,0,1-.37-.1.5.5,0,0,1-.11-.36V46.32H41a.54.54,0,0,1-.38-.1.5.5,0,0,1-.1-.36V45.3a1.44,1.44,0,0,1,0-.35.92.92,0,0,1,.17-.25l3.66-4.37a1,1,0,0,1,.3-.26A.81.81,0,0,1,45,40h.86a.51.51,0,0,1,.37.1.5.5,0,0,1,.11.36v4.31H47A.54.54,0,0,1,47.4,44.87Zm-4.79-.1h2V42.39Z" fill="#fff"/>
</svg>
