<svg xmlns="http://www.w3.org/2000/svg" xmlns:xlink="http://www.w3.org/1999/xlink" viewBox="0 0 512 512">
    <defs>
        <linearGradient id="a" x1="149.99" y1="119.24" x2="234.01" y2="264.76" gradientUnits="userSpaceOnUse">
            <stop offset="0" stop-color="#fbbf24"/>
            <stop offset="0.45" stop-color="#fbbf24"/>
            <stop offset="1" stop-color="#f59e0b"/>
        </linearGradient>
        <clipPath id="b">
            <path d="M64,64H448V256H328a72,72,0,0,0-72,72V448H64Z" fill="none"/>
        </clipPath>
        <symbol id="c" viewBox="0 0 384 384">
            <circle cx="192" cy="192" r="84" stroke="#f8af18" stroke-miterlimit="10" stroke-width="6" fill="url(#a)"/>
            <path d="M192,61.66V12m0,360V322.34M284.17,99.83l35.11-35.11M64.72,319.28l35.11-35.11m0-184.34L64.72,64.72M319.28,319.28l-35.11-35.11M61.66,192H12m360,0H322.34" fill="none" stroke="#fbbf24" stroke-linecap="round" stroke-miterlimit="10" stroke-width="24"/>
        </symbol>
    </defs>
    <g clip-path="url(#b)">
        <use width="384" height="384" transform="translate(64 64)" xlink:href="#c"/>
        <path d="M254,338V328a74,74,0,0,1,74-74h10" fill="none" stroke="#f8af18" stroke-miterlimit="10" stroke-width="6"/>
    </g>
    <rect x="280" y="280" width="144" height="144" rx="48" fill="#ff3c00"/>
    <path d="M334.4,388H315.49V343H297.7V330.36h3q7.78,0,12.34-3.34,4.24-3.13,5.56-10.21l.2-.81H334.4Z" fill="#fff"/>
    <path d="M398.27,378.23Q390.14,388,376.4,388t-21.87-9.77q-8.13-9.78-8.13-26.42,0-16.46,8.13-26.13Q362.47,316,376.4,316q13.74,0,21.87,9.68t8,26.13Q406.3,368.44,398.27,378.23ZM376.4,374Q389,374,389,352T376.4,330q-12.67,0-12.68,22T376.4,374Z" fill="#fff"/>
</svg>
