<svg xmlns="http://www.w3.org/2000/svg" xmlns:xlink="http://www.w3.org/1999/xlink" viewBox="0 0 64 64">
	<defs>
		<linearGradient id="a" x1="27.56" y1="17.64" x2="38.27" y2="36.19" gradientUnits="userSpaceOnUse">
			<stop offset="0" stop-color="#d4d7dd"/>
			<stop offset="0.45" stop-color="#d4d7dd"/>
			<stop offset="1" stop-color="#bec1c6"/>
		</linearGradient>
		<linearGradient id="b" x1="19.96" y1="29.03" x2="31.37" y2="48.8" xlink:href="#a"/>
	</defs>
	<path d="M43.64,20a5,5,0,1,1,3.61,8.46H11.75" fill="none" stroke-linecap="round" stroke-miterlimit="10" stroke-width="3" stroke="url(#a)"/>
	<path d="M29.14,44a5,5,0,1,0,3.61-8.46h-21" fill="none" stroke-linecap="round" stroke-miterlimit="10" stroke-width="3" stroke="url(#b)"/>
	<path d="M52.37,34.82a.57.57,0,0,1,.11.39V36a.42.42,0,0,1-.51.51H47.68l-.22,2.21h1.81a3.62,3.62,0,0,1,2.71.95A3.32,3.32,0,0,1,52.92,42a3.42,3.42,0,0,1-1,2.52,3.69,3.69,0,0,1-2.75,1c-2.12,0-3.48-.81-4.07-2.45a.46.46,0,0,1,.32-.66l.83-.28a.54.54,0,0,1,.4,0,.62.62,0,0,1,.24.36,2.15,2.15,0,0,0,2.26,1.31,1.8,1.8,0,0,0,1.31-.47A1.71,1.71,0,0,0,50.93,42a1.53,1.53,0,0,0-.48-1.19,1.82,1.82,0,0,0-1.28-.45H46a.55.55,0,0,1-.45-.14.6.6,0,0,1-.09-.46l.45-4.36a1,1,0,0,1,.22-.58,1,1,0,0,1,.61-.15H52A.55.55,0,0,1,52.37,34.82Z" fill="#374151"/>
</svg>
