<svg xmlns="http://www.w3.org/2000/svg" xmlns:xlink="http://www.w3.org/1999/xlink" viewBox="0 0 64 64">
	<defs>
		<linearGradient id="a" x1="27.56" y1="17.64" x2="38.27" y2="36.19" gradientUnits="userSpaceOnUse">
			<stop offset="0" stop-color="#d4d7dd"/>
			<stop offset="0.45" stop-color="#d4d7dd"/>
			<stop offset="1" stop-color="#bec1c6"/>
		</linearGradient>
		<linearGradient id="b" x1="19.96" y1="29.03" x2="31.37" y2="48.8" xlink:href="#a"/>
	</defs>
	<path d="M43.64,20a5,5,0,1,1,3.61,8.46H11.75" fill="none" stroke-dasharray="35 22" stroke-linecap="round" stroke-miterlimit="10" stroke-width="3" stroke="url(#a)">
		<animate attributeName="stroke-dashoffset" values="-57; 57" dur="1.2s" repeatCount="indefinite"/>
	</path>
	<path d="M29.14,44a5,5,0,1,0,3.61-8.46h-21" fill="none" stroke-dasharray="24 15" stroke-linecap="round" stroke-miterlimit="10" stroke-width="3" stroke="url(#b)">
		<animate attributeName="stroke-dashoffset" values="-39; 39" dur="1.2s" begin="-.3s" repeatCount="indefinite"/>
	</path>
	<path d="M46.28,34.82a.57.57,0,0,1,.11.39v9.64a.43.43,0,0,1-.51.51H45a.52.52,0,0,1-.4-.12.51.51,0,0,1-.11-.39V37l-2.1,1.17a.65.65,0,0,1-.47.12.6.6,0,0,1-.3-.31l-.37-.67a.53.53,0,0,1-.07-.4c0-.1.14-.19.31-.29l2.92-1.68a1.37,1.37,0,0,1,.72-.21h.72A.55.55,0,0,1,46.28,34.82Z" fill="#374151"/>
	<path d="M49.38,35.46a4.84,4.84,0,0,1,5.84,0,3.44,3.44,0,0,1,1,2.64V42a3.49,3.49,0,0,1-1,2.66,4.88,4.88,0,0,1-5.84,0A3.42,3.42,0,0,1,48.33,42V38.1A3.38,3.38,0,0,1,49.38,35.46Zm4.46,1.26a2.66,2.66,0,0,0-3.08,0,1.78,1.78,0,0,0-.55,1.38V42a1.78,1.78,0,0,0,.55,1.38,2.67,2.67,0,0,0,3.08,0A1.78,1.78,0,0,0,54.38,42V38.1A1.78,1.78,0,0,0,53.84,36.72Z" fill="#374151"/>
</svg>
