<svg xmlns="http://www.w3.org/2000/svg" xmlns:xlink="http://www.w3.org/1999/xlink" viewBox="0 0 64 64">
	<defs>
		<linearGradient id="a" x1="11.25" y1="19.45" x2="25.75" y2="44.55" gradientUnits="userSpaceOnUse">
			<stop offset="0" stop-color="#d4d7dd"/>
			<stop offset="0.45" stop-color="#d4d7dd"/>
			<stop offset="1" stop-color="#bec1c6"/>
		</linearGradient>
		<linearGradient id="b" x1="22.43" y1="17.8" x2="28.34" y2="28.04" gradientUnits="userSpaceOnUse">
			<stop offset="0" stop-color="#f87171"/>
			<stop offset="0.45" stop-color="#f87171"/>
			<stop offset="1" stop-color="#dc2626"/>
		</linearGradient>
		<linearGradient id="c" x1="31.57" y1="18.65" x2="36.49" y2="27.19" xlink:href="#b"/>
		<linearGradient id="d" x1="40.71" y1="19.5" x2="44.65" y2="26.34" xlink:href="#b"/>
	</defs>
	<line x1="18.5" y1="47" x2="18.5" y2="17" fill="none" stroke-linecap="round" stroke-linejoin="round" stroke-width="3" stroke="url(#a)"/>
	<g>
		<path d="M23.93,17.13l3.59.53a.79.79,0,0,1,.68.79v9.21a.8.8,0,0,1-.68.79L23.93,29a.8.8,0,0,1-.92-.79V17.92A.81.81,0,0,1,23.93,17.13Z" stroke="#ef4444" stroke-miterlimit="10" stroke-width="0.5" fill="url(#b)"/>
		<animateTransform attributeName="transform" type="translate" values="-0.1 1; 0 0; -0.1 -1; 0 0; -0.1 1" dur="1s" begin="0s" repeatCount="indefinite"/>
	</g>
	<g>
		<path d="M32.58,18.27l3.59.52a.8.8,0,0,1,.68.79v6.94a.8.8,0,0,1-.68.79l-3.59.53a.8.8,0,0,1-.92-.79v-8A.8.8,0,0,1,32.58,18.27Z" stroke="#ef4444" stroke-miterlimit="10" stroke-width="0.5" fill="url(#c)"/>
		<animateTransform attributeName="transform" type="translate" values="-0.1 1; 0 0; -0.1 -1; 0 0; -0.1 1" dur="1s" begin="-0.1s" repeatCount="indefinite"/>
	</g>
	<g>
		<path d="M41.22,19.4l3.6.53a.79.79,0,0,1,.68.79v4.67a.8.8,0,0,1-.68.79l-3.6.52a.79.79,0,0,1-.91-.79V20.19A.8.8,0,0,1,41.22,19.4Z" stroke="#ef4444" stroke-miterlimit="10" stroke-width="0.5" fill="url(#d)"/>
		<animateTransform attributeName="transform" type="translate" values="-0.1 1; 0 0; -0.1 -1; 0 0; -0.1 1" dur="1s" begin="-0.2s" repeatCount="indefinite"/>
	</g>
</svg>
