<svg id="Weather_Icons" data-name="Weather Icons" xmlns="http://www.w3.org/2000/svg" viewBox="0 0 64 64"><defs><style>.cls-1{fill:#f4a71d;}.cls-2{fill:none;stroke:#f4a71d;stroke-linecap:round;stroke-miterlimit:10;stroke-width:3px;}</style></defs><title>weather-icons</title><g id="sun"><path class="cls-1" d="M32,23.36A8.64,8.64,0,1,1,23.36,32,8.66,8.66,0,0,1,32,23.36m0-3A11.64,11.64,0,1,0,43.64,32,11.64,11.64,0,0,0,32,20.36Z"/><line class="cls-2" x1="32" y1="15.71" x2="32" y2="9.5"/><line class="cls-2" x1="32" y1="54.5" x2="32" y2="48.29"/><line class="cls-2" x1="43.52" y1="20.48" x2="47.91" y2="16.09"/><line class="cls-2" x1="16.09" y1="47.91" x2="20.48" y2="43.52"/><line class="cls-2" x1="20.48" y1="20.48" x2="16.09" y2="16.09"/><line class="cls-2" x1="47.91" y1="47.91" x2="43.52" y2="43.52"/><line class="cls-2" x1="15.71" y1="32" x2="9.5" y2="32"/><line class="cls-2" x1="54.5" y1="32" x2="48.29" y2="32"/></g></svg>