<svg xmlns="http://www.w3.org/2000/svg" viewBox="0 0 64 64"><defs><clipPath id="a"><path fill="none" d="M12 35l-5.28-4.21-2-6 1-7 4-5 5-3h6l5 1 3 3L33 20l-6 4h-6l-3 3v4l-4 2-2 2z"/></clipPath></defs><g clip-path="url(#a)"><g><path fill="#f59e0b" d="M19 20.05A3.95 3.95 0 1115.05 24 4 4 0 0119 20.05m0-2A5.95 5.95 0 1025 24a5.95 5.95 0 00-6-5.95z"/><path fill="none" stroke="#f59e0b" stroke-linecap="round" stroke-miterlimit="10" stroke-width="2" d="M19 15.67V12.5M19 35.5v-3.17M24.89 18.11l2.24-2.24M10.87 32.13l2.24-2.24M13.11 18.11l-2.24-2.24M27.13 32.13l-2.24-2.24M10.67 24H7.5M30.5 24h-3.17"/><animateTransform attributeName="transform" dur="45s" from="0 19.22 24.293" repeatCount="indefinite" to="360 19.22 24.293" type="rotate"/></g></g><path fill="none" stroke="#e5e7eb" stroke-linecap="round" stroke-linejoin="round" stroke-width="3" d="M43.67 45.5h2.83a7 7 0 000-14h-.32a10.49 10.49 0 00-19.11-8 7 7 0 00-10.57 6 7.21 7.21 0 00.1 1.14A7.5 7.5 0 0018 45.5a4.19 4.19 0 00.5 0v0"/><g><g><g><path fill="#72b8d4" d="M24.24 42.67l.24.68a.25.25 0 00.35.14l.65-.31a.26.26 0 01.34.34l-.31.65a.25.25 0 00.14.35l.68.24a.25.25 0 010 .48l-.68.24a.25.25 0 00-.14.35l.31.65a.26.26 0 01-.34.34l-.65-.31a.25.25 0 00-.35.14l-.24.68a.25.25 0 01-.48 0l-.24-.68a.25.25 0 00-.35-.14l-.65.31a.26.26 0 01-.34-.34l.31-.65a.25.25 0 00-.14-.35l-.68-.24a.25.25 0 010-.48l.68-.24a.25.25 0 00.14-.35l-.31-.65a.26.26 0 01.34-.34l.65.31a.25.25 0 00.35-.14l.24-.68a.25.25 0 01.48 0z"/><animateTransform attributeName="transform" dur="9s" repeatCount="indefinite" type="rotate" values="0 24 45; 360 24 45"/></g><animateTransform attributeName="transform" dur="4s" repeatCount="indefinite" type="translate" values="-3 0; 3 0"/></g><animateTransform attributeName="transform" dur="4s" repeatCount="indefinite" type="translate" values="2 -6; -2 12"/><animate attributeName="opacity" dur="4s" repeatCount="indefinite" values="0;1;1;1;0"/></g><g><g><g><path fill="#72b8d4" d="M31.24 42.67l.24.68a.25.25 0 00.35.14l.65-.31a.26.26 0 01.34.34l-.31.65a.25.25 0 00.14.35l.68.24a.25.25 0 010 .48l-.68.24a.25.25 0 00-.14.35l.31.65a.26.26 0 01-.34.34l-.65-.31a.25.25 0 00-.35.14l-.24.68a.25.25 0 01-.48 0l-.24-.68a.25.25 0 00-.35-.14l-.65.31a.26.26 0 01-.34-.34l.31-.65a.25.25 0 00-.14-.35l-.68-.24a.25.25 0 010-.48l.68-.24a.25.25 0 00.14-.35l-.31-.65a.26.26 0 01.34-.34l.65.31a.25.25 0 00.35-.14l.24-.68a.25.25 0 01.48 0z"/><animateTransform attributeName="transform" dur="9s" repeatCount="indefinite" type="rotate" values="0 31 45; 360 31 45"/></g><animateTransform attributeName="transform" begin="-2s" dur="4s" repeatCount="indefinite" type="translate" values="-3 0; 3 0"/></g><animateTransform attributeName="transform" begin="-2s" dur="4s" repeatCount="indefinite" type="translate" values="2 -6; -2 12"/><animate attributeName="opacity" begin="-2s" dur="4s" repeatCount="indefinite" values="0;1;1;1;0"/></g><g><g><g><path fill="#72b8d4" d="M38.24 42.67l.24.68a.25.25 0 00.35.14l.65-.31a.26.26 0 01.34.34l-.31.65a.25.25 0 00.14.35l.68.24a.25.25 0 010 .48l-.68.24a.25.25 0 00-.14.35l.31.65a.26.26 0 01-.34.34l-.65-.31a.25.25 0 00-.35.14l-.24.68a.25.25 0 01-.48 0l-.24-.68a.25.25 0 00-.35-.14l-.65.31a.26.26 0 01-.34-.34l.31-.65a.25.25 0 00-.14-.35l-.68-.24a.25.25 0 010-.48l.68-.24a.25.25 0 00.14-.35l-.31-.65a.26.26 0 01.34-.34l.65.31a.25.25 0 00.35-.14l.24-.68a.25.25 0 01.48 0z"/><animateTransform attributeName="transform" dur="9s" repeatCount="indefinite" type="rotate" values="0 38 45; 360 38 45"/></g><animateTransform attributeName="transform" begin="-1s" dur="4s" repeatCount="indefinite" type="translate" values="-3 0; 3 0"/></g><animateTransform attributeName="transform" begin="-1s" dur="4s" repeatCount="indefinite" type="translate" values="2 -6; -2 12"/><animate attributeName="opacity" begin="-1s" dur="4s" repeatCount="indefinite" values="0;1;1;1;0"/></g></svg>