<svg xmlns="http://www.w3.org/2000/svg" viewBox="0 0 64 64">
	<path d="M27,30a3.75,3.75,0,0,1-2.75,1.18A3.8,3.8,0,0,1,21.48,30a3.91,3.91,0,0,1,2.78-6.69A3.89,3.89,0,0,1,27,30Zm-4-1.54a1.65,1.65,0,0,0,1.22.51,1.69,1.69,0,0,0,1.22-.51,1.61,1.61,0,0,0,.51-1.2,1.71,1.71,0,0,0-.5-1.23,1.65,1.65,0,0,0-1.23-.52A1.63,1.63,0,0,0,23,26a1.68,1.68,0,0,0-.51,1.23A1.61,1.61,0,0,0,23,28.42Z" fill="#374151"/>
	<path d="M32,24.79a7.12,7.12,0,0,1,5.08-1.67c3.4,0,5.58,1.34,6.52,4a.72.72,0,0,1-.5,1.05l-1.32.46a.88.88,0,0,1-.65,0,1,1,0,0,1-.38-.54c-.53-1.48-1.75-2.21-3.67-2.21a4.19,4.19,0,0,0-2.85.87,3.23,3.23,0,0,0-1,2.54v5.3a3.24,3.24,0,0,0,1,2.54,4.09,4.09,0,0,0,2.85.89c1.9,0,3.12-.74,3.67-2.23a1,1,0,0,1,.41-.56.75.75,0,0,1,.64.06l1.3.45a.75.75,0,0,1,.53,1.06q-1.43,4-6.55,4A7.17,7.17,0,0,1,32,39.21a6,6,0,0,1-1.79-4.59V29.36A5.94,5.94,0,0,1,32,24.79Z" fill="#374151"/>
</svg>
