<svg xmlns="http://www.w3.org/2000/svg" viewBox="0 0 64 64">
	<defs>
		<clipPath id="a">
			<polygon points="7.5 7.5 54.5 7.5 7.5 54.5 7.5 7.5" fill="none"/>
		</clipPath>
	</defs>
	<g clip-path="url(#a)">
		<path d="M46.5,31.5l-.32,0a10.49,10.49,0,0,0-19.11-8,7,7,0,0,0-10.57,6,7.21,7.21,0,0,0,.1,1.14A7.5,7.5,0,0,0,18,45.5a4.19,4.19,0,0,0,.5,0v0h28a7,7,0,0,0,0-14Z" fill="none" stroke="#e5e7eb" stroke-linejoin="round" stroke-width="3"/>
	</g>
	<g>
		<line x1="24.89" y1="45.11" x2="28.08" y2="41.92" fill="none" stroke="#fde68a" stroke-linecap="round" stroke-miterlimit="10" stroke-width="3"/>
		<line x1="33.03" y1="36.97" x2="40.45" y2="29.55" fill="none" stroke="#fde68a" stroke-linecap="round" stroke-miterlimit="10" stroke-width="3" stroke-dasharray="7 7"/>
		<line x1="42.92" y1="27.08" x2="46.11" y2="23.89" fill="none" stroke="#fde68a" stroke-linecap="round" stroke-miterlimit="10" stroke-width="3"/>
		<animateTransform attributeName="transform" type="translate" values="-2 2; 0 0; -2 2" dur="3s" repeatCount="indefinite"/>
	</g>
	<g>
		<line x1="34.89" y1="45.11" x2="38.08" y2="41.92" fill="none" stroke="#fde68a" stroke-linecap="round" stroke-miterlimit="10" stroke-width="3"/>
		<line x1="43.03" y1="36.97" x2="50.45" y2="29.55" fill="none" stroke="#fde68a" stroke-linecap="round" stroke-miterlimit="10" stroke-width="3" stroke-dasharray="7 7"/>
		<line x1="52.92" y1="27.08" x2="56.11" y2="23.89" fill="none" stroke="#fde68a" stroke-linecap="round" stroke-miterlimit="10" stroke-width="3"/>
		<animateTransform attributeName="transform" type="translate" values="-2 2; 0 0; -2 2" dur="3s" begin="-2.5s" repeatCount="indefinite"/>
	</g>
</svg>
