<svg xmlns="http://www.w3.org/2000/svg" viewBox="0 0 64 64">
	<path d="M46.5,31.5l-.32,0a10.49,10.49,0,0,0-19.11-8,7,7,0,0,0-10.57,6,7.21,7.21,0,0,0,.1,1.14A7.5,7.5,0,0,0,18,45.5a4.19,4.19,0,0,0,.5,0v0h28a7,7,0,0,0,0-14Z" fill="none" stroke="#e5e7eb" stroke-linejoin="round" stroke-width="3"/>
	<g>
		<line x1="17" y1="58" x2="21.5" y2="58" fill="none" stroke="#d1d5db" stroke-linecap="round" stroke-miterlimit="10" stroke-width="3"/>
		<line x1="28.5" y1="58" x2="39" y2="58" fill="none" stroke="#d1d5db" stroke-linecap="round" stroke-miterlimit="10" stroke-width="3" stroke-dasharray="7 7"/>
		<line x1="42.5" y1="58" x2="47" y2="58" fill="none" stroke="#d1d5db" stroke-linecap="round" stroke-miterlimit="10" stroke-width="3"/>
		<animateTransform attributeName="transform" type="translate" values="-3 0; 3 0; -3 0" dur="5s" begin="0s" repeatCount="indefinite"/>
	</g>
	<g>
		<line x1="17" y1="52" x2="21.5" y2="52" fill="none" stroke="#d1d5db" stroke-linecap="round" stroke-miterlimit="10" stroke-width="3"/>
		<line x1="28.5" y1="52" x2="39" y2="52" fill="none" stroke="#d1d5db" stroke-linecap="round" stroke-miterlimit="10" stroke-width="3" stroke-dasharray="7 7"/>
		<line x1="42.5" y1="52" x2="47" y2="52" fill="none" stroke="#d1d5db" stroke-linecap="round" stroke-miterlimit="10" stroke-width="3"/>
		<animateTransform attributeName="transform" type="translate" values="-3 0; 3 0; -3 0" dur="5s" begin="-4s" repeatCount="indefinite"/>
	</g>
</svg>
