<svg xmlns="http://www.w3.org/2000/svg" viewBox="0 0 64 64">
	<defs>
		<clipPath id="a">
			<polygon points="41.8 20.25 46.28 26.86 46.5 31.5 51.81 33.95 53.5 39.92 61.58 39.92 61 27 51.69 18.5 41.8 20.25" fill="none"/>
		</clipPath>
	</defs>
	<g clip-path="url(#a)">
		<path d="M34.23,33.45a4.05,4.05,0,0,0,4.05,4H54.79a4.34,4.34,0,0,0,.81-8.61,3.52,3.52,0,0,0,.06-.66,4.06,4.06,0,0,0-6.13-3.48,6.08,6.08,0,0,0-11.25,3.19,6.34,6.34,0,0,0,.18,1.46h-.18A4.05,4.05,0,0,0,34.23,33.45Z" fill="none" stroke="#9ca3af" stroke-linejoin="round" stroke-width="2"/>
		<animateTransform attributeName="transform" type="translate" values="-2.1 0; 2.1 0; -2.1 0" dur="7s" repeatCount="indefinite"/>
	</g>
	<g>
		<path d="M46.5,31.5l-.32,0a10.49,10.49,0,0,0-19.11-8,7,7,0,0,0-10.57,6,7.21,7.21,0,0,0,.1,1.14A7.5,7.5,0,0,0,18,45.5a4.19,4.19,0,0,0,.5,0v0h28a7,7,0,0,0,0-14Z" fill="none" stroke="#e5e7eb" stroke-linejoin="round" stroke-width="3"/>
		<animateTransform attributeName="transform" type="translate" values="-3 0; 3 0; -3 0" dur="7s" repeatCount="indefinite"/>
	</g>
</svg>
