<svg xmlns="http://www.w3.org/2000/svg" viewBox="0 0 64 64">
	<circle cx="32" cy="42" r="4" fill="#ef4444"/>
	<path fill="none" stroke="#ef4444" stroke-linecap="round" stroke-miterlimit="10" stroke-width="2" d="M32 19v22.5">
		<animateTransform attributeName="transform" type="translate" values="0 0; 0 1; 0 0" dur="1s" repeatCount="indefinite"/>
	</path>
	<path d="M36,36.07v-17a4,4,0,1,0-8,0v17a7.12,7.12,0,0,0-3,5.83,7,7,0,1,0,14,0A7.12,7.12,0,0,0,36,36.07Z" fill="none" stroke="#e5e7eb" stroke-linecap="round" stroke-linejoin="round" stroke-width="2"/>
	<line x1="32.5" y1="25" x2="35.5" y2="25" fill="none" stroke="#e5e7eb" stroke-linecap="round" stroke-linejoin="round" stroke-width="2"/>
	<line x1="32.5" y1="21" x2="35.5" y2="21" fill="none" stroke="#e5e7eb" stroke-linecap="round" stroke-linejoin="round" stroke-width="2"/>
	<line x1="32.5" y1="29" x2="35.5" y2="29" fill="none" stroke="#e5e7eb" stroke-linecap="round" stroke-linejoin="round" stroke-width="2"/>
	<g>
		<polyline points="44 38 44 26 41 29.45 44 26 47 29.45" fill="none" stroke="#ef4444" stroke-linecap="round" stroke-linejoin="round" stroke-width="2"/>
		<animateTransform attributeName="transform" type="translate" values="0 0; 0 0; 0 -6; 0 -6" dur="1.5s" keyTimes="0.0; 0.5; 0.9; 1.0" begin="0s" repeatCount="indefinite"/>
		<animate attributeName="opacity" values="0; 1; 1; 0; 0" dur="1.5s" keyTimes="0.0; 0.3; 0.8; 0.9; 1.0" repeatCount="indefinite"/>
	</g>
</svg>
