<svg xmlns="http://www.w3.org/2000/svg" viewBox="0 0 64 64">
	<defs>
		<clipPath id="a">
			<polygon points="12 35 6.72 30.79 4.72 24.79 5.72 17.79 9.72 12.79 14.72 9.79 20.72 9.79 25.72 10.79 28.72 13.79 33 20 27 24 21 24 18 27 18 31 14 33 12 35" fill="none"/>
		</clipPath>
	</defs>
	<g clip-path="url(#a)">
		<g>
			<path d="M19,20.05A3.95,3.95,0,1,1,15.05,24,4,4,0,0,1,19,20.05m0-2A5.95,5.95,0,1,0,25,24,5.95,5.95,0,0,0,19,18.05Z" fill="#f59e0b"/>
			<line x1="19" y1="15.67" x2="19" y2="12.5" fill="none" stroke="#f59e0b" stroke-linecap="round" stroke-miterlimit="10" stroke-width="2"/>
			<line x1="19" y1="35.5" x2="19" y2="32.33" fill="none" stroke="#f59e0b" stroke-linecap="round" stroke-miterlimit="10" stroke-width="2"/>
			<line x1="24.89" y1="18.11" x2="27.13" y2="15.87" fill="none" stroke="#f59e0b" stroke-linecap="round" stroke-miterlimit="10" stroke-width="2"/>
			<line x1="10.87" y1="32.13" x2="13.11" y2="29.89" fill="none" stroke="#f59e0b" stroke-linecap="round" stroke-miterlimit="10" stroke-width="2"/>
			<line x1="13.11" y1="18.11" x2="10.87" y2="15.87" fill="none" stroke="#f59e0b" stroke-linecap="round" stroke-miterlimit="10" stroke-width="2"/>
			<line x1="27.13" y1="32.13" x2="24.89" y2="29.89" fill="none" stroke="#f59e0b" stroke-linecap="round" stroke-miterlimit="10" stroke-width="2"/>
			<line x1="10.67" y1="24" x2="7.5" y2="24" fill="none" stroke="#f59e0b" stroke-linecap="round" stroke-miterlimit="10" stroke-width="2"/>
			<line x1="30.5" y1="24" x2="27.33" y2="24" fill="none" stroke="#f59e0b" stroke-linecap="round" stroke-miterlimit="10" stroke-width="2"/>
			<animateTransform attributeName="transform" type="rotate" from="0 19.22 24.293" to="360 19.22 24.293" dur="45s" repeatCount="indefinite"/>
		</g>
	</g>
	<path d="M43.67,45.5H46.5a7,7,0,0,0,0-14l-.32,0a10.49,10.49,0,0,0-19.11-8,7,7,0,0,0-10.57,6,7.21,7.21,0,0,0,.1,1.14A7.5,7.5,0,0,0,18,45.5a4.19,4.19,0,0,0,.5,0v0" fill="none" stroke="#e5e7eb" stroke-linecap="round" stroke-linejoin="round" stroke-width="3"/>
	<g>
		<path fill="none" stroke="#2885c7" stroke-linecap="round" stroke-miterlimit="10" stroke-width="2" d="M24.39 43.03l-.78 4.94"/>
		<animateTransform attributeName="transform" type="translate" values="1 -5; -2 10" dur="0.7s" repeatCount="indefinite"/>
		<animate attributeName="opacity" values="0;1;1;0" dur="0.7s" repeatCount="indefinite"/>
	</g>
	<g>
		<path fill="none" stroke="#2885c7" stroke-linecap="round" stroke-miterlimit="10" stroke-width="2" d="M31.39 43.03l-.78 4.94"/>
		<animateTransform attributeName="transform" begin="-0.4s" type="translate" values="1 -5; -2 10" dur="0.7s" repeatCount="indefinite"/>
		<animate attributeName="opacity" begin="-0.4s" values="0;1;1;0" dur="0.7s" repeatCount="indefinite"/>
	</g>
	<g>
		<path fill="none" stroke="#2885c7" stroke-linecap="round" stroke-miterlimit="10" stroke-width="2" d="M38.39 43.03l-.78 4.94"/>
		<animateTransform attributeName="transform" begin="-0.2s" type="translate" values="1 -5; -2 10" dur="0.7s" repeatCount="indefinite"/>
		<animate attributeName="opacity" begin="-0.2s" values="0;1;1;0" dur="0.7s" repeatCount="indefinite"/>
	</g>
	<g>
		<polygon points="30 36 26 48 30 48 28 58 38 44 32 44 36 36 30 36" fill="#f59e0b"/>
		<animate id="a" attributeName="opacity" values="1;1;1;1;1;1;0.1;1;0.1;1;1;0.1;1;0.1;1" dur="2s" repeatCount="indefinite"/>
	</g>
</svg>
