<svg xmlns="http://www.w3.org/2000/svg" viewBox="0 0 64 64">
	<g>
		<path d="M42.5,32A10.5,10.5,0,1,1,32,21.5,10.5,10.5,0,0,1,42.5,32ZM32,15.71V9.5m0,45V48.29M43.52,20.48l4.39-4.39M16.09,47.91l4.39-4.39m0-23-4.39-4.39M47.91,47.91l-4.39-4.39M15.71,32H9.5m45,0H48.29" fill="none" stroke="#f59e0b" stroke-linecap="round" stroke-miterlimit="10" stroke-width="3"/>
		<animateTransform attributeName="transform" dur="45s" from="0 32 32" repeatCount="indefinite" to="360 32 32" type="rotate"/>
	</g>
	<rect x="33.5" y="33.5" width="21" height="21" rx="6" fill="#ff8d00" stroke="#fff" stroke-miterlimit="10" stroke-width="2"/>
	<path d="M46.9,40.1a.5.5,0,0,1,.1.36V41a1.51,1.51,0,0,1-.15.65l-2.8,5.93a.61.61,0,0,1-.27.34,1.88,1.88,0,0,1-.6.07h-.92c-.28,0-.36-.15-.23-.46l2.79-5.87H41.46a.53.53,0,0,1-.36-.1.49.49,0,0,1-.1-.35v-.76a.5.5,0,0,1,.1-.36.48.48,0,0,1,.36-.1h5.07A.53.53,0,0,1,46.9,40.1Z" fill="#fff"/>
</svg>
