<svg xmlns="http://www.w3.org/2000/svg" viewBox="0 0 64 64">
	<g>
		<path d="M42.5,32A10.5,10.5,0,1,1,32,21.5,10.5,10.5,0,0,1,42.5,32ZM32,15.71V9.5m0,45V48.29M43.52,20.48l4.39-4.39M16.09,47.91l4.39-4.39m0-23-4.39-4.39M47.91,47.91l-4.39-4.39M15.71,32H9.5m45,0H48.29" fill="none" stroke="#f59e0b" stroke-linecap="round" stroke-miterlimit="10" stroke-width="3"/>
		<animateTransform attributeName="transform" dur="45s" from="0 32 32" repeatCount="indefinite" to="360 32 32" type="rotate"/>
	</g>
	<rect x="33.5" y="33.5" width="21" height="21" rx="6" fill="#9936d4" stroke="#fff" stroke-miterlimit="10" stroke-width="2"/>
	<path d="M42.9,40.1a.5.5,0,0,1,.1.36v7.08a.5.5,0,0,1-.1.36.46.46,0,0,1-.35.1h-.89a.46.46,0,0,1-.35-.1.5.5,0,0,1-.1-.36V42.25l-1.07.62a.42.42,0,0,1-.68-.18L39.07,42a.43.43,0,0,1,0-.35.56.56,0,0,1,.28-.27l2-1.18a1.18,1.18,0,0,1,.63-.18h.63A.46.46,0,0,1,42.9,40.1Z" fill="#fff"/>
	<path d="M47.9,40.1a.5.5,0,0,1,.1.36v7.08a.5.5,0,0,1-.1.36.46.46,0,0,1-.35.1h-.89a.46.46,0,0,1-.35-.1.5.5,0,0,1-.1-.36V42.25l-1.07.62a.42.42,0,0,1-.68-.18L44.08,42a.45.45,0,0,1-.07-.35.64.64,0,0,1,.29-.27l2-1.18a1.24,1.24,0,0,1,.64-.18h.63A.46.46,0,0,1,47.9,40.1Z" fill="#fff"/>
</svg>
