<svg xmlns="http://www.w3.org/2000/svg" viewBox="0 0 64 64">
	<line x1="18.5" y1="47" x2="18.5" y2="17" fill="none" stroke="#d1d5db" stroke-linecap="round" stroke-linejoin="round" stroke-width="3"/>
	<g>
		<path d="M23.93,17.13l3.59.53a.79.79,0,0,1,.68.79v9.21a.8.8,0,0,1-.68.79L23.93,29a.8.8,0,0,1-.92-.79V17.92A.81.81,0,0,1,23.93,17.13Z" fill="#ef4444"/>
		<animateTransform attributeName="transform" type="translate" values="-0.1 1; 0 0; -0.1 -1; 0 0; -0.1 1" dur="1s" begin="0s" repeatCount="indefinite"/>
	</g>
	<g>
		<path d="M32.58,18.27l3.59.52a.8.8,0,0,1,.68.79v6.94a.8.8,0,0,1-.68.79l-3.59.53a.8.8,0,0,1-.92-.79v-8A.8.8,0,0,1,32.58,18.27Z" fill="#ef4444"/>
		<animateTransform attributeName="transform" type="translate" values="-0.1 1; 0 0; -0.1 -1; 0 0; -0.1 1" dur="1s" begin="-0.1s" repeatCount="indefinite"/>
	</g>
	<g>
		<path d="M41.22,19.4l3.6.53a.79.79,0,0,1,.68.79v4.67a.8.8,0,0,1-.68.79l-3.6.52a.79.79,0,0,1-.91-.79V20.19A.8.8,0,0,1,41.22,19.4Z" fill="#ef4444"/>
		<animateTransform attributeName="transform" type="translate" values="-0.1 1; 0 0; -0.1 -1; 0 0; -0.1 1" dur="1s" begin="-0.2s" repeatCount="indefinite"/>
	</g>
</svg>
