<svg xmlns="http://www.w3.org/2000/svg" xmlns:xlink="http://www.w3.org/1999/xlink" viewBox="0 0 64 64"><defs><linearGradient id="a" x1="26.56" y1="20.51" x2="40.09" y2="43.94" gradientUnits="userSpaceOnUse"><stop offset="0" stop-color="#51cf66"/><stop offset="0.45" stop-color="#51cf66"/><stop offset="1" stop-color="#37b24d"/></linearGradient><linearGradient id="b" x1="34.82" y1="33.54" x2="41.35" y2="44.84" xlink:href="#a"/><linearGradient id="c" x1="29.91" y1="26.15" x2="40.47" y2="44.43" xlink:href="#a"/><linearGradient id="d" x1="21.09" y1="25.95" x2="33.45" y2="47.36" xlink:href="#a"/><linearGradient id="e" x1="23.08" y1="35.5" x2="30.31" y2="48.01" xlink:href="#a"/><linearGradient id="f" x1="31.25" y1="14.7" x2="32.75" y2="17.3" gradientUnits="userSpaceOnUse"><stop offset="0" stop-color="#fbbf24"/><stop offset="0.45" stop-color="#fbbf24"/><stop offset="1" stop-color="#f59e0b"/></linearGradient><linearGradient id="g" x1="36" y1="19.27" x2="38" y2="22.73" xlink:href="#f"/><linearGradient id="h" x1="26" y1="19.27" x2="28" y2="22.73" xlink:href="#f"/><linearGradient id="i" x1="18.25" y1="20.7" x2="19.75" y2="23.3" xlink:href="#f"/><linearGradient id="j" x1="44.25" y1="20.7" x2="45.75" y2="23.3" xlink:href="#f"/><linearGradient id="k" x1="39.5" y1="16.13" x2="40.5" y2="17.87" xlink:href="#f"/><linearGradient id="l" x1="23.5" y1="16.13" x2="24.5" y2="17.87" xlink:href="#f"/></defs><path d="M33.06,48c0-1.86.1-13.69.31-16.47a95.21,95.21,0,0,1,2.06-10.59A5.34,5.34,0,0,0,34.36,16s1.68,1.67-.76,9c-2.34,7-1.74,21.74-1.69,23Z" stroke="#40c057" stroke-linecap="round" stroke-miterlimit="10" stroke-width="0.25" fill="url(#a)"/><path d="M36.17,35c-2.09,4.83-2.37,10.81-2.4,13h2.11c-.16-2.46-.43-9.56,1.71-13.46,2.62-4.78,4.91-4,4.91-4S38.79,29,36.17,35Z" stroke="#40c057" stroke-linecap="round" stroke-miterlimit="10" stroke-width="0.25" fill="url(#b)"/><path d="M32.69,48h1.6c.19-2.64.89-11,2.46-15.37a21,21,0,0,0,.54-10.74A23.22,23.22,0,0,1,35.49,33C33.37,37.9,32.81,45.77,32.69,48Z" stroke="#40c057" stroke-linecap="round" stroke-miterlimit="10" stroke-width="0.25" fill="url(#c)"/><path d="M30.29,48h2.06c-.25-1.44-2-11.46-3.81-15.11-2-3.94-3.44-5.78-7-7.18,0,0,4.4,1.89,6.47,10.38A105.75,105.75,0,0,1,30.29,48Z" stroke="#40c057" stroke-linecap="round" stroke-miterlimit="10" stroke-width="0.25" fill="url(#d)"/><path d="M30.33,48c-.49-2.37-2.47-10.22-7.37-12.43A24.41,24.41,0,0,1,27,41.72,27.72,27.72,0,0,1,28.58,48Z" stroke="#40c057" stroke-linecap="round" stroke-miterlimit="10" stroke-width="0.25" fill="url(#e)"/><circle cx="32" cy="16" r="1.5" stroke="#f8af18" stroke-miterlimit="10" stroke-width="0.25" fill="url(#f)"/><circle cx="37" cy="21" r="2" stroke="#f8af18" stroke-miterlimit="10" stroke-width="0.25" fill="url(#g)"/><circle cx="27" cy="21" r="2" stroke="#f8af18" stroke-miterlimit="10" stroke-width="0.25" fill="url(#h)"/><circle cx="19" cy="22" r="1.5" stroke="#f8af18" stroke-miterlimit="10" stroke-width="0.25" fill="url(#i)"/><circle cx="45" cy="22" r="1.5" stroke="#f8af18" stroke-miterlimit="10" stroke-width="0.25" fill="url(#j)"/><circle cx="40" cy="17" r="1" stroke="#f8af18" stroke-miterlimit="10" stroke-width="0.25" fill="url(#k)"/><circle cx="24" cy="17" r="1" stroke="#f8af18" stroke-miterlimit="10" stroke-width="0.25" fill="url(#l)"/></svg>