<svg xmlns="http://www.w3.org/2000/svg" xmlns:xlink="http://www.w3.org/1999/xlink" viewBox="0 0 64 64"><defs><linearGradient id="a" x1="27.54" y1="36.27" x2="36.21" y2="51.28" gradientUnits="userSpaceOnUse"><stop offset="0" stop-color="#875b34"/><stop offset="0.45" stop-color="#875b34"/><stop offset="1" stop-color="#624226"/></linearGradient><linearGradient id="b" x1="35.27" y1="30.69" x2="40.58" y2="39.9" gradientUnits="userSpaceOnUse"><stop offset="0" stop-color="#51cf66"/><stop offset="0.45" stop-color="#51cf66"/><stop offset="1" stop-color="#37b24d"/></linearGradient><linearGradient id="c" x1="21.67" y1="28.33" x2="26.99" y2="37.54" xlink:href="#b"/><linearGradient id="d" x1="35.38" y1="16.89" x2="44.43" y2="32.58" xlink:href="#b"/><linearGradient id="e" x1="24.62" y1="19.13" x2="34.59" y2="36.4" xlink:href="#b"/><linearGradient id="f" x1="31.25" y1="11.7" x2="32.75" y2="14.3" gradientUnits="userSpaceOnUse"><stop offset="0" stop-color="#fbbf24"/><stop offset="0.45" stop-color="#fbbf24"/><stop offset="1" stop-color="#f59e0b"/></linearGradient><linearGradient id="g" x1="36" y1="16.27" x2="38" y2="19.73" xlink:href="#f"/><linearGradient id="h" x1="26" y1="16.27" x2="28" y2="19.73" xlink:href="#f"/><linearGradient id="i" x1="18.25" y1="17.7" x2="19.75" y2="20.3" xlink:href="#f"/><linearGradient id="j" x1="44.25" y1="17.7" x2="45.75" y2="20.3" xlink:href="#f"/><linearGradient id="k" x1="39.5" y1="13.13" x2="40.5" y2="14.87" xlink:href="#f"/><linearGradient id="l" x1="23.5" y1="13.13" x2="24.5" y2="14.87" xlink:href="#f"/></defs><path d="M34.32,51.45l-.5-15.88a1.5,1.5,0,0,0-1.5-1.46h-.64a1.5,1.5,0,0,0-1.5,1.46l-.5,15.88A1.5,1.5,0,0,0,31.18,53h1.64A1.5,1.5,0,0,0,34.32,51.45Z" stroke="#744e2d" stroke-linecap="round" stroke-linejoin="round" stroke-width="0.5" fill="url(#a)"/><ellipse cx="37.93" cy="35.3" rx="5.33" ry="5.31" stroke="#40c057" stroke-linecap="round" stroke-miterlimit="10" stroke-width="0.5" fill="url(#b)"/><ellipse cx="24.33" cy="32.93" rx="5.33" ry="5.31" stroke="#40c057" stroke-linecap="round" stroke-miterlimit="10" stroke-width="0.5" fill="url(#c)"/><path d="M40.89,19.36a7.56,7.56,0,0,0-1.36.13,3.55,3.55,0,1,0-5.15,4.11,7.11,7.11,0,1,0,6.51-4.24Z" stroke="#40c057" stroke-linecap="round" stroke-miterlimit="10" stroke-width="0.5" fill="url(#d)"/><path d="M37.33,24.08a7.11,7.11,0,0,0-13.28-3.5c-.12,0-.23,0-.35,0a5.3,5.3,0,0,0-1.48,10.39,3.49,3.49,0,0,0-.29,1.41,3.55,3.55,0,0,0,3.55,3.55A3.51,3.51,0,0,0,27.81,35,5.3,5.3,0,1,0,36,28.24,7,7,0,0,0,37.33,24.08Z" stroke="#40c057" stroke-linecap="round" stroke-miterlimit="10" stroke-width="0.5" fill="url(#e)"/><circle cx="32" cy="13" r="1.5" stroke="#f8af18" stroke-miterlimit="10" stroke-width="0.25" fill="url(#f)"/><circle cx="37" cy="18" r="2" stroke="#f8af18" stroke-miterlimit="10" stroke-width="0.25" fill="url(#g)"/><circle cx="27" cy="18" r="2" stroke="#f8af18" stroke-miterlimit="10" stroke-width="0.25" fill="url(#h)"/><circle cx="19" cy="19" r="1.5" stroke="#f8af18" stroke-miterlimit="10" stroke-width="0.25" fill="url(#i)"/><circle cx="45" cy="19" r="1.5" stroke="#f8af18" stroke-miterlimit="10" stroke-width="0.25" fill="url(#j)"/><circle cx="40" cy="14" r="1" stroke="#f8af18" stroke-miterlimit="10" stroke-width="0.25" fill="url(#k)"/><circle cx="24" cy="14" r="1" stroke="#f8af18" stroke-miterlimit="10" stroke-width="0.25" fill="url(#l)"/></svg>