<svg xmlns="http://www.w3.org/2000/svg" xmlns:xlink="http://www.w3.org/1999/xlink" viewBox="0 0 64 64"><defs><linearGradient id="a" x1="13.58" y1="15.57" x2="24.15" y2="33.87" gradientUnits="userSpaceOnUse"><stop offset="0" stop-color="#86c3db"/><stop offset="0.45" stop-color="#86c3db"/><stop offset="1" stop-color="#5eafcf"/></linearGradient><linearGradient id="b" x1="22.56" y1="21.96" x2="39.2" y2="50.8" gradientUnits="userSpaceOnUse"><stop offset="0" stop-color="#f3f7fe"/><stop offset="0.45" stop-color="#f3f7fe"/><stop offset="1" stop-color="#deeafb"/></linearGradient><linearGradient id="c" x1="25.31" y1="40.3" x2="26.69" y2="42.7" gradientUnits="userSpaceOnUse"><stop offset="0" stop-color="#4286ee"/><stop offset="0.45" stop-color="#4286ee"/><stop offset="1" stop-color="#0950bc"/></linearGradient><linearGradient id="d" x1="29.31" y1="51.3" x2="30.69" y2="53.7" xlink:href="#c"/><linearGradient id="e" x1="35.31" y1="47.3" x2="36.69" y2="49.7" xlink:href="#c"/><linearGradient id="f" x1="21.66" y1="46.68" x2="24.34" y2="51.32" xlink:href="#a"/><linearGradient id="g" x1="36.66" y1="41.68" x2="39.34" y2="46.32" xlink:href="#a"/></defs><path d="M29.33,26.68A10.61,10.61,0,0,1,18.65,16.14,10.5,10.5,0,0,1,19,13.5,10.54,10.54,0,1,0,30.5,26.61,11.48,11.48,0,0,1,29.33,26.68Z" stroke="#72b9d5" stroke-linecap="round" stroke-linejoin="round" stroke-width="0.5" fill="url(#a)"/><path d="M46.5,31.5l-.32,0a10.49,10.49,0,0,0-19.11-8,7,7,0,0,0-10.57,6,7.21,7.21,0,0,0,.1,1.14A7.5,7.5,0,0,0,18,45.5a4.19,4.19,0,0,0,.5,0v0h28a7,7,0,0,0,0-14Z" stroke="#e6effc" stroke-miterlimit="10" stroke-width="0.5" fill="url(#b)"/><line x1="26.08" y1="41.01" x2="25.92" y2="41.99" fill="none" stroke-linecap="round" stroke-miterlimit="10" stroke-width="2" stroke="url(#c)"/><line x1="30.08" y1="52.01" x2="29.92" y2="52.99" fill="none" stroke-linecap="round" stroke-miterlimit="10" stroke-width="2" stroke="url(#d)"/><line x1="36.08" y1="48.01" x2="35.92" y2="48.99" fill="none" stroke-linecap="round" stroke-miterlimit="10" stroke-width="2" stroke="url(#e)"/><path d="M25.45,49.82l-.73-.41a1.59,1.59,0,0,0,0-.81l.73-.42a.49.49,0,0,0,.18-.68.51.51,0,0,0-.69-.18l-.72.41a1.66,1.66,0,0,0-.71-.41V46.5a.51.51,0,0,0-1,0v.83a1.74,1.74,0,0,0-.71.4l-.72-.41a.51.51,0,0,0-.69.18.49.49,0,0,0,.18.68l.73.41a1.59,1.59,0,0,0,0,.81l-.73.42a.49.49,0,0,0-.18.68.5.5,0,0,0,.44.25.47.47,0,0,0,.25-.07l.72-.41a2,2,0,0,0,.33.25,1.5,1.5,0,0,0,.38.15v.83a.51.51,0,0,0,1,0v-.83a1.74,1.74,0,0,0,.71-.4l.72.41a.47.47,0,0,0,.25.07.5.5,0,0,0,.44-.25A.49.49,0,0,0,25.45,49.82Zm-2.83-.17a.75.75,0,0,1,.38-1.4.75.75,0,0,1,.38.1.75.75,0,0,1,.28,1A.77.77,0,0,1,22.62,49.65Z" fill="url(#f)"/><path d="M40.45,44.82l-.73-.41a1.59,1.59,0,0,0,0-.81l.73-.42a.49.49,0,0,0,.18-.68.51.51,0,0,0-.69-.18l-.72.41a1.66,1.66,0,0,0-.71-.41V41.5a.51.51,0,0,0-1,0v.83a1.74,1.74,0,0,0-.71.4l-.72-.41a.51.51,0,0,0-.69.18.49.49,0,0,0,.18.68l.73.41a1.59,1.59,0,0,0,0,.81l-.73.42a.49.49,0,0,0-.18.68.5.5,0,0,0,.44.25.47.47,0,0,0,.25-.07l.72-.41a2,2,0,0,0,.33.25,1.5,1.5,0,0,0,.38.15v.83a.51.51,0,0,0,1,0v-.83a1.74,1.74,0,0,0,.71-.4l.72.41a.47.47,0,0,0,.25.07.5.5,0,0,0,.44-.25A.49.49,0,0,0,40.45,44.82Zm-2.83-.17a.75.75,0,0,1,.38-1.4.75.75,0,0,1,.38.1.75.75,0,0,1,.28,1A.77.77,0,0,1,37.62,44.65Z" fill="url(#g)"/></svg>