<svg xmlns="http://www.w3.org/2000/svg" xmlns:xlink="http://www.w3.org/1999/xlink" viewBox="0 0 512 512"><defs><linearGradient id="a" x1="98.45" y1="29.68" x2="231.64" y2="260.37" gradientUnits="userSpaceOnUse"><stop offset="0" stop-color="#f3f7fe"/><stop offset="1" stop-color="#e6effc"/></linearGradient><symbol id="b" viewBox="0 0 348 220"><path d="M290,106c-.85,0-1.68.09-2.53.13A83.9,83.9,0,0,0,134.6,41.92,55.91,55.91,0,0,0,50,90a56.56,56.56,0,0,0,.8,9.08A60,60,0,0,0,62,218c1.35,0,2.67-.11,4-.2v.2H290a56,56,0,0,0,0-112Z" stroke="#e6effc" stroke-miterlimit="10" stroke-width="4" fill="url(#a)"/></symbol></defs><use width="348" height="220" transform="translate(82 146)" xlink:href="#b"/><path d="M372.5,271a4.59,4.59,0,0,0-3.18,1.26L350,290.66l-19.32-18.4a4.64,4.64,0,0,0-6.36,0,4.14,4.14,0,0,0,0,6.06l22.5,21.42a4.64,4.64,0,0,0,6.36,0l22.5-21.42a4.14,4.14,0,0,0,0-6.06A4.59,4.59,0,0,0,372.5,271Z" fill="#374151"/><path d="M372.5,244a4.59,4.59,0,0,0-3.18,1.26L350,263.66l-19.32-18.4a4.64,4.64,0,0,0-6.36,0,4.14,4.14,0,0,0,0,6.06l22.5,21.42a4.64,4.64,0,0,0,6.36,0l22.5-21.42a4.14,4.14,0,0,0,0-6.06A4.59,4.59,0,0,0,372.5,244Z" fill="#374151"/><path d="M372.5,217a4.59,4.59,0,0,0-3.18,1.26L350,236.66l-19.32-18.4a4.64,4.64,0,0,0-6.36,0,4.14,4.14,0,0,0,0,6.06l22.5,21.42a4.64,4.64,0,0,0,6.36,0l22.5-21.42a4.14,4.14,0,0,0,0-6.06A4.59,4.59,0,0,0,372.5,217Z" fill="#374151"/></svg>