<svg xmlns="http://www.w3.org/2000/svg" xmlns:xlink="http://www.w3.org/1999/xlink" viewBox="0 0 512 512"><defs><linearGradient id="a" x1="90" y1="185.61" x2="102" y2="206.39" gradientUnits="userSpaceOnUse"><stop offset="0" stop-color="#fde68a"/><stop offset="0.45" stop-color="#fde68a"/><stop offset="1" stop-color="#fde171"/></linearGradient><linearGradient id="b" x1="174" y1="185.61" x2="186" y2="206.39" xlink:href="#a"/><linearGradient id="c" x1="258" y1="185.61" x2="270" y2="206.39" xlink:href="#a"/><linearGradient id="d" x1="216" y1="245.61" x2="228" y2="266.39" xlink:href="#a"/><linearGradient id="e" x1="300" y1="245.61" x2="312" y2="266.39" xlink:href="#a"/><linearGradient id="f" x1="384" y1="245.61" x2="396" y2="266.39" xlink:href="#a"/><linearGradient id="g" x1="166" y1="305.61" x2="178" y2="326.39" xlink:href="#a"/><linearGradient id="h" x1="250" y1="305.61" x2="262" y2="326.39" xlink:href="#a"/><linearGradient id="i" x1="334" y1="305.61" x2="346" y2="326.39" xlink:href="#a"/><symbol id="j" viewBox="0 0 340 232"><path d="M263.16,20.29A40,40,0,1,1,292,88H8" fill="none" stroke="#d6dfe9" stroke-linecap="round" stroke-miterlimit="10" stroke-width="16"/><path d="M147.16,211.71A40,40,0,1,0,176,144H8" fill="none" stroke="#d6dfe9" stroke-linecap="round" stroke-miterlimit="10" stroke-width="16"/></symbol></defs><circle cx="96" cy="196" r="12" fill="url(#a)"/><circle cx="180" cy="196" r="12" fill="url(#b)"/><circle cx="264" cy="196" r="12" fill="url(#c)"/><circle cx="222" cy="256" r="12" fill="url(#d)"/><circle cx="306" cy="256" r="12" fill="url(#e)"/><circle cx="390" cy="256" r="12" fill="url(#f)"/><circle cx="172" cy="316" r="12" fill="url(#g)"/><circle cx="256" cy="316" r="12" fill="url(#h)"/><circle cx="340" cy="316" r="12" fill="url(#i)"/><use width="340" height="232" transform="translate(87 140)" xlink:href="#j"/></svg>