<svg xmlns="http://www.w3.org/2000/svg" xmlns:xlink="http://www.w3.org/1999/xlink" viewBox="0 0 512 512"><defs><linearGradient id="a" x1="98.45" y1="29.68" x2="231.64" y2="260.37" gradientUnits="userSpaceOnUse"><stop offset="0" stop-color="#f3f7fe"/><stop offset="1" stop-color="#e6effc"/></linearGradient><symbol id="b" viewBox="0 0 348 220"><path d="M290,106c-.85,0-1.68.09-2.53.13A83.9,83.9,0,0,0,134.6,41.92,55.91,55.91,0,0,0,50,90a56.56,56.56,0,0,0,.8,9.08A60,60,0,0,0,62,218c1.35,0,2.67-.11,4-.2v.2H290a56,56,0,0,0,0-112Z" stroke="#e6effc" stroke-miterlimit="10" stroke-width="4" fill="url(#a)"/></symbol><symbol id="c" viewBox="0 0 128 28"><path d="M8,28a8,8,0,0,1-8-8V8A8,8,0,0,1,16,8V20A8,8,0,0,1,8,28Z" fill="#0a5ad4"/><path d="M64,28a8,8,0,0,1-8-8V8A8,8,0,0,1,72,8V20A8,8,0,0,1,64,28Z" fill="#0a5ad4"/><path d="M120,28a8,8,0,0,1-8-8V8a8,8,0,0,1,16,0V20A8,8,0,0,1,120,28Z" fill="#0a5ad4"/></symbol></defs><use width="348" height="220" transform="translate(82 146)" xlink:href="#b"/><use width="128" height="28" transform="translate(192 348)" xlink:href="#c"/></svg>