<svg xmlns="http://www.w3.org/2000/svg" xmlns:xlink="http://www.w3.org/1999/xlink" viewBox="0 0 512 512"><defs><linearGradient id="a" x1="54.33" y1="29.03" x2="187.18" y2="259.13" gradientUnits="userSpaceOnUse"><stop offset="0" stop-color="#86c3db"/><stop offset="1" stop-color="#72b9d5"/></linearGradient><clipPath id="b"><rect width="512" height="306" fill="none"/></clipPath><symbol id="c" viewBox="0 0 270 270"><path d="M252.25,168.63C178.13,168.63,118,109.35,118,36.21A130.48,130.48,0,0,1,122.47,3C55.29,10.25,3,66.37,3,134.58,3,207.71,63.09,267,137.21,267,199.69,267,252,224.82,267,167.79A135.56,135.56,0,0,1,252.25,168.63Z" stroke="#72b9d5" stroke-linecap="round" stroke-linejoin="round" stroke-width="6" fill="url(#a)"/></symbol><symbol id="d" viewBox="0 0 256 64"><line x1="8" y1="56" x2="248" y2="56" fill="none" stroke="#d6dfe9" stroke-linecap="round" stroke-miterlimit="10" stroke-width="16"/><line x1="8" y1="8" x2="248" y2="8" fill="none" stroke="#d6dfe9" stroke-linecap="round" stroke-miterlimit="10" stroke-width="16"/></symbol></defs><g clip-path="url(#b)"><use width="270" height="270" transform="translate(121 121)" xlink:href="#c"/></g><use width="256" height="64" transform="translate(128 340)" xlink:href="#d"/></svg>