<svg xmlns="http://www.w3.org/2000/svg" xmlns:xlink="http://www.w3.org/1999/xlink" viewBox="0 0 512 512"><defs><linearGradient id="a" x1="70.32" y1="20.85" x2="163.35" y2="181.99" gradientUnits="userSpaceOnUse"><stop offset="0" stop-color="#f3f7fe"/><stop offset="1" stop-color="#e6effc"/></linearGradient><linearGradient id="b" x1="113.79" y1="90.22" x2="178.21" y2="201.78" gradientUnits="userSpaceOnUse"><stop offset="0" stop-color="#fbbf24"/><stop offset="1" stop-color="#f8af18"/></linearGradient><symbol id="d" viewBox="0 0 292 292"><circle cx="146" cy="146" r="64.4" stroke="#f8af18" stroke-miterlimit="10" stroke-width="4" fill="url(#b)"/><path d="M146,46.07V8m0,276V245.93M216.66,75.34l26.92-26.92M48.42,243.58l26.92-26.92m0-141.32L48.42,48.42M243.58,243.58l-26.92-26.92M46.07,146H8m276,0H245.93" fill="none" stroke="#fbbf24" stroke-linecap="round" stroke-miterlimit="10" stroke-width="16"/></symbol><symbol id="e" viewBox="0 0 246 154"><path d="M204.6,74.22c-.6,0-1.18.06-1.77.09a57.58,57.58,0,0,0,1.77-14C204.6,28.12,178.15,2,145.51,2A59.17,59.17,0,0,0,95.28,29.72a39.52,39.52,0,0,0-20.12-5.5c-21.75,0-39.39,17.41-39.39,38.89a38.65,38.65,0,0,0,.56,6.31A41.8,41.8,0,0,0,2,110.33C2,133.35,20.9,152,44.21,152c.95,0,1.88-.08,2.81-.14V152H204.6c21.76,0,39.4-17.41,39.4-38.89S226.36,74.22,204.6,74.22Z" stroke="#e6effc" stroke-miterlimit="10" stroke-width="4" fill="url(#a)"/></symbol><symbol id="c" viewBox="0 0 379.59 291.6"><use width="292" height="292" xlink:href="#d"/><use width="246" height="154" transform="translate(133.59 120.03)" xlink:href="#e"/></symbol><symbol id="f" viewBox="0 0 168 60"><line x1="9" y1="51" x2="34.5" y2="51" fill="none" stroke="#d6dfe9" stroke-linecap="round" stroke-miterlimit="10" stroke-width="18"/><line x1="67.5" y1="51" x2="117" y2="51" fill="none" stroke="#d6dfe9" stroke-linecap="round" stroke-miterlimit="10" stroke-width="18" stroke-dasharray="33 33"/><line x1="133.5" y1="51" x2="159" y2="51" fill="none" stroke="#d6dfe9" stroke-linecap="round" stroke-miterlimit="10" stroke-width="18"/><line x1="9" y1="9" x2="34.5" y2="9" fill="none" stroke="#d6dfe9" stroke-linecap="round" stroke-miterlimit="10" stroke-width="18"/><line x1="67.5" y1="9" x2="117" y2="9" fill="none" stroke="#d6dfe9" stroke-linecap="round" stroke-miterlimit="10" stroke-width="18" stroke-dasharray="33 33"/><line x1="133.5" y1="9" x2="159" y2="9" fill="none" stroke="#d6dfe9" stroke-linecap="round" stroke-miterlimit="10" stroke-width="18"/></symbol></defs><use width="379.59" height="291.6" transform="translate(50.41 90.97)" xlink:href="#c"/><use width="168" height="60" transform="translate(222 385)" xlink:href="#f"/></svg>