<svg xmlns="http://www.w3.org/2000/svg" viewBox="0 0 512 512">
    <defs>
        <linearGradient id="a" x1="12993.57" y1="143.9" x2="13126.82" y2="374.7" gradientTransform="matrix(-1, 0, 0, 1, 13312.32, 0)" gradientUnits="userSpaceOnUse">
            <stop offset="0" stop-color="#86c3db"/>
            <stop offset="0.45" stop-color="#86c3db"/>
            <stop offset="1" stop-color="#5eafcf"/>
        </linearGradient>
    </defs>
    <path d="M384,256A128,128,0,0,0,256,128c-169.79,6.74-169.74,249.28,0,256A128,128,0,0,0,384,256Z" fill="none" stroke="#e5e7eb" stroke-linecap="round" stroke-linejoin="round" stroke-width="17.45" stroke-dasharray="16.87 56.24"/>
    <path d="M121.22,214.83c19.32-68.31,87-108.48,155.57-95.15A135.6,135.6,0,0,0,263,151.59c-20.71,73.24,22,151,95.42,173.77A145.41,145.41,0,0,0,373.26,329c-31,52.52-94.75,78.72-156.62,59.56C143.24,365.88,100.52,288.08,121.22,214.83Z" stroke="#72b9d5" stroke-linecap="round" stroke-linejoin="round" stroke-width="6" fill="url(#a)"/>
</svg>
