<svg xmlns="http://www.w3.org/2000/svg" xmlns:xlink="http://www.w3.org/1999/xlink" viewBox="0 0 512 512"><defs><linearGradient id="a" x1="98.45" y1="29.68" x2="231.64" y2="260.37" gradientUnits="userSpaceOnUse"><stop offset="0" stop-color="#f3f7fe"/><stop offset="1" stop-color="#e6effc"/></linearGradient><linearGradient id="b" x1="54.24" y1="11.12" x2="134.86" y2="150.77" gradientUnits="userSpaceOnUse"><stop offset="0" stop-color="#b0bccd"/><stop offset="1" stop-color="#94a3b8"/></linearGradient><linearGradient id="c" x1="74" y1="165.21" x2="98" y2="206.79" gradientUnits="userSpaceOnUse"><stop offset="0" stop-color="#b8bdc6"/><stop offset="1" stop-color="#afb4bc"/></linearGradient><linearGradient id="d" x1="20" y1="90.82" x2="56" y2="153.18" xlink:href="#c"/><linearGradient id="e" x1="94" y1="8.42" x2="142" y2="91.58" xlink:href="#c"/><symbol id="g" viewBox="0 0 203.26 129.12"><path d="M2,94.68a32.44,32.44,0,0,0,32.44,32.44H164.19V127c.77,0,1.53.12,2.31.12A34.75,34.75,0,0,0,173,58.23a32.38,32.38,0,0,0-48.54-33.11A48.58,48.58,0,0,0,35.9,62.31c-.49,0-1-.07-1.46-.07A32.44,32.44,0,0,0,2,94.68Z" stroke="#94a3b8" stroke-miterlimit="10" stroke-width="4" fill="url(#b)"/></symbol><symbol id="h" viewBox="0 0 348 220"><path d="M290,106c-.85,0-1.68.09-2.53.13A83.9,83.9,0,0,0,134.6,41.92,55.91,55.91,0,0,0,50,90a56.56,56.56,0,0,0,.8,9.08A60,60,0,0,0,62,218c1.35,0,2.67-.11,4-.2v.2H290a56,56,0,0,0,0-112Z" stroke="#e6effc" stroke-miterlimit="10" stroke-width="4" fill="url(#a)"/></symbol><symbol id="f" viewBox="0 0 398.5 220"><use width="203.26" height="129.12" transform="translate(195.5 24.5)" xlink:href="#g"/><use width="348" height="220" xlink:href="#h"/></symbol><symbol id="i" viewBox="0 0 168 212"><circle cx="86" cy="186" r="24" stroke="#afb4bc" stroke-miterlimit="10" stroke-width="4" fill="url(#c)"/><circle cx="38" cy="122" r="36" stroke="#afb4bc" stroke-miterlimit="10" stroke-width="4" fill="url(#d)"/><circle cx="118" cy="50" r="48" stroke="#afb4bc" stroke-miterlimit="10" stroke-width="4" fill="url(#e)"/></symbol></defs><use width="398.5" height="220" transform="translate(69.84 146)" xlink:href="#f"/><use width="168" height="212" transform="translate(172 232)" xlink:href="#i"/></svg>