<svg xmlns="http://www.w3.org/2000/svg" xmlns:xlink="http://www.w3.org/1999/xlink" viewBox="0 0 512 512"><defs><linearGradient id="a" x1="98.45" y1="29.68" x2="231.64" y2="260.37" gradientUnits="userSpaceOnUse"><stop offset="0" stop-color="#f3f7fe"/><stop offset="1" stop-color="#e6effc"/></linearGradient><linearGradient id="b" x1="74" y1="165.21" x2="98" y2="206.79" gradientUnits="userSpaceOnUse"><stop offset="0" stop-color="#b8bdc6"/><stop offset="1" stop-color="#afb4bc"/></linearGradient><linearGradient id="c" x1="20" y1="90.82" x2="56" y2="153.18" xlink:href="#b"/><linearGradient id="d" x1="94" y1="8.42" x2="142" y2="91.58" xlink:href="#b"/><linearGradient id="e" x1="76" y1="61.35" x2="116" y2="130.65" gradientUnits="userSpaceOnUse"><stop offset="0" stop-color="#fbbf24"/><stop offset="1" stop-color="#f8af18"/></linearGradient><symbol id="g" viewBox="0 0 192 192"><circle cx="96" cy="96" r="40" stroke="#f8af18" stroke-miterlimit="10" stroke-width="4" fill="url(#e)"/><path d="M96,29.38V4m0,184V162.62M143.11,48.89,161.05,31M31,161.05l17.94-17.94m0-94.22L31,31m130.1,130.1-17.94-17.94M4,96H29.38M188,96H162.62" fill="none" stroke="#fbbf24" stroke-linecap="round" stroke-miterlimit="10" stroke-width="8"/></symbol><symbol id="h" viewBox="0 0 348 220"><path d="M290,106c-.85,0-1.68.09-2.53.13A83.9,83.9,0,0,0,134.6,41.92,55.91,55.91,0,0,0,50,90a56.56,56.56,0,0,0,.8,9.08A60,60,0,0,0,62,218c1.35,0,2.67-.11,4-.2v.2H290a56,56,0,0,0,0-112Z" stroke="#e6effc" stroke-miterlimit="10" stroke-width="4" fill="url(#a)"/></symbol><symbol id="f" viewBox="0 0 360 255"><use width="192" height="192" xlink:href="#g"/><use width="348" height="220" transform="translate(12 35)" xlink:href="#h"/></symbol><symbol id="i" viewBox="0 0 168 212"><circle cx="86" cy="186" r="24" stroke="#afb4bc" stroke-miterlimit="10" stroke-width="4" fill="url(#b)"/><circle cx="38" cy="122" r="36" stroke="#afb4bc" stroke-miterlimit="10" stroke-width="4" fill="url(#c)"/><circle cx="118" cy="50" r="48" stroke="#afb4bc" stroke-miterlimit="10" stroke-width="4" fill="url(#d)"/></symbol></defs><use width="360" height="255" transform="translate(70 111)" xlink:href="#f"/><use width="168" height="212" transform="translate(172 232)" xlink:href="#i"/></svg>