<svg xmlns="http://www.w3.org/2000/svg" xmlns:xlink="http://www.w3.org/1999/xlink" viewBox="0 0 512 512"><defs><linearGradient id="a" x1="112" y1="3.61" x2="124" y2="24.39" gradientUnits="userSpaceOnUse"><stop offset="0" stop-color="#fbbf24"/><stop offset="1" stop-color="#f8af18"/></linearGradient><linearGradient id="b" x1="150" y1="40.14" x2="166" y2="67.86" xlink:href="#a"/><linearGradient id="c" x1="70" y1="40.14" x2="86" y2="67.86" xlink:href="#a"/><linearGradient id="d" x1="8" y1="51.61" x2="20" y2="72.39" xlink:href="#a"/><linearGradient id="e" x1="216" y1="51.61" x2="228" y2="72.39" xlink:href="#a"/><linearGradient id="f" x1="178" y1="15.07" x2="186" y2="28.93" xlink:href="#a"/><linearGradient id="g" x1="50" y1="15.07" x2="58" y2="28.93" xlink:href="#a"/><linearGradient id="h" x1="210.86" y1="282.16" x2="280.18" y2="402.21" gradientUnits="userSpaceOnUse"><stop offset="0" stop-color="#875b34"/><stop offset="1" stop-color="#744e2d"/></linearGradient><linearGradient id="i" x1="272.65" y1="237.52" x2="315.2" y2="311.2" gradientUnits="userSpaceOnUse"><stop offset="0" stop-color="#51cf66"/><stop offset="1" stop-color="#40c057"/></linearGradient><linearGradient id="j" x1="163.91" y1="218.63" x2="206.46" y2="292.32" xlink:href="#i"/><linearGradient id="k" x1="273.52" y1="127.15" x2="345.99" y2="252.67" xlink:href="#i"/><linearGradient id="l" x1="187.5" y1="145.04" x2="267.26" y2="283.18" xlink:href="#i"/><symbol id="m" viewBox="0 0 236 76"><circle cx="118" cy="14" r="12" stroke="#f8af18" stroke-miterlimit="10" stroke-width="4" fill="url(#a)"/><circle cx="158" cy="54" r="16" stroke="#f8af18" stroke-miterlimit="10" stroke-width="4" fill="url(#b)"/><circle cx="78" cy="54" r="16" stroke="#f8af18" stroke-miterlimit="10" stroke-width="4" fill="url(#c)"/><circle cx="14" cy="62" r="12" stroke="#f8af18" stroke-miterlimit="10" stroke-width="4" fill="url(#d)"/><circle cx="222" cy="62" r="12" stroke="#f8af18" stroke-miterlimit="10" stroke-width="4" fill="url(#e)"/><circle cx="182" cy="22" r="8" stroke="#f8af18" stroke-miterlimit="10" stroke-width="4" fill="url(#f)"/><circle cx="54" cy="22" r="8" stroke="#f8af18" stroke-miterlimit="10" stroke-width="4" fill="url(#g)"/></symbol></defs><path d="M265.09,403.6l-4-127a12,12,0,0,0-12-11.65H244a12,12,0,0,0-12,11.65l-4,127A12,12,0,0,0,240,416h13.11A12,12,0,0,0,265.09,403.6Z" stroke="#744e2d" stroke-linecap="round" stroke-linejoin="round" stroke-width="4" fill="url(#h)"/><ellipse cx="293.93" cy="274.36" rx="42.67" ry="42.49" stroke="#40c057" stroke-linecap="round" stroke-miterlimit="10" stroke-width="4" fill="url(#i)"/><ellipse cx="185.19" cy="255.48" rx="42.67" ry="42.49" stroke="#40c057" stroke-linecap="round" stroke-miterlimit="10" stroke-width="4" fill="url(#j)"/><path d="M317.63,146.89A57.45,57.45,0,0,0,306.74,148a28.35,28.35,0,1,0-41.18,32.82,56.17,56.17,0,0,0-4.82,22.77,56.89,56.89,0,1,0,56.89-56.65Z" stroke="#40c057" stroke-linecap="round" stroke-miterlimit="10" stroke-width="4" fill="url(#k)"/><path d="M289.19,184.66A56.91,56.91,0,0,0,182.91,156.6c-.93-.06-1.82-.27-2.76-.27a42.36,42.36,0,0,0-11.84,83.12,28.06,28.06,0,0,0-2.38,11.3A28.33,28.33,0,0,0,213,272a42.56,42.56,0,0,0,76.21-26,42.06,42.06,0,0,0-10.91-28.12A56.13,56.13,0,0,0,289.19,184.66Z" stroke="#40c057" stroke-linecap="round" stroke-miterlimit="10" stroke-width="4" fill="url(#l)"/><use width="236" height="76" transform="translate(138 88)" xlink:href="#m"/></svg>