<svg xmlns="http://www.w3.org/2000/svg" xmlns:xlink="http://www.w3.org/1999/xlink" viewBox="0 0 512 512"><defs><linearGradient id="a" x1="112" y1="3.61" x2="124" y2="24.39" gradientUnits="userSpaceOnUse"><stop offset="0" stop-color="#fbbf24"/><stop offset="1" stop-color="#f8af18"/></linearGradient><linearGradient id="b" x1="150" y1="40.14" x2="166" y2="67.86" xlink:href="#a"/><linearGradient id="c" x1="70" y1="40.14" x2="86" y2="67.86" xlink:href="#a"/><linearGradient id="d" x1="8" y1="51.61" x2="20" y2="72.39" xlink:href="#a"/><linearGradient id="e" x1="216" y1="51.61" x2="228" y2="72.39" xlink:href="#a"/><linearGradient id="f" x1="178" y1="15.07" x2="186" y2="28.93" xlink:href="#a"/><linearGradient id="g" x1="50" y1="15.07" x2="58" y2="28.93" xlink:href="#a"/><linearGradient id="h" x1="205.35" y1="184.27" x2="306.65" y2="359.73" gradientUnits="userSpaceOnUse"><stop offset="0" stop-color="#f783ac"/><stop offset="1" stop-color="#f06595"/></linearGradient><linearGradient id="i" x1="231.54" y1="229.63" x2="280.46" y2="314.37" xlink:href="#a"/><symbol id="j" viewBox="0 0 236 76"><circle cx="118" cy="14" r="12" stroke="#f8af18" stroke-miterlimit="10" stroke-width="4" fill="url(#a)"/><circle cx="158" cy="54" r="16" stroke="#f8af18" stroke-miterlimit="10" stroke-width="4" fill="url(#b)"/><circle cx="78" cy="54" r="16" stroke="#f8af18" stroke-miterlimit="10" stroke-width="4" fill="url(#c)"/><circle cx="14" cy="62" r="12" stroke="#f8af18" stroke-miterlimit="10" stroke-width="4" fill="url(#d)"/><circle cx="222" cy="62" r="12" stroke="#f8af18" stroke-miterlimit="10" stroke-width="4" fill="url(#e)"/><circle cx="182" cy="22" r="8" stroke="#f8af18" stroke-miterlimit="10" stroke-width="4" fill="url(#f)"/><circle cx="54" cy="22" r="8" stroke="#f8af18" stroke-miterlimit="10" stroke-width="4" fill="url(#g)"/></symbol></defs><path d="M327.5,258.55a74.13,74.13,0,0,0-17.72-5.79,74.32,74.32,0,0,0,10-15.73c13.48-28.5,7.12-59.79-14.21-69.88s-49.56,4.84-63,33.34a74.35,74.35,0,0,0-5.79,17.73,74.5,74.5,0,0,0-15.72-10c-28.51-13.48-59.8-7.12-69.89,14.21s4.84,49.56,33.35,63a74.62,74.62,0,0,0,17.72,5.8,74.25,74.25,0,0,0-10,15.72c-13.48,28.5-7.12,59.79,14.21,69.88s49.56-4.84,63-33.34a74.21,74.21,0,0,0,5.79-17.73,74.94,74.94,0,0,0,15.72,10c28.51,13.47,59.8,7.11,69.89-14.22S356,272,327.5,258.55Zm-72.27,15.08c-.58-.28-1.2-.47-1.8-.71.31-.57.67-1.1.94-1.69s.47-1.2.71-1.8c.57.31,1.1.67,1.69.95s1.2.46,1.8.7c-.31.57-.67,1.1-.94,1.68s-.47,1.21-.71,1.81C256.35,274.26,255.82,273.9,255.23,273.63Z" stroke="#f06595" stroke-miterlimit="10" stroke-width="4" fill="url(#h)"/><path d="M306.26,276.2c-.12-5.9-31.95-7.18-31.95-7.18s28.92-4.06,26.59-10.59c-.32-.87-1.42-1.3-3.1-1.39,1.24-1.13,1.82-2.16,1.51-3C297,247.47,272,262.69,272,262.69s23.8-21.18,20.15-25.83-22.4,16.94-22.4,16.94,15.48-26.42,8.81-29.58-17.28,25.58-17.28,25.58,4.78-28.19-1.12-28.07-7.18,32-7.18,32-4.06-28.92-10.58-26.58c-.88.31-1.31,1.41-1.4,3.09-1.13-1.24-2.16-1.82-3-1.51C231.47,231,246.69,256,246.69,256s-21.18-23.79-25.83-20.14,16.94,22.41,16.94,22.41-26.42-15.49-29.58-8.82,25.58,17.28,25.58,17.28-28.19-4.78-28.06,1.12S237.69,275,237.69,275s-28.92,4.06-26.58,10.58c.31.88,1.41,1.31,3.09,1.4-1.24,1.13-1.82,2.16-1.51,3,2.33,6.53,27.27-8.69,27.27-8.69s-23.8,21.18-20.15,25.83,22.41-16.94,22.41-16.94-15.49,26.42-8.82,29.58,17.28-25.58,17.28-25.58-4.78,28.2,1.12,28.07,7.18-32,7.18-32,4.06,28.92,10.59,26.59c.87-.32,1.3-1.42,1.39-3.1,1.13,1.24,2.16,1.83,3,1.51,6.53-2.33-8.69-27.26-8.69-27.26s21.18,23.79,25.83,20.14-16.94-22.41-16.94-22.41,26.42,15.5,29.58,8.82-25.58-17.28-25.58-17.28S306.39,282.1,306.26,276.2Z" fill="url(#i)"/><use width="236" height="76" transform="translate(138 130)" xlink:href="#j"/></svg>