<svg xmlns="http://www.w3.org/2000/svg" xmlns:xlink="http://www.w3.org/1999/xlink" viewBox="0 0 512 512">
    <defs>
        <linearGradient id="a" x1="111" y1="2.61" x2="123" y2="23.39" gradientUnits="userSpaceOnUse">
            <stop offset="0" stop-color="#fbbf24"/>
            <stop offset="0.45" stop-color="#fbbf24"/>
            <stop offset="1" stop-color="#f59e0b"/>
        </linearGradient>
        <linearGradient id="b" x1="149" y1="39.14" x2="165" y2="66.86" xlink:href="#a"/>
        <linearGradient id="c" x1="69" y1="39.14" x2="85" y2="66.86" xlink:href="#a"/>
        <linearGradient id="d" x1="7" y1="50.61" x2="19" y2="71.39" xlink:href="#a"/>
        <linearGradient id="e" x1="215" y1="50.61" x2="227" y2="71.39" xlink:href="#a"/>
        <linearGradient id="f" x1="177" y1="14.07" x2="185" y2="27.93" xlink:href="#a"/>
        <linearGradient id="g" x1="49" y1="14.07" x2="57" y2="27.93" xlink:href="#a"/>
        <linearGradient id="h" x1="205.35" y1="184.27" x2="306.65" y2="359.73" gradientUnits="userSpaceOnUse">
            <stop offset="0" stop-color="#f783ac"/>
            <stop offset="0.45" stop-color="#f783ac"/>
            <stop offset="1" stop-color="#e64980"/>
        </linearGradient>
        <linearGradient id="i" x1="205.74" y1="272" x2="306.27" y2="272" xlink:href="#a"/>
        <symbol id="j" viewBox="0 0 234 74">
            <circle cx="117" cy="13" r="12" stroke="#f8af18" stroke-miterlimit="10" stroke-width="2" fill="url(#a)"/>
            <circle cx="157" cy="53" r="16" stroke="#f8af18" stroke-miterlimit="10" stroke-width="2" fill="url(#b)"/>
            <circle cx="77" cy="53" r="16" stroke="#f8af18" stroke-miterlimit="10" stroke-width="2" fill="url(#c)"/>
            <circle cx="13" cy="61" r="12" stroke="#f8af18" stroke-miterlimit="10" stroke-width="2" fill="url(#d)"/>
            <circle cx="221" cy="61" r="12" stroke="#f8af18" stroke-miterlimit="10" stroke-width="2" fill="url(#e)"/>
            <circle cx="181" cy="21" r="8" stroke="#f8af18" stroke-miterlimit="10" stroke-width="2" fill="url(#f)"/>
            <circle cx="53" cy="21" r="8" stroke="#f8af18" stroke-miterlimit="10" stroke-width="2" fill="url(#g)"/>
        </symbol>
    </defs>
    <path d="M327.5,258.55a74.13,74.13,0,0,0-17.72-5.79,74.32,74.32,0,0,0,10-15.73c13.48-28.5,7.12-59.79-14.21-69.88s-49.56,4.84-63,33.34a74.35,74.35,0,0,0-5.79,17.73,74.5,74.5,0,0,0-15.72-10c-28.51-13.48-59.8-7.12-69.89,14.21s4.84,49.56,33.35,63a74.62,74.62,0,0,0,17.72,5.8,74.25,74.25,0,0,0-10,15.72c-13.48,28.5-7.12,59.79,14.21,69.88s49.56-4.84,63-33.34a74.21,74.21,0,0,0,5.79-17.73,74.94,74.94,0,0,0,15.72,10c28.51,13.47,59.8,7.11,69.89-14.22S356,272,327.5,258.55Zm-72.27,15.08c-.58-.28-1.2-.47-1.8-.71.31-.57.67-1.1.94-1.69s.47-1.2.71-1.8c.57.31,1.1.67,1.69.95s1.2.46,1.8.7c-.31.57-.67,1.1-.94,1.68s-.47,1.21-.71,1.81C256.35,274.26,255.82,273.9,255.23,273.63Z" stroke="#f06595" stroke-miterlimit="10" stroke-width="2" fill="url(#h)"/>
    <path d="M306.26,276.2c-.12-5.9-31.95-7.18-31.95-7.18s28.92-4.06,26.59-10.59c-.32-.87-1.42-1.3-3.1-1.39,1.24-1.13,1.82-2.16,1.51-3C297,247.47,272,262.69,272,262.69s23.8-21.18,20.15-25.83-22.4,16.94-22.4,16.94,15.48-26.42,8.81-29.58-17.28,25.58-17.28,25.58,4.78-28.19-1.12-28.07-7.18,32-7.18,32-4.06-28.92-10.58-26.58c-.88.31-1.31,1.41-1.4,3.09-1.13-1.24-2.16-1.82-3-1.51C231.47,231,246.69,256,246.69,256s-21.18-23.79-25.83-20.14,16.94,22.41,16.94,22.41-26.42-15.49-29.58-8.82,25.58,17.28,25.58,17.28-28.19-4.78-28.06,1.12S237.69,275,237.69,275s-28.92,4.06-26.58,10.58c.31.88,1.41,1.31,3.09,1.4-1.24,1.13-1.82,2.16-1.51,3,2.33,6.53,27.27-8.69,27.27-8.69s-23.8,21.18-20.15,25.83,22.41-16.94,22.41-16.94-15.49,26.42-8.82,29.58,17.28-25.58,17.28-25.58-4.78,28.2,1.12,28.07,7.18-32,7.18-32,4.06,28.92,10.59,26.59c.87-.32,1.3-1.42,1.39-3.1,1.13,1.24,2.16,1.83,3,1.51,6.53-2.33-8.69-27.26-8.69-27.26s21.18,23.79,25.83,20.14-16.94-22.41-16.94-22.41,26.42,15.5,29.58,8.82-25.58-17.28-25.58-17.28S306.39,282.1,306.26,276.2Z" stroke="#f8af18" stroke-miterlimit="10" stroke-width="2" fill="url(#i)"/>
    <use width="234" height="74" transform="translate(139 131)" xlink:href="#j"/>
</svg>
