<svg xmlns="http://www.w3.org/2000/svg" viewBox="0 0 512 512">
    <path d="M293.51,298a7.67,7.67,0,0,0-5.31,2.09L256,330.76,223.8,300.09a7.76,7.76,0,0,0-10.6,0,6.9,6.9,0,0,0,0,10.1l37.5,35.72a7.76,7.76,0,0,0,10.6,0l37.5-35.72a6.9,6.9,0,0,0,0-10.1A7.66,7.66,0,0,0,293.51,298Z" fill="#2a81bf"/>
    <path d="M293.51,253a7.67,7.67,0,0,0-5.31,2.09L256,285.76,223.8,255.09a7.76,7.76,0,0,0-10.6,0,6.9,6.9,0,0,0,0,10.1l37.5,35.72a7.76,7.76,0,0,0,10.6,0l37.5-35.72a6.9,6.9,0,0,0,0-10.1A7.66,7.66,0,0,0,293.51,253Z" fill="#2a81bf"/>
    <path d="M293.51,208a7.67,7.67,0,0,0-5.31,2.09L256,240.76,223.8,210.09a7.76,7.76,0,0,0-10.6,0,6.9,6.9,0,0,0,0,10.1l37.5,35.72a7.76,7.76,0,0,0,10.6,0l37.5-35.72a6.9,6.9,0,0,0,0-10.1A7.66,7.66,0,0,0,293.51,208Z" fill="#2a81bf"/>
    <path d="M293.51,163a7.67,7.67,0,0,0-5.31,2.09L256,195.76,223.8,165.09a7.76,7.76,0,0,0-10.6,0,6.9,6.9,0,0,0,0,10.1l37.5,35.72a7.76,7.76,0,0,0,10.6,0l37.5-35.72a6.9,6.9,0,0,0,0-10.1A7.66,7.66,0,0,0,293.51,163Z" fill="#2a81bf"/>
</svg>
