<svg xmlns="http://www.w3.org/2000/svg" xmlns:xlink="http://www.w3.org/1999/xlink" viewBox="0 0 512 512"><defs><linearGradient id="a" x1="112" y1="3.61" x2="124" y2="24.39" gradientUnits="userSpaceOnUse"><stop offset="0" stop-color="#fbbf24"/><stop offset="1" stop-color="#f8af18"/></linearGradient><linearGradient id="b" x1="150" y1="40.14" x2="166" y2="67.86" xlink:href="#a"/><linearGradient id="c" x1="70" y1="40.14" x2="86" y2="67.86" xlink:href="#a"/><linearGradient id="d" x1="8" y1="51.61" x2="20" y2="72.39" xlink:href="#a"/><linearGradient id="e" x1="216" y1="51.61" x2="228" y2="72.39" xlink:href="#a"/><linearGradient id="f" x1="178" y1="15.07" x2="186" y2="28.93" xlink:href="#a"/><linearGradient id="g" x1="50" y1="15.07" x2="58" y2="28.93" xlink:href="#a"/><linearGradient id="h" x1="212.45" y1="164.04" x2="320.71" y2="351.55" gradientUnits="userSpaceOnUse"><stop offset="0" stop-color="#51cf66"/><stop offset="1" stop-color="#40c057"/></linearGradient><linearGradient id="i" x1="278.58" y1="268.33" x2="330.79" y2="358.76" xlink:href="#h"/><linearGradient id="j" x1="239.3" y1="209.21" x2="323.74" y2="355.46" xlink:href="#h"/><linearGradient id="k" x1="168.72" y1="207.61" x2="267.61" y2="378.9" xlink:href="#h"/><linearGradient id="l" x1="184.67" y1="284.03" x2="242.45" y2="384.11" xlink:href="#h"/><symbol id="m" viewBox="0 0 236 76"><circle cx="118" cy="14" r="12" stroke="#f8af18" stroke-miterlimit="10" stroke-width="4" fill="url(#a)"/><circle cx="158" cy="54" r="16" stroke="#f8af18" stroke-miterlimit="10" stroke-width="4" fill="url(#b)"/><circle cx="78" cy="54" r="16" stroke="#f8af18" stroke-miterlimit="10" stroke-width="4" fill="url(#c)"/><circle cx="14" cy="62" r="12" stroke="#f8af18" stroke-miterlimit="10" stroke-width="4" fill="url(#d)"/><circle cx="222" cy="62" r="12" stroke="#f8af18" stroke-miterlimit="10" stroke-width="4" fill="url(#e)"/><circle cx="182" cy="22" r="8" stroke="#f8af18" stroke-miterlimit="10" stroke-width="4" fill="url(#f)"/><circle cx="54" cy="22" r="8" stroke="#f8af18" stroke-miterlimit="10" stroke-width="4" fill="url(#g)"/></symbol></defs><path d="M264.5,384c.1-14.88.75-109.5,2.43-131.79,1.84-24.2,11-58.6,16.5-84.72S274.88,128,274.88,128s13.44,13.38-6.11,72c-18.66,55.91-13.92,174-13.48,184Z" stroke="#40c057" stroke-linecap="round" stroke-miterlimit="10" stroke-width="4" fill="url(#h)"/><path d="M289.38,280c-16.75,38.57-19,86.43-19.21,104.05h16.9c-1.34-19.68-3.47-76.45,13.66-107.69C321.67,238.09,340,244.46,340,244.46S310.33,231.73,289.38,280Z" stroke="#40c057" stroke-linecap="round" stroke-miterlimit="10" stroke-width="4" fill="url(#i)"/><path d="M261.52,384h12.79c1.52-21.15,7.15-87.9,19.7-123,15.05-42,4.32-85.88,4.32-85.88s5.62,43.12-14.37,89C266.94,303.17,262.47,366.15,261.52,384Z" stroke="#40c057" stroke-linecap="round" stroke-miterlimit="10" stroke-width="4" fill="url(#j)"/><path d="M242.33,384h16.44c-1.95-11.56-15.84-91.71-30.47-120.91-15.78-31.49-27.47-46.23-56.3-57.37,0,0,35.19,15.09,51.74,83C236.33,340.4,240.88,371.9,242.33,384Z" stroke="#40c057" stroke-linecap="round" stroke-miterlimit="10" stroke-width="4" fill="url(#k)"/><path d="M242.64,384c-3.95-18.95-19.78-81.78-58.94-99.41,0,0,21.77,23.38,32.44,49.18C223.27,351,226.94,372,228.6,384Z" stroke="#40c057" stroke-linecap="round" stroke-miterlimit="10" stroke-width="4" fill="url(#l)"/><use width="236" height="76" transform="translate(138 130)" xlink:href="#m"/></svg>