<svg xmlns="http://www.w3.org/2000/svg" xmlns:xlink="http://www.w3.org/1999/xlink" viewBox="0 0 512 512"><defs><linearGradient id="a" x1="14.85" y1="42.34" x2="124.18" y2="231.72" gradientUnits="userSpaceOnUse"><stop offset="0" stop-color="#3392d6"/><stop offset="1" stop-color="#2885c7"/></linearGradient><linearGradient id="b" x1="188.85" y1="170.77" x2="298.18" y2="360.15" gradientUnits="userSpaceOnUse"><stop offset="0" stop-color="#f3f7fe"/><stop offset="1" stop-color="#e6effc"/></linearGradient><clipPath id="c"><path d="M168,252H344V380H168Z" fill="none"/></clipPath><symbol id="d" viewBox="0 0 164 245.57"><path d="M82,3.57c-48.7,72-80,117-80,160.75s35.79,79.25,80,79.25,80-35.47,80-79.25S130.7,75.54,82,3.57Z" stroke="#2885c7" stroke-miterlimit="10" stroke-width="4" fill="url(#a)"/></symbol></defs><path d="M256,132c-48.7,72-80,117-80,160.75S211.79,372,256,372s80-35.47,80-79.25S304.7,204,256,132Z" stroke="#e6effc" stroke-miterlimit="10" stroke-width="4" fill="url(#b)"/><path d="M352,132h32V372H352m8-120h24m-16,56h16M368,188h16" fill="none" stroke="#d6dfe9" stroke-linecap="round" stroke-linejoin="round" stroke-width="8"/><g clip-path="url(#c)"><use width="164" height="245.57" transform="translate(174.11 128.99)" xlink:href="#d"/></g></svg>