<svg xmlns="http://www.w3.org/2000/svg" xmlns:xlink="http://www.w3.org/1999/xlink" viewBox="0 0 512 512"><defs><linearGradient id="a" x1="145.99" y1="115.24" x2="230.01" y2="260.76" gradientUnits="userSpaceOnUse"><stop offset="0" stop-color="#fbbf24"/><stop offset="1" stop-color="#f8af18"/></linearGradient><clipPath id="b"><polygon points="0 0 512 0 0 512 0 0" fill="none"/></clipPath><symbol id="c" viewBox="0 0 376 376"><circle cx="188" cy="188" r="84" stroke="#f8af18" stroke-miterlimit="10" stroke-width="4" fill="url(#a)"/><path d="M188,57.66V8m0,360V318.34M280.17,95.83l35.11-35.11M60.72,315.28l35.11-35.11m0-184.34L60.72,60.72M315.28,315.28l-35.11-35.11M57.66,188H8m360,0H318.34" fill="none" stroke="#fbbf24" stroke-linecap="round" stroke-miterlimit="10" stroke-width="16"/></symbol></defs><g clip-path="url(#b)"><use width="376" height="376" transform="translate(68 68)" xlink:href="#c"/></g><path d="M197.48,355.79c11.43-12,24.46.42,35.89-11.58s-1.61-24.41,9.82-36.41,24.46.41,35.89-11.59-1.6-24.41,9.82-36.41,24.47.41,35.9-11.59-1.61-24.41,9.82-36.41,24.47.41,35.9-11.59" fill="none" stroke="#d6dfe9" stroke-linecap="round" stroke-linejoin="round" stroke-width="12"/><path d="M257.48,355.79c11.43-12,24.46.42,35.89-11.58s-1.61-24.41,9.82-36.41,24.46.41,35.89-11.59-1.6-24.41,9.82-36.41,24.47.41,35.9-11.59-1.61-24.41,9.82-36.41,24.47.41,35.9-11.59" fill="none" stroke="#d6dfe9" stroke-linecap="round" stroke-linejoin="round" stroke-width="12"/></svg>