<svg xmlns="http://www.w3.org/2000/svg" xmlns:xlink="http://www.w3.org/1999/xlink" viewBox="0 0 512 512"><defs><linearGradient id="a" x1="98.45" y1="29.68" x2="231.64" y2="260.37" gradientUnits="userSpaceOnUse"><stop offset="0" stop-color="#f3f7fe"/><stop offset="1" stop-color="#e6effc"/></linearGradient><linearGradient id="b" x1="74" y1="165.21" x2="98" y2="206.79" gradientUnits="userSpaceOnUse"><stop offset="0" stop-color="#b8bdc6"/><stop offset="1" stop-color="#afb4bc"/></linearGradient><linearGradient id="c" x1="20" y1="90.82" x2="56" y2="153.18" xlink:href="#b"/><linearGradient id="d" x1="94" y1="8.42" x2="142" y2="91.58" xlink:href="#b"/><symbol id="e" viewBox="0 0 348 220"><path d="M290,106c-.85,0-1.68.09-2.53.13A83.9,83.9,0,0,0,134.6,41.92,55.91,55.91,0,0,0,50,90a56.56,56.56,0,0,0,.8,9.08A60,60,0,0,0,62,218c1.35,0,2.67-.11,4-.2v.2H290a56,56,0,0,0,0-112Z" stroke="#e6effc" stroke-miterlimit="10" stroke-width="4" fill="url(#a)"/></symbol><symbol id="f" viewBox="0 0 168 212"><circle cx="86" cy="186" r="24" stroke="#afb4bc" stroke-miterlimit="10" stroke-width="4" fill="url(#b)"/><circle cx="38" cy="122" r="36" stroke="#afb4bc" stroke-miterlimit="10" stroke-width="4" fill="url(#c)"/><circle cx="118" cy="50" r="48" stroke="#afb4bc" stroke-miterlimit="10" stroke-width="4" fill="url(#d)"/></symbol></defs><use width="348" height="220" transform="translate(82 146)" xlink:href="#e"/><use width="168" height="212" transform="translate(172 232)" xlink:href="#f"/></svg>