<svg xmlns="http://www.w3.org/2000/svg" xmlns:xlink="http://www.w3.org/1999/xlink" viewBox="0 0 512 512"><defs><linearGradient id="a" x1="145.99" y1="115.24" x2="230.01" y2="260.76" gradientUnits="userSpaceOnUse"><stop offset="0" stop-color="#fbbf24"/><stop offset="1" stop-color="#f8af18"/></linearGradient><clipPath id="b"><path d="M512,306H296.08a21.5,21.5,0,0,0-14.16,5.32L256,334l-25.92-22.68A21.5,21.5,0,0,0,215.92,306H0V0H512Z" fill="none"/></clipPath><symbol id="c" viewBox="0 0 376 376"><circle cx="188" cy="188" r="84" stroke="#f8af18" stroke-miterlimit="10" stroke-width="4" fill="url(#a)"/><path d="M188,57.66V8m0,360V318.34M280.17,95.83l35.11-35.11M60.72,315.28l35.11-35.11m0-184.34L60.72,60.72M315.28,315.28l-35.11-35.11M57.66,188H8m360,0H318.34" fill="none" stroke="#fbbf24" stroke-linecap="round" stroke-miterlimit="10" stroke-width="16"/></symbol></defs><g clip-path="url(#b)"><use width="376" height="376" transform="translate(68 104)" xlink:href="#c"/></g><polyline points="128 332 216 332 256 368 296 332 384 332" fill="none" stroke="#374151" stroke-linecap="round" stroke-linejoin="round" stroke-width="16"/></svg>