<svg xmlns="http://www.w3.org/2000/svg" xmlns:xlink="http://www.w3.org/1999/xlink" viewBox="0 0 512 512"><defs><linearGradient id="a" x1="98.45" y1="29.68" x2="231.64" y2="260.37" gradientUnits="userSpaceOnUse"><stop offset="0" stop-color="#f3f7fe"/><stop offset="1" stop-color="#e6effc"/></linearGradient><linearGradient id="b" x1="8.67" y1="17.07" x2="80.88" y2="142.14" gradientUnits="userSpaceOnUse"><stop offset="0" stop-color="#f7b23b"/><stop offset="1" stop-color="#f6a823"/></linearGradient><symbol id="c" viewBox="0 0 348 220"><path d="M290,106c-.85,0-1.68.09-2.53.13A83.9,83.9,0,0,0,134.6,41.92,55.91,55.91,0,0,0,50,90a56.56,56.56,0,0,0,.8,9.08A60,60,0,0,0,62,218c1.35,0,2.67-.11,4-.2v.2H290a56,56,0,0,0,0-112Z" stroke="#e6effc" stroke-miterlimit="10" stroke-width="4" fill="url(#a)"/></symbol><symbol id="d" viewBox="0 0 128 28"><path d="M8,28a8,8,0,0,1-8-8V8A8,8,0,0,1,16,8V20A8,8,0,0,1,8,28Z" fill="#0a5ad4"/><path d="M64,28a8,8,0,0,1-8-8V8A8,8,0,0,1,72,8V20A8,8,0,0,1,64,28Z" fill="#0a5ad4"/><path d="M120,28a8,8,0,0,1-8-8V8a8,8,0,0,1,16,0V20A8,8,0,0,1,120,28Z" fill="#0a5ad4"/></symbol><symbol id="e" viewBox="0 0 102.66 186.75"><polygon points="34.77 2 2.77 98 34.77 98 18.77 178 98.78 66 50.77 66 82.78 2 34.77 2" stroke="#f6a823" stroke-miterlimit="10" stroke-width="4" fill="url(#b)"/></symbol></defs><use width="348" height="220" transform="translate(82 146)" xlink:href="#c"/><use width="128" height="28" transform="translate(192 348)" xlink:href="#d"/><use width="102.66" height="186.74" transform="translate(205.23 291)" xlink:href="#e"/></svg>