<svg xmlns="http://www.w3.org/2000/svg" xmlns:xlink="http://www.w3.org/1999/xlink" viewBox="0 0 512 512"><defs><linearGradient id="a" x1="-6.17" y1="37.31" x2="117.44" y2="251.4" gradientUnits="userSpaceOnUse"><stop offset="0" stop-color="#515a69" stop-opacity="0.05"/><stop offset="0.45" stop-color="#6b7280" stop-opacity="0.05"/><stop offset="1" stop-color="#384354" stop-opacity="0.1"/></linearGradient><linearGradient id="b" x1="-8.17" y1="33.84" x2="119.44" y2="254.87" gradientUnits="userSpaceOnUse"><stop offset="0" stop-color="#d4d7dd"/><stop offset="0.45" stop-color="#d4d7dd"/><stop offset="1" stop-color="#bec1c6"/></linearGradient><symbol id="d" viewBox="0 0 72 168"><circle cx="36" cy="132" r="36" fill="#2885c7"/><path d="M36,12V132" fill="none" stroke="#2885c7" stroke-linecap="round" stroke-miterlimit="10" stroke-width="24"/></symbol><symbol id="e" viewBox="0 0 120 280"><path d="M116,219.16C116,250.55,90.93,276,60,276S4,250.55,4,219.16a57,57,0,0,1,24-46.6V36.48a32,32,0,1,1,64,0V172.56A57,57,0,0,1,116,219.16ZM64,84H92M64,52H92M64,116H92" stroke-linecap="round" stroke-linejoin="round" stroke-width="8" fill="url(#a)" stroke="url(#b)"/></symbol><symbol id="c" viewBox="0 0 120 280"><use width="72" height="168" transform="translate(24 88)" xlink:href="#d"/><use width="120" height="280" xlink:href="#e"/></symbol></defs><use width="120" height="280" transform="translate(196 116)" xlink:href="#c"/><path d="M372.5,271a4.59,4.59,0,0,0-3.18,1.26L350,290.66l-19.32-18.4a4.64,4.64,0,0,0-6.36,0,4.14,4.14,0,0,0,0,6.06l22.5,21.42a4.64,4.64,0,0,0,6.36,0l22.5-21.42a4.14,4.14,0,0,0,0-6.06A4.59,4.59,0,0,0,372.5,271Z" fill="#2a81bf"/><path d="M372.5,244a4.59,4.59,0,0,0-3.18,1.26L350,263.66l-19.32-18.4a4.64,4.64,0,0,0-6.36,0,4.14,4.14,0,0,0,0,6.06l22.5,21.42a4.64,4.64,0,0,0,6.36,0l22.5-21.42a4.14,4.14,0,0,0,0-6.06A4.59,4.59,0,0,0,372.5,244Z" fill="#2a81bf"/><path d="M372.5,217a4.59,4.59,0,0,0-3.18,1.26L350,236.66l-19.32-18.4a4.64,4.64,0,0,0-6.36,0,4.14,4.14,0,0,0,0,6.06l22.5,21.42a4.64,4.64,0,0,0,6.36,0l22.5-21.42a4.14,4.14,0,0,0,0-6.06A4.59,4.59,0,0,0,372.5,217Z" fill="#2a81bf"/></svg>