<svg xmlns="http://www.w3.org/2000/svg" xmlns:xlink="http://www.w3.org/1999/xlink" viewBox="0 0 512 512"><defs><linearGradient id="a" x1="76" y1="61.35" x2="116" y2="130.65" gradientUnits="userSpaceOnUse"><stop offset="0" stop-color="#fbbf24"/><stop offset="1" stop-color="#f8af18"/></linearGradient><linearGradient id="b" x1="-6.17" y1="37.31" x2="117.44" y2="251.4" gradientUnits="userSpaceOnUse"><stop offset="0" stop-color="#515a69" stop-opacity="0.05"/><stop offset="0.45" stop-color="#6b7280" stop-opacity="0.05"/><stop offset="1" stop-color="#384354" stop-opacity="0.1"/></linearGradient><linearGradient id="c" x1="-8.17" y1="33.84" x2="119.44" y2="254.87" gradientUnits="userSpaceOnUse"><stop offset="0" stop-color="#d4d7dd"/><stop offset="0.45" stop-color="#d4d7dd"/><stop offset="1" stop-color="#bec1c6"/></linearGradient><clipPath id="d"><path d="M256,392c30.93,0,56-25.45,56-56.84a57,57,0,0,0-24-46.6V152.48A32.24,32.24,0,0,0,256,120V79.74H423.17V392Zm4-192h28m-28-32h28m-28,64h28" fill="none"/></clipPath><symbol id="e" viewBox="0 0 192 192"><circle cx="96" cy="96" r="40" stroke="#f8af18" stroke-miterlimit="10" stroke-width="4" fill="url(#a)"/><path d="M96,29.38V4m0,184V162.62M143.11,48.89,161.05,31M31,161.05l17.94-17.94m0-94.22L31,31m130.1,130.1-17.94-17.94M4,96H29.38M188,96H162.62" fill="none" stroke="#fbbf24" stroke-linecap="round" stroke-miterlimit="10" stroke-width="8"/></symbol><symbol id="g" viewBox="0 0 72 168"><circle cx="36" cy="132" r="36" fill="#ef4444"/><path d="M36,12V132" fill="none" stroke="#ef4444" stroke-linecap="round" stroke-miterlimit="10" stroke-width="24"/></symbol><symbol id="h" viewBox="0 0 120 280"><path d="M116,219.16C116,250.55,90.93,276,60,276S4,250.55,4,219.16a57,57,0,0,1,24-46.6V36.48a32,32,0,1,1,64,0V172.56A57,57,0,0,1,116,219.16ZM64,84H92M64,52H92M64,116H92" stroke-linecap="round" stroke-linejoin="round" stroke-width="8" fill="url(#b)" stroke="url(#c)"/></symbol><symbol id="f" viewBox="0 0 120 280"><use width="72" height="168" transform="translate(24 88)" xlink:href="#g"/><use width="120" height="280" xlink:href="#h"/></symbol></defs><g clip-path="url(#d)"><use width="192" height="192" transform="translate(218 110)" xlink:href="#e"/></g><use width="120" height="280" transform="translate(196 116)" xlink:href="#f"/></svg>