<svg xmlns="http://www.w3.org/2000/svg" xmlns:xlink="http://www.w3.org/1999/xlink" viewBox="0 0 512 512"><defs><linearGradient id="a" x1="98.45" y1="29.68" x2="231.64" y2="260.37" gradientUnits="userSpaceOnUse"><stop offset="0" stop-color="#f3f7fe"/><stop offset="1" stop-color="#e6effc"/></linearGradient><linearGradient id="b" x1="8.67" y1="17.07" x2="80.88" y2="142.14" gradientUnits="userSpaceOnUse"><stop offset="0" stop-color="#f7b23b"/><stop offset="1" stop-color="#f6a823"/></linearGradient><linearGradient id="c" x1="34.67" y1="18.56" x2="119.21" y2="164.99" gradientUnits="userSpaceOnUse"><stop offset="0" stop-color="#86c3db"/><stop offset="1" stop-color="#72b9d5"/></linearGradient><symbol id="e" viewBox="0 0 172 172"><path d="M160.62,107.4c-47.17,0-85.41-37.73-85.41-84.26A83.31,83.31,0,0,1,78,2C35.27,6.61,2,42.33,2,85.73,2,132.27,40.24,170,87.41,170A85.16,85.16,0,0,0,170,106.87,88,88,0,0,1,160.62,107.4Z" stroke="#72b9d5" stroke-linecap="round" stroke-linejoin="round" stroke-width="4" fill="url(#c)"/></symbol><symbol id="f" viewBox="0 0 348 220"><path d="M290,106c-.85,0-1.68.09-2.53.13A83.9,83.9,0,0,0,134.6,41.92,55.91,55.91,0,0,0,50,90a56.56,56.56,0,0,0,.8,9.08A60,60,0,0,0,62,218c1.35,0,2.67-.11,4-.2v.2H290a56,56,0,0,0,0-112Z" stroke="#e6effc" stroke-miterlimit="10" stroke-width="4" fill="url(#a)"/></symbol><symbol id="d" viewBox="0 0 350 245"><use width="172" height="172" xlink:href="#e"/><use width="348" height="220" transform="translate(2 25)" xlink:href="#f"/></symbol><symbol id="g" viewBox="0 0 102.66 186.75"><polygon points="34.77 2 2.77 98 34.77 98 18.77 178 98.78 66 50.77 66 82.78 2 34.77 2" stroke="#f6a823" stroke-miterlimit="10" stroke-width="4" fill="url(#b)"/></symbol></defs><use width="350" height="245" transform="translate(80 121)" xlink:href="#d"/><use width="102.66" height="186.74" transform="translate(205.23 291)" xlink:href="#g"/></svg>