<svg xmlns="http://www.w3.org/2000/svg" xmlns:xlink="http://www.w3.org/1999/xlink" viewBox="0 0 512 512"><defs><linearGradient id="a" x1="-6.17" y1="37.31" x2="117.44" y2="251.4" gradientUnits="userSpaceOnUse"><stop offset="0" stop-color="#515a69" stop-opacity="0.05"/><stop offset="0.45" stop-color="#6b7280" stop-opacity="0.05"/><stop offset="1" stop-color="#384354" stop-opacity="0.1"/></linearGradient><linearGradient id="b" x1="-8.17" y1="33.84" x2="119.44" y2="254.87" gradientUnits="userSpaceOnUse"><stop offset="0" stop-color="#d4d7dd"/><stop offset="0.45" stop-color="#d4d7dd"/><stop offset="1" stop-color="#bec1c6"/></linearGradient><symbol id="c" viewBox="0 0 99.46 70.94"><path d="M19.39,0A18.71,18.71,0,0,0,0,19.29,18.88,18.88,0,0,0,19.39,38.78a18.66,18.66,0,0,0,13.92-5.57,18.83,18.83,0,0,0,5.48-13.92A18.73,18.73,0,0,0,19.39,0Zm6.34,25.73a8.61,8.61,0,0,1-6.34,2.49,8.5,8.5,0,0,1-6.24-2.49,8.71,8.71,0,0,1-2.4-6.44A8.6,8.6,0,0,1,13.15,13a8.36,8.36,0,0,1,6.24-2.45,8.39,8.39,0,0,1,8.74,8.73A8.71,8.71,0,0,1,25.73,25.73Z" fill="#374151"/><polygon points="99.46 17.86 99.46 2.59 47.42 2.59 47.42 70.94 65.38 70.94 65.38 44.74 94.27 44.74 94.27 30.05 65.38 30.05 65.38 17.86 99.46 17.86" fill="#374151"/></symbol><symbol id="e" viewBox="0 0 72 168"><circle cx="36" cy="132" r="36" fill="#ef4444"/><path d="M36,12V132" fill="none" stroke="#ef4444" stroke-linecap="round" stroke-miterlimit="10" stroke-width="24"/></symbol><symbol id="f" viewBox="0 0 120 280"><path d="M116,219.16C116,250.55,90.93,276,60,276S4,250.55,4,219.16a57,57,0,0,1,24-46.6V36.48a32,32,0,1,1,64,0V172.56A57,57,0,0,1,116,219.16ZM64,84H92M64,52H92M64,116H92" stroke-linecap="round" stroke-linejoin="round" stroke-width="8" fill="url(#a)" stroke="url(#b)"/></symbol><symbol id="d" viewBox="0 0 120 280"><use width="72" height="168" transform="translate(24 88)" xlink:href="#e"/><use width="120" height="280" xlink:href="#f"/></symbol></defs><use width="99.46" height="70.94" transform="translate(314 250)" xlink:href="#c"/><use width="120" height="280" transform="translate(196 116)" xlink:href="#d"/></svg>