<svg xmlns="http://www.w3.org/2000/svg" xmlns:xlink="http://www.w3.org/1999/xlink" viewBox="0 0 512 512"><defs><linearGradient id="a" x1="70.32" y1="20.85" x2="163.35" y2="181.99" gradientUnits="userSpaceOnUse"><stop offset="0" stop-color="#f3f7fe"/><stop offset="1" stop-color="#e6effc"/></linearGradient><linearGradient id="b" x1="6.5" y1="12.8" x2="60.66" y2="106.61" gradientUnits="userSpaceOnUse"><stop offset="0" stop-color="#f7b23b"/><stop offset="1" stop-color="#f6a823"/></linearGradient><symbol id="c" viewBox="0 0 246 154"><path d="M204.6,74.22c-.6,0-1.18.06-1.77.09a57.58,57.58,0,0,0,1.77-14C204.6,28.12,178.15,2,145.51,2A59.17,59.17,0,0,0,95.28,29.72a39.52,39.52,0,0,0-20.12-5.5c-21.75,0-39.39,17.41-39.39,38.89a38.65,38.65,0,0,0,.56,6.31A41.8,41.8,0,0,0,2,110.33C2,133.35,20.9,152,44.21,152c.95,0,1.88-.08,2.81-.14V152H204.6c21.76,0,39.4-17.41,39.4-38.89S226.36,74.22,204.6,74.22Z" stroke="#e6effc" stroke-miterlimit="10" stroke-width="4" fill="url(#a)"/></symbol><symbol id="d" viewBox="0 0 77 140.06"><polygon points="26.08 1.5 2.08 73.5 26.08 73.5 14.08 133.5 74.08 49.5 38.08 49.5 62.08 1.5 26.08 1.5" stroke="#f6a823" stroke-miterlimit="10" stroke-width="3" fill="url(#b)"/></symbol></defs><use width="246" height="154" transform="translate(133 179)" xlink:href="#c"/><use width="77" height="140.06" transform="translate(217.92 273.5)" xlink:href="#d"/></svg>