<svg xmlns="http://www.w3.org/2000/svg" xmlns:xlink="http://www.w3.org/1999/xlink" viewBox="0 0 512 512"><defs><linearGradient id="a" x1="70.32" y1="20.85" x2="163.35" y2="181.99" gradientUnits="userSpaceOnUse"><stop offset="0" stop-color="#f3f7fe"/><stop offset="1" stop-color="#e6effc"/></linearGradient><linearGradient id="b" x1="6.5" y1="12.8" x2="60.66" y2="106.61" gradientUnits="userSpaceOnUse"><stop offset="0" stop-color="#f7b23b"/><stop offset="1" stop-color="#f6a823"/></linearGradient><linearGradient id="c" x1="38.56" y1="20.53" x2="133.16" y2="184.39" gradientUnits="userSpaceOnUse"><stop offset="0" stop-color="#86c3db"/><stop offset="1" stop-color="#72b9d5"/></linearGradient><symbol id="e" viewBox="0 0 192 192"><path d="M179.5,120c-52.79,0-95.58-42.22-95.58-94.3A92.8,92.8,0,0,1,87.08,2C39.24,7.16,2,47.13,2,95.7,2,147.78,44.79,190,97.58,190c44.49,0,81.77-30,92.42-70.65A95.81,95.81,0,0,1,179.5,120Z" stroke="#72b9d5" stroke-linecap="round" stroke-linejoin="round" stroke-width="4" fill="url(#c)"/></symbol><symbol id="f" viewBox="0 0 246 154"><path d="M204.6,74.22c-.6,0-1.18.06-1.77.09a57.58,57.58,0,0,0,1.77-14C204.6,28.12,178.15,2,145.51,2A59.17,59.17,0,0,0,95.28,29.72a39.52,39.52,0,0,0-20.12-5.5c-21.75,0-39.39,17.41-39.39,38.89a38.65,38.65,0,0,0,.56,6.31A41.8,41.8,0,0,0,2,110.33C2,133.35,20.9,152,44.21,152c.95,0,1.88-.08,2.81-.14V152H204.6c21.76,0,39.4-17.41,39.4-38.89S226.36,74.22,204.6,74.22Z" stroke="#e6effc" stroke-miterlimit="10" stroke-width="4" fill="url(#a)"/></symbol><symbol id="d" viewBox="0 0 329.96 224.6"><use width="192" height="192" xlink:href="#e"/><use width="246" height="154" transform="translate(83.96 70.6)" xlink:href="#f"/></symbol><symbol id="g" viewBox="0 0 155.2 48"><path d="M41.17,30.54l-5.78-3.3a13.74,13.74,0,0,0,0-6.47l5.79-3.31A4,4,0,0,0,42.66,12a4.08,4.08,0,0,0-5.54-1.46l-5.79,3.3a13.61,13.61,0,0,0-2.64-2,13.84,13.84,0,0,0-3-1.28V4a4.05,4.05,0,0,0-8.1,0v6.6a14.25,14.25,0,0,0-5.69,3.23L6.08,10.54A4.08,4.08,0,0,0,.54,12,4,4,0,0,0,2,17.46l5.78,3.3a13.74,13.74,0,0,0,0,6.47L2,30.54A4,4,0,0,0,.54,36a4.08,4.08,0,0,0,3.52,2,4,4,0,0,0,2-.54l5.79-3.3a13.61,13.61,0,0,0,2.64,2,13.8,13.8,0,0,0,3,1.27V44a4.05,4.05,0,0,0,8.1,0V37.39a14.22,14.22,0,0,0,5.68-3.23l5.79,3.3a4,4,0,0,0,2,.54,4.08,4.08,0,0,0,3.52-2A4,4,0,0,0,41.17,30.54ZM18.56,29.2A6,6,0,0,1,16.34,21a6.1,6.1,0,0,1,5.27-3,6.16,6.16,0,0,1,3,.8A6,6,0,0,1,26.86,27,6.12,6.12,0,0,1,18.56,29.2Z" fill="#86c3db"/><path d="M97.17,30.54l-5.78-3.3a13.74,13.74,0,0,0,0-6.47l5.79-3.31A4,4,0,0,0,98.66,12a4.08,4.08,0,0,0-5.54-1.46l-5.79,3.3a13.61,13.61,0,0,0-2.64-2,13.84,13.84,0,0,0-3-1.28V4a4.05,4.05,0,0,0-8.1,0v6.6a14.25,14.25,0,0,0-5.69,3.23l-5.78-3.29A4.08,4.08,0,0,0,56.54,12,4,4,0,0,0,58,17.46l5.78,3.3a13.74,13.74,0,0,0,0,6.47L58,30.54A4,4,0,0,0,56.54,36a4.08,4.08,0,0,0,3.52,2,4,4,0,0,0,2-.54l5.79-3.3a13.61,13.61,0,0,0,2.64,2,13.8,13.8,0,0,0,3,1.27V44a4.05,4.05,0,0,0,8.1,0V37.39a14.22,14.22,0,0,0,5.68-3.23l5.79,3.3a4,4,0,0,0,2,.54,4.08,4.08,0,0,0,3.52-2A4,4,0,0,0,97.17,30.54ZM74.56,29.2A6,6,0,0,1,72.34,21a6.1,6.1,0,0,1,5.27-3,6.16,6.16,0,0,1,3,.8A6,6,0,0,1,82.86,27,6.12,6.12,0,0,1,74.56,29.2Z" fill="#86c3db"/><path d="M153.17,30.54l-5.78-3.3a13.74,13.74,0,0,0,0-6.47l5.79-3.31A4,4,0,0,0,154.66,12a4.08,4.08,0,0,0-5.54-1.46l-5.79,3.3a13.61,13.61,0,0,0-2.64-2,13.84,13.84,0,0,0-3-1.28V4a4.05,4.05,0,0,0-8.1,0v6.6a14.25,14.25,0,0,0-5.69,3.23l-5.78-3.29A4.08,4.08,0,0,0,112.54,12,4,4,0,0,0,114,17.46l5.78,3.3a13.74,13.74,0,0,0,0,6.47L114,30.54A4,4,0,0,0,112.54,36a4.08,4.08,0,0,0,3.52,2,4,4,0,0,0,2-.54l5.79-3.3a13.61,13.61,0,0,0,2.64,2,13.8,13.8,0,0,0,3,1.27V44a4.05,4.05,0,0,0,8.1,0V37.39a14.22,14.22,0,0,0,5.68-3.23l5.79,3.3a4,4,0,0,0,2,.54,4.08,4.08,0,0,0,3.52-2A4,4,0,0,0,153.17,30.54ZM130.56,29.2a6,6,0,0,1-2.22-8.2,6.1,6.1,0,0,1,5.27-3,6.16,6.16,0,0,1,3,.8,6,6,0,0,1,2.22,8.2A6.12,6.12,0,0,1,130.56,29.2Z" fill="#86c3db"/></symbol><symbol id="h" viewBox="0 0 77 140.06"><polygon points="26.08 1.5 2.08 73.5 26.08 73.5 14.08 133.5 74.08 49.5 38.08 49.5 62.08 1.5 26.08 1.5" stroke="#f6a823" stroke-miterlimit="10" stroke-width="3" fill="url(#b)"/></symbol></defs><use width="329.96" height="224.6" transform="translate(100.04 140.4)" xlink:href="#d"/><use width="155.2" height="48" transform="translate(228.4 338)" xlink:href="#g"/><use width="77" height="140.06" transform="translate(267.92 306.5)" xlink:href="#h"/></svg>