<svg xmlns="http://www.w3.org/2000/svg" xmlns:xlink="http://www.w3.org/1999/xlink" viewBox="0 0 512 512">
    <defs>
        <linearGradient id="a" x1="79.46" y1="-22.29" x2="165.78" y2="127.22" gradientUnits="userSpaceOnUse">
            <stop offset="0" stop-color="#3392d6"/>
            <stop offset="0.45" stop-color="#3392d6"/>
            <stop offset="1" stop-color="#2477b2"/>
        </linearGradient>
        <symbol id="b" viewBox="0 0 244 92">
            <path d="M242,24.63h-8c-10.92,0-20.85-11.66-26-21.39a2.28,2.28,0,0,0-4.06,0c-5.12,9.73-15.05,21.39-26,21.39S157.15,13,152,3.24a2.28,2.28,0,0,0-4.06,0c-5.12,9.73-15.05,21.39-26,21.39S101.15,13,96,3.24a2.28,2.28,0,0,0-4.06,0c-5.12,9.73-15,21.39-26,21.39S45.15,13,40,3.24a2.28,2.28,0,0,0-4.06,0c-5.12,9.73-15,21.39-26,21.39H2V73.7A16.14,16.14,0,0,0,18,90H226a16.14,16.14,0,0,0,16-16.3Z" stroke="#2885c7" stroke-linecap="round" stroke-linejoin="round" stroke-width="4" fill="url(#a)"/>
        </symbol>
    </defs>
    <use width="244" height="92" transform="translate(134 242)" xlink:href="#b"/>
    <polyline points="256 218 256 146 232 173.58 256 146 280 173.58" fill="none" stroke="#374151" stroke-linecap="round" stroke-linejoin="round" stroke-width="12"/>
</svg>
