<svg xmlns="http://www.w3.org/2000/svg" xmlns:xlink="http://www.w3.org/1999/xlink" viewBox="0 0 512 512"><defs><linearGradient id="a" x1="54.24" y1="11.12" x2="134.86" y2="150.77" gradientUnits="userSpaceOnUse"><stop offset="0" stop-color="#b0bccd"/><stop offset="1" stop-color="#94a3b8"/></linearGradient><linearGradient id="b" x1="98.45" y1="29.68" x2="231.64" y2="260.37" gradientUnits="userSpaceOnUse"><stop offset="0" stop-color="#7c8ca2"/><stop offset="1" stop-color="#64748b"/></linearGradient><linearGradient id="c" x1="8.67" y1="17.07" x2="80.88" y2="142.14" gradientUnits="userSpaceOnUse"><stop offset="0" stop-color="#f7b23b"/><stop offset="1" stop-color="#f6a823"/></linearGradient><linearGradient id="d" x1="76" y1="61.35" x2="116" y2="130.65" gradientUnits="userSpaceOnUse"><stop offset="0" stop-color="#fbbf24"/><stop offset="1" stop-color="#f8af18"/></linearGradient><symbol id="f" viewBox="0 0 192 192"><circle cx="96" cy="96" r="40" stroke="#f8af18" stroke-miterlimit="10" stroke-width="4" fill="url(#d)"/><path d="M96,29.38V4m0,184V162.62M143.11,48.89,161.05,31M31,161.05l17.94-17.94m0-94.22L31,31m130.1,130.1-17.94-17.94M4,96H29.38M188,96H162.62" fill="none" stroke="#fbbf24" stroke-linecap="round" stroke-miterlimit="10" stroke-width="8"/></symbol><symbol id="h" viewBox="0 0 203.26 129.12"><path d="M2,94.68a32.44,32.44,0,0,0,32.44,32.44H164.19V127c.77,0,1.53.12,2.31.12A34.75,34.75,0,0,0,173,58.23a32.38,32.38,0,0,0-48.54-33.11A48.58,48.58,0,0,0,35.9,62.31c-.49,0-1-.07-1.46-.07A32.44,32.44,0,0,0,2,94.68Z" stroke="#94a3b8" stroke-miterlimit="10" stroke-width="4" fill="url(#a)"/></symbol><symbol id="i" viewBox="0 0 348 220"><path d="M290,106c-.85,0-1.68.09-2.53.13A83.9,83.9,0,0,0,134.6,41.92,55.91,55.91,0,0,0,50,90a56.56,56.56,0,0,0,.8,9.08A60,60,0,0,0,62,218c1.35,0,2.67-.11,4-.2v.2H290a56,56,0,0,0,0-112Z" stroke="#64748b" stroke-miterlimit="10" stroke-width="4" fill="url(#b)"/></symbol><symbol id="g" viewBox="0 0 398.5 220"><use width="203.26" height="129.12" transform="translate(195.5 24.5)" xlink:href="#h"/><use width="348" height="220" xlink:href="#i"/></symbol><symbol id="e" viewBox="0 0 410.34 255"><use width="192" height="192" xlink:href="#f"/><use width="398.5" height="220" transform="translate(11.84 35)" xlink:href="#g"/></symbol><symbol id="j" viewBox="0 0 102.66 186.75"><polygon points="34.77 2 2.77 98 34.77 98 18.77 178 98.78 66 50.77 66 82.78 2 34.77 2" stroke="#f6a823" stroke-miterlimit="10" stroke-width="4" fill="url(#c)"/></symbol></defs><use width="410.34" height="255" transform="translate(58 111)" xlink:href="#e"/><use width="102.66" height="186.74" transform="translate(205.23 291)" xlink:href="#j"/></svg>