<svg xmlns="http://www.w3.org/2000/svg" xmlns:xlink="http://www.w3.org/1999/xlink" viewBox="0 0 512 512"><defs><linearGradient id="a" x1="54.24" y1="11.12" x2="134.86" y2="150.77" gradientUnits="userSpaceOnUse"><stop offset="0" stop-color="#b0bccd"/><stop offset="1" stop-color="#94a3b8"/></linearGradient><linearGradient id="b" x1="98.45" y1="29.68" x2="231.64" y2="260.37" gradientUnits="userSpaceOnUse"><stop offset="0" stop-color="#7c8ca2"/><stop offset="1" stop-color="#64748b"/></linearGradient><linearGradient id="c" x1="8.67" y1="17.07" x2="80.88" y2="142.14" gradientUnits="userSpaceOnUse"><stop offset="0" stop-color="#f7b23b"/><stop offset="1" stop-color="#f6a823"/></linearGradient><linearGradient id="d" x1="76" y1="61.35" x2="116" y2="130.65" gradientUnits="userSpaceOnUse"><stop offset="0" stop-color="#fbbf24"/><stop offset="1" stop-color="#f8af18"/></linearGradient><symbol id="f" viewBox="0 0 192 192"><circle cx="96" cy="96" r="40" stroke="#f8af18" stroke-miterlimit="10" stroke-width="4" fill="url(#d)"/><path d="M96,29.38V4m0,184V162.62M143.11,48.89,161.05,31M31,161.05l17.94-17.94m0-94.22L31,31m130.1,130.1-17.94-17.94M4,96H29.38M188,96H162.62" fill="none" stroke="#fbbf24" stroke-linecap="round" stroke-miterlimit="10" stroke-width="8"/></symbol><symbol id="h" viewBox="0 0 203.26 129.12"><path d="M2,94.68a32.44,32.44,0,0,0,32.44,32.44H164.19V127c.77,0,1.53.12,2.31.12A34.75,34.75,0,0,0,173,58.23a32.38,32.38,0,0,0-48.54-33.11A48.58,48.58,0,0,0,35.9,62.31c-.49,0-1-.07-1.46-.07A32.44,32.44,0,0,0,2,94.68Z" stroke="#94a3b8" stroke-miterlimit="10" stroke-width="4" fill="url(#a)"/></symbol><symbol id="i" viewBox="0 0 348 220"><path d="M290,106c-.85,0-1.68.09-2.53.13A83.9,83.9,0,0,0,134.6,41.92,55.91,55.91,0,0,0,50,90a56.56,56.56,0,0,0,.8,9.08A60,60,0,0,0,62,218c1.35,0,2.67-.11,4-.2v.2H290a56,56,0,0,0,0-112Z" stroke="#64748b" stroke-miterlimit="10" stroke-width="4" fill="url(#b)"/></symbol><symbol id="g" viewBox="0 0 398.5 220"><use width="203.26" height="129.12" transform="translate(195.5 24.5)" xlink:href="#h"/><use width="348" height="220" xlink:href="#i"/></symbol><symbol id="e" viewBox="0 0 410.34 255"><use width="192" height="192" xlink:href="#f"/><use width="398.5" height="220" transform="translate(11.84 35)" xlink:href="#g"/></symbol><symbol id="j" viewBox="0 0 155.2 48"><path d="M41.17,30.54l-5.78-3.3a13.74,13.74,0,0,0,0-6.47l5.79-3.31A4,4,0,0,0,42.66,12a4.08,4.08,0,0,0-5.54-1.46l-5.79,3.3a13.61,13.61,0,0,0-2.64-2,13.84,13.84,0,0,0-3-1.28V4a4.05,4.05,0,0,0-8.1,0v6.6a14.25,14.25,0,0,0-5.69,3.23L6.08,10.54A4.08,4.08,0,0,0,.54,12,4,4,0,0,0,2,17.46l5.78,3.3a13.74,13.74,0,0,0,0,6.47L2,30.54A4,4,0,0,0,.54,36a4.08,4.08,0,0,0,3.52,2,4,4,0,0,0,2-.54l5.79-3.3a13.61,13.61,0,0,0,2.64,2,13.8,13.8,0,0,0,3,1.27V44a4.05,4.05,0,0,0,8.1,0V37.39a14.22,14.22,0,0,0,5.68-3.23l5.79,3.3a4,4,0,0,0,2,.54,4.08,4.08,0,0,0,3.52-2A4,4,0,0,0,41.17,30.54ZM18.56,29.2A6,6,0,0,1,16.34,21a6.1,6.1,0,0,1,5.27-3,6.16,6.16,0,0,1,3,.8A6,6,0,0,1,26.86,27,6.12,6.12,0,0,1,18.56,29.2Z" fill="#86c3db"/><path d="M97.17,30.54l-5.78-3.3a13.74,13.74,0,0,0,0-6.47l5.79-3.31A4,4,0,0,0,98.66,12a4.08,4.08,0,0,0-5.54-1.46l-5.79,3.3a13.61,13.61,0,0,0-2.64-2,13.84,13.84,0,0,0-3-1.28V4a4.05,4.05,0,0,0-8.1,0v6.6a14.25,14.25,0,0,0-5.69,3.23l-5.78-3.29A4.08,4.08,0,0,0,56.54,12,4,4,0,0,0,58,17.46l5.78,3.3a13.74,13.74,0,0,0,0,6.47L58,30.54A4,4,0,0,0,56.54,36a4.08,4.08,0,0,0,3.52,2,4,4,0,0,0,2-.54l5.79-3.3a13.61,13.61,0,0,0,2.64,2,13.8,13.8,0,0,0,3,1.27V44a4.05,4.05,0,0,0,8.1,0V37.39a14.22,14.22,0,0,0,5.68-3.23l5.79,3.3a4,4,0,0,0,2,.54,4.08,4.08,0,0,0,3.52-2A4,4,0,0,0,97.17,30.54ZM74.56,29.2A6,6,0,0,1,72.34,21a6.1,6.1,0,0,1,5.27-3,6.16,6.16,0,0,1,3,.8A6,6,0,0,1,82.86,27,6.12,6.12,0,0,1,74.56,29.2Z" fill="#86c3db"/><path d="M153.17,30.54l-5.78-3.3a13.74,13.74,0,0,0,0-6.47l5.79-3.31A4,4,0,0,0,154.66,12a4.08,4.08,0,0,0-5.54-1.46l-5.79,3.3a13.61,13.61,0,0,0-2.64-2,13.84,13.84,0,0,0-3-1.28V4a4.05,4.05,0,0,0-8.1,0v6.6a14.25,14.25,0,0,0-5.69,3.23l-5.78-3.29A4.08,4.08,0,0,0,112.54,12,4,4,0,0,0,114,17.46l5.78,3.3a13.74,13.74,0,0,0,0,6.47L114,30.54A4,4,0,0,0,112.54,36a4.08,4.08,0,0,0,3.52,2,4,4,0,0,0,2-.54l5.79-3.3a13.61,13.61,0,0,0,2.64,2,13.8,13.8,0,0,0,3,1.27V44a4.05,4.05,0,0,0,8.1,0V37.39a14.22,14.22,0,0,0,5.68-3.23l5.79,3.3a4,4,0,0,0,2,.54,4.08,4.08,0,0,0,3.52-2A4,4,0,0,0,153.17,30.54ZM130.56,29.2a6,6,0,0,1-2.22-8.2,6.1,6.1,0,0,1,5.27-3,6.16,6.16,0,0,1,3,.8,6,6,0,0,1,2.22,8.2A6.12,6.12,0,0,1,130.56,29.2Z" fill="#86c3db"/></symbol><symbol id="k" viewBox="0 0 102.66 186.75"><polygon points="34.77 2 2.77 98 34.77 98 18.77 178 98.78 66 50.77 66 82.78 2 34.77 2" stroke="#f6a823" stroke-miterlimit="10" stroke-width="4" fill="url(#c)"/></symbol></defs><use width="410.34" height="255" transform="translate(58 111)" xlink:href="#e"/><use width="155.2" height="48" transform="translate(178.4 338)" xlink:href="#j"/><use width="102.66" height="186.74" transform="translate(205.23 291)" xlink:href="#k"/></svg>