<svg xmlns="http://www.w3.org/2000/svg" xmlns:xlink="http://www.w3.org/1999/xlink" viewBox="0 0 512 512"><defs><linearGradient id="a" x1="209.31" y1="145.56" x2="290.58" y2="286.32" gradientUnits="userSpaceOnUse"><stop offset="0" stop-color="#f87171"/><stop offset="1" stop-color="#ef4444"/></linearGradient></defs><path d="M304,355a24,24,0,0,1-48,0V133" fill="none" stroke="#d6dfe9" stroke-linecap="round" stroke-linejoin="round" stroke-width="16"/><path d="M376,237c0-53-53.73-96-120-96s-120,43-120,96l12.74-5.85c17.9-8.23,40.88-8,58.49.52l11,5.33,6.81-3.5c18.53-9.51,43.41-9.51,61.94,0l6.81,3.5,11-5.33c17.61-8.54,40.59-8.75,58.49-.52Z" stroke="#ef4444" stroke-miterlimit="10" stroke-width="4" fill="url(#a)"/><path d="M293.78,237c6.66-53.6-37.78-96-37.78-96s-44.44,42.4-37.78,96" fill="none" stroke="#ef4444" stroke-linecap="round" stroke-linejoin="round" stroke-width="4"/></svg>