<svg xmlns="http://www.w3.org/2000/svg" xmlns:xlink="http://www.w3.org/1999/xlink" viewBox="0 0 512 512"><defs><linearGradient id="a" x1="145.99" y1="115.24" x2="230.01" y2="260.76" gradientUnits="userSpaceOnUse"><stop offset="0" stop-color="#fbbf24"/><stop offset="1" stop-color="#f8af18"/></linearGradient><clipPath id="b"><path d="M64,64H448V256H328a72,72,0,0,0-72,72V448H64Z" fill="none"/></clipPath><symbol id="c" viewBox="0 0 376 376"><circle cx="188" cy="188" r="84" stroke="#f8af18" stroke-miterlimit="10" stroke-width="4" fill="url(#a)"/><path d="M188,57.66V8m0,360V318.34M280.17,95.83l35.11-35.11M60.72,315.28l35.11-35.11m0-184.34L60.72,60.72M315.28,315.28l-35.11-35.11M57.66,188H8m360,0H318.34" fill="none" stroke="#fbbf24" stroke-linecap="round" stroke-miterlimit="10" stroke-width="16"/></symbol></defs><g clip-path="url(#b)"><use width="376" height="376" transform="translate(68 68)" xlink:href="#c"/><path d="M254,338V328a74,74,0,0,1,74-74h10" fill="none" stroke="#f8af18" stroke-miterlimit="10" stroke-width="6"/></g><rect x="280" y="280" width="144" height="144" rx="48" fill="#ffb800"/><path d="M351.8,388q-12,0-19.67-5.52t-9-15.69l17.56-1.38a9.87,9.87,0,0,0,3.8,6.07,12,12,0,0,0,7.24,2.12,11.59,11.59,0,0,0,8.44-3,10.54,10.54,0,0,0,3.1-7.94,10.43,10.43,0,0,0-3.1-7.84,11.63,11.63,0,0,0-8.44-3,12.62,12.62,0,0,0-9.76,4.24l-16.57-1.48L331.78,316H376v14.69H345.1l-2.27,12,.29.2q5.53-4.05,14.21-4.05,10.65,0,17.06,6.31t6.51,17.07q0,11.83-7.79,18.74T351.8,388Z" fill="#fff"/></svg>