<svg xmlns="http://www.w3.org/2000/svg" xmlns:xlink="http://www.w3.org/1999/xlink" viewBox="0 0 512 512"><defs><linearGradient id="a" x1="-810.78" y1="8492.83" x2="-729.52" y2="8633.59" gradientTransform="translate(6879.73 -5287.13) rotate(45)" gradientUnits="userSpaceOnUse"><stop offset="0" stop-color="#f87171"/><stop offset="1" stop-color="#ef4444"/></linearGradient><symbol id="b" viewBox="0 0 134 92"><path d="M103.23,8.78a15.55,15.55,0,1,1,11.21,26.33H4" fill="none" stroke="#d6dfe9" stroke-linecap="round" stroke-miterlimit="10" stroke-width="8"/><path d="M58.67,83.22A15.55,15.55,0,1,0,69.89,56.89H4.56" fill="none" stroke="#d6dfe9" stroke-linecap="round" stroke-miterlimit="10" stroke-width="8"/></symbol></defs><path d="M219.94,359.94A24,24,0,1,1,186,326l1.76-1.76L343,169" fill="none" stroke="#d6dfe9" stroke-linecap="round" stroke-linejoin="round" stroke-width="16"/><path d="M354.29,327.42c37.49-37.49,29.89-105.87-17-152.74s-115.25-54.46-152.74-17l13.15,4.87c18.48,6.84,34.57,23.23,41,41.73l4,11.54,7.29,2.34c19.83,6.38,37.42,24,43.8,43.8l2.34,7.29,11.54,4c18.5,6.42,34.89,22.51,41.73,41Z" stroke="#ef4444" stroke-miterlimit="10" stroke-width="4" fill="url(#a)"/><path d="M296.15,269.28c42.61-33.19,41.17-94.6,41.17-94.6s-61.41-1.44-94.6,41.17" fill="none" stroke="#ef4444" stroke-linecap="round" stroke-linejoin="round" stroke-width="4"/><use width="134" height="92" transform="translate(64.5 203)" xlink:href="#b"/></svg>