<svg xmlns="http://www.w3.org/2000/svg" xmlns:xlink="http://www.w3.org/1999/xlink" viewBox="0 0 512 512"><defs><linearGradient id="a" x1="-861.37" y1="2894.58" x2="-780.1" y2="3035.34" gradientTransform="matrix(0.71, 0.71, 0.71, -0.71, -1177.43, 2842.56)" gradientUnits="userSpaceOnUse"><stop offset="0" stop-color="#f87171"/><stop offset="1" stop-color="#ef4444"/></linearGradient><symbol id="b" viewBox="0 0 134 92"><path d="M103.23,8.78a15.55,15.55,0,1,1,11.21,26.33H4" fill="none" stroke="#d6dfe9" stroke-linecap="round" stroke-miterlimit="10" stroke-width="8"/><path d="M58.67,83.22A15.55,15.55,0,1,0,69.89,56.89H4.56" fill="none" stroke="#d6dfe9" stroke-linecap="round" stroke-miterlimit="10" stroke-width="8"/></symbol></defs><path d="M219.94,359.94A24,24,0,1,1,186,326l1.76-1.76L343,169" fill="none" stroke="#d6dfe9" stroke-linecap="round" stroke-linejoin="round" stroke-width="16"/><path d="M442.79,239.91c-37.49,37.49-105.87,29.89-152.73-17s-54.46-115.24-17-152.73L278,83.35c6.84,18.48,23.23,34.58,41.72,41l11.55,4,2.34,7.28c6.37,19.83,24,37.43,43.8,43.8l7.28,2.34,4,11.55c6.41,18.49,22.51,34.88,41,41.72Z" stroke="#ef4444" stroke-miterlimit="10" stroke-width="4" fill="url(#a)"/><path d="M384.65,181.77c-33.18,42.62-94.59,41.17-94.59,41.17s-1.45-61.41,41.17-94.59" fill="none" stroke="#ef4444" stroke-linecap="round" stroke-linejoin="round" stroke-width="4"/><use width="134" height="92" transform="translate(64.5 203)" xlink:href="#b"/></svg>