<svg xmlns="http://www.w3.org/2000/svg" xmlns:xlink="http://www.w3.org/1999/xlink" viewBox="0 0 512 512"><defs><symbol id="a" viewBox="0 0 340 232"><path d="M263.16,20.29A40,40,0,1,1,292,88H8" fill="none" stroke="#d6dfe9" stroke-linecap="round" stroke-miterlimit="10" stroke-width="16"/><path d="M147.16,211.71A40,40,0,1,0,176,144H8" fill="none" stroke="#d6dfe9" stroke-linecap="round" stroke-miterlimit="10" stroke-width="16"/></symbol></defs><use width="340" height="232" transform="translate(86 140)" xlink:href="#a"/><path d="M383.8,344q-12,0-19.67-5.52t-9-15.69l17.56-1.38a9.87,9.87,0,0,0,3.8,6.07,12,12,0,0,0,7.24,2.12,11.59,11.59,0,0,0,8.44-3,10.54,10.54,0,0,0,3.1-7.94,10.43,10.43,0,0,0-3.1-7.84,11.63,11.63,0,0,0-8.44-3,12.62,12.62,0,0,0-9.76,4.24l-16.57-1.48L363.78,272H408v14.69H377.1l-2.27,12,.29.2q5.53-4.05,14.21-4.05,10.65,0,17.06,6.31t6.51,17.07q0,11.83-7.79,18.74T383.8,344Z" fill="#374251"/></svg>