<svg xmlns="http://www.w3.org/2000/svg" xmlns:xlink="http://www.w3.org/1999/xlink" viewBox="0 0 512 512">
    <defs>
        <linearGradient id="a" x1="138.48" y1="5.12" x2="224.17" y2="153.53" gradientUnits="userSpaceOnUse">
            <stop offset="0" stop-color="#d4d7dd"/>
            <stop offset="0.45" stop-color="#d4d7dd"/>
            <stop offset="1" stop-color="#bec1c6"/>
        </linearGradient>
        <linearGradient id="b" x1="77.66" y1="96.23" x2="168.99" y2="254.41" xlink:href="#a"/>
        <symbol id="c" viewBox="0 0 348 240">
            <path d="M267.16,24.29A40,40,0,1,1,296,92H12" fill="none" stroke-linecap="round" stroke-miterlimit="10" stroke-width="24" stroke="url(#a)"/>
            <path d="M151.16,215.71A40,40,0,1,0,180,148H12" fill="none" stroke-linecap="round" stroke-miterlimit="10" stroke-width="24" stroke="url(#b)"/>
        </symbol>
    </defs>
    <use width="348" height="240" transform="translate(82 136)" xlink:href="#c"/>
    <path d="M397.52,305.21a17.76,17.76,0,0,1,10.78,5.73,16.42,16.42,0,0,1,3.85,11.11,20,20,0,0,1-7.21,15.79Q397.62,344,384.63,344q-13.58,0-20.94-6.74t-7.84-18.58H372.3q.58,11.74,11.65,11.75A11.56,11.56,0,0,0,391.7,328a8.12,8.12,0,0,0,2.84-6.54,7.54,7.54,0,0,0-3-6.45c-2-1.48-4.82-2.22-8.47-2.22h-4.82V300.88h5.11c3,0,5.34-.68,7-2a7.07,7.07,0,0,0,2.46-5.78,7.19,7.19,0,0,0-2.46-5.82c-1.63-1.38-4-2.07-7-2.07s-5.2.74-6.74,2.21-2.44,3.88-2.7,7.22H358q1-22.62,26-22.62,11.85,0,18.48,5.2a16.13,16.13,0,0,1,6.64,13.28,14.88,14.88,0,0,1-3,9.34A15.22,15.22,0,0,1,397.52,305.21Z" fill="#374251"/>
</svg>
