<svg xmlns="http://www.w3.org/2000/svg" xmlns:xlink="http://www.w3.org/1999/xlink" viewBox="0 0 512 512"><defs><linearGradient id="a" x1="349.3" y1="281.62" x2="399.23" y2="368.1" gradientUnits="userSpaceOnUse"><stop offset="0" stop-color="#f87171"/><stop offset="1" stop-color="#ef4444"/></linearGradient><symbol id="b" viewBox="0 0 340 232"><path d="M263.16,20.29A40,40,0,1,1,292,88H8" fill="none" stroke="#d6dfe9" stroke-linecap="round" stroke-miterlimit="10" stroke-width="16"/><path d="M147.16,211.71A40,40,0,1,0,176,144H8" fill="none" stroke="#d6dfe9" stroke-linecap="round" stroke-miterlimit="10" stroke-width="16"/></symbol></defs><use width="340" height="232" transform="translate(86 140)" xlink:href="#b"/><path d="M430.88,339.55l-19.79-36.5-19.15-35.31a9,9,0,0,0-15.88,0l-19.15,35.31-19.79,36.5A9.09,9.09,0,0,0,345.06,353h77.88A9.09,9.09,0,0,0,430.88,339.55Z" stroke="#ef4444" stroke-miterlimit="10" stroke-width="4" fill="url(#a)"/></svg>