<svg xmlns="http://www.w3.org/2000/svg" xmlns:xlink="http://www.w3.org/1999/xlink" viewBox="0 0 512 512"><defs><linearGradient id="a" x1="1637.58" y1="-1005.25" x2="1708.33" y2="-882.7" gradientTransform="matrix(0.99, -0.13, 0.13, 0.99, -1174.83, 1386.03)" gradientUnits="userSpaceOnUse"><stop offset="0" stop-color="#875b34"/><stop offset="1" stop-color="#744e2d"/></linearGradient><linearGradient id="b" x1="1646.29" y1="-1044.04" x2="1707.61" y2="-937.82" gradientTransform="matrix(0.99, -0.13, 0.13, 0.99, -1174.83, 1386.03)" gradientUnits="userSpaceOnUse"><stop offset="0" stop-color="#51cf66"/><stop offset="1" stop-color="#40c057"/></linearGradient><linearGradient id="c" x1="135.11" y1="283.16" x2="209.96" y2="412.81" gradientUnits="userSpaceOnUse"><stop offset="0" stop-color="#3392d6"/><stop offset="0.45" stop-color="#3392d6"/><stop offset="1" stop-color="#2477b2"/></linearGradient><linearGradient id="d" x1="266.83" y1="293.59" x2="339.63" y2="419.69" gradientUnits="userSpaceOnUse"><stop offset="0" stop-color="#fbbf24"/><stop offset="1" stop-color="#f8af18"/></linearGradient><symbol id="e" viewBox="0 0 134 92"><path d="M103.23,8.78a15.55,15.55,0,1,1,11.21,26.33H4" fill="none" stroke="#d6dfe9" stroke-linecap="round" stroke-miterlimit="10" stroke-width="8"/><path d="M58.67,83.22A15.55,15.55,0,1,0,69.89,56.89H4.56" fill="none" stroke="#d6dfe9" stroke-linecap="round" stroke-miterlimit="10" stroke-width="8"/></symbol></defs><path d="M353.68,160.29c-1-6.88-3.14-12.16-4.89-11.92l-1.38.18c-1.75.23-2.46,5.89-1.59,12.79l16.9,134.89c.9,7.21,3.17,13,5,12.73l3.53-.47c1.83-.25,2.5-6.4,1.48-13.59Z" stroke="#744e2d" stroke-linecap="round" stroke-linejoin="round" stroke-width="4" fill="url(#a)"/><path d="M402.92,153.22c-3.13-23.43-25.84-39.73-50.74-36.41-16.76,2.24-30.21,12.82-36.27,26.64-.74.06-1.46,0-2.21.09C295,146,281.79,162.29,284.14,179.86c1.93,14.49,13.89,25.2,28.48,27.17a20.33,20.33,0,0,0-.76,8.71c1.56,11.72,12.92,19.87,25.37,18.21a23.39,23.39,0,0,0,14-7.26,34.69,34.69,0,0,0,28.22,8.82c18.67-2.49,31.9-18.76,29.56-36.33a30.82,30.82,0,0,0-11.45-19.9A40.91,40.91,0,0,0,402.92,153.22Z" stroke="#40c057" stroke-linecap="round" stroke-miterlimit="10" stroke-width="4" fill="url(#b)"/><path d="M245.68,309.62c-13.79,0-26.33-14.73-32.8-27a2.88,2.88,0,0,0-5.13,0c-6.47,12.29-19,27-32.8,27s-26.33-14.73-32.81-27a2.87,2.87,0,0,0-5.12,0c-6.48,12.29-19,27-32.81,27H94.11v62a20.38,20.38,0,0,0,20.16,20.59H245.68Z" stroke="#2885c7" stroke-linecap="round" stroke-linejoin="round" stroke-width="4" fill="url(#c)"/><path d="M402.31,369.75v-66.3c0-12.38-8.87-22.42-19.81-22.42H319.92c-49.21,0-94.23,31.35-116.4,81.08L190.1,392.18H382.49C393.44,392.18,402.31,382.14,402.31,369.75Z" stroke="#f8af18" stroke-miterlimit="10" stroke-width="4" fill="url(#d)"/><use width="134" height="92" transform="matrix(-1, 0, 0, 1, 235, 148)" xlink:href="#e"/></svg>