<svg xmlns="http://www.w3.org/2000/svg" xmlns:xlink="http://www.w3.org/1999/xlink" viewBox="0 0 512 512">
    <defs>
        <linearGradient id="a" x1="138.48" y1="5.12" x2="224.17" y2="153.53" gradientUnits="userSpaceOnUse">
            <stop offset="0" stop-color="#d4d7dd"/>
            <stop offset="0.45" stop-color="#d4d7dd"/>
            <stop offset="1" stop-color="#bec1c6"/>
        </linearGradient>
        <linearGradient id="b" x1="77.66" y1="96.23" x2="168.99" y2="254.41" xlink:href="#a"/>
        <linearGradient id="c" x1="219.13" y1="155.17" x2="240.87" y2="192.83" gradientUnits="userSpaceOnUse">
            <stop offset="0" stop-color="#86c3db"/>
            <stop offset="0.45" stop-color="#86c3db"/>
            <stop offset="1" stop-color="#5eafcf"/>
        </linearGradient>
        <linearGradient id="d" x1="363.13" y1="257.17" x2="384.87" y2="294.83" xlink:href="#c"/>
        <linearGradient id="e" x1="133.13" y1="315.17" x2="154.87" y2="352.83" xlink:href="#c"/>
        <symbol id="f" viewBox="0 0 348 240">
            <path d="M267.16,24.29A40,40,0,1,1,296,92H12" fill="none" stroke-linecap="round" stroke-miterlimit="10" stroke-width="24" stroke="url(#a)"/>
            <path d="M151.16,215.71A40,40,0,1,0,180,148H12" fill="none" stroke-linecap="round" stroke-miterlimit="10" stroke-width="24" stroke="url(#b)"/>
        </symbol>
    </defs>
    <use width="348" height="240" transform="translate(82 136)" xlink:href="#f"/>
    <path d="M249.55,180.67l-5.78-3.36a14.33,14.33,0,0,0,0-6.61l5.79-3.37a4.1,4.1,0,0,0,1.48-5.57,4,4,0,0,0-5.53-1.5l-5.78,3.37a14.21,14.21,0,0,0-2.64-2,14.61,14.61,0,0,0-3-1.31v-6.73a4.05,4.05,0,1,0-8.1,0v6.74a14.18,14.18,0,0,0-5.68,3.29l-5.77-3.36a4,4,0,0,0-5.53,1.5,4.1,4.1,0,0,0,1.48,5.57l5.78,3.36a14.33,14.33,0,0,0,0,6.61l-5.79,3.37a4.1,4.1,0,0,0-1.48,5.57,4,4,0,0,0,5.53,1.5l5.78-3.37a14.21,14.21,0,0,0,2.64,2,13.85,13.85,0,0,0,3,1.3v6.74a4.05,4.05,0,1,0,8.1,0v-6.75a14.14,14.14,0,0,0,5.67-3.29l5.78,3.37a4,4,0,0,0,5.53-1.5A4.1,4.1,0,0,0,249.55,180.67ZM227,179.3a6.17,6.17,0,0,1-2.22-8.36,6.08,6.08,0,0,1,5.27-3.06,6,6,0,0,1,3,.82,6.17,6.17,0,0,1,2.22,8.36A6,6,0,0,1,227,179.3Z" stroke="#86c3db" stroke-miterlimit="10" fill="url(#c)"/>
    <path d="M393.55,282.67l-5.78-3.36a14.33,14.33,0,0,0,0-6.61l5.79-3.37a4.1,4.1,0,0,0,1.48-5.57,4,4,0,0,0-5.53-1.5l-5.78,3.37a14.21,14.21,0,0,0-2.64-2,14.61,14.61,0,0,0-3-1.31v-6.73a4.05,4.05,0,1,0-8.1,0v6.74a14.18,14.18,0,0,0-5.68,3.29l-5.77-3.36a4,4,0,0,0-5.53,1.5,4.1,4.1,0,0,0,1.48,5.57l5.78,3.36a14.33,14.33,0,0,0,0,6.61l-5.79,3.37a4.1,4.1,0,0,0-1.48,5.57,4,4,0,0,0,5.53,1.5l5.78-3.37a14.21,14.21,0,0,0,2.64,2,13.85,13.85,0,0,0,3,1.3v6.74a4.05,4.05,0,1,0,8.1,0v-6.75a14.14,14.14,0,0,0,5.67-3.29l5.78,3.37a4,4,0,0,0,5.53-1.5A4.1,4.1,0,0,0,393.55,282.67ZM371,281.3a6.17,6.17,0,0,1-2.22-8.36,6.08,6.08,0,0,1,5.27-3.06,6,6,0,0,1,3,.82,6.17,6.17,0,0,1,2.22,8.36A6,6,0,0,1,371,281.3Z" stroke="#86c3db" stroke-miterlimit="10" fill="url(#d)"/>
    <path d="M163.55,340.67l-5.78-3.36a14.33,14.33,0,0,0,0-6.61l5.79-3.37a4.1,4.1,0,0,0,1.48-5.57,4,4,0,0,0-5.53-1.5l-5.78,3.37a14.21,14.21,0,0,0-2.64-2,14.61,14.61,0,0,0-3-1.31v-6.73a4.05,4.05,0,1,0-8.1,0v6.74a14.18,14.18,0,0,0-5.68,3.29l-5.77-3.36a4,4,0,0,0-5.53,1.5,4.1,4.1,0,0,0,1.48,5.57l5.78,3.36a14.33,14.33,0,0,0,0,6.61l-5.79,3.37a4.1,4.1,0,0,0-1.48,5.57,4,4,0,0,0,5.53,1.5l5.78-3.37a14.21,14.21,0,0,0,2.64,2,13.85,13.85,0,0,0,3,1.3v6.74a4.05,4.05,0,1,0,8.1,0v-6.75a14.14,14.14,0,0,0,5.67-3.29l5.78,3.37a4,4,0,0,0,5.53-1.5A4.1,4.1,0,0,0,163.55,340.67ZM141,339.3a6.17,6.17,0,0,1-2.22-8.36,6.08,6.08,0,0,1,5.27-3.06,6,6,0,0,1,3,.82,6.17,6.17,0,0,1,2.22,8.36A6,6,0,0,1,141,339.3Z" stroke="#86c3db" stroke-miterlimit="10" fill="url(#e)"/>
</svg>
