<svg xmlns="http://www.w3.org/2000/svg" xmlns:xlink="http://www.w3.org/1999/xlink" viewBox="0 0 512 512"><defs><symbol id="a" viewBox="0 0 340 232"><path d="M263.16,20.29A40,40,0,1,1,292,88H8" fill="none" stroke="#d6dfe9" stroke-linecap="round" stroke-miterlimit="10" stroke-width="16"/><path d="M147.16,211.71A40,40,0,1,0,176,144H8" fill="none" stroke="#d6dfe9" stroke-linecap="round" stroke-miterlimit="10" stroke-width="16"/></symbol></defs><use width="340" height="232" transform="translate(86 140)" xlink:href="#a"/><path d="M405.92,334.23Q397.79,344,384.05,344t-21.87-9.77q-8.13-9.78-8.13-26.42,0-16.46,8.13-26.13,7.94-9.68,21.87-9.68,13.74,0,21.87,9.68t8,26.13Q414,324.44,405.92,334.23ZM384.05,330q12.57,0,12.58-22t-12.58-22q-12.68,0-12.68,22T384.05,330Z" fill="#374251"/></svg>