<svg xmlns="http://www.w3.org/2000/svg" xmlns:xlink="http://www.w3.org/1999/xlink" viewBox="0 0 512 512"><defs><linearGradient id="a" x1="179.4" y1="142.41" x2="226.7" y2="224.32" gradientUnits="userSpaceOnUse"><stop offset="0" stop-color="#f87171"/><stop offset="1" stop-color="#ef4444"/></linearGradient><linearGradient id="b" x1="252.52" y1="149.22" x2="291.95" y2="217.51" xlink:href="#a"/><linearGradient id="c" x1="325.64" y1="156.03" x2="357.21" y2="210.71" xlink:href="#a"/></defs><line x1="148" y1="376" x2="148" y2="136" fill="none" stroke="#d6dfe9" stroke-linecap="round" stroke-linejoin="round" stroke-width="16"/><path d="M191.41,137.06l28.75,4.2a6.37,6.37,0,0,1,5.46,6.31v73.68a6.38,6.38,0,0,1-5.46,6.32l-28.75,4.19a6.38,6.38,0,0,1-7.3-6.32V143.38A6.38,6.38,0,0,1,191.41,137.06Z" stroke="#ef4444" stroke-miterlimit="10" stroke-width="4" fill="url(#a)"/><path d="M260.6,146.14l28.75,4.19a6.39,6.39,0,0,1,5.46,6.32v55.53a6.37,6.37,0,0,1-5.46,6.31l-28.75,4.19a6.37,6.37,0,0,1-7.3-6.31V152.46A6.38,6.38,0,0,1,260.6,146.14Z" stroke="#ef4444" stroke-miterlimit="10" stroke-width="4" fill="url(#b)"/><path d="M329.79,155.22l28.75,4.19a6.39,6.39,0,0,1,5.46,6.32V203.1a6.39,6.39,0,0,1-5.46,6.32l-28.75,4.19a6.38,6.38,0,0,1-7.3-6.32V161.54A6.38,6.38,0,0,1,329.79,155.22Z" stroke="#ef4444" stroke-miterlimit="10" stroke-width="4" fill="url(#c)"/></svg>