<svg xmlns="http://www.w3.org/2000/svg" xmlns:xlink="http://www.w3.org/1999/xlink" viewBox="0 0 512 512"><defs><symbol id="a" viewBox="0 0 340 232"><path d="M263.16,20.29A40,40,0,1,1,292,88H8" fill="none" stroke="#d6dfe9" stroke-linecap="round" stroke-miterlimit="10" stroke-width="16"/><path d="M147.16,211.71A40,40,0,1,0,176,144H8" fill="none" stroke="#d6dfe9" stroke-linecap="round" stroke-miterlimit="10" stroke-width="16"/></symbol></defs><use width="340" height="232" transform="translate(86 140)" xlink:href="#a"/><path d="M388.48,294.81q11,0,17.71,6.45T413,318.59q0,11.27-7.7,18.38t-20.21,7q-12.62,0-20.6-7.7-9.54-9-9.53-27.63,0-17.51,7.65-27.09T384.82,272q10.11,0,16.79,4.57a22.29,22.29,0,0,1,9,12.95l-16.65,1q-2.11-5.49-9.24-5.48-6,0-9,4T372,302Q377.8,294.82,388.48,294.81Zm-12.71,31.57a11.5,11.5,0,0,0,8.86,3.76q5.39,0,8.27-3.27a11.87,11.87,0,0,0,2.89-8,10.61,10.61,0,0,0-3.18-8,11.21,11.21,0,0,0-8.18-3.08,11,11,0,0,0-8.08,3,12,12,0,0,0-3.37,8.23A12.26,12.26,0,0,0,375.77,326.38Z" fill="#374251"/></svg>