<svg xmlns="http://www.w3.org/2000/svg" xmlns:xlink="http://www.w3.org/1999/xlink" viewBox="0 0 64 64"><defs><clipPath id="a"><path d="M44.59,42.78,38.77,32.12,33,21.62a1.18,1.18,0,0,0-2.08,0l-5.73,10.5L19.41,42.78a1.19,1.19,0,0,0,1.05,1.76H43.54A1.19,1.19,0,0,0,44.59,42.78Z" fill="none"/></clipPath></defs><g clip-path="url(#a)"><polygon points="44.5 33.5 44.73 45.54 24.5 45.5 44.5 33.5"/><rect x="34" y="31.81" width="4" height="1.37" rx="0.5" transform="translate(-11.6 23.18) rotate(-31)"/><circle cx="36.5" cy="35.5" r="0.75"/><circle cx="25" cy="40" r="0.75"/><rect x="27.5" y="34.5" width="5" height="5" rx="1" transform="translate(-17.05 29.58) rotate(-42)"/></g><path d="M47.58,43,41,30.91,34.64,19.24a3,3,0,0,0-5.28,0L23,30.91,16.42,43a3,3,0,0,0,2.64,4.44H44.94A3,3,0,0,0,47.58,43Zm-4,1.57H20.46a1.19,1.19,0,0,1-1.05-1.76l5.82-10.66L31,21.62a1.18,1.18,0,0,1,2.08,0l5.73,10.5,5.82,10.66A1.19,1.19,0,0,1,43.54,44.54Z"/></svg>