<svg xmlns="http://www.w3.org/2000/svg" viewBox="0 0 64 64"><path d="M47.58,43,41,30.91,34.64,19.25a3,3,0,0,0-5.28,0L23,30.91,16.42,43a3,3,0,0,0,2.64,4.44H44.94A3,3,0,0,0,47.58,43ZM30.37,27.66a1.08,1.08,0,0,1,.68-.16H33a1.09,1.09,0,0,1,.69.16.69.69,0,0,1,.18.58l-.38,8.91a.76.76,0,0,1-.2.57,1,1,0,0,1-.66.15H31.43a1.08,1.08,0,0,1-.67-.15.8.8,0,0,1-.2-.57l-.35-8.91A.72.72,0,0,1,30.37,27.66ZM34,41a1.52,1.52,0,0,1-.37,1.18,2.21,2.21,0,0,1-1.38.32h-.5a2.21,2.21,0,0,1-1.38-.32A1.52,1.52,0,0,1,30,41v-.37a1.52,1.52,0,0,1,.37-1.18,2.21,2.21,0,0,1,1.38-.32h.5a2.21,2.21,0,0,1,1.38.32A1.52,1.52,0,0,1,34,40.63Z"/></svg>