<svg xmlns="http://www.w3.org/2000/svg" xmlns:xlink="http://www.w3.org/1999/xlink" viewBox="0 0 64 64"><defs><clipPath id="a"><polygon points="7.5 7.5 54.5 7.5 7.5 54.5 7.5 7.5" fill="none"/></clipPath></defs><g clip-path="url(#a)"><path d="M45.83,31.52h-.31A10.05,10.05,0,0,0,35.81,19a10,10,0,0,0-8.51,4.8,6.56,6.56,0,0,0-3.4-.95,6.71,6.71,0,0,0-6.68,6.74,6.62,6.62,0,0,0,.1,1.1A7.22,7.22,0,0,0,18.65,45l.48,0v0h26.7a6.74,6.74,0,0,0,0-13.48Z"/></g><line x1="24.89" y1="45.11" x2="28.08" y2="41.92" fill="none" stroke="#000" stroke-linecap="round" stroke-miterlimit="10" stroke-width="3"/><line x1="33.03" y1="36.97" x2="40.45" y2="29.55" fill="none" stroke="#000" stroke-linecap="round" stroke-miterlimit="10" stroke-width="3" stroke-dasharray="7 7"/><line x1="42.92" y1="27.08" x2="46.11" y2="23.89" fill="none" stroke="#000" stroke-linecap="round" stroke-miterlimit="10" stroke-width="3"/><line x1="34.89" y1="45.11" x2="38.08" y2="41.92" fill="none" stroke="#000" stroke-linecap="round" stroke-miterlimit="10" stroke-width="3"/><line x1="43.03" y1="36.97" x2="50.45" y2="29.55" fill="none" stroke="#000" stroke-linecap="round" stroke-miterlimit="10" stroke-width="3" stroke-dasharray="7 7"/><line x1="52.92" y1="27.08" x2="56.11" y2="23.89" fill="none" stroke="#000" stroke-linecap="round" stroke-miterlimit="10" stroke-width="3"/></svg>