<svg xmlns="http://www.w3.org/2000/svg" xmlns:xlink="http://www.w3.org/1999/xlink" viewBox="0 0 64 64"><defs><clipPath id="a"><path d="M45.83,47a8.75,8.75,0,0,0,2-17.25c0-.21,0-.43,0-.64A12.08,12.08,0,0,0,35.81,17a11.88,11.88,0,0,0-9.17,4.3,8.66,8.66,0,0,0-11.41,7.93A9.23,9.23,0,0,0,18.65,47V64H0V0H64V64H18.65V47Z" fill="none"/></clipPath></defs><g clip-path="url(#a)"><path d="M34.23,33.45a4.05,4.05,0,0,0,4.05,4H54.79a4.34,4.34,0,0,0,.81-8.61,3.52,3.52,0,0,0,.06-.66,4.06,4.06,0,0,0-6.13-3.48,6.08,6.08,0,0,0-11.25,3.19,6.34,6.34,0,0,0,.18,1.46h-.18A4.05,4.05,0,0,0,34.23,33.45Z"/><line x1="24.08" y1="45.01" x2="23.92" y2="45.99" fill="none" stroke="#000" stroke-linecap="round" stroke-miterlimit="10" stroke-width="2"/><line x1="31.08" y1="45.01" x2="30.92" y2="45.99" fill="none" stroke="#000" stroke-linecap="round" stroke-miterlimit="10" stroke-width="2"/><line x1="38.08" y1="45.01" x2="37.92" y2="45.99" fill="none" stroke="#000" stroke-linecap="round" stroke-miterlimit="10" stroke-width="2"/></g><path d="M45.83,31.52h-.31A10.05,10.05,0,0,0,35.81,19a10,10,0,0,0-8.51,4.8,6.56,6.56,0,0,0-3.4-.95,6.71,6.71,0,0,0-6.68,6.74,6.62,6.62,0,0,0,.1,1.1A7.22,7.22,0,0,0,18.65,45l.48,0v0h26.7a6.74,6.74,0,0,0,0-13.48Z"/></svg>