<svg xmlns="http://www.w3.org/2000/svg" xmlns:xlink="http://www.w3.org/1999/xlink" viewBox="0 0 64 64"><defs><clipPath id="a"><path d="M45.83,47a8.75,8.75,0,0,0,2-17.25c0-.21,0-.43,0-.64A12.08,12.08,0,0,0,35.81,17a11.88,11.88,0,0,0-9.17,4.3,8.66,8.66,0,0,0-11.41,7.93A9.23,9.23,0,0,0,18.65,47V64H0V0H64V64H18.65V47Z" fill="none"/></clipPath></defs><g clip-path="url(#a)"><path d="M29.33,26.68A10.61,10.61,0,0,1,18.65,16.14,10.5,10.5,0,0,1,19,13.5,10.54,10.54,0,1,0,30.5,26.61,11.48,11.48,0,0,1,29.33,26.68Z"/><path d="M26.45,45.82l-.73-.41a1.59,1.59,0,0,0,0-.81l.73-.42a.49.49,0,0,0,.18-.68.51.51,0,0,0-.69-.18l-.72.41a1.66,1.66,0,0,0-.71-.41V42.5a.51.51,0,0,0-1,0v.83a1.74,1.74,0,0,0-.71.4l-.72-.41a.51.51,0,0,0-.69.18.49.49,0,0,0,.18.68l.73.41a1.59,1.59,0,0,0,0,.81l-.73.42a.49.49,0,0,0-.18.68.5.5,0,0,0,.44.25.47.47,0,0,0,.25-.07l.72-.41a2,2,0,0,0,.33.25,1.5,1.5,0,0,0,.38.15v.83a.51.51,0,0,0,1,0v-.83a1.74,1.74,0,0,0,.71-.4l.72.41a.47.47,0,0,0,.25.07.5.5,0,0,0,.44-.25A.49.49,0,0,0,26.45,45.82Zm-2.83-.17a.75.75,0,0,1,.38-1.4.75.75,0,0,1,.38.1.75.75,0,0,1,.28,1A.77.77,0,0,1,23.62,45.65Z"/><path d="M33.45,45.82l-.73-.41a1.59,1.59,0,0,0,0-.81l.73-.42a.49.49,0,0,0,.18-.68.51.51,0,0,0-.69-.18l-.72.41a1.66,1.66,0,0,0-.71-.41V42.5a.51.51,0,0,0-1,0v.83a1.74,1.74,0,0,0-.71.4l-.72-.41a.51.51,0,0,0-.69.18.49.49,0,0,0,.18.68l.73.41a1.59,1.59,0,0,0,0,.81l-.73.42a.49.49,0,0,0-.18.68.5.5,0,0,0,.44.25.47.47,0,0,0,.25-.07l.72-.41a2,2,0,0,0,.33.25,1.5,1.5,0,0,0,.38.15v.83a.51.51,0,0,0,1,0v-.83a1.74,1.74,0,0,0,.71-.4l.72.41a.47.47,0,0,0,.25.07.5.5,0,0,0,.44-.25A.49.49,0,0,0,33.45,45.82Zm-2.83-.17a.75.75,0,0,1,.38-1.4.75.75,0,0,1,.38.1.75.75,0,0,1,.28,1A.77.77,0,0,1,30.62,45.65Z"/><path d="M40.45,45.82l-.73-.41a1.59,1.59,0,0,0,0-.81l.73-.42a.49.49,0,0,0,.18-.68.51.51,0,0,0-.69-.18l-.72.41a1.66,1.66,0,0,0-.71-.41V42.5a.51.51,0,0,0-1,0v.83a1.74,1.74,0,0,0-.71.4l-.72-.41a.51.51,0,0,0-.69.18.49.49,0,0,0,.18.68l.73.41a1.59,1.59,0,0,0,0,.81l-.73.42a.49.49,0,0,0-.18.68.5.5,0,0,0,.44.25.47.47,0,0,0,.25-.07l.72-.41a2,2,0,0,0,.33.25,1.5,1.5,0,0,0,.38.15v.83a.51.51,0,0,0,1,0v-.83a1.74,1.74,0,0,0,.71-.4l.72.41a.47.47,0,0,0,.25.07.5.5,0,0,0,.44-.25A.49.49,0,0,0,40.45,45.82Zm-2.83-.17a.75.75,0,0,1,.38-1.4.75.75,0,0,1,.38.1.75.75,0,0,1,.28,1A.77.77,0,0,1,37.62,45.65Z"/></g><path d="M45.83,31.52h-.31A10.05,10.05,0,0,0,35.81,19a10,10,0,0,0-8.51,4.8,6.56,6.56,0,0,0-3.4-.95,6.71,6.71,0,0,0-6.68,6.74,6.62,6.62,0,0,0,.1,1.1A7.22,7.22,0,0,0,18.65,45l.48,0v0h26.7a6.74,6.74,0,0,0,0-13.48Z"/></svg>