<svg xmlns="http://www.w3.org/2000/svg" viewBox="0 0 64 64"><path d="M33.06,48c0-1.86.1-13.69.31-16.47a95.21,95.21,0,0,1,2.06-10.59A5.34,5.34,0,0,0,34.36,16s1.68,1.67-.76,9c-2.34,7-1.74,21.74-1.69,23Z"/><path d="M36.17,35c-2.09,4.83-2.37,10.81-2.4,13h2.11c-.16-2.46-.43-9.56,1.71-13.46,2.62-4.78,4.91-4,4.91-4S38.79,29,36.17,35Z"/><path d="M32.69,48h1.6c.19-2.64.89-11,2.46-15.37a21,21,0,0,0,.54-10.74A23.22,23.22,0,0,1,35.49,33C33.37,37.9,32.81,45.77,32.69,48Z"/><path d="M30.29,48h2.06c-.25-1.44-2-11.46-3.81-15.11-2-3.94-3.44-5.78-7-7.18,0,0,4.4,1.89,6.47,10.38A105.75,105.75,0,0,1,30.29,48Z"/><path d="M30.33,48c-.49-2.37-2.47-10.22-7.37-12.43A24.41,24.41,0,0,1,27,41.72,27.72,27.72,0,0,1,28.58,48Z"/><circle cx="32" cy="16" r="1.5"/><circle cx="37" cy="21" r="2"/><circle cx="27" cy="21" r="2"/><circle cx="19" cy="22" r="1.5"/><circle cx="45" cy="22" r="1.5"/><circle cx="40" cy="17" r="1"/><circle cx="24" cy="17" r="1"/></svg>