<svg xmlns="http://www.w3.org/2000/svg" xmlns:xlink="http://www.w3.org/1999/xlink" viewBox="0 0 64 64"><defs><clipPath id="a"><path d="M47.23,28.5a7.8,7.8,0,0,0-5.63,2.38,6.06,6.06,0,0,0-1.34-.16,5.91,5.91,0,0,0-5.86,5.11,6.16,6.16,0,0,0-3.4,5.5H4.58V8.65H47.23Z" fill="none"/></clipPath><clipPath id="b"><path d="M11.5,41H4.58V8.65H32V21A20.28,20.28,0,0,0,11.5,41" fill="none"/></clipPath><clipPath id="c"><polygon points="20 27 32 23 32 11 6 11 6 35 14 35 20 27" fill="none"/></clipPath></defs><g clip-path="url(#a)"><path d="M13.5,41A18.25,18.25,0,0,1,32,23,18.25,18.25,0,0,1,50.5,41" fill="none" stroke="#000" stroke-miterlimit="10" stroke-width="3"/><path d="M19.5,41A12.26,12.26,0,0,1,32,29,12.26,12.26,0,0,1,44.5,41" fill="none" stroke="#000" stroke-miterlimit="10" stroke-width="3"/><g clip-path="url(#b)"><g clip-path="url(#c)"><circle cx="19" cy="24" r="5"/><path d="M19,15.67V12.5m0,23V32.33m5.89-14.22,2.24-2.24M10.87,32.13l2.24-2.24m0-11.78-2.24-2.24M27.13,32.13l-2.24-2.24M7.5,24h3.17M30.5,24H27.33" fill="none" stroke="#000" stroke-linecap="round" stroke-miterlimit="10" stroke-width="2"/></g></g></g><path d="M53.09,37.72h-.17a5.86,5.86,0,0,0-10.67-4.46,3.9,3.9,0,0,0-5.9,3.34,4.23,4.23,0,0,0,0,.63,4.17,4.17,0,0,0,.79,8.26h15.9a3.89,3.89,0,1,0,0-7.78Z"/></svg>