<svg xmlns="http://www.w3.org/2000/svg" xmlns:xlink="http://www.w3.org/1999/xlink" viewBox="0 0 64 64"><defs><clipPath id="a"><path d="M50.43,36.61A2,2,0,0,0,48.5,34.1h-.21a15.84,15.84,0,0,1-1.63.09A14.68,14.68,0,0,1,31.88,19.65,14.09,14.09,0,0,1,32.37,16a2,2,0,0,0-1.94-2.51h-.21V4.75H58.51V36.61Z" fill="none"/></clipPath><clipPath id="b"><polygon points="29 16 29 7 57 7 57 37 48 37 39 36 29 26 29 16" fill="none"/></clipPath></defs><g clip-path="url(#a)"><g clip-path="url(#b)"><circle cx="32" cy="32" r="10.5"/><path d="M32,15.71V9.5m0,45V48.29M43.52,20.48l4.39-4.39M16.09,47.91l4.39-4.39m0-23-4.39-4.39M47.91,47.91l-4.39-4.39M15.71,32H9.5m45,0H48.29" fill="none" stroke="#000" stroke-linecap="round" stroke-miterlimit="10" stroke-width="3"/></g></g><path d="M46.66,36.2A16.66,16.66,0,0,1,29.88,19.65a16.29,16.29,0,0,1,.55-4.15A16.56,16.56,0,1,0,48.5,36.1C47.89,36.16,47.28,36.2,46.66,36.2Z"/></svg>