<?xml version="1.0" encoding="UTF-8"?><svg xmlns="http://www.w3.org/2000/svg" xmlns:xlink="http://www.w3.org/1999/xlink" viewBox="0 0 512 512"><defs><style>.ii,.ij,.ik{fill:none;}.ij,.ik{stroke:#000;stroke-linejoin:round;stroke-width:15px;}.il{clip-path:url(#d);}.ik{stroke-linecap:round;}</style><symbol id="a" viewBox="0 0 214.26 140.12"><path d="M7.5,100.18c0,17.91,14.52,32.44,32.44,32.44H169.69v-.12c.77,.05,1.53,.12,2.32,.12,19.19,0,34.75-15.56,34.75-34.75,0-16.98-12.18-31.09-28.27-34.13,.28-1.72,.46-3.47,.46-5.26,0-17.91-14.52-32.44-32.44-32.44-6.06,0-11.71,1.69-16.56,4.58-8.57-13.86-23.87-23.12-41.36-23.12-26.87,0-48.66,21.78-48.66,48.66,0,4.03,.54,7.92,1.46,11.66-.49-.02-.97-.07-1.46-.07-17.91,0-32.44,14.52-32.44,32.44Z" style="fill:none; stroke:#000; stroke-linejoin:round; stroke-width:15px;"/></symbol><symbol id="b" viewBox="0 0 359 231"><path d="M295.5,223.5c30.93,0,56-25.07,56-56s-25.07-56-56-56c-.85,0-1.68,.09-2.53,.13,1.59-6.46,2.53-13.18,2.53-20.13,0-46.39-37.61-84-84-84-30.2,0-56.6,15.99-71.4,39.92-8.38-4.99-18.13-7.92-28.6-7.92-30.93,0-56,25.07-56,56,0,3.1,.32,6.12,.8,9.08-27.78,5.25-48.8,29.61-48.8,58.92,0,33.14,26.86,60,60,60" style="fill:none; stroke:#000; stroke-linecap:round; stroke-linejoin:round; stroke-width:15px;"/></symbol><clipPath id="d"><path d="M369.5,299c0-34.63-23.91-63.78-56.09-71.81,.06-1.4,.09-2.8,.09-4.19,0-56.24-45.76-102-102-102V0h225.53V299h-67.53Z" style="fill:none;"/></clipPath><symbol id="c" viewBox="0 0 437.03 362.5"><g><use width="359" height="231" transform="translate(0 131.5)" xlink:href="#b"/><g style="clip-path:url(#d);"><use width="214.26" height="140.12" transform="translate(195.51 156.01)" xlink:href="#a"/></g></g></symbol><symbol id="e" viewBox="0 0 96 176"><polygon points="32 0 0 96 32 96 16 176 96 64 48 64 80 0 32 0"/></symbol><symbol id="f" viewBox="0 0 128 56"><g><path d="M8,56c-4.42,0-8-3.58-8-8V8C0,3.58,3.58,0,8,0s8,3.58,8,8V48c0,4.42-3.58,8-8,8Z"/><path d="M64,56c-4.42,0-8-3.58-8-8V8c0-4.42,3.58-8,8-8s8,3.58,8,8V48c0,4.42-3.58,8-8,8Z"/><path d="M120,56c-4.42,0-8-3.58-8-8V8c0-4.42,3.58-8,8-8s8,3.58,8,8V48c0,4.42-3.58,8-8,8Z"/></g></symbol></defs><g id="g"/><g id="h"/><g id="i"/><g id="j"/><g id="k"/><g id="l"/><g id="m"/><g id="n"/><g id="o"/><g id="p"/><g id="q"/><g id="r"/><g id="s"/><g id="t"/><g id="u"/><g id="v"/><g id="w"/><g id="x"/><g id="y"/><g id="a`"/><g id="aa"/><g id="ab"/><g id="ac"/><g id="ad"/><g id="ae"/><g id="af"/><g id="ag"/><g id="ah"/><g id="ai"/><g id="aj"/><g id="ak"/><g id="al"/><g id="am"/><g id="an"/><g id="ao"/><g id="ap"/><g id="aq"/><g id="ar"/><g id="as"/><g id="at"/><g id="au"/><g id="av"/><g id="aw"/><g id="ax"/><g id="ay"/><g id="b`"/><g id="ba"/><g id="bb"/><g id="bc"/><g id="bd"/><g id="be"/><g id="bf"/><g id="bg"/><g id="bh"/><g id="bi"/><g id="bj"/><g id="bk"/><g id="bl"/><g id="bm"/><g id="bn"/><g id="bo"/><g id="bp"/><g id="bq"/><g id="br"/><g id="bs"/><g id="bt"/><g id="bu"/><g id="bv"/><g id="bw"/><g id="bx"/><g id="by"/><g id="c`"/><g id="ca"/><g id="cb"/><g id="cc"/><g id="cd"/><g id="ce"/><g id="cf"/><g id="cg"/><g id="ch"/><g id="ci"/><g id="cj"/><g id="ck"/><g id="cl"/><g id="cm"/><g id="cn"/><g id="co"/><g id="cp"/><g id="cq"/><g id="cr"/><g id="cs"/><g id="ct"/><g id="cu"/><g id="cv"/><g id="cw"/><g id="cx"/><g id="cy"/><g id="d`"/><g id="da"/><g id="db"/><g id="dc"/><g id="dd"/><g id="de"/><g id="df"/><g id="dg"/><g id="dh"/><g id="di"/><g id="dj"/><g id="dk"/><g id="dl"/><g id="dm"/><g id="dn"/><g id="do"/><g id="dp"/><g id="dq"/><g id="dr"/><g id="ds"><use width="437.03" height="362.5" transform="translate(64.34 9)" xlink:href="#c"/><use width="128" height="56" transform="translate(192 344)" xlink:href="#f"/><use width="96" height="176" transform="translate(208 293)" xlink:href="#e"/></g><g id="dt"/><g id="du"/><g id="dv"/><g id="dw"/><g id="dx"/><g id="dy"/><g id="e`"/><g id="ea"/><g id="eb"/><g id="ec"/><g id="ed"/><g id="ee"/><g id="ef"/><g id="eg"/><g id="eh"/><g id="ei"/><g id="ej"/><g id="ek"/><g id="el"/><g id="em"/><g id="en"/><g id="eo"/><g id="ep"/><g id="eq"/><g id="er"/><g id="es"/><g id="et"/><g id="eu"/><g id="ev"/><g id="ew"/><g id="ex"/><g id="ey"/><g id="f`"/><g id="fa"/><g id="fb"/><g id="fc"/><g id="fd"/><g id="fe"/><g id="ff"/><g id="fg"/><g id="fh"/><g id="fi"/><g id="fj"/><g id="fk"/><g id="fl"/><g id="fm"/><g id="fn"/><g id="fo"/><g id="fp"/><g id="fq"/><g id="fr"/><g id="fs"/><g id="ft"/><g id="fu"/><g id="fv"/><g id="fw"/><g id="fx"/><g id="fy"/><g id="g`"/><g id="ga"/><g id="gb"/><g id="gc"/><g id="gd"/><g id="ge"/><g id="gf"/><g id="gg"/><g id="gh"/><g id="gi"/><g id="gj"/><g id="gk"/><g id="gl"/><g id="gm"/><g id="gn"/><g id="go"/><g id="gp"/><g id="gq"/><g id="gr"/><g id="gs"/><g id="gt"/><g id="gu"/><g id="gv"/><g id="gw"/><g id="gx"/><g id="gy"/><g id="h`"/><g id="ha"/><g id="hb"/><g id="hc"/><g id="hd"/><g id="he"/><g id="hf"/><g id="hg"/><g id="hh"/><g id="hi"/><g id="hj"/><g id="hk"/><g id="hl"/><g id="hm"/><g id="hn"/><g id="ho"/><g id="hp"/><g id="hq"/><g id="hr"/><g id="hs"/><g id="ht"/><g id="hu"/><g id="hv"/><g id="hw"/><g id="hx"/><g id="hy"/><g id="i`"/><g id="ia"/><g id="ib"/><g id="ic"/><g id="id"/><g id="ie"/><g id="if"/><g id="ig"/><g id="ih"/></svg>