<svg xmlns="http://www.w3.org/2000/svg" xmlns:xlink="http://www.w3.org/1999/xlink" viewBox="0 0 64 64"><defs><clipPath id="a"><path d="M46.5,37.17A4.35,4.35,0,0,0,44,33.27,5.62,5.62,0,0,0,38.4,28.5a5.72,5.72,0,0,0-3.75,1.38,4.18,4.18,0,0,0-.61-.05,4.44,4.44,0,0,0-4.33,3.33,4.43,4.43,0,0,0-.86,7H13.42V10H46.5Z" fill="none"/></clipPath></defs><path d="M25.45,46.67a2.29,2.29,0,0,1,1.66.6,2,2,0,0,1,.62,1.46,2.09,2.09,0,0,1-.52,1.51,5.73,5.73,0,0,1-1.89,1.07l-.21.07a1.32,1.32,0,0,0-.22.08l-.19.08a.52.52,0,0,0-.16.12.24.24,0,0,0-.05.14v.07h2.74a.3.3,0,0,1,.37.37v.59a.41.41,0,0,1-.08.28.39.39,0,0,1-.29.09h-3.9a.35.35,0,0,1-.28-.09.41.41,0,0,1-.08-.28v-.69a2,2,0,0,1,.14-.77,1.57,1.57,0,0,1,.42-.57,4.33,4.33,0,0,1,.53-.37,5.07,5.07,0,0,1,.64-.29,5.06,5.06,0,0,0,1.12-.56,1,1,0,0,0,.39-.79.74.74,0,0,0-.22-.55.78.78,0,0,0-.6-.23,1,1,0,0,0-1,.66.49.49,0,0,1-.19.25.4.4,0,0,1-.28,0l-.69-.25a.32.32,0,0,1-.22-.47A2.34,2.34,0,0,1,25.45,46.67Z"/><path d="M31.33,46.89a.35.35,0,0,1,.09.28v5.66a.32.32,0,0,1-.37.37h-.73a.37.37,0,0,1-.29-.09.41.41,0,0,1-.08-.28V48.6l-.88.5a.34.34,0,0,1-.55-.14l-.32-.57a.37.37,0,0,1-.05-.29.69.69,0,0,1,.23-.21L30,47a1,1,0,0,1,.52-.15h.52A.36.36,0,0,1,31.33,46.89Z"/><path d="M35.15,50.25a.44.44,0,0,1,.08.29v.55a.44.44,0,0,1-.08.29.42.42,0,0,1-.29.08h-2a.46.46,0,0,1-.29-.08.44.44,0,0,1-.08-.29v-.55a.44.44,0,0,1,.08-.29.46.46,0,0,1,.29-.08h2A.42.42,0,0,1,35.15,50.25Z"/><path d="M36.77,47.27a3,3,0,0,1,3.61,0A2.14,2.14,0,0,1,41,48.91v2.16a2.17,2.17,0,0,1-.65,1.66,2.54,2.54,0,0,1-1.8.6,2.51,2.51,0,0,1-1.81-.61,2.12,2.12,0,0,1-.66-1.65V48.91A2.11,2.11,0,0,1,36.77,47.27Zm2.54,1a1,1,0,0,0-.73-.23,1.07,1.07,0,0,0-.75.23.81.81,0,0,0-.26.65V51.1a.84.84,0,0,0,.26.66,1.12,1.12,0,0,0,.75.23,1.1,1.1,0,0,0,.73-.23.84.84,0,0,0,.26-.66V48.89A.81.81,0,0,0,39.31,48.24Z"/><g clip-path="url(#a)"><path d="M42.66,29.06A12,12,0,0,1,30.86,14,12,12,0,1,0,44,29,11.9,11.9,0,0,1,42.66,29.06Z"/></g><path d="M42.06,34.83H42a3.34,3.34,0,0,0,.11-.84,3.59,3.59,0,0,0-3.66-3.5,3.72,3.72,0,0,0-3.12,1.66A2.58,2.58,0,0,0,34,31.83a2.4,2.4,0,0,0-2.44,2.34,2.45,2.45,0,0,0,0,.38A2.52,2.52,0,0,0,29.5,37a2.56,2.56,0,0,0,2.62,2.5h9.94a2.34,2.34,0,1,0,0-4.67Z"/></svg>