<svg xmlns="http://www.w3.org/2000/svg" xmlns:xlink="http://www.w3.org/1999/xlink" viewBox="0 0 64 64"><defs><clipPath id="a"><rect y="4.5" width="64" height="32" fill="none"/></clipPath></defs><g clip-path="url(#a)"><circle cx="32" cy="39" r="7.7"/><path d="M32,27.05V22.5m0,33V51m8.45-20.4,3.22-3.22M20.33,50.67l3.22-3.22m0-16.9-3.22-3.22M43.67,50.67l-3.22-3.22M20.05,39H15.5m33,0H44" fill="none" stroke="#000" stroke-linecap="round" stroke-miterlimit="10" stroke-width="3"/></g><line x1="21.5" y1="39" x2="42.5" y2="39" fill="none" stroke="#000" stroke-linecap="round" stroke-linejoin="round"/><path d="M27.44,49.14c1.62,0,2.42.69,2.42,2.08a1.93,1.93,0,0,1-.66,1.55,2.82,2.82,0,0,1-1.85.56,2.55,2.55,0,0,1-1.86-.63,2.36,2.36,0,0,1-.65-1.76V49.06a2.36,2.36,0,0,1,.65-1.76,2.59,2.59,0,0,1,1.86-.63,2.27,2.27,0,0,1,2.4,1.44.31.31,0,0,1,0,.29.43.43,0,0,1-.25.18l-.65.24a.35.35,0,0,1-.28,0,.53.53,0,0,1-.19-.25A1,1,0,0,0,27.36,48a.93.93,0,0,0-1.06,1v.19A5.3,5.3,0,0,1,27.44,49.14ZM27.35,52q1,0,1-.78a.69.69,0,0,0-.24-.58,1.3,1.3,0,0,0-.81-.19,3.12,3.12,0,0,0-1.05.14V51C26.3,51.67,26.65,52,27.35,52Z"/><path d="M33.33,50.25a.44.44,0,0,1,.08.29v.55a.3.3,0,0,1-.37.37H31a.3.3,0,0,1-.37-.37v-.55a.3.3,0,0,1,.37-.37h2A.44.44,0,0,1,33.33,50.25Z"/><path d="M36.56,50.86a2.72,2.72,0,0,1-1.83-.52,2,2,0,0,1-.59-1.56,1.93,1.93,0,0,1,.66-1.55,2.82,2.82,0,0,1,1.85-.56,2.55,2.55,0,0,1,1.86.63,2.36,2.36,0,0,1,.65,1.76v1.88a2.36,2.36,0,0,1-.65,1.76,2.59,2.59,0,0,1-1.86.63,2.3,2.3,0,0,1-2.41-1.44.34.34,0,0,1,0-.29.4.4,0,0,1,.24-.18l.66-.24a.35.35,0,0,1,.28,0,.6.6,0,0,1,.19.25,1,1,0,0,0,1,.58.93.93,0,0,0,1.06-1.05v-.18A5.43,5.43,0,0,1,36.56,50.86ZM36.65,48q-1,0-1,.78a.69.69,0,0,0,.24.58,1.3,1.3,0,0,0,.81.19,3.12,3.12,0,0,0,1.05-.14V49C37.7,48.33,37.35,48,36.65,48Z"/></svg>