<svg xmlns="http://www.w3.org/2000/svg" viewBox="0 0 64 64"><path d="M22.18,25.68a2.22,2.22,0,1,1,1.6,3.76H8" fill="none" stroke="#000" stroke-linecap="round" stroke-linejoin="round" stroke-width="2"/><path d="M15.73,36.32a2.22,2.22,0,1,0,1.6-3.76H8" fill="none" stroke="#000" stroke-linecap="round" stroke-linejoin="round" stroke-width="2"/><path d="M24.28,44.76a3,3,0,0,1-3-5.2l.27-.15L45.32,25.69" fill="none" stroke="#000" stroke-linecap="round" stroke-linejoin="round" stroke-width="2"/><path d="M55.12,37.55c-5.74,3.31-13.75.18-17.9-7s-2.84-15.67,2.9-19l.16,1.75A8.92,8.92,0,0,0,44,19.61l1.27.86,0,1a8.9,8.9,0,0,0,3.87,6.71l.81.51.11,1.53a8.86,8.86,0,0,0,3.6,6.36Z"/></svg>