<svg xmlns="http://www.w3.org/2000/svg" xmlns:xlink="http://www.w3.org/1999/xlink" viewBox="0 0 64 64"><defs><clipPath id="a"><path d="M8,8H56V32H41a9,9,0,0,0-9,9V56H8Z" fill="none"/></clipPath></defs><g clip-path="url(#a)"><circle cx="32" cy="32" r="10.5"/><path d="M32,15.71V9.5m0,45V48.29M43.52,20.48l4.39-4.39M16.09,47.91l4.39-4.39m0-23-4.39-4.39M47.91,47.91l-4.39-4.39M15.71,32H9.5m45,0H48.29" fill="none" stroke="#000" stroke-linecap="round" stroke-miterlimit="10" stroke-width="3"/></g><rect x="35" y="35" width="18" height="18" rx="6"/><path d="M42,40.6a3,3,0,0,1,2-.6,3.26,3.26,0,0,1,2.06.55,1.87,1.87,0,0,1,.7,1.57,1.91,1.91,0,0,1-.86,1.65A2,2,0,0,1,47,45.65a2.12,2.12,0,0,1-.74,1.72A3.45,3.45,0,0,1,44,48c-2,0-3-.72-3-2.15A2,2,0,0,1,42.11,44a2,2,0,0,1-.87-1.78A2,2,0,0,1,42,40.6Zm3.17,4.83a.48.48,0,0,0-.09-.19.53.53,0,0,0-.17-.16L44.7,45a1.58,1.58,0,0,0-.26-.1l-.28-.07-.33-.08-.35-.08a1.09,1.09,0,0,0-.73,1c0,.55.41.83,1.24.83a1.54,1.54,0,0,0,.92-.21.72.72,0,0,0,.28-.62A.62.62,0,0,0,45.15,45.43Zm-.37-3.74a1.31,1.31,0,0,0-.77-.2c-.68,0-1,.27-1,.79a.64.64,0,0,0,.24.55,2.3,2.3,0,0,0,.73.32l.45.11a1,1,0,0,0,.65-1A.68.68,0,0,0,44.78,41.69Z" fill="#fff"/></svg>