<svg xmlns="http://www.w3.org/2000/svg" viewBox="0 0 64 64"><path d="M25.15,37.15l-3,3a.48.48,0,0,0,0,.7.48.48,0,0,0,.7,0l3-3a.49.49,0,0,0-.7-.7Z" fill="none"/><path d="M25.5,32a.5.5,0,0,0-.5-.5H19a.5.5,0,0,0,0,1h6A.5.5,0,0,0,25.5,32Z" fill="none"/><path d="M38.5,27a.47.47,0,0,0,.35-.15l3-3a.49.49,0,0,0-.7-.7l-3,3a.48.48,0,0,0,0,.7A.47.47,0,0,0,38.5,27Z" fill="none"/><path d="M22.85,23.15a.49.49,0,0,0-.7.7l3,3a.48.48,0,0,0,.7,0,.48.48,0,0,0,0-.7Z" fill="none"/><path d="M39,32a.5.5,0,0,0,.5.5h6a.5.5,0,0,0,0-1h-6A.5.5,0,0,0,39,32Z" fill="none"/><path d="M38.85,37.15a.49.49,0,0,0-.7.7l3,3a.48.48,0,0,0,.7,0,.48.48,0,0,0,0-.7Z" fill="none"/><path d="M33,29.18V20.5a1,1,0,0,0-.5-.85V19a.5.5,0,0,0-1,0v.65a1,1,0,0,0-.5.85v8.68a3,3,0,0,0,0,5.64v.68a1,1,0,0,0,2,0v-.68a3,3,0,0,0,0-5.64Z" fill="none"/><path d="M32,14A18,18,0,1,0,50,32,18,18,0,0,0,32,14Zm6.15,12.15,3-3a.49.49,0,0,1,.7.7l-3,3a.48.48,0,0,1-.7,0A.48.48,0,0,1,38.15,26.15ZM19,32.5a.5.5,0,0,1,0-1h6a.5.5,0,0,1,0,1Zm6.85,5.35-3,3a.48.48,0,0,1-.7,0,.48.48,0,0,1,0-.7l3-3a.49.49,0,0,1,.7.7Zm0-11a.48.48,0,0,1-.7,0l-3-3a.49.49,0,0,1,.7-.7l3,3A.48.48,0,0,1,25.85,26.85Zm7.15,8v.68a1,1,0,0,1-2,0v-.68a3,3,0,0,1,0-5.64V20.5a1,1,0,0,1,.5-.85V19a.5.5,0,0,1,1,0v.65a1,1,0,0,1,.5.85v8.68a3,3,0,0,1,0,5.64Zm8.85,6a.48.48,0,0,1-.7,0l-3-3a.49.49,0,0,1,.7-.7l3,3A.48.48,0,0,1,41.85,40.85ZM46,32a.5.5,0,0,1-.5.5h-6a.5.5,0,0,1,0-1h6A.5.5,0,0,1,46,32Z"/></svg>