<svg xmlns="http://www.w3.org/2000/svg" viewBox="0 0 64 64"><circle cx="32" cy="32" r="10.5"/><path d="M46.79,32a1.5,1.5,0,0,0,1.5,1.5H54.5a1.5,1.5,0,0,0,0-3H48.29A1.5,1.5,0,0,0,46.79,32Z"/><path d="M43.52,22a1.51,1.51,0,0,0,1.06-.44L49,17.15A1.5,1.5,0,0,0,46.85,15l-4.39,4.39a1.49,1.49,0,0,0,0,2.12A1.51,1.51,0,0,0,43.52,22Z"/><path d="M19.42,21.54a1.5,1.5,0,0,0,2.12,0,1.49,1.49,0,0,0,0-2.12L17.15,15A1.5,1.5,0,0,0,15,17.15Z"/><path d="M17.15,49l4.39-4.39a1.5,1.5,0,1,0-2.12-2.12L15,46.85A1.49,1.49,0,0,0,15,49a1.5,1.5,0,0,0,2.12,0Z"/><path d="M9.5,33.5h6.21a1.5,1.5,0,0,0,0-3H9.5a1.5,1.5,0,0,0,0,3Z"/><path d="M33.5,54.5V48.29a1.5,1.5,0,1,0-3,0V54.5a1.5,1.5,0,0,0,3,0Z"/><path d="M47.91,49.41A1.51,1.51,0,0,0,49,49a1.49,1.49,0,0,0,0-2.12l-4.39-4.39a1.5,1.5,0,1,0-2.12,2.12L46.85,49A1.51,1.51,0,0,0,47.91,49.41Z"/><path d="M32,17.21a1.5,1.5,0,0,0,1.5-1.5V9.5a1.5,1.5,0,0,0-3,0v6.21A1.5,1.5,0,0,0,32,17.21Z"/></svg>