<svg xmlns="http://www.w3.org/2000/svg" viewBox="0 0 64 64"><path d="M23,26a1.68,1.68,0,0,0-.51,1.23,1.61,1.61,0,0,0,.51,1.2,1.65,1.65,0,0,0,1.22.51,1.69,1.69,0,0,0,1.22-.51,1.61,1.61,0,0,0,.51-1.2,1.71,1.71,0,0,0-.5-1.23,1.65,1.65,0,0,0-1.23-.52A1.63,1.63,0,0,0,23,26Z" fill="none"/><path d="M21.47,24.42a3.95,3.95,0,0,0,0,5.56,3.8,3.8,0,0,0,2.78,1.16,4,4,0,0,0,3.92-3.94,3.88,3.88,0,0,0-3.92-3.91A3.79,3.79,0,0,0,21.47,24.42ZM26,27.22a1.61,1.61,0,0,1-.51,1.2,1.69,1.69,0,0,1-1.22.51A1.65,1.65,0,0,1,23,28.42a1.61,1.61,0,0,1-.51-1.2A1.68,1.68,0,0,1,23,26a1.63,1.63,0,0,1,1.22-.52,1.65,1.65,0,0,1,1.23.52A1.71,1.71,0,0,1,26,27.22Z"/><path d="M37.06,40.88q5.13,0,6.55-4a.75.75,0,0,0-.53-1.06l-1.3-.45a.75.75,0,0,0-.64-.06,1,1,0,0,0-.41.56c-.55,1.49-1.77,2.23-3.67,2.23a4.09,4.09,0,0,1-2.85-.89,3.24,3.24,0,0,1-1-2.54v-5.3a3.23,3.23,0,0,1,1-2.54,4.19,4.19,0,0,1,2.85-.87c1.92,0,3.14.73,3.67,2.21a1,1,0,0,0,.38.54.88.88,0,0,0,.65,0l1.32-.46a.72.72,0,0,0,.5-1.05c-.94-2.67-3.12-4-6.52-4A7.12,7.12,0,0,0,32,24.79a5.94,5.94,0,0,0-1.79,4.57v5.26A6,6,0,0,0,32,39.21,7.17,7.17,0,0,0,37.06,40.88Z"/></svg>