<svg xmlns="http://www.w3.org/2000/svg" viewBox="0 0 64 64"><path d="M18.65,45l.48,0v0h5.58a2.41,2.41,0,0,1-.21-.24A2.94,2.94,0,0,1,24,42.52l.16-1A3,3,0,0,1,27.07,39a3,3,0,0,1,3,3.48l-.16,1A3,3,0,0,1,29.15,45H45.83a6.74,6.74,0,0,0,0-13.48h-.31A10.05,10.05,0,0,0,35.81,19a10,10,0,0,0-8.51,4.8,6.56,6.56,0,0,0-3.4-.95,6.71,6.71,0,0,0-6.68,6.74,6.62,6.62,0,0,0,.1,1.1A7.22,7.22,0,0,0,18.65,45Z"/><path d="M26.09,41.85l-.16,1A1,1,0,0,0,26.77,44h.15a1,1,0,0,0,1-.84l.16-1a1,1,0,0,0-2-.31Z"/><path d="M29.09,51.85l-.16,1A1,1,0,0,0,29.77,54h.15a1,1,0,0,0,1-.84l.16-1a1,1,0,0,0-2-.31Z"/><path d="M35.09,46.85l-.16,1A1,1,0,0,0,35.77,49h.15a1,1,0,0,0,1-.84l.16-1a1,1,0,0,0-2-.31Z"/></svg>