<svg xmlns="http://www.w3.org/2000/svg" viewBox="0 0 64 64"><path d="M27.3,23.8a6.56,6.56,0,0,0-3.4-.95,6.71,6.71,0,0,0-6.68,6.74,6.62,6.62,0,0,0,.1,1.1,7.23,7.23,0,0,0-.16,14.15L41.33,20.67a9.95,9.95,0,0,0-14,3.13Z"/><path d="M27,40.86l-3.18,3.19a1.51,1.51,0,0,0,0,2.12,1.53,1.53,0,0,0,1.06.44A1.49,1.49,0,0,0,26,46.17L29.14,43A1.51,1.51,0,1,0,27,40.86Z"/><path d="M34.09,38l4.95-5A1.5,1.5,0,1,0,36.92,31l-5,4.95A1.51,1.51,0,0,0,34.09,38Z"/><path d="M42.92,28.58A1.53,1.53,0,0,0,44,28.14L47.17,25a1.5,1.5,0,0,0-2.12-2.12L41.86,26a1.51,1.51,0,0,0,1.06,2.57Z"/><path d="M33.83,46.17a1.53,1.53,0,0,0,1.06.44A1.49,1.49,0,0,0,36,46.17L39.14,43A1.51,1.51,0,1,0,37,40.86l-3.18,3.19A1.51,1.51,0,0,0,33.83,46.17Z"/><path d="M46.92,31l-5,4.95A1.51,1.51,0,0,0,44.09,38l4.95-5A1.5,1.5,0,1,0,46.92,31Z"/><path d="M55.05,22.83,51.86,26A1.51,1.51,0,0,0,54,28.14L57.17,25a1.5,1.5,0,0,0-2.12-2.12Z"/></svg>