<svg xmlns="http://www.w3.org/2000/svg" viewBox="0 0 64 64"><path d="M30.43,15.5A16.64,16.64,0,0,0,15.5,32a16.38,16.38,0,0,0,3.92,10.63L32.9,29.1a16.19,16.19,0,0,1-2.47-13.6Z"/><path d="M26,46.17,29.14,43A1.51,1.51,0,1,0,27,40.86l-3.18,3.19a1.51,1.51,0,0,0,0,2.12,1.53,1.53,0,0,0,1.06.44A1.49,1.49,0,0,0,26,46.17Z"/><path d="M32,38a1.53,1.53,0,0,0,2.13,0l4.95-5A1.5,1.5,0,1,0,36.92,31l-5,4.95A1.52,1.52,0,0,0,32,38Z"/><path d="M44,28.14,47.17,25a1.5,1.5,0,0,0-2.12-2.12L41.86,26A1.51,1.51,0,0,0,44,28.14Z"/><path d="M37,40.86l-3.18,3.19a1.51,1.51,0,0,0,0,2.12,1.53,1.53,0,0,0,1.06.44A1.49,1.49,0,0,0,36,46.17L39.14,43A1.51,1.51,0,1,0,37,40.86Z"/><path d="M49,31a1.51,1.51,0,0,0-2.12,0l-5,4.95A1.51,1.51,0,0,0,44.09,38l4.95-5A1.51,1.51,0,0,0,49,31Z"/><path d="M55.05,22.83,51.86,26A1.51,1.51,0,0,0,54,28.14L57.17,25a1.5,1.5,0,0,0-2.12-2.12Z"/></svg>