<svg xmlns="http://www.w3.org/2000/svg" viewBox="0 0 64 64"><path d="M47.25,17a6.44,6.44,0,0,0-4.69,2,1.5,1.5,0,0,0,2.17,2.08A3.43,3.43,0,0,1,47.25,20a3.5,3.5,0,0,1,0,7H11.75a1.5,1.5,0,0,0,0,3h35.5a6.5,6.5,0,0,0,0-13Z"/><path d="M36.25,40.5a3.5,3.5,0,0,1-3.5,3.5,3.43,3.43,0,0,1-2.52-1.08A1.5,1.5,0,0,0,28.06,45a6.44,6.44,0,0,0,4.69,2,6.5,6.5,0,0,0,0-13h-21a1.5,1.5,0,0,0,0,3h21A3.5,3.5,0,0,1,36.25,40.5Z"/><path d="M31.5,39.5a1,1,0,0,0-1-1h-9a1,1,0,0,0,0,2h9A1,1,0,0,0,31.5,39.5Z"/><path d="M11.5,25.5h9a1,1,0,0,0,0-2h-9a1,1,0,0,0,0,2Z"/><path d="M36.5,33a1,1,0,0,0,0-2h-9a1,1,0,0,0,0,2Z"/></svg>