<svg xmlns="http://www.w3.org/2000/svg" xmlns:xlink="http://www.w3.org/1999/xlink" viewBox="0 0 64 64"><defs><clipPath id="a"><polygon points="7.5 7.5 54.5 7.5 7.5 54.5 7.5 7.5" fill="none"/></clipPath></defs><g clip-path="url(#a)"><circle cx="32" cy="32" r="10.5"/><path d="M32,56a1.5,1.5,0,0,1-1.5-1.5V48.29a1.5,1.5,0,1,1,3,0V54.5A1.5,1.5,0,0,1,32,56Zm15.91-6.59A1.51,1.51,0,0,1,46.85,49l-4.39-4.39a1.5,1.5,0,1,1,2.12-2.12L49,46.85A1.49,1.49,0,0,1,49,49,1.51,1.51,0,0,1,47.91,49.41Zm-31.82,0A1.51,1.51,0,0,1,15,49a1.49,1.49,0,0,1,0-2.12l4.39-4.39a1.5,1.5,0,1,1,2.12,2.12L17.15,49A1.51,1.51,0,0,1,16.09,49.41ZM54.5,33.5H48.29a1.5,1.5,0,1,1,0-3H54.5a1.5,1.5,0,0,1,0,3Zm-38.79,0H9.5a1.5,1.5,0,0,1,0-3h6.21a1.5,1.5,0,0,1,0,3ZM43.52,22a1.51,1.51,0,0,1-1.06-.44,1.49,1.49,0,0,1,0-2.12L46.85,15A1.5,1.5,0,0,1,49,17.15l-4.39,4.39A1.51,1.51,0,0,1,43.52,22Zm-23,0a1.51,1.51,0,0,1-1.06-.44L15,17.15A1.5,1.5,0,0,1,17.15,15l4.39,4.39a1.49,1.49,0,0,1,0,2.12A1.51,1.51,0,0,1,20.48,22ZM32,17.21a1.5,1.5,0,0,1-1.5-1.5V9.5a1.5,1.5,0,0,1,3,0v6.21A1.5,1.5,0,0,1,32,17.21Z"/></g><path d="M24.89,46.61a1.53,1.53,0,0,1-1.06-.44,1.51,1.51,0,0,1,0-2.12L27,40.86A1.51,1.51,0,1,1,29.14,43L26,46.17A1.49,1.49,0,0,1,24.89,46.61Z"/><path d="M33,38.47A1.5,1.5,0,0,1,32,35.91l5-4.95A1.5,1.5,0,1,1,39,33.08l-4.95,5A1.52,1.52,0,0,1,33,38.47Z"/><path d="M42.92,28.58A1.51,1.51,0,0,1,41.86,26l3.19-3.18A1.5,1.5,0,0,1,47.17,25L44,28.14A1.53,1.53,0,0,1,42.92,28.58Z"/><path d="M34.89,46.61a1.53,1.53,0,0,1-1.06-.44,1.51,1.51,0,0,1,0-2.12L37,40.86A1.51,1.51,0,1,1,39.14,43L36,46.17A1.49,1.49,0,0,1,34.89,46.61Z"/><path d="M43,38.47A1.5,1.5,0,0,1,42,35.91l5-4.95A1.5,1.5,0,1,1,49,33.08l-4.95,5A1.52,1.52,0,0,1,43,38.47Z"/><path d="M52.92,28.58A1.51,1.51,0,0,1,51.86,26l3.19-3.18A1.5,1.5,0,0,1,57.17,25L54,28.14A1.53,1.53,0,0,1,52.92,28.58Z"/></svg>