<svg xmlns="http://www.w3.org/2000/svg" xmlns:xlink="http://www.w3.org/1999/xlink" viewBox="0 0 64 64"><defs><clipPath id="a"><polygon points="7.5 7.5 54.5 7.5 7.5 54.5 7.5 7.5" fill="none"/></clipPath></defs><g clip-path="url(#a)"><path d="M46.66,36.2A16.66,16.66,0,0,1,29.88,19.65a16.29,16.29,0,0,1,.55-4.15A16.56,16.56,0,1,0,48.5,36.1C47.89,36.16,47.28,36.2,46.66,36.2Z"/></g><path d="M24.89,46.61a1.53,1.53,0,0,1-1.06-.44,1.51,1.51,0,0,1,0-2.12L27,40.86A1.51,1.51,0,1,1,29.14,43L26,46.17A1.49,1.49,0,0,1,24.89,46.61Z"/><path d="M33,38.47A1.5,1.5,0,0,1,32,35.91l5-4.95A1.5,1.5,0,1,1,39,33.08l-4.95,5A1.52,1.52,0,0,1,33,38.47Z"/><path d="M42.92,28.58A1.51,1.51,0,0,1,41.86,26l3.19-3.18A1.5,1.5,0,0,1,47.17,25L44,28.14A1.53,1.53,0,0,1,42.92,28.58Z"/><path d="M34.89,46.61a1.53,1.53,0,0,1-1.06-.44,1.51,1.51,0,0,1,0-2.12L37,40.86A1.51,1.51,0,1,1,39.14,43L36,46.17A1.49,1.49,0,0,1,34.89,46.61Z"/><path d="M43,38.47A1.5,1.5,0,0,1,42,35.91l5-4.95A1.5,1.5,0,1,1,49,33.08l-4.95,5A1.52,1.52,0,0,1,43,38.47Z"/><path d="M52.92,28.58A1.51,1.51,0,0,1,51.86,26l3.19-3.18A1.5,1.5,0,0,1,57.17,25L54,28.14A1.53,1.53,0,0,1,52.92,28.58Z"/></svg>