<svg xmlns="http://www.w3.org/2000/svg" xmlns:xlink="http://www.w3.org/1999/xlink" viewBox="0 0 64 64"><defs><clipPath id="a"><rect y="7.5" width="64" height="32" fill="none"/></clipPath></defs><g clip-path="url(#a)"><path d="M46.66,36.2A16.66,16.66,0,0,1,29.88,19.65a16.29,16.29,0,0,1,.55-4.15A16.56,16.56,0,1,0,48.5,36.1C47.89,36.16,47.28,36.2,46.66,36.2Z"/></g><path d="M21.5,45.5H17a1.5,1.5,0,0,1,0-3h4.5a1.5,1.5,0,0,1,0,3Z"/><path d="M35.5,45.5h-7a1.5,1.5,0,0,1,0-3h7a1.5,1.5,0,0,1,0,3Z"/><path d="M47,45.5H42.5a1.5,1.5,0,0,1,0-3H47a1.5,1.5,0,0,1,0,3Z"/><path d="M21.5,52.5H17a1.5,1.5,0,0,1,0-3h4.5a1.5,1.5,0,0,1,0,3Z"/><path d="M35.5,52.5h-7a1.5,1.5,0,0,1,0-3h7a1.5,1.5,0,0,1,0,3Z"/><path d="M47,52.5H42.5a1.5,1.5,0,0,1,0-3H47a1.5,1.5,0,0,1,0,3Z"/></svg>