<svg xmlns="http://www.w3.org/2000/svg" viewBox="0 0 64 64"><path d="M16.12,30a15.83,15.83,0,0,1,.35-1.9.5.5,0,0,0-.37-.6.49.49,0,0,0-.6.36,15.9,15.9,0,0,0-.37,2,.5.5,0,0,0,.43.56h.06A.51.51,0,0,0,16.12,30Z"/><path d="M40.92,45.89a.47.47,0,0,0,.41.22.49.49,0,0,0,.28-.09,16,16,0,0,0,1.62-1.26.49.49,0,0,0,.05-.7.51.51,0,0,0-.71-.05A15.71,15.71,0,0,1,41,45.2.5.5,0,0,0,40.92,45.89Z"/><path d="M39.91,17a.5.5,0,0,0-.46.88,16.57,16.57,0,0,1,1.65,1,.46.46,0,0,0,.28.08.48.48,0,0,0,.41-.21.51.51,0,0,0-.12-.7A18.24,18.24,0,0,0,39.91,17Z"/><path d="M32,16a15.35,15.35,0,0,1,1.92.12H34a.5.5,0,0,0,.06-1A17.32,17.32,0,0,0,32,15a.5.5,0,0,0,0,1Z"/><path d="M46.35,40.16A.5.5,0,0,0,47,40a19.55,19.55,0,0,0,.85-1.87.51.51,0,0,0-.29-.65.5.5,0,0,0-.65.29,14.63,14.63,0,0,1-.8,1.76A.5.5,0,0,0,46.35,40.16Z"/><path d="M48.5,32.53A.52.52,0,0,0,49,32,17.36,17.36,0,0,0,48.88,30a.5.5,0,0,0-1,.12A15.39,15.39,0,0,1,48,32v.07A.47.47,0,0,0,48.5,32.53Z"/><path d="M46.17,24.57a.5.5,0,1,0,.89-.47A16.36,16.36,0,0,0,46,22.35a.5.5,0,1,0-.82.56A15.55,15.55,0,0,1,46.17,24.57Z"/><path d="M33.94,48.89H34a17.83,17.83,0,0,0,2-.36.5.5,0,0,0,.37-.6.51.51,0,0,0-.61-.37,15.11,15.11,0,0,1-1.9.34.5.5,0,0,0,.06,1Z"/><path d="M16.09,38a.49.49,0,0,0,.47.32l.17,0a.5.5,0,0,0,.29-.65c-.22-.6-.41-1.22-.57-1.84a.5.5,0,0,0-.6-.37.51.51,0,0,0-.37.6A16.64,16.64,0,0,0,16.09,38Z"/><path d="M20.7,44.7a.5.5,0,0,0,.33.12.49.49,0,0,0,.37-.16.5.5,0,0,0,0-.71A14.66,14.66,0,0,1,20,42.58a.51.51,0,0,0-.71,0,.5.5,0,0,0,0,.7A15.37,15.37,0,0,0,20.7,44.7Z"/><path d="M20,20.67a.5.5,0,0,0-.71,0A18,18,0,0,0,18,22.32a.51.51,0,0,0,.41.79.49.49,0,0,0,.41-.22A16,16,0,0,1,20,21.37.5.5,0,0,0,20,20.67Z"/><path d="M26.28,47a.5.5,0,1,0-.35.93,17.13,17.13,0,0,0,2,.62H28a.5.5,0,0,0,.12-1A18,18,0,0,1,26.28,47Z"/><path d="M24.35,17.88a.46.46,0,0,0,.23-.06A15.3,15.3,0,0,1,26.34,17a.5.5,0,0,0-.35-.94,19.46,19.46,0,0,0-1.87.84.5.5,0,0,0-.21.68A.49.49,0,0,0,24.35,17.88Z"/></svg>