<svg xmlns="http://www.w3.org/2000/svg" viewBox="0 0 64 64"><path d="M49,32A17.36,17.36,0,0,0,48.88,30a.5.5,0,0,0-1,.12A15.39,15.39,0,0,1,48,32v.07a.47.47,0,0,0,.5.46A.52.52,0,0,0,49,32Z"/><path d="M26.34,17a.5.5,0,0,0,.29-.65.55.55,0,0,0-.25-.27c-.37.44-.72.89-1.05,1.34C25.67,17.3,26,17.16,26.34,17Z"/><path d="M45.3,22.22a.49.49,0,0,0-.13.69,15.55,15.55,0,0,1,1,1.66.5.5,0,1,0,.89-.47A16.36,16.36,0,0,0,46,22.35.49.49,0,0,0,45.3,22.22Z"/><path d="M31.52,15.5a.5.5,0,0,0,.5.5,15.35,15.35,0,0,1,1.92.12H34a.5.5,0,0,0,.49-.44.51.51,0,0,0-.43-.56A17.62,17.62,0,0,0,32,15,.5.5,0,0,0,31.52,15.5Z"/><path d="M39.91,17a.5.5,0,0,0-.46.88,16.57,16.57,0,0,1,1.65,1,.46.46,0,0,0,.28.08.48.48,0,0,0,.41-.21.51.51,0,0,0-.12-.7A18.24,18.24,0,0,0,39.91,17Z"/><path d="M46.94,37.73a14.63,14.63,0,0,1-.8,1.76.5.5,0,0,0,.21.67A.5.5,0,0,0,47,40a19.55,19.55,0,0,0,.85-1.87.51.51,0,0,0-.29-.65A.5.5,0,0,0,46.94,37.73Z"/><path d="M41,45.2a.5.5,0,0,0-.12.69.47.47,0,0,0,.41.22.49.49,0,0,0,.28-.09,16,16,0,0,0,1.62-1.26.49.49,0,0,0,.05-.7.51.51,0,0,0-.71-.05A15.71,15.71,0,0,1,41,45.2Z"/><path d="M27.18,15.21l.08-.06a18.38,18.38,0,0,0-2.38.86A17.5,17.5,0,1,0,39.12,48a18.21,18.21,0,0,0,2.23-1.19l-.1,0c-15.71.45-24.51-17.2-15.92-29.37.33-.45.68-.9,1.05-1.34s.51-.6.8-.9Z"/></svg>