<svg xmlns="http://www.w3.org/2000/svg" viewBox="0 0 64 64"><path d="M46.62,24.83a.49.49,0,0,0,.44-.73A16.36,16.36,0,0,0,46,22.35a.5.5,0,1,0-.82.56,15.55,15.55,0,0,1,1,1.66A.5.5,0,0,0,46.62,24.83Z"/><path d="M48.5,32.53A.52.52,0,0,0,49,32,17.36,17.36,0,0,0,48.88,30a.5.5,0,0,0-1,.12A15.39,15.39,0,0,1,48,32v.07A.47.47,0,0,0,48.5,32.53Z"/><path d="M33.94,16.12H34a.5.5,0,0,0,.49-.44.47.47,0,0,0-.12-.38c-.15.27-.3.54-.44.82Z"/><path d="M39.24,17.16a.49.49,0,0,0,.21.67,16.57,16.57,0,0,1,1.65,1,.46.46,0,0,0,.28.08.48.48,0,0,0,.41-.21.51.51,0,0,0-.12-.7A18.24,18.24,0,0,0,39.91,17,.49.49,0,0,0,39.24,17.16Z"/><path d="M46.35,40.16A.5.5,0,0,0,47,40a19.55,19.55,0,0,0,.85-1.87.51.51,0,0,0-.29-.65.5.5,0,0,0-.65.29,14.63,14.63,0,0,1-.8,1.76A.5.5,0,0,0,46.35,40.16Z"/><path d="M27,48.74a16.83,16.83,0,0,0,19.58-7.45A17.76,17.76,0,0,1,32.75,19.11a16.35,16.35,0,0,1,1.19-3c.14-.28.29-.55.44-.82a1.62,1.62,0,0,1,.1-.18A16.78,16.78,0,0,0,15,27,17.83,17.83,0,0,0,27,48.74Z"/></svg>