<svg xmlns="http://www.w3.org/2000/svg" viewBox="0 0 64 64"><path d="M19.29,20.71A18,18,0,0,0,18,22.32a.51.51,0,0,0,.13.7.49.49,0,0,0,.69-.13A16,16,0,0,1,20,21.37a.5.5,0,0,0,0-.7A.5.5,0,0,0,19.29,20.71Z"/><path d="M24.35,17.88a.46.46,0,0,0,.23-.06A14.56,14.56,0,0,1,26.34,17a.5.5,0,0,0,.29-.65.51.51,0,0,0-.64-.29,15.75,15.75,0,0,0-1.87.85.49.49,0,0,0-.21.67A.5.5,0,0,0,24.35,17.88Z"/><path d="M16.09,38a.49.49,0,0,0,.47.32l.17,0a.5.5,0,0,0,.29-.65,17,17,0,0,1-.57-1.84.5.5,0,0,0-.6-.37.51.51,0,0,0-.37.6A17.87,17.87,0,0,0,16.09,38Z"/><path d="M16.12,30a15.13,15.13,0,0,1,.35-1.9.5.5,0,0,0-.37-.6.48.48,0,0,0-.6.36,17.12,17.12,0,0,0-.38,2,.52.52,0,0,0,.44.56h.06A.5.5,0,0,0,16.12,30Z"/><path d="M20,42.58a.51.51,0,0,0-.71,0,.5.5,0,0,0,0,.7c.1.12.22.23.32.35.45,0,.89-.05,1.33-.1C20.6,43.19,20.28,42.9,20,42.58Z"/><path d="M32,15a.5.5,0,0,0,0,1c.36,0,.72,0,1.08,0-.25-.35-.52-.7-.8-1Z"/><path d="M19.57,43.59l-.94,0a13.42,13.42,0,0,0,5.93,4.23A17.68,17.68,0,0,0,48,39.12,17.68,17.68,0,0,0,38.8,15.87a17.48,17.48,0,0,0-7.12-1.58c.22.23.42.48.62.72s.55.68.8,1A17.32,17.32,0,0,1,20.9,43.49C20.46,43.54,20,43.57,19.57,43.59Z"/></svg>