<svg xmlns="http://www.w3.org/2000/svg" xmlns:xlink="http://www.w3.org/1999/xlink" viewBox="0 0 64 64"><defs><clipPath id="a"><path d="M45.83,47a8.75,8.75,0,0,0,2-17.25c0-.21,0-.43,0-.64A12.08,12.08,0,0,0,35.81,17a11.88,11.88,0,0,0-9.17,4.3,8.66,8.66,0,0,0-11.41,7.93A9.23,9.23,0,0,0,18.65,47V64H0V0H64V64H18.65V47Z" fill="none"/></clipPath></defs><g clip-path="url(#a)"><circle cx="19" cy="24" r="5"/><path d="M19,36.5a1,1,0,0,1-1-1V32.33a1,1,0,0,1,2,0V35.5A1,1,0,0,1,19,36.5Zm8.13-3.37a1,1,0,0,1-.71-.29L24.18,30.6a1,1,0,0,1,1.42-1.42l2.24,2.24a1,1,0,0,1,0,1.42A1,1,0,0,1,27.13,33.13Zm-16.26,0a1,1,0,0,1-.71-.29,1,1,0,0,1,0-1.42l2.24-2.24a1,1,0,0,1,1.42,1.42l-2.24,2.24A1,1,0,0,1,10.87,33.13ZM30.5,25H27.33a1,1,0,0,1,0-2H30.5a1,1,0,0,1,0,2ZM10.67,25H7.5a1,1,0,0,1,0-2h3.17a1,1,0,1,1,0,2Zm14.22-5.89a1,1,0,0,1-.71-.29,1,1,0,0,1,0-1.42l2.24-2.24a1,1,0,1,1,1.42,1.42L25.6,18.82A1,1,0,0,1,24.89,19.11Zm-11.78,0a1,1,0,0,1-.71-.29l-2.24-2.24a1,1,0,0,1,1.42-1.42l2.24,2.24a1,1,0,0,1,0,1.42A1,1,0,0,1,13.11,19.11ZM19,16.67a1,1,0,0,1-1-1V12.5a1,1,0,0,1,2,0v3.17A1,1,0,0,1,19,16.67Z"/><path d="M34.23,33.45a4.05,4.05,0,0,0,4.05,4H54.79a4.34,4.34,0,0,0,.81-8.61,3.52,3.52,0,0,0,.06-.66,4.06,4.06,0,0,0-6.13-3.48,6.08,6.08,0,0,0-11.25,3.19,6.34,6.34,0,0,0,.18,1.46h-.18A4.05,4.05,0,0,0,34.23,33.45Z"/><path d="M23.61,49h-.16a1,1,0,0,1-.83-1.15l.78-4.93a1,1,0,1,1,2,.31l-.78,4.93A1,1,0,0,1,23.61,49Z"/><path d="M30.61,49h-.16a1,1,0,0,1-.83-1.15l.78-4.93a1,1,0,1,1,2,.31l-.78,4.93A1,1,0,0,1,30.61,49Z"/><path d="M37.61,49h-.16a1,1,0,0,1-.83-1.15l.78-4.93a1,1,0,1,1,2,.31l-.78,4.93A1,1,0,0,1,37.61,49Z"/></g><path d="M45.83,31.52h-.31A10.05,10.05,0,0,0,35.81,19a10,10,0,0,0-8.51,4.8,6.56,6.56,0,0,0-3.4-.95,6.71,6.71,0,0,0-6.68,6.74,6.62,6.62,0,0,0,.1,1.1A7.22,7.22,0,0,0,18.65,45l.48,0v0h26.7a6.74,6.74,0,0,0,0-13.48Z"/></svg>