<svg xmlns="http://www.w3.org/2000/svg" viewBox="0 0 64 64"><path d="M37.37,23A1.5,1.5,0,0,1,37,23a2,2,0,0,1-1.78-1.11,78.39,78.39,0,0,0-1.85,9.64c-.14,1.82-.22,7.52-.27,11.76A39.77,39.77,0,0,1,35.49,33,23.62,23.62,0,0,0,37.37,23Z" fill="none"/><path d="M34.36,16s1.68,1.67-.76,9c-1.79,5.34-1.86,15.22-1.77,20.14.26,1.39.45,2.46.52,2.86h.34c.05-.87.16-2.62.41-4.71,0-4.24.13-9.94.27-11.76a78.39,78.39,0,0,1,1.85-9.64A1.92,1.92,0,0,1,35,21a2,2,0,0,1,.58-1.41A5,5,0,0,0,34.36,16Z"/><path d="M35.88,48c-.16-2.46-.43-9.56,1.71-13.46,2.62-4.78,4.91-4,4.91-4S38.79,29,36.17,35c-.08.21-.16.41-.25.62A96.89,96.89,0,0,0,34.29,48Z"/><path d="M35.49,33A39.77,39.77,0,0,0,33.1,43.29c-.25,2.09-.36,3.84-.41,4.71h1.6a96.89,96.89,0,0,1,1.63-12.39,26.06,26.06,0,0,1,.83-3,20.61,20.61,0,0,0,.74-9.7l-.12,0A23.62,23.62,0,0,1,35.49,33Z"/><path d="M28.54,32.89c-2-3.94-3.44-5.78-7-7.18,0,0,4.4,1.89,6.47,10.38a112.58,112.58,0,0,1,2.27,11.49c0,.15.06.3.09.42h2c-.07-.4-.26-1.47-.52-2.86C31.13,41.49,29.86,35.53,28.54,32.89Z"/><path d="M23,35.57A24.41,24.41,0,0,1,27,41.72,27.72,27.72,0,0,1,28.58,48h1.75c0-.12-.06-.27-.09-.42C29.62,44.82,27.6,37.66,23,35.57Z"/><circle cx="32" cy="16" r="1.5"/><path d="M35.22,21.89A2,2,0,0,0,37,23a1.5,1.5,0,0,0,.37,0l.12,0A2,2,0,0,0,37,19a2,2,0,0,0-1.42.59A2,2,0,0,0,35,21,1.92,1.92,0,0,0,35.22,21.89Z"/><circle cx="27" cy="21" r="2"/><circle cx="19" cy="22" r="1.5"/><circle cx="45" cy="22" r="1.5"/><circle cx="40" cy="17" r="1"/><circle cx="24" cy="17" r="1"/></svg>