<svg xmlns="http://www.w3.org/2000/svg" viewBox="0 0 64 64"><path d="M9.5,24a10.4,10.4,0,0,0,2.86,7.15,9,9,0,0,1,2.87-1.89,8.75,8.75,0,0,1,5-7.56,10.36,10.36,0,0,1-1.6-5.53A10.5,10.5,0,0,1,19,13.5,10.59,10.59,0,0,0,9.5,24Z"/><path d="M45.83,31.52h-.31A10.05,10.05,0,0,0,35.81,19a10,10,0,0,0-8.51,4.8,6.56,6.56,0,0,0-3.4-.95,6.71,6.71,0,0,0-6.68,6.74,6.62,6.62,0,0,0,.1,1.1A7.22,7.22,0,0,0,18.65,45l.48,0v0H21.5a3.5,3.5,0,0,1,7,0H45.83a6.74,6.74,0,0,0,0-13.48Z"/><circle cx="25" cy="45" r="1.5"/><circle cx="29" cy="55" r="1.5"/><circle cx="36" cy="49" r="1.5"/></svg>