<svg xmlns="http://www.w3.org/2000/svg" viewBox="0 0 64 64"><path d="M47.23,28.39A20.15,20.15,0,0,0,32,21.5,19.78,19.78,0,0,0,12,41h3A16.78,16.78,0,0,1,32,24.5a17.21,17.21,0,0,1,11.91,4.74,7.79,7.79,0,0,1,3.32-.74Z"/><path d="M41.14,30.8A14.22,14.22,0,0,0,32,27.5,13.77,13.77,0,0,0,18,41h3A10.77,10.77,0,0,1,32,30.5a11.34,11.34,0,0,1,5,1.18,5.88,5.88,0,0,1,3.21-1A5.24,5.24,0,0,1,41.14,30.8Z"/><path d="M23.8,22.68a5,5,0,1,0-7.52,5.51A20.56,20.56,0,0,1,23.8,22.68Z"/><path d="M18,12.5v3.17a1,1,0,0,0,2,0V12.5a1,1,0,0,0-2,0Z"/><path d="M10.67,25a1,1,0,1,0,0-2H7.5a1,1,0,0,0,0,2Z"/><path d="M13.82,17.4l-2.24-2.24a1,1,0,0,0-1.42,1.42l2.24,2.24a1,1,0,0,0,.71.29,1,1,0,0,0,.71-.29A1,1,0,0,0,13.82,17.4Z"/><path d="M26.42,15.16,24.18,17.4a1,1,0,0,0,0,1.42,1,1,0,0,0,.71.29,1,1,0,0,0,.71-.29l2.24-2.24a1,1,0,1,0-1.42-1.42Z"/><path d="M13.82,29.18a1,1,0,0,0-1.42,0l-2.24,2.24a1,1,0,0,0,0,1.42,1,1,0,0,0,.71.29,1,1,0,0,0,.71-.29l2.24-2.24A1,1,0,0,0,13.82,29.18Z"/><path d="M53.09,37.72h-.17a5.86,5.86,0,0,0-10.67-4.46,3.9,3.9,0,0,0-5.9,3.34,4.23,4.23,0,0,0,0,.63,4.17,4.17,0,0,0,.79,8.26h15.9a3.89,3.89,0,1,0,0-7.78Z"/></svg>