<svg xmlns="http://www.w3.org/2000/svg" xmlns:xlink="http://www.w3.org/1999/xlink" viewBox="0 0 64 64"><defs><clipPath id="a"><path d="M47.23,28.5a7.8,7.8,0,0,0-5.63,2.38,6.06,6.06,0,0,0-1.34-.16,5.91,5.91,0,0,0-5.86,5.11,6.16,6.16,0,0,0-3.4,5.5H4.58V8.65H47.23Z" fill="none"/></clipPath><clipPath id="b"><path d="M11.5,41H4.58V8.65H32V21A20.28,20.28,0,0,0,11.5,41" fill="none"/></clipPath><clipPath id="c"><polygon points="20 27 32 23 32 11 6 11 6 35 14 35 20 27" fill="none"/></clipPath></defs><g clip-path="url(#a)"><path d="M52,41H49A16.78,16.78,0,0,0,32,24.5,16.78,16.78,0,0,0,15,41H12A19.78,19.78,0,0,1,32,21.5,19.78,19.78,0,0,1,52,41Z"/><path d="M46,41H43A10.77,10.77,0,0,0,32,30.5,10.77,10.77,0,0,0,21,41H18A13.77,13.77,0,0,1,32,27.5,13.77,13.77,0,0,1,46,41Z"/><g clip-path="url(#b)"><g clip-path="url(#c)"><circle cx="19" cy="24" r="5"/><path d="M19,36.5a1,1,0,0,1-1-1V32.33a1,1,0,0,1,2,0V35.5A1,1,0,0,1,19,36.5Zm8.13-3.37a1,1,0,0,1-.71-.29L24.18,30.6a1,1,0,0,1,1.42-1.42l2.24,2.24a1,1,0,0,1,0,1.42A1,1,0,0,1,27.13,33.13Zm-16.26,0a1,1,0,0,1-.71-.29,1,1,0,0,1,0-1.42l2.24-2.24a1,1,0,0,1,1.42,1.42l-2.24,2.24A1,1,0,0,1,10.87,33.13ZM30.5,25H27.33a1,1,0,0,1,0-2H30.5a1,1,0,0,1,0,2ZM10.67,25H7.5a1,1,0,0,1,0-2h3.17a1,1,0,1,1,0,2Zm14.22-5.89a1,1,0,0,1-.71-.29,1,1,0,0,1,0-1.42l2.24-2.24a1,1,0,1,1,1.42,1.42L25.6,18.82A1,1,0,0,1,24.89,19.11Zm-11.78,0a1,1,0,0,1-.71-.29l-2.24-2.24a1,1,0,0,1,1.42-1.42l2.24,2.24a1,1,0,0,1,0,1.42A1,1,0,0,1,13.11,19.11ZM19,16.67a1,1,0,0,1-1-1V12.5a1,1,0,0,1,2,0v3.17A1,1,0,0,1,19,16.67Z"/></g></g></g><path d="M53.09,37.72h-.17a5.86,5.86,0,0,0-10.67-4.46,3.9,3.9,0,0,0-5.9,3.34,4.23,4.23,0,0,0,0,.63,4.17,4.17,0,0,0,.79,8.26h15.9a3.89,3.89,0,1,0,0-7.78Z"/></svg>