<svg xmlns="http://www.w3.org/2000/svg" xmlns:xlink="http://www.w3.org/1999/xlink" viewBox="0 0 64 64"><defs><clipPath id="a"><path d="M0,7.5v32H25.85L30,35.77a3,3,0,0,1,4,0l4.14,3.73H64V7.5Z" fill="none"/></clipPath></defs><g clip-path="url(#a)"><circle cx="32" cy="39" r="10.5"/><path d="M32,63a1.5,1.5,0,0,1-1.5-1.5V55.29a1.5,1.5,0,1,1,3,0V61.5A1.5,1.5,0,0,1,32,63Zm15.91-6.59A1.51,1.51,0,0,1,46.85,56l-4.39-4.39a1.5,1.5,0,1,1,2.12-2.12L49,53.85A1.49,1.49,0,0,1,49,56,1.51,1.51,0,0,1,47.91,56.41Zm-31.82,0A1.51,1.51,0,0,1,15,56a1.49,1.49,0,0,1,0-2.12l4.39-4.39a1.5,1.5,0,1,1,2.12,2.12L17.15,56A1.51,1.51,0,0,1,16.09,56.41ZM54.5,40.5H48.29a1.5,1.5,0,1,1,0-3H54.5a1.5,1.5,0,0,1,0,3Zm-38.79,0H9.5a1.5,1.5,0,0,1,0-3h6.21a1.5,1.5,0,0,1,0,3ZM43.52,29a1.51,1.51,0,0,1-1.06-.44,1.49,1.49,0,0,1,0-2.12L46.85,22A1.5,1.5,0,0,1,49,24.15l-4.39,4.39A1.51,1.51,0,0,1,43.52,29Zm-23,0a1.51,1.51,0,0,1-1.06-.44L15,24.15A1.5,1.5,0,0,1,17.15,22l4.39,4.39a1.49,1.49,0,0,1,0,2.12A1.51,1.51,0,0,1,20.48,29ZM32,24.21a1.5,1.5,0,0,1-1.5-1.5V16.5a1.5,1.5,0,0,1,3,0v6.21A1.5,1.5,0,0,1,32,24.21Z"/></g><path d="M48,43.5H37a1,1,0,0,1-.67-.26L32,39.35l-4.33,3.89a1,1,0,0,1-.67.26H16a1,1,0,0,1,0-2H26.62l4.71-4.24a1,1,0,0,1,1.34,0l4.71,4.24H48a1,1,0,0,1,0,2Z"/></svg>