<svg xmlns="http://www.w3.org/2000/svg" viewBox="0 0 64 64"><path d="M35.71,36.48a.52.52,0,0,1-.21-.41V29.5h-3a.5.5,0,0,1,0-1h3v-3h-3a.5.5,0,0,1,0-1h3v-3h-3a.5.5,0,0,1,0-1h3V19.06a3.5,3.5,0,1,0-7,0v17a.52.52,0,0,1-.21.41A6.64,6.64,0,0,0,25.5,41.9a6.5,6.5,0,1,0,13,0A6.64,6.64,0,0,0,35.71,36.48Z" fill="none"/><path d="M32,14.5a4.53,4.53,0,0,0-4.5,4.56V35.82a7.64,7.64,0,0,0-3,6.08,7.5,7.5,0,1,0,15,0,7.64,7.64,0,0,0-3-6.08V19.06A4.53,4.53,0,0,0,32,14.5Zm6.5,27.4a6.5,6.5,0,1,1-13,0,6.64,6.64,0,0,1,2.79-5.42.52.52,0,0,0,.21-.41v-17a3.5,3.5,0,1,1,7,0V20.5h-3a.5.5,0,0,0,0,1h3v3h-3a.5.5,0,0,0,0,1h3v3h-3a.5.5,0,0,0,0,1h3v6.57a.52.52,0,0,0,.21.41A6.64,6.64,0,0,1,38.5,41.9Z"/></svg>