<svg xmlns="http://www.w3.org/2000/svg" xmlns:xlink="http://www.w3.org/1999/xlink" viewBox="0 0 64 64"><defs><clipPath id="a"><rect y="4.5" width="64" height="32" fill="none"/></clipPath></defs><g clip-path="url(#a)"><circle cx="32" cy="39" r="7.7"/><path d="M32,57a1.5,1.5,0,0,1-1.5-1.5V51a1.5,1.5,0,0,1,3,0V55.5A1.5,1.5,0,0,1,32,57Zm11.67-4.83a1.49,1.49,0,0,1-1.06-.44l-3.22-3.22a1.5,1.5,0,0,1,2.12-2.12l3.22,3.22a1.51,1.51,0,0,1,0,2.12A1.53,1.53,0,0,1,43.67,52.17Zm-23.34,0a1.53,1.53,0,0,1-1.06-.44,1.51,1.51,0,0,1,0-2.12l3.22-3.22a1.5,1.5,0,0,1,2.12,2.12l-3.22,3.22A1.49,1.49,0,0,1,20.33,52.17ZM48.5,40.5H44a1.5,1.5,0,0,1,0-3H48.5a1.5,1.5,0,0,1,0,3Zm-28.45,0H15.5a1.5,1.5,0,0,1,0-3h4.55a1.5,1.5,0,0,1,0,3Zm20.4-8.45a1.45,1.45,0,0,1-1.06-.44,1.49,1.49,0,0,1,0-2.12l3.22-3.22a1.5,1.5,0,1,1,2.12,2.12l-3.22,3.22A1.47,1.47,0,0,1,40.45,32.05Zm-16.9,0a1.47,1.47,0,0,1-1.06-.44l-3.22-3.22a1.5,1.5,0,1,1,2.12-2.12l3.22,3.22a1.49,1.49,0,0,1,0,2.12A1.45,1.45,0,0,1,23.55,32.05ZM32,28.55a1.5,1.5,0,0,1-1.5-1.5V22.5a1.5,1.5,0,0,1,3,0v4.55A1.5,1.5,0,0,1,32,28.55Z"/></g><path d="M42.5,39.5h-21a.5.5,0,0,1,0-1h21a.5.5,0,0,1,0,1Z"/><path d="M27.44,49.14c1.62,0,2.42.69,2.42,2.08a1.93,1.93,0,0,1-.66,1.55,2.82,2.82,0,0,1-1.85.56,2.55,2.55,0,0,1-1.86-.63,2.36,2.36,0,0,1-.65-1.76V49.06a2.36,2.36,0,0,1,.65-1.76,2.59,2.59,0,0,1,1.86-.63,2.27,2.27,0,0,1,2.4,1.44.31.31,0,0,1,0,.29.43.43,0,0,1-.25.18l-.65.24a.35.35,0,0,1-.28,0,.53.53,0,0,1-.19-.25A1,1,0,0,0,27.36,48a.93.93,0,0,0-1.06,1v.19A5.3,5.3,0,0,1,27.44,49.14ZM27.35,52q1,0,1-.78a.69.69,0,0,0-.24-.58,1.3,1.3,0,0,0-.81-.19,3.12,3.12,0,0,0-1.05.14V51C26.3,51.67,26.65,52,27.35,52Z"/><path d="M33.33,50.25a.44.44,0,0,1,.08.29v.55a.3.3,0,0,1-.37.37H31a.3.3,0,0,1-.37-.37v-.55a.3.3,0,0,1,.37-.37h2A.44.44,0,0,1,33.33,50.25Z"/><path d="M36.56,50.86a2.72,2.72,0,0,1-1.83-.52,2,2,0,0,1-.59-1.56,1.93,1.93,0,0,1,.66-1.55,2.82,2.82,0,0,1,1.85-.56,2.55,2.55,0,0,1,1.86.63,2.36,2.36,0,0,1,.65,1.76v1.88a2.36,2.36,0,0,1-.65,1.76,2.59,2.59,0,0,1-1.86.63,2.3,2.3,0,0,1-2.41-1.44.34.34,0,0,1,0-.29.4.4,0,0,1,.24-.18l.66-.24a.35.35,0,0,1,.28,0,.6.6,0,0,1,.19.25,1,1,0,0,0,1,.58.93.93,0,0,0,1.06-1.05v-.18A5.43,5.43,0,0,1,36.56,50.86ZM36.65,48q-1,0-1,.78a.69.69,0,0,0,.24.58,1.3,1.3,0,0,0,.81.19,3.12,3.12,0,0,0,1.05-.14V49C37.7,48.33,37.35,48,36.65,48Z"/></svg>