<svg xmlns="http://www.w3.org/2000/svg" viewBox="0 0 64 64"><path d="M41.34,51a.6.6,0,0,0-.14-.13L41,50.8l-.22-.08-.24-.06-.28-.07-.3-.07a.93.93,0,0,0-.62.88c0,.46.35.69,1.06.69a1.26,1.26,0,0,0,.77-.18.59.59,0,0,0,.24-.51.65.65,0,0,0,0-.21A.77.77,0,0,0,41.34,51Z" fill="none"/><path d="M40.41,49.29l.38.1a.89.89,0,0,0,.55-.82.55.55,0,0,0-.24-.49,1.09,1.09,0,0,0-.65-.17c-.57,0-.86.22-.86.66a.54.54,0,0,0,.2.45A1.92,1.92,0,0,0,40.41,49.29Z" fill="none"/><path d="M23.93,46.8h-.51a1,1,0,0,0-.52.15l-1.63.94c-.13.08-.21.15-.23.21a.37.37,0,0,0,.05.29l.31.57c.13.24.31.28.56.14l.87-.5v4.23a.41.41,0,0,0,.08.28.39.39,0,0,0,.29.09h.73a.37.37,0,0,0,.29-.09.41.41,0,0,0,.08-.28V47.17a.39.39,0,0,0-.08-.28A.37.37,0,0,0,23.93,46.8Z"/><path d="M27.8,49.08H27l.09-.94h2.37a.3.3,0,0,0,.37-.37v-.6a.31.31,0,0,0-.37-.37H26.28a.61.61,0,0,0-.43.12.58.58,0,0,0-.16.41L25.42,50a.45.45,0,0,0,.07.33.41.41,0,0,0,.31.1h1.88a.94.94,0,0,1,.62.2.72.72,0,0,1,.23.56.78.78,0,0,1-.84.85,1.31,1.31,0,0,1-.71-.16,1,1,0,0,1-.39-.48.46.46,0,0,0-.18-.25.36.36,0,0,0-.28,0l-.7.25a.42.42,0,0,0-.24.17.43.43,0,0,0,0,.29,2.37,2.37,0,0,0,2.52,1.49,2.31,2.31,0,0,0,1.7-.62,2.23,2.23,0,0,0,.06-3A2.27,2.27,0,0,0,27.8,49.08Z"/><path d="M33.18,50.17h-2a.41.41,0,0,0-.28.08.39.39,0,0,0-.08.29v.55a.39.39,0,0,0,.08.29.41.41,0,0,0,.28.08h2a.42.42,0,0,0,.29-.08.39.39,0,0,0,.08-.29v-.55a.39.39,0,0,0-.08-.29A.42.42,0,0,0,33.18,50.17Z"/><path d="M36.59,46.8h-.52a1,1,0,0,0-.52.15l-1.63.94a.6.6,0,0,0-.23.21.37.37,0,0,0,.05.29l.31.57a.36.36,0,0,0,.56.14l.88-.5v4.23a.36.36,0,0,0,.08.28.37.37,0,0,0,.29.09h.73a.31.31,0,0,0,.36-.37V47.17c0-.14,0-.23-.08-.28A.36.36,0,0,0,36.59,46.8Z"/><path d="M42,49.81a1.59,1.59,0,0,0,.73-1.38,1.55,1.55,0,0,0-.59-1.3,2.8,2.8,0,0,0-1.74-.46,2.65,2.65,0,0,0-1.7.49,1.68,1.68,0,0,0-.62,1.38A1.71,1.71,0,0,0,38.84,50a1.68,1.68,0,0,0-.93,1.51c0,1.19.84,1.79,2.52,1.79a2.92,2.92,0,0,0,1.92-.52A1.77,1.77,0,0,0,43,51.38,1.67,1.67,0,0,0,42,49.81Zm-1.58-1.9a1.09,1.09,0,0,1,.65.17.55.55,0,0,1,.24.49.89.89,0,0,1-.55.82l-.38-.1a1.92,1.92,0,0,1-.62-.27.54.54,0,0,1-.2-.45C39.59,48.13,39.88,47.91,40.45,47.91Zm.76,4a1.26,1.26,0,0,1-.77.18c-.71,0-1.06-.23-1.06-.69a.93.93,0,0,1,.62-.88l.3.07.28.07.24.06.22.08.16.1a.6.6,0,0,1,.14.13.77.77,0,0,1,.07.16.65.65,0,0,1,0,.21A.59.59,0,0,1,41.21,51.91Z"/><circle cx="32" cy="26" r="7.7"/><path d="M41.51,18.61l3.22-3.22a1.5,1.5,0,1,0-2.12-2.12l-3.22,3.22a1.49,1.49,0,0,0,0,2.12,1.45,1.45,0,0,0,1.06.44A1.47,1.47,0,0,0,41.51,18.61Z"/><path d="M19.27,13.27a1.51,1.51,0,0,0,0,2.12l3.22,3.22a1.47,1.47,0,0,0,1.06.44,1.45,1.45,0,0,0,1.06-.44,1.49,1.49,0,0,0,0-2.12l-3.22-3.22A1.51,1.51,0,0,0,19.27,13.27Z"/><path d="M32,15.55a1.5,1.5,0,0,0,1.5-1.5V9.5a1.5,1.5,0,0,0-3,0v4.55A1.5,1.5,0,0,0,32,15.55Z"/><path d="M21.55,26a1.5,1.5,0,0,0-1.5-1.5H15.5a1.5,1.5,0,0,0,0,3h4.55A1.5,1.5,0,0,0,21.55,26Z"/><path d="M48.5,24.5H44a1.5,1.5,0,0,0,0,3H48.5a1.5,1.5,0,0,0,0-3Z"/><path d="M22.49,33.39l-3.22,3.22a1.51,1.51,0,0,0,0,2.12,1.53,1.53,0,0,0,1.06.44,1.49,1.49,0,0,0,1.06-.44l3.22-3.22a1.5,1.5,0,0,0-2.12-2.12Z"/><path d="M41.51,33.39a1.5,1.5,0,0,0-2.12,2.12l3.22,3.22a1.49,1.49,0,0,0,1.06.44,1.53,1.53,0,0,0,1.06-.44,1.51,1.51,0,0,0,0-2.12Z"/><path d="M32,44a1.5,1.5,0,0,0,1.5-1.5V38a1.5,1.5,0,0,0-3,0V42.5A1.5,1.5,0,0,0,32,44Z"/></svg>