<svg xmlns="http://www.w3.org/2000/svg" viewBox="0 0 64 64"><path d="M42.25,31.66c-.64,1.21-1.89,2.67-3.25,2.67s-2.61-1.46-3.25-2.67a.28.28,0,0,0-.5,0c-.64,1.21-1.89,2.67-3.25,2.67s-2.61-1.46-3.25-2.67a.28.28,0,0,0-.5,0c-.64,1.21-1.89,2.67-3.25,2.67s-2.61-1.46-3.25-2.67a.28.28,0,0,0-.5,0c-.64,1.21-1.89,2.67-3.25,2.67H17v6.13a2,2,0,0,0,2,2H45a2,2,0,0,0,2-2V34.33H46c-1.36,0-2.61-1.46-3.25-2.67A.28.28,0,0,0,42.25,31.66Z"/><path d="M32,17.5a1,1,0,0,0-1,1v6.33L29.75,23.4a1,1,0,0,0-1.41-.1,1,1,0,0,0-.34.75,1,1,0,0,0,.25.66l3,3.45h0a1,1,0,0,0,.48.3h0l.08,0h0l.19,0a1,1,0,0,0,.35-.06,1,1,0,0,0,.41-.29l3-3.44a1,1,0,1,0-1.5-1.31L33,24.83V18.5A1,1,0,0,0,32,17.5Z"/></svg>