<svg xmlns="http://www.w3.org/2000/svg" viewBox="0 0 64 64"><path d="M35.71,36.48a.52.52,0,0,1-.21-.41V29.5h-3a.5.5,0,0,1,0-1h3v-3h-3a.5.5,0,0,1,0-1h3v-3h-3a.5.5,0,0,1,0-1h3V19.06a3.5,3.5,0,1,0-7,0v17a.52.52,0,0,1-.21.41A6.64,6.64,0,0,0,25.5,41.9a6.5,6.5,0,1,0,13,0A6.64,6.64,0,0,0,35.71,36.48ZM32,46.5a4.49,4.49,0,0,1-1.5-8.72V33a1.5,1.5,0,0,1,3,0v4.78A4.49,4.49,0,0,1,32,46.5Z" fill="none"/><path d="M33.5,37.78V42a1.5,1.5,0,0,1-3,0V37.78a4.5,4.5,0,1,0,3,0Z"/><path d="M32,43.5A1.5,1.5,0,0,0,33.5,42V33a1.5,1.5,0,0,0-3,0v9A1.5,1.5,0,0,0,32,43.5Z"/><path d="M32,14.5a4.53,4.53,0,0,0-4.5,4.56V35.82a7.64,7.64,0,0,0-3,6.08,7.5,7.5,0,1,0,15,0,7.64,7.64,0,0,0-3-6.08V19.06A4.53,4.53,0,0,0,32,14.5Zm6.5,27.4a6.5,6.5,0,1,1-13,0,6.64,6.64,0,0,1,2.79-5.42.52.52,0,0,0,.21-.41v-17a3.5,3.5,0,1,1,7,0V20.5h-3a.5.5,0,0,0,0,1h3v3h-3a.5.5,0,0,0,0,1h3v3h-3a.5.5,0,0,0,0,1h3v6.57a.52.52,0,0,0,.21.41A6.64,6.64,0,0,1,38.5,41.9Z"/><path d="M43.73,39l.08,0h0L44,39a1,1,0,0,0,.35-.06,1,1,0,0,0,.41-.29l3-3.44a1,1,0,1,0-1.5-1.31L45,35.33V26a1,1,0,0,0-2,0v9.33L41.75,33.9a1,1,0,0,0-1.41-.1,1,1,0,0,0-.34.75,1,1,0,0,0,.25.66l3,3.45h0a1,1,0,0,0,.48.3Z"/></svg>