<svg xmlns="http://www.w3.org/2000/svg" viewBox="0 0 64 64"><path d="M47,34.33H46c-1.36,0-2.61-1.46-3.25-2.67a.28.28,0,0,0-.5,0c-.64,1.21-1.89,2.67-3.25,2.67s-2.61-1.46-3.25-2.67a.28.28,0,0,0-.5,0c-.64,1.21-1.89,2.67-3.25,2.67s-2.61-1.46-3.25-2.67a.28.28,0,0,0-.5,0c-.64,1.21-1.89,2.67-3.25,2.67s-2.61-1.46-3.25-2.67a.28.28,0,0,0-.5,0c-.64,1.21-1.89,2.67-3.25,2.67H17v6.13a2,2,0,0,0,2,2H45a2,2,0,0,0,2-2Z"/><path d="M32,28.5l-.19,0h0l-.08,0h0a1,1,0,0,1-.48-.3h0l-3-3.45a1,1,0,0,1-.25-.66,1,1,0,0,1,.34-.75,1,1,0,0,1,1.41.1L31,24.83V18.5a1,1,0,0,1,2,0v6.33l1.25-1.43a1,1,0,1,1,1.5,1.31l-3,3.44a1,1,0,0,1-.41.29A1,1,0,0,1,32,28.5Z"/></svg>