<svg xmlns="http://www.w3.org/2000/svg" viewBox="0 0 64 64"><rect x="33.5" y="21.5" width="2" height="3" fill="none"/><rect x="33.5" y="25.5" width="2" height="3" fill="none"/><path d="M35.71,36.48a.52.52,0,0,1-.21-.41V29.5h-2v8.28a4.5,4.5,0,1,1-3,0V19a1.5,1.5,0,0,1,3,0v1.5h2V19.06a3.5,3.5,0,1,0-7,0v17a.52.52,0,0,1-.21.41A6.64,6.64,0,0,0,25.5,41.9a6.5,6.5,0,1,0,13,0A6.64,6.64,0,0,0,35.71,36.48Z" fill="none"/><path d="M32,43.5A1.5,1.5,0,0,1,30.5,42V37.78a4.5,4.5,0,1,0,3,0V42A1.5,1.5,0,0,1,32,43.5Z"/><path d="M32,17.5A1.5,1.5,0,0,0,30.5,19V42a1.5,1.5,0,0,0,3,0V29.5h-1a.5.5,0,0,1,0-1h1v-3h-1a.5.5,0,0,1,0-1h1v-3h-1a.5.5,0,0,1,0-1h1V19A1.5,1.5,0,0,0,32,17.5Z"/><path d="M32,14.5a4.53,4.53,0,0,0-4.5,4.56V35.82a7.64,7.64,0,0,0-3,6.08,7.5,7.5,0,1,0,15,0,7.64,7.64,0,0,0-3-6.08V19.06A4.53,4.53,0,0,0,32,14.5Zm6.5,27.4a6.5,6.5,0,1,1-13,0,6.64,6.64,0,0,1,2.79-5.42.52.52,0,0,0,.21-.41v-17a3.5,3.5,0,1,1,7,0V20.5h-3a.5.5,0,0,0,0,1h3v3h-3a.5.5,0,0,0,0,1h3v3h-3a.5.5,0,0,0,0,1h3v6.57a.52.52,0,0,0,.21.41A6.64,6.64,0,0,1,38.5,41.9Z"/><path d="M44,39a1,1,0,0,0,1-1V28.67l1.25,1.43a1,1,0,1,0,1.5-1.31l-3-3.44a1,1,0,0,0-.41-.29,1.11,1.11,0,0,0-.51,0h0l-.14,0h0a1,1,0,0,0-.43.29h0l-3,3.45a1,1,0,0,0-.25.66,1,1,0,0,0,.34.75,1,1,0,0,0,1.41-.1L43,28.67V38A1,1,0,0,0,44,39Z"/></svg>