<svg xmlns="http://www.w3.org/2000/svg" xmlns:xlink="http://www.w3.org/1999/xlink" viewBox="0 0 64 64"><defs><clipPath id="a"><rect y="4.5" width="64" height="32" fill="none"/></clipPath></defs><path d="M24.19,46.89c.06,0,.08.14.08.28v5.66a.36.36,0,0,1-.08.28.37.37,0,0,1-.29.09h-.72a.37.37,0,0,1-.29-.09.36.36,0,0,1-.08-.28V48.6l-.88.5a.36.36,0,0,1-.56-.14l-.31-.57a.37.37,0,0,1,0-.29.6.6,0,0,1,.23-.21L22.87,47a1,1,0,0,1,.52-.15h.51A.37.37,0,0,1,24.19,46.89Z"/><path d="M26.05,47.16a2.65,2.65,0,0,1,1.7-.49,2.75,2.75,0,0,1,1.73.46,1.53,1.53,0,0,1,.6,1.3,1.59,1.59,0,0,1-.73,1.38,1.66,1.66,0,0,1,.94,1.57,1.76,1.76,0,0,1-.62,1.43,2.92,2.92,0,0,1-1.92.52c-1.68,0-2.52-.6-2.52-1.79A1.68,1.68,0,0,1,26.16,50a1.71,1.71,0,0,1-.73-1.49A1.68,1.68,0,0,1,26.05,47.16Zm2.68,4a.77.77,0,0,0-.07-.16.6.6,0,0,0-.14-.13l-.16-.1-.23-.08-.23-.06-.28-.07-.3-.07a.93.93,0,0,0-.62.88c0,.46.35.69,1.06.69a1.28,1.28,0,0,0,.77-.18.58.58,0,0,0,.23-.51A.66.66,0,0,0,28.73,51.19Zm-.31-3.11a1.09,1.09,0,0,0-.65-.17c-.58,0-.86.22-.86.66a.54.54,0,0,0,.2.45,1.92,1.92,0,0,0,.62.27l.38.1a.89.89,0,0,0,.55-.82A.55.55,0,0,0,28.42,48.08Z"/><path d="M33.74,50.25a.39.39,0,0,1,.08.29v.55a.39.39,0,0,1-.08.29.42.42,0,0,1-.29.08h-2a.41.41,0,0,1-.28-.08.39.39,0,0,1-.08-.29v-.55a.39.39,0,0,1,.08-.29.41.41,0,0,1,.28-.08h2A.42.42,0,0,1,33.74,50.25Z"/><path d="M37,46.67a2.29,2.29,0,0,1,1.66.6,2,2,0,0,1,.61,1.46,2.09,2.09,0,0,1-.51,1.51,5.73,5.73,0,0,1-1.89,1.07l-.21.07-.23.08-.19.08a.38.38,0,0,0-.15.12.24.24,0,0,0-.05.14v.07h2.74a.3.3,0,0,1,.37.37v.59a.41.41,0,0,1-.08.28.39.39,0,0,1-.29.09h-3.9a.35.35,0,0,1-.28-.09.41.41,0,0,1-.08-.28v-.69a2,2,0,0,1,.14-.77,1.46,1.46,0,0,1,.42-.57,4.33,4.33,0,0,1,.53-.37,4.49,4.49,0,0,1,.64-.29,4.92,4.92,0,0,0,1.11-.56,1,1,0,0,0,.4-.79.74.74,0,0,0-.22-.55A.78.78,0,0,0,37,48a1,1,0,0,0-1,.66.54.54,0,0,1-.19.25.4.4,0,0,1-.28,0l-.69-.25a.32.32,0,0,1-.23-.47A2.36,2.36,0,0,1,37,46.67Z"/><path d="M42.92,46.89c.06,0,.08.14.08.28v5.66a.36.36,0,0,1-.08.28.37.37,0,0,1-.29.09H41.9a.32.32,0,0,1-.37-.37V48.6l-.87.5A.36.36,0,0,1,40.1,49l-.31-.57a.37.37,0,0,1,0-.29.6.6,0,0,1,.23-.21L41.6,47a1,1,0,0,1,.52-.15h.51A.37.37,0,0,1,42.92,46.89Z"/><g clip-path="url(#a)"><circle cx="32" cy="39" r="7.7"/><path d="M32,57a1.5,1.5,0,0,1-1.5-1.5V51a1.5,1.5,0,0,1,3,0V55.5A1.5,1.5,0,0,1,32,57Zm11.67-4.83a1.49,1.49,0,0,1-1.06-.44l-3.22-3.22a1.5,1.5,0,0,1,2.12-2.12l3.22,3.22a1.51,1.51,0,0,1,0,2.12A1.53,1.53,0,0,1,43.67,52.17Zm-23.34,0a1.53,1.53,0,0,1-1.06-.44,1.51,1.51,0,0,1,0-2.12l3.22-3.22a1.5,1.5,0,0,1,2.12,2.12l-3.22,3.22A1.49,1.49,0,0,1,20.33,52.17ZM48.5,40.5H44a1.5,1.5,0,0,1,0-3H48.5a1.5,1.5,0,0,1,0,3Zm-28.45,0H15.5a1.5,1.5,0,0,1,0-3h4.55a1.5,1.5,0,0,1,0,3Zm20.4-8.45a1.45,1.45,0,0,1-1.06-.44,1.49,1.49,0,0,1,0-2.12l3.22-3.22a1.5,1.5,0,1,1,2.12,2.12l-3.22,3.22A1.47,1.47,0,0,1,40.45,32.05Zm-16.9,0a1.47,1.47,0,0,1-1.06-.44l-3.22-3.22a1.5,1.5,0,1,1,2.12-2.12l3.22,3.22a1.49,1.49,0,0,1,0,2.12A1.45,1.45,0,0,1,23.55,32.05ZM32,28.55a1.5,1.5,0,0,1-1.5-1.5V22.5a1.5,1.5,0,0,1,3,0v4.55A1.5,1.5,0,0,1,32,28.55Z"/></g><path d="M42.5,39.5h-21a.5.5,0,0,1,0-1h21a.5.5,0,0,1,0,1Z"/></svg>