<svg xmlns="http://www.w3.org/2000/svg" viewBox="0 0 64 64"><path d="M27.35,52q1,0,1-.78a.69.69,0,0,0-.24-.58,1.3,1.3,0,0,0-.81-.19,3.12,3.12,0,0,0-1.05.14V51C26.3,51.67,26.65,52,27.35,52Z" fill="none"/><path d="M37.7,49c0-.66-.35-1-1.05-1s-1,.26-1,.78a.69.69,0,0,0,.24.58,1.3,1.3,0,0,0,.81.19,3.12,3.12,0,0,0,1.05-.14Z" fill="none"/><path d="M32,31.3a7.7,7.7,0,0,0-7.28,5.2H39.28A7.7,7.7,0,0,0,32,31.3Z"/><path d="M42.61,26.27l-3.22,3.22a1.49,1.49,0,0,0,0,2.12,1.45,1.45,0,0,0,1.06.44,1.47,1.47,0,0,0,1.06-.44l3.22-3.22a1.5,1.5,0,1,0-2.12-2.12Z"/><path d="M33.5,27.05V22.5a1.5,1.5,0,0,0-3,0v4.55a1.5,1.5,0,0,0,3,0Z"/><path d="M23.55,32.05a1.45,1.45,0,0,0,1.06-.44,1.49,1.49,0,0,0,0-2.12l-3.22-3.22a1.5,1.5,0,1,0-2.12,2.12l3.22,3.22A1.47,1.47,0,0,0,23.55,32.05Z"/><path d="M21.5,38.5a.5.5,0,0,0,0,1h21a.5.5,0,0,0,0-1Z"/><path d="M27.35,53.33a2.82,2.82,0,0,0,1.85-.56,1.93,1.93,0,0,0,.66-1.55c0-1.39-.8-2.08-2.42-2.08a5.3,5.3,0,0,0-1.14.1v-.19a.93.93,0,0,1,1.06-1,1,1,0,0,1,1.05.58.53.53,0,0,0,.19.25.35.35,0,0,0,.28,0l.65-.24a.43.43,0,0,0,.25-.18.31.31,0,0,0,0-.29,2.27,2.27,0,0,0-2.4-1.44,2.59,2.59,0,0,0-1.86.63,2.36,2.36,0,0,0-.65,1.76v1.88a2.36,2.36,0,0,0,.65,1.76A2.55,2.55,0,0,0,27.35,53.33ZM26.3,50.6a3.12,3.12,0,0,1,1.05-.14,1.3,1.3,0,0,1,.81.19.69.69,0,0,1,.24.58q0,.78-1,.78c-.7,0-1.05-.34-1.05-1Z"/><path d="M33,50.17H31a.3.3,0,0,0-.37.37v.55a.3.3,0,0,0,.37.37h2a.3.3,0,0,0,.37-.37v-.55a.3.3,0,0,0-.37-.37Z"/><path d="M36.64,52a1,1,0,0,1-1-.58.6.6,0,0,0-.19-.25.35.35,0,0,0-.28,0l-.66.24a.4.4,0,0,0-.24.18.34.34,0,0,0,0,.29,2.3,2.3,0,0,0,2.41,1.44,2.59,2.59,0,0,0,1.86-.63,2.36,2.36,0,0,0,.65-1.76V49.06a2.36,2.36,0,0,0-.65-1.76,2.55,2.55,0,0,0-1.86-.63,2.82,2.82,0,0,0-1.85.56,1.93,1.93,0,0,0-.66,1.55,2,2,0,0,0,.59,1.56,2.72,2.72,0,0,0,1.83.52,5.43,5.43,0,0,0,1.14-.1v.18A.93.93,0,0,1,36.64,52Zm0-2.45a1.3,1.3,0,0,1-.81-.19.69.69,0,0,1-.24-.58q0-.78,1-.78c.7,0,1.05.34,1.05,1v.41A3.12,3.12,0,0,1,36.65,49.54Z"/></svg>