<svg xmlns="http://www.w3.org/2000/svg" viewBox="0 0 64 64"><path d="M47,34.33H46c-1.36,0-2.61-1.46-3.25-2.67a.28.28,0,0,0-.5,0c-.64,1.21-1.89,2.67-3.25,2.67s-2.61-1.46-3.25-2.67a.28.28,0,0,0-.5,0c-.64,1.21-1.89,2.67-3.25,2.67s-2.61-1.46-3.25-2.67a.28.28,0,0,0-.5,0c-.64,1.21-1.89,2.67-3.25,2.67s-2.61-1.46-3.25-2.67a.28.28,0,0,0-.5,0c-.64,1.21-1.89,2.67-3.25,2.67H17v6.13a2,2,0,0,0,2,2H45a2,2,0,0,0,2-2Z"/><path d="M32,28.5a1,1,0,0,1-1-1V21.17L29.75,22.6a1,1,0,0,1-1.41.1A1,1,0,0,1,28,22a1,1,0,0,1,.25-.66l3-3.45h0a1,1,0,0,1,.43-.29h0l.14,0h0a1.11,1.11,0,0,1,.51,0,1,1,0,0,1,.41.29l3,3.44a1,1,0,1,1-1.5,1.31L33,21.17V27.5A1,1,0,0,1,32,28.5Z"/></svg>