<svg xmlns="http://www.w3.org/2000/svg" viewBox="0 0 64 64"><path d="M38.58,48a1.07,1.07,0,0,0-.75.23.81.81,0,0,0-.26.65V51.1a.84.84,0,0,0,.26.66,1.12,1.12,0,0,0,.75.23,1.1,1.1,0,0,0,.73-.23.84.84,0,0,0,.26-.66V48.89a.81.81,0,0,0-.26-.65A1,1,0,0,0,38.58,48Z" fill="none"/><path d="M24.54,51.66a.52.52,0,0,1,.16-.12l.19-.08a1.32,1.32,0,0,1,.22-.08l.21-.07a5.73,5.73,0,0,0,1.89-1.07,2.09,2.09,0,0,0,.52-1.51,2,2,0,0,0-.62-1.46,2.29,2.29,0,0,0-1.66-.6A2.34,2.34,0,0,0,23,48.18a.32.32,0,0,0,.22.47l.69.25a.4.4,0,0,0,.28,0,.49.49,0,0,0,.19-.25,1,1,0,0,1,1-.66.78.78,0,0,1,.6.23.74.74,0,0,1,.22.55,1,1,0,0,1-.39.79,5.06,5.06,0,0,1-1.12.56,5.07,5.07,0,0,0-.64.29,4.33,4.33,0,0,0-.53.37,1.57,1.57,0,0,0-.42.57,2,2,0,0,0-.14.77v.69a.41.41,0,0,0,.08.28.35.35,0,0,0,.28.09h3.9a.39.39,0,0,0,.29-.09.41.41,0,0,0,.08-.28v-.59a.3.3,0,0,0-.37-.37H24.49V51.8A.24.24,0,0,1,24.54,51.66Z"/><path d="M31.05,46.8h-.52A1,1,0,0,0,30,47l-1.63.94a.69.69,0,0,0-.23.21.37.37,0,0,0,.05.29l.32.57a.34.34,0,0,0,.55.14l.88-.5v4.23a.41.41,0,0,0,.08.28.37.37,0,0,0,.29.09h.73a.32.32,0,0,0,.37-.37V47.17a.35.35,0,0,0-.09-.28A.36.36,0,0,0,31.05,46.8Z"/><path d="M34.86,50.17h-2a.46.46,0,0,0-.29.08.44.44,0,0,0-.08.29v.55a.44.44,0,0,0,.08.29.46.46,0,0,0,.29.08h2a.42.42,0,0,0,.29-.08.44.44,0,0,0,.08-.29v-.55a.44.44,0,0,0-.08-.29A.42.42,0,0,0,34.86,50.17Z"/><path d="M38.58,46.67a2.55,2.55,0,0,0-1.81.6,2.11,2.11,0,0,0-.66,1.64v2.16a2.12,2.12,0,0,0,.66,1.65,2.51,2.51,0,0,0,1.81.61,2.54,2.54,0,0,0,1.8-.6A2.17,2.17,0,0,0,41,51.07V48.91a2.14,2.14,0,0,0-.65-1.64A2.54,2.54,0,0,0,38.58,46.67Zm1,4.43a.84.84,0,0,1-.26.66,1.1,1.1,0,0,1-.73.23,1.12,1.12,0,0,1-.75-.23.84.84,0,0,1-.26-.66V48.89a.81.81,0,0,1,.26-.65,1.07,1.07,0,0,1,.75-.23,1,1,0,0,1,.73.23.81.81,0,0,1,.26.65Z"/><path d="M42.66,29.06a12.58,12.58,0,0,1-2.39-.24,5.67,5.67,0,0,1,2.93,2.31A12.31,12.31,0,0,0,44,29,11.9,11.9,0,0,1,42.66,29.06Z"/><path d="M29.71,33.16A4.44,4.44,0,0,1,34,29.83a4.18,4.18,0,0,1,.61.05A5.72,5.72,0,0,1,38.4,28.5a6.4,6.4,0,0,1,.88.08A11.93,11.93,0,0,1,30.86,14a12,12,0,0,0-3.35,23.07s0,0,0-.07A4.46,4.46,0,0,1,29.71,33.16Z"/><path d="M42.06,34.83H42a3.34,3.34,0,0,0,.11-.84,3.59,3.59,0,0,0-3.66-3.5,3.72,3.72,0,0,0-3.12,1.66A2.58,2.58,0,0,0,34,31.83a2.4,2.4,0,0,0-2.44,2.34,2.45,2.45,0,0,0,0,.38A2.52,2.52,0,0,0,29.5,37a2.56,2.56,0,0,0,2.62,2.5h9.94a2.34,2.34,0,1,0,0-4.67Z"/></svg>