<svg xmlns="http://www.w3.org/2000/svg" viewBox="0 0 64 64"><path d="M27.35,48a1.05,1.05,0,0,0-.75.23.81.81,0,0,0-.26.65V51.1a.84.84,0,0,0,.26.66,1.31,1.31,0,0,0,1.48,0,.84.84,0,0,0,.26-.66V48.89a.81.81,0,0,0-.26-.65A1,1,0,0,0,27.35,48Z" fill="none"/><path d="M27.35,46.67a2.59,2.59,0,0,0-1.82.6,2.14,2.14,0,0,0-.65,1.64v2.16a2.15,2.15,0,0,0,.65,1.65,2.55,2.55,0,0,0,1.82.61,2.54,2.54,0,0,0,1.8-.6,2.17,2.17,0,0,0,.65-1.66V48.91a2.14,2.14,0,0,0-.65-1.64A2.56,2.56,0,0,0,27.35,46.67Zm1,4.43a.84.84,0,0,1-.26.66,1.31,1.31,0,0,1-1.48,0,.84.84,0,0,1-.26-.66V48.89a.81.81,0,0,1,.26-.65,1.31,1.31,0,0,1,1.48,0,.81.81,0,0,1,.26.65Z"/><path d="M33,50.17H31a.41.41,0,0,0-.28.08.39.39,0,0,0-.08.29v.55a.39.39,0,0,0,.08.29.41.41,0,0,0,.28.08h2a.42.42,0,0,0,.29-.08.39.39,0,0,0,.08-.29v-.55a.39.39,0,0,0-.08-.29A.42.42,0,0,0,33,50.17Z"/><path d="M38.25,49.85a1.48,1.48,0,0,0,.67-1.34,1.7,1.7,0,0,0-.57-1.35,2.43,2.43,0,0,0-1.62-.49,2.89,2.89,0,0,0-1.6.38,2.2,2.2,0,0,0-.88,1.13.33.33,0,0,0,.22.47l.68.24a.41.41,0,0,0,.29,0,.49.49,0,0,0,.18-.24,1,1,0,0,1,.35-.51,1.12,1.12,0,0,1,.68-.16c.53,0,.8.22.8.67a.58.58,0,0,1-.23.49.9.9,0,0,1-.57.17h-.53a.39.39,0,0,0-.29.08.41.41,0,0,0-.08.28v.56a.42.42,0,0,0,.08.29.44.44,0,0,0,.29.07h.71c.51,0,.76.24.76.71s-.3.7-.9.7a1.43,1.43,0,0,1-.74-.16,1,1,0,0,1-.38-.51.46.46,0,0,0-.18-.25.34.34,0,0,0-.29,0l-.67.24a.33.33,0,0,0-.23.47,2.4,2.4,0,0,0,2.53,1.51,2.67,2.67,0,0,0,1.79-.53,1.84,1.84,0,0,0,.6-1.45A1.56,1.56,0,0,0,38.25,49.85Z"/><path d="M30.46,17a12,12,0,0,1,.4-3A12,12,0,1,0,44,29a11.9,11.9,0,0,1-1.34.08A12.12,12.12,0,0,1,30.46,17Z"/></svg>