<svg xmlns="http://www.w3.org/2000/svg" viewBox="0 0 64 64"><path d="M8,30.44H23.78a3.22,3.22,0,0,0,0-6.44,3.17,3.17,0,0,0-2.32,1,1,1,0,0,0,0,1.41,1,1,0,0,0,1.42,0,1.17,1.17,0,0,1,.88-.38,1.22,1.22,0,0,1,0,2.44H8a1,1,0,1,0,0,2Z"/><path d="M17.33,33.56a1.22,1.22,0,1,1,0,2.44,1.19,1.19,0,0,1-.88-.38A1,1,0,0,0,15,37a3.18,3.18,0,0,0,2.32,1,3.22,3.22,0,1,0,0-6.44H8a1,1,0,0,0,0,2Z"/><path d="M36.68,29.52,20.78,38.7a4,4,0,0,0,2,7.46,3.87,3.87,0,0,0,2-.54,1,1,0,0,0,.37-1.36,1,1,0,0,0-1.37-.37,2,2,0,0,1-2.73-.73,2,2,0,0,1-.2-1.52,2,2,0,0,1,.93-1.21l15.89-9.17c-.15-.24-.31-.46-.45-.71S36.85,29.87,36.68,29.52Z"/><path d="M53.69,36.53a8.86,8.86,0,0,1-3.6-6.36L50,28.64l-.81-.51a8.9,8.9,0,0,1-3.87-6.71l0-1L44,19.61a8.92,8.92,0,0,1-3.71-6.3l-.16-1.75c-5.47,3.16-6.89,11-3.44,18,.17.35.35.69.54,1s.3.47.45.71c4.25,6.66,11.9,9.49,17.45,6.29Z"/></svg>