<svg xmlns="http://www.w3.org/2000/svg" viewBox="0 0 64 64"><path d="M32,21.5a10.5,10.5,0,0,0,0,21V41a9,9,0,0,1,9-9h1.5A10.5,10.5,0,0,0,32,21.5Z"/><path d="M49,15a1.49,1.49,0,0,0-2.12,0l-4.39,4.39a1.49,1.49,0,0,0,0,2.12,1.5,1.5,0,0,0,2.12,0L49,17.15A1.49,1.49,0,0,0,49,15Z"/><path d="M30.5,9.5v6.21a1.5,1.5,0,0,0,3,0V9.5a1.5,1.5,0,0,0-3,0Z"/><path d="M30.5,48.29V54.5A1.5,1.5,0,0,0,32,56V46.79A1.5,1.5,0,0,0,30.5,48.29Z"/><path d="M15,49a1.5,1.5,0,0,0,2.12,0l4.39-4.39a1.5,1.5,0,1,0-2.12-2.12L15,46.85A1.49,1.49,0,0,0,15,49Z"/><path d="M54.5,30.5H48.29a1.5,1.5,0,0,0-1.5,1.5H56A1.5,1.5,0,0,0,54.5,30.5Z"/><path d="M19.42,21.54a1.5,1.5,0,0,0,2.12,0,1.49,1.49,0,0,0,0-2.12L17.15,15A1.5,1.5,0,0,0,15,17.15Z"/><path d="M9.5,33.5h6.21a1.5,1.5,0,0,0,0-3H9.5a1.5,1.5,0,0,0,0,3Z"/><path d="M46.88,39.12a.66.66,0,0,0-.45-.12H45.31a.64.64,0,0,0-.44.12.66.66,0,0,0-.12.45V45.4c0,1-.59,1.56-1.76,1.56a1.87,1.87,0,0,1-1.3-.4,1.47,1.47,0,0,1-.45-1.16V39.57a.66.66,0,0,0-.12-.45.6.6,0,0,0-.43-.12H39.57a.46.46,0,0,0-.57.57v5.77A3.5,3.5,0,0,0,40,48a4.14,4.14,0,0,0,3,1,4.17,4.17,0,0,0,3-1,3.5,3.5,0,0,0,1-2.68V39.57A.66.66,0,0,0,46.88,39.12Z"/><path d="M57.08,39h-1a1.51,1.51,0,0,0-.71.11.61.61,0,0,0-.3.41l-1.6,5.27a9.3,9.3,0,0,0-.35,1.67H53l0-.25c0-.17-.07-.39-.13-.67s-.13-.54-.19-.77L51,39.52a.67.67,0,0,0-.3-.41A1.6,1.6,0,0,0,50,39h-1c-.39,0-.51.19-.37.56l3.19,9a.63.63,0,0,0,.24.36.89.89,0,0,0,.45.09h1.13a.81.81,0,0,0,.45-.1.72.72,0,0,0,.25-.38l3.17-9C57.58,39.19,57.46,39,57.08,39Z"/></svg>