<svg xmlns="http://www.w3.org/2000/svg" viewBox="0 0 64 64"><path d="M41.55,40h-.63a1.24,1.24,0,0,0-.64.18l-2,1.18a.64.64,0,0,0-.29.27.45.45,0,0,0,.07.35l.38.71a.42.42,0,0,0,.68.18l1.07-.62v5.29a.5.5,0,0,0,.1.36.46.46,0,0,0,.35.1h.89a.46.46,0,0,0,.35-.1.5.5,0,0,0,.1-.36V40.46a.5.5,0,0,0-.1-.36A.46.46,0,0,0,41.55,40Z" fill="none"/><path d="M47,40a3.18,3.18,0,0,0-2.21.72,2.51,2.51,0,0,0-.8,2v2.6a2.53,2.53,0,0,0,.8,2A3.14,3.14,0,0,0,47,48a3.09,3.09,0,0,0,2.2-.73,2.53,2.53,0,0,0,.79-2v-2.6a2.54,2.54,0,0,0-.79-2A3.15,3.15,0,0,0,47,40Zm0,6.39a1.31,1.31,0,0,1-.91-.28,1,1,0,0,1-.32-.79V42.67a1,1,0,0,1,.32-.79,1.35,1.35,0,0,1,.91-.27,1.33,1.33,0,0,1,.89.27,1,1,0,0,1,.32.79v2.65a1,1,0,0,1-.32.79A1.28,1.28,0,0,1,47,46.39Z" fill="none"/><path d="M42.5,32A10.5,10.5,0,1,0,32,42.5V41a9,9,0,0,1,9-9Z"/><path d="M21.54,19.42,17.15,15A1.5,1.5,0,0,0,15,17.15l4.39,4.39a1.5,1.5,0,0,0,2.12,0A1.49,1.49,0,0,0,21.54,19.42Z"/><path d="M54.5,30.5H48.29a1.5,1.5,0,0,0-1.5,1.5H56A1.5,1.5,0,0,0,54.5,30.5Z"/><path d="M9.5,33.5h6.21a1.5,1.5,0,0,0,0-3H9.5a1.5,1.5,0,0,0,0,3Z"/><path d="M49,15a1.49,1.49,0,0,0-2.12,0l-4.39,4.39a1.49,1.49,0,0,0,0,2.12,1.5,1.5,0,0,0,2.12,0L49,17.15A1.49,1.49,0,0,0,49,15Z"/><path d="M15,46.85A1.49,1.49,0,0,0,15,49a1.5,1.5,0,0,0,2.12,0l4.39-4.39a1.5,1.5,0,1,0-2.12-2.12Z"/><path d="M30.5,9.5v6.21a1.5,1.5,0,0,0,3,0V9.5a1.5,1.5,0,0,0-3,0Z"/><path d="M30.5,48.29V54.5A1.5,1.5,0,0,0,32,56V46.79A1.5,1.5,0,0,0,30.5,48.29Z"/><path d="M48.22,45.32V42.67a1,1,0,0,0-.32-.79,1.33,1.33,0,0,0-.89-.27,1.35,1.35,0,0,0-.91.27,1,1,0,0,0-.32.79v2.65a1,1,0,0,0,.32.79,1.31,1.31,0,0,0,.91.28,1.28,1.28,0,0,0,.89-.28A1,1,0,0,0,48.22,45.32Z"/><path d="M47,35H41a6,6,0,0,0-6,6v6a6,6,0,0,0,6,6h6a6,6,0,0,0,6-6V41A6,6,0,0,0,47,35ZM42,47.54a.5.5,0,0,1-.1.36.46.46,0,0,1-.35.1h-.89a.46.46,0,0,1-.35-.1.5.5,0,0,1-.1-.36V42.25l-1.07.62a.42.42,0,0,1-.68-.18L38.08,42a.45.45,0,0,1-.07-.35.64.64,0,0,1,.29-.27l2-1.18a1.24,1.24,0,0,1,.64-.18h.63a.46.46,0,0,1,.35.1.5.5,0,0,1,.1.36Zm8-2.25a2.53,2.53,0,0,1-.79,2A3.09,3.09,0,0,1,47,48a3.14,3.14,0,0,1-2.21-.73,2.53,2.53,0,0,1-.8-2v-2.6a2.51,2.51,0,0,1,.8-2,3.74,3.74,0,0,1,4.41,0,2.54,2.54,0,0,1,.79,2Z"/></svg>