<svg xmlns="http://www.w3.org/2000/svg" xmlns:xlink="http://www.w3.org/1999/xlink" viewBox="0 0 64 64"><defs><clipPath id="a"><path d="M8,8H56V32H41a9,9,0,0,0-9,9V56H8Z" fill="none"/></clipPath></defs><g clip-path="url(#a)"><circle cx="32" cy="32" r="10.5"/><path d="M32,56a1.5,1.5,0,0,1-1.5-1.5V48.29a1.5,1.5,0,1,1,3,0V54.5A1.5,1.5,0,0,1,32,56Zm15.91-6.59A1.51,1.51,0,0,1,46.85,49l-4.39-4.39a1.5,1.5,0,1,1,2.12-2.12L49,46.85A1.49,1.49,0,0,1,49,49,1.51,1.51,0,0,1,47.91,49.41Zm-31.82,0A1.51,1.51,0,0,1,15,49a1.49,1.49,0,0,1,0-2.12l4.39-4.39a1.5,1.5,0,1,1,2.12,2.12L17.15,49A1.51,1.51,0,0,1,16.09,49.41ZM54.5,33.5H48.29a1.5,1.5,0,1,1,0-3H54.5a1.5,1.5,0,0,1,0,3Zm-38.79,0H9.5a1.5,1.5,0,0,1,0-3h6.21a1.5,1.5,0,0,1,0,3ZM43.52,22a1.51,1.51,0,0,1-1.06-.44,1.49,1.49,0,0,1,0-2.12L46.85,15A1.5,1.5,0,0,1,49,17.15l-4.39,4.39A1.51,1.51,0,0,1,43.52,22Zm-23,0a1.51,1.51,0,0,1-1.06-.44L15,17.15A1.5,1.5,0,0,1,17.15,15l4.39,4.39a1.49,1.49,0,0,1,0,2.12A1.51,1.51,0,0,1,20.48,22ZM32,17.21a1.5,1.5,0,0,1-1.5-1.5V9.5a1.5,1.5,0,0,1,3,0v6.21A1.5,1.5,0,0,1,32,17.21Z"/></g><path d="M41.69,46.56A1.87,1.87,0,0,0,43,47c1.17,0,1.76-.52,1.76-1.56V39.57a.66.66,0,0,1,.12-.45.64.64,0,0,1,.44-.12h1.12a.46.46,0,0,1,.57.57v5.77A3.5,3.5,0,0,1,46,48a4.17,4.17,0,0,1-3,1,4.14,4.14,0,0,1-3-1,3.5,3.5,0,0,1-1-2.68V39.57a.46.46,0,0,1,.57-.57h1.12a.6.6,0,0,1,.43.12.66.66,0,0,1,.12.45V45.4A1.47,1.47,0,0,0,41.69,46.56Z"/><path d="M57.44,39.56l-3.17,9a.72.72,0,0,1-.25.38.81.81,0,0,1-.45.1H52.44a.89.89,0,0,1-.45-.09.63.63,0,0,1-.24-.36l-3.19-9c-.14-.37,0-.56.37-.56h1a1.6,1.6,0,0,1,.73.11.67.67,0,0,1,.3.41l1.63,5.25c.06.23.13.48.19.77s.1.5.13.67l0,.25h.11a9.3,9.3,0,0,1,.35-1.67l1.6-5.27a.61.61,0,0,1,.3-.41,1.51,1.51,0,0,1,.71-.11h1C57.46,39,57.58,39.19,57.44,39.56Z"/></svg>