<svg xmlns="http://www.w3.org/2000/svg" xmlns:xlink="http://www.w3.org/1999/xlink" viewBox="0 0 64 64"><defs><clipPath id="a"><path d="M8,8H56V32H41a9,9,0,0,0-9,9V56H8Z" fill="none"/></clipPath></defs><g clip-path="url(#a)"><circle cx="32" cy="32" r="10.5"/><path d="M32,56a1.5,1.5,0,0,1-1.5-1.5V48.29a1.5,1.5,0,1,1,3,0V54.5A1.5,1.5,0,0,1,32,56Zm15.91-6.59A1.51,1.51,0,0,1,46.85,49l-4.39-4.39a1.5,1.5,0,1,1,2.12-2.12L49,46.85A1.49,1.49,0,0,1,49,49,1.51,1.51,0,0,1,47.91,49.41Zm-31.82,0A1.51,1.51,0,0,1,15,49a1.49,1.49,0,0,1,0-2.12l4.39-4.39a1.5,1.5,0,1,1,2.12,2.12L17.15,49A1.51,1.51,0,0,1,16.09,49.41ZM54.5,33.5H48.29a1.5,1.5,0,1,1,0-3H54.5a1.5,1.5,0,0,1,0,3Zm-38.79,0H9.5a1.5,1.5,0,0,1,0-3h6.21a1.5,1.5,0,0,1,0,3ZM43.52,22a1.51,1.51,0,0,1-1.06-.44,1.49,1.49,0,0,1,0-2.12L46.85,15A1.5,1.5,0,0,1,49,17.15l-4.39,4.39A1.51,1.51,0,0,1,43.52,22Zm-23,0a1.51,1.51,0,0,1-1.06-.44L15,17.15A1.5,1.5,0,0,1,17.15,15l4.39,4.39a1.49,1.49,0,0,1,0,2.12A1.51,1.51,0,0,1,20.48,22ZM32,17.21a1.5,1.5,0,0,1-1.5-1.5V9.5a1.5,1.5,0,0,1,3,0v6.21A1.5,1.5,0,0,1,32,17.21Z"/></g><rect x="35" y="35" width="18" height="18" rx="6"/><path d="M47.4,44.87a.53.53,0,0,1,.1.36v.63a.55.55,0,0,1-.1.36.54.54,0,0,1-.38.1h-.64v1.22a.5.5,0,0,1-.11.36.51.51,0,0,1-.37.1h-.81a.51.51,0,0,1-.37-.1.5.5,0,0,1-.11-.36V46.32H41a.54.54,0,0,1-.38-.1.5.5,0,0,1-.1-.36V45.3a1.44,1.44,0,0,1,0-.35.92.92,0,0,1,.17-.25l3.66-4.37a1,1,0,0,1,.3-.26A.81.81,0,0,1,45,40h.86a.51.51,0,0,1,.37.1.5.5,0,0,1,.11.36v4.31H47A.54.54,0,0,1,47.4,44.87Zm-4.79-.1h2V42.39Z" fill="#fff"/></svg>