<svg xmlns="http://www.w3.org/2000/svg" viewBox="0 0 64 64"><path d="M45.9,48a.51.51,0,0,0,.37-.1.5.5,0,0,0,.11-.36V46.32H47a.54.54,0,0,0,.38-.1.55.55,0,0,0,.1-.36v-.63a.53.53,0,0,0-.1-.36.54.54,0,0,0-.38-.1h-.64V40.46a.5.5,0,0,0-.11-.36.51.51,0,0,0-.37-.1H45a.81.81,0,0,0-.38.07,1,1,0,0,0-.3.26L40.7,44.7a.92.92,0,0,0-.17.25,1.44,1.44,0,0,0,0,.35v.56a.5.5,0,0,0,.1.36.54.54,0,0,0,.38.1h3.63v1.22a.5.5,0,0,0,.11.36.51.51,0,0,0,.37.1Zm-3.29-3.23,2-2.38v2.38Z" fill="none"/><path d="M42.5,32A10.5,10.5,0,1,0,32,42.5V41a9,9,0,0,1,9-9Z"/><path d="M54.5,30.5H48.29a1.5,1.5,0,0,0-1.5,1.5H56A1.5,1.5,0,0,0,54.5,30.5Z"/><path d="M30.5,48.29V54.5A1.5,1.5,0,0,0,32,56V46.79A1.5,1.5,0,0,0,30.5,48.29Z"/><path d="M9.5,33.5h6.21a1.5,1.5,0,0,0,0-3H9.5a1.5,1.5,0,0,0,0,3Z"/><path d="M15,46.85A1.49,1.49,0,0,0,15,49a1.5,1.5,0,0,0,2.12,0l4.39-4.39a1.5,1.5,0,1,0-2.12-2.12Z"/><path d="M30.5,9.5v6.21a1.5,1.5,0,0,0,3,0V9.5a1.5,1.5,0,0,0-3,0Z"/><path d="M49,15a1.49,1.49,0,0,0-2.12,0l-4.39,4.39a1.49,1.49,0,0,0,0,2.12,1.5,1.5,0,0,0,2.12,0L49,17.15A1.49,1.49,0,0,0,49,15Z"/><path d="M21.54,19.42,17.15,15A1.5,1.5,0,0,0,15,17.15l4.39,4.39a1.5,1.5,0,0,0,2.12,0A1.49,1.49,0,0,0,21.54,19.42Z"/><polygon points="44.61 42.39 42.61 44.77 44.61 44.77 44.61 42.39"/><path d="M47,35H41a6,6,0,0,0-6,6v6a6,6,0,0,0,6,6h6a6,6,0,0,0,6-6V41A6,6,0,0,0,47,35ZM44.72,47.9a.5.5,0,0,1-.11-.36V46.32H41a.54.54,0,0,1-.38-.1.5.5,0,0,1-.1-.36V45.3a1.44,1.44,0,0,1,0-.35.92.92,0,0,1,.17-.25l3.66-4.37a1,1,0,0,1,.3-.26A.81.81,0,0,1,45,40h.86a.51.51,0,0,1,.37.1.5.5,0,0,1,.11.36v4.31H47a.54.54,0,0,1,.38.1.53.53,0,0,1,.1.36v.63a.55.55,0,0,1-.1.36.54.54,0,0,1-.38.1h-.64v1.22a.5.5,0,0,1-.11.36.51.51,0,0,1-.37.1h-.81A.51.51,0,0,1,44.72,47.9Z"/></svg>