<svg xmlns="http://www.w3.org/2000/svg" viewBox="0 0 64 64"><path d="M46.37,48a.51.51,0,0,0,.37-.1.47.47,0,0,0,.1-.35v-.72a.46.46,0,0,0-.1-.35.51.51,0,0,0-.37-.1H42.92v-.09a.28.28,0,0,1,.06-.18.54.54,0,0,1,.2-.14l.24-.1.28-.1.27-.09a7.2,7.2,0,0,0,2.38-1.3A2.53,2.53,0,0,0,47,42.53a2.38,2.38,0,0,0-.78-1.8A2.93,2.93,0,0,0,44.13,40a3,3,0,0,0-3.06,1.85c-.12.28,0,.47.28.58l.88.31a.54.54,0,0,0,.35,0,.78.78,0,0,0,.24-.31,1.26,1.26,0,0,1,1.24-.81,1.05,1.05,0,0,1,.75.28.9.9,0,0,1,.28.68,1.22,1.22,0,0,1-.5,1,6.56,6.56,0,0,1-1.41.68,7.23,7.23,0,0,0-.8.36,4.36,4.36,0,0,0-.67.45,1.79,1.79,0,0,0-.53.7,2.33,2.33,0,0,0-.18,1v.84a.47.47,0,0,0,.1.35.46.46,0,0,0,.35.1Z" fill="none"/><path d="M42.5,32A10.5,10.5,0,1,0,32,42.5V41a9,9,0,0,1,9-9Z"/><path d="M15,46.85A1.49,1.49,0,0,0,15,49a1.5,1.5,0,0,0,2.12,0l4.39-4.39a1.5,1.5,0,1,0-2.12-2.12Z"/><path d="M21.54,19.42,17.15,15A1.5,1.5,0,0,0,15,17.15l4.39,4.39a1.5,1.5,0,0,0,2.12,0A1.49,1.49,0,0,0,21.54,19.42Z"/><path d="M30.5,9.5v6.21a1.5,1.5,0,0,0,3,0V9.5a1.5,1.5,0,0,0-3,0Z"/><path d="M30.5,48.29V54.5A1.5,1.5,0,0,0,32,56V46.79A1.5,1.5,0,0,0,30.5,48.29Z"/><path d="M54.5,30.5H48.29a1.5,1.5,0,0,0-1.5,1.5H56A1.5,1.5,0,0,0,54.5,30.5Z"/><path d="M49,15a1.49,1.49,0,0,0-2.12,0l-4.39,4.39a1.49,1.49,0,0,0,0,2.12,1.5,1.5,0,0,0,2.12,0L49,17.15A1.49,1.49,0,0,0,49,15Z"/><path d="M9.5,33.5h6.21a1.5,1.5,0,0,0,0-3H9.5a1.5,1.5,0,0,0,0,3Z"/><path d="M47,35H41a6,6,0,0,0-6,6v6a6,6,0,0,0,6,6h6a6,6,0,0,0,6-6V41A6,6,0,0,0,47,35ZM41.1,47.9a.47.47,0,0,1-.1-.35v-.84a2.33,2.33,0,0,1,.18-1,1.79,1.79,0,0,1,.53-.7,4.36,4.36,0,0,1,.67-.45,7.23,7.23,0,0,1,.8-.36,6.56,6.56,0,0,0,1.41-.68,1.22,1.22,0,0,0,.5-1,.9.9,0,0,0-.28-.68,1.05,1.05,0,0,0-.75-.28,1.26,1.26,0,0,0-1.24.81.78.78,0,0,1-.24.31.54.54,0,0,1-.35,0l-.88-.31c-.3-.11-.4-.3-.28-.58A3,3,0,0,1,44.13,40a2.93,2.93,0,0,1,2.09.73,2.38,2.38,0,0,1,.78,1.8,2.53,2.53,0,0,1-.65,1.85A7.2,7.2,0,0,1,44,45.68l-.27.09-.28.1-.24.1a.54.54,0,0,0-.2.14.28.28,0,0,0-.06.18v.09h3.45a.51.51,0,0,1,.37.1.46.46,0,0,1,.1.35v.72a.47.47,0,0,1-.1.35.51.51,0,0,1-.37.1H41.45A.46.46,0,0,1,41.1,47.9Z"/></svg>