<svg xmlns="http://www.w3.org/2000/svg" xmlns:xlink="http://www.w3.org/1999/xlink" viewBox="0 0 64 64"><defs><clipPath id="a"><path d="M8,8H56V32H41a9,9,0,0,0-9,9V56H8Z" fill="none"/></clipPath></defs><g clip-path="url(#a)"><circle cx="32" cy="32" r="10.5"/><path d="M32,56a1.5,1.5,0,0,1-1.5-1.5V48.29a1.5,1.5,0,1,1,3,0V54.5A1.5,1.5,0,0,1,32,56Zm15.91-6.59A1.51,1.51,0,0,1,46.85,49l-4.39-4.39a1.5,1.5,0,1,1,2.12-2.12L49,46.85A1.49,1.49,0,0,1,49,49,1.51,1.51,0,0,1,47.91,49.41Zm-31.82,0A1.51,1.51,0,0,1,15,49a1.49,1.49,0,0,1,0-2.12l4.39-4.39a1.5,1.5,0,1,1,2.12,2.12L17.15,49A1.51,1.51,0,0,1,16.09,49.41ZM54.5,33.5H48.29a1.5,1.5,0,1,1,0-3H54.5a1.5,1.5,0,0,1,0,3Zm-38.79,0H9.5a1.5,1.5,0,0,1,0-3h6.21a1.5,1.5,0,0,1,0,3ZM43.52,22a1.51,1.51,0,0,1-1.06-.44,1.49,1.49,0,0,1,0-2.12L46.85,15A1.5,1.5,0,0,1,49,17.15l-4.39,4.39A1.51,1.51,0,0,1,43.52,22Zm-23,0a1.51,1.51,0,0,1-1.06-.44L15,17.15A1.5,1.5,0,0,1,17.15,15l4.39,4.39a1.49,1.49,0,0,1,0,2.12A1.51,1.51,0,0,1,20.48,22ZM32,17.21a1.5,1.5,0,0,1-1.5-1.5V9.5a1.5,1.5,0,0,1,3,0v6.21A1.5,1.5,0,0,1,32,17.21Z"/></g><rect x="35" y="35" width="18" height="18" rx="6"/><path d="M46.58,40.1a.47.47,0,0,1,.1.35v.73a.46.46,0,0,1-.1.35.47.47,0,0,1-.35.1H43.32l-.11,1.16h1a2.77,2.77,0,0,1,2.07.72,2.51,2.51,0,0,1,.7,1.84,2.57,2.57,0,0,1-.77,1.89,2.83,2.83,0,0,1-2.09.76c-1.62,0-2.65-.61-3.1-1.82a.52.52,0,0,1,0-.37.5.5,0,0,1,.29-.21l.85-.3a.45.45,0,0,1,.35,0,.49.49,0,0,1,.22.3,1.23,1.23,0,0,0,.47.59,1.69,1.69,0,0,0,.88.2,1,1,0,0,0,.75-.27,1,1,0,0,0,.28-.77.85.85,0,0,0-.29-.69,1.08,1.08,0,0,0-.75-.25H41.77a.47.47,0,0,1-.38-.12.52.52,0,0,1-.08-.4l.33-3.22a.7.7,0,0,1,.19-.5.75.75,0,0,1,.53-.14h3.87A.47.47,0,0,1,46.58,40.1Z" fill="#fff"/></svg>