<svg xmlns="http://www.w3.org/2000/svg" viewBox="0 0 64 64"><path d="M41,42.53a2.38,2.38,0,0,0,.71,1.88,3.21,3.21,0,0,0,2.18.63,6.78,6.78,0,0,0,1.37-.13v.23A1.11,1.11,0,0,1,44,46.39a1.21,1.21,0,0,1-1.26-.69.75.75,0,0,0-.22-.31.42.42,0,0,0-.34,0l-.78.29a.53.53,0,0,0-.29.21.4.4,0,0,0,0,.35A2.75,2.75,0,0,0,44,48a3,3,0,0,0,2.22-.76A2.81,2.81,0,0,0,47,45.12V42.88a2.84,2.84,0,0,0-.77-2.12A3,3,0,0,0,44,40a3.29,3.29,0,0,0-2.2.68A2.25,2.25,0,0,0,41,42.53Zm3-.94q1.26,0,1.26,1.2v.48a3.43,3.43,0,0,1-1.26.18,1.63,1.63,0,0,1-1-.23.84.84,0,0,1-.29-.7Q42.74,41.59,44,41.59Z" fill="none"/><path d="M41,32h1.5A10.5,10.5,0,1,0,32,42.5V41A9,9,0,0,1,41,32Z"/><path d="M30.5,9.5v6.21a1.5,1.5,0,0,0,3,0V9.5a1.5,1.5,0,0,0-3,0Z"/><path d="M54.5,30.5H48.29a1.5,1.5,0,0,0-1.5,1.5H56A1.5,1.5,0,0,0,54.5,30.5Z"/><path d="M15,46.85A1.49,1.49,0,0,0,15,49a1.5,1.5,0,0,0,2.12,0l4.39-4.39a1.5,1.5,0,1,0-2.12-2.12Z"/><path d="M30.5,48.29V54.5A1.5,1.5,0,0,0,32,56V46.79A1.5,1.5,0,0,0,30.5,48.29Z"/><path d="M21.54,19.42,17.15,15A1.5,1.5,0,0,0,15,17.15l4.39,4.39a1.5,1.5,0,0,0,2.12,0A1.49,1.49,0,0,0,21.54,19.42Z"/><path d="M9.5,33.5h6.21a1.5,1.5,0,0,0,0-3H9.5a1.5,1.5,0,0,0,0,3Z"/><path d="M49,15a1.49,1.49,0,0,0-2.12,0l-4.39,4.39a1.49,1.49,0,0,0,0,2.12,1.5,1.5,0,0,0,2.12,0L49,17.15A1.49,1.49,0,0,0,49,15Z"/><path d="M42.74,42.52a.84.84,0,0,0,.29.7,1.63,1.63,0,0,0,1,.23,3.43,3.43,0,0,0,1.26-.18v-.48q0-1.2-1.26-1.2T42.74,42.52Z"/><path d="M41,53h6a6,6,0,0,0,6-6V41a6,6,0,0,0-6-6H41a6,6,0,0,0-6,6v6A6,6,0,0,0,41,53Zm5.23-12.24A2.84,2.84,0,0,1,47,42.88v2.24a2.81,2.81,0,0,1-.78,2.12A3,3,0,0,1,44,48a2.75,2.75,0,0,1-2.88-1.73.4.4,0,0,1,0-.35.53.53,0,0,1,.29-.21l.78-.29a.42.42,0,0,1,.34,0,.75.75,0,0,1,.22.31,1.21,1.21,0,0,0,1.26.69,1.11,1.11,0,0,0,1.27-1.25v-.23a6.78,6.78,0,0,1-1.37.13,3.21,3.21,0,0,1-2.18-.63A2.38,2.38,0,0,1,41,42.53a2.25,2.25,0,0,1,.8-1.85A3.29,3.29,0,0,1,44,40,3,3,0,0,1,46.23,40.76Z"/></svg>