<svg xmlns="http://www.w3.org/2000/svg" viewBox="0 0 64 64"><path d="M47.25,30H11.75a1.5,1.5,0,0,1,0-3h35.5a3.5,3.5,0,0,0,0-7,3.43,3.43,0,0,0-2.52,1.08A1.5,1.5,0,0,1,42.56,19a6.44,6.44,0,0,1,4.69-2,6.5,6.5,0,0,1,0,13Z"/><path d="M32.75,47a6.44,6.44,0,0,1-4.69-2,1.5,1.5,0,0,1,2.17-2.08A3.43,3.43,0,0,0,32.75,44a3.5,3.5,0,0,0,0-7h-21a1.5,1.5,0,0,1,0-3h21a6.5,6.5,0,0,1,0,13Z"/><path d="M52.69,34.82a.52.52,0,0,1,.11.39v.53a1.94,1.94,0,0,1-.15.72L48.86,44.9a.64.64,0,0,1-.29.37,1.65,1.65,0,0,1-.66.09h-.82c-.33,0-.42-.17-.26-.51l3.81-8.39H45.81A.43.43,0,0,1,45.3,36v-.74a.52.52,0,0,1,.12-.39.51.51,0,0,1,.39-.11h6.48A.53.53,0,0,1,52.69,34.82Z"/></svg>