<svg xmlns="http://www.w3.org/2000/svg" viewBox="0 0 64 64"><path d="M49,44a2.68,2.68,0,0,0,1.62-.38,1.3,1.3,0,0,0,.48-1.1,2.33,2.33,0,0,0,0-.38.77.77,0,0,0-.15-.33l-.2-.24a.75.75,0,0,0-.28-.21l-.33-.16-.4-.13-.42-.11-.47-.12-.47-.1a1.89,1.89,0,0,0-1.52,1.8C46.83,43.46,47.56,44,49,44Z" fill="none"/><path d="M49,39.07l.6.15a1.85,1.85,0,0,0,1.35-1.71,1.17,1.17,0,0,0-.5-1,2.36,2.36,0,0,0-1.4-.35c-1.23,0-1.85.46-1.85,1.39a1.15,1.15,0,0,0,.45,1A4.17,4.17,0,0,0,49,39.07Z" fill="none"/><path d="M47.25,17a6.44,6.44,0,0,0-4.69,2,1.5,1.5,0,0,0,2.17,2.08A3.43,3.43,0,0,1,47.25,20a3.5,3.5,0,0,1,0,7H11.75a1.5,1.5,0,0,0,0,3h35.5a6.5,6.5,0,0,0,0-13Z"/><path d="M32.75,44a3.43,3.43,0,0,1-2.52-1.08A1.5,1.5,0,0,0,28.06,45a6.44,6.44,0,0,0,4.69,2,6.5,6.5,0,0,0,0-13h-21a1.5,1.5,0,0,0,0,3h21a3.5,3.5,0,0,1,0,7Z"/><path d="M44.93,42.69q0,2.89,4.06,2.89a4.71,4.71,0,0,0,3.09-.84,2.84,2.84,0,0,0,1-2.29,2.58,2.58,0,0,0-.49-1.66,3.53,3.53,0,0,0-1.37-1,2.7,2.7,0,0,0,1.53-2.45,2.53,2.53,0,0,0-1-2.12A4.53,4.53,0,0,0,49,34.48a4.25,4.25,0,0,0-2.73.79,2.65,2.65,0,0,0-1,2.21A2.77,2.77,0,0,0,46.76,40,2.9,2.9,0,0,0,44.93,42.69ZM49,36.12a2.36,2.36,0,0,1,1.4.35,1.17,1.17,0,0,1,.5,1,1.85,1.85,0,0,1-1.35,1.71l-.6-.15a4.17,4.17,0,0,1-1.35-.56,1.15,1.15,0,0,1-.45-1C47.16,36.58,47.78,36.12,49,36.12Zm-.66,4.57.47.1.47.12.42.11.4.13.33.16a.75.75,0,0,1,.28.21l.2.24a.77.77,0,0,1,.15.33,2.33,2.33,0,0,1,0,.38,1.3,1.3,0,0,1-.48,1.1A2.68,2.68,0,0,1,49,44c-1.45,0-2.18-.49-2.18-1.46A1.89,1.89,0,0,1,48.35,40.69Z"/></svg>