<svg xmlns="http://www.w3.org/2000/svg" viewBox="0 0 64 64"><path d="M29.9,33.24a7,7,0,0,1-1.15-1.58.28.28,0,0,0-.5,0c-.64,1.21-1.89,2.67-3.25,2.67s-2.61-1.46-3.25-2.67a.28.28,0,0,0-.5,0c-.64,1.21-1.89,2.67-3.25,2.67H17v6.13a2,2,0,0,0,2,2h5.51a2.05,2.05,0,0,1,.16-.81l1.33-3A16.39,16.39,0,0,1,29.9,33.24Z"/><path d="M43.13,31.5h1l-.5-4.37a3.52,3.52,0,0,1-1-.55Z"/><path d="M47.67,19.23a4.36,4.36,0,0,0-4.92-3.74A4.54,4.54,0,0,0,39.09,18h-.22a3.27,3.27,0,0,0-3,3.51,3.18,3.18,0,0,0,2.74,2.76,2.06,2.06,0,0,0-.1.86A2.18,2.18,0,0,0,41,27a2.3,2.3,0,0,0,1.41-.68,2.09,2.09,0,0,0,.29.23,3.52,3.52,0,0,0,1,.55,3.48,3.48,0,0,0,1.52.17,3.27,3.27,0,0,0,3-3.51,3,3,0,0,0-1.08-2A4,4,0,0,0,47.67,19.23Z"/><path d="M39.35,31.5c-4.87,0-9.33,3.1-11.52,8l-1.33,3h19a2.1,2.1,0,0,0,2-2.22V33.72a2.1,2.1,0,0,0-2-2.22H39.35Z"/><path d="M34,22.44a1,1,0,0,0,0-2H18.22a1.22,1.22,0,1,1,0-2.44,1.17,1.17,0,0,1,.88.38,1,1,0,0,0,1.42,0,1,1,0,0,0,0-1.41,3.17,3.17,0,0,0-2.32-1,3.22,3.22,0,1,0,0,6.44Z"/><path d="M27,27.6a1,1,0,0,0-1.41,0,1.19,1.19,0,0,1-.88.38,1.22,1.22,0,1,1,0-2.44H34a1,1,0,0,0,0-2H24.67a3.22,3.22,0,1,0,0,6.44A3.18,3.18,0,0,0,27,29,1,1,0,0,0,27,27.6Z"/></svg>