<svg xmlns="http://www.w3.org/2000/svg" viewBox="0 0 64 64"><path d="M46.9,41.68a1.9,1.9,0,0,0,2.16,2.14,2.66,2.66,0,0,0,1.61-.42,1.49,1.49,0,0,0,.55-1.26,1.56,1.56,0,0,0-.5-1.25,2.65,2.65,0,0,0-1.64-.41,5.3,5.3,0,0,0-2.18.34Z" fill="none"/><path d="M47.25,17a6.44,6.44,0,0,0-4.69,2,1.5,1.5,0,0,0,2.17,2.08A3.43,3.43,0,0,1,47.25,20a3.5,3.5,0,0,1,0,7H11.75a1.5,1.5,0,0,0,0,3h35.5a6.5,6.5,0,0,0,0-13Z"/><path d="M39.25,40.5a6.51,6.51,0,0,0-6.5-6.5h-21a1.5,1.5,0,0,0,0,3h21a3.5,3.5,0,0,1,0,7,3.43,3.43,0,0,1-2.52-1.08A1.5,1.5,0,0,0,28.06,45a6.44,6.44,0,0,0,4.69,2A6.51,6.51,0,0,0,39.25,40.5Z"/><path d="M49.06,36.23a2.05,2.05,0,0,1,2.11,1.25.69.69,0,0,0,.25.35.46.46,0,0,0,.4,0l.8-.28a.73.73,0,0,0,.35-.25.56.56,0,0,0,0-.41q-.88-2.37-3.87-2.37a4.1,4.1,0,0,0-3,1,3.88,3.88,0,0,0-1,2.88v3.28a3.87,3.87,0,0,0,1,2.87,4.11,4.11,0,0,0,3,1,4.41,4.41,0,0,0,3-.92,3.13,3.13,0,0,0,1.07-2.52c0-2.27-1.29-3.42-3.88-3.42A8.91,8.91,0,0,0,46.9,39v-.63A1.91,1.91,0,0,1,49.06,36.23Zm0,4.25a2.65,2.65,0,0,1,1.64.41,1.56,1.56,0,0,1,.5,1.25,1.49,1.49,0,0,1-.55,1.26,2.66,2.66,0,0,1-1.61.42,1.9,1.9,0,0,1-2.16-2.14v-.86A5.3,5.3,0,0,1,49.08,40.48Z"/></svg>