<svg xmlns="http://www.w3.org/2000/svg" viewBox="0 0 64 64"><path d="M47.25,30H11.75a1.5,1.5,0,0,1,0-3h35.5a3.5,3.5,0,0,0,0-7,3.43,3.43,0,0,0-2.52,1.08A1.5,1.5,0,0,1,42.56,19a6.44,6.44,0,0,1,4.69-2,6.5,6.5,0,0,1,0,13Z"/><path d="M32.75,47a6.44,6.44,0,0,1-4.69-2,1.5,1.5,0,0,1,2.17-2.08A3.43,3.43,0,0,0,32.75,44a3.5,3.5,0,0,0,0-7h-21a1.5,1.5,0,0,1,0-3h21a6.5,6.5,0,0,1,0,13Z"/><path d="M49.21,38.72c2.59,0,3.88,1.15,3.88,3.42A3.13,3.13,0,0,1,52,44.66a4.41,4.41,0,0,1-3,.92,4.11,4.11,0,0,1-3-1,3.87,3.87,0,0,1-1-2.87V38.39a3.88,3.88,0,0,1,1-2.88,4.1,4.1,0,0,1,3-1q3,0,3.87,2.37a.56.56,0,0,1,0,.41.73.73,0,0,1-.35.25l-.8.28a.46.46,0,0,1-.4,0,.69.69,0,0,1-.25-.35,2.05,2.05,0,0,0-2.11-1.25,1.91,1.91,0,0,0-2.16,2.15V39A8.91,8.91,0,0,1,49.21,38.72Zm-.15,5.1a2.66,2.66,0,0,0,1.61-.42,1.49,1.49,0,0,0,.55-1.26,1.56,1.56,0,0,0-.5-1.25,2.65,2.65,0,0,0-1.64-.41,5.3,5.3,0,0,0-2.18.34v.86A1.9,1.9,0,0,0,49.06,43.82Z"/></svg>