<svg xmlns="http://www.w3.org/2000/svg" viewBox="0 0 64 64"><path d="M42.61,21.12a1.51,1.51,0,0,0,2.12,0A3.43,3.43,0,0,1,47.25,20a3.5,3.5,0,0,1,0,7H11.75a1.5,1.5,0,0,0,0,3h35.5a6.5,6.5,0,0,0,0-13,6.44,6.44,0,0,0-4.69,2A1.5,1.5,0,0,0,42.61,21.12Z"/><path d="M32.75,44a3.43,3.43,0,0,1-2.52-1.08A1.5,1.5,0,0,0,28.06,45a6.44,6.44,0,0,0,4.69,2,6.5,6.5,0,0,0,0-13h-21a1.5,1.5,0,0,0,0,3h21a3.5,3.5,0,0,1,0,7Z"/><path d="M46.08,45.24a.55.55,0,0,0,.4.12h.85a.52.52,0,0,0,.4-.12.51.51,0,0,0,.11-.39V35.21a.42.42,0,0,0-.51-.5h-.71a1.34,1.34,0,0,0-.72.21L43,36.6a.67.67,0,0,0-.31.29.58.58,0,0,0,.07.4l.38.67a.57.57,0,0,0,.3.31.62.62,0,0,0,.46-.12L46,37v7.87A.55.55,0,0,0,46.08,45.24Z"/><path d="M53.93,34.71h-.72a1.31,1.31,0,0,0-.71.21L49.57,36.6a.67.67,0,0,0-.31.29.58.58,0,0,0,.07.4l.38.67a.55.55,0,0,0,.29.31.63.63,0,0,0,.47-.12L52.57,37v7.87a.43.43,0,0,0,.51.51h.85a.53.53,0,0,0,.4-.12.51.51,0,0,0,.11-.39V35.21a.52.52,0,0,0-.11-.39A.53.53,0,0,0,53.93,34.71Z"/></svg>