<svg xmlns="http://www.w3.org/2000/svg" viewBox="0 0 64 64"><path d="M51.1,38.38a2.12,2.12,0,0,0-.56-1.6,2.2,2.2,0,0,0-1.6-.55,2.66,2.66,0,0,0-1.61.43,1.5,1.5,0,0,0-.55,1.26,1.56,1.56,0,0,0,.5,1.25,2.65,2.65,0,0,0,1.64.41,5.11,5.11,0,0,0,2.18-.35Z" fill="none"/><path d="M47.25,17a6.44,6.44,0,0,0-4.69,2,1.5,1.5,0,0,0,2.17,2.08A3.43,3.43,0,0,1,47.25,20a3.5,3.5,0,0,1,0,7H11.75a1.5,1.5,0,0,0,0,3h35.5a6.5,6.5,0,0,0,0-13Z"/><path d="M32.75,44a3.43,3.43,0,0,1-2.52-1.08A1.5,1.5,0,0,0,28.06,45a6.44,6.44,0,0,0,4.69,2,6.5,6.5,0,0,0,0-13h-21a1.5,1.5,0,0,0,0,3h21a3.5,3.5,0,0,1,0,7Z"/><path d="M48.94,43.82a2,2,0,0,1-2.11-1.24.69.69,0,0,0-.25-.35.49.49,0,0,0-.4,0l-.8.28a.73.73,0,0,0-.35.25.65.65,0,0,0,0,.41,3.74,3.74,0,0,0,3.89,2.37,4.05,4.05,0,0,0,3-1,3.84,3.84,0,0,0,1-2.88V38.39a3.85,3.85,0,0,0-1-2.87,4.06,4.06,0,0,0-3-1,4.41,4.41,0,0,0-3,.92,3.15,3.15,0,0,0-1.07,2.52q0,3.42,3.88,3.42a8.91,8.91,0,0,0,2.31-.29v.63A1.9,1.9,0,0,1,48.94,43.82Zm0-4.24a2.65,2.65,0,0,1-1.64-.41,1.56,1.56,0,0,1-.5-1.25,1.5,1.5,0,0,1,.55-1.26,2.66,2.66,0,0,1,1.61-.43,2.2,2.2,0,0,1,1.6.55,2.12,2.12,0,0,1,.56,1.6v.85A5.11,5.11,0,0,1,48.92,39.58Z"/></svg>