<svg xmlns="http://www.w3.org/2000/svg" viewBox="0 0 64 64"><path d="M47.25,17a6.44,6.44,0,0,0-4.69,2,1.5,1.5,0,0,0,2.17,2.08A3.43,3.43,0,0,1,47.25,20a3.5,3.5,0,0,1,0,7H11.75a1.5,1.5,0,0,0,0,3h35.5a6.5,6.5,0,0,0,0-13Z"/><path d="M39.25,40.5a6.51,6.51,0,0,0-6.5-6.5h-21a1.5,1.5,0,0,0,0,3h21a3.5,3.5,0,0,1,0,7,3.43,3.43,0,0,1-2.52-1.08A1.5,1.5,0,0,0,28.06,45a6.44,6.44,0,0,0,4.69,2A6.51,6.51,0,0,0,39.25,40.5Z"/><path d="M49.1,43.82a2.74,2.74,0,0,1-1.52-.33,2.07,2.07,0,0,1-.75-1.06.69.69,0,0,0-.25-.34.55.55,0,0,0-.41,0l-.81.28a.47.47,0,0,0-.33.66q.88,2.52,4.07,2.52A4.15,4.15,0,0,0,52,44.7a3,3,0,0,0,1-2.38,2.54,2.54,0,0,0-1.51-2.53,2.4,2.4,0,0,0,1.17-2.26,2.82,2.82,0,0,0-.93-2.24,3.8,3.8,0,0,0-2.6-.81,4.69,4.69,0,0,0-2.58.62A3.56,3.56,0,0,0,45.12,37a.46.46,0,0,0,.33.66l.81.29a.56.56,0,0,0,.42,0,.6.6,0,0,0,.24-.33,2.21,2.21,0,0,1,.71-1.07,2.5,2.5,0,0,1,1.42-.32c1.12,0,1.68.49,1.68,1.46a1.31,1.31,0,0,1-.43,1,1.65,1.65,0,0,1-1.14.38H47.87a.58.58,0,0,0-.4.11.55.55,0,0,0-.11.4v.68a.53.53,0,0,0,.11.4.58.58,0,0,0,.4.1h1.56q1.56,0,1.56,1.5T49.1,43.82Z"/></svg>