<svg xmlns="http://www.w3.org/2000/svg" viewBox="0 0 64 64"><path d="M47.25,30H11.75a1.5,1.5,0,0,1,0-3h35.5a3.5,3.5,0,0,0,0-7,3.43,3.43,0,0,0-2.52,1.08A1.5,1.5,0,0,1,42.56,19a6.44,6.44,0,0,1,4.69-2,6.5,6.5,0,0,1,0,13Z"/><path d="M32.75,47a6.44,6.44,0,0,1-4.69-2,1.5,1.5,0,0,1,2.17-2.08A3.43,3.43,0,0,0,32.75,44a3.5,3.5,0,0,0,0-7h-21a1.5,1.5,0,0,1,0-3h21a6.5,6.5,0,0,1,0,13Z"/><path d="M46.28,34.82a.57.57,0,0,1,.11.39v9.64a.43.43,0,0,1-.51.51H45a.52.52,0,0,1-.4-.12.51.51,0,0,1-.11-.39V37l-2.1,1.17a.65.65,0,0,1-.47.12.6.6,0,0,1-.3-.31l-.37-.67a.53.53,0,0,1-.07-.4c0-.1.14-.19.31-.29l2.92-1.68a1.37,1.37,0,0,1,.72-.21h.72A.55.55,0,0,1,46.28,34.82Z"/><path d="M49.38,35.46a4.84,4.84,0,0,1,5.84,0,3.44,3.44,0,0,1,1,2.64V42a3.49,3.49,0,0,1-1,2.66,4.88,4.88,0,0,1-5.84,0A3.42,3.42,0,0,1,48.33,42V38.1A3.38,3.38,0,0,1,49.38,35.46Zm4.46,1.26a2.66,2.66,0,0,0-3.08,0,1.78,1.78,0,0,0-.55,1.38V42a1.78,1.78,0,0,0,.55,1.38,2.67,2.67,0,0,0,3.08,0A1.78,1.78,0,0,0,54.38,42V38.1A1.78,1.78,0,0,0,53.84,36.72Z"/></svg>