<svg xmlns="http://www.w3.org/2000/svg" viewBox="0 0 64 64"><path d="M29.9,33.24a7,7,0,0,1-1.15-1.58.28.28,0,0,0-.5,0c-.64,1.21-1.89,2.67-3.25,2.67s-2.61-1.46-3.25-2.67a.28.28,0,0,0-.5,0c-.64,1.21-1.89,2.67-3.25,2.67H17v6.13a2,2,0,0,0,2,2h5.51a2.05,2.05,0,0,1,.16-.81l1.33-3A16.39,16.39,0,0,1,29.9,33.24Z"/><path d="M43.58,26.41,43,31.5h1l.43-4.36A3.43,3.43,0,0,1,43.58,26.41Z"/><path d="M46,15.57a4.55,4.55,0,0,0-4.11,1.72l-.22,0A3.28,3.28,0,0,0,38,20.05a3.22,3.22,0,0,0,2.11,3.28,2.09,2.09,0,0,0-.27.82,2.18,2.18,0,0,0,2,2.34,2.3,2.3,0,0,0,1.52-.37c.07.1.16.19.24.29a3.43,3.43,0,0,0,.83.73,3.47,3.47,0,0,0,1.44.49,3.29,3.29,0,0,0,3.69-2.81,3.06,3.06,0,0,0-.64-2.18A4.08,4.08,0,0,0,50,20.26,4.38,4.38,0,0,0,46,15.57Z"/><path d="M39.35,31.5c-4.87,0-9.33,3.1-11.52,8l-1.33,3h19a2.1,2.1,0,0,0,2-2.22V33.72a2.1,2.1,0,0,0-2-2.22H39.35Z"/><path d="M16,22.44H31.78a3.22,3.22,0,1,0,0-6.44,3.17,3.17,0,0,0-2.32,1,1,1,0,0,0,0,1.41,1,1,0,0,0,1.42,0,1.17,1.17,0,0,1,.88-.38,1.22,1.22,0,1,1,0,2.44H16a1,1,0,1,0,0,2Z"/><path d="M25.33,25.56a1.22,1.22,0,1,1,0,2.44,1.19,1.19,0,0,1-.88-.38A1,1,0,0,0,23,29a3.18,3.18,0,0,0,2.32,1,3.22,3.22,0,1,0,0-6.44H16a1,1,0,0,0,0,2Z"/></svg>