<svg xmlns="http://www.w3.org/2000/svg" xmlns:xlink="http://www.w3.org/1999/xlink" viewBox="0 0 64 64"><defs><clipPath id="a"><path d="M26.5,44.5a2,2,0,0,1-1.83-2.81l1.33-3C28.53,33,33.65,29.5,39.35,29.5H16v15Z" fill="none"/></clipPath></defs><g clip-path="url(#a)"><path d="M32,34.33c-1.36,0-2.61-1.46-3.25-2.67a.28.28,0,0,0-.5,0c-.64,1.21-1.89,2.67-3.25,2.67s-2.61-1.46-3.25-2.67a.28.28,0,0,0-.5,0c-.64,1.21-1.89,2.67-3.25,2.67H17v6.13a2,2,0,0,0,2,2H32Z"/></g><path d="M42.78,19.79c-.08-.68-.27-1.21-.45-1.19h-.14c-.17,0-.26.58-.19,1.26l1.3,13.4c.07.71.28,1.29.46,1.27l.35,0c.18,0,.27-.62.18-1.34Z"/><path d="M47.67,19.23a4.36,4.36,0,0,0-4.92-3.74A4.54,4.54,0,0,0,39.09,18h-.22a3.27,3.27,0,0,0-3,3.51,3.18,3.18,0,0,0,2.74,2.76,2.06,2.06,0,0,0-.1.86A2.18,2.18,0,0,0,41,27a2.3,2.3,0,0,0,1.41-.68,3.4,3.4,0,0,0,2.77.95,3.27,3.27,0,0,0,3-3.51,3,3,0,0,0-1.08-2A4,4,0,0,0,47.67,19.23Z"/><path d="M47.5,40.28V33.72a2.1,2.1,0,0,0-2-2.22H39.35c-4.87,0-9.33,3.1-11.52,8l-1.33,3h19A2.1,2.1,0,0,0,47.5,40.28Z"/><path d="M34,22.44H18.22a3.22,3.22,0,1,1,0-6.44,3.17,3.17,0,0,1,2.32,1,1,1,0,0,1,0,1.41,1,1,0,0,1-1.42,0,1.17,1.17,0,0,0-.88-.38,1.22,1.22,0,1,0,0,2.44H34a1,1,0,0,1,0,2Z"/><path d="M24.67,30a3.22,3.22,0,1,1,0-6.44H34a1,1,0,0,1,0,2H24.67a1.22,1.22,0,1,0,0,2.44,1.19,1.19,0,0,0,.88-.38A1,1,0,0,1,27,29,3.18,3.18,0,0,1,24.67,30Z"/></svg>