<svg xmlns="http://www.w3.org/2000/svg" viewBox="0 0 64 64"><path d="M47.25,30H11.75a1.5,1.5,0,0,1,0-3h35.5a3.5,3.5,0,0,0,0-7,3.43,3.43,0,0,0-2.52,1.08A1.5,1.5,0,0,1,42.56,19a6.44,6.44,0,0,1,4.69-2,6.5,6.5,0,0,1,0,13Z"/><path d="M32.75,47a6.44,6.44,0,0,1-4.69-2,1.5,1.5,0,0,1,2.17-2.08A3.43,3.43,0,0,0,32.75,44a3.5,3.5,0,0,0,0-7h-21a1.5,1.5,0,0,1,0-3h21a6.5,6.5,0,0,1,0,13Z"/><path d="M46.08,35.46a4.08,4.08,0,0,1,2.92-1,4.08,4.08,0,0,1,2.92,1,3.44,3.44,0,0,1,1,2.64V42a3.49,3.49,0,0,1-1,2.66,4.12,4.12,0,0,1-2.92,1,4.12,4.12,0,0,1-2.92-1A3.46,3.46,0,0,1,45,42V38.1A3.41,3.41,0,0,1,46.08,35.46Zm4.46,1.26a2.66,2.66,0,0,0-3.08,0,1.78,1.78,0,0,0-.54,1.38V42a1.78,1.78,0,0,0,.54,1.38,2.67,2.67,0,0,0,3.08,0A1.78,1.78,0,0,0,51.08,42V38.1A1.78,1.78,0,0,0,50.54,36.72Z"/></svg>