<svg xmlns="http://www.w3.org/2000/svg" viewBox="0 0 64 64"><defs><clipPath id="a"><path fill="none" d="m44.59 42.78-5.82-10.66L33 21.62a1.18 1.18 0 0 0-2.08 0l-5.73 10.5-5.78 10.66a1.19 1.19 0 0 0 1.05 1.76h23.08a1.19 1.19 0 0 0 1.05-1.76z"/></clipPath></defs><g clip-path="url(#a)"><path d="m44.5 33.5.23 12.04-20.23-.04 20-12z"/><rect width="4" height="1.37" x="34" y="31.81" rx=".5" transform="rotate(-31 35.992 32.504)"/><circle cx="36.5" cy="35.5" r=".75"/><circle cx="25" cy="40" r=".75"/><rect width="5" height="5" x="27.5" y="34.5" rx="1" transform="rotate(-42 30.004 36.998)"/></g><path d="M47.58 43 41 30.91l-6.36-11.67a3 3 0 0 0-5.28 0L23 30.91 16.42 43a3 3 0 0 0 2.64 4.44h25.88A3 3 0 0 0 47.58 43zm-4 1.57H20.46a1.19 1.19 0 0 1-1.05-1.76l5.82-10.66L31 21.62a1.18 1.18 0 0 1 2.08 0l5.73 10.5 5.82 10.66a1.19 1.19 0 0 1-1.09 1.76z"/></svg>