<svg xmlns="http://www.w3.org/2000/svg" viewBox="0 0 64 64"><path d="M32 14a18 18 0 1 0 18 18 18 18 0 0 0-18-18zm6.15 12.15 3-3a.49.49 0 0 1 .7.7l-3 3a.48.48 0 0 1-.7 0 .48.48 0 0 1 0-.7zM19 32.5a.5.5 0 0 1 0-1h6a.5.5 0 0 1 0 1zm6.85 5.35-3 3a.48.48 0 0 1-.7 0 .48.48 0 0 1 0-.7l3-3a.49.49 0 0 1 .7.7zm0-11a.48.48 0 0 1-.7 0l-3-3a.49.49 0 0 1 .7-.7l3 3a.48.48 0 0 1 0 .7zm7.15 8v.68a1 1 0 0 1-2 0v-.68a3 3 0 0 1 0-5.64V20.5a1 1 0 0 1 .5-.85V19a.5.5 0 0 1 1 0v.65a1 1 0 0 1 .5.85v8.68a3 3 0 0 1 0 5.64zm8.85 6a.48.48 0 0 1-.7 0l-3-3a.49.49 0 0 1 .7-.7l3 3a.48.48 0 0 1 0 .7zm3.65-8.35h-6a.5.5 0 0 1 0-1h6a.5.5 0 0 1 0 1z"/></svg>