<svg xmlns="http://www.w3.org/2000/svg" xmlns:xlink="http://www.w3.org/1999/xlink" viewBox="0 0 512 512"><defs><symbol id="a" viewBox="0 0 109.1 73.2"><g><path d="M19.4 0A18.7 18.7 0 000 19.3a19 19 0 0019.4 19.5 18.9 18.9 0 0019.4-19.5A18.6 18.6 0 0019.4 0Zm6.3 25.7c-1.6 1.7-3.7 2.5-6.3 2.5s-4.6-.8-6.2-2.5c-1.6-1.6-2.4-3.7-2.4-6.4s.7-4.7 2.3-6.3c1.7-1.6 3.7-2.4 6.3-2.4s4.7.8 6.3 2.4 2.4 3.7 2.4 6.3c0 2.7-.8 4.8-2.4 6.4Zm53.1 32.8c-5 0-8.7-2-11.5-5.7s-4-9-4-16 1.3-11.8 4-15.5c2.8-3.7 6.6-5.6 11.5-5.6 3.5 0 6.4 1 8.6 3a13 13 0 014.2 8.2H109c-1-8-4.1-14.4-9.5-19C94 3.3 87 .9 78.3.9a31 31 0 00-23.7 9.8C48.4 17.2 45.3 26 45.3 37s3 19.7 9.2 26.3A31 31 0 0078.3 73c8.7 0 16-2.3 21.6-7a27.2 27.2 0 009.2-19.6H91.6c-1 8-5.3 12-12.8 12Z"/></g></symbol></defs><g id="ft"><use xlink:href="#a" width="109.1" height="73.2" transform="matrix(1.46 0 0 1.46 176.26 202.35)"/></g></svg>