<svg xmlns="http://www.w3.org/2000/svg" viewBox="0 0 512 512"><g id="ho"><path fill="none" stroke="#000" stroke-linecap="round" stroke-miterlimit="10" stroke-width="15" d="m381 340.1-52.8-97.3-51-94.2a24 24 0 00-42.4 0l-51 94.2-52.8 97.3a24.3 24.3 0 0021.2 35.9h207.7a24.2 24.2 0 0021.1-35.9Z"/><path d="M243 216.6c1-1 2.8-1.3 5.4-1.3h15.4c2.6 0 4.5.4 5.5 1.3 1.1.8 1.6 2.4 1.4 4.7l-3 71.8c0 2.3-.6 3.8-1.5 4.6-1 .9-2.8 1.3-5.4 1.3h-9.4c-2.6 0-4.4-.5-5.4-1.3-.9-.8-1.4-2.3-1.5-4.6l-2.9-71.9c0-2.2.4-3.8 1.3-4.6Zm29 107.6c0 4.6-1 7.8-3 9.5-2 1.8-5.6 2.7-11 2.7h-4c-5.4 0-9-1-11-2.6-2-1.8-3-5-3-9.6v-2.9c0-4.6 1-7.8 3-9.6 2-1.7 5.6-2.5 11-2.5h4c5.4 0 9 .8 11 2.5 2 1.8 3 5 3 9.6v3Z"/></g></svg>