<svg xmlns="http://www.w3.org/2000/svg" viewBox="0 0 512 512"><g id="fq"><circle cx="256" cy="256" r="144" fill="none" stroke="#000" stroke-miterlimit="10" stroke-width="12"/><path d="M259.2 152v-10.4h4.6v18h-4.7l-6.3-10.4v10.4h-4.6v-18h4.6l6.4 10.5Zm103.3 105.7v3.3h9.8v4h-14.5v-18H372v4h-9.5v2.9h8.3v3.8h-8.3Zm-106.4 116c-2.3 0-4-.5-5.4-1.6-1.3-1-2-2.5-2-4.4h4.4c0 1.6 1.1 2.4 3.1 2.4 1.8 0 2.6-.6 2.6-1.7 0-.4-.1-.8-.4-1-.4-.3-.9-.5-1.6-.7l-3.4-.8c-3-.7-4.4-2.3-4.4-4.9a5 5 0 011.7-3.8c1.2-1 2.9-1.5 5.1-1.5s3.8.5 5 1.4c1.3 1 2 2.3 2 4h-4.3c-.2-1.3-1.1-2-2.7-2-.7 0-1.3.2-1.7.4-.4.3-.6.7-.6 1.2 0 .7.5 1.2 1.6 1.4l3.5.8c3.2.8 4.8 2.5 4.8 5.2 0 1.7-.7 3.1-2 4-1.3 1-3 1.6-5.3 1.6ZM156.2 255l2-8h4.7l-5.2 18h-4.5l-2.4-11.5-2.3 11.5h-4.7l-5.2-18h4.8l2 8 .8 4.2.7-4.3 1.7-7.9h4.4l1.7 8 .7 4.1.8-4.2Z"/><g><path d="m256 172-24 84h48l-24-84zM232 256l24 84 24-84h-48z"/></g></g></svg>