<svg xmlns="http://www.w3.org/2000/svg" xmlns:xlink="http://www.w3.org/1999/xlink" viewBox="0 0 512 512"><defs><symbol id="a" viewBox="0 0 244 192"><g><circle cx="12" cy="180" r="12"/><circle cx="72" cy="180" r="12"/><circle cx="44" cy="148" r="12"/><circle cx="104" cy="148" r="12"/><circle cx="76" cy="112" r="12"/><circle cx="136" cy="112" r="12"/><circle cx="108" cy="80" r="12"/><circle cx="168" cy="80" r="12"/><circle cx="140" cy="44" r="12"/><circle cx="200" cy="44" r="12"/><circle cx="172" cy="12" r="12"/><circle cx="232" cy="12" r="12"/></g></symbol><symbol id="b" viewBox="0 0 375 375"><g><circle cx="187.5" cy="187.5" r="84" fill="none" stroke="#000" stroke-miterlimit="10" stroke-width="15"/><path fill="none" stroke="#000" stroke-linecap="round" stroke-miterlimit="10" stroke-width="15" d="M187.5 57.2V7.5m0 360v-49.7m92.2-222.5 35-35M60.3 314.7l35.1-35.1m0-184.4-35-35m254.5 254.5-35.1-35.1M57.2 187.5H7.5m360 0h-49.7"/></g></symbol><clipPath id="cr"><path fill="none" d="M0 0h512L0 512V0z"/></clipPath><style>.if,.ig,.ih{fill:none;}.ig{stroke-linecap:round;}.ig,.ih{stroke:#000;stroke-miterlimit:10;stroke-width:15px;}.ii{clip-path:url(#cr);}</style></defs><g id="cq"><g clip-path="url(#cr)"><use xlink:href="#b" width="375" height="375" transform="translate(68.5 68.5)"/></g><use xlink:href="#a" width="244" height="192" transform="translate(192 182)"/></g></svg>