<svg xmlns="http://www.w3.org/2000/svg" xmlns:xlink="http://www.w3.org/1999/xlink" viewBox="0 0 512 512"><defs><symbol id="a" viewBox="0 0 359 231"><path fill="none" stroke="#000" stroke-linecap="round" stroke-linejoin="round" stroke-width="15" d="M295.5 223.5a56 56 0 100-112l-2.5.1a84 84 0 00-153-64.2 56 56 0 00-83.8 57.2 60 60 0 0011.2 118.9"/></symbol><symbol id="b" viewBox="0 0 244 192"><g><circle cx="12" cy="180" r="12"/><circle cx="72" cy="180" r="12"/><circle cx="44" cy="148" r="12"/><circle cx="104" cy="148" r="12"/><circle cx="76" cy="112" r="12"/><circle cx="136" cy="112" r="12"/><circle cx="108" cy="80" r="12"/><circle cx="168" cy="80" r="12"/><circle cx="140" cy="44" r="12"/><circle cx="200" cy="44" r="12"/><circle cx="172" cy="12" r="12"/><circle cx="232" cy="12" r="12"/></g></symbol><clipPath id="cq"><path fill="none" d="M0 0h512L0 512V0z"/></clipPath><style>.if,.ig{fill:none;}.ih{clip-path:url(#cq);}.ig{stroke:#000;stroke-linecap:round;stroke-linejoin:round;stroke-width:15px;}</style></defs><g id="cp"><g clip-path="url(#cq)"><use xlink:href="#a" width="359" height="231" transform="translate(80.5 140.5)"/></g><use xlink:href="#b" width="244" height="192" transform="translate(192 182)"/></g></svg>