<svg xmlns="http://www.w3.org/2000/svg" xmlns:xlink="http://www.w3.org/1999/xlink" viewBox="0 0 512 512"><defs><symbol id="a" viewBox="0 0 244 192"><g><circle cx="12" cy="180" r="12"/><circle cx="72" cy="180" r="12"/><circle cx="44" cy="148" r="12"/><circle cx="104" cy="148" r="12"/><circle cx="76" cy="112" r="12"/><circle cx="136" cy="112" r="12"/><circle cx="108" cy="80" r="12"/><circle cx="168" cy="80" r="12"/><circle cx="140" cy="44" r="12"/><circle cx="200" cy="44" r="12"/><circle cx="172" cy="12" r="12"/><circle cx="232" cy="12" r="12"/></g></symbol><symbol id="b" viewBox="0 0 279 279"><path fill="none" stroke="#000" stroke-linecap="round" stroke-linejoin="round" stroke-width="15" d="M256.8 173.1A133.3 133.3 0 01122.4 40.7c0-11.5 1.7-22.6 4.5-33.2A133 133 0 007.5 139.1c0 73.1 60 132.4 134.2 132.4 62.5 0 114.8-42.2 129.8-99.2-4.8.5-9.8.8-14.8.8Z"/></symbol><clipPath id="cn"><path fill="none" d="M0 0h512L0 512V0z"/></clipPath><style>.if,.ig{fill:none;}.ih{clip-path:url(#cn);}.ig{stroke:#000;stroke-linecap:round;stroke-linejoin:round;stroke-width:15px;}</style></defs><g id="cm"><g clip-path="url(#cn)"><use xlink:href="#b" width="279" height="279" transform="translate(116.5 116.5)"/></g><use xlink:href="#a" width="244" height="192" transform="translate(192 182)"/></g></svg>