<svg xmlns="http://www.w3.org/2000/svg" xmlns:xlink="http://www.w3.org/1999/xlink" viewBox="0 0 512 512"><defs><symbol id="a" viewBox="0 0 214.3 140.1"><path fill="none" stroke="#000" stroke-linejoin="round" stroke-width="15" d="M7.5 100.2a32.4 32.4 0 0032.4 32.4h129.8v-.1l2.3.1a34.8 34.8 0 006.5-68.9A32.4 32.4 0 00130 30.6a48.6 48.6 0 00-88.6 37.2h-1.5a32.4 32.4 0 00-32.4 32.4Z"/></symbol><symbol id="b" viewBox="0 0 359 231"><path fill="none" stroke="#000" stroke-linecap="round" stroke-linejoin="round" stroke-width="15" d="M295.5 223.5a56 56 0 100-112l-2.5.1a84 84 0 00-153-64.2 56 56 0 00-83.8 57.2 60 60 0 0011.2 118.9"/></symbol><symbol id="c" viewBox="0 0 437 362.5"><g><use xlink:href="#b" width="359" height="231" transform="translate(0 131.5)"/><g clip-path="url(#d)"><use xlink:href="#a" width="214.3" height="140.1" transform="translate(195.51 156.01)"/></g></g></symbol><symbol id="e" viewBox="0 0 155.2 138"><g><path d="m41.2 30.5-5.8-3.3a14 14 0 000-6.4l5.8-3.3a4 4 0 001.4-5.5 4 4 0 00-5.5-1.5l-5.8 3.3a14 14 0 00-5.7-3.2V4c0-2.2-1.8-4-4-4s-4 1.8-4 4v6.6c-2.2.6-4.1 1.7-5.8 3.2l-5.7-3.3A4 4 0 00.5 12 4 4 0 002 17.5l5.8 3.3a14 14 0 000 6.4L2 30.5A4 4 0 00.5 36a4 4 0 005.6 1.5l5.7-3.3a14 14 0 005.7 3.2V44c0 2.2 1.8 4 4 4s4.1-1.8 4.1-4v-6.6c2.1-.6 4-1.7 5.7-3.2l5.8 3.3c.6.3 1.3.5 2 .5a4 4 0 003.5-2 4 4 0 00-1.4-5.5Zm-22.6-1.3a6 6 0 013-11.2 6 6 0 015.3 9 6.1 6.1 0 01-8.3 2.2Zm78.6 91.3-5.8-3.2a14 14 0 000-6.5l5.8-3.3a4 4 0 001.4-5.5 4 4 0 00-5.5-1.4l-5.8 3.3a14 14 0 00-5.7-3.3V94c0-2.2-1.8-4-4-4s-4 1.8-4 4v6.6c-2.2.6-4.1 1.7-5.8 3.2l-5.7-3.2a4 4 0 00-5.6 1.4 4 4 0 001.5 5.5l5.8 3.3a14 14 0 000 6.4l-5.8 3.3a4 4 0 00-1.5 5.5 4 4 0 005.6 1.5l5.7-3.3a14 14 0 005.7 3.2v6.6c0 2.2 1.8 4 4 4s4.1-1.8 4.1-4v-6.6c2.1-.6 4-1.7 5.7-3.2l5.8 3.3c.6.3 1.3.5 2 .5a4 4 0 003.5-2 4 4 0 00-1.4-5.5Zm-22.6-1.3a6 6 0 013-11.2 6 6 0 015.3 9 6.1 6.1 0 01-8.3 2.2Zm78.6-48.7-5.8-3.2a14 14 0 000-6.5l5.8-3.3a4 4 0 001.4-5.5 4 4 0 00-5.5-1.5l-5.8 3.3a14 14 0 00-5.7-3.2V44c0-2.2-1.8-4-4-4s-4 1.8-4 4v6.6c-2.2.6-4.1 1.7-5.8 3.2l-5.7-3.3a4 4 0 00-5.6 1.5 4 4 0 001.5 5.5l5.8 3.3a14 14 0 000 6.4l-5.8 3.3a4 4 0 00-1.5 5.5 4 4 0 005.6 1.5l5.7-3.3a14 14 0 005.7 3.2V84c0 2.2 1.8 4 4 4s4.1-1.8 4.1-4v-6.6c2.1-.6 4-1.7 5.7-3.2l5.8 3.3c.6.3 1.3.5 2 .5a4 4 0 003.5-2 4 4 0 00-1.4-5.5Zm-22.6-1.3a6 6 0 013-11.2 6 6 0 015.3 9 6.1 6.1 0 01-8.3 2.2Z"/></g></symbol><clipPath id="d"><path fill="none" d="M369.5 299c0-34.6-24-63.8-56-71.8V223c0-56.2-45.8-102-102-102V0H437v299h-67.5Z"/></clipPath><style>.ih,.ii,.ij{fill:none;}.ii,.ij{stroke:#000;stroke-linejoin:round;stroke-width:15px;}.ik{clip-path:url(#d);}.ij{stroke-linecap:round;}</style></defs><g id="c`"><use xlink:href="#c" width="437" height="362.5" transform="translate(64.34 9)"/><use xlink:href="#e" width="155.2" height="138" transform="translate(178.4 338)"/></g></svg>