<svg xmlns="http://www.w3.org/2000/svg" xmlns:xlink="http://www.w3.org/1999/xlink" viewBox="0 0 512 512"><defs><clipPath id="ea"><path fill="none" d="M512 27.5 240 189.1l16 48 40 32 216-96V27.5z"/></clipPath><symbol id="a" viewBox="0 0 279 279"><path fill="none" stroke="#000" stroke-linecap="round" stroke-linejoin="round" stroke-width="15" d="M256.8 173.1A133.3 133.3 0 01122.4 40.7c0-11.5 1.7-22.6 4.5-33.2A133 133 0 007.5 139.1c0 73.1 60 132.4 134.2 132.4 62.5 0 114.8-42.2 129.8-99.2-4.8.5-9.8.8-14.8.8Z"/></symbol><style>.ie,.if,.ig,.ih{fill:none;}.if{stroke-dasharray:0 0 12.58 12.58;}.if,.ig{stroke-miterlimit:10;stroke-width:4px;}.if,.ig,.ih{stroke:#000;stroke-linecap:round;}.ii{clip-path:url(#ea);}.ih{stroke-linejoin:round;stroke-width:15px;}</style></defs><g id="e`"><g clip-path="url(#ea)"><g><g><path fill="none" stroke="#000" stroke-linecap="round" stroke-miterlimit="10" stroke-width="4" d="m370 174.1-5.4 2.7"/><path fill="none" stroke="#000" stroke-dasharray="0 0 12.6 12.6" stroke-linecap="round" stroke-miterlimit="10" stroke-width="4" d="M353.4 182.4 269 224.6"/><path fill="none" stroke="#000" stroke-linecap="round" stroke-miterlimit="10" stroke-width="4" d="m263.4 227.4-5.4 2.7"/></g><path d="m367.1 146.3 18 18.3c.5.5.6 1.2.5 1.8l-6.4 24.9c-.5 1.8 1.7 3 3 1.7l18.3-18c.5-.5 1.1-.6 1.7-.5l25 6.5c1.7.4 3-1.7 1.7-3l-18-18.4c-.5-.5-.7-1.1-.5-1.7l6.4-25c.5-1.7-1.7-3-3-1.7l-18.3 18c-.5.5-1.1.7-1.7.5l-25-6.4c-1.7-.5-3 1.7-1.7 3Z"/></g></g><path d="m282.8 162.8 25-6.4c.6-.2 1.2 0 1.7.5l18.3 18c1.3 1.3 3.5 0 3-1.7l-6.4-25c-.2-.6 0-1.2.5-1.7l18-18.3c1.3-1.3 0-3.5-1.7-3l-25 6.4c-.6.2-1.2 0-1.7-.5l-18.3-18c-1.3-1.3-3.5 0-3 1.7l6.4 25c.1.6 0 1.2-.5 1.7l-18 18.3c-1.3 1.3 0 3.5 1.7 3Zm54.5 60.9 24.8 7c.6.1 1.1.6 1.3 1.2l6.9 24.8c.5 1.7 3 1.7 3.4 0l7-24.8c.1-.6.6-1.1 1.2-1.3l24.8-6.9c1.8-.5 1.8-3 0-3.4l-24.8-7c-.6-.1-1-.6-1.3-1.2l-6.9-24.8c-.4-1.8-3-1.8-3.4 0l-7 24.8c-.1.6-.6 1-1.2 1.3l-24.8 6.9c-1.7.4-1.7 3 0 3.4Z"/><use xlink:href="#a" width="279" height="279" transform="translate(116.5 116.5)"/></g></svg>