<svg xmlns="http://www.w3.org/2000/svg" xmlns:xlink="http://www.w3.org/1999/xlink" viewBox="0 0 512 512"><defs><symbol id="a" viewBox="0 0 359 231"><path fill="none" stroke="#000" stroke-linecap="round" stroke-linejoin="round" stroke-width="15" d="M295.5 223.5a56 56 0 100-112l-2.5.1a84 84 0 00-153-64.2 56 56 0 00-83.8 57.2 60 60 0 0011.2 118.9"/></symbol><symbol id="b" viewBox="0 0 136 114"><g><path d="M12 0a12 12 0 100 24 12 12 0 000-24Zm56 90a12 12 0 100 24 12 12 0 000-24Zm56-60a12 12 0 100 24 12 12 0 000-24Z"/></g></symbol><style>.ie{fill:none;stroke:#000;stroke-linecap:round;stroke-linejoin:round;stroke-width:15px;}</style></defs><g id="o"><use xlink:href="#a" width="359" height="231" transform="translate(76.5 140.5)"/><use xlink:href="#b" width="136" height="114" transform="translate(188 350)"/></g></svg>