<svg xmlns="http://www.w3.org/2000/svg" xmlns:xlink="http://www.w3.org/1999/xlink" viewBox="0 0 512 512"><defs><symbol id="a" viewBox="0 0 258 66"><g><g><path fill="none" stroke="#000" stroke-linecap="round" stroke-miterlimit="10" stroke-width="18" d="M9 57h30"/><path fill="none" stroke="#000" stroke-dasharray="0 0 60 60" stroke-linecap="round" stroke-miterlimit="10" stroke-width="18" d="M99 57h90"/><path fill="none" stroke="#000" stroke-linecap="round" stroke-miterlimit="10" stroke-width="18" d="M219 57h30"/></g><g><path fill="none" stroke="#000" stroke-linecap="round" stroke-miterlimit="10" stroke-width="18" d="M9 9h30"/><path fill="none" stroke="#000" stroke-dasharray="0 0 60 60" stroke-linecap="round" stroke-miterlimit="10" stroke-width="18" d="M99 9h90"/><path fill="none" stroke="#000" stroke-linecap="round" stroke-miterlimit="10" stroke-width="18" d="M219 9h30"/></g></g></symbol><symbol id="b" viewBox="0 0 375 375"><g><circle cx="187.5" cy="187.5" r="84" fill="none" stroke="#000" stroke-miterlimit="10" stroke-width="15"/><path fill="none" stroke="#000" stroke-linecap="round" stroke-miterlimit="10" stroke-width="15" d="M187.5 57.2V7.5m0 360v-49.7m92.2-222.5 35-35M60.3 314.7l35.1-35.1m0-184.4-35-35m254.5 254.5-35.1-35.1M57.2 187.5H7.5m360 0h-49.7"/></g></symbol><clipPath id="cm"><path fill="none" d="M0 0h512v306H0z"/></clipPath><style>.if,.ig,.ih,.ii,.ij{fill:none;}.ig,.ih{stroke-width:15px;}.ig,.ih,.ii,.ij{stroke:#000;stroke-miterlimit:10;}.ig,.ii,.ij{stroke-linecap:round;}.ii,.ij{stroke-width:18px;}.ik{clip-path:url(#cm);}.ij{stroke-dasharray:0 0 60 60;}</style></defs><g id="cl"><g clip-path="url(#cm)"><use xlink:href="#b" width="375" height="375" transform="translate(68.5 104.5)"/></g><use xlink:href="#a" width="258" height="66" transform="translate(127 339)"/></g></svg>