<svg xmlns="http://www.w3.org/2000/svg" xmlns:xlink="http://www.w3.org/1999/xlink" viewBox="0 0 512 512"><defs><symbol id="a" viewBox="0 0 258 66"><g><g><path fill="none" stroke="#000" stroke-linecap="round" stroke-miterlimit="10" stroke-width="18" d="M9 57h30"/><path fill="none" stroke="#000" stroke-dasharray="0 0 60 60" stroke-linecap="round" stroke-miterlimit="10" stroke-width="18" d="M99 57h90"/><path fill="none" stroke="#000" stroke-linecap="round" stroke-miterlimit="10" stroke-width="18" d="M219 57h30"/></g><g><path fill="none" stroke="#000" stroke-linecap="round" stroke-miterlimit="10" stroke-width="18" d="M9 9h30"/><path fill="none" stroke="#000" stroke-dasharray="0 0 60 60" stroke-linecap="round" stroke-miterlimit="10" stroke-width="18" d="M99 9h90"/><path fill="none" stroke="#000" stroke-linecap="round" stroke-miterlimit="10" stroke-width="18" d="M219 9h30"/></g></g></symbol><symbol id="b" viewBox="0 0 279 279"><path fill="none" stroke="#000" stroke-linecap="round" stroke-linejoin="round" stroke-width="15" d="M256.8 173.1A133.3 133.3 0 01122.4 40.7c0-11.5 1.7-22.6 4.5-33.2A133 133 0 007.5 139.1c0 73.1 60 132.4 134.2 132.4 62.5 0 114.8-42.2 129.8-99.2-4.8.5-9.8.8-14.8.8Z"/></symbol><clipPath id="cn"><path fill="none" d="M0 0h512v306H0z"/></clipPath><style>.if,.ig,.ih,.ii{fill:none;}.ig,.ih,.ii{stroke:#000;stroke-linecap:round;}.ig,.ii{stroke-miterlimit:10;stroke-width:18px;}.ij{clip-path:url(#cn);}.ih{stroke-linejoin:round;stroke-width:15px;}.ii{stroke-dasharray:0 0 60 60;}</style></defs><g id="cm"><g clip-path="url(#cn)"><use xlink:href="#b" width="279" height="279" transform="translate(116.5 116.5)"/></g><use xlink:href="#a" width="258" height="66" transform="translate(127 339)"/></g></svg>