<svg xmlns="http://www.w3.org/2000/svg" xmlns:xlink="http://www.w3.org/1999/xlink" viewBox="0 0 512 512"><defs><symbol id="a" viewBox="0 0 175 260.9"><path fill="none" stroke="#000" stroke-miterlimit="10" stroke-width="15" d="M87.5 13.4c-48.7 72-80 117-80 160.7s35.8 79.3 80 79.3 80-35.5 80-79.3-31.3-88.8-80-160.7Z"/></symbol><style>.id{fill:none;stroke:#000;stroke-miterlimit:10;stroke-width:15px;}</style></defs><g id="ev"><use xlink:href="#a" width="175" height="260.9" transform="translate(168.4 123.18)"/><path d="M218.8 250.5c3.2-3 7.7-4.5 13.7-4.5s10.5 1.5 13.6 4.5 4.8 7 4.8 12.4v8a16 16 0 01-4.7 12.2c-3.2 3-7.8 4.5-13.7 4.5S222 286 218.8 283s-4.8-7-4.8-12.2v-8c0-5.3 1.6-9.4 4.8-12.4Zm71.2-1.6c.3.8.1 1.7-.6 2.6l-53 73.3c-1 1.5-2 2.4-2.8 2.8s-2.3.6-4.6.6h-4.3c-1.4 0-2.2-.4-2.5-1.1s-.2-1.7.6-2.8l53-73.3c1-1.5 1.8-2.3 2.6-2.7.8-.3 2.3-.5 4.4-.5h4.8c1.3 0 2 .4 2.4 1.1Zm-57.5 7.6c-5.2 0-7.7 2.3-7.7 7v6.7c0 4.6 2.5 7 7.7 7s7.6-2.4 7.6-7v-6.8c0-4.6-2.5-6.9-7.6-6.9Zm33.4 36.4c3.1-3 7.7-4.5 13.6-4.5s10.5 1.5 13.7 4.5c3.2 3 4.8 7.1 4.8 12.4v8c0 5.3-1.6 9.3-4.8 12.3-3.2 3-7.7 4.4-13.7 4.4s-10.5-1.5-13.6-4.4c-3.2-3-4.8-7-4.8-12.2v-8c0-5.4 1.6-9.5 4.8-12.5Zm13.6 6c-5 0-7.6 2.4-7.6 7v6.7c0 4.6 2.5 7 7.6 7s7.7-2.4 7.7-7v-6.7c0-4.6-2.5-7-7.7-7Z"/></g></svg>