<svg xmlns="http://www.w3.org/2000/svg" xmlns:xlink="http://www.w3.org/1999/xlink" viewBox="0 0 512 512"><defs><clipPath id="dy"><path fill="none" d="M512 306H296c-5.1 0-10.2 1.9-14 5.3L256 334l-26-22.7a21.2 21.2 0 00-14-5.3H0V0h512v306Z"/></clipPath><symbol id="a" viewBox="0 0 279 279"><path fill="none" stroke="#000" stroke-linecap="round" stroke-linejoin="round" stroke-width="15" d="M256.8 173.1A133.3 133.3 0 01122.4 40.7c0-11.5 1.7-22.6 4.5-33.2A133 133 0 007.5 139.1c0 73.1 60 132.4 134.2 132.4 62.5 0 114.8-42.2 129.8-99.2-4.8.5-9.8.8-14.8.8Z"/></symbol><style>.ie,.if,.ig{fill:none;}.if{stroke-width:18px;}.if,.ig{stroke:#000;stroke-linecap:round;stroke-linejoin:round;}.ih{clip-path:url(#dy);}.ig{stroke-width:15px;}</style></defs><g id="dx"><path fill="none" stroke="#000" stroke-linecap="round" stroke-linejoin="round" stroke-width="18" d="M128 332h88l40 36 40-36h88"/><g clip-path="url(#dy)"><use xlink:href="#a" width="279" height="279" transform="translate(116.5 116.5)"/></g></g></svg>