<svg xmlns="http://www.w3.org/2000/svg" viewBox="0 0 64 64"><path d="M26.1 24.08a.83.83 0 0 1 .16.56v13.48a.59.59 0 0 1-.72.71h-1.2a.75.75 0 0 1-.69-.35l-5.14-7.6a11.62 11.62 0 0 1-.85-1.5 19.708 19.708 0 0 1-.87-2.03h-.13s0 .23.12.66.15 1 .23 1.64a18 18 0 0 1 .11 1.88v6.59a.77.77 0 0 1-.16.56.79.79 0 0 1-.55.15H15.3a.85.85 0 0 1-.57-.15.76.76 0 0 1-.17-.56V24.64a.78.78 0 0 1 .17-.56.85.85 0 0 1 .57-.15h1.19a.81.81 0 0 1 .7.33l5.1 7.56a13 13 0 0 1 .89 1.56c.27.55.48 1 .63 1.41s.23.59.24.6h.13s0-.25-.12-.67-.15-1-.23-1.63a16.11 16.11 0 0 1-.11-1.94v-6.51a.83.83 0 0 1 .15-.56.82.82 0 0 1 .56-.15h1.11a.82.82 0 0 1 .56.15zM30.47 40a1 1 0 0 1-.54.12h-1.17c-.24 0-.4-.05-.46-.14a.43.43 0 0 1 0-.44l5.58-15a1.16 1.16 0 0 1 .33-.46.94.94 0 0 1 .53-.12H36c.24 0 .39.05.45.14a.5.5 0 0 1 0 .44l-5.59 15a1.06 1.06 0 0 1-.39.46zm18.42-1.17H47.8a2.4 2.4 0 0 1-.91-.12.78.78 0 0 1-.39-.51l-1-2.7h-5.76l-1 2.7a.78.78 0 0 1-.39.51 2.4 2.4 0 0 1-.91.12h-1q-.73 0-.48-.69l5.25-13.65a1.07 1.07 0 0 1 .33-.47 1 1 0 0 1 .55-.11h1.11a1.06 1.06 0 0 1 .57.11.9.9 0 0 1 .32.45l5.24 13.67q.3.69-.44.69zm-6-11.13c-.09-.43-.14-.76-.17-1v-.36h-.15a7.73 7.73 0 0 1-.46 2.54l-1.62 4.45h4.31l-1.6-4.43a10 10 0 0 1-.31-1.2z"/></svg>