<svg xmlns="http://www.w3.org/2000/svg" xmlns:xlink="http://www.w3.org/1999/xlink" viewBox="0 0 512 512"><defs><symbol id="a" viewBox="0 0 359 231"><path fill="none" stroke="#000" stroke-linecap="round" stroke-linejoin="round" stroke-width="15" d="M295.5 223.5a56 56 0 100-112l-2.5.1a84 84 0 00-153-64.2 56 56 0 00-83.8 57.2 60 60 0 0011.2 118.9"/></symbol><symbol id="b" viewBox="0 0 214.3 140.1"><path fill="none" stroke="#000" stroke-linejoin="round" stroke-width="15" d="M7.5 100.2a32.4 32.4 0 0032.4 32.4h129.8v-.1l2.3.1a34.8 34.8 0 006.5-68.9A32.4 32.4 0 00130 30.6a48.6 48.6 0 00-88.6 37.2h-1.5a32.4 32.4 0 00-32.4 32.4Z"/></symbol><symbol id="c" viewBox="0 0 258 66"><g><g><path fill="none" stroke="#000" stroke-linecap="round" stroke-miterlimit="10" stroke-width="18" d="M9 57h30"/><path fill="none" stroke="#000" stroke-dasharray="0 0 60 60" stroke-linecap="round" stroke-miterlimit="10" stroke-width="18" d="M99 57h90"/><path fill="none" stroke="#000" stroke-linecap="round" stroke-miterlimit="10" stroke-width="18" d="M219 57h30"/></g><g><path fill="none" stroke="#000" stroke-linecap="round" stroke-miterlimit="10" stroke-width="18" d="M9 9h30"/><path fill="none" stroke="#000" stroke-dasharray="0 0 60 60" stroke-linecap="round" stroke-miterlimit="10" stroke-width="18" d="M99 9h90"/><path fill="none" stroke="#000" stroke-linecap="round" stroke-miterlimit="10" stroke-width="18" d="M219 9h30"/></g></g></symbol><symbol id="d" viewBox="0 0 437 362.5"><g><use xlink:href="#a" width="359" height="231" transform="translate(0 131.5)"/><g clip-path="url(#e)"><use xlink:href="#b" width="214.3" height="140.1" transform="translate(195.51 156.01)"/></g></g></symbol><clipPath id="e"><path fill="none" d="M369.5 299c0-34.6-24-63.8-56-71.8V223c0-56.2-45.8-102-102-102V0H437v299h-67.5Z"/></clipPath><style>.ih,.ii,.ij,.ik,.il{fill:none;}.ii,.ij,.ik,.il{stroke:#000;}.ii,.ik{stroke-linejoin:round;stroke-width:15px;}.ij,.ik,.il{stroke-linecap:round;}.ij,.il{stroke-miterlimit:10;stroke-width:18px;}.im{clip-path:url(#e);}.il{stroke-dasharray:0 0 60 60;}</style></defs><g id="bk"><use xlink:href="#d" width="437" height="362.5" transform="translate(64.34 9)"/><use xlink:href="#c" width="258" height="66" transform="translate(127 405)"/></g></svg>