<svg xmlns="http://www.w3.org/2000/svg" xmlns:xlink="http://www.w3.org/1999/xlink" viewBox="0 0 512 512"><defs><symbol id="a" viewBox="0 0 359 231"><path fill="none" stroke="#000" stroke-linecap="round" stroke-linejoin="round" stroke-width="15" d="M295.5 223.5a56 56 0 100-112l-2.5.1a84 84 0 00-153-64.2 56 56 0 00-83.8 57.2 60 60 0 0011.2 118.9"/></symbol><symbol id="b" viewBox="0 0 214.3 140.1"><path fill="none" stroke="#000" stroke-linejoin="round" stroke-width="15" d="M7.5 100.2a32.4 32.4 0 0032.4 32.4h129.8v-.1l2.3.1a34.8 34.8 0 006.5-68.9A32.4 32.4 0 00130 30.6a48.6 48.6 0 00-88.6 37.2h-1.5a32.4 32.4 0 00-32.4 32.4Z"/></symbol><symbol id="c" viewBox="0 0 437 362.5"><g><use xlink:href="#a" width="359" height="231" transform="translate(0 131.5)"/><g clip-path="url(#d)"><use xlink:href="#b" width="214.3" height="140.1" transform="translate(195.51 156.01)"/></g></g></symbol><symbol id="e" viewBox="0 0 502.4 362.5"><g><use xlink:href="#c" width="437" height="362.5" transform="translate(65.34)"/><g clip-path="url(#f)"><use xlink:href="#i" width="199" height="199" transform="translate(37.5 78.5)"/></g></g></symbol><symbol id="g" viewBox="0 0 155.2 138"><g><g><path d="M21.6 98a8 8 0 01-8-8V78a8 8 0 1116 0v12a8 8 0 01-8 8Zm56-50a8 8 0 01-8-8V28a8 8 0 1116 0v12a8 8 0 01-8 8Zm56 90a8 8 0 01-8-8v-12a8 8 0 1116 0v12a8 8 0 01-8 8Z"/></g><use xlink:href="#h" width="155.2" height="138"/></g></symbol><symbol id="h" viewBox="0 0 155.2 138"><g><path d="m41.2 30.5-5.8-3.3a14 14 0 000-6.4l5.8-3.3a4 4 0 001.4-5.5 4 4 0 00-5.5-1.5l-5.8 3.3a14 14 0 00-5.7-3.2V4c0-2.2-1.8-4-4-4s-4 1.8-4 4v6.6c-2.2.6-4.1 1.7-5.8 3.2l-5.7-3.3A4 4 0 00.5 12 4 4 0 002 17.5l5.8 3.3a14 14 0 000 6.4L2 30.5A4 4 0 00.5 36a4 4 0 005.6 1.5l5.7-3.3a14 14 0 005.7 3.2V44c0 2.2 1.8 4 4 4s4.1-1.8 4.1-4v-6.6c2.1-.6 4-1.7 5.7-3.2l5.8 3.3c.6.3 1.3.5 2 .5a4 4 0 003.5-2 4 4 0 00-1.4-5.5Zm-22.6-1.3a6 6 0 013-11.2 6 6 0 015.3 9 6.1 6.1 0 01-8.3 2.2Zm78.6 91.3-5.8-3.2a14 14 0 000-6.5l5.8-3.3a4 4 0 001.4-5.5 4 4 0 00-5.5-1.4l-5.8 3.3a14 14 0 00-5.7-3.3V94c0-2.2-1.8-4-4-4s-4 1.8-4 4v6.6c-2.2.6-4.1 1.7-5.8 3.2l-5.7-3.2a4 4 0 00-5.6 1.4 4 4 0 001.5 5.5l5.8 3.3a14 14 0 000 6.4l-5.8 3.3a4 4 0 00-1.5 5.5 4 4 0 005.6 1.5l5.7-3.3a14 14 0 005.7 3.2v6.6c0 2.2 1.8 4 4 4s4.1-1.8 4.1-4v-6.6c2.1-.6 4-1.7 5.7-3.2l5.8 3.3c.6.3 1.3.5 2 .5a4 4 0 003.5-2 4 4 0 00-1.4-5.5Zm-22.6-1.3a6 6 0 013-11.2 6 6 0 015.3 9 6.1 6.1 0 01-8.3 2.2Zm78.6-48.7-5.8-3.2a14 14 0 000-6.5l5.8-3.3a4 4 0 001.4-5.5 4 4 0 00-5.5-1.5l-5.8 3.3a14 14 0 00-5.7-3.2V44c0-2.2-1.8-4-4-4s-4 1.8-4 4v6.6c-2.2.6-4.1 1.7-5.8 3.2l-5.7-3.3a4 4 0 00-5.6 1.5 4 4 0 001.5 5.5l5.8 3.3a14 14 0 000 6.4l-5.8 3.3a4 4 0 00-1.5 5.5 4 4 0 005.6 1.5l5.7-3.3a14 14 0 005.7 3.2V84c0 2.2 1.8 4 4 4s4.1-1.8 4.1-4v-6.6c2.1-.6 4-1.7 5.7-3.2l5.8 3.3c.6.3 1.3.5 2 .5a4 4 0 003.5-2 4 4 0 00-1.4-5.5Zm-22.6-1.3a6 6 0 013-11.2 6 6 0 015.3 9 6.1 6.1 0 01-8.3 2.2Z"/></g></symbol><symbol id="i" viewBox="0 0 199 199"><g><circle cx="99.5" cy="99.5" r="40" fill="none" stroke="#000" stroke-miterlimit="10" stroke-width="15"/><path fill="none" stroke="#000" stroke-linecap="round" stroke-miterlimit="10" stroke-width="15" d="M99.5 32.9V7.5m0 184v-25.4m47.1-113.7 18-18M34.4 164.6l18-18m0-94.2-18-18m130.2 130.2-18-18M7.5 99.5h25.4m158.6 0h-25.4"/></g></symbol><clipPath id="d"><path fill="none" d="M369.5 299c0-34.6-24-63.8-56-71.8V223c0-56.2-45.8-102-102-102V0H437v299h-67.5Z"/></clipPath><clipPath id="f"><path fill="none" d="M0 0v286h54.5a81.1 81.1 0 0147.7-65 77.1 77.1 0 0198.5-67.9 103.9 103.9 0 0169.3-34.7V0H0Z"/></clipPath><style>.il,.im,.in,.io,.ip{fill:none;}.im,.in{stroke-miterlimit:10;}.im,.in,.io,.ip{stroke:#000;stroke-width:15px;}.im,.ip{stroke-linecap:round;}.io,.ip{stroke-linejoin:round;}.iq{clip-path:url(#f);}.ir{clip-path:url(#d);}</style></defs><g id="bj"><use xlink:href="#e" width="502.4" height="362.5" transform="translate(-1 9)"/><use xlink:href="#g" width="155.2" height="138" transform="translate(178.4 338)"/></g></svg>