<svg xmlns="http://www.w3.org/2000/svg" xmlns:xlink="http://www.w3.org/1999/xlink" viewBox="0 0 512 512"><defs><symbol id="a" viewBox="0 0 359 231"><path fill="none" stroke="#000" stroke-linecap="round" stroke-linejoin="round" stroke-width="15" d="M295.5 223.5a56 56 0 100-112l-2.5.1a84 84 0 00-153-64.2 56 56 0 00-83.8 57.2 60 60 0 0011.2 118.9"/></symbol><symbol id="b" viewBox="0 0 136 114"><g><path d="M12 0a12 12 0 100 24 12 12 0 000-24Zm56 90a12 12 0 100 24 12 12 0 000-24Zm56-60a12 12 0 100 24 12 12 0 000-24Z"/></g></symbol><symbol id="c" viewBox="0 0 183 183"><path fill="none" stroke="#000" stroke-linecap="round" stroke-linejoin="round" stroke-width="15" d="M166.1 112.9a84.8 84.8 0 01-85.4-84.3 83 83 0 012.8-21.1 84.7 84.7 0 00-76 83.7 84.8 84.8 0 0085.4 84.3c39.8 0 73-26.8 82.6-63.1-3 .3-6.2.5-9.4.5Z"/></symbol><symbol id="d" viewBox="0 0 426.5 362.5"><g><use xlink:href="#a" width="359" height="231" transform="translate(67.5 131.5)"/><g clip-path="url(#e)"><use xlink:href="#c" width="183" height="183" transform="translate(55.5 86.5)"/></g></g></symbol><clipPath id="e"><path fill="none" d="M0 0v286h54.5a81.1 81.1 0 0147.7-65 77.1 77.1 0 0198.5-67.9 103.9 103.9 0 0169.3-34.7V0H0Z"/></clipPath><style>.ih,.ii{fill:none;}.ij{clip-path:url(#e);}.ii{stroke:#000;stroke-linecap:round;stroke-linejoin:round;stroke-width:15px;}</style></defs><g id="t"><use xlink:href="#d" width="426.5" height="362.5" transform="translate(9 9)"/><use xlink:href="#b" width="136" height="114" transform="translate(188 350)"/></g></svg>