<svg xmlns="http://www.w3.org/2000/svg" xmlns:xlink="http://www.w3.org/1999/xlink" viewBox="0 0 512 512"><defs><symbol id="a" viewBox="0 0 232 72"><g><circle cx="116" cy="12" r="12"/><circle cx="156" cy="52" r="16"/><circle cx="76" cy="52" r="16"/><circle cx="12" cy="60" r="12"/><circle cx="220" cy="60" r="12"/><circle cx="180" cy="20" r="8"/><circle cx="52" cy="20" r="8"/></g></symbol></defs><g id="hi"><g><path d="M264.5 384c0-14.9.7-109.5 2.4-131.8 1.9-24.2 11-58.6 16.5-84.7S275 128 275 128s13.4 13.4-6.1 72c-18.7 55.9-14 174-13.5 184h9.2Zm24.9-104c-16.8 38.5-19 86.4-19.2 104H287c-1.4-19.7-3.5-76.5 13.6-107.7 21-38.2 39.3-31.8 39.3-31.8s-29.7-12.8-50.6 35.5Z"/><path d="M261.5 384h12.8c1.5-21.1 7.2-87.9 19.7-123 15-42 4.3-85.9 4.3-85.9s5.6 43.1-14.3 89c-17 39-21.5 102-22.5 119.9Zm-19.2 0h16.5c-2-11.6-15.9-91.7-30.5-121-15.8-31.4-27.5-46.1-56.3-57.3 0 0 35.2 15.1 51.7 83a844.9 844.9 0 0118.6 95.3Z"/><path d="M242.6 384c-4-19-19.7-81.8-59-99.4 0 0 21.9 23.4 32.5 49.2a219.2 219.2 0 0112.5 50.2h14Z"/></g><use xlink:href="#a" width="232" height="72" transform="translate(140 132)"/></g></svg>