<svg xmlns="http://www.w3.org/2000/svg" xmlns:xlink="http://www.w3.org/1999/xlink" viewBox="0 0 512 512"><defs><symbol id="a" viewBox="0 0 232 72"><g><circle cx="116" cy="12" r="12"/><circle cx="156" cy="52" r="16"/><circle cx="76" cy="52" r="16"/><circle cx="12" cy="60" r="12"/><circle cx="220" cy="60" r="12"/><circle cx="180" cy="20" r="8"/><circle cx="52" cy="20" r="8"/></g></symbol></defs><g id="hj"><g><path d="m265 403.6-3.9-127a12 12 0 00-12-11.7h-5.2a12 12 0 00-12 11.7l-4 127a12 12 0 0012 12.4h13.2a12 12 0 0012-12.4Z"/><ellipse cx="293.9" cy="274.4" rx="42.7" ry="42.5"/><ellipse cx="185.2" cy="255.5" rx="42.7" ry="42.5"/><path d="M317.6 146.9a66 66 0 00-10.9 1 28.3 28.3 0 10-41.1 32.9 56.8 56.8 0 1052-33.9Z"/><path d="M289.2 184.7a56.8 56.8 0 00-106.3-28.1c-1 0-1.8-.3-2.7-.3a42.4 42.4 0 00-11.8 83.1A28.4 28.4 0 00213 272a42.5 42.5 0 1065.2-54 56.2 56.2 0 0010.9-33.3Z"/></g><use xlink:href="#a" width="232" height="72" transform="translate(140 90)"/></g></svg>