<svg xmlns="http://www.w3.org/2000/svg" viewBox="0 0 512 512"><g id="eo"><path d="M293.5 213c-2 0-3.8-.7-5.3-2.1L256 180.2 223.8 211a7.8 7.8 0 01-10.6 0c-3-2.8-3-7.3 0-10l37.5-35.8c3-2.8 7.7-2.8 10.6 0l37.5 35.7c3 2.8 3 7.3 0 10.1a7.7 7.7 0 01-5.3 2Z"/><path d="M293.5 258c-2 0-3.8-.7-5.3-2.1L256 225.2 223.8 256a7.8 7.8 0 01-10.6 0c-3-2.8-3-7.3 0-10l37.5-35.8c3-2.8 7.7-2.8 10.6 0l37.5 35.7c3 2.8 3 7.3 0 10.1a7.7 7.7 0 01-5.3 2Z"/><path d="M293.5 303c-2 0-3.8-.7-5.3-2.1L256 270.2 223.8 301a7.8 7.8 0 01-10.6 0c-3-2.8-3-7.3 0-10l37.5-35.8c3-2.8 7.7-2.8 10.6 0l37.5 35.7c3 2.8 3 7.3 0 10.1a7.7 7.7 0 01-5.3 2Z"/><path d="M293.5 348c-2 0-3.8-.7-5.3-2.1L256 315.2 223.8 346a7.8 7.8 0 01-10.6 0c-3-2.8-3-7.3 0-10l37.5-35.8c3-2.8 7.7-2.8 10.6 0l37.5 35.7c3 2.8 3 7.3 0 10.1a7.7 7.7 0 01-5.3 2Z"/></g></svg>