<svg xmlns="http://www.w3.org/2000/svg" xmlns:xlink="http://www.w3.org/1999/xlink" viewBox="0 0 512 512"><defs><clipPath id="ex"><path fill="none" d="M168 252h176v128H168V252Z"/></clipPath><symbol id="a" viewBox="0 0 175 260.9"><path fill="none" stroke="#000" stroke-miterlimit="10" stroke-width="15" d="M87.5 13.4c-48.7 72-80 117-80 160.7s35.8 79.3 80 79.3 80-35.5 80-79.3-31.3-88.8-80-160.7Z"/></symbol><style>.ie,.if,.ig,.ih,.ii{fill:none;}.if,.ig,.ih{stroke-miterlimit:10;stroke-width:15px;}.if,.ig,.ih,.ii{stroke:#000;}.if,.ih,.ii{stroke-linecap:round;}.ij{clip-path:url(#ex);}.ih{stroke-dasharray:0 0 15.05 36.12;}.ii{stroke-linejoin:round;stroke-width:6px;}</style></defs><g id="ew"><g><path fill="none" stroke="#000" stroke-linecap="round" stroke-miterlimit="10" stroke-width="15" d="M260.2 138.2 256 132l-4.2 6.2"/><path fill="none" stroke="#000" stroke-dasharray="0 0 15.1 36.1" stroke-linecap="round" stroke-miterlimit="10" stroke-width="15" d="M231.6 168.2C197.1 220 176 256.8 176 292.7c0 43.8 35.8 79.3 80 79.3s80-35.5 80-79.3c0-39.2-25.3-79.6-65.7-139.5"/></g><path fill="none" stroke="#000" stroke-linecap="round" stroke-linejoin="round" stroke-width="6" d="M352 132h32v240h-32m8-120h24m-16 56h16m-16-120h16"/><g clip-path="url(#ex)"><use xlink:href="#a" width="175" height="260.9" transform="translate(168.61 119.2)"/></g></g></svg>