<svg xmlns="http://www.w3.org/2000/svg" xmlns:xlink="http://www.w3.org/1999/xlink" viewBox="0 0 512 512"><defs><clipPath id="fc"><path fill="none" d="M368.4 0v225.6H352a45.2 45.2 0 00-38.5 21.5 30 30 0 00-45.1 30.8c-15 2.9-26.4 16-26.4 31.8v9.8H0V0h368.4Z"/></clipPath><symbol id="a" viewBox="0 0 197.5 128.5"><path fill="none" stroke="#000" stroke-miterlimit="10" stroke-width="12" d="m161.3 62-1.4.1a45.1 45.1 0 00-43.9-56 45.2 45.2 0 00-38.5 21.4 30 30 0 00-45.2 30.9 32.3 32.3 0 006 64h123a30.2 30.2 0 100-60.3Z"/></symbol><style>.ie,.if,.ig{fill:none;}.if{stroke-width:12px;}.if,.ig{stroke:#000;stroke-miterlimit:10;}.ig{stroke-width:24px;}.ih{clip-path:url(#fc);}</style></defs><g id="fb"><g clip-path="url(#fc)"><path fill="none" stroke="#000" stroke-miterlimit="10" stroke-width="24" d="M82 310c0-79.5 66.3-144 148-144s148 64.5 148 144"/><path fill="none" stroke="#000" stroke-miterlimit="10" stroke-width="24" d="M130 310c0-53 44.8-96 100-96s100 43 100 96"/></g><use xlink:href="#a" width="197.5" height="128.5" transform="translate(235.94 219.59)"/></g></svg>