<svg xmlns="http://www.w3.org/2000/svg" xmlns:xlink="http://www.w3.org/1999/xlink" viewBox="0 0 512 512"><defs><clipPath id="fe"><path fill="none" d="M238 59.1H36V268h52.4l67.4-82.6 82.2-19.2V59.1z"/></clipPath><clipPath id="ff"><path fill="none" d="M368.4 0v225.6H352a45.2 45.2 0 00-38.5 21.5 30 30 0 00-45.1 30.8c-15 2.9-26.4 16-26.4 31.8v9.8H0V0h368.4Z"/></clipPath><symbol id="a" viewBox="0 0 197.5 128.5"><path fill="none" stroke="#000" stroke-miterlimit="10" stroke-width="12" d="m161.3 62-1.4.1a45.1 45.1 0 00-43.9-56 45.2 45.2 0 00-38.5 21.4 30 30 0 00-45.2 30.9 32.3 32.3 0 006 64h123a30.2 30.2 0 100-60.3Z"/></symbol><symbol id="b" viewBox="0 0 199 199"><g><circle cx="99.5" cy="99.5" r="40" fill="none" stroke="#000" stroke-miterlimit="10" stroke-width="15"/><path fill="none" stroke="#000" stroke-linecap="round" stroke-miterlimit="10" stroke-width="15" d="M99.5 32.9V7.5m0 184v-25.4m47.1-113.7 18-18M34.4 164.6l18-18m0-94.2-18-18m130.2 130.2-18-18M7.5 99.5h25.4m158.6 0h-25.4"/></g></symbol><style>.ig,.ih,.ii,.ij,.ik{fill:none;}.ih{stroke-width:12px;}.ih,.ii,.ij,.ik{stroke:#000;stroke-miterlimit:10;}.ii{stroke-linecap:round;}.ii,.ij{stroke-width:15px;}.ik{stroke-width:24px;}.il{clip-path:url(#ff);}.im{clip-path:url(#fe);}</style></defs><g id="fd"><g clip-path="url(#fe)"><use xlink:href="#b" width="199" height="199" transform="translate(46.5 76.5)"/></g><g clip-path="url(#ff)"><path fill="none" stroke="#000" stroke-miterlimit="10" stroke-width="24" d="M82 310c0-79.5 66.3-144 148-144s148 64.5 148 144"/><path fill="none" stroke="#000" stroke-miterlimit="10" stroke-width="24" d="M130 310c0-53 44.8-96 100-96s100 43 100 96"/></g><use xlink:href="#a" width="197.5" height="128.5" transform="translate(235.94 219.59)"/></g></svg>