<svg xmlns="http://www.w3.org/2000/svg" viewBox="0 0 64 64"><path d="m46.49 36.9-4.28-2.47a10.5 10.5 0 0 0 0-4.86l4.29-2.47a3 3 0 1 0-3-5.2l-4.28 2.48a11 11 0 0 0-2-1.47A10.3 10.3 0 0 0 35 22v-5a3 3 0 0 0-6 0v5a10.62 10.62 0 0 0-4.21 2.42l-4.28-2.52a3 3 0 1 0-3 5.2l4.28 2.47a10.5 10.5 0 0 0 0 4.86l-4.28 2.47a3 3 0 0 0 3 5.2l4.28-2.48a11 11 0 0 0 2 1.47 10.3 10.3 0 0 0 2.25 1v5a3 3 0 0 0 6 0V42a10.4 10.4 0 0 0 4.2-2.42l4.29 2.48a3 3 0 1 0 3-5.2zm-16.74-1A4.5 4.5 0 0 1 32 27.5a4.56 4.56 0 0 1 2.24.6 4.5 4.5 0 1 1-4.5 7.8z"/></svg>