<svg xmlns="http://www.w3.org/2000/svg" xmlns:xlink="http://www.w3.org/1999/xlink" viewBox="0 0 512 512"><defs><symbol id="a" viewBox="0 0 359 231"><path fill="none" stroke="#000" stroke-linecap="round" stroke-linejoin="round" stroke-width="15" d="M295.5 223.5a56 56 0 100-112l-2.5.1a84 84 0 00-153-64.2 56 56 0 00-83.8 57.2 60 60 0 0011.2 118.9"/></symbol><symbol id="b" viewBox="0 0 155.2 138"><g><path d="m41.2 30.5-5.8-3.3a14 14 0 000-6.4l5.8-3.3a4 4 0 001.4-5.5 4 4 0 00-5.5-1.5l-5.8 3.3a14 14 0 00-5.7-3.2V4c0-2.2-1.8-4-4-4s-4 1.8-4 4v6.6c-2.2.6-4.1 1.7-5.8 3.2l-5.7-3.3A4 4 0 00.5 12 4 4 0 002 17.5l5.8 3.3a14 14 0 000 6.4L2 30.5A4 4 0 00.5 36a4 4 0 005.6 1.5l5.7-3.3a14 14 0 005.7 3.2V44c0 2.2 1.8 4 4 4s4.1-1.8 4.1-4v-6.6c2.1-.6 4-1.7 5.7-3.2l5.8 3.3c.6.3 1.3.5 2 .5a4 4 0 003.5-2 4 4 0 00-1.4-5.5Zm-22.6-1.3a6 6 0 013-11.2 6 6 0 015.3 9 6.1 6.1 0 01-8.3 2.2Zm78.6 91.3-5.8-3.2a14 14 0 000-6.5l5.8-3.3a4 4 0 001.4-5.5 4 4 0 00-5.5-1.4l-5.8 3.3a14 14 0 00-5.7-3.3V94c0-2.2-1.8-4-4-4s-4 1.8-4 4v6.6c-2.2.6-4.1 1.7-5.8 3.2l-5.7-3.2a4 4 0 00-5.6 1.4 4 4 0 001.5 5.5l5.8 3.3a14 14 0 000 6.4l-5.8 3.3a4 4 0 00-1.5 5.5 4 4 0 005.6 1.5l5.7-3.3a14 14 0 005.7 3.2v6.6c0 2.2 1.8 4 4 4s4.1-1.8 4.1-4v-6.6c2.1-.6 4-1.7 5.7-3.2l5.8 3.3c.6.3 1.3.5 2 .5a4 4 0 003.5-2 4 4 0 00-1.4-5.5Zm-22.6-1.3a6 6 0 013-11.2 6 6 0 015.3 9 6.1 6.1 0 01-8.3 2.2Zm78.6-48.7-5.8-3.2a14 14 0 000-6.5l5.8-3.3a4 4 0 001.4-5.5 4 4 0 00-5.5-1.5l-5.8 3.3a14 14 0 00-5.7-3.2V44c0-2.2-1.8-4-4-4s-4 1.8-4 4v6.6c-2.2.6-4.1 1.7-5.8 3.2l-5.7-3.3a4 4 0 00-5.6 1.5 4 4 0 001.5 5.5l5.8 3.3a14 14 0 000 6.4l-5.8 3.3a4 4 0 00-1.5 5.5 4 4 0 005.6 1.5l5.7-3.3a14 14 0 005.7 3.2V84c0 2.2 1.8 4 4 4s4.1-1.8 4.1-4v-6.6c2.1-.6 4-1.7 5.7-3.2l5.8 3.3c.6.3 1.3.5 2 .5a4 4 0 003.5-2 4 4 0 00-1.4-5.5Zm-22.6-1.3a6 6 0 013-11.2 6 6 0 015.3 9 6.1 6.1 0 01-8.3 2.2Z"/></g></symbol><style>.ie{fill:none;stroke:#000;stroke-linecap:round;stroke-linejoin:round;stroke-width:15px;}</style></defs><g id="u"><use xlink:href="#a" width="359" height="231" transform="translate(76.5 140.5)"/><use xlink:href="#b" width="155.2" height="138" transform="translate(178.4 338)"/></g></svg>