<svg xmlns="http://www.w3.org/2000/svg" viewBox="0 0 512 512"><g id="ej"><path fill="none" stroke="#000" stroke-linecap="round" stroke-linejoin="round" stroke-width="15" d="m372 295.2-34.3-19.7c3.1-13 3-26.3 0-39l34.3-19.7a24 24 0 10-24-41.6L313.7 195a83.5 83.5 0 00-33.7-19.4V136a24 24 0 00-48 0v39.6a84 84 0 00-33.7 19.4L164 175.2a24 24 0 10-24 41.6l34.3 19.7c-3 13-3 26.3 0 39L140 295.1a24 24 0 1024 41.6l34.3-19.8a83.5 83.5 0 0033.7 19.4V376a24 24 0 0048 0v-39.7a84 84 0 0033.7-19.3l34.3 19.8a23.8 23.8 0 0032.8-8.8 24 24 0 00-8.8-32.8Zm-134-8a36 36 0 1136-62.4 36 36 0 01-36 62.4Z"/></g></svg>