<svg xmlns="http://www.w3.org/2000/svg" viewBox="0 0 512 512"><defs><clipPath id="fd"><path fill="none" d="M119 428.7h271V305.3h-53.1L325 312l-14-9 2-14 12-7h65V81.6H119V282h68l13 8v15l-13 7-15.2-9H119v125.7z"/></clipPath><style>.id,.ie,.if{fill:none;}.ie{stroke-width:6px;}.ie,.if{stroke:#000;stroke-miterlimit:10;}.ig{clip-path:url(#fd);}.if{stroke-width:9px;}</style></defs><g id="fc"><circle cx="325" cy="297" r="15" fill="none" stroke="#000" stroke-miterlimit="10" stroke-width="6"/><circle cx="187" cy="297" r="15" fill="none" stroke="#000" stroke-miterlimit="10" stroke-width="6"/><g clip-path="url(#fd)"><circle cx="256" cy="330" r="84" fill="none" stroke="#000" stroke-miterlimit="10" stroke-width="9"/><circle cx="256" cy="202" r="60" fill="none" stroke="#000" stroke-miterlimit="10" stroke-width="9"/><path d="M259 231a3 3 0 11-6 0 3 3 0 016 0Zm-12-5a3 3 0 100 6 3 3 0 000-6Zm-8-6a3 3 0 100 6 3 3 0 000-6Zm26 6a3 3 0 100 6 3 3 0 000-6Zm8-6a3 3 0 100 6 3 3 0 000-6Zm7-34a8 8 0 11-16 0 8 8 0 0116 0Zm-40-8a8 8 0 100 16 8 8 0 000-16Zm40 88h-65.2a7 7 0 01-6.8-7.1V249a7 7 0 017.3-7h81.4a7 7 0 017.3 7v9.8a7 7 0 01-6.8 7.1H280Zm17-121.7-2.7-10.2a6.7 6.7 0 00-8.3-4.7l-24.1 6.5c-.2 0-.3 0-.4-.2l-9.2-34.5a4 4 0 00-5-2.8l-38.5 10.3a4 4 0 00-2.9 5l9.3 34.4c0 .1 0 .3-.2.3l-24.2 6.5a6.7 6.7 0 00-4.7 8.2l2.7 10.2c1 3.6 4.7 5.7 8.3 4.8l95.2-25.5c3.5-1 5.7-4.6 4.7-8.2Zm-80.3 1.6-1-3.9 42.4-11.3 1 3.8-42.4 11.4Z"/><ellipse cx="256" cy="205.2" rx="8" ry="8"/><path d="M264 324a8 8 0 11-16 0 8 8 0 0116 0Zm-8 16a8 8 0 100 16 8 8 0 000-16Zm0-48a8 8 0 100 16 8 8 0 000-16Z"/></g></g></svg>