<svg xmlns="http://www.w3.org/2000/svg" viewBox="0 0 64 64"><defs><clipPath id="a"><path fill="none" d="M50.43 36.61a2 2 0 0 0-1.93-2.51h-.21a15.84 15.84 0 0 1-1.63.09 14.68 14.68 0 0 1-14.78-14.54 14.09 14.09 0 0 1 .49-3.65 2 2 0 0 0-1.94-2.51h-.21V4.75h28.29v31.86z"/></clipPath><clipPath id="b"><path fill="none" d="M29 16V7h28v30h-9l-9-1-10-10V16z"/></clipPath></defs><g clip-path="url(#a)"><g clip-path="url(#b)"><circle cx="32" cy="32" r="10.5"/><path fill="none" stroke="#000" stroke-linecap="round" stroke-miterlimit="10" stroke-width="3" d="M32 15.71V9.5m0 45v-6.21m11.52-27.81 4.39-4.39M16.09 47.91l4.39-4.39m0-23-4.39-4.39m31.82 31.78-4.39-4.39M15.71 32H9.5m45 0h-6.21"/></g></g><path d="M46.66 36.2a16.66 16.66 0 0 1-16.78-16.55 16.29 16.29 0 0 1 .55-4.15A16.56 16.56 0 1 0 48.5 36.1c-.61.06-1.22.1-1.84.1z"/></svg>