<svg xmlns="http://www.w3.org/2000/svg" xmlns:xlink="http://www.w3.org/1999/xlink" viewBox="0 0 512 512"><defs><symbol id="a" viewBox="0 0 279 279"><path fill="none" stroke="#000" stroke-linecap="round" stroke-linejoin="round" stroke-width="15" d="M256.8 173.1A133.3 133.3 0 01122.4 40.7c0-11.5 1.7-22.6 4.5-33.2A133 133 0 007.5 139.1c0 73.1 60 132.4 134.2 132.4 62.5 0 114.8-42.2 129.8-99.2-4.8.5-9.8.8-14.8.8Z"/></symbol><symbol id="b" viewBox="0 0 375 375"><g><circle cx="187.5" cy="187.5" r="84" fill="none" stroke="#000" stroke-miterlimit="10" stroke-width="15"/><path fill="none" stroke="#000" stroke-linecap="round" stroke-miterlimit="10" stroke-width="15" d="M187.5 57.2V7.5m0 360v-49.7m92.2-222.5 35-35M60.3 314.7l35.1-35.1m0-184.4-35-35m254.5 254.5-35.1-35.1M57.2 187.5H7.5m360 0h-49.7"/></g></symbol><clipPath id="ec"><path fill="none" d="m238 139 6-73h224v226h-80l-55-6-82-70-13-77z"/></clipPath><style>.if,.ig,.ih,.ii{fill:none;}.ig,.ih{stroke-miterlimit:10;}.ig,.ih,.ii{stroke:#000;stroke-width:15px;}.ig,.ii{stroke-linecap:round;}.ij{clip-path:url(#ec);}.ii{stroke-linejoin:round;}</style></defs><g id="eb"><g clip-path="url(#ec)"><use xlink:href="#b" width="375" height="375" transform="translate(74.5 76.5)"/></g><use xlink:href="#a" width="279" height="279" transform="translate(116.5 116.5)"/></g></svg>