<svg xmlns="http://www.w3.org/2000/svg" xmlns:xlink="http://www.w3.org/1999/xlink" viewBox="0 0 512 512"><defs><symbol id="a" viewBox="0 0 279 279"><path fill="none" stroke="#000" stroke-linecap="round" stroke-linejoin="round" stroke-width="15" d="M256.8 173.1A133.3 133.3 0 01122.4 40.7c0-11.5 1.7-22.6 4.5-33.2A133 133 0 007.5 139.1c0 73.1 60 132.4 134.2 132.4 62.5 0 114.8-42.2 129.8-99.2-4.8.5-9.8.8-14.8.8Z"/></symbol><style>.id{fill:none;stroke:#000;stroke-linecap:round;stroke-linejoin:round;stroke-width:15px;}</style></defs><g id="dy"><path d="m282.8 162.8 25-6.4c.6-.2 1.2 0 1.7.5l18.3 18c1.3 1.3 3.5 0 3-1.7l-6.4-25c-.2-.6 0-1.2.5-1.7l18-18.3c1.3-1.3 0-3.5-1.7-3l-25 6.4c-.6.2-1.2 0-1.7-.5l-18.3-18c-1.3-1.3-3.5 0-3 1.7l6.4 25c.1.6 0 1.2-.5 1.7l-18 18.3c-1.3 1.3 0 3.5 1.7 3Zm2.6 30.6 12 12.3c.3.3.4.7.3 1.1l-4.3 16.6c-.2 1.2 1.2 2 2 1.2l12.3-12c.3-.3.7-.4 1.1-.3l16.7 4.3c1.1.3 2-1.2 1.1-2l-12-12.3c-.3-.3-.4-.7-.3-1.1l4.3-16.7c.3-1.1-1.2-2-2-1.1l-12.3 12c-.3.3-.7.4-1.1.3l-16.6-4.3c-1.2-.3-2 1.2-1.2 2Zm51.9 30.3 24.8 7c.6.1 1.1.6 1.3 1.2l6.9 24.8c.5 1.7 3 1.7 3.4 0l7-24.8c.1-.6.6-1.1 1.2-1.3l24.8-6.9c1.8-.5 1.8-3 0-3.4l-24.8-7c-.6-.1-1-.6-1.3-1.2l-6.9-24.8c-.4-1.8-3-1.8-3.4 0l-7 24.8c-.1.6-.6 1-1.2 1.3l-24.8 6.9c-1.7.4-1.7 3 0 3.4Z"/><use xlink:href="#a" width="279" height="279" transform="translate(116.5 116.5)"/></g></svg>