<svg xmlns="http://www.w3.org/2000/svg" xmlns:xlink="http://www.w3.org/1999/xlink" viewBox="0 0 512 512"><defs><clipPath id="ib"><path fill="none" d="M0 0h512L0 512V0z"/></clipPath><symbol id="a" viewBox="0 0 375 375"><g><circle cx="187.5" cy="187.5" r="84" fill="none" stroke="#000" stroke-miterlimit="10" stroke-width="15"/><path fill="none" stroke="#000" stroke-linecap="round" stroke-miterlimit="10" stroke-width="15" d="M187.5 57.2V7.5m0 360v-49.7m92.2-222.5 35-35M60.3 314.7l35.1-35.1m0-184.4-35-35m254.5 254.5-35.1-35.1M57.2 187.5H7.5m360 0h-49.7"/></g></symbol><style>.ie,.if,.ig,.ih{fill:none;}.if,.ig{stroke-miterlimit:10;stroke-width:15px;}.if,.ig,.ih{stroke:#000;}.if,.ih{stroke-linecap:round;}.ii{clip-path:url(#ib);}.ih{stroke-linejoin:round;stroke-width:12px;}</style></defs><g id="ia"><g clip-path="url(#ib)"><use xlink:href="#a" width="375" height="375" transform="translate(68.5 68.5)"/></g><path fill="none" stroke="#000" stroke-linecap="round" stroke-linejoin="round" stroke-width="12" d="M197.5 355.8c11.4-12 24.4.4 35.9-11.6 11.4-12-1.6-24.4 9.8-36.4s24.5.4 35.9-11.6-1.6-24.4 9.8-36.4 24.5.4 35.9-11.6-1.6-24.4 9.8-36.4 24.5.4 36-11.6M257.5 355.8c11.4-12 24.4.4 35.9-11.6 11.4-12-1.6-24.4 9.8-36.4s24.5.4 35.9-11.6-1.6-24.4 9.8-36.4 24.5.4 35.9-11.6-1.6-24.4 9.8-36.4 24.5.4 36-11.6"/></g></svg>