<svg xmlns="http://www.w3.org/2000/svg" xmlns:xlink="http://www.w3.org/1999/xlink" viewBox="0 0 512 512"><defs><clipPath id="dw"><path fill="none" d="M512 306H296c-5.1 0-10.2 1.9-14 5.3L256 334l-26-22.7a21.2 21.2 0 00-14-5.3H0V0h512v306Z"/></clipPath><symbol id="a" viewBox="0 0 375 375"><g><circle cx="187.5" cy="187.5" r="84" fill="none" stroke="#000" stroke-miterlimit="10" stroke-width="15"/><path fill="none" stroke="#000" stroke-linecap="round" stroke-miterlimit="10" stroke-width="15" d="M187.5 57.2V7.5m0 360v-49.7m92.2-222.5 35-35M60.3 314.7l35.1-35.1m0-184.4-35-35m254.5 254.5-35.1-35.1M57.2 187.5H7.5m360 0h-49.7"/></g></symbol><style>.ie,.if,.ig,.ih{fill:none;}.if,.ig{stroke-miterlimit:10;stroke-width:15px;}.if,.ig,.ih{stroke:#000;}.if,.ih{stroke-linecap:round;}.ih{stroke-linejoin:round;stroke-width:18px;}.ii{clip-path:url(#dw);}</style></defs><g id="dv"><g clip-path="url(#dw)"><use xlink:href="#a" width="375" height="375" transform="translate(68.5 104.5)"/></g><path fill="none" stroke="#000" stroke-linecap="round" stroke-linejoin="round" stroke-width="18" d="M128 332h88l40 36 40-36h88"/></g></svg>