<svg xmlns="http://www.w3.org/2000/svg" xmlns:xlink="http://www.w3.org/1999/xlink" viewBox="0 0 512 512"><defs><symbol id="a" viewBox="0 0 109.1 73.2"><g><path d="M19.4 0A18.7 18.7 0 000 19.3a19 19 0 0019.4 19.5 18.9 18.9 0 0019.4-19.5A18.6 18.6 0 0019.4 0Zm6.3 25.7c-1.6 1.7-3.7 2.5-6.3 2.5s-4.6-.8-6.2-2.5c-1.6-1.6-2.4-3.7-2.4-6.4s.7-4.7 2.3-6.3c1.7-1.6 3.7-2.4 6.3-2.4s4.7.8 6.3 2.4 2.4 3.7 2.4 6.3c0 2.7-.8 4.8-2.4 6.4Zm53.1 32.8c-5 0-8.7-2-11.5-5.7s-4-9-4-16 1.3-11.8 4-15.5c2.8-3.7 6.6-5.6 11.5-5.6 3.5 0 6.4 1 8.6 3a13 13 0 014.2 8.2H109c-1-8-4.1-14.4-9.5-19C94 3.3 87 .9 78.3.9a31 31 0 00-23.7 9.8C48.4 17.2 45.3 26 45.3 37s3 19.7 9.2 26.3A31 31 0 0078.3 73c8.7 0 16-2.3 21.6-7a27.2 27.2 0 009.2-19.6H91.6c-1 8-5.3 12-12.8 12Z"/></g></symbol><symbol id="b" viewBox="0 0 121 281"><g><use xlink:href="#d" width="72" height="168" transform="translate(24.5 88.5)"/><use xlink:href="#c" width="121" height="281"/></g></symbol><symbol id="c" viewBox="0 0 121 281"><path fill="none" stroke="#000" stroke-linecap="round" stroke-linejoin="round" stroke-width="9" d="M116.5 219.7c0 31.4-25 56.8-56 56.8s-56-25.4-56-56.8a57 57 0 0124-46.6V37c0-18 14.3-32.5 32-32.5s32 14.5 32 32.5v136a57 57 0 0124 46.7Zm-52-135.2h28m-28-32h28m-28 64h28"/></symbol><symbol id="d" viewBox="0 0 72 168"><g><circle cx="36" cy="132" r="36"/><path fill="none" stroke="#000" stroke-linecap="round" stroke-miterlimit="10" stroke-width="24" d="M36 12v120"/></g></symbol><style>.ig{stroke-linejoin:round;stroke-width:9px;}.ig,.ih{fill:none;stroke:#000;stroke-linecap:round;}.ih{stroke-miterlimit:10;stroke-width:24px;}</style></defs><g id="fm"><use xlink:href="#a" width="109.1" height="73.2" transform="translate(314 250)"/><use xlink:href="#b" width="121" height="281" transform="translate(195.5 115.5)"/></g></svg>