<svg xmlns="http://www.w3.org/2000/svg" xmlns:xlink="http://www.w3.org/1999/xlink" viewBox="0 0 512 512"><defs><clipPath id="hl"><path fill="none" d="M372 357a40.6 40.6 0 01-22.9-73.8v-97A23 23 0 01372 163H119.2v194H372Zm2.9-137h20m-20-22.8h20m-20 45.7h20"/></clipPath><symbol id="a" viewBox="0 0 252 100"><path fill="none" stroke="#000" stroke-linecap="round" stroke-linejoin="round" stroke-width="12" d="M246 28.6h-8c-11 0-20.9-11.6-26-21.4a2.3 2.3 0 00-4 0c-5.2 9.8-15 21.4-26 21.4S161.1 17 156 7.2a2.3 2.3 0 00-4 0c-5.2 9.8-15 21.4-26 21.4S105.1 17 100 7.2a2.3 2.3 0 00-4 0C90.8 17 81 28.6 70 28.6S49.1 17 44 7.2a2.3 2.3 0 00-4 0C34.8 17 25 28.6 14 28.6H6v49c0 9 7.2 16.4 16 16.4h208c8.9 0 16-7.3 16-16.3v-49Z"/></symbol><style>.ie,.if,.ig,.ih{fill:none;}.if{stroke-miterlimit:10;stroke-width:17.13px;}.if,.ig,.ih{stroke:#000;stroke-linecap:round;}.ig{stroke-width:9px;}.ig,.ih{stroke-linejoin:round;}.ii{clip-path:url(#hl);}.ih{stroke-width:12px;}</style></defs><g id="hk"><g clip-path="url(#hl)"><use xlink:href="#a" width="252" height="100" transform="translate(130 238)"/></g><g><g><ellipse cx="372" cy="317.1" rx="25.7" ry="25.7"/><path fill="none" stroke="#000" stroke-linecap="round" stroke-miterlimit="10" stroke-width="17.1" d="M372 231.5V317"/></g><path fill="none" stroke="#000" stroke-linecap="round" stroke-linejoin="round" stroke-width="9" d="M412 316.5c0 22.3-18 40.5-40 40.5s-40-18.1-40-40.5c0-13.8 6.8-26 17.1-33.3v-97c0-12.8 10.3-23.2 22.9-23.2s22.9 10.4 22.9 23.2v97a40.6 40.6 0 0117.1 33.3ZM374.9 220h20m-20-22.9h20m-20 45.7h20"/></g></g></svg>