<svg xmlns="http://www.w3.org/2000/svg" xmlns:xlink="http://www.w3.org/1999/xlink" viewBox="0 0 512 512"><defs><symbol id="a" viewBox="0 0 183 183"><path fill="none" stroke="#000" stroke-linecap="round" stroke-linejoin="round" stroke-width="15" d="M166.1 112.9a84.8 84.8 0 01-85.4-84.3 83 83 0 012.8-21.1 84.7 84.7 0 00-76 83.7 84.8 84.8 0 0085.4 84.3c39.8 0 73-26.8 82.6-63.1-3 .3-6.2.5-9.4.5Z"/></symbol><symbol id="b" viewBox="0 0 121 281"><g><use xlink:href="#d" width="72" height="168" transform="translate(24.5 88.5)"/><use xlink:href="#c" width="121" height="281"/></g></symbol><symbol id="c" viewBox="0 0 121 281"><path fill="none" stroke="#000" stroke-linecap="round" stroke-linejoin="round" stroke-width="9" d="M116.5 219.7c0 31.4-25 56.8-56 56.8s-56-25.4-56-56.8a57 57 0 0124-46.6V37c0-18 14.3-32.5 32-32.5s32 14.5 32 32.5v136a57 57 0 0124 46.7Zm-52-135.2h28m-28-32h28m-28 64h28"/></symbol><symbol id="d" viewBox="0 0 72 168"><g><circle cx="36" cy="132" r="36"/><path fill="none" stroke="#000" stroke-linecap="round" stroke-miterlimit="10" stroke-width="24" d="M36 12v120"/></g></symbol><clipPath id="id"><path fill="none" d="M256 392a57 57 0 0032-103.5v-136c0-18-14.3-32.5-32-32.5V79.7h167.2V392H256Zm4-192h28m-28-32h28m-28 64h28"/></clipPath><style>.ih,.ii,.ij,.ik{fill:none;}.ii{stroke-width:9px;}.ii,.ij,.ik{stroke:#000;stroke-linecap:round;}.ii,.ik{stroke-linejoin:round;}.ij{stroke-miterlimit:10;stroke-width:24px;}.il{clip-path:url(#id);}.ik{stroke-width:15px;}</style></defs><g id="ic"><g clip-path="url(#id)"><use xlink:href="#a" width="183" height="183" transform="translate(222.5 114.5)"/></g><use xlink:href="#b" width="121" height="281" transform="translate(195.5 115.5)"/></g></svg>