<svg xmlns="http://www.w3.org/2000/svg" xmlns:xlink="http://www.w3.org/1999/xlink" viewBox="0 0 512 512"><defs><symbol id="a" viewBox="0 0 199 199"><g><circle cx="99.5" cy="99.5" r="40" fill="none" stroke="#000" stroke-miterlimit="10" stroke-width="15"/><path fill="none" stroke="#000" stroke-linecap="round" stroke-miterlimit="10" stroke-width="15" d="M99.5 32.9V7.5m0 184v-25.4m47.1-113.7 18-18M34.4 164.6l18-18m0-94.2-18-18m130.2 130.2-18-18M7.5 99.5h25.4m158.6 0h-25.4"/></g></symbol><symbol id="b" viewBox="0 0 121 281"><g><use xlink:href="#d" width="72" height="168" transform="translate(24.5 88.5)"/><use xlink:href="#c" width="121" height="281"/></g></symbol><symbol id="c" viewBox="0 0 121 281"><path fill="none" stroke="#000" stroke-linecap="round" stroke-linejoin="round" stroke-width="9" d="M116.5 219.7c0 31.4-25 56.8-56 56.8s-56-25.4-56-56.8a57 57 0 0124-46.6V37c0-18 14.3-32.5 32-32.5s32 14.5 32 32.5v136a57 57 0 0124 46.7Zm-52-135.2h28m-28-32h28m-28 64h28"/></symbol><symbol id="d" viewBox="0 0 72 168"><g><circle cx="36" cy="132" r="36"/><path fill="none" stroke="#000" stroke-linecap="round" stroke-miterlimit="10" stroke-width="24" d="M36 12v120"/></g></symbol><clipPath id="g`"><path fill="none" d="M256 392a57 57 0 0032-103.5v-136c0-18-14.3-32.5-32-32.5V79.7h167.2V392H256Zm4-192h28m-28-32h28m-28 64h28"/></clipPath><style>.ih,.ii,.ij,.ik,.il{fill:none;}.ii,.ij{stroke-width:15px;}.ii,.ij,.ik,.il{stroke:#000;}.ii,.ij,.il{stroke-miterlimit:10;}.ii,.ik,.il{stroke-linecap:round;}.ik{stroke-linejoin:round;stroke-width:9px;}.il{stroke-width:24px;}.im{clip-path:url(#g`);}</style></defs><g id="fy"><g clip-path="url(#g`)"><use xlink:href="#a" width="199" height="199" transform="translate(214.5 106.5)"/></g><use xlink:href="#b" width="121" height="281" transform="translate(195.5 115.5)"/></g></svg>