<svg xmlns="http://www.w3.org/2000/svg" xmlns:xlink="http://www.w3.org/1999/xlink" viewBox="0 0 512 512"><defs><symbol id="a" viewBox="0 0 121 281"><g><use xlink:href="#c" width="72" height="168" transform="translate(24.5 88.5)"/><use xlink:href="#b" width="121" height="281"/></g></symbol><symbol id="b" viewBox="0 0 121 281"><path fill="none" stroke="#000" stroke-linecap="round" stroke-linejoin="round" stroke-width="9" d="M116.5 219.7c0 31.4-25 56.8-56 56.8s-56-25.4-56-56.8a57 57 0 0124-46.6V37c0-18 14.3-32.5 32-32.5s32 14.5 32 32.5v136a57 57 0 0124 46.7Zm-52-135.2h28m-28-32h28m-28 64h28"/></symbol><symbol id="c" viewBox="0 0 72 168"><g><circle cx="36" cy="132" r="36"/><path fill="none" stroke="#000" stroke-linecap="round" stroke-miterlimit="10" stroke-width="24" d="M36 12v120"/></g></symbol><clipPath id="g`"><path fill="none" d="M256 392a57 57 0 0032-103.5v-136c0-18-14.3-32.5-32-32.5V79.7h167.2V392H256Zm4-192h28m-28-32h28m-28 64h28"/></clipPath><style>.ig,.ih,.ii,.ij{fill:none;}.ih{stroke-width:9px;}.ih,.ii,.ij{stroke:#000;stroke-linecap:round;}.ih,.ij{stroke-linejoin:round;}.ii{stroke-miterlimit:10;stroke-width:24px;}.ik{clip-path:url(#g`);}.ij{stroke-width:15px;}</style></defs><g id="fy"><g clip-path="url(#g`)"><path fill="none" stroke="#000" stroke-linecap="round" stroke-linejoin="round" stroke-width="15" d="m393.7 233-23.5-13.6c2.1-9 2-18 0-26.7l23.5-13.7a16.5 16.5 0 10-16.5-28.5L353.7 164a57.6 57.6 0 00-23.2-13.4v-27.2a16.5 16.5 0 00-33 0v27.2c-8.5 2.6-16.5 7-23.2 13.3l-23.5-13.5a16.5 16.5 0 10-16.5 28.5l23.5 13.6c-2.1 9-2 18 0 26.7L234.4 233a16.5 16.5 0 1016.5 28.5l23.5-13.6a57.6 57.6 0 0023.2 13.3v27.3a16.5 16.5 0 0033 0v-27.3c8.5-2.5 16.5-7 23.1-13.3l23.6 13.6a16.5 16.5 0 0022.6-6c4.5-7.9 1.8-18-6-22.5Zm-92-5.6a24.8 24.8 0 1124.7-42.9 24.8 24.8 0 01-24.8 43Z"/></g><use xlink:href="#a" width="121" height="281" transform="translate(195.5 115.5)"/></g></svg>