<svg xmlns="http://www.w3.org/2000/svg" xmlns:xlink="http://www.w3.org/1999/xlink" viewBox="0 0 512 512"><defs><symbol id="a" viewBox="0 0 99.5 70.9"><g><path d="M19.4 0A18.7 18.7 0 000 19.3a19 19 0 0019.4 19.5 18.9 18.9 0 0019.4-19.5A18.6 18.6 0 0019.4 0Zm6.3 25.7c-1.6 1.7-3.7 2.5-6.3 2.5s-4.6-.8-6.2-2.5c-1.6-1.6-2.4-3.7-2.4-6.4s.7-4.7 2.3-6.3c1.7-1.6 3.7-2.4 6.3-2.4s4.7.8 6.3 2.4 2.4 3.7 2.4 6.3c0 2.7-.8 4.8-2.4 6.4ZM99.5 17.9V2.6H47.4v68.3h18V44.7h28.9V30.1H65.4V17.9h34.1z"/></g></symbol><symbol id="b" viewBox="0 0 121 281"><g><use xlink:href="#d" width="72" height="168" transform="translate(24.5 88.5)"/><use xlink:href="#c" width="121" height="281"/></g></symbol><symbol id="c" viewBox="0 0 121 281"><path fill="none" stroke="#000" stroke-linecap="round" stroke-linejoin="round" stroke-width="9" d="M116.5 219.7c0 31.4-25 56.8-56 56.8s-56-25.4-56-56.8a57 57 0 0124-46.6V37c0-18 14.3-32.5 32-32.5s32 14.5 32 32.5v136a57 57 0 0124 46.7Zm-52-135.2h28m-28-32h28m-28 64h28"/></symbol><symbol id="d" viewBox="0 0 72 168"><g><circle cx="36" cy="132" r="36"/><path fill="none" stroke="#000" stroke-linecap="round" stroke-miterlimit="10" stroke-width="24" d="M36 12v120"/></g></symbol><style>.ig{stroke-linejoin:round;stroke-width:9px;}.ig,.ih{fill:none;stroke:#000;stroke-linecap:round;}.ih{stroke-miterlimit:10;stroke-width:24px;}</style></defs><g id="fn"><use xlink:href="#a" width="99.5" height="70.9" transform="translate(314 250)"/><use xlink:href="#b" width="121" height="281" transform="translate(195.5 115.5)"/></g></svg>