<svg xmlns="http://www.w3.org/2000/svg" xmlns:xlink="http://www.w3.org/1999/xlink" viewBox="0 0 512 512"><defs><symbol id="a" viewBox="0 0 214.3 140.1"><path fill="none" stroke="#000" stroke-linejoin="round" stroke-width="15" d="M7.5 100.2a32.4 32.4 0 0032.4 32.4h129.8v-.1l2.3.1a34.8 34.8 0 006.5-68.9A32.4 32.4 0 00130 30.6a48.6 48.6 0 00-88.6 37.2h-1.5a32.4 32.4 0 00-32.4 32.4Z"/></symbol><symbol id="b" viewBox="0 0 359 231"><path fill="none" stroke="#000" stroke-linecap="round" stroke-linejoin="round" stroke-width="15" d="M295.5 223.5a56 56 0 100-112l-2.5.1a84 84 0 00-153-64.2 56 56 0 00-83.8 57.2 60 60 0 0011.2 118.9"/></symbol><symbol id="c" viewBox="0 0 437 362.5"><g><use xlink:href="#b" width="359" height="231" transform="translate(0 131.5)"/><g clip-path="url(#d)"><use xlink:href="#a" width="214.3" height="140.1" transform="translate(195.51 156.01)"/></g></g></symbol><symbol id="e" viewBox="0 0 502.4 362.5"><g><use xlink:href="#c" width="437" height="362.5" transform="translate(65.34)"/><g clip-path="url(#f)"><use xlink:href="#h" width="183" height="183" transform="translate(55.5 86.5)"/></g></g></symbol><symbol id="g" viewBox="0 0 96 176"><path d="M32 0 0 96h32l-16 80L96 64H48L80 0H32z"/></symbol><symbol id="h" viewBox="0 0 183 183"><path fill="none" stroke="#000" stroke-linecap="round" stroke-linejoin="round" stroke-width="15" d="M166.1 112.9a84.8 84.8 0 01-85.4-84.3 83 83 0 012.8-21.1 84.7 84.7 0 00-76 83.7 84.8 84.8 0 0085.4 84.3c39.8 0 73-26.8 82.6-63.1-3 .3-6.2.5-9.4.5Z"/></symbol><symbol id="i" viewBox="0 0 128 109"><g><path d="M8 56a8 8 0 01-8-8V8a8 8 0 1116 0v40a8 8 0 01-8 8Zm56 53a8 8 0 01-8-8V61a8 8 0 1116 0v40a8 8 0 01-8 8Zm56-35a8 8 0 01-8-8V26a8 8 0 1116 0v40a8 8 0 01-8 8Z"/></g></symbol><clipPath id="d"><path fill="none" d="M369.5 299c0-34.6-24-63.8-56-71.8V223c0-56.2-45.8-102-102-102V0H437v299h-67.5Z"/></clipPath><clipPath id="f"><path fill="none" d="M0 0v286h54.5a81.1 81.1 0 0147.7-65 77.1 77.1 0 0198.5-67.9 103.9 103.9 0 0169.3-34.7V0H0Z"/></clipPath><style>.il,.im,.in{fill:none;}.im,.in{stroke:#000;stroke-linejoin:round;stroke-width:15px;}.io{clip-path:url(#f);}.ip{clip-path:url(#d);}.in{stroke-linecap:round;}</style></defs><g id="dx"><use xlink:href="#e" width="502.4" height="362.5" transform="translate(-1 9)"/><use xlink:href="#i" width="128" height="109" transform="translate(192 344)"/><use xlink:href="#g" width="96" height="176" transform="translate(208 293)"/></g></svg>