<svg xmlns="http://www.w3.org/2000/svg" xmlns:xlink="http://www.w3.org/1999/xlink" viewBox="0 0 512 512"><defs><symbol id="a" viewBox="0 0 359 231"><path fill="none" stroke="#000" stroke-linecap="round" stroke-linejoin="round" stroke-width="15" d="M295.5 223.5a56 56 0 100-112l-2.5.1a84 84 0 00-153-64.2 56 56 0 00-83.8 57.2 60 60 0 0011.2 118.9"/></symbol><symbol id="b" viewBox="0 0 96 176"><path d="M32 0 0 96h32l-16 80L96 64H48L80 0H32z"/></symbol><symbol id="c" viewBox="0 0 183 183"><path fill="none" stroke="#000" stroke-linecap="round" stroke-linejoin="round" stroke-width="15" d="M166.1 112.9a84.8 84.8 0 01-85.4-84.3 83 83 0 012.8-21.1 84.7 84.7 0 00-76 83.7 84.8 84.8 0 0085.4 84.3c39.8 0 73-26.8 82.6-63.1-3 .3-6.2.5-9.4.5Z"/></symbol><symbol id="d" viewBox="0 0 426.5 362.5"><g><use xlink:href="#a" width="359" height="231" transform="translate(67.5 131.5)"/><g clip-path="url(#e)"><use xlink:href="#c" width="183" height="183" transform="translate(55.5 86.5)"/></g></g></symbol><symbol id="f" viewBox="0 0 128 109"><g><path d="M8 56a8 8 0 01-8-8V8a8 8 0 1116 0v40a8 8 0 01-8 8Zm56 53a8 8 0 01-8-8V61a8 8 0 1116 0v40a8 8 0 01-8 8Zm56-35a8 8 0 01-8-8V26a8 8 0 1116 0v40a8 8 0 01-8 8Z"/></g></symbol><clipPath id="e"><path fill="none" d="M0 0v286h54.5a81.1 81.1 0 0147.7-65 77.1 77.1 0 0198.5-67.9 103.9 103.9 0 0169.3-34.7V0H0Z"/></clipPath><style>.ii,.ij{fill:none;}.ik{clip-path:url(#e);}.ij{stroke:#000;stroke-linecap:round;stroke-linejoin:round;stroke-width:15px;}</style></defs><g id="dc"><use xlink:href="#d" width="426.5" height="362.5" transform="translate(9 9)"/><use xlink:href="#f" width="128" height="109" transform="translate(192 344)"/><use xlink:href="#b" width="96" height="176" transform="translate(208 293)"/></g></svg>