<svg xmlns="http://www.w3.org/2000/svg" xmlns:xlink="http://www.w3.org/1999/xlink" viewBox="0 0 512 512"><defs><symbol id="a" viewBox="0 0 197.5 128.5"><path fill="none" stroke="#000" stroke-miterlimit="10" stroke-width="12" d="m161.3 62-1.4.1a45.1 45.1 0 00-43.9-56 45.2 45.2 0 00-38.5 21.4 30 30 0 00-45.2 30.9 32.3 32.3 0 006 64h123a30.2 30.2 0 100-60.3Z"/></symbol><symbol id="b" viewBox="0 0 203 203"><path fill="none" stroke="#000" stroke-linecap="round" stroke-linejoin="round" stroke-width="15" d="M185 125.5a95 95 0 01-95.6-94.3c0-8.2 1.2-16.1 3.2-23.7a94.8 94.8 0 00-85.1 93.7 95 95 0 0095.6 94.3c44.5 0 81.8-30 92.4-70.7-3.5.4-7 .6-10.5.6Z"/></symbol><clipPath id="hf"><path fill="none" d="M326.6 239a45.4 45.4 0 00-38.6 21.4 30.2 30.2 0 00-45.3 30.7 32.3 32.3 0 00-26.4 31.6L219 334H0V0h326.6v239Z"/></clipPath><style>.if,.ig,.ih{fill:none;}.ig{stroke-miterlimit:10;stroke-width:12px;}.ig,.ih{stroke:#000;}.ii{clip-path:url(#hf);}.ih{stroke-linecap:round;stroke-linejoin:round;stroke-width:15px;}</style></defs><g id="he"><g clip-path="url(#hf)"><use xlink:href="#b" width="203" height="203" transform="translate(154.5 134.5)"/></g><path d="M220.2 438.4h-40.6c0-4.6 1-8.4 3-11.5 2-3 5.5-6.2 10.8-9.8l7.9-5.7c2-1.3 3.4-2.7 4.3-4a7.4 7.4 0 001.2-4.2c0-2-.6-3.6-1.9-4.8a7.1 7.1 0 00-5-1.8c-5 0-7.4 2.9-7.4 8.6v1h-12.2v-1.5c0-6 1.8-10.5 5.2-13.8 3.5-3.3 8.4-5 14.7-5s10.8 1.5 14.4 4.4c3.6 3 5.4 7 5.4 12.1 0 3.4-.8 6.3-2.5 9a26.6 26.6 0 01-8.2 7.5l-8.9 5.7c-1.7 1-2.6 2-2.7 2.8h22.5v11Zm33.6 0h-13.5v-32h-12.7v-9h2.2c3.7 0 6.6-.9 8.8-2.4 2-1.5 3.3-4 4-7.3v-.6h11.2v51.3Zm30-15.1h-20.5v-9.9h20.5v10Zm44.6 9c-4 4.8-9.4 7.2-16.2 7.2s-12.3-2.4-16.3-7.2c-4-4.9-6-11.4-6-19.7s2-14.6 6-19.4c4-4.8 9.4-7.2 16.3-7.2s12.2 2.4 16.2 7.2c4 4.8 6 11.3 6 19.4s-2 14.8-6 19.7Zm-16.2-3.2c6.2 0 9.3-5.5 9.3-16.4s-3.1-16.3-9.3-16.3-9.5 5.5-9.5 16.3 3.2 16.4 9.5 16.4Z"/><use xlink:href="#a" width="197.5" height="128.5" transform="translate(210.31 232.95)"/></g></svg>