<svg xmlns="http://www.w3.org/2000/svg" xmlns:xlink="http://www.w3.org/1999/xlink" viewBox="0 0 512 512"><defs><clipPath id="ha"><path fill="none" d="M0 12h512v282H0z"/></clipPath><symbol id="a" viewBox="0 0 291 291"><g><circle cx="145.5" cy="145.5" r="64.4" fill="none" stroke="#000" stroke-miterlimit="10" stroke-width="12"/><path fill="none" stroke="#000" stroke-linecap="round" stroke-miterlimit="10" stroke-width="15" d="M145.5 45.6V7.5m0 276v-38m70.7-170.7L243 48M47.9 243.1l27-27m0-141.3L47.8 48M243 243.2l-27-27M45.7 145.6H7.5m276 0h-38"/></g></symbol><style>.ie,.if,.ig,.ih{fill:none;}.if{stroke-width:12px;}.if,.ig{stroke-miterlimit:10;}.if,.ig,.ih{stroke:#000;}.ig{stroke-width:15px;}.ig,.ih{stroke-linecap:round;}.ih{stroke-linejoin:round;stroke-width:18px;}.ii{clip-path:url(#ha);}</style></defs><g id="h`"><g clip-path="url(#ha)"><use xlink:href="#a" width="291" height="291" transform="translate(110.44 110.63)"/></g><path fill="none" stroke="#000" stroke-linecap="round" stroke-linejoin="round" stroke-width="18" d="M128 320h256"/><path d="M214.5 392c4.8 4.5 7.2 11.3 7.2 20.5 0 8.8-2 15.5-5.8 20.3s-9.3 7.2-16.6 7.2c-5 0-9.3-1.2-12.6-3.5a16.3 16.3 0 01-6.7-9.6l12.4-.8c1 2.8 3.4 4.1 7 4.1 2.9 0 5.1-1 6.7-3s2.5-5.2 2.8-9.6c-3 3.5-7 5.3-12.4 5.3s-9.8-1.6-13.2-4.8a17 17 0 01-5-12.9c0-5.6 1.9-10.2 5.7-13.8 3.8-3.5 8.8-5.2 15-5.2s11.5 2 15.5 5.7Zm-15 21.3c2.6 0 4.6-.8 6.1-2.3a9 9 0 002.5-6.2c-.1-2.2-.8-4-2-5.4-1.7-1.9-3.9-2.8-6.7-2.8s-4.7.7-6.1 2.3c-1.5 1.6-2.2 3.6-2.2 6s.7 4.5 2.3 6 3.6 2.4 6.2 2.4Zm49.2 10h-20.5v-9.9h20.5v10Zm31.2 15.1h-13.5v-32h-12.6v-9h2.1a15 15 0 008.8-2.4c2-1.5 3.4-4 4-7.3l.1-.6H280v51.3Zm52.5 0h-40.6c0-4.6 1-8.4 3-11.5 1.9-3 5.5-6.2 10.7-9.8l8-5.7c2-1.3 3.4-2.7 4.2-4a7.4 7.4 0 001.3-4.2c0-2-.6-3.6-1.9-4.8a7.1 7.1 0 00-5-1.8c-5 0-7.4 2.9-7.4 8.6v1h-12.2v-1.5c0-6 1.7-10.5 5.2-13.8 3.5-3.3 8.3-5 14.7-5s10.8 1.5 14.4 4.4c3.6 3 5.4 7 5.4 12.1a16 16 0 01-2.6 9 26.5 26.5 0 01-8.2 7.5l-8.8 5.7c-1.7 1-2.6 2-2.8 2.8h22.6v11Z"/></g></svg>