<svg xmlns="http://www.w3.org/2000/svg" xmlns:xlink="http://www.w3.org/1999/xlink" viewBox="0 0 512 512"><defs><symbol id="a" viewBox="0 0 291.6 290.6"><g><ellipse cx="145.8" cy="145.3" fill="none" stroke="#000" stroke-miterlimit="10" stroke-width="12" rx="64.5" ry="64.3"/><path fill="none" stroke="#000" stroke-linecap="round" stroke-miterlimit="10" stroke-width="15" d="M145.8 45.5v-38m0 275.6v-38m70.8-170.3 27-27M48 242.9l27-27m0-141-27-27m195.6 195-27-27m-171-70.5h-38m276.6 0H246"/></g></symbol><style>.id{stroke-width:12px;}.id,.ie{fill:none;stroke:#000;stroke-miterlimit:10;}.ie{stroke-linecap:round;stroke-width:15px;}</style></defs><g id="hb"><path d="M185.3 438.4h-13.5v-32h-12.7v-9h2.2c3.7 0 6.6-.9 8.8-2.4 2-1.5 3.3-4 4-7.3v-.6h11.2v51.3Zm32 1.3c-5.9 0-10.6-1.4-14.4-4a16.3 16.3 0 01-6.6-11.5l12.9-1c.4 2 1.3 3.4 2.7 4.4a9 9 0 005.3 1.6c2.6 0 4.7-.8 6.2-2.2 1.5-1.5 2.2-3.4 2.2-5.8s-.7-4.3-2.2-5.7a8.5 8.5 0 00-6.2-2.2c-2.8 0-5.2 1-7.1 3l-12.1-1 4.7-28.2h32.2V398h-22.5l-1.7 8.7.3.2c2.6-2 6-3 10.3-3a17 17 0 0112.5 4.6c3.2 3.1 4.7 7.3 4.7 12.5 0 5.8-1.9 10.3-5.7 13.7-3.8 3.4-9 5-15.5 5Zm49-16.4h-20.6v-9.9h20.6v10Zm31.1 15.1H284v-32h-12.7v-9h2.2c3.7 0 6.6-.9 8.8-2.4 2-1.5 3.3-4 4-7.3v-.6h11.2v51.3Zm48.3-3.1c-4 3-9.3 4.4-16 4.4s-12.1-1.5-16-4.4c-4-3-6-7-6-12 0-3.2 1-5.8 2.7-8 1.7-2.1 4.2-3.6 7.4-4.3v-.3A11 11 0 01310 400c0-4.4 1.7-7.8 5.2-10.3s8.2-3.7 14.3-3.7 11 1.2 14.5 3.7 5.2 5.9 5.2 10.3a12 12 0 01-2 6.8c-1.4 2-3.3 3.3-5.6 4v.3c3.1.8 5.6 2.2 7.3 4.3a12 12 0 012.6 8c0 5-2 9-6 12Zm-16-5.3c2.8 0 5-.6 6.7-1.9 1.6-1.3 2.5-3 2.5-5.3s-.9-4-2.5-5.3c-1.6-1.2-3.8-1.9-6.7-1.9s-5.2.7-6.8 2c-1.7 1.2-2.5 3-2.5 5.2s.8 4 2.5 5.3c1.7 1.3 4 2 6.8 2Zm0-22.6c2.5 0 4.5-.6 5.9-1.7 1.4-1.1 2-2.6 2-4.6s-.6-3.4-2-4.5a9.8 9.8 0 00-5.9-1.5c-5.4 0-8 2-8 6 0 2 .7 3.5 2 4.6a9.4 9.4 0 006 1.6Z"/><use xlink:href="#a" width="291.6" height="290.6" transform="translate(110.33 72.62)"/></g></svg>