<svg xmlns="http://www.w3.org/2000/svg" xmlns:xlink="http://www.w3.org/1999/xlink" viewBox="0 0 512 512"><defs><symbol id="a" viewBox="0 0 203 203"><path fill="none" stroke="#000" stroke-linecap="round" stroke-linejoin="round" stroke-width="15" d="M185 125.5a95 95 0 01-95.6-94.3c0-8.2 1.2-16.1 3.2-23.7a94.8 94.8 0 00-85.1 93.7 95 95 0 0095.6 94.3c44.5 0 81.8-30 92.4-70.7-3.5.4-7 .6-10.5.6Z"/></symbol><style>.id{fill:#374251;}.ie{fill:none;stroke:#000;stroke-linecap:round;stroke-linejoin:round;stroke-width:15px;}</style></defs><g id="hf"><path d="M227.6 410.7c3.5.7 6.1 2 8 4.3s3 5 3 8.3a15 15 0 01-5.5 11.9c-3.6 3-8.7 4.6-15.2 4.6s-12-1.7-15.6-5-5.6-8-5.9-14h12.3c.3 5.9 3.2 8.8 8.7 8.8 2.5 0 4.4-.6 5.8-1.8 1.5-1.2 2.2-2.8 2.2-4.9s-.8-3.7-2.3-4.8a10.5 10.5 0 00-6.3-1.7h-3.6v-8.9h3.8a8 8 0 005.2-1.5c1.2-1 1.9-2.4 1.9-4.3s-.6-3.3-1.9-4.4c-1.2-1-3-1.5-5.2-1.5s-3.9.5-5 1.6c-1.2 1.1-1.9 3-2 5.4h-12c.5-11.3 7-16.9 19.4-16.9a22 22 0 0113.9 3.9 12 12 0 015 10c0 2.6-.8 5-2.3 6.9s-3.7 3.3-6.4 4Z"/><path fill="#374251" d="M266.3 423.3h-20.6v-9.9h20.6v10Z"/><path d="M298 403c5.4 0 9.8 1.6 13.2 4.8 3.4 3.2 5.1 7.6 5.1 13s-2 10.1-5.8 13.7c-3.8 3.5-8.8 5.2-15 5.2S284 437.8 280 434c-4.7-4.5-7.1-11.4-7.1-20.7a32 32 0 015.7-20.3c3.8-4.7 9.3-7.1 16.6-7.1 5 0 9.2 1.1 12.6 3.4s5.5 5.5 6.7 9.7l-12.5.7c-1-2.7-3.3-4-6.9-4-3 0-5.2 1-6.7 2.9s-2.4 5.2-2.8 9.7c2.9-3.6 7-5.4 12.3-5.4Zm-9.6 23.6c1.8 1.8 4 2.8 6.7 2.8s4.7-.8 6.1-2.5a8.9 8.9 0 002.2-6c0-2.4-.8-4.4-2.4-6s-3.6-2.2-6-2.2-4.6.7-6.1 2.2a9 9 0 00-2.6 6.2c.2 2.2.9 4 2.1 5.5Z"/><use xlink:href="#a" width="203" height="203" transform="translate(154.5 134.5)"/></g></svg>