<svg xmlns="http://www.w3.org/2000/svg" xmlns:xlink="http://www.w3.org/1999/xlink" viewBox="0 0 512 512"><defs><clipPath id="h`"><path fill="none" d="M0 12h512v282H0z"/></clipPath><symbol id="a" viewBox="0 0 291 291"><g><circle cx="145.5" cy="145.5" r="64.4" fill="none" stroke="#000" stroke-miterlimit="10" stroke-width="12"/><path fill="none" stroke="#000" stroke-linecap="round" stroke-miterlimit="10" stroke-width="15" d="M145.5 45.6V7.5m0 276v-38m70.7-170.7L243 48M47.9 243.1l27-27m0-141.3L47.8 48M243 243.2l-27-27M45.7 145.6H7.5m276 0h-38"/></g></symbol><style>.ie,.if,.ig,.ih{fill:none;}.if{stroke-width:12px;}.if,.ig{stroke-miterlimit:10;}.if,.ig,.ih{stroke:#000;}.ig{stroke-width:15px;}.ig,.ih{stroke-linecap:round;}.ih{stroke-linejoin:round;stroke-width:18px;}.ii{clip-path:url(#h`);}</style></defs><g id="gy"><g clip-path="url(#h`)"><use xlink:href="#a" width="291" height="291" transform="translate(110.5 168.5)"/></g><path fill="none" stroke="#000" stroke-linecap="round" stroke-linejoin="round" stroke-width="18" d="M128 320h256"/><path d="M220.8 403c5.5 0 10 1.6 13.3 4.8 3.4 3.2 5 7.6 5 13s-1.8 10.1-5.7 13.7c-3.8 3.5-8.8 5.2-15 5.2s-11.5-1.9-15.5-5.7c-4.7-4.5-7.1-11.4-7.1-20.7a32 32 0 015.7-20.3c3.8-4.7 9.3-7.1 16.6-7.1 5 0 9.2 1.1 12.6 3.4a17 17 0 016.7 9.7l-12.5.7c-1-2.7-3.3-4-6.9-4-3 0-5.2 1-6.7 2.9s-2.5 5.2-2.8 9.7c2.9-3.6 7-5.4 12.3-5.4Zm-9.5 23.6c1.8 1.8 4 2.8 6.7 2.8s4.7-.8 6.1-2.5a8.9 8.9 0 002.2-6c0-2.4-.8-4.4-2.4-6s-3.6-2.2-6.1-2.2-4.5.7-6 2.2a9 9 0 00-2.6 6.2c.2 2.2.9 4 2.1 5.5Zm55-3.3h-20.6v-9.9h20.6v10Zm42.8-31.3c4.8 4.5 7.2 11.3 7.2 20.5 0 8.8-2 15.5-5.7 20.3s-9.4 7.2-16.7 7.2a22 22 0 01-12.6-3.5 16.3 16.3 0 01-6.6-9.6l12.4-.8c1 2.8 3.3 4.1 6.9 4.1 3 0 5.1-1 6.7-3a18 18 0 002.8-9.6c-3 3.5-7 5.3-12.3 5.3s-9.9-1.6-13.2-4.8a17 17 0 01-5.1-12.9c0-5.6 1.9-10.2 5.7-13.8 3.8-3.5 8.8-5.2 15-5.2s11.5 2 15.5 5.7Zm-14.9 21.3c2.5 0 4.5-.8 6-2.3a9 9 0 002.6-6.2c-.2-2.2-.9-4-2.1-5.4-1.6-1.9-3.9-2.8-6.6-2.8s-4.7.7-6.2 2.3c-1.5 1.6-2.2 3.6-2.2 6s.8 4.5 2.3 6a8.4 8.4 0 006.2 2.4Z"/></g></svg>