<svg xmlns="http://www.w3.org/2000/svg" xmlns:xlink="http://www.w3.org/1999/xlink" viewBox="0 0 512 512"><defs><clipPath id="hd"><path fill="none" d="M0 12h512v282H0z"/></clipPath><symbol id="a" viewBox="0 0 291.6 290.6"><g><ellipse cx="145.8" cy="145.3" fill="none" stroke="#000" stroke-miterlimit="10" stroke-width="12" rx="64.5" ry="64.3"/><path fill="none" stroke="#000" stroke-linecap="round" stroke-miterlimit="10" stroke-width="15" d="M145.8 45.5v-38m0 275.6v-38m70.8-170.3 27-27M48 242.9l27-27m0-141-27-27m195.6 195-27-27m-171-70.5h-38m276.6 0H246"/></g></symbol><style>.ie,.if,.ig,.ih{fill:none;}.if{stroke-width:12px;}.if,.ig{stroke-miterlimit:10;}.if,.ig,.ih{stroke:#000;}.ig{stroke-width:15px;}.ig,.ih{stroke-linecap:round;}.ih{stroke-linejoin:round;stroke-width:18px;}.ii{clip-path:url(#hd);}</style></defs><g id="hc"><g clip-path="url(#hd)"><use xlink:href="#a" width="291.6" height="290.6" transform="translate(110.28 168.62)"/></g><path fill="none" stroke="#000" stroke-linecap="round" stroke-linejoin="round" stroke-width="18" d="M128 320h256"/><path d="M185.3 438.4h-13.5v-32h-12.7v-9h2.2c3.7 0 6.6-.9 8.8-2.4 2-1.5 3.3-4 4-7.3v-.6h11.2v51.3Zm48.2-3.1c-4 3-9.3 4.4-16 4.4s-12.1-1.5-16-4.4c-4-3-6-7-6-12 0-3.2 1-5.8 2.7-8a13 13 0 017.4-4.3v-.3a11 11 0 01-7.7-10.8 12 12 0 015.2-10.3c3.4-2.5 8.2-3.7 14.4-3.7s11 1.2 14.4 3.7c3.5 2.5 5.2 5.9 5.2 10.3 0 2.6-.7 4.8-2 6.8s-3.3 3.3-5.6 4v.3c3.1.8 5.6 2.2 7.3 4.3a12 12 0 012.6 8c0 5-2 9-5.9 12Zm-16-5.3c2.9 0 5-.6 6.7-1.9 1.7-1.3 2.5-3 2.5-5.3s-.8-4-2.4-5.3c-1.7-1.2-3.9-1.9-6.8-1.9s-5.2.7-6.8 2c-1.6 1.2-2.5 3-2.5 5.2s.9 4 2.5 5.3c1.7 1.3 4 2 6.8 2Zm0-22.6c2.5 0 4.5-.6 5.9-1.7 1.4-1.1 2.1-2.6 2.1-4.6s-.7-3.4-2-4.5a9.8 9.8 0 00-6-1.5c-5.4 0-8 2-8 6 0 2 .7 3.5 2 4.6a9.4 9.4 0 006 1.6Zm48.8 15.9h-20.6v-9.9h20.6v10Zm48.6 15.1h-40.6c0-4.6 1-8.4 3-11.5 1.9-3 5.5-6.2 10.7-9.8l8-5.7c2-1.3 3.4-2.7 4.2-4a7.4 7.4 0 001.3-4.2c0-2-.6-3.6-1.9-4.8a7.1 7.1 0 00-5.1-1.8c-4.9 0-7.3 2.9-7.3 8.6v1H275v-1.5c0-6 1.7-10.5 5.2-13.8 3.4-3.3 8.3-5 14.7-5s10.8 1.5 14.4 4.4c3.6 3 5.4 7 5.4 12.1 0 3.4-.9 6.3-2.6 9a26.5 26.5 0 01-8.2 7.5l-8.8 5.7c-1.7 1-2.6 2-2.8 2.8H315v11Zm33.5 0H335v-32h-12.7v-9h2.1a15 15 0 008.8-2.4c2-1.5 3.4-4 4-7.3l.1-.6h11.1v51.3Z"/></g></svg>