<svg xmlns="http://www.w3.org/2000/svg" xmlns:xlink="http://www.w3.org/1999/xlink" viewBox="0 0 512 512"><defs><clipPath id="gq"><path fill="none" d="M64 64h384v192H328a72 72 0 00-72 72v120H64V64Z"/></clipPath><symbol id="a" viewBox="0 0 375 375"><g><circle cx="187.5" cy="187.5" r="84" fill="none" stroke="#000" stroke-miterlimit="10" stroke-width="15"/><path fill="none" stroke="#000" stroke-linecap="round" stroke-miterlimit="10" stroke-width="15" d="M187.5 57.2V7.5m0 360v-49.7m92.2-222.5 35-35M60.3 314.7l35.1-35.1m0-184.4-35-35m254.5 254.5-35.1-35.1M57.2 187.5H7.5m360 0h-49.7"/></g></symbol><style>.ie,.if,.ig{fill:none;}.if{stroke-linecap:round;}.if,.ig{stroke:#000;stroke-miterlimit:10;stroke-width:15px;}.ih{clip-path:url(#gq);}</style></defs><g id="gp"><g clip-path="url(#gq)"><use xlink:href="#a" width="375" height="375" transform="translate(68.5 68.5)"/><path fill="none" stroke="#000" stroke-miterlimit="10" stroke-width="15" d="M254 338v-10a74 74 0 0174-74h10"/></g><path d="M376 280h-48c-26.4 0-48 21.6-48 48v48c0 26.4 21.6 48 48 48h48c26.4 0 48-21.6 48-48v-48c0-26.4-21.6-48-48-48Zm-3 101.8c-5 4.2-11.7 6.2-20.4 6.2s-16-2.2-21-6.7a26.2 26.2 0 01-7.8-18.6h16.5c.4 7.8 4.3 11.7 11.6 11.7 3.3 0 6-.8 7.8-2.4 1.9-1.6 2.8-3.8 2.8-6.5s-1-5-3-6.5a14 14 0 00-8.4-2.2h-4.8v-12h5c3.1 0 5.4-.6 7-2 1.7-1.3 2.5-3.2 2.5-5.7s-.8-4.5-2.4-5.8c-1.7-1.4-4-2.1-7-2.1s-5.2.7-6.8 2.2c-1.5 1.5-2.4 3.9-2.7 7.2h-16c.7-15 9.4-22.6 26-22.6 8 0 14.1 1.7 18.5 5.2a16 16 0 016.7 13.3c0 3.6-1 6.7-3 9.3a16 16 0 01-8.6 5.4c4.6.8 8.2 2.7 10.8 5.7 2.6 3 3.9 6.7 3.9 11.2a20 20 0 01-7.3 15.7Z"/></g></svg>