<svg xmlns="http://www.w3.org/2000/svg" xmlns:xlink="http://www.w3.org/1999/xlink" viewBox="0 0 512 512"><defs><clipPath id="gn"><path fill="none" d="M64 64h384v192H328a72 72 0 00-72 72v120H64V64Z"/></clipPath><symbol id="a" viewBox="0 0 375 375"><g><circle cx="187.5" cy="187.5" r="84" fill="none" stroke="#000" stroke-miterlimit="10" stroke-width="15"/><path fill="none" stroke="#000" stroke-linecap="round" stroke-miterlimit="10" stroke-width="15" d="M187.5 57.2V7.5m0 360v-49.7m92.2-222.5 35-35M60.3 314.7l35.1-35.1m0-184.4-35-35m254.5 254.5-35.1-35.1M57.2 187.5H7.5m360 0h-49.7"/></g></symbol><style>.ie,.if,.ig{fill:none;}.if{stroke-linecap:round;}.if,.ig{stroke:#000;stroke-miterlimit:10;stroke-width:15px;}.ih{clip-path:url(#gn);}</style></defs><g id="gm"><g clip-path="url(#gn)"><use xlink:href="#a" width="375" height="375" transform="translate(68.5 68.5)"/><path fill="none" stroke="#000" stroke-miterlimit="10" stroke-width="15" d="M254 338v-10a74 74 0 0174-74h10"/></g><g><path d="M337.7 388c-9.6 0-17-2.3-22.1-6.8-5.2-4.5-7.8-11-7.8-19.4V316h18.3v46c0 7.3 4 11 11.7 11s11.6-3.7 11.6-11v-46h18.3v45.8c0 8.5-2.6 15-7.7 19.5-5.2 4.5-12.6 6.7-22.3 6.7Zm75.7-43.5 8.2-28.5h18.6l-22.6 69.8h-19.4L375.7 316h18.8l8.3 28.4 5.3 22 5.3-21.9Z"/></g></g></svg>