<svg xmlns="http://www.w3.org/2000/svg" xmlns:xlink="http://www.w3.org/1999/xlink" viewBox="0 0 512 512"><defs><clipPath id="gp"><path fill="none" d="M64 64h384v192H328a72 72 0 00-72 72v120H64V64Z"/></clipPath><symbol id="a" viewBox="0 0 375 375"><g><circle cx="187.5" cy="187.5" r="84" fill="none" stroke="#000" stroke-miterlimit="10" stroke-width="15"/><path fill="none" stroke="#000" stroke-linecap="round" stroke-miterlimit="10" stroke-width="15" d="M187.5 57.2V7.5m0 360v-49.7m92.2-222.5 35-35M60.3 314.7l35.1-35.1m0-184.4-35-35m254.5 254.5-35.1-35.1M57.2 187.5H7.5m360 0h-49.7"/></g></symbol><style>.ie,.if,.ig{fill:none;}.if{stroke-linecap:round;}.if,.ig{stroke:#000;stroke-miterlimit:10;stroke-width:15px;}.ih{clip-path:url(#gp);}</style></defs><g id="go"><g clip-path="url(#gp)"><use xlink:href="#a" width="375" height="375" transform="translate(68.5 68.5)"/><path fill="none" stroke="#000" stroke-miterlimit="10" stroke-width="15" d="M254 338v-10a74 74 0 0174-74h10"/></g><path d="M376 280h-48c-26.4 0-48 21.6-48 48v48c0 26.4 21.6 48 48 48h48c26.4 0 48-21.6 48-48v-48c0-26.4-21.6-48-48-48Zm3.9 108h-55.7c0-6.3 1.3-11.5 4-15.7 2.7-4 7.6-8.6 14.8-13.5l11-7.8c2.7-2 4.7-3.7 5.9-5.5 1.1-1.7 1.7-3.6 1.7-5.8a9 9 0 00-2.6-6.7 9.8 9.8 0 00-7-2.4c-6.7 0-10 4-10 11.8v1.5h-16.7v-2.2a25 25 0 017-19c4.8-4.5 11.5-6.8 20.2-6.8s14.9 2 19.8 6c4.9 4.1 7.4 9.7 7.4 16.7A22 22 0 01376 351c-2.4 3.6-6.1 7-11.2 10.3l-12.2 7.7c-2.3 1.5-3.6 2.8-3.7 3.9h30.9v15Z"/></g></svg>