<svg xmlns="http://www.w3.org/2000/svg" xmlns:xlink="http://www.w3.org/1999/xlink" viewBox="0 0 512 512"><defs><clipPath id="gt"><path fill="none" d="M64 64h384v192H328a72 72 0 00-72 72v120H64V64Z"/></clipPath><symbol id="a" viewBox="0 0 375 375"><g><circle cx="187.5" cy="187.5" r="84" fill="none" stroke="#000" stroke-miterlimit="10" stroke-width="15"/><path fill="none" stroke="#000" stroke-linecap="round" stroke-miterlimit="10" stroke-width="15" d="M187.5 57.2V7.5m0 360v-49.7m92.2-222.5 35-35M60.3 314.7l35.1-35.1m0-184.4-35-35m254.5 254.5-35.1-35.1M57.2 187.5H7.5m360 0h-49.7"/></g></symbol><style>.ie,.if,.ig{fill:none;}.if{stroke-linecap:round;}.if,.ig{stroke:#000;stroke-miterlimit:10;stroke-width:15px;}.ih{clip-path:url(#gt);}</style></defs><g id="gs"><g clip-path="url(#gt)"><use xlink:href="#a" width="375" height="375" transform="translate(68.5 68.5)"/><path fill="none" stroke="#000" stroke-miterlimit="10" stroke-width="15" d="M254 338v-10a74 74 0 0174-74h10"/></g><g><path d="M352.4 351.8c-3.3 0-6 1-8 3a12 12 0 00-3.4 8.3c.2 2.9 1 5.3 2.8 7.3 2.3 2.5 5.2 3.7 8.8 3.7s6.4-1 8.3-3.2c2-2.3 2.9-5 2.9-8 0-3.3-1-6-3.2-8-2.1-2-4.8-3.1-8.2-3.1Z"/><path d="M376 280h-48c-26.4 0-48 21.6-48 48v48c0 26.4 21.6 48 48 48h48c26.4 0 48-21.6 48-48v-48c0-26.4-21.6-48-48-48Zm-2.7 101c-5.1 4.7-11.9 7-20.2 7s-15.3-2.6-20.6-7.7c-6.3-6-9.5-15.2-9.5-27.6 0-11.7 2.5-20.7 7.6-27.1 5.1-6.4 12.5-9.6 22.2-9.6 6.8 0 12.4 1.5 16.8 4.6 4.5 3 7.5 7.3 9 13l-16.6.9c-1.4-3.7-4.5-5.5-9.3-5.5-4 0-7 1.3-9 4a25 25 0 00-3.7 13c3.9-4.8 9.4-7.2 16.5-7.2s13.2 2.1 17.7 6.4c4.6 4.4 6.8 10.2 6.8 17.4s-2.6 13.6-7.7 18.3Z"/></g></g></svg>