<svg xmlns="http://www.w3.org/2000/svg" xmlns:xlink="http://www.w3.org/1999/xlink" viewBox="0 0 512 512"><defs><clipPath id="gy"><path fill="none" d="M64 64h384v192H328a72 72 0 00-72 72v120H64V64Z"/></clipPath><symbol id="a" viewBox="0 0 375 375"><g><circle cx="187.5" cy="187.5" r="84" fill="none" stroke="#000" stroke-miterlimit="10" stroke-width="15"/><path fill="none" stroke="#000" stroke-linecap="round" stroke-miterlimit="10" stroke-width="15" d="M187.5 57.2V7.5m0 360v-49.7m92.2-222.5 35-35M60.3 314.7l35.1-35.1m0-184.4-35-35m254.5 254.5-35.1-35.1M57.2 187.5H7.5m360 0h-49.7"/></g></symbol><style>.ie,.if,.ig{fill:none;}.if{stroke-linecap:round;}.if,.ig{stroke:#000;stroke-miterlimit:10;stroke-width:15px;}.ih{clip-path:url(#gy);}</style></defs><g id="gx"><g clip-path="url(#gy)"><use xlink:href="#a" width="375" height="375" transform="translate(68.5 68.5)"/><path fill="none" stroke="#000" stroke-miterlimit="10" stroke-width="15" d="M254 338v-10a74 74 0 0174-74h10"/></g><path d="M376 280h-48c-26.4 0-48 21.6-48 48v48c0 26.4 21.6 48 48 48h48c26.4 0 48-21.6 48-48v-48c0-26.4-21.6-48-48-48Zm-31 108h-18.9v-45h-17.8v-12.6h3c5.2 0 9.3-1.1 12.4-3.4 2.8-2 4.6-5.5 5.5-10.2l.2-.8H345v72Zm46.7 0h-19v-45H355v-12.6h3c5.2 0 9.3-1.1 12.4-3.4 2.8-2 4.6-5.5 5.5-10.2l.2-.8h15.6v72Z"/></g></svg>