<svg xmlns="http://www.w3.org/2000/svg" xmlns:xlink="http://www.w3.org/1999/xlink" viewBox="0 0 512 512"><defs><clipPath id="gw"><path fill="none" d="M64 64h384v192H328a72 72 0 00-72 72v120H64V64Z"/></clipPath><symbol id="a" viewBox="0 0 375 375"><g><circle cx="187.5" cy="187.5" r="84" fill="none" stroke="#000" stroke-miterlimit="10" stroke-width="15"/><path fill="none" stroke="#000" stroke-linecap="round" stroke-miterlimit="10" stroke-width="15" d="M187.5 57.2V7.5m0 360v-49.7m92.2-222.5 35-35M60.3 314.7l35.1-35.1m0-184.4-35-35m254.5 254.5-35.1-35.1M57.2 187.5H7.5m360 0h-49.7"/></g></symbol><style>.ie,.if,.ig{fill:none;}.if{stroke-linecap:round;}.if,.ig{stroke:#000;stroke-miterlimit:10;stroke-width:15px;}.ih{clip-path:url(#gw);}</style></defs><g id="gv"><g clip-path="url(#gw)"><use xlink:href="#a" width="375" height="375" transform="translate(68.5 68.5)"/><path fill="none" stroke="#000" stroke-miterlimit="10" stroke-width="15" d="M254 338v-10a74 74 0 0174-74h10"/></g><g><path d="M351.3 329.9c-3.6 0-6.3 1-8.3 3.1-2 2.1-2.9 4.8-2.9 8s1 6.1 3.1 8.2c2.1 2 4.9 3 8.3 3s6-1 8-3c2.1-2.1 3.2-4.9 3.4-8.3-.1-3-1-5.4-2.7-7.3a11.2 11.2 0 00-9-3.7Z"/><path d="M376 280h-48c-26.4 0-48 21.6-48 48v48c0 26.4 21.6 48 48 48h48c26.4 0 48-21.6 48-48v-48c0-26.4-21.6-48-48-48Zm-2.6 98.4c-5.1 6.4-12.6 9.6-22.3 9.6-6.8 0-12.4-1.5-16.8-4.6-4.5-3-7.5-7.3-9-12.9l16.6-1c1.4 3.6 4.5 5.5 9.3 5.5 4 0 7-1.4 9-4 2-2.7 3.4-7 3.8-13-4 4.8-9.5 7.1-16.6 7.1s-13.1-2.1-17.6-6.4a22.8 22.8 0 01-6.9-17.3 24 24 0 017.8-18.4c5-4.7 11.7-7 20.1-7s15.3 2.6 20.6 7.7c6.5 6 9.7 15.2 9.7 27.6 0 11.7-2.6 20.7-7.7 27.1Z"/></g></g></svg>