<svg xmlns="http://www.w3.org/2000/svg" xmlns:xlink="http://www.w3.org/1999/xlink" viewBox="0 0 512 512"><defs><clipPath id="gv"><path fill="none" d="M64 64h384v192H328a72 72 0 00-72 72v120H64V64Z"/></clipPath><symbol id="a" viewBox="0 0 375 375"><g><circle cx="187.5" cy="187.5" r="84" fill="none" stroke="#000" stroke-miterlimit="10" stroke-width="15"/><path fill="none" stroke="#000" stroke-linecap="round" stroke-miterlimit="10" stroke-width="15" d="M187.5 57.2V7.5m0 360v-49.7m92.2-222.5 35-35M60.3 314.7l35.1-35.1m0-184.4-35-35m254.5 254.5-35.1-35.1M57.2 187.5H7.5m360 0h-49.7"/></g></symbol><style>.ie,.if,.ig{fill:none;}.if{stroke-linecap:round;}.if,.ig{stroke:#000;stroke-miterlimit:10;stroke-width:15px;}.ih{clip-path:url(#gv);}</style></defs><g id="gu"><g clip-path="url(#gv)"><use xlink:href="#a" width="375" height="375" transform="translate(68.5 68.5)"/><path fill="none" stroke="#000" stroke-miterlimit="10" stroke-width="15" d="M254 338v-10a74 74 0 0174-74h10"/></g><g><path d="M344.1 342.5c1.9 1.5 4.5 2.2 8 2.2s6-.7 7.8-2.2c1.9-1.5 2.9-3.5 2.9-6.2s-1-4.5-2.9-5.9a13 13 0 00-7.8-2c-7.3 0-10.9 2.6-10.9 8 0 2.6 1 4.6 2.9 6.1Zm16.9 15.9c-2.1-1.7-5.1-2.6-9-2.6s-7 .9-9.1 2.6c-2.2 1.7-3.3 4-3.3 7s1.1 5.4 3.3 7.1c2.3 1.7 5.3 2.6 9.2 2.6s6.7-.9 9-2.6c2-1.7 3.2-4 3.2-7s-1-5.4-3.2-7.1Z"/><path d="M376 280h-48c-26.4 0-48 21.6-48 48v48c0 26.4 21.6 48 48 48h48c26.4 0 48-21.6 48-48v-48c0-26.4-21.6-48-48-48Zm-2.5 102.1c-5.3 4-12.5 5.9-21.5 5.9s-16.2-2-21.4-5.9a19 19 0 01-8-16 16 16 0 013.6-10.7c2.3-2.9 5.6-4.8 9.9-5.9v-.2a14.8 14.8 0 01-10.3-14.6 16 16 0 017-13.7c4.5-3.3 11-5 19.2-5s14.7 1.7 19.3 5a16 16 0 017 13.7c0 3.5-1 6.5-2.8 9.1a14.3 14.3 0 01-7.5 5.5v.2a16.2 16.2 0 0113.3 16.5 19 19 0 01-7.8 16.1Z"/></g></g></svg>