<svg xmlns="http://www.w3.org/2000/svg" xmlns:xlink="http://www.w3.org/1999/xlink" viewBox="0 0 512 512"><defs><clipPath id="gs"><path fill="none" d="M64 64h384v192H328a72 72 0 00-72 72v120H64V64Z"/></clipPath><symbol id="a" viewBox="0 0 375 375"><g><circle cx="187.5" cy="187.5" r="84" fill="none" stroke="#000" stroke-miterlimit="10" stroke-width="15"/><path fill="none" stroke="#000" stroke-linecap="round" stroke-miterlimit="10" stroke-width="15" d="M187.5 57.2V7.5m0 360v-49.7m92.2-222.5 35-35M60.3 314.7l35.1-35.1m0-184.4-35-35m254.5 254.5-35.1-35.1M57.2 187.5H7.5m360 0h-49.7"/></g></symbol><style>.ie,.if,.ig{fill:none;}.if{stroke-linecap:round;}.if,.ig{stroke:#000;stroke-miterlimit:10;stroke-width:15px;}.ih{clip-path:url(#gs);}</style></defs><g id="gr"><g clip-path="url(#gs)"><use xlink:href="#a" width="375" height="375" transform="translate(68.5 68.5)"/><path fill="none" stroke="#000" stroke-miterlimit="10" stroke-width="15" d="M254 338v-10a74 74 0 0174-74h10"/></g><path d="M376 280h-48c-26.4 0-48 21.6-48 48v48c0 26.4 21.6 48 48 48h48c26.4 0 48-21.6 48-48v-48c0-26.4-21.6-48-48-48Zm-2.9 101a31 31 0 01-21.3 7c-8 0-14.6-1.8-19.7-5.5-5-3.7-8-9-9-15.7l17.6-1.4a9.9 9.9 0 003.8 6 12 12 0 007.2 2.2c3.6 0 6.4-1 8.4-3 2.1-2 3.2-4.7 3.2-8s-1-5.8-3.2-7.8c-2-2-4.8-3-8.4-3-4 0-7.2 1.4-9.7 4.3l-16.6-1.5 6.4-38.6H376v14.7h-31l-2.3 12 .3.2c3.7-2.7 8.5-4 14.2-4 7.1 0 12.8 2 17 6.3 4.4 4.2 6.6 9.9 6.6 17 0 8-2.6 14.2-7.8 18.8Z"/></g></svg>