<svg xmlns="http://www.w3.org/2000/svg" xmlns:xlink="http://www.w3.org/1999/xlink" viewBox="0 0 512 512"><defs><symbol id="a" viewBox="0 0 342 234"><g><path fill="none" stroke="#000" stroke-linecap="round" stroke-miterlimit="10" stroke-width="18" d="M264.2 21.3A39.9 39.9 0 01333 49c0 22-18 40-40 40H9m139.2 123.7A39.9 39.9 0 00217 185c0-22-18-40-40-40H9"/></g></symbol><style>.id{fill:none;stroke:#000;stroke-linecap:round;stroke-miterlimit:10;stroke-width:18px;}</style></defs><g id="gj"><use xlink:href="#a" width="342" height="234" transform="translate(85 139)"/><path d="M367.5 344.4h-19v-45h-17.7v-12.6h3c5.2 0 9.3-1.1 12.3-3.4 2.9-2 4.7-5.5 5.6-10.2l.2-.8h15.6v72Zm69.7-.8h-55.7c0-6.3 1.4-11.5 4-15.7 2.8-4 7.7-8.6 14.9-13.5l10.9-7.7c2.7-2 4.7-3.8 5.8-5.5a9.7 9.7 0 001.8-5.8 9 9 0 00-2.6-6.7 9.8 9.8 0 00-7-2.4c-6.7 0-10 4-10 11.8v1.4h-16.8v-2.1a25 25 0 017.1-19c4.8-4.5 11.5-6.8 20.2-6.8s14.9 2 19.7 6c5 4.1 7.4 9.7 7.4 16.7a22 22 0 01-3.5 12.3c-2.3 3.6-6 7-11.2 10.3l-12.1 7.7c-2.3 1.5-3.6 2.8-3.8 3.9h31v15Z"/></g></svg>