<svg xmlns="http://www.w3.org/2000/svg" xmlns:xlink="http://www.w3.org/1999/xlink" viewBox="0 0 512 512"><defs><symbol id="a" viewBox="0 0 342 234"><g><path fill="none" stroke="#000" stroke-linecap="round" stroke-miterlimit="10" stroke-width="18" d="M264.2 21.3A39.9 39.9 0 01333 49c0 22-18 40-40 40H9m139.2 123.7A39.9 39.9 0 00217 185c0-22-18-40-40-40H9"/></g></symbol><style>.id{fill:none;stroke:#000;stroke-linecap:round;stroke-miterlimit:10;stroke-width:18px;}</style></defs><g id="gl"><use xlink:href="#a" width="342" height="234" transform="translate(85 139)"/><path d="m249.6 180.7-5.8-3.4c.5-2.2.5-4.5 0-6.6l5.8-3.4a4 4 0 001.4-5.6 4 4 0 00-5.5-1.4l-5.8 3.3a14.2 14.2 0 00-5.6-3.3v-6.7c0-2.3-1.9-4-4.1-4s-4 1.7-4 4v6.7c-2.2.7-4.1 1.8-5.7 3.3l-5.8-3.3a4 4 0 00-5.5 1.4 4 4 0 001.4 5.6l5.8 3.4c-.5 2.2-.5 4.4 0 6.6l-5.8 3.4a4.1 4.1 0 002 7.6 4 4 0 002-.6l5.9-3.3a14.2 14.2 0 005.6 3.3v6.7c0 2.3 1.9 4 4.1 4s4-1.7 4-4v-6.7c2.1-.7 4-1.8 5.7-3.3l5.8 3.3a4 4 0 005.5-1.4 4 4 0 00-1.5-5.6Zm-22.6-1.4a6.1 6.1 0 013-11.4c1 0 2 .2 3 .8a6.1 6.1 0 012.3 8.4 6 6 0 01-8.3 2.2Zm166.6 103.4-5.8-3.4c.5-2.2.5-4.5 0-6.6l5.8-3.4a4 4 0 001.4-5.6 4 4 0 00-5.5-1.4l-5.8 3.3a14.2 14.2 0 00-5.6-3.3v-6.7c0-2.3-1.9-4-4.1-4s-4 1.7-4 4v6.7c-2.1.7-4.1 1.8-5.7 3.3l-5.8-3.3a4 4 0 00-5.5 1.4 4 4 0 001.5 5.6l5.7 3.4c-.5 2.2-.5 4.5 0 6.6l-5.8 3.4a4.1 4.1 0 002 7.6 4 4 0 002-.6l5.9-3.3a14.2 14.2 0 005.7 3.3v6.7c0 2.3 1.8 4 4 4s4-1.7 4-4v-6.7c2.1-.7 4-1.8 5.7-3.3l5.8 3.3a4 4 0 005.5-1.4 4 4 0 00-1.4-5.6Zm-22.6-1.4a6.1 6.1 0 013-11.4c1 0 2 .2 3 .8a6.1 6.1 0 012.3 8.4 6 6 0 01-8.3 2.2Zm-207.4 59.4-5.8-3.4c.5-2.2.5-4.5 0-6.6l5.8-3.4a4 4 0 001.4-5.6 4 4 0 00-5.5-1.4l-5.8 3.3a14.2 14.2 0 00-5.6-3.3v-6.7c0-2.3-1.9-4-4.1-4s-4 1.7-4 4v6.7c-2.2.7-4.1 1.8-5.7 3.3l-5.8-3.3a4 4 0 00-5.5 1.4 4 4 0 001.4 5.6l5.8 3.4c-.5 2.2-.5 4.5 0 6.6l-5.8 3.4a4.1 4.1 0 002 7.6 4 4 0 002-.6l5.9-3.3a14.2 14.2 0 005.6 3.3v6.7c0 2.3 1.9 4 4.1 4s4-1.7 4-4v-6.7c2.1-.7 4-1.8 5.7-3.3l5.8 3.3a4 4 0 005.5-1.4 4 4 0 00-1.5-5.6Zm-22.6-1.4a6.1 6.1 0 013-11.4c1 0 2 .2 3 .8a6.1 6.1 0 012.3 8.4 6 6 0 01-8.3 2.2Z"/></g></svg>