<svg xmlns="http://www.w3.org/2000/svg" xmlns:xlink="http://www.w3.org/1999/xlink" viewBox="0 0 512 512"><defs><clipPath id="ho"><path fill="none" d="M245.7 256.9H74.8v139.6h110.9l27.2-52.9 32.8-36.8v-49.9z"/></clipPath><symbol id="a" viewBox="0 0 138 96"><g><path fill="none" stroke="#000" stroke-linecap="round" stroke-miterlimit="10" stroke-width="12" d="M105.2 10.8A15.5 15.5 0 11116.4 37H6m54.7 48.2A15.5 15.5 0 1071.9 59H6.6"/></g></symbol><style>.ie,.if,.ig,.ih{fill:none;}.if{stroke-width:12px;}.if,.ig{stroke-linecap:round;}.if,.ig,.ih{stroke:#000;}.if,.ih{stroke-miterlimit:10;}.ig{stroke-linejoin:round;}.ig,.ih{stroke-width:9px;}.ii{clip-path:url(#ho);}</style></defs><g id="hn"><g clip-path="url(#ho)"><path fill="none" stroke="#000" stroke-linecap="round" stroke-linejoin="round" stroke-width="9" d="M245.7 309.6c-13.8 0-26.3-14.7-32.8-27a2.9 2.9 0 00-5.2 0c-6.4 12.3-19 27-32.8 27s-26.3-14.7-32.8-27a2.9 2.9 0 00-5 0c-6.6 12.3-19.1 27-32.9 27H94.1v62c0 11.4 9 20.6 20.1 20.6h131.5v-82.6Z"/></g><g><path d="M378.5 160.6c.5-5.8-.4-10.5-2.2-10.6l-1.4-.2c-1.7-.2-3.6 4.2-4.3 10l-12.8 111.6c-.7 6 .2 11 2 11.3l3.6.4c1.9.1 3.8-4.7 4.4-10.6l10.7-112Z"/><path d="M427.8 167.4a44.2 44.2 0 00-40.8-47.3 46 46 0 00-41.5 17.3c-.7 0-1.4-.3-2.2-.4-18.7-2-35.4 10.7-37.2 28.4a32.3 32.3 0 0021.3 33 20.3 20.3 0 00-2.8 8.4c-1.3 11.7 7.9 22.3 20.4 23.6 5.6.6 11-.9 15.3-3.7a35 35 0 0025.4 15.2c18.7 2 35.4-10.8 37.2-28.4.9-8.1-1.7-15.8-6.4-22a41 41 0 0011.3-24.1Z"/></g><path fill="none" stroke="#000" stroke-miterlimit="10" stroke-width="9" d="M402.3 369.8v-66.4c0-12.3-8.9-22.4-19.8-22.4h-62.6a120 120 0 00-74.2 26.3 143.6 143.6 0 00-42.2 54.8l-13.4 30h192.4c11 0 19.8-10 19.8-22.3Z"/><use xlink:href="#a" width="138" height="96" transform="translate(99 146)"/></g></svg>