<svg xmlns="http://www.w3.org/2000/svg" xmlns:xlink="http://www.w3.org/1999/xlink" viewBox="0 0 512 512"><defs><clipPath id="hp"><path fill="none" d="M245.7 256.9H74.8v139.6h110.9l27.2-52.9 32.8-36.8v-49.9z"/></clipPath><symbol id="a" viewBox="0 0 138 96"><g><path fill="none" stroke="#000" stroke-linecap="round" stroke-miterlimit="10" stroke-width="12" d="M105.2 10.8A15.5 15.5 0 11116.4 37H6m54.7 48.2A15.5 15.5 0 1071.9 59H6.6"/></g></symbol><style>.ie,.if,.ig,.ih{fill:none;}.if{stroke-width:12px;}.if,.ig{stroke-linecap:round;}.if,.ig,.ih{stroke:#000;}.if,.ih{stroke-miterlimit:10;}.ig{stroke-linejoin:round;}.ig,.ih{stroke-width:9px;}.ii{clip-path:url(#hp);}</style></defs><g id="ho"><g clip-path="url(#hp)"><path fill="none" stroke="#000" stroke-linecap="round" stroke-linejoin="round" stroke-width="9" d="M245.7 309.6c-13.8 0-26.3-14.7-32.8-27a2.9 2.9 0 00-5.2 0c-6.4 12.3-19 27-32.8 27s-26.3-14.7-32.8-27a2.9 2.9 0 00-5 0c-6.6 12.3-19.1 27-32.9 27H94.1v62c0 11.4 9 20.6 20.1 20.6h131.5v-82.6Z"/></g><g><path d="M353.4 158.3c-.8-5.8-2.9-10.2-4.6-10l-1.4.2c-1.7.3-2.6 5-1.8 10.9l14 113.4c.8 6.1 2.9 11 4.7 10.7l3.6-.5c1.8-.2 2.6-5.5 1.7-11.5l-16.2-113.2Z"/><path d="M403 153.2c-3.2-23.4-26-39.7-50.8-36.4a46 46 0 00-36.3 26.7h-2.2a33.2 33.2 0 00-29.6 36.4 32.3 32.3 0 0028.5 27.1c-.8 2.8-1.1 5.7-.7 8.7a21.9 21.9 0 0025.3 18.2c5.7-.7 10.6-3.4 14-7.2a34.7 34.7 0 0028.3 8.8c18.7-2.5 31.9-18.8 29.6-36.3-1.1-8.1-5.4-15-11.5-20a40.8 40.8 0 005.3-26Z"/></g><path fill="none" stroke="#000" stroke-miterlimit="10" stroke-width="9" d="M402.3 369.8v-66.4c0-12.3-8.9-22.4-19.8-22.4h-62.6c-49.2 0-94.2 31.4-116.4 81.1l-13.4 30h192.4c11 0 19.8-10 19.8-22.3Z"/><use xlink:href="#a" width="138" height="96" transform="matrix(-1 0 0 1 237 146)"/></g></svg>