<svg xmlns="http://www.w3.org/2000/svg" xmlns:xlink="http://www.w3.org/1999/xlink" viewBox="0 0 512 512"><defs><symbol id="a" viewBox="0 0 342 234"><g><path fill="none" stroke="#000" stroke-linecap="round" stroke-miterlimit="10" stroke-width="18" d="M264.2 21.3A39.9 39.9 0 01333 49c0 22-18 40-40 40H9m139.2 123.7A39.9 39.9 0 00217 185c0-22-18-40-40-40H9"/></g></symbol><style>.id{fill:none;stroke:#000;stroke-linecap:round;stroke-miterlimit:10;stroke-width:18px;}</style></defs><g id="gh"><use xlink:href="#a" width="342" height="234" transform="translate(85 139)"/><path d="M366.4 344h-19v-45h-17.7v-12.6h3c5.2 0 9.3-1.1 12.4-3.4 2.8-2 4.6-5.5 5.5-10.2l.2-.8h15.6v72Zm63.9-9.8c-5.5 6.6-12.7 9.8-21.9 9.8s-16.4-3.3-21.9-9.8c-5.4-6.5-8.1-15.3-8.1-26.4s2.7-19.7 8.1-26.1c5.3-6.5 12.6-9.7 21.9-9.7s16.4 3.2 21.9 9.7c5.3 6.5 8 15.2 8 26.1s-2.7 20-8 26.4Zm-21.9-4.2c8.4 0 12.6-7.3 12.6-22s-4.2-22-12.6-22-12.7 7.3-12.7 22 4.2 22 12.7 22Z"/></g></svg>