<svg xmlns="http://www.w3.org/2000/svg" viewBox="0 0 64 64"><defs><clipPath id="a"><path fill="none" d="M26.5 44.5a2 2 0 0 1-1.83-2.81l1.33-3c2.53-5.69 7.65-9.19 13.35-9.19H16v15z"/></clipPath></defs><g clip-path="url(#a)"><path d="M32 34.33c-1.36 0-2.61-1.46-3.25-2.67a.28.28 0 0 0-.5 0c-.64 1.21-1.89 2.67-3.25 2.67s-2.61-1.46-3.25-2.67a.28.28 0 0 0-.5 0c-.64 1.21-1.89 2.67-3.25 2.67h-1v6.13a2 2 0 0 0 2 2h13z"/></g><path d="M42.78 19.79c-.08-.68-.27-1.21-.45-1.19h-.14c-.17 0-.26.58-.19 1.26l1.3 13.4c.07.71.28 1.29.46 1.27h.35c.18 0 .27-.62.18-1.34z"/><path d="M47.67 19.23a4.36 4.36 0 0 0-4.92-3.74A4.54 4.54 0 0 0 39.09 18h-.22a3.27 3.27 0 0 0-3 3.51 3.18 3.18 0 0 0 2.74 2.76 2.06 2.06 0 0 0-.1.86A2.18 2.18 0 0 0 41 27a2.3 2.3 0 0 0 1.41-.68 3.4 3.4 0 0 0 2.77.95 3.27 3.27 0 0 0 3-3.51 3 3 0 0 0-1.08-2 4 4 0 0 0 .57-2.53zm-.17 21.05v-6.56a2.1 2.1 0 0 0-2-2.22h-6.15c-4.87 0-9.33 3.1-11.52 8l-1.33 3h19a2.1 2.1 0 0 0 2-2.22z"/><path fill="none" stroke="#000" stroke-linecap="round" stroke-linejoin="round" stroke-width="2" d="M19.82 17.68a2.22 2.22 0 1 0-1.6 3.76H34m-7.73 6.88a2.22 2.22 0 1 1-1.6-3.76H34"/></svg>