<svg xmlns="http://www.w3.org/2000/svg" viewBox="0 0 512 512"><g id="et"><path fill="none" stroke="#000" stroke-linecap="round" stroke-linejoin="round" stroke-width="24" d="M148 376V136"/><path d="m239.7 154.7-22.8-18a6.4 6.4 0 00-9.5 1.8l-41 71c-2 3.4-.5 7.7 3.1 9.2l27 10.7c3 1.2 6.3 0 8-2.7l36.8-63.8c1.5-2.8.9-6.3-1.6-8.2Zm45.5 55.9-17.4-23.3a6.4 6.4 0 00-9.6-.7L213 231.8a6.4 6.4 0 00.7 9.7l23.3 17.3c2.5 2 6 1.6 8.3-.6l39.3-39.3a6.4 6.4 0 00.6-8.3Zm25.3 60.6-10.7-27a6.4 6.4 0 00-9.1-3.2L251 263.9a6.4 6.4 0 00-1.9 9.5l18 22.8c2 2.5 5.5 3.1 8.2 1.5l32.4-18.6c2.8-1.6 4-5 2.7-8Z"/></g></svg>