<svg xmlns="http://www.w3.org/2000/svg" viewBox="0 0 64 64"><path fill="none" stroke="#000" stroke-linecap="round" stroke-linejoin="round" stroke-width="3" d="M43.64 20a5 5 0 1 1 3.61 8.46h-35.5M29.14 44a5 5 0 1 0 3.61-8.46h-21"/><path d="M46.08 35.46a4.08 4.08 0 0 1 2.92-1 4.08 4.08 0 0 1 2.92 1 3.44 3.44 0 0 1 1 2.64V42a3.49 3.49 0 0 1-1 2.66 4.12 4.12 0 0 1-2.92 1 4.12 4.12 0 0 1-2.92-1A3.46 3.46 0 0 1 45 42v-3.9a3.41 3.41 0 0 1 1.08-2.64zm4.46 1.26a2.66 2.66 0 0 0-3.08 0 1.78 1.78 0 0 0-.54 1.38V42a1.78 1.78 0 0 0 .54 1.38 2.67 2.67 0 0 0 3.08 0 1.78 1.78 0 0 0 .54-1.38v-3.9a1.78 1.78 0 0 0-.54-1.38z"/></svg>