<svg xmlns="http://www.w3.org/2000/svg" xmlns:xlink="http://www.w3.org/1999/xlink" viewBox="0 0 512 512"><defs><symbol id="a" viewBox="0 0 342 234"><g><path fill="none" stroke="#000" stroke-linecap="round" stroke-miterlimit="10" stroke-width="18" d="M264.2 21.3A39.9 39.9 0 01333 49c0 22-18 40-40 40H9m139.2 123.7A39.9 39.9 0 00217 185c0-22-18-40-40-40H9"/></g></symbol><style>.id{fill:none;stroke:#000;stroke-linecap:round;stroke-miterlimit:10;stroke-width:18px;}</style></defs><g id="ga"><use xlink:href="#a" width="342" height="234" transform="translate(85 139)"/><path d="M397.5 305.2c4.6.8 8.2 2.7 10.8 5.7 2.6 3 3.8 6.7 3.8 11.2a20 20 0 01-7.2 15.7c-4.9 4.2-11.6 6.2-20.3 6.2s-16-2.2-21-6.7a26.2 26.2 0 01-7.8-18.6h16.5c.4 7.8 4.3 11.7 11.6 11.7 3.3 0 5.9-.8 7.8-2.4 1.9-1.6 2.8-3.8 2.8-6.5s-1-5-3-6.5a14 14 0 00-8.4-2.2h-4.8v-12h5c3 0 5.4-.6 7-2 1.7-1.3 2.5-3.2 2.5-5.7s-.8-4.5-2.5-5.8c-1.6-1.4-4-2.1-7-2.1s-5.1.7-6.7 2.2c-1.5 1.5-2.4 3.9-2.7 7.2h-16c.7-15 9.4-22.6 26-22.6 8 0 14.1 1.7 18.5 5.2a16 16 0 016.7 13.3c0 3.6-1 6.7-3 9.3a15 15 0 01-8.6 5.4Z"/></g></svg>