<svg xmlns="http://www.w3.org/2000/svg" xmlns:xlink="http://www.w3.org/1999/xlink" viewBox="0 0 64 64">
	<defs>
		<linearGradient id="a" x1="20.51" y1="23.85" x2="37.02" y2="52.45" gradientUnits="userSpaceOnUse">
			<stop offset="0" stop-color="#f87171"/>
			<stop offset="0.45" stop-color="#f87171"/>
			<stop offset="1" stop-color="#dc2626"/>
		</linearGradient>
		<clipPath id="b">
			<path d="M44.59,42.78,38.77,32.12,33,21.62a1.18,1.18,0,0,0-2.08,0l-5.73,10.5L19.41,42.78a1.19,1.19,0,0,0,1.05,1.76H43.54A1.19,1.19,0,0,0,44.59,42.78Z" fill="none" stroke="#ef4444" stroke-linecap="round" stroke-linejoin="round" stroke-width="0.5"/>
		</clipPath>
		<linearGradient id="c" x1="21.75" y1="14.25" x2="42.25" y2="49.75" gradientUnits="userSpaceOnUse">
			<stop offset="0" stop-color="#f3f7fe"/>
			<stop offset="0.45" stop-color="#f3f7fe"/>
			<stop offset="1" stop-color="#deeafb"/>
		</linearGradient>
		<linearGradient id="d" x1="34.4" y1="39.33" x2="39.67" y2="48.46" gradientUnits="userSpaceOnUse">
			<stop offset="0" stop-color="#51cf66"/>
			<stop offset="0.45" stop-color="#51cf66"/>
			<stop offset="1" stop-color="#37b24d"/>
		</linearGradient>
		<linearGradient id="e" x1="25.86" y1="136.93" x2="28.37" y2="141.27" gradientTransform="translate(8.89 -15.17) scale(1 0.34)" gradientUnits="userSpaceOnUse">
			<stop offset="0" stop-color="#b8bdc6"/>
			<stop offset="0.45" stop-color="#b8bdc6"/>
			<stop offset="1" stop-color="#a5aab2"/>
		</linearGradient>
		<linearGradient id="f" x1="36.12" y1="34.85" x2="36.88" y2="36.15" gradientTransform="matrix(1, 0, 0, 1, 0, 0)" xlink:href="#e"/>
		<linearGradient id="g" x1="24.62" y1="39.35" x2="25.38" y2="40.65" gradientTransform="matrix(1, 0, 0, 1, 0, 0)" xlink:href="#e"/>
		<linearGradient id="h" x1="10.29" y1="81.98" x2="13.34" y2="87.26" gradientTransform="translate(18.19 -47.62)" xlink:href="#e"/>
	</defs>
	<path d="M47.58,43,41,30.91,34.64,19.24a3,3,0,0,0-5.28,0L23,30.91,16.42,43a3,3,0,0,0,2.64,4.44H44.94A3,3,0,0,0,47.58,43Z" stroke="#ef4444" stroke-miterlimit="10" stroke-width="0.5" fill="url(#a)"/>
	<g clip-path="url(#b)">
		<rect x="17" y="17" width="30" height="30" fill="url(#c)"/>
		<polygon points="44.5 33.5 44.73 45.54 24.5 45.5 44.5 33.5" stroke="#40c057" stroke-linecap="round" stroke-miterlimit="10" stroke-width="0.5" fill="url(#d)"/>
		<rect x="34" y="31.81" width="4" height="1.37" rx="0.5" transform="translate(-11.6 23.18) rotate(-31)" stroke="#afb4bc" stroke-miterlimit="10" stroke-width="0.25" opacity="0.5" fill="url(#e)">
			<animateTransform attributeName="transform" additive="sum" type="translate" values="0 0; -8 0" dur="3s" repeatCount="indefinite"/>
			<animate attributeName="opacity" values="0; .5; .5; 0" dur="3s" keyTimes="0.0; 0.1; 0.9; 1.0" repeatCount="indefinite"/>
		</rect>
		<circle cx="36.5" cy="35.5" r="0.75" stroke="#afb4bc" stroke-miterlimit="10" stroke-width="0.25" fill="url(#f)">
			<animateTransform attributeName="transform" additive="sum" type="translate" values="0 0; -6 4" dur="3s" begin="-.5s" repeatCount="indefinite"/>
			<animate attributeName="opacity" values="0; 1; 1; 0" dur="3s" keyTimes="0.0; 0.1; 0.9; 1.0" begin="-.5s" repeatCount="indefinite"/>
		</circle>
		<circle cx="25" cy="40" r="0.75" stroke="#afb4bc" stroke-miterlimit="10" stroke-width="0.25" fill="url(#g)">
			<animateTransform attributeName="transform" additive="sum" type="translate" values="0 0; -6 4" dur="3s" begin="-1s" repeatCount="indefinite"/>
			<animate attributeName="opacity" values="0; 1; 1; 0" dur="3s" keyTimes="0.0; 0.1; 0.9; 1.0" begin="-1s" repeatCount="indefinite"/>
		</circle>
		<rect x="27.5" y="34.5" width="5" height="5" rx="1" transform="translate(-17.05 29.58) rotate(-42)" stroke="#afb4bc" stroke-miterlimit="10" stroke-width="0.25" fill="url(#h)">
			<animateTransform attributeName="transform" additive="sum" type="translate" values="15 2; -16 -2" dur="3s" repeatCount="indefinite"/>
			<animateTransform attributeName="transform" additive="sum" type="rotate" values="360 30 37; 0 30 37" dur="3s" repeatCount="indefinite"/>
		</rect>
	</g>
	<path d="M44.59,42.78,38.77,32.12,33,21.62a1.18,1.18,0,0,0-2.08,0l-5.73,10.5L19.41,42.78a1.19,1.19,0,0,0,1.05,1.76H43.54A1.19,1.19,0,0,0,44.59,42.78Z" fill="none" stroke="#ef4444" stroke-linecap="round" stroke-linejoin="round" stroke-width="0.5"/>
</svg>
