<svg xmlns="http://www.w3.org/2000/svg" xmlns:xlink="http://www.w3.org/1999/xlink" viewBox="0 0 64 64">
	<defs>
		<clipPath id="a">
			<polygon points="7.5 7.5 54.5 7.5 7.5 54.5 7.5 7.5" fill="none"/>
		</clipPath>
		<linearGradient id="b" x1="21.92" y1="18.75" x2="38.52" y2="47.52" gradientUnits="userSpaceOnUse">
			<stop offset="0" stop-color="#86c3db"/>
			<stop offset="0.45" stop-color="#86c3db"/>
			<stop offset="1" stop-color="#5eafcf"/>
			<animateTransform attributeName="gradientTransform" type="rotate" values="5 32 32; -15 32 32; 5 32 32" dur="10s" repeatCount="indefinite"/>
		</linearGradient>
		<linearGradient id="c" x1="22.14" y1="36" x2="27.53" y2="45.32" gradientUnits="userSpaceOnUse">
			<stop offset="0" stop-color="#fde68a"/>
			<stop offset="0.45" stop-color="#fde68a"/>
			<stop offset="1" stop-color="#fde171"/>
		</linearGradient>
		<linearGradient id="d" x1="34.27" y1="28.99" x2="39.66" y2="38.32" xlink:href="#c"/>
		<linearGradient id="e" x1="43.47" y1="23.68" x2="48.86" y2="33" xlink:href="#c"/>
		<linearGradient id="f" x1="32.14" y1="36" x2="37.53" y2="45.32" xlink:href="#c"/>
		<linearGradient id="g" x1="44.27" y1="28.99" x2="49.66" y2="38.32" xlink:href="#c"/>
		<linearGradient id="h" x1="53.47" y1="23.68" x2="58.86" y2="33" xlink:href="#c"/>
	</defs>
	<g clip-path="url(#a)">
		<g>
			<path d="M46.66,36.2A16.66,16.66,0,0,1,29.88,19.65a16.29,16.29,0,0,1,.55-4.15A16.56,16.56,0,1,0,48.5,36.1C47.89,36.16,47.28,36.2,46.66,36.2Z" stroke="#72b9d5" stroke-linecap="round" stroke-linejoin="round" stroke-width="0.5" fill="url(#b)"/>
			<animateTransform attributeName="transform" type="rotate" values="-5 32 32;15 32 32;-5 32 32" dur="10s" repeatCount="indefinite"/>
		</g>
	</g>
	<g>
		<line x1="24.89" y1="45.11" x2="28.08" y2="41.92" fill="none" stroke-linecap="round" stroke-miterlimit="10" stroke-width="3" stroke="url(#c)"/>
		<line x1="33.03" y1="36.97" x2="40.45" y2="29.55" fill="none" stroke-linecap="round" stroke-miterlimit="10" stroke-width="3" stroke-dasharray="7 7" stroke="url(#d)"/>
		<line x1="42.92" y1="27.08" x2="46.11" y2="23.89" fill="none" stroke-linecap="round" stroke-miterlimit="10" stroke-width="3" stroke="url(#e)"/>
		<animateTransform attributeName="transform" type="translate" values="-2 2; 0 0; -2 2" dur="3s" repeatCount="indefinite"/>
	</g>
	<g>
		<line x1="34.89" y1="45.11" x2="38.08" y2="41.92" fill="none" stroke-linecap="round" stroke-miterlimit="10" stroke-width="3" stroke="url(#f)"/>
		<line x1="43.03" y1="36.97" x2="50.45" y2="29.55" fill="none" stroke-linecap="round" stroke-miterlimit="10" stroke-width="3" stroke-dasharray="7 7" stroke="url(#g)"/>
		<line x1="52.92" y1="27.08" x2="56.11" y2="23.89" fill="none" stroke-linecap="round" stroke-miterlimit="10" stroke-width="3" stroke="url(#h)"/>
		<animateTransform attributeName="transform" type="translate" values="-2 2; 0 0; -2 2" dur="3s" begin="-2.5s" repeatCount="indefinite"/>
	</g>
</svg>
