<svg xmlns="http://www.w3.org/2000/svg" viewBox="0 0 64 64">
	<defs>
		<linearGradient id="a" x1="23.61" y1="21.85" x2="37.27" y2="45.52" gradientUnits="userSpaceOnUse">
			<stop offset="0" stop-color="#f3f7fe"/>
			<stop offset="0.45" stop-color="#f3f7fe"/>
			<stop offset="1" stop-color="#deeafb"/>
		</linearGradient>
		<linearGradient id="b" x1="38.58" y1="19.34" x2="53.17" y2="44.59" gradientUnits="userSpaceOnUse">
			<stop offset="0" stop-color="#d4d7dd"/>
			<stop offset="0.45" stop-color="#d4d7dd"/>
			<stop offset="1" stop-color="#bec1c6"/>
		</linearGradient>
		<clipPath id="c">
			<path d="M21,32H43V48H21Z" fill="none">
				<animate attributeName="d" values="M21,32H43V48H21Z; M21,28H43V48H21Z; M21,32H43V48H21Z" dur="3s" repeatCount="indefinite"/>
			</path>
		</clipPath>
		<linearGradient id="d" x1="23.61" y1="21.85" x2="37.27" y2="45.52" gradientUnits="userSpaceOnUse">
			<stop offset="0" stop-color="#3392d6"/>
			<stop offset="0.45" stop-color="#3392d6"/>
			<stop offset="1" stop-color="#2477b2"/>
		</linearGradient>
	</defs>
	<path d="M32,17c-6.09,9-10,14.62-10,20.09a10,10,0,0,0,20,0C42,31.62,38.09,26,32,17Z" stroke="#e6effc" stroke-miterlimit="10" stroke-width="0.5" fill="url(#a)"/>
	<path d="M44,17h4V47H44m1-15h3m-2,7h2M46,24h2" fill="none" stroke-linecap="square" stroke-linejoin="round" stroke="url(#b)"/>
	<g clip-path="url(#c)">
		<path d="M32,17c-6.09,9-10,14.62-10,20.09a10,10,0,0,0,20,0C42,31.62,38.09,26,32,17Z" stroke="#2885c7" stroke-miterlimit="10" stroke-width="0.5" fill="url(#d)"/>
	</g>
</svg>
