<svg xmlns="http://www.w3.org/2000/svg" viewBox="0 0 64 64">
	<defs>
		<linearGradient id="a" x1="23.73" y1="19.16" x2="39.18" y2="45.93" gradientUnits="userSpaceOnUse">
			<stop offset="0" stop-color="#515a69" stop-opacity="0.05"/>
			<stop offset="0.45" stop-color="#6b7280" stop-opacity="0.05"/>
			<stop offset="1" stop-color="#384354" stop-opacity="0.1"/>
		</linearGradient>
		<linearGradient id="b" x1="23.48" y1="18.73" x2="39.43" y2="46.36" gradientUnits="userSpaceOnUse">
			<stop offset="0" stop-color="#d4d7dd"/>
			<stop offset="0.45" stop-color="#d4d7dd"/>
			<stop offset="1" stop-color="#bec1c6"/>
		</linearGradient>
	</defs>
	<circle cx="32" cy="42" r="4.5" fill="#ef4444"/>
	<path d="M32,27V42" fill="none" stroke="#ef4444" stroke-linecap="round" stroke-miterlimit="10" stroke-width="3">
		<animateTransform attributeName="transform" type="translate" values="0 0; 0 1; 0 0" dur="1s" repeatCount="indefinite"/>
	</path>
	<path d="M39,41.9a7,7,0,1,1-14,0,7.12,7.12,0,0,1,3-5.83v-17a4,4,0,1,1,8,0v17A7.12,7.12,0,0,1,39,41.9ZM32.5,25H36m-3.5-4H36m-3.5,8H36" stroke-linecap="round" stroke-linejoin="round" fill="url(#a)" stroke="url(#b)"/>
	<path d="M42.44,35A2,2,0,1,1,43,33.53,2,2,0,0,1,42.44,35Zm-2-.79a.89.89,0,0,0,1.26,0,.88.88,0,0,0,0-1.25.83.83,0,0,0-.63-.27.86.86,0,0,0-.63.27.89.89,0,0,0-.26.63A.85.85,0,0,0,40.39,34.16Z" fill="#374151"/>
	<path d="M45,32.29a3.68,3.68,0,0,1,2.61-.85c1.75,0,2.87.68,3.35,2.06a.37.37,0,0,1-.26.54l-.67.23a.46.46,0,0,1-.34,0,.49.49,0,0,1-.19-.28,1.79,1.79,0,0,0-1.89-1.13,2.13,2.13,0,0,0-1.46.45,1.61,1.61,0,0,0-.52,1.3v2.73a1.62,1.62,0,0,0,.52,1.3,2.08,2.08,0,0,0,1.46.46A1.78,1.78,0,0,0,49.49,38a.53.53,0,0,1,.21-.29.5.5,0,0,1,.33,0l.66.24a.38.38,0,0,1,.28.54c-.49,1.38-1.61,2.07-3.37,2.07A3.68,3.68,0,0,1,45,39.71a3.09,3.09,0,0,1-.92-2.37v-2.7A3.07,3.07,0,0,1,45,32.29Z" fill="#374151"/>
</svg>
