<svg xmlns="http://www.w3.org/2000/svg" xmlns:xlink="http://www.w3.org/1999/xlink" viewBox="0 0 64 64">
	<defs>
		<linearGradient id="a" x1="13.58" y1="15.57" x2="24.15" y2="33.87" gradientUnits="userSpaceOnUse">
			<stop offset="0" stop-color="#86c3db"/>
			<stop offset="0.45" stop-color="#86c3db"/>
			<stop offset="1" stop-color="#5eafcf"/>
		</linearGradient>
		<linearGradient id="b" x1="40.76" y1="23" x2="50.83" y2="40.46" gradientUnits="userSpaceOnUse">
			<stop offset="0" stop-color="#9ca3af"/>
			<stop offset="0.45" stop-color="#9ca3af"/>
			<stop offset="1" stop-color="#6b7280"/>
		</linearGradient>
		<linearGradient id="c" x1="22.56" y1="21.96" x2="39.2" y2="50.8" gradientUnits="userSpaceOnUse">
			<stop offset="0" stop-color="#f3f7fe"/>
			<stop offset="0.45" stop-color="#f3f7fe"/>
			<stop offset="1" stop-color="#deeafb"/>
		</linearGradient>
		<linearGradient id="d" x1="22.66" y1="42.68" x2="25.34" y2="47.32" xlink:href="#a"/>
		<linearGradient id="e" x1="29.66" y1="42.68" x2="32.34" y2="47.32" xlink:href="#a"/>
		<linearGradient id="f" x1="36.66" y1="42.68" x2="39.34" y2="47.32" xlink:href="#a"/>
		<linearGradient id="g" x1="26.74" y1="37.88" x2="35.76" y2="53.52" gradientUnits="userSpaceOnUse">
			<stop offset="0" stop-color="#f7b23b"/>
			<stop offset="0.45" stop-color="#f7b23b"/>
			<stop offset="1" stop-color="#f59e0b"/>
		</linearGradient>
	</defs>
	<path d="M29.33,26.68A10.61,10.61,0,0,1,18.65,16.14,10.5,10.5,0,0,1,19,13.5,10.54,10.54,0,1,0,30.5,26.61,11.48,11.48,0,0,1,29.33,26.68Z" stroke="#72b9d5" stroke-linecap="round" stroke-linejoin="round" stroke-width="0.5" fill="url(#a)">
		<animateTransform attributeName="transform" type="rotate" values="-10 19.22 24.293; 10 19.22 24.293; -10 19.22 24.293" dur="10s" repeatCount="indefinite"/>
	</path>
	<path d="M34.23,33.45a4.05,4.05,0,0,0,4.05,4H54.79a4.34,4.34,0,0,0,.81-8.61,3.52,3.52,0,0,0,.06-.66,4.06,4.06,0,0,0-6.13-3.48,6.08,6.08,0,0,0-11.25,3.19,6.34,6.34,0,0,0,.18,1.46h-.18A4.05,4.05,0,0,0,34.23,33.45Z" stroke="#848b98" stroke-miterlimit="10" stroke-width="0.5" fill="url(#b)">
		<animateTransform attributeName="transform" type="translate" values="-2.1 0; 2.1 0; -2.1 0" dur="7s" repeatCount="indefinite"/>
	</path>
	<path d="M46.5,31.5l-.32,0a10.49,10.49,0,0,0-19.11-8,7,7,0,0,0-10.57,6,7.21,7.21,0,0,0,.1,1.14A7.5,7.5,0,0,0,18,45.5a4.19,4.19,0,0,0,.5,0v0h28a7,7,0,0,0,0-14Z" stroke="#e6effc" stroke-miterlimit="10" stroke-width="0.5" fill="url(#c)">
		<animateTransform attributeName="transform" type="translate" values="-3 0; 3 0; -3 0" dur="7s" repeatCount="indefinite"/>
	</path>
	<path d="M26.45,45.82l-.73-.41a1.59,1.59,0,0,0,0-.81l.73-.42a.49.49,0,0,0,.18-.68.51.51,0,0,0-.69-.18l-.72.41a1.66,1.66,0,0,0-.71-.41V42.5a.51.51,0,0,0-1,0v.83a1.74,1.74,0,0,0-.71.4l-.72-.41a.51.51,0,0,0-.69.18.49.49,0,0,0,.18.68l.73.41a1.59,1.59,0,0,0,0,.81l-.73.42a.49.49,0,0,0-.18.68.5.5,0,0,0,.44.25.47.47,0,0,0,.25-.07l.72-.41a2,2,0,0,0,.33.25,1.5,1.5,0,0,0,.38.15v.83a.51.51,0,0,0,1,0v-.83a1.74,1.74,0,0,0,.71-.4l.72.41a.47.47,0,0,0,.25.07.5.5,0,0,0,.44-.25A.49.49,0,0,0,26.45,45.82Zm-2.83-.17a.75.75,0,0,1,.38-1.4.75.75,0,0,1,.38.1.75.75,0,0,1,.28,1A.77.77,0,0,1,23.62,45.65Z" fill="url(#d)">
		<animateTransform attributeName="transform" type="translate" additive="sum" values="1 -6; -1 12" begin="-2.7s" dur="4s" repeatCount="indefinite"/>
		<animateTransform attributeName="transform" type="rotate" additive="sum" values="-45 24 45; 45 24 45" begin="-2.7s" dur="4s" repeatCount="indefinite"/>
		<animate attributeName="opacity" values="0;1;1;1;0" begin="-2.7s" dur="4s" repeatCount="indefinite"/>
	</path>
	<path d="M33.45,45.82l-.73-.41a1.59,1.59,0,0,0,0-.81l.73-.42a.49.49,0,0,0,.18-.68.51.51,0,0,0-.69-.18l-.72.41a1.66,1.66,0,0,0-.71-.41V42.5a.51.51,0,0,0-1,0v.83a1.74,1.74,0,0,0-.71.4l-.72-.41a.51.51,0,0,0-.69.18.49.49,0,0,0,.18.68l.73.41a1.59,1.59,0,0,0,0,.81l-.73.42a.49.49,0,0,0-.18.68.5.5,0,0,0,.44.25.47.47,0,0,0,.25-.07l.72-.41a2,2,0,0,0,.33.25,1.5,1.5,0,0,0,.38.15v.83a.51.51,0,0,0,1,0v-.83a1.74,1.74,0,0,0,.71-.4l.72.41a.47.47,0,0,0,.25.07.5.5,0,0,0,.44-.25A.49.49,0,0,0,33.45,45.82Zm-2.83-.17a.75.75,0,0,1,.38-1.4.75.75,0,0,1,.38.1.75.75,0,0,1,.28,1A.77.77,0,0,1,30.62,45.65Z" fill="url(#e)">
		<animateTransform attributeName="transform" type="translate" additive="sum" values="-1 -6; 1 12" dur="4s" repeatCount="indefinite"/>
		<animateTransform attributeName="transform" type="rotate" additive="sum" values="-45 31 45; 45 31 45" dur="4s" repeatCount="indefinite"/>
		<animate attributeName="opacity" values="0;1;1;1;0" dur="4s" repeatCount="indefinite"/>
	</path>
	<path d="M40.45,45.82l-.73-.41a1.59,1.59,0,0,0,0-.81l.73-.42a.49.49,0,0,0,.18-.68.51.51,0,0,0-.69-.18l-.72.41a1.66,1.66,0,0,0-.71-.41V42.5a.51.51,0,0,0-1,0v.83a1.74,1.74,0,0,0-.71.4l-.72-.41a.51.51,0,0,0-.69.18.49.49,0,0,0,.18.68l.73.41a1.59,1.59,0,0,0,0,.81l-.73.42a.49.49,0,0,0-.18.68.5.5,0,0,0,.44.25.47.47,0,0,0,.25-.07l.72-.41a2,2,0,0,0,.33.25,1.5,1.5,0,0,0,.38.15v.83a.51.51,0,0,0,1,0v-.83a1.74,1.74,0,0,0,.71-.4l.72.41a.47.47,0,0,0,.25.07.5.5,0,0,0,.44-.25A.49.49,0,0,0,40.45,45.82Zm-2.83-.17a.75.75,0,0,1,.38-1.4.75.75,0,0,1,.38.1.75.75,0,0,1,.28,1A.77.77,0,0,1,37.62,45.65Z" fill="url(#f)">
		<animateTransform attributeName="transform" type="translate" additive="sum" values="1 -6; -1 12" begin="-1.3s" dur="4s" repeatCount="indefinite"/>
		<animateTransform attributeName="transform" type="rotate" additive="sum" values="-45 38 45; 45 38 45" begin="-1.3s" dur="4s" repeatCount="indefinite"/>
		<animate attributeName="opacity" values="0;1;1;1;0" begin="-1.3s" dur="4s" repeatCount="indefinite"/>
	</path>
	<polygon points="30 36 26 48 30 48 28 58 38 44 32 44 36 36 30 36" stroke="#f6a823" stroke-miterlimit="10" stroke-width="0.5" fill="url(#g)">
		<animate attributeName="opacity" values="1; 1; 1; 1; 1; 1; 0.1; 1; 0.1; 1; 1; 0.1; 1; 0.1; 1" dur="2s" repeatCount="indefinite"/>
	</polygon>
</svg>
