<svg xmlns="http://www.w3.org/2000/svg" viewBox="0 0 64 64">
	<defs>
		<linearGradient id="a" x1="25.38" y1="25.81" x2="38.8" y2="49.04" gradientUnits="userSpaceOnUse">
			<stop offset="0" stop-color="#3392d6"/>
			<stop offset="0.45" stop-color="#3392d6"/>
			<stop offset="1" stop-color="#2477b2"/>
		</linearGradient>
	</defs>
	<path d="M47,34.33H46c-1.36,0-2.61-1.46-3.25-2.67a.28.28,0,0,0-.5,0c-.64,1.21-1.89,2.67-3.25,2.67s-2.61-1.46-3.25-2.67a.28.28,0,0,0-.5,0c-.64,1.21-1.89,2.67-3.25,2.67s-2.61-1.46-3.25-2.67a.28.28,0,0,0-.5,0c-.64,1.21-1.89,2.67-3.25,2.67s-2.61-1.46-3.25-2.67a.28.28,0,0,0-.5,0c-.64,1.21-1.89,2.67-3.25,2.67H17v6.13a2,2,0,0,0,2,2H45a2,2,0,0,0,2-2Z" stroke="#2885c7" stroke-linecap="round" stroke-linejoin="round" stroke-width="0.5" fill="url(#a)">
		<animate attributeName="d" calcMode="spline" keySplines="0.5 0 0.5 1; 0.5 0 0.5 1" dur="3s" repeatCount="indefinite" values="
		M47,34.33H46c-1.36,0-2.61-1.46-3.25-2.67a.28.28,0,0,0-.5,0c-.64,1.21-1.89,2.67-3.25,2.67s-2.61-1.46-3.25-2.67a.28.28,0,0,0-.5,0c-.64,1.21-1.89,2.67-3.25,2.67s-2.61-1.46-3.25-2.67a.28.28,0,0,0-.5,0c-.64,1.21-1.89,2.67-3.25,2.67s-2.61-1.46-3.25-2.67a.28.28,0,0,0-.5,0c-.64,1.21-1.89,2.67-3.25,2.67H17v6.13a2,2,0,0,0,2,2H45a2,2,0,0,0,2-2Z;
		M47,32.33H46c-1.36,0-2.61-1.46-3.25-2.67a.28.28,0,0,0-.5,0c-.64,1.21-1.89,2.67-3.25,2.67s-2.61-1.46-3.25-2.67a.28.28,0,0,0-.5,0c-.64,1.21-1.89,2.67-3.25,2.67s-2.61-1.46-3.25-2.67a.28.28,0,0,0-.5,0c-.64,1.21-1.89,2.67-3.25,2.67s-2.61-1.46-3.25-2.67a.28.28,0,0,0-.5,0c-.64,1.21-1.89,2.67-3.25,2.67H17v8.13a2,2,0,0,0,2,2H45a2,2,0,0,0,2-2Z;
		M47,34.33H46c-1.36,0-2.61-1.46-3.25-2.67a.28.28,0,0,0-.5,0c-.64,1.21-1.89,2.67-3.25,2.67s-2.61-1.46-3.25-2.67a.28.28,0,0,0-.5,0c-.64,1.21-1.89,2.67-3.25,2.67s-2.61-1.46-3.25-2.67a.28.28,0,0,0-.5,0c-.64,1.21-1.89,2.67-3.25,2.67s-2.61-1.46-3.25-2.67a.28.28,0,0,0-.5,0c-.64,1.21-1.89,2.67-3.25,2.67H17v6.13a2,2,0,0,0,2,2H45a2,2,0,0,0,2-2Z"/>
	</path>
	<polyline points="32 27.5 32 18.5 29 21.95 32 18.5 35 21.95" fill="none" stroke="#374151" stroke-linecap="round" stroke-linejoin="round" stroke-width="2">
		<animateTransform attributeName="transform" type="translate" values="0 2; 0 -3; 0 2" dur="3s" calcMode="spline" keySplines="0.5 0 0.5 1; 0.5 0 0.5 1" repeatCount="indefinite"/>
	</polyline>
</svg>
