<svg xmlns="http://www.w3.org/2000/svg" xmlns:xlink="http://www.w3.org/1999/xlink" viewBox="0 0 64 64">
	<defs>
		<linearGradient id="a" x1="24.67" y1="16.37" x2="36.74" y2="37.28" gradientUnits="userSpaceOnUse">
			<stop offset="0" stop-color="#86c3db"/>
			<stop offset="0.45" stop-color="#86c3db"/>
			<stop offset="1" stop-color="#5eafcf"/>
		</linearGradient>
		<linearGradient id="b" x1="34.97" y1="10.48" x2="39.03" y2="17.52" gradientUnits="userSpaceOnUse">
			<stop offset="0" stop-color="#fcd966"/>
			<stop offset="0.45" stop-color="#fcd966"/>
			<stop offset="1" stop-color="#fccd34"/>
		</linearGradient>
		<linearGradient id="c" x1="41.95" y1="20.45" x2="46.05" y2="27.55" xlink:href="#b"/>
		<linearGradient id="d" x1="34.92" y1="20.14" x2="37.08" y2="23.86" xlink:href="#b"/>
	</defs>
	<path d="M28.88,49.85a1.55,1.55,0,0,1,.88,1.5,1.84,1.84,0,0,1-.6,1.45,2.67,2.67,0,0,1-1.79.53,2.39,2.39,0,0,1-2.53-1.51.32.32,0,0,1,.23-.47l.67-.24a.34.34,0,0,1,.29,0,.46.46,0,0,1,.18.25,1,1,0,0,0,.38.51,1.43,1.43,0,0,0,.74.16c.6,0,.9-.24.9-.7s-.25-.71-.76-.71h-.71a.44.44,0,0,1-.29-.07.42.42,0,0,1-.08-.29v-.56a.41.41,0,0,1,.08-.28.39.39,0,0,1,.29-.08h.53a.9.9,0,0,0,.57-.17.57.57,0,0,0,.22-.49c0-.45-.26-.67-.79-.67a1.12,1.12,0,0,0-.68.16,1,1,0,0,0-.35.51.49.49,0,0,1-.18.24.41.41,0,0,1-.29,0l-.68-.24a.32.32,0,0,1-.22-.47,2.15,2.15,0,0,1,.88-1.13,2.89,2.89,0,0,1,1.6-.38,2.38,2.38,0,0,1,1.61.49,1.67,1.67,0,0,1,.58,1.35A1.49,1.49,0,0,1,28.88,49.85Z" fill="#374151"/>
	<path d="M33.21,50.25a.39.39,0,0,1,.08.29v.55a.39.39,0,0,1-.08.29.41.41,0,0,1-.28.08h-2a.42.42,0,0,1-.29-.08.39.39,0,0,1-.08-.29v-.55a.39.39,0,0,1,.08-.29.42.42,0,0,1,.29-.08h2A.41.41,0,0,1,33.21,50.25Z" fill="#374151"/>
	<path d="M36.77,49.14c1.61,0,2.42.69,2.42,2.08a1.91,1.91,0,0,1-.67,1.55,2.79,2.79,0,0,1-1.84.56,2.55,2.55,0,0,1-1.86-.63,2.32,2.32,0,0,1-.65-1.76V49.06a2.32,2.32,0,0,1,.65-1.76,2.57,2.57,0,0,1,1.86-.63,2.28,2.28,0,0,1,2.4,1.44.31.31,0,0,1,0,.29.46.46,0,0,1-.25.18l-.65.24a.35.35,0,0,1-.28,0,.53.53,0,0,1-.19-.25A1,1,0,0,0,36.69,48a.93.93,0,0,0-1.06,1v.19A5.3,5.3,0,0,1,36.77,49.14ZM36.68,52q1.05,0,1-.78a.69.69,0,0,0-.24-.58,1.3,1.3,0,0,0-.81-.19,3.12,3.12,0,0,0-1,.14V51C35.63,51.67,36,52,36.68,52Z" fill="#374151"/>
	<path d="M42.66,29.06A12,12,0,0,1,30.86,14,12,12,0,1,0,44,29,11.9,11.9,0,0,1,42.66,29.06Z" stroke="#72b9d5" stroke-linecap="round" stroke-linejoin="round" stroke-width="0.5" fill="url(#a)">
		<animateTransform attributeName="transform" type="rotate" values="-5 32 26; 15 32 26; -5 32 26" dur="10s" repeatCount="indefinite"/>
	</path>
	<path d="M33.59,12l1.25,2a.62.62,0,0,1,0,.48l-.77,2.26a.57.57,0,0,0,.84.67l2-1.25a.62.62,0,0,1,.48-.05l2.26.77a.57.57,0,0,0,.67-.84l-1.25-2a.62.62,0,0,1,0-.48l.77-2.26a.57.57,0,0,0-.84-.67l-2,1.25a.62.62,0,0,1-.48.05l-2.26-.77A.57.57,0,0,0,33.59,12Z" stroke="#fcd34d" stroke-linecap="round" stroke-linejoin="round" stroke-width="0.5" fill="url(#b)">
		<animate attributeName="opacity" values="1; 0; 1" dur="3s" repeatCount="indefinite"/>
	</path>
	<path d="M40.54,25.69l2.31.06a.56.56,0,0,1,.42.21l1.43,1.83a.56.56,0,0,0,1-.33l.06-2.31a.56.56,0,0,1,.21-.42l1.83-1.43a.56.56,0,0,0-.33-1l-2.31-.06a.56.56,0,0,1-.42-.21L43.3,20.21a.56.56,0,0,0-1,.33l-.06,2.31a.56.56,0,0,1-.21.42L40.21,24.7A.56.56,0,0,0,40.54,25.69Z" stroke="#fcd34d" stroke-linecap="round" stroke-linejoin="round" stroke-width="0.5" fill="url(#c)">
		<animate attributeName="opacity" values="1; 0; 1" dur="3s" begin="-1s" repeatCount="indefinite"/>
	</path>
	<path d="M33.62,21.43l1.11,1a.36.36,0,0,1,.12.28l0,1.47a.35.35,0,0,0,.62.24l1-1.11a.36.36,0,0,1,.28-.12l1.47,0a.35.35,0,0,0,.24-.62l-1.11-1a.36.36,0,0,1-.12-.28l0-1.47a.35.35,0,0,0-.62-.24l-1,1.11a.36.36,0,0,1-.28.12l-1.47,0A.35.35,0,0,0,33.62,21.43Z" stroke="#fcd34d" stroke-linecap="round" stroke-linejoin="round" stroke-width="0.5" fill="url(#d)">
		<animate attributeName="opacity" values="1; 0; 1" dur="3s" begin="-2s" repeatCount="indefinite"/>
	</path>
</svg>
