<svg xmlns="http://www.w3.org/2000/svg" viewBox="0 0 64 64">
	<defs>
		<linearGradient id="a" x1="26.75" y1="22.91" x2="37.25" y2="41.09" gradientUnits="userSpaceOnUse">
			<stop offset="0" stop-color="#fbbf24"/>
			<stop offset="0.45" stop-color="#fbbf24"/>
			<stop offset="1" stop-color="#f59e0b"/>
		</linearGradient>
	</defs>
	<circle cx="32" cy="32" r="10.5" stroke="#f8af18" stroke-miterlimit="10" stroke-width="0.5" fill="url(#a)"/>
	<path d="M32,15.71V9.5m0,45V48.29M43.52,20.48l4.39-4.39M16.09,47.91l4.39-4.39m0-23-4.39-4.39M47.91,47.91l-4.39-4.39M15.71,32H9.5m45,0H48.29" fill="none" stroke="#fbbf24" stroke-linecap="round" stroke-miterlimit="10" stroke-width="3">
		<animateTransform attributeName="transform" dur="45s" values="0 32 32; 360 32 32" repeatCount="indefinite" type="rotate"/>
	</path>
	<rect x="33.5" y="33.5" width="21" height="21" rx="6" fill="#ff3c00" stroke="#fff" stroke-miterlimit="10" stroke-width="2"/>
	<path d="M43.89,45a3.21,3.21,0,0,1-2.18-.63A2.38,2.38,0,0,1,41,42.53a2.25,2.25,0,0,1,.8-1.85A3.29,3.29,0,0,1,44,40a3,3,0,0,1,2.23.76A2.84,2.84,0,0,1,47,42.88v2.24a2.81,2.81,0,0,1-.78,2.12A3,3,0,0,1,44,48a2.75,2.75,0,0,1-2.88-1.73.4.4,0,0,1,0-.35.53.53,0,0,1,.29-.21l.78-.29a.42.42,0,0,1,.34,0,.75.75,0,0,1,.22.31,1.21,1.21,0,0,0,1.26.69,1.11,1.11,0,0,0,1.27-1.25v-.23A6.78,6.78,0,0,1,43.89,45ZM44,41.59q-1.26,0-1.26.93a.84.84,0,0,0,.29.7,1.63,1.63,0,0,0,1,.23,3.43,3.43,0,0,0,1.26-.18v-.48Q45.26,41.59,44,41.59Z" fill="#fff"/>
</svg>
