<svg xmlns="http://www.w3.org/2000/svg" xmlns:xlink="http://www.w3.org/1999/xlink" viewBox="0 0 512 512"><defs><symbol id="a" viewBox="0 0 359 231"><path fill="none" stroke="#000" stroke-linecap="round" stroke-linejoin="round" stroke-width="15" d="M295.5 223.5a56 56 0 100-112l-2.5.1a84 84 0 00-153-64.2 56 56 0 00-83.8 57.2 60 60 0 0011.2 118.9"/></symbol><style>.id{fill:none;stroke:#000;stroke-linecap:round;stroke-linejoin:round;stroke-width:15px;}</style></defs><g id="ic"><use xlink:href="#a" width="359" height="231" transform="translate(76.5 140.5)"/><g><path d="M342.5 271c-1.1 0-2.3.4-3.2 1.3L320 290.7l-19.3-18.4a4.7 4.7 0 00-6.4 0 4.1 4.1 0 000 6l22.5 21.4a4.7 4.7 0 006.4 0l22.5-21.4a4.1 4.1 0 000-6c-.9-.9-2-1.3-3.2-1.3Z"/><path d="M342.5 244c-1.1 0-2.3.4-3.2 1.3L320 263.7l-19.3-18.4a4.7 4.7 0 00-6.4 0 4.1 4.1 0 000 6l22.5 21.4a4.7 4.7 0 006.4 0l22.5-21.4a4.1 4.1 0 000-6c-.9-.9-2-1.3-3.2-1.3Z"/><path d="M342.5 217c-1.1 0-2.3.4-3.2 1.3L320 236.7l-19.3-18.4a4.7 4.7 0 00-6.4 0 4.1 4.1 0 000 6l22.5 21.4a4.7 4.7 0 006.4 0l22.5-21.4a4.1 4.1 0 000-6c-.9-.9-2-1.3-3.2-1.3Z"/></g></g></svg>