<svg xmlns="http://www.w3.org/2000/svg" xmlns:xlink="http://www.w3.org/1999/xlink" viewBox="0 0 512 512"><defs><symbol id="a" viewBox="0 0 359 231"><path fill="none" stroke="#000" stroke-linecap="round" stroke-linejoin="round" stroke-width="15" d="M295.5 223.5a56 56 0 100-112l-2.5.1a84 84 0 00-153-64.2 56 56 0 00-83.8 57.2 60 60 0 0011.2 118.9"/></symbol><style>.id{fill:none;stroke:#000;stroke-linecap:round;stroke-linejoin:round;stroke-width:15px;}</style></defs><g id="q"><use xlink:href="#a" width="359" height="231" transform="translate(76.5 140.5)"/><g><path d="M200 376a8 8 0 01-8-8v-12a8 8 0 1116 0v12a8 8 0 01-8 8Zm56 0a8 8 0 01-8-8v-12a8 8 0 1116 0v12a8 8 0 01-8 8Zm56 0a8 8 0 01-8-8v-12a8 8 0 1116 0v12a8 8 0 01-8 8Z"/></g></g></svg>