<svg xmlns="http://www.w3.org/2000/svg" viewBox="0 0 64 64"><defs><clipPath id="a"><path fill="none" d="M7.5 7.5h47l-47 47v-47z"/></clipPath></defs><g clip-path="url(#a)"><path d="M45.83 31.52h-.31A10.05 10.05 0 0 0 35.81 19a10 10 0 0 0-8.51 4.8 6.56 6.56 0 0 0-3.4-.95 6.71 6.71 0 0 0-6.68 6.74 6.62 6.62 0 0 0 .1 1.1A7.22 7.22 0 0 0 18.65 45h27.18a6.74 6.74 0 0 0 0-13.48z"/></g><path fill="none" stroke="#000" stroke-linecap="round" stroke-miterlimit="10" stroke-width="3" d="m24.89 45.11 3.19-3.19"/><path fill="none" stroke="#000" stroke-dasharray="7 7" stroke-linecap="round" stroke-miterlimit="10" stroke-width="3" d="m33.03 36.97 7.42-7.42"/><path fill="none" stroke="#000" stroke-linecap="round" stroke-miterlimit="10" stroke-width="3" d="m42.92 27.08 3.19-3.19M34.89 45.11l3.19-3.19"/><path fill="none" stroke="#000" stroke-dasharray="7 7" stroke-linecap="round" stroke-miterlimit="10" stroke-width="3" d="m43.03 36.97 7.42-7.42"/><path fill="none" stroke="#000" stroke-linecap="round" stroke-miterlimit="10" stroke-width="3" d="m52.92 27.08 3.19-3.19"/></svg>