<svg xmlns="http://www.w3.org/2000/svg" viewBox="0 0 64 64"><defs><clipPath id="a"><path fill="none" d="M64 2.79 30 23l2 6 5 4 27-12V2.79z"/></clipPath></defs><path d="m35.35 21.36 3.12-.81a.2.2 0 0 1 .21.06L41 22.86a.23.23 0 0 0 .38-.21l-.81-3.12a.2.2 0 0 1 .06-.21L42.86 17a.23.23 0 0 0-.21-.38l-3.12.81a.2.2 0 0 1-.21-.06L37 15.14a.23.23 0 0 0-.38.21l.81 3.12a.2.2 0 0 1-.06.21L35.14 21a.23.23 0 0 0 .21.36zm6.31 7.86 3.1.86a.22.22 0 0 1 .16.16l.86 3.1a.23.23 0 0 0 .44 0l.86-3.1a.22.22 0 0 1 .16-.16l3.1-.86a.23.23 0 0 0 0-.44l-3.1-.86a.22.22 0 0 1-.16-.16l-.86-3.1a.23.23 0 0 0-.44 0l-.86 3.1a.22.22 0 0 1-.16.16l-3.1.86a.23.23 0 0 0 0 .44z"/><g clip-path="url(#a)"><path fill="none" stroke="#000" stroke-linecap="round" stroke-miterlimit="10" d="m41.5 23.5-1.34.67"/><path fill="none" stroke="#000" stroke-dasharray="2.53 2.53" stroke-linecap="round" stroke-miterlimit="10" d="m37.9 25.3-7.93 3.96"/><path fill="none" stroke="#000" stroke-linecap="round" stroke-miterlimit="10" d="m28.84 29.83-1.34.67"/><path d="m41.14 20 2.25 2.3a.2.2 0 0 1 .06.21l-.81 3.12a.23.23 0 0 0 .38.21l2.3-2.25a.2.2 0 0 1 .21-.06l3.12.81a.23.23 0 0 0 .21-.38l-2.25-2.3a.2.2 0 0 1-.06-.21l.81-3.12a.23.23 0 0 0-.38-.21l-2.3 2.25a.2.2 0 0 1-.21.06l-3.12-.81a.23.23 0 0 0-.21.38z"/></g><path d="M46.66 36.2a16.66 16.66 0 0 1-16.78-16.55 16.29 16.29 0 0 1 .55-4.15A16.56 16.56 0 1 0 48.5 36.1c-.61.06-1.22.1-1.84.1z"/></svg>