<svg xmlns="http://www.w3.org/2000/svg" viewBox="0 0 64 64"><defs><clipPath id="a"><path fill="none" d="M45.83 47a8.75 8.75 0 0 0 2-17.25v-.64A12.08 12.08 0 0 0 35.81 17a11.88 11.88 0 0 0-9.17 4.3 8.66 8.66 0 0 0-11.41 7.93A9.23 9.23 0 0 0 18.65 47v17H0V0h64v64H18.65V47z"/></clipPath></defs><g clip-path="url(#a)"><path d="M24 43.5a1.5 1.5 0 1 0 1.5 1.5 1.5 1.5 0 0 0-1.5-1.5zm7 0a1.5 1.5 0 1 0 1.5 1.5 1.5 1.5 0 0 0-1.5-1.5zm7 0a1.5 1.5 0 1 0 1.5 1.5 1.5 1.5 0 0 0-1.5-1.5z"/></g><path d="M45.83 31.52h-.31A10.05 10.05 0 0 0 35.81 19a10 10 0 0 0-8.51 4.8 6.56 6.56 0 0 0-3.4-.95 6.71 6.71 0 0 0-6.68 6.74 6.62 6.62 0 0 0 .1 1.1A7.22 7.22 0 0 0 18.65 45h27.18a6.74 6.74 0 0 0 0-13.48z"/></svg>