<svg xmlns="http://www.w3.org/2000/svg" viewBox="0 0 64 64"><path fill="none" stroke="#000" stroke-linecap="round" stroke-miterlimit="10" stroke-width="3" d="M17 58h4.5"/><path fill="none" stroke="#000" stroke-dasharray="7 7" stroke-linecap="round" stroke-miterlimit="10" stroke-width="3" d="M28.5 58H39"/><path fill="none" stroke="#000" stroke-linecap="round" stroke-miterlimit="10" stroke-width="3" d="M42.5 58H47M17 52h4.5"/><path fill="none" stroke="#000" stroke-dasharray="7 7" stroke-linecap="round" stroke-miterlimit="10" stroke-width="3" d="M28.5 52H39"/><path fill="none" stroke="#000" stroke-linecap="round" stroke-miterlimit="10" stroke-width="3" d="M42.5 52H47"/><path d="M45.83 31.52h-.31A10.05 10.05 0 0 0 35.81 19a10 10 0 0 0-8.51 4.8 6.56 6.56 0 0 0-3.4-.95 6.71 6.71 0 0 0-6.68 6.74 6.62 6.62 0 0 0 .1 1.1A7.22 7.22 0 0 0 18.65 45h27.18a6.74 6.74 0 0 0 0-13.48z"/></svg>