<svg xmlns="http://www.w3.org/2000/svg" xmlns:xlink="http://www.w3.org/1999/xlink" viewBox="0 0 512 512"><defs><symbol id="a" viewBox="0 0 232 72"><g><circle cx="116" cy="12" r="12"/><circle cx="156" cy="52" r="16"/><circle cx="76" cy="52" r="16"/><circle cx="12" cy="60" r="12"/><circle cx="220" cy="60" r="12"/><circle cx="180" cy="20" r="8"/><circle cx="52" cy="20" r="8"/></g></symbol></defs><g id="hh"><path d="M327.5 258.6a74.1 74.1 0 00-17.7-5.8 76 76 0 0010-15.8c13.5-28.5 7.1-59.8-14.2-69.8-21.4-10.1-49.6 4.8-63 33.3a74.2 74.2 0 00-5.9 17.7 74.2 74.2 0 00-15.7-10c-28.5-13.5-59.8-7.1-69.9 14.2-10 21.4 4.9 49.6 33.4 63a74.1 74.1 0 0017.7 5.9 74.2 74.2 0 00-10 15.7c-13.5 28.5-7.1 59.8 14.2 69.9 21.3 10 49.6-4.9 63-33.4a74.1 74.1 0 005.8-17.7 72 72 0 0015.8 10c28.5 13.5 59.7 7.1 69.8-14.2 10.1-21.3-4.8-49.6-33.3-63Zm-49.3 18.7s28.7 10.6 25.6 17.3c-3.2 6.7-29.6-8.8-29.6-8.8s21.6 18.7 17 22.4c-4.7 3.6-25.9-20.1-25.9-20.1s15.2 24.9 8.7 27.2c-.9.3-2-.3-3-1.5-.1 1.7-.6 2.8-1.4 3.1-6.6 2.3-10.6-26.6-10.6-26.6s-1.3 31.8-7.2 32c-5.9.1-1.1-28-1.1-28S240 323 233.4 319.7c-6.7-3.2 8.8-29.6 8.8-29.6s-18.7 21.6-22.4 17c-3.6-4.7 20.2-25.9 20.2-25.9s-25 15.2-27.3 8.7c-.3-.9.3-1.9 1.5-3-1.7-.1-2.8-.5-3.1-1.4-2.3-6.5 26.6-10.6 26.6-10.6s-31.8-1.3-32-7.2c-.1-5.9 28-1.1 28-1.1s-28.6-10.6-25.5-17.3c3.2-6.7 29.6 8.8 29.6 8.8s-21.6-18.7-17-22.4c4.7-3.6 25.9 20.2 25.9 20.2s-15.2-25-8.7-27.3c.9-.3 1.9.3 3 1.5.1-1.7.5-2.8 1.4-3 6.5-2.4 10.6 26.5 10.6 26.5s1.3-31.8 7.2-32c5.9 0 1.1 28.1 1.1 28.1s10.6-28.7 17.3-25.6c6.7 3.2-8.8 29.6-8.8 29.6s18.7-21.6 22.4-17c3.6 4.7-20.2 25.9-20.2 25.9s25-15.2 27.3-8.7c.3.9-.3 2-1.5 3 1.7.1 2.8.6 3 1.4 2.4 6.6-26.5 10.6-26.5 10.6s31.8 1.3 32 7.2c0 6-28.1 1.1-28.1 1.1Z"/><use xlink:href="#a" width="232" height="72" transform="translate(140 132)"/></g></svg>