<svg xmlns="http://www.w3.org/2000/svg" viewBox="0 0 64 64"><path d="m34.32 51.45-.5-15.88a1.5 1.5 0 0 0-1.5-1.46h-.64a1.5 1.5 0 0 0-1.5 1.46l-.5 15.88a1.5 1.5 0 0 0 1.5 1.55h1.64a1.5 1.5 0 0 0 1.5-1.55z"/><ellipse cx="37.93" cy="35.3" rx="5.33" ry="5.31"/><ellipse cx="24.33" cy="32.93" rx="5.33" ry="5.31"/><path d="M40.89 19.36a7.56 7.56 0 0 0-1.36.13 3.55 3.55 0 1 0-5.15 4.11 7.11 7.11 0 1 0 6.51-4.24z"/><path d="M37.33 24.08a7.11 7.11 0 0 0-13.28-3.5h-.35a5.3 5.3 0 0 0-1.48 10.39 3.49 3.49 0 0 0-.29 1.41 3.55 3.55 0 0 0 3.55 3.55 3.51 3.51 0 0 0 2.33-.93A5.3 5.3 0 1 0 36 28.24a7 7 0 0 0 1.33-4.16z"/><circle cx="32" cy="13" r="1.5"/><circle cx="37" cy="18" r="2"/><circle cx="27" cy="18" r="2"/><circle cx="19" cy="19" r="1.5"/><circle cx="45" cy="19" r="1.5"/><circle cx="40" cy="14" r="1"/><circle cx="24" cy="14" r="1"/></svg>