<svg xmlns="http://www.w3.org/2000/svg" viewBox="0 0 512 512"><g id="ep"><path d="M293.5 298c-2 0-3.8.7-5.3 2.1L256 330.8 223.8 300a7.8 7.8 0 00-10.6 0c-3 2.8-3 7.3 0 10l37.5 35.8c3 2.8 7.7 2.8 10.6 0l37.5-35.7c3-2.8 3-7.3 0-10.1a7.7 7.7 0 00-5.3-2Z"/><path d="M293.5 253c-2 0-3.8.7-5.3 2.1L256 285.8 223.8 255a7.8 7.8 0 00-10.6 0c-3 2.8-3 7.3 0 10l37.5 35.8c3 2.8 7.7 2.8 10.6 0l37.5-35.7c3-2.8 3-7.3 0-10.1a7.7 7.7 0 00-5.3-2Z"/><path d="M293.5 208c-2 0-3.8.7-5.3 2.1L256 240.8 223.8 210a7.8 7.8 0 00-10.6 0c-3 2.8-3 7.3 0 10l37.5 35.8c3 2.8 7.7 2.8 10.6 0l37.5-35.7c3-2.8 3-7.3 0-10.1a7.7 7.7 0 00-5.3-2Z"/><path d="M293.5 163c-2 0-3.8.7-5.3 2.1L256 195.8 223.8 165a7.8 7.8 0 00-10.6 0c-3 2.8-3 7.3 0 10l37.5 35.8c3 2.8 7.7 2.8 10.6 0l37.5-35.7c3-2.8 3-7.3 0-10.1a7.7 7.7 0 00-5.3-2Z"/></g></svg>