<svg xmlns="http://www.w3.org/2000/svg" viewBox="0 0 64 64"><path fill="none" stroke="#000" stroke-linecap="round" stroke-miterlimit="10" d="m43.5 28.4-3 5.2M23.5 34.1l-3-5.2"/><path d="m33.45 12.05-2.6 1.5-2.5-4.33-5.2 3 2.5 4.33-2.6 1.5a1 1 0 0 0-.36 1.36l.5.87a1 1 0 0 0 1.36.37l10.4-6a1 1 0 0 0 .36-1.36l-.5-.87a1 1 0 0 0-1.36-.37z"/><path d="M36 28.31a7.5 7.5 0 1 0-8.08 0 10.5 10.5 0 1 0 8.08 0zM30 21a1 1 0 1 1 1-1 1 1 0 0 1-1 1zm2 20a1 1 0 1 1 1-1 1 1 0 0 1-1 1zm0-3a1 1 0 1 1 1-1 1 1 0 0 1-1 1zm0-3a1 1 0 1 1 1-1 1 1 0 0 1-1 1zm0-11a1 1 0 1 1 1-1 1 1 0 0 1-1 1zm2-3a1 1 0 1 1 1-1 1 1 0 0 1-1 1z"/></svg>