<svg xmlns="http://www.w3.org/2000/svg" xmlns:xlink="http://www.w3.org/1999/xlink" viewBox="0 0 512 512"><defs><symbol id="c" viewBox="0 0 359 231"><path fill="none" stroke="#000" stroke-linecap="round" stroke-linejoin="round" stroke-width="15" d="M295.5 223.5a56 56 0 100-112l-2.5.1a84 84 0 00-153-64.2 56 56 0 00-83.8 57.2 60 60 0 0011.2 118.9"/></symbol><symbol id="e" viewBox="0 0 96 176"><path d="M32 0 0 96h32l-16 80L96 64H48L80 0H32z"/></symbol><symbol id="d" viewBox="0 0 426.5 362.5"><g><g clip-path="url(#a)"><use xlink:href="#b" width="199" height="199" transform="translate(37.5 78.5)"/></g><use xlink:href="#c" width="359" height="231" transform="translate(67.5 131.5)"/></g></symbol><symbol id="b" viewBox="0 0 199 199"><g><circle cx="99.5" cy="99.5" r="40" fill="none" stroke="#000" stroke-miterlimit="10" stroke-width="15"/><path fill="none" stroke="#000" stroke-linecap="round" stroke-miterlimit="10" stroke-width="15" d="M99.5 32.9V7.5m0 184v-25.4m47.1-113.7 18-18M34.4 164.6l18-18m0-94.2-18-18m130.2 130.2-18-18M7.5 99.5h25.4m158.6 0h-25.4"/></g></symbol><clipPath id="a"><path fill="none" d="M0 0v286h54.5a81.1 81.1 0 0147.7-65 77.1 77.1 0 0198.5-67.9 103.9 103.9 0 0169.3-34.7V0H0Z"/></clipPath><style>.ih,.ii,.ij,.ik{fill:none;}.ii,.ij{stroke-miterlimit:10;}.ii,.ij,.ik{stroke:#000;stroke-width:15px;}.ii,.ik{stroke-linecap:round;}.il{clip-path:url(#d);}.ik{stroke-linejoin:round;}</style></defs><g id="cx"><use xlink:href="#d" width="426.5" height="362.5" transform="translate(9 9)"/><use xlink:href="#e" width="96" height="176" transform="translate(208 293)"/></g></svg>