<svg xmlns="http://www.w3.org/2000/svg" xmlns:xlink="http://www.w3.org/1999/xlink" viewBox="0 0 512 512"><defs><symbol id="a" viewBox="0 0 252 100"><path fill="none" stroke="#000" stroke-linecap="round" stroke-linejoin="round" stroke-width="12" d="M246 28.6h-8c-11 0-20.9-11.6-26-21.4a2.3 2.3 0 00-4 0c-5.2 9.8-15 21.4-26 21.4S161.1 17 156 7.2a2.3 2.3 0 00-4 0c-5.2 9.8-15 21.4-26 21.4S105.1 17 100 7.2a2.3 2.3 0 00-4 0C90.8 17 81 28.6 70 28.6S49.1 17 44 7.2a2.3 2.3 0 00-4 0C34.8 17 25 28.6 14 28.6H6v49c0 9 7.2 16.4 16 16.4h208c8.9 0 16-7.3 16-16.3v-49Z"/></symbol><style>.id{fill:none;stroke:#000;stroke-linecap:round;stroke-linejoin:round;stroke-width:12px;}</style></defs><g id="hm"><path fill="none" stroke="#000" stroke-linecap="round" stroke-linejoin="round" stroke-width="12" d="M256 146v72l-24-27.6 24 27.6 24-27.6"/><use xlink:href="#a" width="252" height="100" transform="translate(130 238)"/></g></svg>