<svg xmlns="http://www.w3.org/2000/svg" xmlns:xlink="http://www.w3.org/1999/xlink" viewBox="0 0 512 512"><defs><symbol id="a" viewBox="0 0 203 203"><path fill="none" stroke="#000" stroke-linecap="round" stroke-linejoin="round" stroke-width="15" d="M185 125.5a95 95 0 01-95.6-94.3c0-8.2 1.2-16.1 3.2-23.7a94.8 94.8 0 00-85.1 93.7 95 95 0 0095.6 94.3c44.5 0 81.8-30 92.4-70.7-3.5.4-7 .6-10.5.6Z"/></symbol><style>.id{fill:none;stroke:#000;stroke-linecap:round;stroke-linejoin:round;stroke-width:15px;}</style></defs><g id="he"><path d="M233.8 432.3c-4 4.8-9.5 7.2-16.3 7.2s-12.2-2.4-16.3-7.2c-4-4.9-6-11.4-6-19.7s2-14.6 6-19.4c4-4.8 9.4-7.2 16.3-7.2s12.3 2.4 16.3 7.2c4 4.8 6 11.3 6 19.4s-2 14.8-6 19.7Zm-16.3-3.2c6.3 0 9.4-5.5 9.4-16.4s-3.1-16.3-9.4-16.3-9.4 5.5-9.4 16.3 3.1 16.4 9.4 16.4Zm48.8-5.8h-20.6v-9.9h20.6v10Zm38.4-12.6c3.5.7 6.1 2 8 4.3s3 5 3 8.3a15 15 0 01-5.5 11.9c-3.6 3-8.7 4.6-15.1 4.6s-12-1.7-15.7-5-5.6-8-5.9-14h12.3c.3 5.9 3.2 8.8 8.7 8.8 2.5 0 4.4-.6 5.8-1.8s2.2-2.8 2.2-4.9-.8-3.7-2.3-4.8a10.5 10.5 0 00-6.3-1.7h-3.6v-8.9h3.8a8 8 0 005.2-1.5c1.2-1 1.9-2.4 1.9-4.3s-.6-3.3-1.9-4.4c-1.2-1-3-1.5-5.2-1.5s-3.9.5-5 1.6c-1.2 1.1-1.9 3-2 5.4h-12c.5-11.3 7-16.9 19.4-16.9a22 22 0 0113.9 3.9 12 12 0 015 10c0 2.6-.8 5-2.3 6.9s-3.7 3.3-6.4 4Zm-21.9-247.9 25-6.4c.6-.2 1.2 0 1.7.5l18.3 18c1.3 1.3 3.5 0 3-1.7l-6.4-25c-.2-.6 0-1.2.5-1.7l18-18.3c1.3-1.3 0-3.5-1.7-3l-25 6.4c-.6.2-1.2 0-1.7-.5l-18.3-18c-1.3-1.3-3.5 0-3 1.7l6.4 25c.1.6 0 1.2-.5 1.7l-18 18.3c-1.3 1.3 0 3.5 1.7 3Zm2.6 30.6 12 12.3c.3.3.4.7.3 1.1l-4.3 16.6c-.2 1.2 1.2 2 2 1.2l12.3-12c.3-.3.7-.4 1.1-.3l16.7 4.3c1.1.3 2-1.2 1.1-2l-12-12.3c-.3-.3-.4-.7-.3-1.1l4.3-16.7c.3-1.1-1.2-2-2-1.1l-12.3 12c-.3.3-.7.4-1.1.3l-16.6-4.3c-1.2-.3-2 1.2-1.2 2Zm51.9 30.3 24.8 7c.6.1 1.1.6 1.3 1.2l6.9 24.8c.5 1.7 3 1.7 3.4 0l7-24.8c.1-.6.6-1.1 1.2-1.3l24.8-6.9c1.8-.5 1.8-3 0-3.4l-24.8-7c-.6-.1-1-.6-1.3-1.2l-6.9-24.8c-.4-1.8-3-1.8-3.4 0l-7 24.8c-.1.6-.6 1-1.2 1.3l-24.8 6.9c-1.7.4-1.7 3 0 3.4Z"/><use xlink:href="#a" width="203" height="203" transform="translate(154.5 134.5)"/></g></svg>