<svg xmlns="http://www.w3.org/2000/svg" viewBox="0 0 64 64"><defs><clipPath id="a"><path fill="none" d="M0 4.5h64v32H0z"/></clipPath></defs><g clip-path="url(#a)"><circle cx="32" cy="39" r="7.7"/><path fill="none" stroke="#000" stroke-linecap="round" stroke-miterlimit="10" stroke-width="3" d="M32 27.05V22.5m0 33V51m8.45-20.4 3.22-3.22M20.33 50.67l3.22-3.22m0-16.9-3.22-3.22m23.34 23.34-3.22-3.22M20.05 39H15.5m33 0H44"/></g><path fill="none" stroke="#000" stroke-linecap="round" stroke-linejoin="round" d="M21.5 39h21"/><path d="M27.44 49.14c1.62 0 2.42.69 2.42 2.08a1.93 1.93 0 0 1-.66 1.55 2.82 2.82 0 0 1-1.85.56 2.55 2.55 0 0 1-1.86-.63 2.36 2.36 0 0 1-.65-1.76v-1.88a2.36 2.36 0 0 1 .65-1.76 2.59 2.59 0 0 1 1.86-.63 2.27 2.27 0 0 1 2.4 1.44.31.31 0 0 1 0 .29.43.43 0 0 1-.25.18l-.65.24a.35.35 0 0 1-.28 0 .53.53 0 0 1-.19-.25 1 1 0 0 0-1.02-.57.93.93 0 0 0-1.06 1v.19a5.3 5.3 0 0 1 1.14-.05zM27.35 52q1 0 1-.78a.69.69 0 0 0-.24-.58 1.3 1.3 0 0 0-.81-.19 3.12 3.12 0 0 0-1.05.14V51c.05.67.4 1 1.1 1zm5.98-1.75a.44.44 0 0 1 .08.29v.55a.3.3 0 0 1-.37.37H31a.3.3 0 0 1-.37-.37v-.55a.3.3 0 0 1 .37-.37h2a.44.44 0 0 1 .33.08zm3.23.61a2.72 2.72 0 0 1-1.83-.52 2 2 0 0 1-.59-1.56 1.93 1.93 0 0 1 .66-1.55 2.82 2.82 0 0 1 1.85-.56 2.55 2.55 0 0 1 1.86.63 2.36 2.36 0 0 1 .65 1.76v1.88a2.36 2.36 0 0 1-.65 1.76 2.59 2.59 0 0 1-1.86.63 2.3 2.3 0 0 1-2.41-1.44.34.34 0 0 1 0-.29.4.4 0 0 1 .24-.18l.66-.24a.35.35 0 0 1 .28 0 .6.6 0 0 1 .19.25 1 1 0 0 0 1 .58.93.93 0 0 0 1.06-1.05v-.18a5.43 5.43 0 0 1-1.11.08zm.09-2.86q-1 0-1 .78a.69.69 0 0 0 .24.58 1.3 1.3 0 0 0 .81.19 3.12 3.12 0 0 0 1.05-.14V49c-.05-.67-.4-1-1.1-1z"/></svg>