<svg xmlns="http://www.w3.org/2000/svg" xmlns:xlink="http://www.w3.org/1999/xlink" viewBox="0 0 512 512"><defs><symbol id="a" viewBox="0 0 291 291"><g><circle cx="145.5" cy="145.5" r="64.4" fill="none" stroke="#000" stroke-miterlimit="10" stroke-width="12"/><path fill="none" stroke="#000" stroke-linecap="round" stroke-miterlimit="10" stroke-width="15" d="M145.5 45.6V7.5m0 276v-38m70.7-170.7L243 48M47.9 243.1l27-27m0-141.3L47.8 48M243 243.2l-27-27M45.7 145.6H7.5m276 0h-38"/></g></symbol><style>.id{stroke-width:12px;}.id,.ie{fill:none;stroke:#000;stroke-miterlimit:10;}.ie{stroke-linecap:round;stroke-width:15px;}</style></defs><g id="ha"><path d="M185.3 438.4h-13.5v-32h-12.7v-9h2.2c3.7 0 6.6-.9 8.8-2.4 2-1.5 3.3-4 4-7.3v-.6h11.2v51.3Zm52.5 0H197c0-4.6 1-8.4 3-11.5 2-3 5.6-6.2 10.8-9.8l8-5.7c2-1.3 3.4-2.7 4.2-4a7.4 7.4 0 001.3-4.2c0-2-.7-3.6-2-4.8a7.1 7.1 0 00-5-1.8c-5 0-7.4 2.9-7.4 8.6v1H198v-1.5c0-6 1.7-10.5 5.1-13.8s8.4-5 14.7-5 10.9 1.5 14.4 4.4c3.6 3 5.4 7 5.4 12.1a16 16 0 01-2.5 9 26.5 26.5 0 01-8.2 7.5l-8.9 5.7c-1.6 1-2.5 2-2.7 2.8h22.5v11Zm28.5-15.1h-20.6v-9.9h20.6v10Zm31.1 15.1H284v-32h-12.7v-9h2.2c3.7 0 6.6-.9 8.8-2.4 2-1.5 3.3-4 4-7.3v-.6h11.2v51.3Zm32.1 1.3c-5.9 0-10.7-1.4-14.4-4a16 16 0 01-6.6-11.5l12.8-1c.5 2 1.4 3.4 2.8 4.4a9 9 0 005.3 1.6 9 9 0 006.2-2.2c1.5-1.5 2.2-3.4 2.2-5.8s-.7-4.3-2.2-5.7-3.6-2.2-6.2-2.2c-2.9 0-5.3 1-7.1 3l-12.1-1 4.6-28.2h32.3V398h-22.5l-1.7 8.7.2.2c2.7-2 6.2-3 10.4-3a17 17 0 0112.5 4.6 17 17 0 014.7 12.5c0 5.8-1.9 10.3-5.7 13.7-3.8 3.4-9 5-15.5 5Z"/><use xlink:href="#a" width="291" height="291" transform="translate(110.38 72.63)"/></g></svg>