<svg xmlns="http://www.w3.org/2000/svg" xmlns:xlink="http://www.w3.org/1999/xlink" viewBox="0 0 512 512"><defs><symbol id="a" viewBox="0 0 138 96"><g><path fill="none" stroke="#000" stroke-linecap="round" stroke-miterlimit="10" stroke-width="12" d="M105.2 10.8A15.5 15.5 0 11116.4 37H6m54.7 48.2A15.5 15.5 0 1071.9 59H6.6"/></g></symbol><style>.id{stroke-miterlimit:10;}.id,.ie{fill:none;stroke:#000;stroke-linecap:round;stroke-width:12px;}.ie{stroke-linejoin:round;}</style></defs><g id="f`"><path fill="none" stroke="#000" stroke-linecap="round" stroke-linejoin="round" stroke-width="12" d="M220 360a24 24 0 01-34-34l1.8-1.8L326 186"/><g><path d="M334.2 171.7c-46.7-44.2-113-50.7-149.6-14l13.1 4.9a71.2 71.2 0 0141 41.7l2.9 8.2c30-36.8 79.6-40.5 92.7-40.8Zm6.1 6.1c-.3 13-4 62.7-40.8 92.6l8.2 2.9a71.2 71.2 0 0141.7 41l4.9 13.1c36.7-36.7 30.2-102.9-14-149.6Z"/><path d="M295.2 266.2c34.8-27.9 38.7-76 39-88.5-12.3.4-60.5 4.3-88.4 39.1l4.2 1.4a70.8 70.8 0 0143.8 43.8l1.4 4.2Z"/></g><use xlink:href="#a" width="138" height="96" transform="translate(62.5 201)"/></g></svg>