<svg xmlns="http://www.w3.org/2000/svg" viewBox="0 0 64 64"><defs><clipPath id="a"><path fill="none" d="M26.5 44.5a2 2 0 0 1-1.83-2.81l1.33-3c2.53-5.69 7.65-9.19 13.35-9.19H16v15z"/></clipPath></defs><g clip-path="url(#a)"><path d="M32 34.33c-1.36 0-2.61-1.46-3.25-2.67a.28.28 0 0 0-.5 0c-.64 1.21-1.89 2.67-3.25 2.67s-2.61-1.46-3.25-2.67a.28.28 0 0 0-.5 0c-.64 1.21-1.89 2.67-3.25 2.67h-1v6.13a2 2 0 0 0 2 2h13z"/></g><path d="M45.12 19.79c.07-.68 0-1.24-.19-1.26h-.14c-.17 0-.37.51-.45 1.2l-1.51 13.35c-.09.71 0 1.32.18 1.34h.35c.18 0 .39-.55.46-1.27z"/><path d="M50 20.26a4.38 4.38 0 0 0-4-4.69 4.55 4.55 0 0 0-4.11 1.72h-.22A3.28 3.28 0 0 0 38 20.05a3.22 3.22 0 0 0 2.11 3.28 2.09 2.09 0 0 0-.27.82 2.18 2.18 0 0 0 2 2.34 2.3 2.3 0 0 0 1.52-.37 3.45 3.45 0 0 0 2.51 1.51 3.29 3.29 0 0 0 3.69-2.81 3.06 3.06 0 0 0-.64-2.18A4.08 4.08 0 0 0 50 20.26zm-2.5 20.02v-6.56a2.1 2.1 0 0 0-2-2.22h-6.15c-4.87 0-9.33 3.1-11.52 8l-1.33 3h19a2.1 2.1 0 0 0 2-2.22z"/><path fill="none" stroke="#000" stroke-linecap="round" stroke-linejoin="round" stroke-width="2" d="M30.18 17.68a2.22 2.22 0 1 1 1.6 3.76H16m7.73 6.88a2.22 2.22 0 1 0 1.6-3.76H16"/></svg>