<svg xmlns="http://www.w3.org/2000/svg" xmlns:xlink="http://www.w3.org/1999/xlink" viewBox="0 0 512 512"><defs><symbol id="a" viewBox="0 0 342 234"><g><path fill="none" stroke="#000" stroke-linecap="round" stroke-miterlimit="10" stroke-width="18" d="M264.2 21.3A39.9 39.9 0 01333 49c0 22-18 40-40 40H9m139.2 123.7A39.9 39.9 0 00217 185c0-22-18-40-40-40H9"/></g></symbol><style>.id{fill:none;stroke:#000;stroke-linecap:round;stroke-miterlimit:10;stroke-width:18px;}</style></defs><g id="gf"><use xlink:href="#a" width="342" height="234" transform="translate(85 139)"/><path d="M405.4 338.1c-5.2 4-12.4 5.9-21.4 5.9s-16.2-2-21.4-5.9a19 19 0 01-8-16 16 16 0 013.6-10.7c2.3-2.9 5.6-4.8 9.9-5.9v-.2a14.8 14.8 0 01-10.3-14.6 16 16 0 017-13.7c4.5-3.3 11-5 19.2-5s14.7 1.7 19.3 5a16 16 0 017 13.7c0 3.5-1 6.5-2.8 9.1a14.3 14.3 0 01-7.5 5.5v.2a16.2 16.2 0 0113.3 16.5 19 19 0 01-7.8 16.1Zm-21.3-7c3.7 0 6.7-.9 9-2.6 2-1.7 3.2-4 3.2-7s-1-5.4-3.2-7.1c-2.2-1.7-5.2-2.6-9-2.6s-7 .9-9.2 2.6c-2.2 1.7-3.3 4-3.3 7s1.1 5.4 3.3 7.1c2.3 1.7 5.3 2.6 9.1 2.6Zm0-30.4c3.3 0 6-.7 7.8-2.2 1.9-1.5 2.9-3.5 2.9-6.2s-1-4.5-2.9-5.9a13 13 0 00-7.8-2c-7.3 0-10.8 2.6-10.8 8 0 2.6 1 4.6 2.8 6.1 1.9 1.5 4.5 2.2 8 2.2Z"/></g></svg>