<svg xmlns="http://www.w3.org/2000/svg" xmlns:xlink="http://www.w3.org/1999/xlink" viewBox="0 0 512 512"><defs><symbol id="a" viewBox="0 0 342 234"><g><path fill="none" stroke="#000" stroke-linecap="round" stroke-miterlimit="10" stroke-width="18" d="M264.2 21.3A39.9 39.9 0 01333 49c0 22-18 40-40 40H9m139.2 123.7A39.9 39.9 0 00217 185c0-22-18-40-40-40H9"/></g></symbol><style>.id{fill:none;stroke:#000;stroke-linecap:round;stroke-miterlimit:10;stroke-width:18px;}</style></defs><g id="ge"><use xlink:href="#a" width="342" height="234" transform="translate(85 139)"/><path d="M387.3 344h-20c0-9.1 2.1-18.7 6.5-29a88.5 88.5 0 0117.9-26.7h-35.5V272h55.6v14.7a93.4 93.4 0 00-18.2 26.8c-3.9 9.1-6 19.3-6.3 30.5Z"/></g></svg>