<svg xmlns="http://www.w3.org/2000/svg" xmlns:xlink="http://www.w3.org/1999/xlink" viewBox="0 0 512 512"><defs><symbol id="a" viewBox="0 0 342 234"><g><path fill="none" stroke="#000" stroke-linecap="round" stroke-miterlimit="10" stroke-width="18" d="M264.2 21.3A39.9 39.9 0 01333 49c0 22-18 40-40 40H9m139.2 123.7A39.9 39.9 0 00217 185c0-22-18-40-40-40H9"/></g></symbol><style>.id{fill:none;stroke:#000;stroke-linecap:round;stroke-miterlimit:10;stroke-width:18px;}</style></defs><g id="gd"><use xlink:href="#a" width="342" height="234" transform="translate(85 139)"/><path d="M388.5 294.8c7.3 0 13.2 2.2 17.7 6.5 4.6 4.3 6.8 10.1 6.8 17.3s-2.6 13.6-7.7 18.4c-5.1 4.6-11.9 7-20.2 7s-15.3-2.6-20.6-7.7c-6.3-6-9.5-15.2-9.5-27.6 0-11.7 2.5-20.7 7.6-27.1 5.1-6.4 12.5-9.6 22.2-9.6 6.8 0 12.4 1.5 16.8 4.6 4.5 3 7.5 7.3 9 13l-16.6.9c-1.4-3.7-4.5-5.5-9.3-5.5-4 0-7 1.3-9 4a25 25 0 00-3.7 13 20 20 0 0116.5-7.2Zm-12.7 31.6c2.3 2.5 5.2 3.7 8.8 3.7s6.4-1 8.3-3.2c2-2.3 2.9-5 2.9-8 0-3.3-1-6-3.2-8-2.1-2-4.8-3.1-8.2-3.1s-6 1-8 3a12 12 0 00-3.4 8.3c.2 2.8 1.1 5.3 2.8 7.3Z"/></g></svg>