<svg xmlns="http://www.w3.org/2000/svg" xmlns:xlink="http://www.w3.org/1999/xlink" viewBox="0 0 512 512"><defs><symbol id="a" viewBox="0 0 342 234"><g><path fill="none" stroke="#000" stroke-linecap="round" stroke-miterlimit="10" stroke-width="18" d="M264.2 21.3A39.9 39.9 0 01333 49c0 22-18 40-40 40H9m139.2 123.7A39.9 39.9 0 00217 185c0-22-18-40-40-40H9"/></g></symbol><style>.id{fill:none;stroke:#000;stroke-linecap:round;stroke-miterlimit:10;stroke-width:18px;}</style></defs><g id="g`"><use xlink:href="#a" width="342" height="234" transform="translate(85 139)"/><path d="M411.9 344h-55.7c0-6.3 1.3-11.5 4-15.7 2.7-4 7.6-8.6 14.8-13.5l11-7.8c2.7-2 4.7-3.7 5.9-5.5s1.7-3.6 1.7-5.8a9 9 0 00-2.6-6.7 9.8 9.8 0 00-7-2.4c-6.7 0-10 4-10 11.8v1.5h-17v-2.2a25 25 0 017.2-19c4.7-4.5 11.4-6.8 20.1-6.8s14.9 2 19.8 6c4.9 4.1 7.4 9.7 7.4 16.7A22 22 0 01408 307a37 37 0 01-11.3 10.3l-12.1 7.7c-2.3 1.6-3.6 2.8-3.8 3.9h31v15Z"/></g></svg>