<svg xmlns="http://www.w3.org/2000/svg" viewBox="0 0 512 512"><g id="es"><path fill="none" stroke="#000" stroke-linecap="round" stroke-linejoin="round" stroke-width="24" d="M148 376V136"/><path d="m191.4 137 28.7 4.3c3.2.4 5.5 3.1 5.5 6.3v73.7c0 3.1-2.3 5.8-5.4 6.3l-28.8 4.2a6.4 6.4 0 01-7.3-6.4v-82c0-4 3.5-6.9 7.3-6.3Zm69.2 9.1 28.7 4.2c3.2.5 5.5 3.2 5.5 6.3v55.6c0 3.1-2.3 5.8-5.5 6.3l-28.7 4.2a6.4 6.4 0 01-7.3-6.3v-64c0-3.8 3.4-6.8 7.3-6.3Zm69.2 9.1 28.7 4.2c3.2.5 5.5 3.2 5.5 6.3v37.4c0 3.2-2.3 5.9-5.5 6.3l-28.7 4.2a6.4 6.4 0 01-7.3-6.3v-45.8c0-3.9 3.4-6.8 7.3-6.3Z"/></g></svg>