<svg xmlns="http://www.w3.org/2000/svg" xmlns:xlink="http://www.w3.org/1999/xlink" viewBox="0 0 512 512"><defs><symbol id="a" viewBox="0 0 342 234"><g><path fill="none" stroke="#000" stroke-linecap="round" stroke-miterlimit="10" stroke-width="18" d="M264.2 21.3A39.9 39.9 0 01333 49c0 22-18 40-40 40H9m139.2 123.7A39.9 39.9 0 00217 185c0-22-18-40-40-40H9"/></g></symbol><style>.id{fill:none;stroke:#000;stroke-linecap:round;stroke-miterlimit:10;stroke-width:18px;}</style></defs><g id="gc"><use xlink:href="#a" width="342" height="234" transform="translate(85 139)"/><path d="M383.8 344c-8 0-14.6-1.8-19.7-5.5-5-3.7-8-9-9-15.7l17.6-1.4a9.9 9.9 0 003.8 6 12 12 0 007.2 2.2c3.6 0 6.4-1 8.4-3 2.1-2 3.1-4.7 3.1-8s-1-5.8-3-7.8c-2.1-2-5-3-8.5-3-4 0-7.2 1.4-9.8 4.3l-16.5-1.5 6.4-38.6H408v14.7h-31l-2.3 12 .3.2c3.7-2.7 8.4-4 14.2-4 7.1 0 12.8 2 17 6.3 4.4 4.2 6.6 9.9 6.6 17 0 8-2.6 14.2-7.8 18.8a31 31 0 01-21.3 7Z"/></g></svg>