<svg xmlns="http://www.w3.org/2000/svg" xmlns:xlink="http://www.w3.org/1999/xlink" viewBox="0 0 512 512"><defs><symbol id="a" viewBox="0 0 342 234"><g><path fill="none" stroke="#000" stroke-linecap="round" stroke-miterlimit="10" stroke-width="18" d="M264.2 21.3A39.9 39.9 0 01333 49c0 22-18 40-40 40H9m139.2 123.7A39.9 39.9 0 00217 185c0-22-18-40-40-40H9"/></g></symbol><style>.id{fill:none;stroke:#000;stroke-linecap:round;stroke-miterlimit:10;stroke-width:18px;}</style></defs><g id="gg"><use xlink:href="#a" width="342" height="234" transform="translate(85 139)"/><path d="M403.4 279.7c6.4 6 9.7 15.2 9.7 27.6 0 11.7-2.6 20.7-7.7 27.1-5.1 6.4-12.6 9.6-22.3 9.6-6.8 0-12.4-1.5-16.8-4.6-4.5-3-7.5-7.3-9-12.9l16.6-1c1.4 3.6 4.5 5.5 9.3 5.5 4 0 7-1.4 9-4 2-2.7 3.4-7 3.8-13-4 4.8-9.5 7.1-16.6 7.1s-13.1-2.1-17.6-6.4a22.8 22.8 0 01-6.9-17.3 24 24 0 017.8-18.4c5-4.7 11.7-7 20.1-7s15.3 2.6 20.6 7.7Zm-20 28.5c3.4 0 6.1-1 8.2-3 2-2.1 3.2-4.9 3.3-8.3-.1-3-1-5.4-2.7-7.3-2.2-2.5-5.2-3.7-9-3.7s-6.2 1-8.2 3.1c-2 2.1-2.9 4.8-2.9 8s1 6.1 3.1 8.2c2.1 2 4.9 3 8.3 3Z"/></g></svg>