<svg xmlns="http://www.w3.org/2000/svg" xmlns:xlink="http://www.w3.org/1999/xlink" viewBox="0 0 512 512">
    <defs>
        <linearGradient id="a" x1="52.74" y1="9.62" x2="133.36" y2="149.27" gradientUnits="userSpaceOnUse">
            <stop offset="0" stop-color="#9ca3af"/>
            <stop offset="0.45" stop-color="#9ca3af"/>
            <stop offset="1" stop-color="#6b7280"/>
        </linearGradient>
        <linearGradient id="b" x1="99.45" y1="30.68" x2="232.64" y2="261.37" gradientUnits="userSpaceOnUse">
            <stop offset="0" stop-color="#6b7280"/>
            <stop offset="0.45" stop-color="#6b7280"/>
            <stop offset="1" stop-color="#4b5563"/>
        </linearGradient>
        <linearGradient id="c" x1="17.25" y1="43.11" x2="89.25" y2="167.82" gradientUnits="userSpaceOnUse">
            <stop offset="0" stop-color="#d4d7dd"/>
            <stop offset="0.45" stop-color="#d4d7dd"/>
            <stop offset="1" stop-color="#bec1c6"/>
        </linearGradient>
        <linearGradient id="d" x1="107.25" y1="-8.85" x2="179.25" y2="115.86" xlink:href="#c"/>
        <linearGradient id="e" x1="174.75" y1="-47.82" x2="246.75" y2="76.89" xlink:href="#c"/>
        <linearGradient id="f" y1="-4.89" x2="89.25" y2="119.82" xlink:href="#c"/>
        <linearGradient id="g" x1="107.25" y1="-56.85" x2="179.25" y2="67.86" xlink:href="#c"/>
        <linearGradient id="h" x1="174.75" y1="-95.82" x2="246.75" y2="28.89" xlink:href="#c"/>
        <symbol id="j" viewBox="0 0 200.26 126.12">
            <path d="M.5,93.18a32.44,32.44,0,0,0,32.44,32.44H162.69v-.12c.77,0,1.53.12,2.31.12a34.75,34.75,0,0,0,6.49-68.89A32.38,32.38,0,0,0,123,23.62,48.58,48.58,0,0,0,34.4,60.81c-.49,0-1-.07-1.46-.07A32.44,32.44,0,0,0,.5,93.18Z" stroke="#848b98" stroke-miterlimit="10" fill="url(#a)"/>
        </symbol>
        <symbol id="k" viewBox="0 0 350 222">
            <path d="M291,107c-.85,0-1.68.09-2.53.13A83.9,83.9,0,0,0,135.6,42.92,55.91,55.91,0,0,0,51,91a56.56,56.56,0,0,0,.8,9.08A60,60,0,0,0,63,219c1.35,0,2.67-.11,4-.2v.2H291a56,56,0,0,0,0-112Z" stroke="#5b6472" stroke-miterlimit="10" stroke-width="6" fill="url(#b)"/>
        </symbol>
        <symbol id="i" viewBox="0 0 398 222">
            <use width="200.26" height="126.12" transform="translate(198 27)" xlink:href="#j"/>
            <use width="350" height="222" xlink:href="#k"/>
        </symbol>
        <symbol id="l" viewBox="0 0 264 72">
            <line x1="12" y1="60" x2="42" y2="60" fill="none" stroke-linecap="round" stroke-miterlimit="10" stroke-width="24" stroke="url(#c)"/>
            <line x1="102" y1="60" x2="192" y2="60" fill="none" stroke-linecap="round" stroke-miterlimit="10" stroke-width="24" stroke-dasharray="60 60" stroke="url(#d)"/>
            <line x1="222" y1="60" x2="252" y2="60" fill="none" stroke-linecap="round" stroke-miterlimit="10" stroke-width="24" stroke="url(#e)"/>
            <line x1="12" y1="12" x2="42" y2="12" fill="none" stroke-linecap="round" stroke-miterlimit="10" stroke-width="24" stroke="url(#f)"/>
            <line x1="102" y1="12" x2="192" y2="12" fill="none" stroke-linecap="round" stroke-miterlimit="10" stroke-width="24" stroke-dasharray="60 60" stroke="url(#g)"/>
            <line x1="222" y1="12" x2="252" y2="12" fill="none" stroke-linecap="round" stroke-miterlimit="10" stroke-width="24" stroke="url(#h)"/>
        </symbol>
    </defs>
    <use width="398" height="222" transform="translate(68.84 145)" xlink:href="#i"/>
    <use width="264" height="72" transform="translate(124 402)" xlink:href="#l"/>
</svg>
