<svg xmlns="http://www.w3.org/2000/svg" xmlns:xlink="http://www.w3.org/1999/xlink" viewBox="0 0 512 512">
    <defs>
        <linearGradient id="a" x1="54.01" y1="16.93" x2="125.82" y2="141.31" gradientUnits="userSpaceOnUse">
            <stop offset="0" stop-color="#f3f7fe"/>
            <stop offset="0.45" stop-color="#f3f7fe"/>
            <stop offset="1" stop-color="#deeafb"/>
        </linearGradient>
        <linearGradient id="b" x1="78" y1="63.35" x2="118" y2="132.65" gradientUnits="userSpaceOnUse">
            <stop offset="0" stop-color="#fbbf24"/>
            <stop offset="0.45" stop-color="#fbbf24"/>
            <stop offset="1" stop-color="#f59e0b"/>
        </linearGradient>
        <clipPath id="c">
            <polygon points="238 59.13 36 59.13 36 268 88.4 268 155.77 185.4 238 166.21 238 59.13" fill="none"/>
        </clipPath>
        <linearGradient id="d" x1="160.35" y1="168.89" x2="278.86" y2="374.16" gradientUnits="userSpaceOnUse">
            <stop offset="0" stop-color="#f87171"/>
            <stop offset="0.45" stop-color="#f87171"/>
            <stop offset="1" stop-color="#dc2626"/>
        </linearGradient>
        <linearGradient id="e" x1="170.96" y1="190.48" x2="271.47" y2="364.58" xlink:href="#b"/>
        <linearGradient id="f" x1="118" y1="256" x2="342" y2="256" gradientUnits="userSpaceOnUse">
            <stop offset="0" stop-color="#51cf66"/>
            <stop offset="0.45" stop-color="#51cf66"/>
            <stop offset="1" stop-color="#37b24d"/>
        </linearGradient>
        <symbol id="g" viewBox="0 0 196 196">
            <circle cx="98" cy="98" r="40" stroke="#f8af18" stroke-miterlimit="10" stroke-width="4" fill="url(#b)"/>
            <path d="M98,31.38V6m0,184V164.62M145.11,50.89,163.05,33M33,163.05l17.94-17.94m0-94.22L33,33m130.1,130.1-17.94-17.94M6,98H31.38M190,98H164.62" fill="none" stroke="#fbbf24" stroke-linecap="round" stroke-miterlimit="10" stroke-width="12"/>
        </symbol>
        <symbol id="h" viewBox="0 0 189.48 120.47">
            <path d="M157.29,58.08c-.46,0-.91,0-1.36.07a45.76,45.76,0,0,0,1.36-10.86A45.26,45.26,0,0,0,73.5,23.52,30.15,30.15,0,0,0,27.88,49.45a30.47,30.47,0,0,0,.43,4.9,32.34,32.34,0,0,0,6,64.12c.73,0,1.44-.06,2.16-.11v.11H157.29a30.2,30.2,0,0,0,0-60.39Z" stroke="#e6effc" stroke-miterlimit="10" stroke-width="4" fill="url(#a)"/>
        </symbol>
    </defs>
    <g clip-path="url(#c)">
        <use width="196" height="196" transform="translate(48 78)" xlink:href="#g"/>
    </g>
    <path d="M82,310c0-79.53,66.26-144,148-144s148,64.47,148,144" fill="none" stroke-miterlimit="10" stroke-width="24" stroke="url(#d)"/>
    <path d="M106,310c0-66.27,55.52-120,124-120s124,53.73,124,120" fill="none" stroke-miterlimit="10" stroke-width="24" stroke="url(#e)"/>
    <path d="M130,310c0-53,44.77-96,100-96s100,43,100,96" fill="none" stroke-miterlimit="10" stroke-width="24" stroke="url(#f)"/>
    <use width="189.48" height="120.47" transform="translate(239.94 223.59)" xlink:href="#h"/>
</svg>
