<svg xmlns="http://www.w3.org/2000/svg" xmlns:xlink="http://www.w3.org/1999/xlink" viewBox="0 0 512 512">
    <defs>
        <linearGradient id="a" x1="52.74" y1="9.62" x2="133.36" y2="149.27" gradientUnits="userSpaceOnUse">
            <stop offset="0" stop-color="#9ca3af"/>
            <stop offset="0.45" stop-color="#9ca3af"/>
            <stop offset="1" stop-color="#6b7280"/>
        </linearGradient>
        <linearGradient id="b" x1="99.45" y1="30.68" x2="232.64" y2="261.37" gradientUnits="userSpaceOnUse">
            <stop offset="0" stop-color="#6b7280"/>
            <stop offset="0.45" stop-color="#6b7280"/>
            <stop offset="1" stop-color="#4b5563"/>
        </linearGradient>
        <linearGradient id="c" x1="8.67" y1="17.07" x2="80.88" y2="142.14" gradientUnits="userSpaceOnUse">
            <stop offset="0" stop-color="#f7b23b"/>
            <stop offset="0.45" stop-color="#f7b23b"/>
            <stop offset="1" stop-color="#f59e0b"/>
        </linearGradient>
        <linearGradient id="d" x1="11.38" y1="5.93" x2="32.82" y2="43.07" gradientUnits="userSpaceOnUse">
            <stop offset="0" stop-color="#86c3db"/>
            <stop offset="0.45" stop-color="#86c3db"/>
            <stop offset="1" stop-color="#5eafcf"/>
        </linearGradient>
        <linearGradient id="e" x1="67.38" y1="95.93" x2="88.82" y2="133.07" xlink:href="#d"/>
        <linearGradient id="f" x1="123.38" y1="45.93" x2="144.82" y2="83.07" xlink:href="#d"/>
        <linearGradient id="g" x1="78" y1="63.35" x2="118" y2="132.65" gradientUnits="userSpaceOnUse">
            <stop offset="0" stop-color="#fbbf24"/>
            <stop offset="0.45" stop-color="#fbbf24"/>
            <stop offset="1" stop-color="#f59e0b"/>
        </linearGradient>
        <symbol id="i" viewBox="0 0 196 196">
            <circle cx="98" cy="98" r="40" stroke="#f8af18" stroke-miterlimit="10" stroke-width="4" fill="url(#g)"/>
            <path d="M98,31.38V6m0,184V164.62M145.11,50.89,163.05,33M33,163.05l17.94-17.94m0-94.22L33,33m130.1,130.1-17.94-17.94M6,98H31.38M190,98H164.62" fill="none" stroke="#fbbf24" stroke-linecap="round" stroke-miterlimit="10" stroke-width="12"/>
        </symbol>
        <symbol id="k" viewBox="0 0 200.26 126.12">
            <path d="M.5,93.18a32.44,32.44,0,0,0,32.44,32.44H162.69v-.12c.77,0,1.53.12,2.31.12a34.75,34.75,0,0,0,6.49-68.89A32.38,32.38,0,0,0,123,23.62,48.58,48.58,0,0,0,34.4,60.81c-.49,0-1-.07-1.46-.07A32.44,32.44,0,0,0,.5,93.18Z" stroke="#848b98" stroke-miterlimit="10" fill="url(#a)"/>
        </symbol>
        <symbol id="l" viewBox="0 0 350 222">
            <path d="M291,107c-.85,0-1.68.09-2.53.13A83.9,83.9,0,0,0,135.6,42.92,55.91,55.91,0,0,0,51,91a56.56,56.56,0,0,0,.8,9.08A60,60,0,0,0,63,219c1.35,0,2.67-.11,4-.2v.2H291a56,56,0,0,0,0-112Z" stroke="#5b6472" stroke-miterlimit="10" stroke-width="6" fill="url(#b)"/>
        </symbol>
        <symbol id="j" viewBox="0 0 398 222">
            <use width="200.26" height="126.12" transform="translate(198 27)" xlink:href="#k"/>
            <use width="350" height="222" xlink:href="#l"/>
        </symbol>
        <symbol id="h" viewBox="0 0 410.84 258">
            <use width="196" height="196" xlink:href="#i"/>
            <use width="398" height="222" transform="translate(12.84 36)" xlink:href="#j"/>
        </symbol>
        <symbol id="m" viewBox="0 0 156.2 139">
            <path d="M41.67,31l-5.78-3.3a13.74,13.74,0,0,0,0-6.47L41.67,18a4,4,0,0,0,1.49-5.46A4.08,4.08,0,0,0,37.62,11l-5.79,3.3a13.61,13.61,0,0,0-2.64-2,13.84,13.84,0,0,0-3-1.28V4.5a4.05,4.05,0,0,0-8.1,0v6.6a14.25,14.25,0,0,0-5.69,3.23L6.58,11A4.08,4.08,0,0,0,1,12.5,4,4,0,0,0,2.53,18l5.78,3.3a13.74,13.74,0,0,0,0,6.47L2.53,31A4,4,0,0,0,1,36.5a4.08,4.08,0,0,0,3.52,2,4,4,0,0,0,2-.54l5.79-3.3a13.61,13.61,0,0,0,2.64,2,13.8,13.8,0,0,0,3,1.27V44.5a4.05,4.05,0,0,0,8.1,0V37.89a14.22,14.22,0,0,0,5.68-3.23L37.62,38a4,4,0,0,0,2,.54,4.08,4.08,0,0,0,3.52-2A4,4,0,0,0,41.67,31ZM19.06,29.7a6,6,0,0,1-2.22-8.2,6.1,6.1,0,0,1,5.27-3,6.16,6.16,0,0,1,3,.8,6,6,0,0,1,2.22,8.2A6.12,6.12,0,0,1,19.06,29.7Z" stroke="#86c3db" stroke-miterlimit="10" fill="url(#d)"/>
            <path d="M97.67,121l-5.78-3.3a13.74,13.74,0,0,0,0-6.47L97.67,108a4,4,0,0,0,1.49-5.46A4.08,4.08,0,0,0,93.62,101l-5.79,3.3a13.61,13.61,0,0,0-2.64-2,13.84,13.84,0,0,0-3-1.28V94.5a4.05,4.05,0,0,0-8.1,0v6.6a14.25,14.25,0,0,0-5.69,3.23L62.58,101A4.08,4.08,0,0,0,57,102.5,4,4,0,0,0,58.53,108l5.78,3.3a13.74,13.74,0,0,0,0,6.47L58.53,121A4,4,0,0,0,57,126.5a4.08,4.08,0,0,0,3.52,2,4,4,0,0,0,2-.54l5.79-3.3a13.61,13.61,0,0,0,2.64,2,13.8,13.8,0,0,0,3,1.27v6.61a4.05,4.05,0,0,0,8.1,0v-6.61a14.22,14.22,0,0,0,5.68-3.23l5.79,3.3a4,4,0,0,0,2,.54,4.08,4.08,0,0,0,3.52-2A4,4,0,0,0,97.67,121ZM75.06,119.7a6,6,0,0,1-2.22-8.2,6.1,6.1,0,0,1,5.27-3,6.16,6.16,0,0,1,3,.8,6,6,0,0,1,2.22,8.2A6.12,6.12,0,0,1,75.06,119.7Z" stroke="#86c3db" stroke-miterlimit="10" fill="url(#e)"/>
            <path d="M153.67,71l-5.78-3.3a13.74,13.74,0,0,0,0-6.47L153.67,58a4,4,0,0,0,1.49-5.46A4.08,4.08,0,0,0,149.62,51l-5.79,3.3a13.61,13.61,0,0,0-2.64-2,13.84,13.84,0,0,0-3-1.28V44.5a4.05,4.05,0,0,0-8.1,0v6.6a14.25,14.25,0,0,0-5.69,3.23L118.58,51A4.08,4.08,0,0,0,113,52.5,4,4,0,0,0,114.53,58l5.78,3.3a13.74,13.74,0,0,0,0,6.47L114.53,71A4,4,0,0,0,113,76.5a4.08,4.08,0,0,0,3.52,2,4,4,0,0,0,2-.54l5.79-3.3a13.61,13.61,0,0,0,2.64,2,13.8,13.8,0,0,0,3,1.27V84.5a4.05,4.05,0,0,0,8.1,0V77.89a14.22,14.22,0,0,0,5.68-3.23l5.79,3.3a4,4,0,0,0,2,.54,4.08,4.08,0,0,0,3.52-2A4,4,0,0,0,153.67,71ZM131.06,69.7a6,6,0,0,1-2.22-8.2,6.1,6.1,0,0,1,5.27-3,6.16,6.16,0,0,1,3,.8,6,6,0,0,1,2.22,8.2A6.12,6.12,0,0,1,131.06,69.7Z" stroke="#86c3db" stroke-miterlimit="10" fill="url(#f)"/>
        </symbol>
        <symbol id="n" viewBox="0 0 102.66 186.75">
            <polygon points="34.77 2 2.77 98 34.77 98 18.77 178 98.78 66 50.77 66 82.78 2 34.77 2" stroke="#f6a823" stroke-miterlimit="10" stroke-width="4" fill="url(#c)"/>
        </symbol>
    </defs>
    <use width="410.84" height="258" transform="translate(56 109)" xlink:href="#h"/>
    <use width="156.2" height="139" transform="translate(177.9 337.5)" xlink:href="#m"/>
    <use width="102.66" height="186.74" transform="translate(205.23 291)" xlink:href="#n"/>
</svg>
