<svg xmlns="http://www.w3.org/2000/svg" xmlns:xlink="http://www.w3.org/1999/xlink" viewBox="0 0 512 512">
    <defs>
        <linearGradient id="a" x1="38.79" y1="20.77" x2="133.4" y2="184.63" gradientUnits="userSpaceOnUse">
            <stop offset="0" stop-color="#86c3db"/>
            <stop offset="0.45" stop-color="#86c3db"/>
            <stop offset="1" stop-color="#5eafcf"/>
        </linearGradient>
        <symbol id="b" viewBox="0 0 192.48 192.48">
            <path d="M179.74,120.19C127,120.19,84.16,78,84.16,25.89A93.24,93.24,0,0,1,87.31,2.24C39.47,7.4,2.24,47.37,2.24,95.94c0,52.08,42.79,94.3,95.57,94.3,44.5,0,81.78-30,92.43-70.65A98.36,98.36,0,0,1,179.74,120.19Z" stroke="#72b9d5" stroke-linecap="round" stroke-linejoin="round" stroke-width="4.48" fill="url(#a)"/>
        </symbol>
    </defs>
    <path d="M227.6,410.73a13.41,13.41,0,0,1,8.06,4.29,12.3,12.3,0,0,1,2.88,8.32,15,15,0,0,1-5.4,11.8q-5.47,4.61-15.19,4.61-10.15,0-15.66-5t-5.87-13.89h12.31q.44,8.78,8.72,8.78a8.68,8.68,0,0,0,5.79-1.8,6.07,6.07,0,0,0,2.13-4.9,5.63,5.63,0,0,0-2.24-4.82,10.5,10.5,0,0,0-6.33-1.66h-3.6V407.5H217a8,8,0,0,0,5.22-1.52,5.24,5.24,0,0,0,1.84-4.32,5.36,5.36,0,0,0-1.84-4.35,7.87,7.87,0,0,0-5.22-1.55,7,7,0,0,0-5,1.65q-1.72,1.66-2,5.41H198q.72-16.92,19.45-16.93,8.85,0,13.82,3.9a12.08,12.08,0,0,1,5,9.93,11.13,11.13,0,0,1-2.27,7A11.34,11.34,0,0,1,227.6,410.73Z" fill="#374251"/>
    <path d="M266.26,423.34H245.74V413.4h20.52Z" fill="#374251"/>
    <path d="M297.94,403q8.21,0,13.25,4.83t5.11,12.95a17.89,17.89,0,0,1-5.76,13.76q-5.76,5.25-15.12,5.25T280,434q-7.12-6.76-7.13-20.66,0-13.11,5.73-20.27t16.6-7.17a21.79,21.79,0,0,1,12.56,3.43A16.65,16.65,0,0,1,314.5,399l-12.46.72c-1.05-2.74-3.36-4.1-6.91-4.1a7.9,7.9,0,0,0-6.73,3q-2.26,3-2.77,9.75Q290,403,297.94,403Zm-9.5,23.61a8.57,8.57,0,0,0,6.62,2.81,7.82,7.82,0,0,0,6.19-2.44,8.88,8.88,0,0,0,2.16-6,8,8,0,0,0-2.37-6,8.47,8.47,0,0,0-6.12-2.3,8.25,8.25,0,0,0-6.05,2.27,8.94,8.94,0,0,0-2.52,6.16A9.13,9.13,0,0,0,288.44,426.57Z" fill="#374251"/>
    <use width="192.48" height="192.48" transform="translate(159.76 139.76)" xlink:href="#b"/>
</svg>
