<svg xmlns="http://www.w3.org/2000/svg" xmlns:xlink="http://www.w3.org/1999/xlink" viewBox="0 0 512 512">
    <defs>
        <linearGradient id="a" x1="149.99" y1="119.24" x2="234.01" y2="264.76" gradientUnits="userSpaceOnUse">
            <stop offset="0" stop-color="#fbbf24"/>
            <stop offset="0.45" stop-color="#fbbf24"/>
            <stop offset="1" stop-color="#f59e0b"/>
        </linearGradient>
        <clipPath id="b">
            <path d="M64,64H448V256H328a72,72,0,0,0-72,72V448H64Z" fill="none"/>
        </clipPath>
        <symbol id="c" viewBox="0 0 384 384">
            <circle cx="192" cy="192" r="84" stroke="#f8af18" stroke-miterlimit="10" stroke-width="6" fill="url(#a)"/>
            <path d="M192,61.66V12m0,360V322.34M284.17,99.83l35.11-35.11M64.72,319.28l35.11-35.11m0-184.34L64.72,64.72M319.28,319.28l-35.11-35.11M61.66,192H12m360,0H322.34" fill="none" stroke="#fbbf24" stroke-linecap="round" stroke-miterlimit="10" stroke-width="24"/>
        </symbol>
    </defs>
    <g clip-path="url(#b)">
        <use width="384" height="384" transform="translate(64 64)" xlink:href="#c"/>
        <path d="M254,338V328a74,74,0,0,1,74-74h10" fill="none" stroke="#f8af18" stroke-miterlimit="10" stroke-width="6"/>
    </g>
    <rect x="280" y="280" width="144" height="144" rx="48" fill="#ff8d00"/>
    <path d="M356.48,338.81q11,0,17.71,6.45T381,362.59q0,11.27-7.7,18.38t-20.21,7q-12.62,0-20.6-7.7-9.54-9-9.53-27.63,0-17.51,7.65-27.09T352.82,316q10.11,0,16.79,4.57a22.29,22.29,0,0,1,9,12.95l-16.65,1q-2.11-5.49-9.24-5.48-6,0-9,4T340,346Q345.8,338.82,356.48,338.81Zm-12.71,31.57a11.5,11.5,0,0,0,8.86,3.76q5.39,0,8.27-3.27a11.87,11.87,0,0,0,2.89-8,10.61,10.61,0,0,0-3.18-8,11.21,11.21,0,0,0-8.18-3.08,11,11,0,0,0-8.08,3,12,12,0,0,0-3.37,8.23A12.26,12.26,0,0,0,343.77,370.38Z" fill="#fff"/>
</svg>
