<svg xmlns="http://www.w3.org/2000/svg" xmlns:xlink="http://www.w3.org/1999/xlink" viewBox="0 0 512 512">
    <defs>
        <linearGradient id="a" x1="138.48" y1="5.12" x2="224.17" y2="153.53" gradientUnits="userSpaceOnUse">
            <stop offset="0" stop-color="#d4d7dd"/>
            <stop offset="0.45" stop-color="#d4d7dd"/>
            <stop offset="1" stop-color="#bec1c6"/>
        </linearGradient>
        <linearGradient id="b" x1="77.66" y1="96.23" x2="168.99" y2="254.41" xlink:href="#a"/>
        <symbol id="c" viewBox="0 0 348 240">
            <path d="M267.16,24.29A40,40,0,1,1,296,92H12" fill="none" stroke-linecap="round" stroke-miterlimit="10" stroke-width="24" stroke="url(#a)"/>
            <path d="M151.16,215.71A40,40,0,1,0,180,148H12" fill="none" stroke-linecap="round" stroke-miterlimit="10" stroke-width="24" stroke="url(#b)"/>
        </symbol>
    </defs>
    <use width="348" height="240" transform="translate(82 136)" xlink:href="#c"/>
    <path d="M387.34,344H367.21q0-13.65,6.58-28.92a88.43,88.43,0,0,1,17.89-26.8H356.19V272h55.62v14.66q-12.35,13.15-18.2,26.8A81.85,81.85,0,0,0,387.34,344Z" fill="#374251"/>
</svg>
