<svg xmlns="http://www.w3.org/2000/svg" xmlns:xlink="http://www.w3.org/1999/xlink" viewBox="0 0 64 64"><defs><path id="a" fill="none" stroke="#ef4444" stroke-linecap="round" stroke-linejoin="round" stroke-width=".5" d="m44.59 42.78-5.82-10.66L33 21.62a1.18 1.18 0 0 0-2.08 0l-5.73 10.5-5.78 10.66a1.19 1.19 0 0 0 1.05 1.76h23.08a1.19 1.19 0 0 0 1.05-1.76z"/></defs><defs><linearGradient id="c" x1="20.51" x2="37.02" y1="23.85" y2="52.45" gradientUnits="userSpaceOnUse"><stop offset="0" stop-color="#f87171"/><stop offset=".45" stop-color="#f87171"/><stop offset="1" stop-color="#dc2626"/></linearGradient><clipPath id="d"><use stroke-linecap="round" stroke-linejoin="round" stroke-width=".5" xlink:href="#a"/></clipPath><linearGradient id="e" x1="21.75" x2="42.25" y1="14.25" y2="49.75" gradientUnits="userSpaceOnUse"><stop offset="0" stop-color="#f3f7fe"/><stop offset=".45" stop-color="#f3f7fe"/><stop offset="1" stop-color="#deeafb"/></linearGradient><linearGradient id="f" x1="34.4" x2="39.67" y1="39.33" y2="48.46" gradientUnits="userSpaceOnUse"><stop offset="0" stop-color="#51cf66"/><stop offset=".45" stop-color="#51cf66"/><stop offset="1" stop-color="#37b24d"/></linearGradient><linearGradient id="b" x1="25.86" x2="28.37" y1="136.93" y2="141.27" gradientTransform="matrix(1 0 0 .34 8.89 -15.17)" gradientUnits="userSpaceOnUse"><stop offset="0" stop-color="#b8bdc6"/><stop offset=".45" stop-color="#b8bdc6"/><stop offset="1" stop-color="#a5aab2"/></linearGradient><linearGradient id="g" x1="36.12" x2="36.88" y1="34.85" y2="36.15" xlink:href="#b"/><linearGradient id="h" x1="24.62" x2="25.38" y1="39.35" y2="40.65" xlink:href="#b"/><linearGradient id="i" x1="10.29" x2="13.34" y1="81.98" y2="87.26" gradientTransform="translate(18.19 -47.62)" xlink:href="#b"/></defs><path fill="url(#c)" stroke="#ef4444" stroke-miterlimit="10" stroke-width=".5" d="M47.58 43 41 30.91l-6.36-11.67a3 3 0 0 0-5.28 0L23 30.91 16.42 43a3 3 0 0 0 2.64 4.44h25.88A3 3 0 0 0 47.58 43z"/><g clip-path="url(#d)"><path fill="url(#e)" d="M17 17h30v30H17z"/><path fill="url(#f)" stroke="#40c057" stroke-linecap="round" stroke-miterlimit="10" stroke-width=".5" d="m44.5 33.5.23 12.04-20.23-.04 20-12z"/><rect width="4" height="1.37" x="34" y="31.81" fill="url(#b)" stroke="#afb4bc" stroke-miterlimit="10" stroke-width=".25" opacity=".5" rx=".5" transform="rotate(-31 35.992 32.504)"/><circle cx="36.5" cy="35.5" r=".75" fill="url(#g)" stroke="#afb4bc" stroke-miterlimit="10" stroke-width=".25"/><circle cx="25" cy="40" r=".75" fill="url(#h)" stroke="#afb4bc" stroke-miterlimit="10" stroke-width=".25"/><rect width="5" height="5" x="27.5" y="34.5" fill="url(#i)" stroke="#afb4bc" stroke-miterlimit="10" stroke-width=".25" rx="1" transform="rotate(-42 30.004 36.998)"/></g><use stroke-linecap="round" stroke-linejoin="round" stroke-width=".5" xlink:href="#a"/></svg>