<svg xmlns="http://www.w3.org/2000/svg" xmlns:xlink="http://www.w3.org/1999/xlink" viewBox="0 0 512 512"><defs><linearGradient id="a" x1="215.6" x2="285.3" y1="215.1" y2="335.7" gradientUnits="userSpaceOnUse"><stop offset="0" stop-color="#f87171"/><stop offset=".5" stop-color="#f87171"/><stop offset="1" stop-color="#dc2626"/></linearGradient><linearGradient id="b" x1="222.2" x2="289.8" y1="276.1" y2="393.3" gradientUnits="userSpaceOnUse"><stop offset="0" stop-color="#f3f7fe"/><stop offset=".5" stop-color="#f3f7fe"/><stop offset="1" stop-color="#deeafb"/></linearGradient><linearGradient xlink:href="#b" id="c" x1="245" x2="267" y1="151.6" y2="189.7"/></defs><path fill="url(#a)" stroke="#ef4444" stroke-miterlimit="10" stroke-width="4" d="M256 204.7a83 83 0 0183 83v17H173v-17a83 83 0 0183-83Z"/><path fill="url(#b)" stroke="#e6effc" stroke-miterlimit="10" stroke-width="4" d="M160 317.5v34.4c0 6.3 7.1 11.4 16 11.4h160c8.9 0 16-5.1 16-11.4v-34.4c0-6.3-7.1-11.4-16-11.4H176c-8.9 0-16 5-16 11.4Z"/><circle cx="256" cy="170.7" r="22" fill="url(#c)" stroke="#e6effc" stroke-miterlimit="10" stroke-width="4"/></svg>