<svg xmlns="http://www.w3.org/2000/svg" xmlns:xlink="http://www.w3.org/1999/xlink" viewBox="0 0 512 512"><defs><linearGradient id="a" x1="99.5" x2="232.6" y1="30.7" y2="261.4" gradientUnits="userSpaceOnUse"><stop offset="0" stop-color="#f3f7fe"/><stop offset=".5" stop-color="#f3f7fe"/><stop offset="1" stop-color="#deeafb"/></linearGradient><linearGradient id="b" x1="1391.9" x2="1401.4" y1="-1146.9" y2="-1122.2" gradientTransform="rotate(-9 8002.565 8259.08)" gradientUnits="userSpaceOnUse"><stop offset="0" stop-color="#0b65ed"/><stop offset=".5" stop-color="#0a5ad4"/><stop offset="1" stop-color="#0950bc"/></linearGradient><linearGradient xlink:href="#b" id="c" x1="1434.7" x2="1444.2" y1="-1059.1" y2="-1034.4"/><linearGradient xlink:href="#b" id="d" x1="1497.8" x2="1507.3" y1="-1099.7" y2="-1075.1"/><symbol id="e" viewBox="0 0 350 222"><path fill="url(#a)" stroke="#e6effc" stroke-miterlimit="10" stroke-width="6" d="m291 107-2.5.1A83.9 83.9 0 00135.6 43 56 56 0 0051 91a56.6 56.6 0 00.8 9A60 60 0 0063 219l4-.2v.2h224a56 56 0 000-112Z"/></symbol><symbol id="f" viewBox="0 0 129 109"><path fill="url(#b)" stroke="#0a5ad4" stroke-miterlimit="10" d="M8.5 28.5a8 8 0 01-8-8v-12a8 8 0 0116 0v12a8 8 0 01-8 8Z"/><path fill="url(#c)" stroke="#0a5ad4" stroke-miterlimit="10" d="M64.5 108.5a8 8 0 01-8-8v-12a8 8 0 0116 0v12a8 8 0 01-8 8Z"/><path fill="url(#d)" stroke="#0a5ad4" stroke-miterlimit="10" d="M120.5 58.5a8 8 0 01-8-8v-12a8 8 0 0116 0v12a8 8 0 01-8 8Z"/></symbol></defs><use xlink:href="#e" width="350" height="222" transform="translate(81 145)"/><use xlink:href="#f" width="129" height="109" transform="translate(191.5 347.5)"/></svg>