<svg xmlns="http://www.w3.org/2000/svg" xmlns:xlink="http://www.w3.org/1999/xlink" viewBox="0 0 512 512"><defs><linearGradient id="a" x1="138.5" x2="224.2" y1="5.1" y2="153.5" gradientUnits="userSpaceOnUse"><stop offset="0" stop-color="#d4d7dd"/><stop offset=".5" stop-color="#d4d7dd"/><stop offset="1" stop-color="#bec1c6"/></linearGradient><linearGradient xlink:href="#a" id="b" x1="77.7" x2="169" y1="96.2" y2="254.4"/><linearGradient id="c" x1="90" x2="102" y1="185.6" y2="206.4" gradientUnits="userSpaceOnUse"><stop offset="0" stop-color="#fde68a"/><stop offset=".5" stop-color="#fde68a"/><stop offset="1" stop-color="#fde171"/></linearGradient><linearGradient xlink:href="#c" id="d" x1="174" x2="186" y1="185.6" y2="206.4"/><linearGradient xlink:href="#c" id="e" x1="258" x2="270" y1="185.6" y2="206.4"/><linearGradient xlink:href="#c" id="f" x1="216" x2="228" y1="245.6" y2="266.4"/><linearGradient xlink:href="#c" id="g" x1="300" x2="312" y1="245.6" y2="266.4"/><linearGradient xlink:href="#c" id="h" x1="384" x2="396" y1="245.6" y2="266.4"/><linearGradient xlink:href="#c" id="i" x1="166" x2="178" y1="305.6" y2="326.4"/><linearGradient xlink:href="#c" id="j" x1="250" x2="262" y1="305.6" y2="326.4"/><linearGradient xlink:href="#c" id="k" x1="334" x2="346" y1="305.6" y2="326.4"/><symbol id="l" viewBox="0 0 348 240"><path fill="none" stroke="url(#a)" stroke-linecap="round" stroke-miterlimit="10" stroke-width="24" d="M267.2 24.3A40 40 0 11296 92H12"/><path fill="none" stroke="url(#b)" stroke-linecap="round" stroke-miterlimit="10" stroke-width="24" d="M151.2 215.7A40 40 0 10180 148H12"/></symbol></defs><circle cx="96" cy="196" r="12" fill="url(#c)"/><circle cx="180" cy="196" r="12" fill="url(#d)"/><circle cx="264" cy="196" r="12" fill="url(#e)"/><circle cx="222" cy="256" r="12" fill="url(#f)"/><circle cx="306" cy="256" r="12" fill="url(#g)"/><circle cx="390" cy="256" r="12" fill="url(#h)"/><circle cx="172" cy="316" r="12" fill="url(#i)"/><circle cx="256" cy="316" r="12" fill="url(#j)"/><circle cx="340" cy="316" r="12" fill="url(#k)"/><use xlink:href="#l" width="348" height="240" transform="translate(83 136)"/></svg>