<svg xmlns="http://www.w3.org/2000/svg" xmlns:xlink="http://www.w3.org/1999/xlink" viewBox="0 0 512 512"><defs><linearGradient id="a" x1="52.7" x2="133.4" y1="9.6" y2="149.3" gradientUnits="userSpaceOnUse"><stop offset="0" stop-color="#9ca3af"/><stop offset=".5" stop-color="#9ca3af"/><stop offset="1" stop-color="#6b7280"/></linearGradient><linearGradient id="b" x1="99.5" x2="232.6" y1="30.7" y2="261.4" gradientUnits="userSpaceOnUse"><stop offset="0" stop-color="#6b7280"/><stop offset=".5" stop-color="#6b7280"/><stop offset="1" stop-color="#4b5563"/></linearGradient><linearGradient id="c" x1="6.5" x2="18.5" y1="2.1" y2="22.9" gradientUnits="userSpaceOnUse"><stop offset="0" stop-color="#86c3db"/><stop offset=".5" stop-color="#86c3db"/><stop offset="1" stop-color="#5eafcf"/></linearGradient><linearGradient xlink:href="#c" id="d" x1="62.5" x2="74.5" y1="92.1" y2="112.9"/><linearGradient xlink:href="#c" id="e" x1="118.5" x2="130.5" y1="32.1" y2="52.9"/><linearGradient id="f" x1="78" x2="118" y1="63.4" y2="132.7" gradientUnits="userSpaceOnUse"><stop offset="0" stop-color="#fbbf24"/><stop offset=".5" stop-color="#fbbf24"/><stop offset="1" stop-color="#f59e0b"/></linearGradient><symbol id="h" viewBox="0 0 196 196"><circle cx="98" cy="98" r="40" fill="url(#f)" stroke="#f8af18" stroke-miterlimit="10" stroke-width="4"/><path fill="none" stroke="#fbbf24" stroke-linecap="round" stroke-miterlimit="10" stroke-width="12" d="M98 31.4V6m0 184v-25.4M145.1 51l18-17.9M33 163l18-17.9M51 51 33 33m130.1 130.1-18-18M6 98h25.4M190 98h-25.4"/></symbol><symbol id="j" viewBox="0 0 200.3 126.1"><path fill="url(#a)" stroke="#848b98" stroke-miterlimit="10" d="M.5 93.2a32.4 32.4 0 0032.4 32.4h129.8v-.1l2.3.1a34.8 34.8 0 006.5-68.9 32.4 32.4 0 00-48.5-33 48.6 48.6 0 00-88.6 37.1h-1.5A32.4 32.4 0 00.5 93.1Z"/></symbol><symbol id="k" viewBox="0 0 350 222"><path fill="url(#b)" stroke="#5b6472" stroke-miterlimit="10" stroke-width="6" d="m291 107-2.5.1A83.9 83.9 0 00135.6 43 56 56 0 0051 91a56.6 56.6 0 00.8 9A60 60 0 0063 219l4-.2v.2h224a56 56 0 000-112Z"/></symbol><symbol id="i" viewBox="0 0 398 222"><use xlink:href="#j" width="200.3" height="126.1" transform="translate(198 27)"/><use xlink:href="#k" width="350" height="222"/></symbol><symbol id="g" viewBox="0 0 410.8 258"><use xlink:href="#h" width="196" height="196"/><use xlink:href="#i" width="398" height="222" transform="translate(12.84 36)"/></symbol><symbol id="l" viewBox="0 0 137 115"><path fill="url(#c)" stroke="#86c3db" stroke-miterlimit="10" d="M12.5.5a12 12 0 1012 12 12 12 0 00-12-12Z"/><path fill="url(#d)" stroke="#86c3db" stroke-miterlimit="10" d="M68.5 90.5a12 12 0 1012 12 12 12 0 00-12-12Z"/><path fill="url(#e)" stroke="#86c3db" stroke-miterlimit="10" d="M124.5 30.5a12 12 0 1012 12 12 12 0 00-12-12Z"/></symbol></defs><use xlink:href="#g" width="410.8" height="258" transform="translate(56 109)"/><use xlink:href="#l" width="137" height="115" transform="translate(187.5 349.5)"/></svg>