<svg xmlns="http://www.w3.org/2000/svg" xmlns:xlink="http://www.w3.org/1999/xlink" viewBox="0 0 64 64"><defs><linearGradient id="a" x1="36.75" x2="41.25" y1="15.1" y2="22.9" gradientUnits="userSpaceOnUse"><stop offset="0" stop-color="#fcd966"/><stop offset=".45" stop-color="#fcd966"/><stop offset="1" stop-color="#fccd34"/></linearGradient><linearGradient id="b" x1="44.04" x2="47.96" y1="25.6" y2="32.4" xlink:href="#a"/><clipPath id="c"><path fill="none" d="M64 2.79 30 23l2 6 5 4 27-12V2.79z"/></clipPath><linearGradient id="d" x1="43.04" x2="46.96" y1="18.6" y2="25.4" xlink:href="#a"/><linearGradient id="e" x1="21.92" x2="38.52" y1="18.75" y2="47.52" gradientUnits="userSpaceOnUse"><stop offset="0" stop-color="#86c3db"/><stop offset=".45" stop-color="#86c3db"/><stop offset="1" stop-color="#5eafcf"/></linearGradient></defs><path fill="url(#a)" stroke="#fcd34d" stroke-linecap="round" stroke-linejoin="round" stroke-width=".25" d="m35.35 21.36 3.12-.81a.2.2 0 0 1 .21.06L41 22.86a.23.23 0 0 0 .38-.21l-.81-3.12a.2.2 0 0 1 .06-.21L42.86 17a.23.23 0 0 0-.21-.38l-3.12.81a.2.2 0 0 1-.21-.06L37 15.14a.23.23 0 0 0-.38.21l.81 3.12a.2.2 0 0 1-.06.21L35.14 21a.23.23 0 0 0 .21.36z"/><path fill="url(#b)" stroke="#fcd34d" stroke-linecap="round" stroke-linejoin="round" stroke-width=".25" d="m41.66 29.22 3.1.86a.22.22 0 0 1 .16.16l.86 3.1a.23.23 0 0 0 .44 0l.86-3.1a.22.22 0 0 1 .16-.16l3.1-.86a.23.23 0 0 0 0-.44l-3.1-.86a.22.22 0 0 1-.16-.16l-.86-3.1a.23.23 0 0 0-.44 0l-.86 3.1a.22.22 0 0 1-.16.16l-3.1.86a.23.23 0 0 0 0 .44z"/><g stroke="#fcd34d" stroke-linecap="round" clip-path="url(#c)"><path fill="none" stroke-miterlimit="10" d="m41.5 23.5-1.34.67"/><path fill="none" stroke-dasharray="2.53 2.53" stroke-miterlimit="10" d="m37.9 25.3-7.93 3.96"/><path fill="none" stroke-miterlimit="10" d="m28.84 29.83-1.34.67"/><path fill="url(#d)" stroke-linejoin="round" stroke-width=".25" d="m41.14 20 2.25 2.3a.2.2 0 0 1 .06.21l-.81 3.12a.23.23 0 0 0 .38.21l2.3-2.25a.2.2 0 0 1 .21-.06l3.12.81a.23.23 0 0 0 .21-.38l-2.25-2.3a.2.2 0 0 1-.06-.21l.81-3.12a.23.23 0 0 0-.38-.21l-2.3 2.25a.2.2 0 0 1-.21.06l-3.12-.81a.23.23 0 0 0-.21.38z"/></g><path fill="url(#e)" stroke="#72b9d5" stroke-linecap="round" stroke-linejoin="round" stroke-width=".5" d="M46.66 36.2a16.66 16.66 0 0 1-16.78-16.55 16.29 16.29 0 0 1 .55-4.15A16.56 16.56 0 1 0 48.5 36.1c-.61.06-1.22.1-1.84.1z"/></svg>