<svg xmlns="http://www.w3.org/2000/svg" xmlns:xlink="http://www.w3.org/1999/xlink" viewBox="0 0 64 64"><defs><linearGradient id="a" x1="13.58" x2="24.15" y1="15.57" y2="33.87" gradientUnits="userSpaceOnUse"><stop offset="0" stop-color="#86c3db"/><stop offset=".45" stop-color="#86c3db"/><stop offset="1" stop-color="#5eafcf"/></linearGradient><linearGradient id="b" x1="40.76" x2="50.83" y1="23" y2="40.46" gradientUnits="userSpaceOnUse"><stop offset="0" stop-color="#9ca3af"/><stop offset=".45" stop-color="#9ca3af"/><stop offset="1" stop-color="#6b7280"/></linearGradient><linearGradient id="c" x1="22.56" x2="39.2" y1="21.96" y2="50.8" gradientUnits="userSpaceOnUse"><stop offset="0" stop-color="#f3f7fe"/><stop offset=".45" stop-color="#f3f7fe"/><stop offset="1" stop-color="#deeafb"/></linearGradient><linearGradient id="d" x1="24.66" x2="27.34" y1="39.68" y2="44.32" xlink:href="#a"/><linearGradient id="e" x1="28.66" x2="31.34" y1="49.68" y2="54.32" xlink:href="#a"/><linearGradient id="f" x1="36.66" x2="39.34" y1="43.68" y2="48.32" xlink:href="#a"/></defs><path fill="url(#a)" stroke="#72b9d5" stroke-linecap="round" stroke-linejoin="round" stroke-width=".5" d="M29.33 26.68a10.61 10.61 0 0 1-10.68-10.54A10.5 10.5 0 0 1 19 13.5a10.54 10.54 0 1 0 11.5 13.11 11.48 11.48 0 0 1-1.17.07z"/><path fill="url(#b)" stroke="#848b98" stroke-miterlimit="10" stroke-width=".5" d="M34.23 33.45a4.05 4.05 0 0 0 4.05 4h16.51a4.34 4.34 0 0 0 .81-8.61 3.52 3.52 0 0 0 .06-.66 4.06 4.06 0 0 0-6.13-3.48 6.08 6.08 0 0 0-11.25 3.19 6.34 6.34 0 0 0 .18 1.46h-.18a4.05 4.05 0 0 0-4.05 4.1z"/><path fill="url(#c)" stroke="#e6effc" stroke-miterlimit="10" stroke-width=".5" d="M46.5 31.5h-.32a10.49 10.49 0 0 0-19.11-8 7 7 0 0 0-10.57 6 7.21 7.21 0 0 0 .1 1.14A7.5 7.5 0 0 0 18 45.5a4.19 4.19 0 0 0 .5 0h28a7 7 0 0 0 0-14z"/><path fill="url(#d)" d="m28.45 42.82-.73-.41a1.59 1.59 0 0 0 0-.81l.73-.42a.49.49 0 0 0 .18-.68.51.51 0 0 0-.69-.18l-.72.41a1.66 1.66 0 0 0-.71-.41v-.82a.51.51 0 0 0-1 0v.83a1.74 1.74 0 0 0-.71.4l-.72-.41a.51.51 0 0 0-.69.18.49.49 0 0 0 .18.68l.73.41a1.59 1.59 0 0 0 0 .81l-.73.42a.49.49 0 0 0-.18.68.5.5 0 0 0 .44.25.47.47 0 0 0 .25-.07l.72-.41a2 2 0 0 0 .33.25 1.5 1.5 0 0 0 .38.15v.83a.51.51 0 0 0 1 0v-.83a1.74 1.74 0 0 0 .71-.4l.72.41a.47.47 0 0 0 .25.07.5.5 0 0 0 .44-.25.49.49 0 0 0-.18-.68zm-2.83-.17a.75.75 0 0 1 .38-1.4.75.75 0 0 1 .38.1.75.75 0 0 1 .28 1 .77.77 0 0 1-1.04.3z"/><path fill="url(#e)" d="m32.45 52.82-.73-.41a1.59 1.59 0 0 0 0-.81l.73-.42a.49.49 0 0 0 .18-.68.51.51 0 0 0-.69-.18l-.72.41a1.66 1.66 0 0 0-.71-.41v-.82a.51.51 0 0 0-1 0v.83a1.74 1.74 0 0 0-.71.4l-.72-.41a.51.51 0 0 0-.69.18.49.49 0 0 0 .18.68l.73.41a1.59 1.59 0 0 0 0 .81l-.73.42a.49.49 0 0 0-.18.68.5.5 0 0 0 .44.25.47.47 0 0 0 .25-.07l.72-.41a2 2 0 0 0 .33.25 1.5 1.5 0 0 0 .38.15v.83a.51.51 0 0 0 1 0v-.83a1.74 1.74 0 0 0 .71-.4l.72.41a.47.47 0 0 0 .25.07.5.5 0 0 0 .44-.25.49.49 0 0 0-.18-.68zm-2.83-.17a.75.75 0 0 1 .38-1.4.75.75 0 0 1 .38.1.75.75 0 0 1 .28 1 .77.77 0 0 1-1.04.3z"/><path fill="url(#f)" d="m40.45 46.82-.73-.41a1.59 1.59 0 0 0 0-.81l.73-.42a.49.49 0 0 0 .18-.68.51.51 0 0 0-.69-.18l-.72.41a1.66 1.66 0 0 0-.71-.41v-.82a.51.51 0 0 0-1 0v.83a1.74 1.74 0 0 0-.71.4l-.72-.41a.51.51 0 0 0-.69.18.49.49 0 0 0 .18.68l.73.41a1.59 1.59 0 0 0 0 .81l-.73.42a.49.49 0 0 0-.18.68.5.5 0 0 0 .44.25.47.47 0 0 0 .25-.07l.72-.41a2 2 0 0 0 .33.25 1.5 1.5 0 0 0 .38.15v.83a.51.51 0 0 0 1 0v-.83a1.74 1.74 0 0 0 .71-.4l.72.41a.47.47 0 0 0 .25.07.5.5 0 0 0 .44-.25.49.49 0 0 0-.18-.68zm-2.83-.17a.75.75 0 0 1 .38-1.4.75.75 0 0 1 .38.1.75.75 0 0 1 .28 1 .77.77 0 0 1-1.04.3z"/></svg>