<svg xmlns="http://www.w3.org/2000/svg" xmlns:xlink="http://www.w3.org/1999/xlink" viewBox="0 0 64 64"><defs><linearGradient id="b" x1="40.76" x2="50.83" y1="23" y2="40.46" gradientUnits="userSpaceOnUse"><stop offset="0" stop-color="#9ca3af"/><stop offset=".45" stop-color="#9ca3af"/><stop offset="1" stop-color="#6b7280"/></linearGradient><linearGradient id="c" x1="22.56" x2="39.2" y1="21.96" y2="50.8" gradientUnits="userSpaceOnUse"><stop offset="0" stop-color="#f3f7fe"/><stop offset=".45" stop-color="#f3f7fe"/><stop offset="1" stop-color="#deeafb"/></linearGradient><linearGradient id="a" x1="27.5" x2="36.5" y1="50.21" y2="65.79" gradientUnits="userSpaceOnUse"><stop offset="0" stop-color="#d4d7dd"/><stop offset=".45" stop-color="#d4d7dd"/><stop offset="1" stop-color="#bec1c6"/></linearGradient><linearGradient id="d" y1="44.21" y2="59.79" xlink:href="#a"/></defs><path fill="url(#b)" stroke="#848b98" stroke-miterlimit="10" stroke-width=".5" d="M34.23 33.45a4.05 4.05 0 0 0 4.05 4h16.51a4.34 4.34 0 0 0 .81-8.61 3.52 3.52 0 0 0 .06-.66 4.06 4.06 0 0 0-6.13-3.48 6.08 6.08 0 0 0-11.25 3.19 6.34 6.34 0 0 0 .18 1.46h-.18a4.05 4.05 0 0 0-4.05 4.1z"/><path fill="url(#c)" stroke="#e6effc" stroke-miterlimit="10" stroke-width=".5" d="M46.5 31.5h-.32a10.49 10.49 0 0 0-19.11-8 7 7 0 0 0-10.57 6 7.21 7.21 0 0 0 .1 1.14A7.5 7.5 0 0 0 18 45.5a4.19 4.19 0 0 0 .5 0h28a7 7 0 0 0 0-14z"/><path fill="none" stroke="url(#a)" stroke-linecap="round" stroke-miterlimit="10" stroke-width="3" d="M17 58h30"/><path fill="none" stroke="url(#d)" stroke-linecap="round" stroke-miterlimit="10" stroke-width="3" d="M17 52h30"/></svg>