<svg xmlns="http://www.w3.org/2000/svg" xmlns:xlink="http://www.w3.org/1999/xlink" viewBox="0 0 512 512"><defs><linearGradient id="a" x1="99.5" x2="232.6" y1="30.7" y2="261.4" gradientUnits="userSpaceOnUse"><stop offset="0" stop-color="#f3f7fe"/><stop offset=".5" stop-color="#f3f7fe"/><stop offset="1" stop-color="#deeafb"/></linearGradient><linearGradient id="b" x1="6.5" x2="18.5" y1="2.1" y2="22.9" gradientUnits="userSpaceOnUse"><stop offset="0" stop-color="#86c3db"/><stop offset=".5" stop-color="#86c3db"/><stop offset="1" stop-color="#5eafcf"/></linearGradient><linearGradient xlink:href="#b" id="c" x1="62.5" x2="74.5" y1="92.1" y2="112.9"/><linearGradient xlink:href="#b" id="d" x1="118.5" x2="130.5" y1="32.1" y2="52.9"/><linearGradient id="e" x1="78" x2="118" y1="63.4" y2="132.7" gradientUnits="userSpaceOnUse"><stop offset="0" stop-color="#fbbf24"/><stop offset=".5" stop-color="#fbbf24"/><stop offset="1" stop-color="#f59e0b"/></linearGradient><symbol id="g" viewBox="0 0 196 196"><circle cx="98" cy="98" r="40" fill="url(#e)" stroke="#f8af18" stroke-miterlimit="10" stroke-width="4"/><path fill="none" stroke="#fbbf24" stroke-linecap="round" stroke-miterlimit="10" stroke-width="12" d="M98 31.4V6m0 184v-25.4M145.1 51l18-17.9M33 163l18-17.9M51 51 33 33m130.1 130.1-18-18M6 98h25.4M190 98h-25.4"/></symbol><symbol id="h" viewBox="0 0 350 222"><path fill="url(#a)" stroke="#e6effc" stroke-miterlimit="10" stroke-width="6" d="m291 107-2.5.1A83.9 83.9 0 00135.6 43 56 56 0 0051 91a56.6 56.6 0 00.8 9A60 60 0 0063 219l4-.2v.2h224a56 56 0 000-112Z"/></symbol><symbol id="f" viewBox="0 0 363 258"><use xlink:href="#g" width="196" height="196"/><use xlink:href="#h" width="350" height="222" transform="translate(13 36)"/></symbol><symbol id="i" viewBox="0 0 137 115"><path fill="url(#b)" stroke="#86c3db" stroke-miterlimit="10" d="M12.5.5a12 12 0 1012 12 12 12 0 00-12-12Z"/><path fill="url(#c)" stroke="#86c3db" stroke-miterlimit="10" d="M68.5 90.5a12 12 0 1012 12 12 12 0 00-12-12Z"/><path fill="url(#d)" stroke="#86c3db" stroke-miterlimit="10" d="M124.5 30.5a12 12 0 1012 12 12 12 0 00-12-12Z"/></symbol></defs><use xlink:href="#f" width="363" height="258" transform="translate(68 109)"/><use xlink:href="#i" width="137" height="115" transform="translate(187.5 349.5)"/></svg>