<svg xmlns="http://www.w3.org/2000/svg" xmlns:xlink="http://www.w3.org/1999/xlink" viewBox="0 0 512 512"><defs><linearGradient id="c" x1="99.5" x2="232.6" y1="30.7" y2="261.4" gradientUnits="userSpaceOnUse"><stop offset="0" stop-color="#f3f7fe"/><stop offset=".5" stop-color="#f3f7fe"/><stop offset="1" stop-color="#deeafb"/></linearGradient><linearGradient id="a" x1="1391.9" x2="1401.4" y1="-1146.9" y2="-1122.2" gradientTransform="rotate(-9 8002.565 8259.08)" gradientUnits="userSpaceOnUse"><stop offset="0" stop-color="#0b65ed"/><stop offset=".5" stop-color="#0a5ad4"/><stop offset="1" stop-color="#0950bc"/></linearGradient><linearGradient xlink:href="#a" id="f" x1="1434.7" x2="1444.2" y1="-1059.1" y2="-1034.4"/><linearGradient xlink:href="#a" id="g" x1="1497.8" x2="1507.3" y1="-1099.7" y2="-1075.1"/><linearGradient id="b" x1="34.7" x2="119.2" y1="18.6" y2="165" gradientUnits="userSpaceOnUse"><stop offset="0" stop-color="#86c3db"/><stop offset=".5" stop-color="#86c3db"/><stop offset="1" stop-color="#5eafcf"/></linearGradient><symbol id="d" viewBox="0 0 172 172"><path fill="url(#b)" stroke="#72b9d5" stroke-linecap="round" stroke-linejoin="round" stroke-width="4" d="M160.6 107.4a84.8 84.8 0 01-85.4-84.3A83.3 83.3 0 0178 2 84.7 84.7 0 002 85.7 84.8 84.8 0 0087.4 170a85.2 85.2 0 0082.6-63.1 88 88 0 01-9.4.5Z"/></symbol><symbol id="e" viewBox="0 0 350 222"><path fill="url(#c)" stroke="#e6effc" stroke-miterlimit="10" stroke-width="6" d="m291 107-2.5.1A83.9 83.9 0 00135.6 43 56 56 0 0051 91a56.6 56.6 0 00.8 9A60 60 0 0063 219l4-.2v.2h224a56 56 0 000-112Z"/></symbol><symbol id="h" viewBox="0 0 351 246"><use xlink:href="#d" width="172" height="172"/><use xlink:href="#e" width="350" height="222" transform="translate(1 24)"/></symbol><symbol id="i" viewBox="0 0 129 109"><path fill="url(#a)" stroke="#0a5ad4" stroke-miterlimit="10" d="M8.5 28.5a8 8 0 01-8-8v-12a8 8 0 0116 0v12a8 8 0 01-8 8Z"/><path fill="url(#f)" stroke="#0a5ad4" stroke-miterlimit="10" d="M64.5 108.5a8 8 0 01-8-8v-12a8 8 0 0116 0v12a8 8 0 01-8 8Z"/><path fill="url(#g)" stroke="#0a5ad4" stroke-miterlimit="10" d="M120.5 58.5a8 8 0 01-8-8v-12a8 8 0 0116 0v12a8 8 0 01-8 8Z"/></symbol></defs><use xlink:href="#h" width="351" height="246" transform="translate(80 121)"/><use xlink:href="#i" width="129" height="109" transform="translate(191.5 347.5)"/></svg>