<svg xmlns="http://www.w3.org/2000/svg" viewBox="0 0 512 512"><defs><linearGradient id="a" x1="213.8" x2="309" y1="170.5" y2="335.3" gradientUnits="userSpaceOnUse"><stop offset="0" stop-color="#f87171"/><stop offset=".5" stop-color="#f87171"/><stop offset="1" stop-color="#dc2626"/></linearGradient></defs><path fill="url(#a)" stroke="#ef4444" stroke-miterlimit="10" stroke-width="4" d="M256 364a12 12 0 01-12-12V193l-25 29.9a12 12 0 11-18.5-15.4l46.3-55.2a12 12 0 015-3.5 12.5 12.5 0 012.2-.6 11.9 11.9 0 015.7.4l.6.3a12 12 0 014.9 3.5l46.2 55A12 12 0 11293 223l-25-30v159a12 12 0 01-12 12Z"/></svg>