<svg xmlns="http://www.w3.org/2000/svg" viewBox="0 0 512 512"><defs><linearGradient id="a" x1="203" x2="298.2" y1="176.7" y2="341.5" gradientUnits="userSpaceOnUse"><stop offset="0" stop-color="#3392d6"/><stop offset=".5" stop-color="#3392d6"/><stop offset="1" stop-color="#2477b2"/></linearGradient></defs><path fill="url(#a)" stroke="#2885c7" stroke-miterlimit="10" stroke-width="4" d="M256 364a12 12 0 01-2.1-.2 11.8 11.8 0 01-1.5-.4 12 12 0 01-5.5-3.6l-46.3-55.2a12 12 0 1118.4-15.4l25 29.8V160a12 12 0 0124 0v159l25-29.9a12 12 0 1118.5 15.4l-46.3 55.2a12 12 0 01-4.8 3.5l-.7.2a11.9 11.9 0 01-3.7.6Z"/></svg>