<svg xmlns="http://www.w3.org/2000/svg" viewBox="0 0 64 64"><defs><linearGradient id="a" x1="23.29" x2="38.11" y1="23.36" y2="49.02" gradientUnits="userSpaceOnUse"><stop offset="0" stop-color="#f87171"/><stop offset=".45" stop-color="#f87171"/><stop offset="1" stop-color="#dc2626"/></linearGradient><linearGradient id="b" x1="24.62" x2="37.18" y1="26.06" y2="47.82" gradientUnits="userSpaceOnUse"><stop offset="0" stop-color="#fbbf24"/><stop offset=".45" stop-color="#fbbf24"/><stop offset="1" stop-color="#f59e0b"/></linearGradient><linearGradient id="c" x1="18" x2="46" y1="34.25" y2="34.25" gradientUnits="userSpaceOnUse"><stop offset="0" stop-color="#51cf66"/><stop offset=".45" stop-color="#51cf66"/><stop offset="1" stop-color="#37b24d"/></linearGradient><linearGradient id="d" x1="39.75" x2="49.01" y1="32.41" y2="48.46" gradientUnits="userSpaceOnUse"><stop offset="0" stop-color="#f3f7fe"/><stop offset=".45" stop-color="#f3f7fe"/><stop offset="1" stop-color="#deeafb"/></linearGradient></defs><path fill="none" stroke="url(#a)" stroke-miterlimit="10" stroke-width="3" d="M13.5 41A18.25 18.25 0 0 1 32 23a18.25 18.25 0 0 1 18.5 18"/><path fill="none" stroke="url(#b)" stroke-miterlimit="10" stroke-width="3" d="M16.5 41A15.26 15.26 0 0 1 32 26a15.26 15.26 0 0 1 15.5 15"/><path fill="none" stroke="url(#c)" stroke-miterlimit="10" stroke-width="3" d="M19.5 41A12.26 12.26 0 0 1 32 29a12.26 12.26 0 0 1 12.5 12"/><path fill="url(#d)" stroke="#e6effc" stroke-miterlimit="10" stroke-width=".5" d="M53.09 37.72h-.17a5.86 5.86 0 0 0-10.67-4.46 3.9 3.9 0 0 0-5.9 3.34 4.23 4.23 0 0 0 0 .63 4.17 4.17 0 0 0 .79 8.26h15.9a3.89 3.89 0 1 0 0-7.78z"/></svg>