<svg xmlns="http://www.w3.org/2000/svg" xmlns:xlink="http://www.w3.org/1999/xlink" viewBox="0 0 512 512"><defs><linearGradient id="a" x1="99.5" x2="232.6" y1="30.7" y2="261.4" gradientUnits="userSpaceOnUse"><stop offset="0" stop-color="#f3f7fe"/><stop offset=".5" stop-color="#f3f7fe"/><stop offset="1" stop-color="#deeafb"/></linearGradient><linearGradient id="b" x1="1389.9" x2="1399.3" y1="-1078.1" y2="-1053.5" gradientTransform="rotate(-9 8016.182 8229.021)" gradientUnits="userSpaceOnUse"><stop offset="0" stop-color="#0b65ed"/><stop offset=".5" stop-color="#0a5ad4"/><stop offset="1" stop-color="#0950bc"/></linearGradient><linearGradient xlink:href="#b" id="c" x1="1453" x2="1462.5" y1="-1118.7" y2="-1094.1"/><linearGradient xlink:href="#b" id="d" x1="1494.2" x2="1503.7" y1="-1021.1" y2="-996.4"/><linearGradient id="e" x1="11.4" x2="32.8" y1="5.9" y2="43.1" gradientUnits="userSpaceOnUse"><stop offset="0" stop-color="#86c3db"/><stop offset=".5" stop-color="#86c3db"/><stop offset="1" stop-color="#5eafcf"/></linearGradient><linearGradient xlink:href="#e" id="f" x1="67.4" x2="88.8" y1="95.9" y2="133.1"/><linearGradient xlink:href="#e" id="g" x1="123.4" x2="144.8" y1="45.9" y2="83.1"/><symbol id="h" viewBox="0 0 350 222"><path fill="url(#a)" stroke="#e6effc" stroke-miterlimit="10" stroke-width="6" d="m291 107-2.5.1A83.9 83.9 0 00135.6 43 56 56 0 0051 91a56.6 56.6 0 00.8 9A60 60 0 0063 219l4-.2v.2h224a56 56 0 000-112Z"/></symbol><symbol id="j" viewBox="0 0 156.2 139"><path fill="url(#e)" stroke="#86c3db" stroke-miterlimit="10" d="m41.7 31-5.8-3.3a13.7 13.7 0 000-6.5l5.8-3.2a4 4 0 001.5-5.5 4 4 0 00-5.6-1.5l-5.8 3.3a13.6 13.6 0 00-2.6-2 13.8 13.8 0 00-3-1.3V4.5a4 4 0 00-8.1 0v6.6a14.3 14.3 0 00-5.7 3.2L6.6 11A4 4 0 001 12.5 4 4 0 002.5 18l5.8 3.3a13.7 13.7 0 000 6.5L2.5 31A4 4 0 001 36.5a4 4 0 003.5 2 4 4 0 002-.5l5.8-3.3a13.6 13.6 0 002.6 2 13.8 13.8 0 003 1.2v6.6a4 4 0 008.2 0v-6.6a14.2 14.2 0 005.6-3.2l6 3.3a4 4 0 002 .5 4 4 0 003.4-2 4 4 0 00-1.4-5.5ZM19 29.7a6 6 0 01-2.3-8.2 6.1 6.1 0 015.3-3 6.2 6.2 0 013 .8 6 6 0 012.2 8.2 6.1 6.1 0 01-8.2 2.2Z"/><path fill="url(#f)" stroke="#86c3db" stroke-miterlimit="10" d="m97.7 121-5.8-3.3a13.7 13.7 0 000-6.5l5.8-3.2a4 4 0 001.5-5.5 4 4 0 00-5.6-1.5l-5.8 3.3a13.6 13.6 0 00-2.6-2 13.8 13.8 0 00-3-1.3v-6.5a4 4 0 00-8.1 0v6.6a14.3 14.3 0 00-5.7 3.2l-5.8-3.3a4 4 0 00-5.6 1.5 4 4 0 001.5 5.5l5.8 3.3a13.7 13.7 0 000 6.5l-5.8 3.2a4 4 0 00-1.5 5.5 4 4 0 003.5 2 4 4 0 002-.5l5.8-3.3a13.6 13.6 0 002.7 2 13.8 13.8 0 003 1.2v6.6a4 4 0 008 0V128a14.2 14.2 0 005.7-3.2l5.8 3.3a4 4 0 002 .5 4 4 0 003.5-2 4 4 0 00-1.3-5.5ZM75 119.7a6 6 0 01-2.3-8.2 6.1 6.1 0 015.3-3 6.2 6.2 0 013 .8 6 6 0 012.2 8.2 6.1 6.1 0 01-8.2 2.2Z"/><path fill="url(#g)" stroke="#86c3db" stroke-miterlimit="10" d="m153.7 71-5.8-3.3a13.7 13.7 0 000-6.5l5.8-3.2a4 4 0 001.5-5.5 4 4 0 00-5.6-1.5l-5.8 3.3a13.6 13.6 0 00-2.6-2 13.8 13.8 0 00-3-1.3v-6.5a4 4 0 00-8.1 0v6.6a14.3 14.3 0 00-5.7 3.2l-5.8-3.3a4 4 0 00-5.6 1.5 4 4 0 001.5 5.5l5.8 3.3a13.7 13.7 0 000 6.5l-5.8 3.2a4 4 0 00-1.5 5.5 4 4 0 003.5 2 4 4 0 002-.5l5.8-3.3a13.6 13.6 0 002.7 2 13.8 13.8 0 003 1.2v6.6a4 4 0 008 0v-6.6a14.2 14.2 0 005.7-3.2l5.8 3.3a4 4 0 002 .5 4 4 0 003.5-2 4 4 0 00-1.3-5.5ZM131 69.7a6 6 0 01-2.3-8.2 6.1 6.1 0 015.3-3 6.2 6.2 0 013 .8 6 6 0 012.2 8.2 6.1 6.1 0 01-8.2 2.2Z"/></symbol><symbol id="i" viewBox="0 0 156.2 139"><use xlink:href="#j" width="156.2" height="139"/><path fill="url(#b)" stroke="#0a5ad4" stroke-miterlimit="10" d="M22.1 98.5a8 8 0 01-8-8v-12a8 8 0 0116 0v12a8 8 0 01-8 8Z"/><path fill="url(#c)" stroke="#0a5ad4" stroke-miterlimit="10" d="M78.1 48.5a8 8 0 01-8-8v-12a8 8 0 0116 0v12a8 8 0 01-8 8Z"/><path fill="url(#d)" stroke="#0a5ad4" stroke-miterlimit="10" d="M134.1 138.5a8 8 0 01-8-8v-12a8 8 0 0116 0v12a8 8 0 01-8 8Z"/></symbol></defs><use xlink:href="#h" width="350" height="222" transform="translate(81 145)"/><use xlink:href="#i" width="156.2" height="139" transform="translate(177.9 337.5)"/></svg>