<svg xmlns="http://www.w3.org/2000/svg" xmlns:xlink="http://www.w3.org/1999/xlink" viewBox="0 0 64 64"><defs><linearGradient id="b" x1="22.56" x2="39.2" y1="21.96" y2="50.8" gradientUnits="userSpaceOnUse"><stop offset="0" stop-color="#f3f7fe"/><stop offset=".45" stop-color="#f3f7fe"/><stop offset="1" stop-color="#deeafb"/></linearGradient><linearGradient id="a" x1="30.5" x2="33.5" y1="48.4" y2="53.6" gradientUnits="userSpaceOnUse"><stop offset="0" stop-color="#b8bdc6"/><stop offset=".45" stop-color="#b8bdc6"/><stop offset="1" stop-color="#a5aab2"/></linearGradient><linearGradient id="c" x1="23.75" x2="28.25" y1="39.1" y2="46.9" xlink:href="#a"/><linearGradient id="d" x1="33" x2="39" y1="28.8" y2="39.2" xlink:href="#a"/></defs><path fill="url(#b)" stroke="#e6effc" stroke-miterlimit="10" stroke-width=".5" d="M46.5 31.5h-.32a10.49 10.49 0 0 0-19.11-8 7 7 0 0 0-10.57 6 7.21 7.21 0 0 0 .1 1.14A7.5 7.5 0 0 0 18 45.5a4.19 4.19 0 0 0 .5 0h28a7 7 0 0 0 0-14z"/><circle cx="32" cy="51" r="3" fill="url(#a)" stroke="#afb4bc" stroke-miterlimit="10" stroke-width=".5"/><circle cx="26" cy="43" r="4.5" fill="url(#c)" stroke="#afb4bc" stroke-miterlimit="10" stroke-width=".5"/><circle cx="36" cy="34" r="6" fill="url(#d)" stroke="#afb4bc" stroke-miterlimit="10" stroke-width=".5"/></svg>