<svg xmlns="http://www.w3.org/2000/svg" viewBox="0 0 64 64"><defs><linearGradient id="a" x1="23.49" x2="40.51" y1="17.26" y2="46.74" gradientUnits="userSpaceOnUse"><stop offset="0" stop-color="#fcd966"/><stop offset=".45" stop-color="#fcd966"/><stop offset="1" stop-color="#fccd34"/></linearGradient></defs><path fill="url(#a)" stroke="#fcd34d" stroke-linecap="round" stroke-linejoin="round" stroke-width=".5" d="m13.21 32.94 13.44 3.74a1 1 0 0 1 .67.67l3.74 13.44a1 1 0 0 0 1.88 0l3.74-13.44a1 1 0 0 1 .67-.67l13.44-3.74a1 1 0 0 0 0-1.88l-13.44-3.74a1 1 0 0 1-.67-.67l-3.74-13.44a1 1 0 0 0-1.88 0l-3.74 13.44a1 1 0 0 1-.67.67l-13.44 3.74a1 1 0 0 0 0 1.88z"/></svg>