<svg xmlns="http://www.w3.org/2000/svg" xmlns:xlink="http://www.w3.org/1999/xlink" viewBox="0 0 512 512"><defs><symbol id="e" viewBox="0 0 172 172"><path fill="url(#a)" stroke="#72b9d5" stroke-linecap="round" stroke-linejoin="round" stroke-width="4" d="M160.6 107.4a84.8 84.8 0 01-85.4-84.3A83.3 83.3 0 0178 2 84.7 84.7 0 002 85.7 84.8 84.8 0 0087.4 170a85.2 85.2 0 0082.6-63.1 88 88 0 01-9.4.5Z"/></symbol><symbol id="g" viewBox="0 0 72 168"><circle cx="36" cy="132" r="36" fill="#ef4444"/><path fill="none" stroke="#ef4444" stroke-linecap="round" stroke-miterlimit="10" stroke-width="24" d="M36 12v120"/></symbol><symbol id="h" viewBox="0 0 118 278"><path fill="url(#b)" stroke="url(#c)" stroke-linecap="round" stroke-linejoin="round" stroke-width="6" d="M115 218.2c0 31.4-25 56.8-56 56.8S3 249.6 3 218.2a57 57 0 0124-46.6V35.5a32 32 0 1164 0v136a57 57 0 0124 46.7ZM63 83h28M63 51h28m-28 64h28"/></symbol><symbol id="f" viewBox="0 0 118 278"><use xlink:href="#g" width="72" height="168" transform="translate(23 87)"/><use xlink:href="#h" width="118" height="278"/></symbol><linearGradient id="a" x1="34.7" x2="119.2" y1="18.6" y2="165" gradientUnits="userSpaceOnUse"><stop offset="0" stop-color="#86c3db"/><stop offset=".5" stop-color="#86c3db"/><stop offset="1" stop-color="#5eafcf"/></linearGradient><linearGradient id="b" x1="-7.2" x2="116.4" y1="36.3" y2="250.4" gradientUnits="userSpaceOnUse"><stop offset="0" stop-color="#515a69" stop-opacity=".1"/><stop offset=".5" stop-color="#6b7280" stop-opacity=".1"/><stop offset="1" stop-color="#384354" stop-opacity=".1"/></linearGradient><linearGradient id="c" x1="-8.7" x2="117.9" y1="33.7" y2="253" gradientUnits="userSpaceOnUse"><stop offset="0" stop-color="#d4d7dd"/><stop offset=".5" stop-color="#d4d7dd"/><stop offset="1" stop-color="#bec1c6"/></linearGradient><clipPath id="d"><path fill="none" d="M256 392c31 0 56-25.4 56-56.8a57 57 0 00-24-46.6V152.5a32.2 32.2 0 00-32-32.5V79.7h167.2V392Zm4-192h28m-28-32h28m-28 64h28"/></clipPath></defs><g clip-path="url(#d)"><use xlink:href="#e" width="172" height="172" transform="translate(228 120)"/></g><use xlink:href="#f" width="118" height="278" transform="translate(197 117)"/></svg>