<svg xmlns="http://www.w3.org/2000/svg" xmlns:xlink="http://www.w3.org/1999/xlink" viewBox="0 0 512 512"><defs><linearGradient id="a" x1="-7.2" x2="116.4" y1="36.3" y2="250.4" gradientUnits="userSpaceOnUse"><stop offset="0" stop-color="#515a69" stop-opacity=".1"/><stop offset=".5" stop-color="#6b7280" stop-opacity=".1"/><stop offset="1" stop-color="#384354" stop-opacity=".1"/></linearGradient><linearGradient id="b" x1="-8.7" x2="117.9" y1="33.7" y2="253" gradientUnits="userSpaceOnUse"><stop offset="0" stop-color="#d4d7dd"/><stop offset=".5" stop-color="#d4d7dd"/><stop offset="1" stop-color="#bec1c6"/></linearGradient><symbol id="c" viewBox="0 0 118 278"><path fill="url(#a)" stroke="url(#b)" stroke-linecap="round" stroke-linejoin="round" stroke-width="6" d="M115 218.2c0 31.4-25 56.8-56 56.8S3 249.6 3 218.2a57 57 0 0124-46.6V35.5a32 32 0 1164 0v136a57 57 0 0124 46.7ZM63 83h28M63 51h28m-28 64h28"/></symbol><symbol id="d" viewBox="0 0 99.5 70.9"><path fill="#374151" d="M19.4 0A18.7 18.7 0 000 19.3a18.9 18.9 0 0019.4 19.5 18.7 18.7 0 0014-5.6 18.8 18.8 0 005.4-14A18.7 18.7 0 0019.4 0Zm6.3 25.7a8.6 8.6 0 01-6.3 2.5 8.5 8.5 0 01-6.2-2.5 8.7 8.7 0 01-2.4-6.4A8.6 8.6 0 0113 13a8.4 8.4 0 016.3-2.5 8.4 8.4 0 018.7 8.8 8.7 8.7 0 01-2.4 6.4ZM99.5 17.9V2.6H47.4v68.3h18V44.7h28.9V30.1H65.4V17.9h34.1z"/></symbol></defs><use xlink:href="#c" width="118" height="278" transform="translate(197 117)"/><use xlink:href="#d" width="99.5" height="70.9" transform="translate(314 250)"/></svg>