<svg xmlns="http://www.w3.org/2000/svg" viewBox="0 0 64 64"><defs><linearGradient id="a" x1="26.68" x2="37.47" y1="28.46" y2="47.15" gradientUnits="userSpaceOnUse"><stop offset="0" stop-color="#3392d6"/><stop offset=".45" stop-color="#3392d6"/><stop offset="1" stop-color="#2477b2"/></linearGradient></defs><path fill="url(#a)" stroke="#2885c7" stroke-linecap="round" stroke-linejoin="round" stroke-width=".5" d="M47 34.33h-1c-1.36 0-2.61-1.46-3.25-2.67a.28.28 0 0 0-.5 0c-.64 1.21-1.89 2.67-3.25 2.67s-2.61-1.46-3.25-2.67a.28.28 0 0 0-.5 0c-.64 1.21-1.89 2.67-3.25 2.67s-2.61-1.46-3.25-2.67a.28.28 0 0 0-.5 0c-.64 1.21-1.89 2.67-3.25 2.67s-2.61-1.46-3.25-2.67a.28.28 0 0 0-.5 0c-.64 1.21-1.89 2.67-3.25 2.67h-1v6.13a2 2 0 0 0 2 2h26a2 2 0 0 0 2-2z"/><path fill="none" stroke="#374151" stroke-linecap="round" stroke-linejoin="round" stroke-width="2" d="M32 18.5v9l-3-3.45 3 3.45 3-3.45"/></svg>