<svg xmlns="http://www.w3.org/2000/svg" xmlns:xlink="http://www.w3.org/1999/xlink" viewBox="0 0 512 512"><defs><linearGradient id="a" x1="79.5" x2="165.8" y1="-22.3" y2="127.2" gradientUnits="userSpaceOnUse"><stop offset="0" stop-color="#3392d6"/><stop offset=".5" stop-color="#3392d6"/><stop offset="1" stop-color="#2477b2"/></linearGradient><symbol id="b" viewBox="0 0 244 92"><path fill="url(#a)" stroke="#2885c7" stroke-linecap="round" stroke-linejoin="round" stroke-width="4" d="M242 24.6h-8c-11 0-20.9-11.6-26-21.4a2.3 2.3 0 00-4 0c-5.2 9.8-15.1 21.4-26 21.4S157.1 13 152 3.2a2.3 2.3 0 00-4 0c-5.2 9.8-15.1 21.4-26 21.4S101.1 13 96 3.2a2.3 2.3 0 00-4 0C86.7 13 77 24.6 66 24.6S45 13 40 3.2a2.3 2.3 0 00-4 0C30.7 13 21 24.6 10 24.6H2v49.1A16.1 16.1 0 0018 90h208a16.1 16.1 0 0016-16.3Z"/></symbol></defs><path fill="none" stroke="#374151" stroke-linecap="round" stroke-linejoin="round" stroke-width="12" d="M256 146v72l-24-27.6 24 27.6 24-27.6"/><use xlink:href="#b" width="244" height="92" transform="translate(134 242)"/></svg>