<svg xmlns="http://www.w3.org/2000/svg" viewBox="0 0 64 64"><defs><linearGradient id="a" x1="28.15" x2="35.85" y1="19.33" y2="32.67" gradientUnits="userSpaceOnUse"><stop offset="0" stop-color="#ffa94d"/><stop offset=".45" stop-color="#ffa94d"/><stop offset="1" stop-color="#fd7e14"/></linearGradient></defs><path fill="#374151" d="M24.22 46.89a.39.39 0 0 1 .08.28v5.66a.41.41 0 0 1-.08.28.37.37 0 0 1-.29.09h-.73a.39.39 0 0 1-.29-.09.41.41 0 0 1-.08-.28V48.6l-.87.5c-.25.14-.43.1-.56-.14l-.31-.57a.37.37 0 0 1-.09-.29c0-.06.1-.13.23-.21L22.9 47a1 1 0 0 1 .52-.15h.51a.37.37 0 0 1 .29.04zm5.5 0a.39.39 0 0 1 .08.28v.6a.3.3 0 0 1-.37.37h-2.37l-.09.94h.83a2.27 2.27 0 0 1 1.69.59 2.23 2.23 0 0 1-.06 3 2.31 2.31 0 0 1-1.7.62 2.37 2.37 0 0 1-2.52-1.49.43.43 0 0 1 0-.29.42.42 0 0 1 .24-.17l.7-.25a.36.36 0 0 1 .28 0 .46.46 0 0 1 .18.25 1 1 0 0 0 .39.48 1.31 1.31 0 0 0 .71.16.78.78 0 0 0 .84-.85.72.72 0 0 0-.23-.56.94.94 0 0 0-.62-.2h-1.9a.41.41 0 0 1-.31-.1.45.45 0 0 1-.07-.33l.27-2.62a.58.58 0 0 1 .16-.41.61.61 0 0 1 .43-.12h3.15a.39.39 0 0 1 .29.1zm3.75 3.36a.39.39 0 0 1 .08.29v.55a.39.39 0 0 1-.08.29.42.42 0 0 1-.29.08h-2a.41.41 0 0 1-.28-.08.39.39 0 0 1-.08-.29v-.55a.39.39 0 0 1 .08-.29.41.41 0 0 1 .28-.08h2a.42.42 0 0 1 .29.08zm3.4-3.36c.06 0 .08.14.08.28v5.66a.31.31 0 0 1-.36.37h-.73a.37.37 0 0 1-.29-.09.36.36 0 0 1-.08-.28V48.6l-.88.5a.36.36 0 0 1-.56-.14l-.31-.57a.37.37 0 0 1-.05-.29.6.6 0 0 1 .23-.21l1.63-.89a1 1 0 0 1 .52-.15h.52a.36.36 0 0 1 .28.04zm1.86.27a2.65 2.65 0 0 1 1.7-.49 2.8 2.8 0 0 1 1.74.46 1.55 1.55 0 0 1 .59 1.3 1.59 1.59 0 0 1-.76 1.38 1.67 1.67 0 0 1 1 1.57 1.77 1.77 0 0 1-.63 1.43 2.92 2.92 0 0 1-1.92.52c-1.68 0-2.52-.6-2.52-1.79a1.68 1.68 0 0 1 .91-1.54 1.71 1.71 0 0 1-.73-1.49 1.68 1.68 0 0 1 .62-1.35zm2.68 4a.77.77 0 0 0-.07-.16.6.6 0 0 0-.14-.13l-.2-.07-.22-.08-.24-.06-.28-.07-.3-.07a.93.93 0 0 0-.62.88c0 .46.35.69 1.06.69a1.26 1.26 0 0 0 .77-.18.59.59 0 0 0 .24-.51.65.65 0 0 0 0-.21zm-.31-3.11a1.09 1.09 0 0 0-.65-.17c-.57 0-.86.22-.86.66a.54.54 0 0 0 .2.45 1.92 1.92 0 0 0 .62.27l.38.1a.89.89 0 0 0 .55-.82.55.55 0 0 0-.24-.46z"/><circle cx="32" cy="26" r="7.7" fill="url(#a)" stroke="#ff922b" stroke-miterlimit="10" stroke-width=".5"/><path fill="none" stroke="#ffa94d" stroke-linecap="round" stroke-miterlimit="10" stroke-width="3" d="M32 14.05V9.5m0 33V38m8.45-20.4 3.22-3.22M20.33 37.67l3.22-3.22m0-16.9-3.22-3.22m23.34 23.34-3.22-3.22M20.05 26H15.5m33 0H44"/></svg>