<svg xmlns="http://www.w3.org/2000/svg" xmlns:xlink="http://www.w3.org/1999/xlink" viewBox="0 0 512 512"><defs><linearGradient id="a" x1="54.5" x2="89.2" y1="2.2" y2="62.2" gradientUnits="userSpaceOnUse"><stop offset="0" stop-color="#d4d7dd"/><stop offset=".5" stop-color="#d4d7dd"/><stop offset="1" stop-color="#bec1c6"/></linearGradient><linearGradient xlink:href="#a" id="b" x1="31.4" x2="68.3" y1="37.6" y2="101.4"/><linearGradient xlink:href="#a" id="c" x1="-2197.1" x2="-2077" y1="5168.6" y2="5376.7" gradientTransform="rotate(45 5106 5660.004)"/><linearGradient id="d" x1="-2191.4" x2="-2110.1" y1="5157.8" y2="5298.6" gradientTransform="rotate(45 5106 5660.004)" gradientUnits="userSpaceOnUse"><stop offset="0" stop-color="#f87171"/><stop offset=".5" stop-color="#f87171"/><stop offset="1" stop-color="#dc2626"/></linearGradient><symbol id="e" viewBox="0 0 138 96"><path fill="none" stroke="url(#a)" stroke-linecap="round" stroke-miterlimit="10" stroke-width="12" d="M105.2 10.8A15.6 15.6 0 11116.4 37H6"/><path fill="none" stroke="url(#b)" stroke-linecap="round" stroke-miterlimit="10" stroke-width="12" d="M60.7 85.2A15.6 15.6 0 1071.9 59H6.6"/></symbol></defs><path fill="none" stroke="url(#c)" stroke-linecap="round" stroke-linejoin="round" stroke-width="12" d="M220 360a24 24 0 11-34-34l1.8-1.8L343 169"/><path fill="url(#d)" stroke="#ef4444" stroke-miterlimit="10" stroke-width="4" d="M354.3 327.4c37.5-37.5 29.9-105.8-17-152.7s-115.3-54.5-152.8-17l13.2 4.9a71.2 71.2 0 0141 41.7l4 11.5 7.3 2.4a70.9 70.9 0 0143.8 43.8l2.3 7.2 11.6 4a71.1 71.1 0 0141.7 41Z"/><path fill="none" stroke="#ef4444" stroke-linecap="round" stroke-linejoin="round" stroke-width="2" d="M296.1 269.3c42.7-33.2 41.2-94.6 41.2-94.6s-61.4-1.5-94.6 41.1"/><use xlink:href="#e" width="138" height="96" transform="translate(62.5 201)"/></svg>