<svg xmlns="http://www.w3.org/2000/svg" xmlns:xlink="http://www.w3.org/1999/xlink" viewBox="0 0 512 512"><defs><linearGradient id="a" x1="54.5" x2="89.2" y1="2.2" y2="62.2" gradientUnits="userSpaceOnUse"><stop offset="0" stop-color="#d4d7dd"/><stop offset=".5" stop-color="#d4d7dd"/><stop offset="1" stop-color="#bec1c6"/></linearGradient><linearGradient xlink:href="#a" id="b" x1="31.4" x2="68.3" y1="37.6" y2="101.4"/><linearGradient xlink:href="#a" id="c" x1="-2350.6" x2="-2230.5" y1="4798.1" y2="5006.2" gradientTransform="rotate(45 4582.002 5659.997)"/><linearGradient id="d" x1="-2241.9" x2="-2160.7" y1="6227.6" y2="6368.4" gradientTransform="matrix(.71 .71 .71 -.71 -2558 6175.57)" gradientUnits="userSpaceOnUse"><stop offset="0" stop-color="#f87171"/><stop offset=".5" stop-color="#f87171"/><stop offset="1" stop-color="#dc2626"/></linearGradient><symbol id="e" viewBox="0 0 138 96"><path fill="none" stroke="url(#a)" stroke-linecap="round" stroke-miterlimit="10" stroke-width="12" d="M105.2 10.8A15.6 15.6 0 11116.4 37H6"/><path fill="none" stroke="url(#b)" stroke-linecap="round" stroke-miterlimit="10" stroke-width="12" d="M60.7 85.2A15.6 15.6 0 1071.9 59H6.6"/></symbol></defs><path fill="none" stroke="url(#c)" stroke-linecap="round" stroke-linejoin="round" stroke-width="12" d="M220 360a24 24 0 11-34-34l1.8-1.8L343 169"/><path fill="url(#d)" stroke="#ef4444" stroke-miterlimit="10" stroke-width="4" d="M442.8 240c-37.5 37.4-105.9 29.8-152.7-17s-54.5-115.3-17-152.8l4.9 13.1a71.2 71.2 0 0041.7 41l11.6 4 2.3 7.3a70.8 70.8 0 0043.8 43.8l7.3 2.4 4 11.5a71.1 71.1 0 0041 41.7Z"/><path fill="none" stroke="#ef4444" stroke-linecap="round" stroke-linejoin="round" stroke-width="2" d="M384.6 181.8c-33.1 42.6-94.5 41.1-94.5 41.1s-1.5-61.4 41.1-94.6"/><use xlink:href="#e" width="138" height="96" transform="translate(62.5 201)"/></svg>