<svg xmlns="http://www.w3.org/2000/svg" viewBox="0 0 64 64"><defs><linearGradient id="a" x1="25.32" x2="40.58" y1="20.7" y2="47.15" gradientUnits="userSpaceOnUse"><stop offset="0" stop-color="#d4d7dd"/><stop offset=".45" stop-color="#d4d7dd"/><stop offset="1" stop-color="#bec1c6"/></linearGradient><linearGradient id="b" x1="26.16" x2="36.32" y1="19.57" y2="37.16" gradientUnits="userSpaceOnUse"><stop offset="0" stop-color="#f87171"/><stop offset=".45" stop-color="#f87171"/><stop offset="1" stop-color="#dc2626"/></linearGradient></defs><path fill="none" stroke="url(#a)" stroke-linecap="round" stroke-linejoin="round" stroke-width="2" d="M38 45.75a3 3 0 0 1-6 0V18"/><path fill="url(#b)" stroke="#ef4444" stroke-miterlimit="10" stroke-width=".5" d="M47 31c0-6.63-6.72-12-15-12s-15 5.37-15 12l1.59-.73a8.91 8.91 0 0 1 7.31.06l1.38.67.85-.44a8.84 8.84 0 0 1 7.74 0l.85.44 1.38-.67a8.91 8.91 0 0 1 7.31-.06z"/><path fill="none" stroke="#ef4444" stroke-linecap="round" stroke-linejoin="round" stroke-width=".5" d="M36.72 31C37.56 24.3 32 19 32 19s-5.56 5.3-4.72 12"/></svg>