<svg xmlns="http://www.w3.org/2000/svg" viewBox="0 0 64 64"><defs><clipPath id="a"><path fill="none" d="M8 8h48v24H41a9 9 0 0 0-9 9v15H8z"/></clipPath><linearGradient id="b" x1="26.75" x2="37.25" y1="22.91" y2="41.09" gradientUnits="userSpaceOnUse"><stop offset="0" stop-color="#fbbf24"/><stop offset=".45" stop-color="#fbbf24"/><stop offset="1" stop-color="#f59e0b"/></linearGradient></defs><g stroke-miterlimit="10" clip-path="url(#a)"><circle cx="32" cy="32" r="10.5" fill="url(#b)" stroke="#f8af18" stroke-width=".5"/><path fill="none" stroke="#fbbf24" stroke-linecap="round" stroke-width="3" d="M32 15.71V9.5m0 45v-6.21m11.52-27.81 4.39-4.39M16.09 47.91l4.39-4.39m0-23-4.39-4.39m31.82 31.78-4.39-4.39M15.71 32H9.5m45 0h-6.21"/><path fill="none" stroke="#f8af18" stroke-width=".5" d="M31.75 42.25V41A9.25 9.25 0 0 1 41 31.75h1.25"/></g><rect width="18" height="18" x="35" y="35" fill="#ffb800" rx="6"/><path fill="#fff" d="M47.4 44.87a.53.53 0 0 1 .1.36v.63a.55.55 0 0 1-.1.36.54.54 0 0 1-.38.1h-.64v1.22a.5.5 0 0 1-.11.36.51.51 0 0 1-.37.1h-.81a.51.51 0 0 1-.37-.1.5.5 0 0 1-.11-.36v-1.22H41a.54.54 0 0 1-.38-.1.5.5 0 0 1-.1-.36v-.56a1.44 1.44 0 0 1 0-.35.92.92 0 0 1 .17-.25l3.66-4.37a1 1 0 0 1 .3-.26A.81.81 0 0 1 45 40h.86a.51.51 0 0 1 .37.1.5.5 0 0 1 .11.36v4.31H47a.54.54 0 0 1 .4.1zm-4.79-.1h2v-2.38z"/></svg>