<svg xmlns="http://www.w3.org/2000/svg" viewBox="0 0 64 64"><defs><clipPath id="a"><path fill="none" d="M8 8h48v24H41a9 9 0 0 0-9 9v15H8z"/></clipPath><linearGradient id="b" x1="26.75" x2="37.25" y1="22.91" y2="41.09" gradientUnits="userSpaceOnUse"><stop offset="0" stop-color="#fbbf24"/><stop offset=".45" stop-color="#fbbf24"/><stop offset="1" stop-color="#f59e0b"/></linearGradient></defs><g stroke-miterlimit="10" clip-path="url(#a)"><circle cx="32" cy="32" r="10.5" fill="url(#b)" stroke="#f8af18" stroke-width=".5"/><path fill="none" stroke="#fbbf24" stroke-linecap="round" stroke-width="3" d="M32 15.71V9.5m0 45v-6.21m11.52-27.81 4.39-4.39M16.09 47.91l4.39-4.39m0-23-4.39-4.39m31.82 31.78-4.39-4.39M15.71 32H9.5m45 0h-6.21"/><path fill="none" stroke="#f8af18" stroke-width=".5" d="M31.75 42.25V41A9.25 9.25 0 0 1 41 31.75h1.25"/></g><rect width="18" height="18" x="35" y="35" fill="#9936d4" rx="6"/><path fill="#fff" d="M42.9 40.1a.5.5 0 0 1 .1.36v7.08a.5.5 0 0 1-.1.36.46.46 0 0 1-.35.1h-.89a.46.46 0 0 1-.35-.1.5.5 0 0 1-.1-.36v-5.29l-1.07.62a.42.42 0 0 1-.68-.18l-.39-.69a.43.43 0 0 1 0-.35.56.56 0 0 1 .28-.27l2-1.18a1.18 1.18 0 0 1 .63-.18h.63a.46.46 0 0 1 .29.08zm5 0a.5.5 0 0 1 .1.36v7.08a.5.5 0 0 1-.1.36.46.46 0 0 1-.35.1h-.89a.46.46 0 0 1-.35-.1.5.5 0 0 1-.1-.36v-5.29l-1.07.62a.42.42 0 0 1-.68-.18l-.38-.69a.45.45 0 0 1-.07-.35.64.64 0 0 1 .29-.27l2-1.18a1.24 1.24 0 0 1 .64-.18h.63a.46.46 0 0 1 .33.08z"/></svg>