<svg xmlns="http://www.w3.org/2000/svg" xmlns:xlink="http://www.w3.org/1999/xlink" viewBox="0 0 512 512"><defs><linearGradient id="a" x1="150" x2="234" y1="119.2" y2="264.8" gradientUnits="userSpaceOnUse"><stop offset="0" stop-color="#fbbf24"/><stop offset=".5" stop-color="#fbbf24"/><stop offset="1" stop-color="#f59e0b"/></linearGradient><clipPath id="b"><path fill="none" d="M64 64h384v192H328a72 72 0 00-72 72v120H64Z"/></clipPath><symbol id="c" viewBox="0 0 384 384"><circle cx="192" cy="192" r="84" fill="url(#a)" stroke="#f8af18" stroke-miterlimit="10" stroke-width="6"/><path fill="none" stroke="#fbbf24" stroke-linecap="round" stroke-miterlimit="10" stroke-width="24" d="M192 61.7V12m0 360v-49.7m92.2-222.5 35-35M64.8 319.2l35.1-35.1m0-184.4-35-35m254.5 254.5-35.1-35.1M61.7 192H12m360 0h-49.7"/></symbol></defs><g clip-path="url(#b)"><use xlink:href="#c" width="384" height="384" transform="translate(64 64)"/><path fill="none" stroke="#f8af18" stroke-miterlimit="10" stroke-width="6" d="M254 338v-10a74 74 0 0174-74h10"/></g><rect width="144" height="144" x="280" y="280" fill="#ff3c00" rx="48"/><path fill="#fff" d="M373.4 382.1q-7.9 5.9-21.4 5.9t-21.4-5.9a19 19 0 01-7.9-16 16.2 16.2 0 013.5-10.7 17.7 17.7 0 019.9-5.9v-.2a14.8 14.8 0 01-7.5-5.6 15.3 15.3 0 01-2.7-9 16 16 0 016.8-13.7q7-5 19.3-5t19.3 5a16 16 0 017 13.7 15.4 15.4 0 01-2.8 9.1 14.3 14.3 0 01-7.4 5.5v.3a18.1 18.1 0 019.8 5.9 16.2 16.2 0 013.5 10.6 19 19 0 01-8 16Zm-21.3-7q5.6 0 9-2.5a8.5 8.5 0 003.2-7.1 8.5 8.5 0 00-3.2-7.1c-2.2-1.7-5.2-2.5-9-2.5s-7 .8-9.2 2.5a8.5 8.5 0 00-3.2 7 8.4 8.4 0 003.3 7.2 15 15 0 009 2.5Zm0-30.3q5 0 7.8-2.3a7.4 7.4 0 002.9-6.1 7 7 0 00-2.8-6 13 13 0 00-8-2q-10.7 0-10.7 8a7.4 7.4 0 002.8 6.2q2.8 2.1 8 2.1Z"/></svg>