<svg xmlns="http://www.w3.org/2000/svg" viewBox="0 0 64 64"><defs><clipPath id="a"><path fill="none" d="M8 8h48v24H41a9 9 0 0 0-9 9v15H8z"/></clipPath><linearGradient id="b" x1="26.75" x2="37.25" y1="22.91" y2="41.09" gradientUnits="userSpaceOnUse"><stop offset="0" stop-color="#fbbf24"/><stop offset=".45" stop-color="#fbbf24"/><stop offset="1" stop-color="#f59e0b"/></linearGradient></defs><g stroke-miterlimit="10" clip-path="url(#a)"><circle cx="32" cy="32" r="10.5" fill="url(#b)" stroke="#f8af18" stroke-width=".5"/><path fill="none" stroke="#fbbf24" stroke-linecap="round" stroke-width="3" d="M32 15.71V9.5m0 45v-6.21m11.52-27.81 4.39-4.39M16.09 47.91l4.39-4.39m0-23-4.39-4.39m31.82 31.78-4.39-4.39M15.71 32H9.5m45 0h-6.21"/><path fill="none" stroke="#f8af18" stroke-width=".5" d="M31.75 42.25V41A9.25 9.25 0 0 1 41 31.75h1.25"/></g><rect width="18" height="18" x="35" y="35" fill="#ff8d00" rx="6"/><path fill="#fff" d="M46.9 40.1a.5.5 0 0 1 .1.36V41a1.51 1.51 0 0 1-.15.65l-2.8 5.93a.61.61 0 0 1-.27.34 1.88 1.88 0 0 1-.6.07h-.92c-.28 0-.36-.15-.23-.46l2.79-5.87h-3.36a.53.53 0 0 1-.36-.1.49.49 0 0 1-.1-.35v-.76a.5.5 0 0 1 .1-.36.48.48 0 0 1 .36-.1h5.07a.53.53 0 0 1 .37.11z"/></svg>