<svg xmlns="http://www.w3.org/2000/svg" viewBox="0 0 64 64"><defs><clipPath id="a"><path fill="none" d="M8 8h48v24H41a9 9 0 0 0-9 9v15H8z"/></clipPath><linearGradient id="b" x1="26.75" x2="37.25" y1="22.91" y2="41.09" gradientUnits="userSpaceOnUse"><stop offset="0" stop-color="#fbbf24"/><stop offset=".45" stop-color="#fbbf24"/><stop offset="1" stop-color="#f59e0b"/></linearGradient></defs><g stroke-miterlimit="10" clip-path="url(#a)"><circle cx="32" cy="32" r="10.5" fill="url(#b)" stroke="#f8af18" stroke-width=".5"/><path fill="none" stroke="#fbbf24" stroke-linecap="round" stroke-width="3" d="M32 15.71V9.5m0 45v-6.21m11.52-27.81 4.39-4.39M16.09 47.91l4.39-4.39m0-23-4.39-4.39m31.82 31.78-4.39-4.39M15.71 32H9.5m45 0h-6.21"/><path fill="none" stroke="#f8af18" stroke-width=".5" d="M31.75 42.25V41A9.25 9.25 0 0 1 41 31.75h1.25"/></g><rect width="18" height="18" x="35" y="35" fill="#ff3c00" rx="6"/><path fill="#fff" d="M42 40.6a3 3 0 0 1 2-.6 3.26 3.26 0 0 1 2.06.55 1.87 1.87 0 0 1 .7 1.57 1.91 1.91 0 0 1-.86 1.65 2 2 0 0 1 1.1 1.88 2.12 2.12 0 0 1-.74 1.72A3.45 3.45 0 0 1 44 48c-2 0-3-.72-3-2.15A2 2 0 0 1 42.11 44a2 2 0 0 1-.87-1.78A2 2 0 0 1 42 40.6zm3.17 4.83a.48.48 0 0 0-.09-.19.53.53 0 0 0-.17-.16L44.7 45a1.58 1.58 0 0 0-.26-.1l-.28-.07-.33-.08-.35-.08a1.09 1.09 0 0 0-.73 1c0 .55.41.83 1.24.83a1.54 1.54 0 0 0 .92-.21.72.72 0 0 0 .28-.62.62.62 0 0 0-.04-.24zm-.37-3.74a1.31 1.31 0 0 0-.77-.2c-.68 0-1 .27-1 .79a.64.64 0 0 0 .24.55 2.3 2.3 0 0 0 .73.32l.45.11a1 1 0 0 0 .65-1 .68.68 0 0 0-.32-.57z"/></svg>