<svg xmlns="http://www.w3.org/2000/svg" xmlns:xlink="http://www.w3.org/1999/xlink" viewBox="0 0 64 64"><defs><linearGradient id="a" x1="27.56" x2="38.27" y1="17.64" y2="36.19" gradientUnits="userSpaceOnUse"><stop offset="0" stop-color="#d4d7dd"/><stop offset=".45" stop-color="#d4d7dd"/><stop offset="1" stop-color="#bec1c6"/></linearGradient><linearGradient id="b" x1="19.96" x2="31.37" y1="29.03" y2="48.8" xlink:href="#a"/></defs><path fill="none" stroke="url(#a)" stroke-linecap="round" stroke-miterlimit="10" stroke-width="3" d="M43.64 20a5 5 0 1 1 3.61 8.46h-35.5"/><path fill="none" stroke="url(#b)" stroke-linecap="round" stroke-miterlimit="10" stroke-width="3" d="M29.14 44a5 5 0 1 0 3.61-8.46h-21"/><path fill="#374151" d="M47.73 34.82a.52.52 0 0 1 .11.39v9.64a.51.51 0 0 1-.11.39.52.52 0 0 1-.4.12h-.85a.43.43 0 0 1-.51-.51V37l-2.1 1.17a.62.62 0 0 1-.46.12.57.57 0 0 1-.3-.31l-.38-.67a.58.58 0 0 1-.07-.4.67.67 0 0 1 .34-.31l2.93-1.68a1.34 1.34 0 0 1 .72-.21h.71a.52.52 0 0 1 .37.11zm6.6 0a.52.52 0 0 1 .11.39v9.64a.51.51 0 0 1-.11.39.53.53 0 0 1-.4.12h-.85a.43.43 0 0 1-.51-.51V37l-2.1 1.17a.63.63 0 0 1-.47.12.55.55 0 0 1-.29-.31l-.38-.67a.58.58 0 0 1-.07-.4.67.67 0 0 1 .31-.29l2.93-1.68a1.31 1.31 0 0 1 .71-.21h.72a.53.53 0 0 1 .4.09z"/></svg>