<svg xmlns="http://www.w3.org/2000/svg" xmlns:xlink="http://www.w3.org/1999/xlink" viewBox="0 0 64 64"><defs><linearGradient id="b" x1="40.76" x2="47.76" y1="20.75" y2="32.87" gradientTransform="rotate(6 46.899 24.138)" gradientUnits="userSpaceOnUse"><stop offset="0" stop-color="#875b34"/><stop offset=".45" stop-color="#875b34"/><stop offset="1" stop-color="#624226"/></linearGradient><linearGradient id="c" x1="41.62" x2="47.69" y1="16.91" y2="27.42" gradientTransform="rotate(6 46.899 24.138)" gradientUnits="userSpaceOnUse"><stop offset="0" stop-color="#51cf66"/><stop offset=".45" stop-color="#51cf66"/><stop offset="1" stop-color="#37b24d"/></linearGradient><linearGradient id="d" x1="21.06" x2="28.46" y1="31.71" y2="44.54" gradientUnits="userSpaceOnUse"><stop offset="0" stop-color="#3392d6"/><stop offset=".45" stop-color="#3392d6"/><stop offset="1" stop-color="#2477b2"/></linearGradient><linearGradient id="e" x1="34.09" x2="41.3" y1="32.74" y2="45.22" gradientUnits="userSpaceOnUse"><stop offset="0" stop-color="#fbbf24"/><stop offset=".45" stop-color="#fbbf24"/><stop offset="1" stop-color="#f59e0b"/></linearGradient><linearGradient id="a" x1="22.86" x2="27.95" y1="16.33" y2="25.15" gradientUnits="userSpaceOnUse"><stop offset="0" stop-color="#d4d7dd"/><stop offset=".45" stop-color="#d4d7dd"/><stop offset="1" stop-color="#bec1c6"/></linearGradient><linearGradient id="f" x1="19.48" x2="24.89" y1="21.39" y2="30.76" xlink:href="#a"/></defs><path fill="url(#b)" stroke="#744e2d" stroke-linecap="round" stroke-linejoin="round" stroke-width=".5" d="M45.12 19.79c.07-.68 0-1.24-.19-1.26h-.14c-.17 0-.37.51-.45 1.2l-1.51 13.35c-.09.71 0 1.32.18 1.34h.35c.18 0 .39-.55.46-1.27z"/><path fill="url(#c)" stroke="#40c057" stroke-linecap="round" stroke-miterlimit="10" stroke-width=".5" d="M50 20.26a4.38 4.38 0 0 0-4-4.69 4.55 4.55 0 0 0-4.11 1.72h-.22A3.28 3.28 0 0 0 38 20.05a3.22 3.22 0 0 0 2.11 3.28 2.09 2.09 0 0 0-.27.82 2.18 2.18 0 0 0 2 2.34 2.3 2.3 0 0 0 1.52-.37 3.45 3.45 0 0 0 2.51 1.51 3.29 3.29 0 0 0 3.69-2.81 3.06 3.06 0 0 0-.64-2.18A4.08 4.08 0 0 0 50 20.26z"/><path fill="url(#d)" stroke="#2885c7" stroke-linecap="round" stroke-linejoin="round" stroke-width=".5" d="M32 34.33c-1.36 0-2.61-1.46-3.25-2.67a.28.28 0 0 0-.5 0c-.64 1.21-1.89 2.67-3.25 2.67s-2.61-1.46-3.25-2.67a.28.28 0 0 0-.5 0c-.64 1.21-1.89 2.67-3.25 2.67h-1v6.13a2 2 0 0 0 2 2h13z"/><path fill="url(#e)" stroke="#f8af18" stroke-miterlimit="10" stroke-width=".5" d="M47.5 40.28v-6.56a2.1 2.1 0 0 0-2-2.22h-6.15c-4.87 0-9.33 3.1-11.52 8l-1.33 3h19a2.1 2.1 0 0 0 2-2.22z"/><path fill="none" stroke="url(#a)" stroke-linecap="round" stroke-miterlimit="10" stroke-width="2" d="M30.18 17.68a2.22 2.22 0 1 1 1.6 3.76H16"/><path fill="none" stroke="url(#f)" stroke-linecap="round" stroke-miterlimit="10" stroke-width="2" d="M23.73 28.32a2.22 2.22 0 1 0 1.6-3.76H16"/></svg>