<svg xmlns="http://www.w3.org/2000/svg" xmlns:xlink="http://www.w3.org/1999/xlink" viewBox="0 0 512 512"><defs><linearGradient id="a" x1="54.5" x2="89.2" y1="2.2" y2="62.2" gradientUnits="userSpaceOnUse"><stop offset="0" stop-color="#d4d7dd"/><stop offset=".5" stop-color="#d4d7dd"/><stop offset="1" stop-color="#bec1c6"/></linearGradient><linearGradient xlink:href="#a" id="b" x1="31.4" x2="68.3" y1="37.6" y2="101.4"/><linearGradient id="c" x1="1203.2" x2="1274" y1="-755.7" y2="-633.1" gradientTransform="rotate(-8.1 7810.753 6580.212)" gradientUnits="userSpaceOnUse"><stop offset="0" stop-color="#875b34"/><stop offset=".5" stop-color="#875b34"/><stop offset="1" stop-color="#624226"/></linearGradient><linearGradient id="d" x1="1212" x2="1273.3" y1="-794.5" y2="-688.3" gradientTransform="rotate(-8.1 7810.753 6580.212)" gradientUnits="userSpaceOnUse"><stop offset="0" stop-color="#51cf66"/><stop offset=".5" stop-color="#51cf66"/><stop offset="1" stop-color="#37b24d"/></linearGradient><linearGradient id="e" x1="135.1" x2="210" y1="283.2" y2="412.8" gradientUnits="userSpaceOnUse"><stop offset="0" stop-color="#3392d6"/><stop offset=".5" stop-color="#3392d6"/><stop offset="1" stop-color="#2477b2"/></linearGradient><linearGradient id="f" x1="266.8" x2="339.6" y1="293.6" y2="419.7" gradientUnits="userSpaceOnUse"><stop offset="0" stop-color="#fbbf24"/><stop offset=".5" stop-color="#fbbf24"/><stop offset="1" stop-color="#f59e0b"/></linearGradient><symbol id="g" viewBox="0 0 138 96"><path fill="none" stroke="url(#a)" stroke-linecap="round" stroke-miterlimit="10" stroke-width="12" d="M105.2 10.8A15.6 15.6 0 11116.4 37H6"/><path fill="none" stroke="url(#b)" stroke-linecap="round" stroke-miterlimit="10" stroke-width="12" d="M60.7 85.2A15.6 15.6 0 1071.9 59H6.6"/></symbol></defs><path fill="url(#c)" stroke="#744e2d" stroke-linecap="round" stroke-linejoin="round" stroke-width="4" d="M353.7 160.3c-1-6.9-3.2-12.2-5-12l-1.3.2c-1.7.3-2.4 6-1.6 12.8l17 135c.8 7.1 3 13 5 12.7l3.5-.5c1.8-.3 2.4-6.4 1.4-13.6Z"/><path fill="url(#d)" stroke="#40c057" stroke-linecap="round" stroke-miterlimit="10" stroke-width="4" d="M403 153.2c-3.2-23.4-26-39.7-50.8-36.4a46 46 0 00-36.3 26.7h-2.2c-18.7 2.5-32 18.8-29.6 36.4a32.4 32.4 0 0028.5 27.1 20.3 20.3 0 00-.7 8.7 22 22 0 0025.3 18.3 23.4 23.4 0 0014-7.3 34.7 34.7 0 0028.3 8.8c18.6-2.5 31.9-18.7 29.5-36.3a30.8 30.8 0 00-11.4-20 41 41 0 005.3-26Z"/><path fill="url(#e)" stroke="#2885c7" stroke-linecap="round" stroke-linejoin="round" stroke-width="4" d="M245.7 309.6c-13.8 0-26.3-14.7-32.8-27a2.9 2.9 0 00-5.2 0c-6.4 12.3-19 27-32.7 27s-26.4-14.7-32.9-27a2.9 2.9 0 00-5 0c-6.6 12.3-19 27-32.9 27h-10v62a20.4 20.4 0 0020 20.6h131.5Z"/><path fill="url(#f)" stroke="#f8af18" stroke-miterlimit="10" stroke-width="4" d="M402.3 369.8v-66.4c0-12.3-8.9-22.4-19.8-22.4h-62.6c-49.2 0-94.2 31.4-116.4 81.1l-13.4 30h192.4c11 0 19.8-10 19.8-22.4Z"/><use xlink:href="#g" width="138" height="96" transform="matrix(-1 0 0 1 237 146)"/></svg>