<svg xmlns="http://www.w3.org/2000/svg" xmlns:xlink="http://www.w3.org/1999/xlink" viewBox="0 0 512 512"><defs><linearGradient id="b" x1="173.5" x2="338.5" y1="108.7" y2="394.5" gradientUnits="userSpaceOnUse"><stop offset="0" stop-color="#f3f7fe"/><stop offset=".5" stop-color="#f3f7fe"/><stop offset="1" stop-color="#deeafb"/></linearGradient><linearGradient id="c" x1="275.2" x2="317.7" y1="310.6" y2="384.3" gradientUnits="userSpaceOnUse"><stop offset="0" stop-color="#51cf66"/><stop offset=".5" stop-color="#51cf66"/><stop offset="1" stop-color="#37b24d"/></linearGradient><linearGradient id="d" x1="1464.5" x2="1485.9" y1="-8989.8" y2="-8952.7" gradientTransform="matrix(.86 -.52 .18 .29 606.93 3650.5)" gradientUnits="userSpaceOnUse"><stop offset="0" stop-color="#b8bdc6"/><stop offset=".5" stop-color="#b8bdc6"/><stop offset="1" stop-color="#a5aab2"/></linearGradient><linearGradient xlink:href="#d" id="e" x1="289.1" x2="295.1" y1="274.6" y2="285.1"/><linearGradient xlink:href="#d" id="f" x1="196.8" x2="202.8" y1="310.9" y2="321.4"/><linearGradient xlink:href="#d" id="g" x1="2135.4" x2="2162" y1="-3107.3" y2="-3061.1" gradientTransform="rotate(-42 5591.878 1090.12)"/><clipPath id="a"><path fill="none" d="m357 338.6-46.7-86-46-84.8a9.5 9.5 0 00-16.7 0l-46 84.8-46.7 86a9.6 9.6 0 008.4 14.2h185.3a9.6 9.6 0 008.4-14.2Z"/></clipPath></defs><path fill="#ef4444" d="m381 340.1-52.8-97.3-51-94.2a24 24 0 00-42.4 0l-51 94.2-52.8 97.3a24.2 24.2 0 0021.1 35.9H360a24.2 24.2 0 0021.1-35.9Z"/><g clip-path="url(#a)"><path fill="url(#b)" d="M135.6 130.5h240.8v242.2H135.6z"/><path fill="url(#c)" stroke="#40c057" stroke-linecap="round" stroke-miterlimit="10" stroke-width="4" d="m356.3 263.7 1.9 97.2-162.4-.3 160.5-96.9z"/><path fill="url(#d)" stroke="#afb4bc" stroke-miterlimit="10" stroke-width="2" d="M303.8 252.6 278 268.2a1 1 0 01-1.4-.4l-4.6-7.7a1 1 0 01.3-1.4l25.8-15.6a1 1 0 011.4.3l4.6 7.8a1 1 0 01-.3 1.4Z" opacity=".5"/><ellipse cx="292.1" cy="279.9" fill="url(#e)" stroke="#afb4bc" stroke-miterlimit="10" stroke-width="2" rx="6" ry="6"/><ellipse cx="199.8" cy="316.2" fill="url(#f)" stroke="#afb4bc" stroke-miterlimit="10" stroke-width="2" rx="6" ry="6"/><path fill="url(#g)" stroke="#afb4bc" stroke-miterlimit="10" stroke-width="2" d="M266.8 294.8 240 319.1a2 2 0 01-2.8-.1L213 292a2 2 0 01.1-2.8l26.9-24.4a2 2 0 012.8.1L267 292a2 2 0 01-.2 2.8Z"/></g></svg>