<svg xmlns="http://www.w3.org/2000/svg" xmlns:xlink="http://www.w3.org/1999/xlink" viewBox="0 0 512 512"><defs><symbol id="a" viewBox="0 0 362 234"><path fill="none" stroke="#e2e8f0" stroke-linecap="round" stroke-linejoin="round" stroke-width="18" d="M297 225a56 56 0 000-112l-2.5.1A83.9 83.9 0 00141.6 49 56 56 0 0057 97a56.6 56.6 0 00.8 9A60 60 0 0069 225"/></symbol></defs><use xlink:href="#a" width="362" height="234" transform="translate(75 139)"/><path fill="#374151" d="M372.5 271a4.6 4.6 0 00-3.2 1.3L350 290.7l-19.3-18.4a4.6 4.6 0 00-6.4 0 4.1 4.1 0 000 6l22.5 21.4a4.6 4.6 0 006.4 0l22.5-21.4a4.1 4.1 0 000-6 4.6 4.6 0 00-3.2-1.3Z"/><path fill="#374151" d="M372.5 244a4.6 4.6 0 00-3.2 1.3L350 263.7l-19.3-18.4a4.6 4.6 0 00-6.4 0 4.1 4.1 0 000 6l22.5 21.4a4.6 4.6 0 006.4 0l22.5-21.4a4.1 4.1 0 000-6 4.6 4.6 0 00-3.2-1.3Z"/><path fill="#374151" d="M372.5 217a4.6 4.6 0 00-3.2 1.3L350 236.7l-19.3-18.4a4.6 4.6 0 00-6.4 0 4.1 4.1 0 000 6l22.5 21.4a4.6 4.6 0 006.4 0l22.5-21.4a4.1 4.1 0 000-6 4.6 4.6 0 00-3.2-1.3Z"/></svg>