<svg xmlns="http://www.w3.org/2000/svg" xmlns:xlink="http://www.w3.org/1999/xlink" viewBox="0 0 512 512"><defs><symbol id="a" viewBox="0 0 359 231"><path fill="none" stroke="#e2e8f0" stroke-linecap="round" stroke-linejoin="round" stroke-width="15" d="M295.5 223.5a56 56 0 000-112l-2.5.1a83.9 83.9 0 00-153-64.2 56 56 0 00-84.6 48.1 56.6 56.6 0 00.8 9 60 60 0 0011.2 119"/></symbol></defs><use xlink:href="#a" width="359" height="231" transform="translate(76.5 140.5)"/><path fill="#0a5ad4" d="M200 376a8 8 0 01-8-8v-12a8 8 0 0116 0v12a8 8 0 01-8 8Zm56 80a8 8 0 01-8-8v-12a8 8 0 0116 0v12a8 8 0 01-8 8Zm56-50a8 8 0 01-8-8v-12a8 8 0 0116 0v12a8 8 0 01-8 8Z"/></svg>