<svg xmlns="http://www.w3.org/2000/svg" xmlns:xlink="http://www.w3.org/1999/xlink" viewBox="0 0 512 512"><defs><symbol id="f" viewBox="0 0 214.3 140.1"><path fill="none" stroke="#94a3b8" stroke-linejoin="round" stroke-width="15" d="M7.5 100.2a32.4 32.4 0 0032.4 32.4h129.8v-.1l2.3.1a34.8 34.8 0 006.5-68.9 32.4 32.4 0 00-48.5-33 48.6 48.6 0 00-88.6 37.1h-1.5a32.4 32.4 0 00-32.4 32.4Z"/></symbol><symbol id="g" viewBox="0 0 359 231"><path fill="none" stroke="#475569" stroke-linecap="round" stroke-linejoin="round" stroke-width="15" d="M295.5 223.5a56 56 0 000-112l-2.5.1a83.9 83.9 0 00-153-64.2 56 56 0 00-84.6 48.1 56.6 56.6 0 00.8 9 60 60 0 0011.2 119"/></symbol><symbol id="e" viewBox="0 0 447.7 371.5"><g clip-path="url(#a)"><use xlink:href="#f" width="214.3" height="140.1" transform="translate(195.51 165.01)"/></g><use xlink:href="#g" width="359" height="231" transform="translate(0 140.5)"/></symbol><symbol id="h" viewBox="0 0 129 110"><path fill="url(#b)" stroke="#0a5ad4" stroke-miterlimit="10" d="M8.5 56.5a8 8 0 01-8-8v-40a8 8 0 0116 0v40a8 8 0 01-8 8Z"/><path fill="url(#c)" stroke="#0a5ad4" stroke-miterlimit="10" d="M64.5 109.5a8 8 0 01-8-8v-40a8 8 0 0116 0v40a8 8 0 01-8 8Z"/><path fill="url(#d)" stroke="#0a5ad4" stroke-miterlimit="10" d="M120.5 74.5a8 8 0 01-8-8v-40a8 8 0 0116 0v40a8 8 0 01-8 8Z"/></symbol><linearGradient id="b" x1="1381.3" x2="1399.5" y1="-1144.7" y2="-1097.4" gradientTransform="rotate(-9 8002.567 8233.063)" gradientUnits="userSpaceOnUse"><stop offset="0" stop-color="#0b65ed"/><stop offset=".5" stop-color="#0a5ad4"/><stop offset="1" stop-color="#0950bc"/></linearGradient><linearGradient xlink:href="#b" id="c" x1="1428.4" x2="1446.6" y1="-1084.7" y2="-1037.4" gradientTransform="rotate(-9 8009.537 8233.037)"/><linearGradient xlink:href="#b" id="d" x1="1489.3" x2="1507.5" y1="-1111.6" y2="-1064.3" gradientTransform="rotate(-9 8016.566 8233.078)"/><clipPath id="a"><path fill="none" d="M351.5 308a56 56 0 00-56-56l-2.5.1A83.7 83.7 0 00211.5 148V0h236.2v308Z"/></clipPath></defs><use xlink:href="#e" width="447.7" height="371.5" transform="translate(64.34)"/><use xlink:href="#h" width="129" height="110" transform="translate(191.5 343.5)"/></svg>