<svg xmlns="http://www.w3.org/2000/svg" xmlns:xlink="http://www.w3.org/1999/xlink" viewBox="0 0 512 512"><defs><symbol id="a" viewBox="0 0 362 234"><path fill="none" stroke="#e2e8f0" stroke-linecap="round" stroke-linejoin="round" stroke-width="18" d="M297 225a56 56 0 000-112l-2.5.1A83.9 83.9 0 00141.6 49 56 56 0 0057 97a56.6 56.6 0 00.8 9A60 60 0 0069 225"/></symbol><symbol id="b" viewBox="0 0 136 114"><path fill="#86c3db" d="M12 0a12 12 0 1012 12A12 12 0 0012 0Zm56 90a12 12 0 1012 12 12 12 0 00-12-12Zm56-60a12 12 0 1012 12 12 12 0 00-12-12Z"/></symbol></defs><use xlink:href="#a" width="362" height="234" transform="translate(75 139)"/><use xlink:href="#b" width="136" height="114" transform="translate(188 350)"/></svg>