<svg xmlns="http://www.w3.org/2000/svg" xmlns:xlink="http://www.w3.org/1999/xlink" viewBox="0 0 512 512"><defs><symbol id="b" viewBox="0 0 214.3 140.1"><path fill="none" stroke="#94a3b8" stroke-linejoin="round" stroke-width="15" d="M7.5 100.2a32.4 32.4 0 0032.4 32.4h129.8v-.1l2.3.1a34.8 34.8 0 006.5-68.9 32.4 32.4 0 00-48.5-33 48.6 48.6 0 00-88.6 37.1h-1.5a32.4 32.4 0 00-32.4 32.4Z"/></symbol><symbol id="c" viewBox="0 0 362 234"><path fill="none" stroke="#e2e8f0" stroke-linecap="round" stroke-linejoin="round" stroke-width="18" d="M297 225a56 56 0 000-112l-2.5.1A83.9 83.9 0 00141.6 49 56 56 0 0057 97a56.6 56.6 0 00.8 9A60 60 0 0069 225"/></symbol><symbol id="d" viewBox="0 0 449.2 373"><g clip-path="url(#a)"><use xlink:href="#b" width="214.3" height="140.1" transform="translate(197.01 165.01)"/></g><use xlink:href="#c" width="362" height="234" transform="translate(0 139)"/></symbol><clipPath id="a"><path fill="none" d="M353 308a56 56 0 00-56-56l-2.5.1A83.7 83.7 0 00213 148V0h236.2v308Z"/></clipPath></defs><use xlink:href="#d" width="449.2" height="373" transform="translate(62.84)"/><path fill="#0a5ad4" d="M200 376a8 8 0 01-8-8v-12a8 8 0 0116 0v12a8 8 0 01-8 8Zm56 80a8 8 0 01-8-8v-12a8 8 0 0116 0v12a8 8 0 01-8 8Zm56-50a8 8 0 01-8-8v-12a8 8 0 0116 0v12a8 8 0 01-8 8Z"/></svg>