<svg xmlns="http://www.w3.org/2000/svg" viewBox="0 0 512 512"><path fill="none" stroke="#72b9d5" stroke-linecap="round" stroke-linejoin="round" stroke-width="15" d="m372 295.2-34.3-19.7a83.8 83.8 0 000-39l34.3-19.7a24 24 0 10-24-41.6L313.7 195a81.4 81.4 0 00-33.7-19.4V136a24 24 0 00-48 0v39.6a84 84 0 00-33.7 19.4L164 175.2a24 24 0 10-24 41.6l34.3 19.7a83.8 83.8 0 000 39L140 295.1a24 24 0 1024 41.6l34.3-19.8a80.6 80.6 0 0033.7 19.4V376a24 24 0 0048 0v-39.7a84 84 0 0033.7-19.3l34.3 19.8a24 24 0 1024-41.6Zm-134-8a36 36 0 1149.2-13.2 36 36 0 01-49.2 13.2Z"/></svg>