<svg xmlns="http://www.w3.org/2000/svg" xmlns:xlink="http://www.w3.org/1999/xlink" viewBox="0 0 512 512"><defs><clipPath id="a"><path fill="none" d="M372 357c-22 0-40-18.1-40-40.5a40.6 40.6 0 0117.1-33.3v-97A23 23 0 01372 163H119.2v194Zm2.9-137h20m-20-22.8h20m-20 45.7h20"/></clipPath><symbol id="b" viewBox="0 0 252 100"><path fill="none" stroke="#2885c7" stroke-linecap="round" stroke-linejoin="round" stroke-width="12" d="M246 28.6h-8c-11 0-20.9-11.6-26-21.4a2.3 2.3 0 00-4 0c-5.2 9.8-15.1 21.4-26 21.4S161.1 17 156 7.2a2.3 2.3 0 00-4 0c-5.2 9.8-15.1 21.4-26 21.4S105.1 17 100 7.2a2.3 2.3 0 00-4 0C90.7 17 81 28.6 70 28.6S49 17 44 7.2a2.3 2.3 0 00-4 0C34.7 17 25 28.6 14 28.6H6v49.1A16.1 16.1 0 0022 94h208a16.1 16.1 0 0016-16.3Z"/></symbol></defs><g clip-path="url(#a)"><use xlink:href="#b" width="252" height="100" transform="translate(130 238)"/></g><ellipse cx="372" cy="317.1" fill="#ef4444" rx="25.7" ry="25.7"/><path fill="none" stroke="#ef4444" stroke-linecap="round" stroke-miterlimit="10" stroke-width="17.1" d="M372 231.5V317"/><path fill="none" stroke="#cbd5e1" stroke-linecap="round" stroke-linejoin="round" stroke-width="4.3" d="M412 316.5c0 22.3-18 40.5-40 40.5s-40-18.1-40-40.5a40.6 40.6 0 0117.1-33.3v-97a22.9 22.9 0 1145.8 0v97a40.6 40.6 0 0117.1 33.3ZM374.9 220h20m-20-22.9h20m-20 45.7h20"/></svg>