<svg xmlns="http://www.w3.org/2000/svg" xmlns:xlink="http://www.w3.org/1999/xlink" viewBox="0 0 512 512"><defs><symbol id="e" viewBox="0 0 178 178"><path fill="none" stroke="#72b9d5" stroke-linecap="round" stroke-linejoin="round" stroke-width="10" d="M163.6 110.4a84.8 84.8 0 01-85.4-84.3A83.3 83.3 0 0181 5 84.7 84.7 0 005 88.7 84.8 84.8 0 0090.4 173a85.2 85.2 0 0082.6-63.1 88 88 0 01-9.4.5Z"/></symbol><symbol id="b" viewBox="0 0 214.3 140.1"><path fill="none" stroke="#94a3b8" stroke-linejoin="round" stroke-width="15" d="M7.5 100.2a32.4 32.4 0 0032.4 32.4h129.8v-.1l2.3.1a34.8 34.8 0 006.5-68.9 32.4 32.4 0 00-48.5-33 48.6 48.6 0 00-88.6 37.1h-1.5a32.4 32.4 0 00-32.4 32.4Z"/></symbol><symbol id="c" viewBox="0 0 362 234"><path fill="none" stroke="#e2e8f0" stroke-linecap="round" stroke-linejoin="round" stroke-width="18" d="M297 225a56 56 0 000-112l-2.5.1A83.9 83.9 0 00141.6 49 56 56 0 0057 97a56.6 56.6 0 00.8 9A60 60 0 0069 225"/></symbol><symbol id="f" viewBox="0 0 449.2 373"><g clip-path="url(#a)"><use xlink:href="#b" width="214.3" height="140.1" transform="translate(197.01 165.01)"/></g><use xlink:href="#c" width="362" height="234" transform="translate(0 139)"/></symbol><symbol id="j" viewBox="0 0 512 373"><g clip-path="url(#d)"><use xlink:href="#e" width="178" height="178" transform="translate(65 118)"/></g><use xlink:href="#f" width="449.2" height="373" transform="translate(62.84)"/></symbol><symbol id="k" viewBox="0 0 129 110"><path fill="url(#g)" stroke="#0a5ad4" stroke-miterlimit="10" d="M8.5 56.5a8 8 0 01-8-8v-40a8 8 0 0116 0v40a8 8 0 01-8 8Z"/><path fill="url(#h)" stroke="#0a5ad4" stroke-miterlimit="10" d="M64.5 109.5a8 8 0 01-8-8v-40a8 8 0 0116 0v40a8 8 0 01-8 8Z"/><path fill="url(#i)" stroke="#0a5ad4" stroke-miterlimit="10" d="M120.5 74.5a8 8 0 01-8-8v-40a8 8 0 0116 0v40a8 8 0 01-8 8Z"/></symbol><symbol id="l" viewBox="0 0 96 176"><path fill="#f6a823" d="M32 0 0 96h32l-16 80L96 64H48L80 0H32z"/></symbol><linearGradient id="g" x1="1381.3" x2="1399.5" y1="-1144.7" y2="-1097.4" gradientTransform="rotate(-9 8002.567 8233.063)" gradientUnits="userSpaceOnUse"><stop offset="0" stop-color="#0b65ed"/><stop offset=".5" stop-color="#0a5ad4"/><stop offset="1" stop-color="#0950bc"/></linearGradient><linearGradient xlink:href="#g" id="h" x1="1428.4" x2="1446.6" y1="-1084.7" y2="-1037.4" gradientTransform="rotate(-9 8009.537 8233.037)"/><linearGradient xlink:href="#g" id="i" x1="1489.3" x2="1507.5" y1="-1111.6" y2="-1064.3" gradientTransform="rotate(-9 8016.566 8233.078)"/><clipPath id="a"><path fill="none" d="M353 308a56 56 0 00-56-56l-2.5.1A83.7 83.7 0 00213 148V0h236.2v308Z"/></clipPath><clipPath id="d"><path fill="none" d="M276 148a83.8 83.8 0 00-71.4 40 56 56 0 00-84.6 48 56.6 56.6 0 00.8 9A60 60 0 0072 304H0V0h276Z"/></clipPath></defs><use xlink:href="#j" width="512" height="373"/><use xlink:href="#k" width="129" height="110" transform="translate(191.5 343.5)"/><use xlink:href="#l" width="96" height="176" transform="translate(208 293)"/></svg>