<svg xmlns="http://www.w3.org/2000/svg" xmlns:xlink="http://www.w3.org/1999/xlink" viewBox="0 0 512 512"><defs><symbol id="f" viewBox="0 0 193 193"><circle cx="96.5" cy="96.5" r="40" fill="none" stroke="#fbbf24" stroke-miterlimit="10" stroke-width="9"/><path fill="none" stroke="#fbbf24" stroke-linecap="round" stroke-miterlimit="10" stroke-width="9" d="M96.5 29.9V4.5m0 184v-25.4m47.1-113.7 18-18M31.4 161.6l18-18m0-94.2-18-18m130.2 130.2-18-18M4.5 96.5h25.4m158.6 0h-25.4"/></symbol><symbol id="g" viewBox="0 0 359 231"><path fill="none" stroke="#e2e8f0" stroke-linecap="round" stroke-linejoin="round" stroke-width="15" d="M295.5 223.5a56 56 0 000-112l-2.5.1a83.9 83.9 0 00-153-64.2 56 56 0 00-84.6 48.1 56.6 56.6 0 00.8 9 60 60 0 0011.2 119"/></symbol><symbol id="e" viewBox="0 0 435.5 371.5"><g clip-path="url(#a)"><use xlink:href="#f" width="193" height="193" transform="translate(69.5 110.5)"/></g><use xlink:href="#g" width="359" height="231" transform="translate(76.5 140.5)"/></symbol><symbol id="h" viewBox="0 0 129 110"><path fill="url(#b)" stroke="#0a5ad4" stroke-miterlimit="10" d="M8.5 56.5a8 8 0 01-8-8v-40a8 8 0 0116 0v40a8 8 0 01-8 8Z"/><path fill="url(#c)" stroke="#0a5ad4" stroke-miterlimit="10" d="M64.5 109.5a8 8 0 01-8-8v-40a8 8 0 0116 0v40a8 8 0 01-8 8Z"/><path fill="url(#d)" stroke="#0a5ad4" stroke-miterlimit="10" d="M120.5 74.5a8 8 0 01-8-8v-40a8 8 0 0116 0v40a8 8 0 01-8 8Z"/></symbol><symbol id="i" viewBox="0 0 96 176"><path fill="#f6a823" d="M32 0 0 96h32l-16 80L96 64H48L80 0H32z"/></symbol><linearGradient id="b" x1="1381.3" x2="1399.5" y1="-1144.7" y2="-1097.4" gradientTransform="rotate(-9 8002.567 8233.063)" gradientUnits="userSpaceOnUse"><stop offset="0" stop-color="#0b65ed"/><stop offset=".5" stop-color="#0a5ad4"/><stop offset="1" stop-color="#0950bc"/></linearGradient><linearGradient xlink:href="#b" id="c" x1="1428.4" x2="1446.6" y1="-1084.7" y2="-1037.4" gradientTransform="rotate(-9 8009.537 8233.037)"/><linearGradient xlink:href="#b" id="d" x1="1489.3" x2="1507.5" y1="-1111.6" y2="-1064.3" gradientTransform="rotate(-9 8016.566 8233.078)"/><clipPath id="a"><path fill="none" d="M288 148a83.8 83.8 0 00-71.4 40 56 56 0 00-84.6 48 56.6 56.6 0 00.8 9A60 60 0 0084 304H0V0h288Z"/></clipPath></defs><use xlink:href="#e" width="435.5" height="371.5"/><use xlink:href="#h" width="129" height="110" transform="translate(191.5 343.5)"/><use xlink:href="#i" width="96" height="176" transform="translate(208 293)"/></svg>