<svg xmlns="http://www.w3.org/2000/svg" xmlns:xlink="http://www.w3.org/1999/xlink" viewBox="0 0 512 512"><defs><symbol id="c" viewBox="0 0 214.3 140.1"><path fill="none" stroke="#94a3b8" stroke-linejoin="round" stroke-width="15" d="M7.5 100.2a32.4 32.4 0 0032.4 32.4h129.8v-.1l2.3.1a34.8 34.8 0 006.5-68.9 32.4 32.4 0 00-48.5-33 48.6 48.6 0 00-88.6 37.1h-1.5a32.4 32.4 0 00-32.4 32.4Z"/></symbol><symbol id="d" viewBox="0 0 359 231"><path fill="none" stroke="#e2e8f0" stroke-linecap="round" stroke-linejoin="round" stroke-width="15" d="M295.5 223.5a56 56 0 000-112l-2.5.1a83.9 83.9 0 00-153-64.2 56 56 0 00-84.6 48.1 56.6 56.6 0 00.8 9 60 60 0 0011.2 119"/></symbol><symbol id="b" viewBox="0 0 447.7 371.5"><g clip-path="url(#a)"><use xlink:href="#c" width="214.3" height="140.1" transform="translate(195.51 165.01)"/></g><use xlink:href="#d" width="359" height="231" transform="translate(0 140.5)"/></symbol><symbol id="e" viewBox="0 0 155.2 138"><path fill="#86c3db" d="m41.2 30.5-5.8-3.3a13.7 13.7 0 000-6.4l5.8-3.3a4 4 0 001.5-5.5 4 4 0 00-5.6-1.5l-5.8 3.3a13.6 13.6 0 00-2.6-2 13.8 13.8 0 00-3-1.2V4a4 4 0 00-8.1 0v6.6a14.3 14.3 0 00-5.7 3.2l-5.8-3.3A4 4 0 00.5 12 4 4 0 002 17.5l5.8 3.3a13.7 13.7 0 000 6.4L2 30.5A4 4 0 00.5 36a4 4 0 003.6 2 4 4 0 002-.5l5.8-3.3a13.6 13.6 0 002.6 2 13.8 13.8 0 003 1.2V44a4 4 0 008 0v-6.6a14.2 14.2 0 005.8-3.2l5.8 3.3a4 4 0 002 .5 4 4 0 003.5-2 4 4 0 00-1.4-5.5Zm-22.6-1.3a6 6 0 01-2.3-8.2 6.1 6.1 0 015.3-3 6.2 6.2 0 013 .8A6 6 0 0127 27a6.1 6.1 0 01-8.3 2.2Zm78.6 91.3-5.8-3.3a13.7 13.7 0 000-6.4l5.8-3.3a4 4 0 001.5-5.5 4 4 0 00-5.6-1.5l-5.8 3.3a13.6 13.6 0 00-2.6-2 13.8 13.8 0 00-3-1.2V94a4 4 0 00-8.1 0v6.6a14.3 14.3 0 00-5.7 3.2l-5.8-3.3a4 4 0 00-5.6 1.5 4 4 0 001.5 5.5l5.8 3.3a13.7 13.7 0 000 6.4l-5.8 3.3a4 4 0 00-1.5 5.5 4 4 0 003.6 2 4 4 0 002-.5l5.8-3.3a13.6 13.6 0 002.6 2 13.8 13.8 0 003 1.2v6.6a4 4 0 008 0v-6.6a14.2 14.2 0 005.8-3.2l5.8 3.3a4 4 0 002 .5 4 4 0 003.5-2 4 4 0 00-1.4-5.5Zm-22.6-1.3a6 6 0 01-2.3-8.2 6.1 6.1 0 015.3-3 6.2 6.2 0 013 .8 6 6 0 012.2 8.2 6.1 6.1 0 01-8.2 2.2Zm78.6-48.7-5.8-3.3a13.7 13.7 0 000-6.4l5.8-3.3a4 4 0 001.5-5.5 4 4 0 00-5.6-1.5l-5.8 3.3a13.6 13.6 0 00-2.6-2 13.8 13.8 0 00-3-1.2V44a4 4 0 00-8.1 0v6.6a14.3 14.3 0 00-5.7 3.2l-5.8-3.3a4 4 0 00-5.6 1.5 4 4 0 001.5 5.5l5.8 3.3a13.7 13.7 0 000 6.4l-5.8 3.3a4 4 0 00-1.5 5.5 4 4 0 003.6 2 4 4 0 002-.5l5.8-3.3a13.6 13.6 0 002.6 2 13.8 13.8 0 003 1.2V84a4 4 0 008 0v-6.6a14.2 14.2 0 005.8-3.2l5.8 3.3a4 4 0 002 .5 4 4 0 003.5-2 4 4 0 00-1.4-5.5Zm-22.6-1.3a6 6 0 01-2.3-8.2 6.1 6.1 0 015.3-3 6.2 6.2 0 013 .8 6 6 0 012.2 8.2 6.1 6.1 0 01-8.2 2.2Z"/></symbol><symbol id="f" viewBox="0 0 96 176"><path fill="#f6a823" d="M32 0 0 96h32l-16 80L96 64H48L80 0H32z"/></symbol><clipPath id="a"><path fill="none" d="M351.5 308a56 56 0 00-56-56l-2.5.1A83.7 83.7 0 00211.5 148V0h236.2v308Z"/></clipPath></defs><use xlink:href="#b" width="447.7" height="371.5" transform="translate(64.34)"/><use xlink:href="#e" width="155.2" height="138" transform="translate(178.4 338)"/><use xlink:href="#f" width="96" height="176" transform="translate(208 293)"/></svg>