<svg xmlns="http://www.w3.org/2000/svg" xmlns:xlink="http://www.w3.org/1999/xlink" viewBox="0 0 512 512"><defs><symbol id="a" viewBox="0 0 252 100"><path fill="none" stroke="#2885c7" stroke-linecap="round" stroke-linejoin="round" stroke-width="12" d="M246 28.6h-8c-11 0-20.9-11.6-26-21.4a2.3 2.3 0 00-4 0c-5.2 9.8-15.1 21.4-26 21.4S161.1 17 156 7.2a2.3 2.3 0 00-4 0c-5.2 9.8-15.1 21.4-26 21.4S105.1 17 100 7.2a2.3 2.3 0 00-4 0C90.7 17 81 28.6 70 28.6S49 17 44 7.2a2.3 2.3 0 00-4 0C34.7 17 25 28.6 14 28.6H6v49.1A16.1 16.1 0 0022 94h208a16.1 16.1 0 0016-16.3Z"/></symbol></defs><path fill="none" stroke="#374151" stroke-linecap="round" stroke-linejoin="round" stroke-width="12" d="M256 146v72l-24-27.6 24 27.6 24-27.6"/><use xlink:href="#a" width="252" height="100" transform="translate(130 238)"/></svg>