<svg xmlns="http://www.w3.org/2000/svg" xmlns:xlink="http://www.w3.org/1999/xlink" viewBox="0 0 512 512"><defs><symbol id="a" viewBox="0 0 138 96"><path fill="none" stroke="#e2e8f0" stroke-linecap="round" stroke-miterlimit="10" stroke-width="12" d="M105.2 10.8A15.6 15.6 0 11116.4 37H6m54.7 48.2A15.6 15.6 0 1071.9 59H6.6"/></symbol></defs><path fill="none" stroke="#e2e8f0" stroke-linecap="round" stroke-linejoin="round" stroke-width="12" d="M220 360a24 24 0 11-34-34l1.8-1.8L305 207"/><path fill="#ef4444" d="m327.9 127.2-8.2-2.9a71.1 71.1 0 01-41.7-41l-5-13.1c-36.6 36.7-30.1 103 14 149.7.4-13.1 4-62.8 40.9-92.7Z"/><path fill="#ef4444" d="M332.2 131.4c-34.9 28-38.7 76.1-39.1 88.5 12.4-.4 60.6-4.3 88.5-39.1l-4.2-1.4a70.8 70.8 0 01-43.8-43.8Z"/><path fill="#ef4444" d="M429.6 235a71.2 71.2 0 01-41-41.7l-2.8-8.2c-30 36.8-79.6 40.5-92.7 40.8 46.8 44.2 113 50.6 149.7 14Z"/><use xlink:href="#a" width="138" height="96" transform="translate(62.5 201)"/></svg>