<svg xmlns="http://www.w3.org/2000/svg" viewBox="0 0 64 64"><path fill="none" stroke="#f59e0b" stroke-linecap="round" stroke-miterlimit="10" stroke-width="3" d="M42.5 32A10.5 10.5 0 1 1 32 21.5 10.5 10.5 0 0 1 42.5 32zM32 15.71V9.5m0 45v-6.21m11.52-27.81 4.39-4.39M16.09 47.91l4.39-4.39m0-23-4.39-4.39m31.82 31.78-4.39-4.39M15.71 32H9.5m45 0h-6.21"/><rect width="21" height="21" x="33.5" y="33.5" fill="#ff3c00" stroke="#fff" stroke-miterlimit="10" stroke-width="2" rx="6"/><path fill="#fff" d="M41.9 40.1a.5.5 0 0 1 .1.36v7.08a.5.5 0 0 1-.1.36.46.46 0 0 1-.35.1h-.89a.46.46 0 0 1-.35-.1.5.5 0 0 1-.1-.36v-5.29l-1.07.62a.42.42 0 0 1-.68-.18l-.38-.69a.45.45 0 0 1-.07-.35.64.64 0 0 1 .29-.27l2-1.18a1.24 1.24 0 0 1 .64-.18h.63a.46.46 0 0 1 .33.08zm2.9.62a3.74 3.74 0 0 1 4.41 0 2.54 2.54 0 0 1 .79 2v2.6a2.53 2.53 0 0 1-.79 2A3.09 3.09 0 0 1 47 48a3.14 3.14 0 0 1-2.21-.73 2.53 2.53 0 0 1-.8-2v-2.6a2.51 2.51 0 0 1 .81-1.95zm3.1 1.16a1.33 1.33 0 0 0-.89-.27 1.35 1.35 0 0 0-.91.27 1 1 0 0 0-.32.79v2.65a1 1 0 0 0 .32.79 1.31 1.31 0 0 0 .91.28 1.28 1.28 0 0 0 .89-.28 1 1 0 0 0 .32-.79v-2.65a1 1 0 0 0-.32-.79z"/></svg>