<svg xmlns="http://www.w3.org/2000/svg" viewBox="0 0 64 64"><path fill="none" stroke="#f59e0b" stroke-linecap="round" stroke-miterlimit="10" stroke-width="3" d="M42.5 32A10.5 10.5 0 1 1 32 21.5 10.5 10.5 0 0 1 42.5 32zM32 15.71V9.5m0 45v-6.21m11.52-27.81 4.39-4.39M16.09 47.91l4.39-4.39m0-23-4.39-4.39m31.82 31.78-4.39-4.39M15.71 32H9.5m45 0h-6.21"/><rect width="21" height="21" x="33.5" y="33.5" fill="#ff8d00" stroke="#fff" stroke-miterlimit="10" stroke-width="2" rx="6"/><path fill="#fff" d="M46.9 40.1a.5.5 0 0 1 .1.36V41a1.51 1.51 0 0 1-.15.65l-2.8 5.93a.61.61 0 0 1-.27.34 1.88 1.88 0 0 1-.6.07h-.92c-.28 0-.36-.15-.23-.46l2.79-5.87h-3.36a.53.53 0 0 1-.36-.1.49.49 0 0 1-.1-.35v-.76a.5.5 0 0 1 .1-.36.48.48 0 0 1 .36-.1h5.07a.53.53 0 0 1 .37.11z"/></svg>