<svg xmlns="http://www.w3.org/2000/svg" viewBox="0 0 64 64"><path fill="none" stroke="#f59e0b" stroke-linecap="round" stroke-miterlimit="10" stroke-width="3" d="M42.5 32A10.5 10.5 0 1 1 32 21.5 10.5 10.5 0 0 1 42.5 32zM32 15.71V9.5m0 45v-6.21m11.52-27.81 4.39-4.39M16.09 47.91l4.39-4.39m0-23-4.39-4.39m31.82 31.78-4.39-4.39M15.71 32H9.5m45 0h-6.21"/><rect width="21" height="21" x="33.5" y="33.5" fill="#ff3c00" stroke="#fff" stroke-miterlimit="10" stroke-width="2" rx="6"/><path fill="#fff" d="M43.89 45a3.21 3.21 0 0 1-2.18-.63 2.38 2.38 0 0 1-.71-1.84 2.25 2.25 0 0 1 .8-1.85A3.29 3.29 0 0 1 44 40a3 3 0 0 1 2.23.76 2.84 2.84 0 0 1 .77 2.12v2.24a2.81 2.81 0 0 1-.78 2.12A3 3 0 0 1 44 48a2.75 2.75 0 0 1-2.88-1.73.4.4 0 0 1 0-.35.53.53 0 0 1 .29-.21l.78-.29a.42.42 0 0 1 .34 0 .75.75 0 0 1 .22.31 1.21 1.21 0 0 0 1.26.69 1.11 1.11 0 0 0 1.27-1.25v-.23a6.78 6.78 0 0 1-1.39.06zm.11-3.41q-1.26 0-1.26.93a.84.84 0 0 0 .29.7 1.63 1.63 0 0 0 1 .23 3.43 3.43 0 0 0 1.26-.18v-.48q-.03-1.2-1.29-1.2z"/></svg>