<svg xmlns="http://www.w3.org/2000/svg" viewBox="0 0 64 64"><path fill="none" stroke="#f59e0b" stroke-linecap="round" stroke-miterlimit="10" stroke-width="3" d="M42.5 32A10.5 10.5 0 1 1 32 21.5 10.5 10.5 0 0 1 42.5 32zM32 15.71V9.5m0 45v-6.21m11.52-27.81 4.39-4.39M16.09 47.91l4.39-4.39m0-23-4.39-4.39m31.82 31.78-4.39-4.39M15.71 32H9.5m45 0h-6.21"/><rect width="21" height="21" x="33.5" y="33.5" fill="#9936d4" stroke="#fff" stroke-miterlimit="10" stroke-width="2" rx="6"/><path fill="#fff" d="M42.9 40.1a.5.5 0 0 1 .1.36v7.08a.5.5 0 0 1-.1.36.46.46 0 0 1-.35.1h-.89a.46.46 0 0 1-.35-.1.5.5 0 0 1-.1-.36v-5.29l-1.07.62a.42.42 0 0 1-.68-.18l-.39-.69a.43.43 0 0 1 0-.35.56.56 0 0 1 .28-.27l2-1.18a1.18 1.18 0 0 1 .63-.18h.63a.46.46 0 0 1 .29.08zm5 0a.5.5 0 0 1 .1.36v7.08a.5.5 0 0 1-.1.36.46.46 0 0 1-.35.1h-.89a.46.46 0 0 1-.35-.1.5.5 0 0 1-.1-.36v-5.29l-1.07.62a.42.42 0 0 1-.68-.18l-.38-.69a.45.45 0 0 1-.07-.35.64.64 0 0 1 .29-.27l2-1.18a1.24 1.24 0 0 1 .64-.18h.63a.46.46 0 0 1 .33.08z"/></svg>