<svg xmlns="http://www.w3.org/2000/svg" viewBox="0 0 512 512"><path fill="none" stroke="#cbd5e1" stroke-linecap="round" stroke-linejoin="round" stroke-width="24" d="M148 376V136"/><path fill="#ef4444" d="m191.4 137 28.8 4.3a6.4 6.4 0 015.4 6.3v73.7a6.4 6.4 0 01-5.4 6.3l-28.8 4.2a6.4 6.4 0 01-7.3-6.4v-82a6.4 6.4 0 017.3-6.3Zm69.2 9.1 28.8 4.2a6.4 6.4 0 015.4 6.3v55.6a6.4 6.4 0 01-5.5 6.3l-28.7 4.2a6.4 6.4 0 01-7.3-6.3v-64a6.4 6.4 0 017.3-6.3Zm69.2 9.1 28.7 4.2a6.4 6.4 0 015.5 6.3v37.4a6.4 6.4 0 01-5.5 6.3l-28.7 4.2a6.4 6.4 0 01-7.3-6.3v-45.8a6.4 6.4 0 017.3-6.3Z"/></svg>