<svg xmlns="http://www.w3.org/2000/svg" xmlns:xlink="http://www.w3.org/1999/xlink" viewBox="0 0 512 512"><defs><symbol id="a" viewBox="0 0 342 234"><path fill="none" stroke="#e2e8f0" stroke-linecap="round" stroke-miterlimit="10" stroke-width="18" d="M264.2 21.3A40 40 0 11293 89H9m139.2 123.7A40 40 0 10177 145H9"/></symbol></defs><use xlink:href="#a" width="342" height="234" transform="translate(85 139)"/><path fill="#86c3db" d="m249.6 180.7-5.8-3.4a14.3 14.3 0 000-6.6l5.8-3.4a4.1 4.1 0 001.4-5.5 4 4 0 00-5.5-1.5l-5.8 3.3a14.2 14.2 0 00-2.6-2 14.6 14.6 0 00-3-1.3v-6.7a4 4 0 10-8.1 0v6.7a14.2 14.2 0 00-5.7 3.3l-5.8-3.3a4 4 0 00-5.5 1.5 4.1 4.1 0 001.5 5.5l5.8 3.4a14.3 14.3 0 000 6.6l-5.8 3.4a4.1 4.1 0 00-1.5 5.5 4 4 0 005.5 1.5l5.8-3.3a14.2 14.2 0 002.6 2 13.8 13.8 0 003 1.3v6.7a4 4 0 108.1 0v-6.7a14.1 14.1 0 005.7-3.3l5.8 3.3a4 4 0 005.5-1.5 4.1 4.1 0 00-1.4-5.5Zm-22.6-1.4a6.2 6.2 0 01-2.2-8.4 6 6 0 015.2-3 6 6 0 013 .8 6.2 6.2 0 012.3 8.4 6 6 0 01-8.3 2.2Zm166.6 103.4-5.8-3.4a14.3 14.3 0 000-6.6l5.8-3.4a4.1 4.1 0 001.4-5.5 4 4 0 00-5.5-1.5l-5.8 3.3a14.2 14.2 0 00-2.6-2 14.6 14.6 0 00-3-1.3v-6.7a4 4 0 10-8.1 0v6.7a14.2 14.2 0 00-5.7 3.3l-5.8-3.3a4 4 0 00-5.5 1.5 4.1 4.1 0 001.5 5.5l5.8 3.4a14.3 14.3 0 000 6.6l-5.8 3.4a4.1 4.1 0 00-1.5 5.5 4 4 0 005.5 1.5l5.8-3.3a14.2 14.2 0 002.7 2 13.8 13.8 0 003 1.3v6.7a4 4 0 108 0v-6.7a14.1 14.1 0 005.7-3.3l5.8 3.3a4 4 0 005.5-1.5 4.1 4.1 0 00-1.4-5.5Zm-22.6-1.4a6.2 6.2 0 01-2.2-8.4 6 6 0 015.2-3 6 6 0 013 .8 6.2 6.2 0 012.3 8.4 6 6 0 01-8.3 2.2Zm-207.4 59.4-5.8-3.4a14.3 14.3 0 000-6.6l5.8-3.4a4.1 4.1 0 001.4-5.5 4 4 0 00-5.5-1.5l-5.8 3.3a14.2 14.2 0 00-2.6-2 14.6 14.6 0 00-3-1.3v-6.7a4 4 0 10-8.1 0v6.7a14.2 14.2 0 00-5.7 3.3l-5.8-3.3a4 4 0 00-5.5 1.5 4.1 4.1 0 001.5 5.5l5.8 3.4a14.3 14.3 0 000 6.6l-5.8 3.4a4.1 4.1 0 00-1.5 5.5 4 4 0 005.5 1.5l5.8-3.3a14.2 14.2 0 002.6 2 13.8 13.8 0 003 1.3v6.7a4 4 0 108.1 0v-6.7a14.1 14.1 0 005.7-3.3l5.8 3.3a4 4 0 005.5-1.5 4.1 4.1 0 00-1.4-5.5Zm-22.6-1.4a6.2 6.2 0 01-2.2-8.4 6 6 0 015.2-3 6 6 0 013 .8 6.2 6.2 0 012.3 8.4 6 6 0 01-8.3 2.2Z"/></svg>