<svg xmlns="http://www.w3.org/2000/svg" xmlns:xlink="http://www.w3.org/1999/xlink" viewBox="0 0 64 64"><defs><clipPath id="b"><path fill="none" d="M7.5 7.5h47l-47 47v-47z"/></clipPath><linearGradient id="c" x1="26.75" x2="37.25" y1="22.91" y2="41.09" gradientUnits="userSpaceOnUse"><stop offset="0" stop-color="#fbbf24"/><stop offset=".45" stop-color="#fbbf24"/><stop offset="1" stop-color="#f59e0b"/></linearGradient><linearGradient id="a" x1="22.14" x2="27.53" y1="36" y2="45.32" gradientUnits="userSpaceOnUse"><stop offset="0" stop-color="#fde68a"/><stop offset=".45" stop-color="#fde68a"/><stop offset="1" stop-color="#fde171"/></linearGradient><linearGradient id="d" x1="34.27" x2="39.66" y1="28.99" y2="38.32" xlink:href="#a"/><linearGradient id="e" x1="43.47" x2="48.86" y1="23.68" y2="33" xlink:href="#a"/><linearGradient id="f" x1="32.14" x2="37.53" y1="36" y2="45.32" xlink:href="#a"/><linearGradient id="g" x1="44.27" x2="49.66" y1="28.99" y2="38.32" xlink:href="#a"/><linearGradient id="h" x1="53.47" x2="58.86" y1="23.68" y2="33" xlink:href="#a"/></defs><g stroke-miterlimit="10" clip-path="url(#b)"><circle cx="32" cy="32" r="10.5" fill="url(#c)" stroke="#f8af18" stroke-width=".5"/><path fill="none" stroke="#fbbf24" stroke-linecap="round" stroke-width="3" d="M32 15.71V9.5m0 45v-6.21m11.52-27.81 4.39-4.39M16.09 47.91l4.39-4.39m0-23-4.39-4.39m31.82 31.78-4.39-4.39M15.71 32H9.5m45 0h-6.21"><animateTransform attributeName="transform" dur="45s" repeatCount="indefinite" type="rotate" values="0 32 32; 360 32 32"/></path></g><g><animateTransform attributeName="transform" dur="3s" repeatCount="indefinite" type="translate" values="-2 2; 0 0; -2 2"/></g><g><animateTransform attributeName="transform" begin="-2.5s" dur="3s" repeatCount="indefinite" type="translate" values="-2 2; 0 0; -2 2"/></g></svg>