<svg xmlns="http://www.w3.org/2000/svg" xmlns:xlink="http://www.w3.org/1999/xlink" viewBox="0 0 512 512">
    <defs>
        <symbol id="a" viewBox="0 0 359 231">
            <path d="M295.5,223.5a56,56,0,0,0,0-112c-.85,0-1.68.09-2.53.13A83.9,83.9,0,0,0,140.1,47.42,55.91,55.91,0,0,0,55.5,95.5a56.56,56.56,0,0,0,.8,9.08A60,60,0,0,0,67.5,223.5" fill="none" stroke="#e2e8f0" stroke-linecap="round" stroke-linejoin="round" stroke-width="15"/>
        </symbol>
        <symbol id="b" viewBox="0 0 136 24" overflow="visible">
            <!-- ice-pellet-1 -->
            <path d="M12,0A12,12,0,1,0,24,12,12,12,0,0,0,12,0Z" fill="#86c3db" opacity="0">
                <animateTransform
                    id="x1"
                    attributeName="transform"
                    additive="sum"
                    type="translate"
                    values="0 -46; 0 86; -18 74"
                    begin="0s; x1.end+.42s"
                    dur=".58s"
                    keyTimes="0; .71; 1"/>

                <animate
                    id="y1"
                    attributeName="opacity"
                    values="0; 1; 1; 0"
                    begin="0s; y1.end+.42s"
                    dur=".58s"
                    keyTimes="0; .14; .71; 1"/>
            </path>

            <!-- ice-pellet-2 -->
            <path d="M68,0A12,12,0,1,0,80,12,12,12,0,0,0,68,0Z" fill="#86c3db" opacity="0">
                <animateTransform
                    id="x2"
                    attributeName="transform"
                    additive="sum"
                    type="translate"
                    values="0 -46; 0 86; 0 74"
                    begin=".67s; x2.end+.42s"
                    dur=".58s"
                    keyTimes="0; .71; 1"/>

                <animate
                    id="y2"
                    attributeName="opacity"
                    values="0; 1; 1; 0"
                    begin=".67s; y2.end+.42s"
                    dur=".58s"
                    keyTimes="0; .14; .71; 1"/>
            </path>

            <!-- ice-pellet-3 -->
            <path d="M124,0a12,12,0,1,0,12,12A12,12,0,0,0,124,0Z" fill="#86c3db" opacity="0">
                <animateTransform
                    id="x3"
                    attributeName="transform"
                    additive="sum"
                    type="translate"
                    values="0 -46; 0 86; 18 74"
                    begin=".33s; x3.end+.42s"
                    dur=".58s"
                    keyTimes="0; .71; 1"/>

                <animate
                    id="y3"
                    attributeName="opacity"
                    values="0; 1; 1; 0"
                    begin=".33s; y3.end+.42s"
                    dur=".58s"
                    keyTimes="0; .14; .71; 1"/>
            </path>
        </symbol>
    </defs>
    <use width="359" height="231" transform="translate(76.5 140.5)" xlink:href="#a"/>
    <use width="136" height="24" transform="translate(188 350)" xlink:href="#b"/>
</svg>
