<svg xmlns="http://www.w3.org/2000/svg" xmlns:xlink="http://www.w3.org/1999/xlink" viewBox="0 0 512 512">
    <defs>
        <clipPath id="a">
            <rect width="512" height="306" fill="none"/>
        </clipPath>
        <symbol id="b" viewBox="0 0 279 279" overflow="visible">
            <!-- moon -->
            <path d="M256.75,173.13c-74.12,0-134.21-59.28-134.21-132.42A130.48,130.48,0,0,1,127,7.5C59.79,14.75,7.5,70.87,7.5,139.08c0,73.13,60.09,132.42,134.21,132.42,62.48,0,114.83-42.18,129.79-99.21A135.56,135.56,0,0,1,256.75,173.13Z" fill="none" stroke="#72b9d5" stroke-linecap="round" stroke-linejoin="round" stroke-width="15">
                <animateTransform
                    attributeName="transform"
                    additive="sum"
                    type="rotate"
                    values="-15 135 135; 9 135 135; -15 135 135"
                    dur="6s"
                    repeatCount="indefinite"/>
            </path>
        </symbol>
        <symbol id="c" viewBox="0 0 258 66" overflow="visible">
            <g>
                <line x1="9" y1="57" x2="39" y2="57" fill="none" stroke="#e2e8f0" stroke-linecap="round" stroke-miterlimit="10" stroke-width="18"/>
                <line x1="99" y1="57" x2="189" y2="57" fill="none" stroke="#e2e8f0" stroke-linecap="round" stroke-miterlimit="10" stroke-width="18" stroke-dasharray="60 60"/>
                <line x1="219" y1="57" x2="249" y2="57" fill="none" stroke="#e2e8f0" stroke-linecap="round" stroke-miterlimit="10" stroke-width="18"/>

                <animateTransform
                    attributeName="transform"
                    additive="sum"
                    type="translate"
                    values="-24 0; 24 0; -24 0"
                    dur="6s"
                    repeatCount="indefinite"/>
            </g>
            <g>
                <line x1="9" y1="9" x2="39" y2="9" fill="none" stroke="#e2e8f0" stroke-linecap="round" stroke-miterlimit="10" stroke-width="18"/>
                <line x1="99" y1="9" x2="189" y2="9" fill="none" stroke="#e2e8f0" stroke-linecap="round" stroke-miterlimit="10" stroke-width="18" stroke-dasharray="60 60"/>
                <line x1="219" y1="9" x2="249" y2="9" fill="none" stroke="#e2e8f0" stroke-linecap="round" stroke-miterlimit="10" stroke-width="18"/>

                <animateTransform
                    attributeName="transform"
                    additive="sum"
                    type="translate"
                    values="24 0; -24 0; 24 0"
                    dur="6s"
                    repeatCount="indefinite"/>
            </g>
        </symbol>
    </defs>
    <g clip-path="url(#a)">
        <use width="279" height="279" transform="translate(116.5 116.5)" xlink:href="#b"/>
    </g>
    <use width="258" height="66" transform="translate(127 339)" xlink:href="#c"/>
</svg>
