<svg xmlns="http://www.w3.org/2000/svg" viewBox="0 0 64 64">
	<defs>
		<clipPath id="a">
			<polygon points="12 35 4 34 3 24 5 16 10 12 14.72 9.79 20.72 9.79 29 10 33 13 33 20 27 24 21 24 18 27 18 31 14 33 12 35" fill="none"/>
		</clipPath>
		<clipPath id="b">
			<polygon points="41.8 20.25 46.28 26.86 46.5 31.5 51.81 33.95 53.5 39.92 61.58 39.92 61 27 51.69 18.5 41.8 20.25" fill="none"/>
		</clipPath>
	</defs>
	<g clip-path="url(#a)">
		<g>
			<g>
				<path d="M23.5,24A4.5,4.5,0,1,1,19,19.5,4.49,4.49,0,0,1,23.5,24ZM19,15.67V12.5m0,23V32.33m5.89-14.22,2.24-2.24M10.87,32.13l2.24-2.24m0-11.78-2.24-2.24M27.13,32.13l-2.24-2.24M7.5,24h3.17M30.5,24H27.33" fill="none" stroke="#f59e0b" stroke-linecap="round" stroke-miterlimit="10" stroke-width="2"/>
				<animateTransform attributeName="transform" type="rotate" from="0 19 24" to="360 19 24" dur="45s" repeatCount="indefinite"/>
			</g>
			<animateTransform attributeName="transform" type="translate" values="3 0; -3 0; 3 0" dur="7s" repeatCount="indefinite"/>
		</g>
		<animateTransform attributeName="transform" type="translate" values="-3 0; 3 0; -3 0" dur="7s" repeatCount="indefinite"/>
	</g>
	<g clip-path="url(#b)">
		<path d="M34.23,33.45a4.05,4.05,0,0,0,4.05,4H54.79a4.34,4.34,0,0,0,.81-8.61,3.52,3.52,0,0,0,.06-.66,4.06,4.06,0,0,0-6.13-3.48,6.08,6.08,0,0,0-11.25,3.19,6.34,6.34,0,0,0,.18,1.46h-.18A4.05,4.05,0,0,0,34.23,33.45Z" fill="none" stroke="#9ca3af" stroke-linejoin="round" stroke-width="2"/>
		<animateTransform attributeName="transform" type="translate" values="-2.1 0; 2.1 0; -2.1 0" dur="7s" repeatCount="indefinite"/>
	</g>
	<g>
		<path d="M46.5,31.5l-.32,0a10.49,10.49,0,0,0-19.11-8,7,7,0,0,0-10.57,6,7.21,7.21,0,0,0,.1,1.14A7.5,7.5,0,0,0,18,45.5a4.19,4.19,0,0,0,.5,0v0h28a7,7,0,0,0,0-14Z" fill="none" stroke="#e5e7eb" stroke-linejoin="round" stroke-width="3"/>
		<animateTransform attributeName="transform" type="translate" values="-3 0; 3 0; -3 0" dur="7s" repeatCount="indefinite"/>
	</g>
</svg>
