<svg xmlns="http://www.w3.org/2000/svg" xmlns:xlink="http://www.w3.org/1999/xlink" viewBox="0 0 512 512">
    <defs>
        <clipPath id="a">
            <path d="M288,148a83.84,83.84,0,0,0-71.4,39.92A55.91,55.91,0,0,0,132,236a56.56,56.56,0,0,0,.8,9.08A60,60,0,0,0,84,304H0V0H288Z" fill="none"/>
        </clipPath>
        <symbol id="c" viewBox="0 0 193 193">
            <!-- sun-core -->
            <circle cx="96.5" cy="96.5" r="40" fill="none" stroke="#fbbf24" stroke-miterlimit="10" stroke-width="9"/>

            <!-- sun-rays -->
            <path d="M96.5,29.88V4.5m0,184V163.12M143.61,49.39l17.94-17.94M31.45,161.55l17.94-17.94m0-94.22L31.45,31.45m130.1,130.1-17.94-17.94M4.5,96.5H29.88m158.62,0H163.12" fill="none" stroke="#fbbf24" stroke-linecap="round" stroke-miterlimit="10" stroke-width="9">
                <animateTransform
                    attributeName="transform"
                    additive="sum"
                    type="rotate"
                    values="0 96.5 96.5; 45 96.5 96.5"
                    dur="6s"
                    repeatCount="indefinite"/>
            </path>
        </symbol>
        <symbol id="d" viewBox="0 0 359 231">
            <path d="M295.5,223.5a56,56,0,0,0,0-112c-.85,0-1.68.09-2.53.13A83.9,83.9,0,0,0,140.1,47.42,55.91,55.91,0,0,0,55.5,95.5a56.56,56.56,0,0,0,.8,9.08A60,60,0,0,0,67.5,223.5" fill="none" stroke="#e2e8f0" stroke-linecap="round" stroke-linejoin="round" stroke-width="15"/>
        </symbol>
        <symbol id="b" viewBox="0 0 435.5 371.5">
            <g clip-path="url(#a)">
                <use width="193" height="193" transform="translate(69.5 110.5)" xlink:href="#c"/>
            </g>
            <use width="359" height="231" transform="translate(76.5 140.5)" xlink:href="#d"/>
        </symbol>
        <symbol id="e" viewBox="0 0 128 56" overflow="visible">
            <!-- raindrop-1 -->
            <path d="M8,56a8,8,0,0,1-8-8V8A8,8,0,0,1,16,8V48A8,8,0,0,1,8,56Z" fill="#0a5ad4" opacity="0">
                <animateTransform
                    id="x1"
                    attributeName="transform"
                    additive="sum"
                    type="translate"
                    values="0 -60; 0 60"
                    begin="0s; x1.end+.33s"
                    dur=".67s"/>

                <animate
                    id="y1"
                    attributeName="opacity"
                    values="0; 1; 0"
                    begin="0s; y1.end+.33s"
                    dur=".67s"
                    keyTimes="0; .25; 1"/>
            </path>

            <!-- raindrop-2 -->
            <path d="M64,56a8,8,0,0,1-8-8V8A8,8,0,0,1,72,8V48A8,8,0,0,1,64,56Z" fill="#0a5ad4" opacity="0">
                <animateTransform
                    id="x2"
                    attributeName="transform"
                    additive="sum"
                    type="translate"
                    values="0 -60; 0 60"
                    begin=".33s; x2.end+.33s"
                    dur=".67s"/>

                <animate
                    id="y2"
                    attributeName="opacity"
                    values="0; 1; 0"
                    begin=".33s; y2.end+.33s"
                    dur=".67s"
                    keyTimes="0; .25; 1"/>
            </path>

            <!-- raindrop-3 -->
            <path d="M120,56a8,8,0,0,1-8-8V8a8,8,0,0,1,16,0V48A8,8,0,0,1,120,56Z" fill="#0a5ad4" opacity="0">
                <animateTransform
                    id="x3"
                    attributeName="transform"
                    additive="sum"
                    type="translate"
                    values="0 -60; 0 60"
                    begin="-.33s; x3.end+.33s"
                    dur=".67s"/>

                <animate
                    id="y3"
                    attributeName="opacity"
                    values="0; 1; 0"
                    begin="-.33s; y3.end+.33s"
                    dur=".67s"
                    keyTimes="0; .25; 1"/>
            </path>
        </symbol>
    </defs>
    <use width="435.5" height="371.5" xlink:href="#b"/>
    <use width="128" height="56" transform="translate(192 344)" xlink:href="#e"/>
</svg>
