<svg xmlns="http://www.w3.org/2000/svg" viewBox="0 0 512 512">
    <defs>
        <clipPath id="a">
            <polygon points="118.96 428.7 390 428.7 390 305.33 336.88 305.33 325 312 311 303 313 289 325 282 390 282 390 81.59 118.96 81.59 118.96 282 187 282 200 290 200 305 187 312 171.81 303 118.96 303 118.96 428.7" fill="none"/>
        </clipPath>
    </defs>
    <circle cx="325" cy="297" r="15" fill="none" stroke="#e2e8f0" stroke-miterlimit="10" stroke-width="6"/>
    <circle cx="187" cy="297" r="15" fill="none" stroke="#e2e8f0" stroke-miterlimit="10" stroke-width="6"/>
    <g clip-path="url(#a)">
        <circle cx="256" cy="330" r="84" fill="none" stroke="#e2e8f0" stroke-miterlimit="10" stroke-width="9"/>
        <circle cx="256" cy="202" r="60" fill="none" stroke="#e2e8f0" stroke-miterlimit="10" stroke-width="9"/>
        <path d="M259,231a3,3,0,1,1-3-3A3,3,0,0,1,259,231Zm-12-5a3,3,0,1,0,3,3A3,3,0,0,0,247,226Zm-8-6a3,3,0,1,0,3,3A3,3,0,0,0,239,220Zm26,6a3,3,0,1,0,3,3A3,3,0,0,0,265,226Zm8-6a3,3,0,1,0,3,3A3,3,0,0,0,273,220Z" fill="#374151"/>
        <path d="M280,186a8,8,0,1,1-8-8A8,8,0,0,1,280,186Zm-40-8a8,8,0,1,0,8,8A8,8,0,0,0,240,178Z" fill="#374151"/>
        <path d="M280,266H214.85a7,7,0,0,1-6.85-7.14v-9.72a7,7,0,0,1,7.27-7.13h81.46a7,7,0,0,1,7.27,7.13v9.72a7,7,0,0,1-6.85,7.14Z" fill="#ef4444"/>
        <path d="M290.05,133.4l-24.15,6.46a.29.29,0,0,1-.35-.2L256.3,105.2a4,4,0,0,0-4.92-2.85l-38.6,10.33a4,4,0,0,0-2.84,4.93l9.24,34.45a.28.28,0,0,1-.2.35l-24.15,6.46a6.72,6.72,0,0,0-4.75,8.23l2.74,10.19a6.72,6.72,0,0,0,8.24,4.75l95.21-25.47a6.71,6.71,0,0,0,4.74-8.22l-2.74-10.2A6.71,6.71,0,0,0,290.05,133.4Z" fill="#1e293b"/>
        <line x1="222.08" y1="147.44" x2="260.72" y2="137.11" fill="none" stroke="#ef4444" stroke-linecap="square" stroke-miterlimit="10" stroke-width="4"/>
        <ellipse cx="256" cy="205.16" rx="8" ry="7.99" fill="#ffa94d"/>
        <path d="M264,324a8,8,0,1,1-8-8A8,8,0,0,1,264,324Zm-8,16a8,8,0,1,0,8,8A8,8,0,0,0,256,340Zm0-48a8,8,0,1,0,8,8A8,8,0,0,0,256,292Z" fill="#374151"/>
    </g>
</svg>
