<svg xmlns="http://www.w3.org/2000/svg" viewBox="0 0 512 512">
    <path d="M105.71,263.52,213.17,293.4a7.86,7.86,0,0,1,5.43,5.43l29.88,107.46a7.81,7.81,0,0,0,15,0L293.4,298.83a7.86,7.86,0,0,1,5.43-5.43l107.46-29.88a7.81,7.81,0,0,0,0-15L298.83,218.6a7.86,7.86,0,0,1-5.43-5.43L263.52,105.71a7.81,7.81,0,0,0-15,0L218.6,213.17a7.86,7.86,0,0,1-5.43,5.43L105.71,248.48A7.81,7.81,0,0,0,105.71,263.52Z" fill="none" stroke="#fcd34d" stroke-linecap="round" stroke-linejoin="round" stroke-width="15">
        <animateTransform
            attributeName="transform"
            additive="sum"
            type="rotate"
            values="-15 256 256; 15 256 256; -15 256 256"
            dur="6s"
            calcMode="spline"
            keySplines=".42, 0, .58, 1; .42, 0, .58, 1"
            repeatCount="indefinite"/>

        <animate
            attributeName="opacity"
            values="1; .75; 1; .75; 1; .75; 1"
            dur="6s"/>
    </path>
</svg>
