<svg xmlns="http://www.w3.org/2000/svg" xmlns:xlink="http://www.w3.org/1999/xlink" viewBox="0 0 512 512">
    <defs>
        <clipPath id="a">
            <path d="M372,357c-22.09,0-40-18.15-40-40.54a40.64,40.64,0,0,1,17.14-33.24V186.16A23,23,0,0,1,372,163H119.24V357Zm2.86-136.94h20m-20-22.82h20m-20,45.64h20" fill="none"/>
        </clipPath>
        <symbol id="b" viewBox="0 0 244 92" overflow="visible">
            <path fill="none" stroke="#2885c7" stroke-linecap="round" stroke-linejoin="round" stroke-width="12">
                <animate
                    attributeName="d"
                    values="
                    M 242 24.63 h -8 c -10.92 0 -20.85 -11.66 -26 -21.39 a 2.28 2.28 0 0 0 -4.06 0 c -5.12 9.73 -15.05 21.39 -26 21.39 S 157.15 13 152 3.24 a 2.28 2.28 0 0 0 -4.06 0 c -5.12 9.73 -15.05 21.39 -26 21.39 S 101.15 13 96 3.24 a 2.28 2.28 0 0 0 -4.06 0 c -5.12 9.73 -15 21.39 -26 21.39 S 45.15 13 40 3.24 a 2.28 2.28 0 0 0 -4.06 0 c -5.12 9.73 -15 21.39 -26 21.39 H 2 V 74 A 16.14 16.14 0 0 0 18 90 H 226 a 16.14 16.14 0 0 0 16 -16.3 Z;
                    M 242 24.63 h -8 c -10.92 0 -20.85 -11.66 -26 -21.39 a 2.28 2.28 0 0 0 -4.06 0 c -5.12 9.73 -15.05 21.39 -26 21.39 S 157.15 13 152 3.24 a 2.28 2.28 0 0 0 -4.06 0 c -5.12 9.73 -15.05 21.39 -26 21.39 S 101.15 13 96 3.24 a 2.28 2.28 0 0 0 -4.06 0 c -5.12 9.73 -15 21.39 -26 21.39 S 45.15 13 40 3.24 a 2.28 2.28 0 0 0 -4.06 0 c -5.12 9.73 -15 21.39 -26 21.39 H 2 V 59 A 16.14 16.14 0 0 0 18 75 H 226 a 16.14 16.14 0 0 0 16 -16.3 Z;
                    M 242 24.63 h -8 c -10.92 0 -20.85 -11.66 -26 -21.39 a 2.28 2.28 0 0 0 -4.06 0 c -5.12 9.73 -15.05 21.39 -26 21.39 S 157.15 13 152 3.24 a 2.28 2.28 0 0 0 -4.06 0 c -5.12 9.73 -15.05 21.39 -26 21.39 S 101.15 13 96 3.24 a 2.28 2.28 0 0 0 -4.06 0 c -5.12 9.73 -15 21.39 -26 21.39 S 45.15 13 40 3.24 a 2.28 2.28 0 0 0 -4.06 0 c -5.12 9.73 -15 21.39 -26 21.39 H 2 V 74 A 16.14 16.14 0 0 0 18 90 H 226 a 16.14 16.14 0 0 0 16 -16.3 Z
                    "
                    dur="3s"
                    calcMode="spline"
                    keySplines=".42, 0, .58, 1; .42, 0, .58, 1"
                    repeatCount="indefinite"/>

                <animateTransform
                    attributeName="transform"
                    additive="sum"
                    type="translate"
                    values="0 0; 0 15; 0 0"
                    dur="3s"
                    calcMode="spline"
                    keySplines=".42, 0, .58, 1; .42, 0, .58, 1"
                    repeatCount="indefinite"/>
            </path>
        </symbol>
    </defs>
    <g clip-path="url(#a)">
        <use width="244" height="92" transform="translate(134 242)" xlink:href="#b"/>
    </g>
    <ellipse cx="372" cy="317.06" rx="25.71" ry="25.68" fill="#ef4444"/>
    <path d="M372,231.47v85.59" fill="none" stroke="#ef4444" stroke-linecap="round" stroke-miterlimit="10" stroke-width="17.13">
        <animateTransform
            attributeName="transform"
            type="translate"
            values="0 0; 0 18; 0 0"
            dur="1s"
            calcMode="spline"
            keySplines=".42, 0, .58, 1; .42, 0, .58, 1"
            repeatCount="indefinite"/>
    </path>
    <path d="M412,316.46c0,22.39-17.91,40.54-40,40.54s-40-18.15-40-40.54a40.64,40.64,0,0,1,17.14-33.24V186.16a22.86,22.86,0,1,1,45.72,0v97.06A40.64,40.64,0,0,1,412,316.46Zm-37.14-96.4h20m-20-22.82h20m-20,45.64h20" fill="none" stroke="#cbd5e1" stroke-linecap="round" stroke-linejoin="round" stroke-width="4.28"/>
</svg>
