<svg xmlns="http://www.w3.org/2000/svg" viewBox="0 0 64 64">
	<path d="M43.67,45.5H46.5a7,7,0,0,0,0-14l-.32,0a10.49,10.49,0,0,0-19.11-8,7,7,0,0,0-10.57,6,7.21,7.21,0,0,0,.1,1.14A7.5,7.5,0,0,0,18,45.5a4.19,4.19,0,0,0,.5,0v0" fill="none" stroke="#e5e7eb" stroke-linecap="round" stroke-linejoin="round" stroke-width="3"/>
	<g>
		<path fill="none" stroke="#2885c7" stroke-linecap="round" stroke-miterlimit="10" stroke-width="2" d="M24.39 43.03l-.78 4.94"/>
		<animateTransform attributeName="transform" type="translate" values="1 -5; -2 10" dur="0.7s" repeatCount="indefinite"/>
		<animate attributeName="opacity" values="0;1;1;0" dur="0.7s" repeatCount="indefinite"/>
	</g>
	<g>
		<path fill="none" stroke="#2885c7" stroke-linecap="round" stroke-miterlimit="10" stroke-width="2" d="M31.39 43.03l-.78 4.94"/>
		<animateTransform attributeName="transform" begin="-0.4s" type="translate" values="1 -5; -2 10" dur="0.7s" repeatCount="indefinite"/>
		<animate attributeName="opacity" begin="-0.4s" values="0;1;1;0" dur="0.7s" repeatCount="indefinite"/>
	</g>
	<g>
		<path fill="none" stroke="#2885c7" stroke-linecap="round" stroke-miterlimit="10" stroke-width="2" d="M38.39 43.03l-.78 4.94"/>
		<animateTransform attributeName="transform" begin="-0.2s" type="translate" values="1 -5; -2 10" dur="0.7s" repeatCount="indefinite"/>
		<animate attributeName="opacity" begin="-0.2s" values="0;1;1;0" dur="0.7s" repeatCount="indefinite"/>
	</g>
	<g>
		<polygon points="30 36 26 48 30 48 28 58 38 44 32 44 36 36 30 36" fill="#f59e0b"/>
		<animate id="a" attributeName="opacity" values="1;1;1;1;1;1;0.1;1;0.1;1;1;0.1;1;0.1;1" dur="2s" repeatCount="indefinite"/>
	</g>
</svg>
