<svg xmlns="http://www.w3.org/2000/svg" viewBox="0 0 64 64">
	<path d="M43.67,45.5H46.5a7,7,0,0,0,0-14l-.32,0a10.49,10.49,0,0,0-19.11-8,7,7,0,0,0-10.57,6,7.21,7.21,0,0,0,.1,1.14A7.5,7.5,0,0,0,18,45.5a4.19,4.19,0,0,0,.5,0v0" fill="none" stroke="#e5e7eb" stroke-linecap="round" stroke-linejoin="round" stroke-width="3"/>
	<g>
		<circle cx="31" cy="45" r="1.25" fill="none" stroke="#72b8d4" stroke-miterlimit="10"/>
		<path d="M33.17,46.25l-1.09-.63m-2.16-1.24-1.09-.63M31,42.5v1.25m0,3.75V46.25m-1.08-.63-1.09.63m4.34-2.5-1.09.63" fill="none" stroke="#72b8d4" stroke-linecap="round" stroke-miterlimit="10"/>
		<animateTransform attributeName="transform" type="translate" additive="sum" values="-1 -6; 1 12" dur="4s" repeatCount="indefinite"/>
		<animateTransform attributeName="transform" type="rotate" additive="sum" values="0 31 45; 360 31 45" dur="9s" repeatCount="indefinite"/>
		<animate attributeName="opacity" values="0;1;1;1;0" dur="4s" repeatCount="indefinite"/>
	</g>
	<g>
		<circle cx="24" cy="45" r="1.25" fill="none" stroke="#72b8d4" stroke-miterlimit="10"/>
		<path d="M26.17,46.25l-1.09-.63m-2.16-1.24-1.09-.63M24,42.5v1.25m0,3.75V46.25m-1.08-.63-1.09.63m4.34-2.5-1.09.63" fill="none" stroke="#72b8d4" stroke-linecap="round" stroke-miterlimit="10"/>
		<animateTransform attributeName="transform" type="translate" additive="sum" values="1 -6; -1 12" begin="-2s" dur="4s" repeatCount="indefinite"/>
		<animateTransform attributeName="transform" type="rotate" additive="sum" values="0 24 45; 360 24 45" dur="9s" repeatCount="indefinite"/>
		<animate attributeName="opacity" values="0;1;1;1;0" begin="-2s" dur="4s" repeatCount="indefinite"/>
	</g>
	<g>
		<circle cx="38" cy="45" r="1.25" fill="none" stroke="#72b8d4" stroke-miterlimit="10"/>
		<path d="M40.17,46.25l-1.09-.63m-2.16-1.24-1.09-.63M38,42.5v1.25m0,3.75V46.25m-1.08-.63-1.09.63m4.34-2.5-1.09.63" fill="none" stroke="#72b8d4" stroke-linecap="round" stroke-miterlimit="10"/>
		<animateTransform attributeName="transform" type="translate" additive="sum" values="1 -6; -1 12" begin="-1s" dur="4s" repeatCount="indefinite"/>
		<animateTransform attributeName="transform" type="rotate" additive="sum" values="0 38 45; 360 38 45" dur="9s" repeatCount="indefinite"/>
		<animate attributeName="opacity" values="0;1;1;1;0" begin="-1s" dur="4s" repeatCount="indefinite"/>
	</g>
	<g>
		<polygon points="30 36 26 48 30 48 28 58 38 44 32 44 36 36 30 36" fill="#f59e0b"/>
		<animate id="a" attributeName="opacity" values="1;1;1;1;1;1;0.1;1;0.1;1;1;0.1;1;0.1;1" dur="2s" repeatCount="indefinite"/>
	</g>
</svg>
