<svg xmlns="http://www.w3.org/2000/svg" viewBox="0 0 64 64">
	<path d="M43.64,20a5,5,0,1,1,3.61,8.46H11.75" fill="none" stroke="#e5e7eb" stroke-dasharray="35 22" stroke-linecap="round" stroke-miterlimit="10" stroke-width="3">
		<animate attributeName="stroke-dashoffset" values="-57; 57" dur="1.7s" repeatCount="indefinite"/>
	</path>
	<path d="M29.14,44a5,5,0,1,0,3.61-8.46h-21" fill="none" stroke="#e5e7eb" stroke-dasharray="24 15" stroke-linecap="round" stroke-miterlimit="10" stroke-width="3">
		<animate attributeName="stroke-dashoffset" values="-39; 39" dur="1.7s" begin="-.425s" repeatCount="indefinite"/>
	</path>
	<path d="M52.37,34.82a.57.57,0,0,1,.11.39V36a.42.42,0,0,1-.51.51H47.68l-.22,2.21h1.81a3.62,3.62,0,0,1,2.71.95A3.32,3.32,0,0,1,52.92,42a3.42,3.42,0,0,1-1,2.52,3.69,3.69,0,0,1-2.75,1c-2.12,0-3.48-.81-4.07-2.45a.46.46,0,0,1,.32-.66l.83-.28a.54.54,0,0,1,.4,0,.62.62,0,0,1,.24.36,2.15,2.15,0,0,0,2.26,1.31,1.8,1.8,0,0,0,1.31-.47A1.71,1.71,0,0,0,50.93,42a1.53,1.53,0,0,0-.48-1.19,1.82,1.82,0,0,0-1.28-.45H46a.55.55,0,0,1-.45-.14.6.6,0,0,1-.09-.46l.45-4.36a1,1,0,0,1,.22-.58,1,1,0,0,1,.61-.15H52A.55.55,0,0,1,52.37,34.82Z" fill="#374151"/>
</svg>
