<svg xmlns="http://www.w3.org/2000/svg" viewBox="0 0 64 64">
	<path d="M43.64,20a5,5,0,1,1,3.61,8.46H11.75" fill="none" stroke="#e5e7eb" stroke-dasharray="35 22" stroke-linecap="round" stroke-miterlimit="10" stroke-width="3">
		<animate attributeName="stroke-dashoffset" values="-57; 57" dur="1.3s" repeatCount="indefinite"/>
	</path>
	<path d="M29.14,44a5,5,0,1,0,3.61-8.46h-21" fill="none" stroke="#e5e7eb" stroke-dasharray="24 15" stroke-linecap="round" stroke-miterlimit="10" stroke-width="3">
		<animate attributeName="stroke-dashoffset" values="-39; 39" dur="1.3s" begin="-.325s" repeatCount="indefinite"/>
	</path>
	<path d="M48.79,41.34q-3.88,0-3.88-3.42A3.15,3.15,0,0,1,46,35.4a4.41,4.41,0,0,1,3-.92,4.06,4.06,0,0,1,3,1,3.85,3.85,0,0,1,1,2.87v3.28a3.84,3.84,0,0,1-1,2.88,4.05,4.05,0,0,1-3,1,3.74,3.74,0,0,1-3.89-2.37.65.65,0,0,1,0-.41.73.73,0,0,1,.35-.25l.8-.28a.49.49,0,0,1,.4,0,.69.69,0,0,1,.25.35,2,2,0,0,0,2.11,1.24,1.9,1.9,0,0,0,2.16-2.14v-.63A8.91,8.91,0,0,1,48.79,41.34Zm1.75-4.56a2.2,2.2,0,0,0-1.6-.55,2.66,2.66,0,0,0-1.61.43,1.5,1.5,0,0,0-.55,1.26,1.56,1.56,0,0,0,.5,1.25,2.65,2.65,0,0,0,1.64.41,5.11,5.11,0,0,0,2.18-.35v-.85A2.12,2.12,0,0,0,50.54,36.78Z" fill="#374151"/>
</svg>
