<svg xmlns="http://www.w3.org/2000/svg" viewBox="0 0 64 64"><defs><clipPath id="a"><path fill="none" d="M7.5 7.5h47l-47 47v-47z"/></clipPath></defs><g clip-path="url(#a)"><g><path fill="#f59e0b" d="M32 30.36A8.64 8.64 0 1123.36 39 8.66 8.66 0 0132 30.36m0-3A11.64 11.64 0 1043.64 39 11.64 11.64 0 0032 27.36z"/><path fill="none" stroke="#f59e0b" stroke-linecap="round" stroke-miterlimit="10" stroke-width="3" d="M32 22.71V16.5M32 61.5v-6.21M43.52 27.48l4.39-4.39M16.09 54.91l4.39-4.39M20.48 27.48l-4.39-4.39M47.91 54.91l-4.39-4.39M15.71 39H9.5M54.5 39h-6.21"/><animateTransform attributeName="transform" dur="45s" from="0 32 39" repeatCount="indefinite" to="360 32 39" type="rotate"/></g></g><g><path fill="none" stroke="#fde68a" stroke-linecap="round" stroke-miterlimit="10" stroke-width="3" d="M24.89 45.11l3.19-3.19"/><path fill="none" stroke="#fde68a" stroke-dasharray="7 7" stroke-linecap="round" stroke-miterlimit="10" stroke-width="3" d="M33.03 36.97l7.42-7.42"><animate attributeName="stroke-dasharray" dur="5s" repeatCount="indefinite" values="7 7; 5 9; 7 7"/></path><path fill="none" stroke="#fde68a" stroke-linecap="round" stroke-miterlimit="10" stroke-width="3" d="M42.92 27.08l3.19-3.19"/><animateTransform attributeName="transform" dur="5s" repeatCount="indefinite" type="translate" values="-2 2; 0 0; -2 2"/></g><g><path fill="none" stroke="#fde68a" stroke-linecap="round" stroke-miterlimit="10" stroke-width="3" d="M34.89 45.11l3.19-3.19"/><path fill="none" stroke="#fde68a" stroke-dasharray="7 7" stroke-linecap="round" stroke-miterlimit="10" stroke-width="3" d="M43.03 36.97l7.42-7.42"><animate attributeName="stroke-dasharray" begin="-2.5s" dur="5s" repeatCount="indefinite" values="7 7; 5 9; 7 7"/></path><path fill="none" stroke="#fde68a" stroke-linecap="round" stroke-miterlimit="10" stroke-width="3" d="M52.92 27.08l3.19-3.19"/><animateTransform attributeName="transform" begin="-2.5s" dur="5s" repeatCount="indefinite" type="translate" values="-2 2; 0 0; -2 2"/></g></svg>