<svg xmlns="http://www.w3.org/2000/svg" viewBox="0 0 64 64"><path fill="#374151" d="M27.91 30.06a3.88 3.88 0 01-5.53 0 3.95 3.95 0 010-5.57 3.85 3.85 0 012.8-1.13 3.88 3.88 0 013.91 3.92 3.84 3.84 0 01-1.18 2.78zm-4-1.54a1.63 1.63 0 001.22.5 1.65 1.65 0 001.21-.5 1.61 1.61 0 00.52-1.2 1.71 1.71 0 00-.51-1.24 1.71 1.71 0 00-2.44 0 1.71 1.71 0 00-.51 1.24 1.64 1.64 0 00.54 1.2zM42.58 23.76a.83.83 0 01.2.63v1.18a.83.83 0 01-.2.63.91.91 0 01-.64.18h-7.35v4.42h6.17a1 1 0 01.65.18.84.84 0 01.19.64v1.17a.89.89 0 01-.18.64.93.93 0 01-.66.18h-6.17v6.19a.91.91 0 01-.18.64.88.88 0 01-.63.18h-1.37a.94.94 0 01-.65-.18.86.86 0 01-.19-.64V24.39a.83.83 0 01.19-.63.94.94 0 01.65-.18h9.53a.91.91 0 01.64.18z"/></svg>