<svg xmlns="http://www.w3.org/2000/svg" viewBox="0 0 64 64"><defs><clipPath id="a"><path fill="none" d="M0 7.5h64v32H0z"/></clipPath></defs><g><path fill="none" stroke="#d1d5db" stroke-linecap="round" stroke-miterlimit="10" stroke-width="3" d="M17 44h30"/><animateTransform attributeName="transform" begin="0s" dur="5s" repeatCount="indefinite" type="translate" values="-4 0; 4 0; -4 0"/></g><g><path fill="none" stroke="#d1d5db" stroke-linecap="round" stroke-miterlimit="10" stroke-width="3" d="M17 51h30"/><animateTransform attributeName="transform" begin="-4s" dur="5s" repeatCount="indefinite" type="translate" values="-4 0; 4 0; -4 0"/></g><g clip-path="url(#a)"><g><path fill="#f59e0b" d="M32 30.36A8.64 8.64 0 1123.36 39 8.66 8.66 0 0132 30.36m0-3A11.64 11.64 0 1043.64 39 11.64 11.64 0 0032 27.36z"/><path fill="none" stroke="#f59e0b" stroke-linecap="round" stroke-miterlimit="10" stroke-width="3" d="M32 22.71V16.5M32 61.5v-6.21M43.52 27.48l4.39-4.39M16.09 54.91l4.39-4.39M20.48 27.48l-4.39-4.39M47.91 54.91l-4.39-4.39M15.71 39H9.5M54.5 39h-6.21"/><animateTransform attributeName="transform" dur="45s" from="0 32 39" repeatCount="indefinite" to="360 32 39" type="rotate"/></g></g></svg>