<svg xmlns="http://www.w3.org/2000/svg" viewBox="0 0 64 64"><defs><clipPath id="a"><path fill="none" d="M12 35l-8-1-1-10 2-8 5-4 4.72-2.21h6L29 10l4 3v7l-6 4h-6l-3 3v4l-4 2-2 2z"/></clipPath><clipPath id="b"><path fill="none" d="M41.8 20.25l4.48 6.61.22 4.64 5.31 2.45 1.69 5.97h8.08L61 27l-9.31-8.5-9.89 1.75z"/></clipPath></defs><g clip-path="url(#a)"><g><g><path fill="none" stroke="#f59e0b" stroke-linecap="round" stroke-miterlimit="10" stroke-width="2" d="M23.5 24a4.5 4.5 0 11-4.5-4.5 4.49 4.49 0 014.5 4.5zM19 15.67V12.5m0 23v-3.17m5.89-14.22l2.24-2.24M10.87 32.13l2.24-2.24m0-11.78l-2.24-2.24m16.26 16.26l-2.24-2.24M7.5 24h3.17m19.83 0h-3.17"/><animateTransform attributeName="transform" dur="45s" from="0 19 24" repeatCount="indefinite" to="360 19 24" type="rotate"/></g><animateTransform attributeName="transform" dur="7s" repeatCount="indefinite" type="translate" values="3 0; -3 0; 3 0"/></g><animateTransform attributeName="transform" dur="7s" repeatCount="indefinite" type="translate" values="-3 0; 3 0; -3 0"/></g><g clip-path="url(#b)"><path fill="none" stroke="#9ca3af" stroke-linejoin="round" stroke-width="2" d="M34.23 33.45a4.05 4.05 0 004.05 4h16.51a4.34 4.34 0 00.81-8.61 3.52 3.52 0 00.06-.66 4.06 4.06 0 00-6.13-3.48 6.08 6.08 0 00-11.25 3.19 6.34 6.34 0 00.18 1.46h-.18a4.05 4.05 0 00-4.05 4.1z"/><animateTransform attributeName="transform" dur="7s" repeatCount="indefinite" type="translate" values="-2.1 0; 2.1 0; -2.1 0"/></g><g><path fill="none" stroke="#e5e7eb" stroke-linejoin="round" stroke-width="3" d="M46.5 31.5h-.32a10.49 10.49 0 00-19.11-8 7 7 0 00-10.57 6 7.21 7.21 0 00.1 1.14A7.5 7.5 0 0018 45.5a4.19 4.19 0 00.5 0v0h28a7 7 0 000-14z"/><animateTransform attributeName="transform" dur="7s" repeatCount="indefinite" type="translate" values="-3 0; 3 0; -3 0"/></g></svg>