<svg xmlns="http://www.w3.org/2000/svg" viewBox="0 0 64 64"><defs><clipPath id="a"><path fill="none" d="M12 35l-5.28-4.21-2-6 1-7 4-5 5-3h6l5 1 3 3L33 20l-6 4h-6l-3 3v4l-4 2-2 2z"/></clipPath></defs><g clip-path="url(#a)"><g><path fill="#f59e0b" d="M19 20.05A3.95 3.95 0 1115.05 24 4 4 0 0119 20.05m0-2A5.95 5.95 0 1025 24a5.95 5.95 0 00-6-5.95z"/><path fill="none" stroke="#f59e0b" stroke-linecap="round" stroke-miterlimit="10" stroke-width="2" d="M19 15.67V12.5M19 35.5v-3.17M24.89 18.11l2.24-2.24M10.87 32.13l2.24-2.24M13.11 18.11l-2.24-2.24M27.13 32.13l-2.24-2.24M10.67 24H7.5M30.5 24h-3.17"/><animateTransform attributeName="transform" dur="45s" from="0 19.22 24.293" repeatCount="indefinite" to="360 19.22 24.293" type="rotate"/></g></g><path fill="none" stroke="#e5e7eb" stroke-linejoin="round" stroke-width="3" d="M46.5 31.5h-.32a10.49 10.49 0 00-19.11-8 7 7 0 00-10.57 6 7.21 7.21 0 00.1 1.14A7.5 7.5 0 0018 45.5a4.19 4.19 0 00.5 0v0h28a7 7 0 000-14z"/><g><path fill="none" stroke="#d1d5db" stroke-linecap="round" stroke-miterlimit="10" stroke-width="3" d="M17 58h30"/><animateTransform attributeName="transform" begin="0s" dur="5s" repeatCount="indefinite" type="translate" values="-4 0; 4 0; -4 0"/></g><g><path fill="none" stroke="#d1d5db" stroke-linecap="round" stroke-miterlimit="10" stroke-width="3" d="M17 52h30"/><animateTransform attributeName="transform" begin="-4s" dur="5s" repeatCount="indefinite" type="translate" values="-4 0; 4 0; -4 0"/></g></svg>