<svg xmlns="http://www.w3.org/2000/svg" viewBox="0 0 64 64"><path fill="none" stroke="#e5e7eb" stroke-linecap="round" stroke-linejoin="round" stroke-width="3" d="M43.67 45.5h2.83a7 7 0 000-14h-.32a10.49 10.49 0 00-19.11-8 7 7 0 00-10.57 6 7.21 7.21 0 00.1 1.14A7.5 7.5 0 0018 45.5a4.19 4.19 0 00.5 0v0"/><g><g><g><path fill="#72b8d4" d="M24.24 42.67l.24.68a.25.25 0 00.35.14l.65-.31a.26.26 0 01.34.34l-.31.65a.25.25 0 00.14.35l.68.24a.25.25 0 010 .48l-.68.24a.25.25 0 00-.14.35l.31.65a.26.26 0 01-.34.34l-.65-.31a.25.25 0 00-.35.14l-.24.68a.25.25 0 01-.48 0l-.24-.68a.25.25 0 00-.35-.14l-.65.31a.26.26 0 01-.34-.34l.31-.65a.25.25 0 00-.14-.35l-.68-.24a.25.25 0 010-.48l.68-.24a.25.25 0 00.14-.35l-.31-.65a.26.26 0 01.34-.34l.65.31a.25.25 0 00.35-.14l.24-.68a.25.25 0 01.48 0z"/><animateTransform attributeName="transform" dur="9s" repeatCount="indefinite" type="rotate" values="0 24 45; 360 24 45"/></g><animateTransform attributeName="transform" dur="4s" repeatCount="indefinite" type="translate" values="-3 0; 3 0"/></g><animateTransform attributeName="transform" dur="4s" repeatCount="indefinite" type="translate" values="2 -6; -2 12"/><animate attributeName="opacity" dur="4s" repeatCount="indefinite" values="0;1;1;1;0"/></g><g><g><g><path fill="#72b8d4" d="M31.24 42.67l.24.68a.25.25 0 00.35.14l.65-.31a.26.26 0 01.34.34l-.31.65a.25.25 0 00.14.35l.68.24a.25.25 0 010 .48l-.68.24a.25.25 0 00-.14.35l.31.65a.26.26 0 01-.34.34l-.65-.31a.25.25 0 00-.35.14l-.24.68a.25.25 0 01-.48 0l-.24-.68a.25.25 0 00-.35-.14l-.65.31a.26.26 0 01-.34-.34l.31-.65a.25.25 0 00-.14-.35l-.68-.24a.25.25 0 010-.48l.68-.24a.25.25 0 00.14-.35l-.31-.65a.26.26 0 01.34-.34l.65.31a.25.25 0 00.35-.14l.24-.68a.25.25 0 01.48 0z"/><animateTransform attributeName="transform" dur="9s" repeatCount="indefinite" type="rotate" values="0 31 45; 360 31 45"/></g><animateTransform attributeName="transform" begin="-2s" dur="4s" repeatCount="indefinite" type="translate" values="-3 0; 3 0"/></g><animateTransform attributeName="transform" begin="-2s" dur="4s" repeatCount="indefinite" type="translate" values="2 -6; -2 12"/><animate attributeName="opacity" begin="-2s" dur="4s" repeatCount="indefinite" values="0;1;1;1;0"/></g><g><g><g><path fill="#72b8d4" d="M38.24 42.67l.24.68a.25.25 0 00.35.14l.65-.31a.26.26 0 01.34.34l-.31.65a.25.25 0 00.14.35l.68.24a.25.25 0 010 .48l-.68.24a.25.25 0 00-.14.35l.31.65a.26.26 0 01-.34.34l-.65-.31a.25.25 0 00-.35.14l-.24.68a.25.25 0 01-.48 0l-.24-.68a.25.25 0 00-.35-.14l-.65.31a.26.26 0 01-.34-.34l.31-.65a.25.25 0 00-.14-.35l-.68-.24a.25.25 0 010-.48l.68-.24a.25.25 0 00.14-.35l-.31-.65a.26.26 0 01.34-.34l.65.31a.25.25 0 00.35-.14l.24-.68a.25.25 0 01.48 0z"/><animateTransform attributeName="transform" dur="9s" repeatCount="indefinite" type="rotate" values="0 38 45; 360 38 45"/></g><animateTransform attributeName="transform" begin="-1s" dur="4s" repeatCount="indefinite" type="translate" values="-3 0; 3 0"/></g><animateTransform attributeName="transform" begin="-1s" dur="4s" repeatCount="indefinite" type="translate" values="2 -6; -2 12"/><animate attributeName="opacity" begin="-1s" dur="4s" repeatCount="indefinite" values="0;1;1;1;0"/></g></svg>