<svg xmlns="http://www.w3.org/2000/svg" viewBox="0 0 64 64"><path fill="none" stroke="#72b8d4" stroke-linecap="round" stroke-linejoin="round" stroke-width="2" d="M32 15.5v33M26.35 45.5L32 37.81c.15.18 5.34 7.25 5.66 7.69M26.35 18.16L32 25.84c.15-.17 5.34-7.25 5.66-7.68M17.31 40.25l29.38-16.5M46.85 30c-.42 0-9.59-.9-9.67-.92.08-.21 3.79-8.11 4-8.6M22.51 43.69c.17-.38 4-8.53 4-8.61-.23 0-9.12-.87-9.67-.92M17.31 23.75l29.38 16.5M41.2 43.51c-.18-.37-4-8.53-4-8.6.23 0 9.12-.87 9.67-.92M16.85 29.84c.42 0 9.59-.9 9.67-.92-.08-.21-3.79-8.11-4-8.61"/></svg>