<svg xmlns="http://www.w3.org/2000/svg" viewBox="0 0 64 64"><g><path fill="none" stroke="#f59e0b" stroke-linecap="round" stroke-miterlimit="10" stroke-width="3" d="M42.5 32A10.5 10.5 0 1132 21.5 10.5 10.5 0 0142.5 32zM32 15.71V9.5m0 45v-6.21m11.52-27.81l4.39-4.39M16.09 47.91l4.39-4.39m0-23l-4.39-4.39m31.82 31.78l-4.39-4.39M15.71 32H9.5m45 0h-6.21"/><animateTransform attributeName="transform" dur="45s" from="0 32 32" repeatCount="indefinite" to="360 32 32" type="rotate"/></g><rect width="21" height="21" x="33.5" y="33.5" fill="#ffb800" stroke="#fff" stroke-miterlimit="10" stroke-width="2" rx="6"/><path fill="#fff" d="M45.94 43.82a1.86 1.86 0 011.06 1.8 2.17 2.17 0 01-.73 1.74 3.18 3.18 0 01-2.16.64A2.9 2.9 0 0141 46.18a.39.39 0 01.27-.56l.82-.29a.4.4 0 01.35 0 .58.58 0 01.22.3 1.18 1.18 0 00.46.61 1.61 1.61 0 00.89.19c.73 0 1.09-.28 1.09-.84s-.3-.85-.91-.85h-.86a.51.51 0 01-.35-.09.43.43 0 01-.1-.34v-.67a.49.49 0 01.1-.35.51.51 0 01.35-.09H44a1.15 1.15 0 00.69-.2.68.68 0 00.27-.59c0-.53-.32-.8-1-.8a1.48 1.48 0 00-.83.18 1.24 1.24 0 00-.42.62.55.55 0 01-.22.29.52.52 0 01-.35 0l-.82-.29a.38.38 0 01-.27-.56 2.64 2.64 0 011.06-1.37 3.66 3.66 0 012-.45 2.88 2.88 0 012 .6 2 2 0 01.7 1.62 1.76 1.76 0 01-.87 1.57z"/></svg>