<svg xmlns="http://www.w3.org/2000/svg" viewBox="0 0 64 64"><g><path fill="none" stroke="#f59e0b" stroke-linecap="round" stroke-miterlimit="10" stroke-width="3" d="M42.5 32A10.5 10.5 0 1132 21.5 10.5 10.5 0 0142.5 32zM32 15.71V9.5m0 45v-6.21m11.52-27.81l4.39-4.39M16.09 47.91l4.39-4.39m0-23l-4.39-4.39m31.82 31.78l-4.39-4.39M15.71 32H9.5m45 0h-6.21"/><animateTransform attributeName="transform" dur="45s" from="0 32 32" repeatCount="indefinite" to="360 32 32" type="rotate"/></g><rect width="21" height="21" x="33.5" y="33.5" fill="#ffb800" stroke="#fff" stroke-miterlimit="10" stroke-width="2" rx="6"/><path fill="#fff" d="M46.58 40.1a.47.47 0 01.1.35v.73a.46.46 0 01-.1.35.47.47 0 01-.35.1h-2.91l-.11 1.16h1a2.77 2.77 0 012.07.72 2.51 2.51 0 01.7 1.84 2.57 2.57 0 01-.77 1.89 2.83 2.83 0 01-2.09.76c-1.62 0-2.65-.61-3.1-1.82a.52.52 0 010-.37.5.5 0 01.29-.21l.85-.3a.45.45 0 01.35 0 .49.49 0 01.22.3 1.23 1.23 0 00.47.59 1.69 1.69 0 00.88.2 1 1 0 00.75-.27 1 1 0 00.28-.77.85.85 0 00-.29-.69 1.08 1.08 0 00-.75-.25h-2.3a.47.47 0 01-.38-.12.52.52 0 01-.08-.4l.33-3.22a.7.7 0 01.19-.5.75.75 0 01.53-.14h3.87a.47.47 0 01.35.07z"/></svg>