<svg xmlns="http://www.w3.org/2000/svg" viewBox="0 0 64 64"><g><path fill="none" stroke="#f59e0b" stroke-linecap="round" stroke-miterlimit="10" stroke-width="3" d="M42.5 32A10.5 10.5 0 1132 21.5 10.5 10.5 0 0142.5 32zM32 15.71V9.5m0 45v-6.21m11.52-27.81l4.39-4.39M16.09 47.91l4.39-4.39m0-23l-4.39-4.39m31.82 31.78l-4.39-4.39M15.71 32H9.5m45 0h-6.21"/><animateTransform attributeName="transform" dur="45s" from="0 32 32" repeatCount="indefinite" to="360 32 32" type="rotate"/></g><rect width="21" height="21" x="33.5" y="33.5" fill="#9936d4" stroke="#fff" stroke-miterlimit="10" stroke-width="2" rx="6"/><path fill="#fff" d="M42.9 40.1a.5.5 0 01.1.36v7.08a.5.5 0 01-.1.36.46.46 0 01-.35.1h-.89a.46.46 0 01-.35-.1.5.5 0 01-.1-.36v-5.29l-1.07.62a.42.42 0 01-.68-.18l-.39-.69a.43.43 0 010-.35.56.56 0 01.28-.27l2-1.18a1.18 1.18 0 01.63-.18h.63a.46.46 0 01.29.08zM47.9 40.1a.5.5 0 01.1.36v7.08a.5.5 0 01-.1.36.46.46 0 01-.35.1h-.89a.46.46 0 01-.35-.1.5.5 0 01-.1-.36v-5.29l-1.07.62a.42.42 0 01-.68-.18l-.38-.69a.45.45 0 01-.07-.35.64.64 0 01.29-.27l2-1.18a1.24 1.24 0 01.64-.18h.63a.46.46 0 01.33.08z"/></svg>