<svg xmlns="http://www.w3.org/2000/svg" viewBox="0 0 64 64"><g><path fill="none" stroke="#f59e0b" stroke-linecap="round" stroke-miterlimit="10" stroke-width="3" d="M42.5 32A10.5 10.5 0 1132 21.5 10.5 10.5 0 0142.5 32zM32 15.71V9.5m0 45v-6.21m11.52-27.81l4.39-4.39M16.09 47.91l4.39-4.39m0-23l-4.39-4.39m31.82 31.78l-4.39-4.39M15.71 32H9.5m45 0h-6.21"/><animateTransform attributeName="transform" dur="45s" from="0 32 32" repeatCount="indefinite" to="360 32 32" type="rotate"/></g><rect width="21" height="21" x="33.5" y="33.5" fill="#ff3c00" stroke="#fff" stroke-miterlimit="10" stroke-width="2" rx="6"/><path fill="#fff" d="M42 40.6a3 3 0 012-.6 3.26 3.26 0 012.06.55 1.87 1.87 0 01.7 1.57 1.91 1.91 0 01-.86 1.65 2 2 0 011.1 1.88 2.12 2.12 0 01-.74 1.72A3.45 3.45 0 0144 48c-2 0-3-.72-3-2.15A2 2 0 0142.11 44a2 2 0 01-.87-1.78A2 2 0 0142 40.6zm3.17 4.83a.48.48 0 00-.09-.19.53.53 0 00-.17-.16L44.7 45a1.58 1.58 0 00-.26-.1l-.28-.07-.33-.08-.35-.08a1.09 1.09 0 00-.73 1c0 .55.41.83 1.24.83a1.54 1.54 0 00.92-.21.72.72 0 00.28-.62.62.62 0 00-.04-.24zm-.37-3.74a1.31 1.31 0 00-.77-.2c-.68 0-1 .27-1 .79a.64.64 0 00.24.55 2.3 2.3 0 00.73.32l.45.11a1 1 0 00.65-1 .68.68 0 00-.32-.57z"/></svg>