<svg xmlns="http://www.w3.org/2000/svg" viewBox="0 0 64 64"><path fill="none" stroke="#e5e7eb" stroke-dasharray="35 22" stroke-linecap="round" stroke-miterlimit="10" stroke-width="3" d="M43.64 20a5 5 0 113.61 8.46h-35.5"><animate attributeName="stroke-dashoffset" dur="1.8s" repeatCount="indefinite" values="-57; 57"/></path><path fill="none" stroke="#e5e7eb" stroke-dasharray="24 15" stroke-linecap="round" stroke-miterlimit="10" stroke-width="3" d="M29.14 44a5 5 0 103.61-8.46h-21"><animate attributeName="stroke-dashoffset" begin="-.45s" dur="1.8s" repeatCount="indefinite" values="-39; 39"/></path><path fill="#374151" d="M53.25 41.33a.57.57 0 01.11.39v.65a.6.6 0 01-.11.4.56.56 0 01-.4.11h-1v2a.43.43 0 01-.51.51h-.73a.55.55 0 01-.4-.12.51.51 0 01-.11-.39v-2h-5a.6.6 0 01-.4-.11.55.55 0 01-.11-.4v-.54a1 1 0 01.18-.62l5-6.17a.88.88 0 01.72-.36h.82a.6.6 0 01.4.1.59.59 0 01.11.41v6h1a.55.55 0 01.43.14zm-6.45-.12h3.26v-4z"/></svg>