<svg xmlns="http://www.w3.org/2000/svg" viewBox="0 0 64 64"><path fill="none" stroke="#e5e7eb" stroke-dasharray="35 22" stroke-linecap="round" stroke-miterlimit="10" stroke-width="3" d="M43.64 20a5 5 0 113.61 8.46h-35.5"><animate attributeName="stroke-dashoffset" dur="1.1s" repeatCount="indefinite" values="-57; 57"/></path><path fill="none" stroke="#e5e7eb" stroke-dasharray="24 15" stroke-linecap="round" stroke-miterlimit="10" stroke-width="3" d="M29.14 44a5 5 0 103.61-8.46h-21"><animate attributeName="stroke-dashoffset" begin="-.275s" dur="1.1s" repeatCount="indefinite" values="-39; 39"/></path><path fill="#374151" d="M47.73 34.82a.52.52 0 01.11.39v9.64a.51.51 0 01-.11.39.52.52 0 01-.4.12h-.85a.43.43 0 01-.51-.51V37l-2.1 1.17a.62.62 0 01-.46.12.57.57 0 01-.3-.31l-.38-.67a.58.58 0 01-.07-.4.67.67 0 01.34-.31l2.93-1.68a1.34 1.34 0 01.72-.21h.71a.52.52 0 01.37.11zM54.33 34.82a.52.52 0 01.11.39v9.64a.51.51 0 01-.11.39.53.53 0 01-.4.12h-.85a.43.43 0 01-.51-.51V37l-2.1 1.17a.63.63 0 01-.47.12.55.55 0 01-.29-.31l-.38-.67a.58.58 0 01-.07-.4.67.67 0 01.31-.29l2.93-1.68a1.31 1.31 0 01.71-.21h.72a.53.53 0 01.4.09z"/></svg>