<svg xmlns="http://www.w3.org/2000/svg" viewBox="0 0 64 64"><path fill="none" stroke="#e5e7eb" stroke-dasharray="35 22" stroke-linecap="round" stroke-miterlimit="10" stroke-width="3" d="M43.64 20a5 5 0 113.61 8.46h-35.5"><animate attributeName="stroke-dashoffset" dur="1.9s" repeatCount="indefinite" values="-57; 57"/></path><path fill="none" stroke="#e5e7eb" stroke-dasharray="24 15" stroke-linecap="round" stroke-miterlimit="10" stroke-width="3" d="M29.14 44a5 5 0 103.61-8.46h-21"><animate attributeName="stroke-dashoffset" begin="-.475s" dur="1.9s" repeatCount="indefinite" values="-39; 39"/></path><path fill="#374151" d="M51.44 39.79A2.54 2.54 0 0153 42.32a3 3 0 01-1 2.38 4.15 4.15 0 01-2.88.88q-3.18 0-4.07-2.52a.47.47 0 01.33-.66l.81-.28a.55.55 0 01.41 0 .69.69 0 01.25.34 2.07 2.07 0 00.75 1.06 2.74 2.74 0 001.52.33q1.89 0 1.89-1.53t-1.56-1.5h-1.58a.58.58 0 01-.4-.1.53.53 0 01-.11-.4v-.68a.55.55 0 01.11-.4.58.58 0 01.4-.11h1.29a1.65 1.65 0 001.14-.38 1.31 1.31 0 00.43-1c0-1-.56-1.46-1.68-1.46a2.5 2.5 0 00-1.42.32 2.21 2.21 0 00-.71 1.07.6.6 0 01-.24.33.56.56 0 01-.42 0l-.81-.29a.46.46 0 01-.33-.66 3.56 3.56 0 011.38-1.96 4.69 4.69 0 012.58-.62 3.8 3.8 0 012.6.81 2.82 2.82 0 01.93 2.24 2.4 2.4 0 01-1.17 2.26z"/></svg>