<svg xmlns="http://www.w3.org/2000/svg" viewBox="0 0 64 64">
	<line x1="21.71" y1="50.38" x2="23.08" y2="46.62" fill="none" stroke="#2885c7" stroke-linecap="round" stroke-miterlimit="10" stroke-width="4">
		<animate attributeName="opacity" values="0.5;1;0.5" dur="4s" repeatCount="indefinite"/>
	</line>
	<line x1="30.71" y1="50.38" x2="32.08" y2="46.62" fill="none" stroke="#2885c7" stroke-linecap="round" stroke-miterlimit="10" stroke-width="4">
		<animate attributeName="opacity" values="1;0.5;1" dur="4s" repeatCount="indefinite"/>
	</line>
	<line x1="39.71" y1="50.38" x2="41.08" y2="46.62" fill="none" stroke="#2885c7" stroke-linecap="round" stroke-miterlimit="10" stroke-width="4">
		<animate attributeName="opacity" values="0.5;1;0.5" dur="4s" repeatCount="indefinite"/>
	</line>
	<line x1="17.71" y1="60.38" x2="19.08" y2="56.62" fill="none" stroke="#2885c7" stroke-linecap="round" stroke-miterlimit="10" stroke-width="4">
		<animate attributeName="opacity" values="1;0.5;1" dur="4s" repeatCount="indefinite"/>
	</line>
	<line x1="26.71" y1="60.38" x2="28.08" y2="56.62" fill="none" stroke="#2885c7" stroke-linecap="round" stroke-miterlimit="10" stroke-width="4">
		<animate attributeName="opacity" values="0.5;1;0.5" dur="4s" repeatCount="indefinite"/>
	</line>
	<line x1="35.71" y1="60.38" x2="37.08" y2="56.62" fill="none" stroke="#2885c7" stroke-linecap="round" stroke-miterlimit="10" stroke-width="4">
		<animate attributeName="opacity" values="1;0.5;1" dur="4s" repeatCount="indefinite"/>
	</line>
	<path d="M51.18,27.35a19.93,19.93,0,0,0,.21-2.55,14.26,14.26,0,0,0-26.14-7.86,10.06,10.06,0,0,0-3.93-.85A9.93,9.93,0,0,0,11.44,26v.32a10.85,10.85,0,0,0,3.4,21.15H17V44.57H14.73a8,8,0,0,1-8-8,8.09,8.09,0,0,1,6.48-7.87l1.39-.21-.22-1.38a5,5,0,0,1-.1-1.17,7.08,7.08,0,0,1,7-7A6.26,6.26,0,0,1,24.93,20l1.28.74L27,19.38A11.4,11.4,0,0,1,48.42,24.7a13.68,13.68,0,0,1-.53,3.5l-.64,2,2.12-.1h.32a7.23,7.23,0,1,1,0,14.45H46v2.87h3.8A10.33,10.33,0,0,0,60,37.34,10.1,10.1,0,0,0,51.18,27.35Z" fill="#efefef"/>
</svg>
