<svg xmlns="http://www.w3.org/2000/svg" viewBox="0 0 64 64">
	<defs>
		<clipPath id="a">
			<polygon points="35.17 0 34.22 16.69 44.07 20.42 47.97 27.7 47.98 32.45 56.03 39.82 64 39.82 64 0 35.17 0" fill="none"/>
		</clipPath>
	</defs>
	<g clip-path="url(#a)">
		<svg x="34" y="12" height="30" width="30" viewBox="0 0 64 64">
			<g>
				<path d="M56.84,36.1C41.4,36.1,24.35,23.88,32.13,4h0A27.76,27.76,0,0,0,4.07,31.93a28.1,28.1,0,0,0,55.86,4.3A17,17,0,0,0,56.84,36.1ZM32.54,55.84a24,24,0,0,1-24-24c0-11,7.79-20.28,17.86-23.23V8.7c-2.42,16.79,9.53,30.89,27.8,32.5h0C49.46,50.33,43,55.43,32.54,55.84Z" fill="#72b8d4"/>

				<animateTransform attributeName="transform" type="rotate" values="-20 32 32;20 32 32;-20 32 32" dur="30s" repeatCount="indefinite"/>
			</g>
		</svg>
	</g>
	<g>
		<svg x="0" y="4" height="60" width="60" viewBox="0 0 64 64">
			<path d="M49.8,50.44h-35a10.85,10.85,0,0,1-3.4-21.15V29a9.93,9.93,0,0,1,9.88-9.88,10.06,10.06,0,0,1,3.93.85A14.26,14.26,0,0,1,51.39,27.8a19.93,19.93,0,0,1-.21,2.55,10.1,10.1,0,0,1,8.82,10A10.33,10.33,0,0,1,49.8,50.44ZM21.32,22a7.08,7.08,0,0,0-7,7,5,5,0,0,0,.1,1.17l.22,1.38-1.39.21A8.09,8.09,0,0,0,6.76,39.6a8,8,0,0,0,8,8h35a7.23,7.23,0,1,0,0-14.45h-.32l-2.12.1.64-2a13.68,13.68,0,0,0,.53-3.5A11.4,11.4,0,0,0,27,22.38l-.74,1.38L24.93,23A6.26,6.26,0,0,0,21.32,22Z" fill="#f9f9f9"/>
		</svg>
	</g>
</svg>
