<svg xmlns="http://www.w3.org/2000/svg" viewBox="0 0 64 64">
	<defs>
		<clipPath id="a">
			<polygon points="7.5 7.5 54.5 7.5 7.5 54.5 7.5 7.5" fill="none"/>
		</clipPath>
	</defs>
	<g clip-path="url(#a)">
		<path d="M32,23.36A8.64,8.64,0,1,1,23.36,32,8.66,8.66,0,0,1,32,23.36m0-3A11.64,11.64,0,1,0,43.64,32,11.64,11.64,0,0,0,32,20.36Z" fill="#f59e0b"/>
		<line x1="32" y1="15.71" x2="32" y2="9.5" fill="none" stroke="#f59e0b" stroke-linecap="round" stroke-miterlimit="10" stroke-width="3"/>
		<line x1="32" y1="54.5" x2="32" y2="48.29" fill="none" stroke="#f59e0b" stroke-linecap="round" stroke-miterlimit="10" stroke-width="3"/>
		<line x1="43.52" y1="20.48" x2="47.91" y2="16.09" fill="none" stroke="#f59e0b" stroke-linecap="round" stroke-miterlimit="10" stroke-width="3"/>
		<line x1="16.09" y1="47.91" x2="20.48" y2="43.52" fill="none" stroke="#f59e0b" stroke-linecap="round" stroke-miterlimit="10" stroke-width="3"/>
		<line x1="20.48" y1="20.48" x2="16.09" y2="16.09" fill="none" stroke="#f59e0b" stroke-linecap="round" stroke-miterlimit="10" stroke-width="3"/>
		<line x1="47.91" y1="47.91" x2="43.52" y2="43.52" fill="none" stroke="#f59e0b" stroke-linecap="round" stroke-miterlimit="10" stroke-width="3"/>
		<line x1="15.71" y1="32" x2="9.5" y2="32" fill="none" stroke="#f59e0b" stroke-linecap="round" stroke-miterlimit="10" stroke-width="3"/>
		<line x1="54.5" y1="32" x2="48.29" y2="32" fill="none" stroke="#f59e0b" stroke-linecap="round" stroke-miterlimit="10" stroke-width="3"/>
	</g>
	<line x1="24.89" y1="45.11" x2="28.08" y2="41.92" fill="none" stroke="#fde68a" stroke-linecap="round" stroke-miterlimit="10" stroke-width="3"/>
	<line x1="33.03" y1="36.97" x2="40.45" y2="29.55" fill="none" stroke="#fde68a" stroke-linecap="round" stroke-miterlimit="10" stroke-width="3" stroke-dasharray="7 7"/>
	<line x1="42.92" y1="27.08" x2="46.11" y2="23.89" fill="none" stroke="#fde68a" stroke-linecap="round" stroke-miterlimit="10" stroke-width="3"/>
	<line x1="34.89" y1="45.11" x2="38.08" y2="41.92" fill="none" stroke="#fde68a" stroke-linecap="round" stroke-miterlimit="10" stroke-width="3"/>
	<line x1="43.03" y1="36.97" x2="50.45" y2="29.55" fill="none" stroke="#fde68a" stroke-linecap="round" stroke-miterlimit="10" stroke-width="3" stroke-dasharray="7 7"/>
	<line x1="52.92" y1="27.08" x2="56.11" y2="23.89" fill="none" stroke="#fde68a" stroke-linecap="round" stroke-miterlimit="10" stroke-width="3"/>
</svg>
