<svg xmlns="http://www.w3.org/2000/svg" viewBox="0 0 64 64">
	<defs>
		<clipPath id="a">
			<polygon points="7.5 7.5 54.5 7.5 7.5 54.5 7.5 7.5" fill="none"/>
		</clipPath>
	</defs>
	<g clip-path="url(#a)">
		<path d="M46.66,36.2A16.66,16.66,0,0,1,29.88,19.65a16.29,16.29,0,0,1,.55-4.15A16.56,16.56,0,1,0,48.5,36.1C47.89,36.16,47.28,36.2,46.66,36.2Z" fill="none" stroke="#72b9d5" stroke-linecap="round" stroke-linejoin="round" stroke-width="3"/>
	</g>
	<line x1="24.89" y1="45.11" x2="28.08" y2="41.92" fill="none" stroke="#fde68a" stroke-linecap="round" stroke-miterlimit="10" stroke-width="3"/>
	<line x1="33.03" y1="36.97" x2="40.45" y2="29.55" fill="none" stroke="#fde68a" stroke-linecap="round" stroke-miterlimit="10" stroke-width="3" stroke-dasharray="7 7"/>
	<line x1="42.92" y1="27.08" x2="46.11" y2="23.89" fill="none" stroke="#fde68a" stroke-linecap="round" stroke-miterlimit="10" stroke-width="3"/>
	<line x1="34.89" y1="45.11" x2="38.08" y2="41.92" fill="none" stroke="#fde68a" stroke-linecap="round" stroke-miterlimit="10" stroke-width="3"/>
	<line x1="43.03" y1="36.97" x2="50.45" y2="29.55" fill="none" stroke="#fde68a" stroke-linecap="round" stroke-miterlimit="10" stroke-width="3" stroke-dasharray="7 7"/>
	<line x1="52.92" y1="27.08" x2="56.11" y2="23.89" fill="none" stroke="#fde68a" stroke-linecap="round" stroke-miterlimit="10" stroke-width="3"/>
</svg>
