<svg xmlns="http://www.w3.org/2000/svg" viewBox="0 0 64 64">
	<defs>
		<clipPath id="a">
			<rect y="7.5" width="64" height="32" fill="none"/>
		</clipPath>
	</defs>
	<line x1="17" y1="44" x2="21.5" y2="44" fill="none" stroke="#d1d5db" stroke-linecap="round" stroke-miterlimit="10" stroke-width="3"/>
	<line x1="28.5" y1="44" x2="39" y2="44" fill="none" stroke="#d1d5db" stroke-linecap="round" stroke-miterlimit="10" stroke-width="3" stroke-dasharray="7 7"/>
	<line x1="42.5" y1="44" x2="47" y2="44" fill="none" stroke="#d1d5db" stroke-linecap="round" stroke-miterlimit="10" stroke-width="3"/>
	<line x1="17" y1="51" x2="21.5" y2="51" fill="none" stroke="#d1d5db" stroke-linecap="round" stroke-miterlimit="10" stroke-width="3"/>
	<line x1="28.5" y1="51" x2="39" y2="51" fill="none" stroke="#d1d5db" stroke-linecap="round" stroke-miterlimit="10" stroke-width="3" stroke-dasharray="7 7"/>
	<line x1="42.5" y1="51" x2="47" y2="51" fill="none" stroke="#d1d5db" stroke-linecap="round" stroke-miterlimit="10" stroke-width="3"/>
	<g clip-path="url(#a)">
		<path d="M42.5,39A10.5,10.5,0,1,1,32,28.5,10.5,10.5,0,0,1,42.5,39ZM32,22.71V16.5m0,45V55.29M43.52,27.48l4.39-4.39M16.09,54.91l4.39-4.39m0-23-4.39-4.39M47.91,54.91l-4.39-4.39M15.71,39H9.5m45,0H48.29" fill="none" stroke="#f59e0b" stroke-linecap="round" stroke-miterlimit="10" stroke-width="3"/>
	</g>
</svg>
