<svg xmlns="http://www.w3.org/2000/svg" viewBox="0 0 64 64">
	<defs>
		<clipPath id="a">
			<polygon points="30 16 30 7 57 7 57 36 48 36 36.73 33 30.54 24.26 30 16" fill="none"/>
		</clipPath>
	</defs>
	<g clip-path="url(#a)">
		<path d="M42.5,32A10.5,10.5,0,1,1,32,21.5,10.5,10.5,0,0,1,42.5,32ZM32,15.71V9.5m0,45V48.29M43.52,20.48l4.39-4.39M16.09,47.91l4.39-4.39m0-23-4.39-4.39M47.91,47.91l-4.39-4.39M15.71,32H9.5m45,0H48.29" fill="none" stroke="#f59e0b" stroke-linecap="round" stroke-miterlimit="10" stroke-width="3"/>
	</g>
	<path d="M46.66,36.2A16.66,16.66,0,0,1,29.88,19.65a16.29,16.29,0,0,1,.55-4.15A16.56,16.56,0,1,0,48.5,36.1C47.89,36.16,47.28,36.2,46.66,36.2Z" fill="none" stroke="#72b9d5" stroke-linecap="round" stroke-linejoin="round" stroke-width="3"/>
</svg>
