<svg xmlns="http://www.w3.org/2000/svg" viewBox="0 0 64 64">
	<circle cx="32" cy="42" r="4" fill="#ef4444"/>
	<line x1="32" y1="28.5" x2="32" y2="41.5" fill="none" stroke="#ef4444" stroke-linecap="round" stroke-miterlimit="10" stroke-width="2"/>
	<path d="M36,36.07v-17a4,4,0,1,0-8,0v17a7.12,7.12,0,0,0-3,5.83,7,7,0,1,0,14,0A7.12,7.12,0,0,0,36,36.07Z" fill="none" stroke="#e5e7eb" stroke-linecap="round" stroke-linejoin="round" stroke-width="2"/>
	<line x1="32.5" y1="25" x2="35.5" y2="25" fill="none" stroke="#e5e7eb" stroke-linecap="round" stroke-linejoin="round" stroke-width="2"/>
	<line x1="32.5" y1="21" x2="35.5" y2="21" fill="none" stroke="#e5e7eb" stroke-linecap="round" stroke-linejoin="round" stroke-width="2"/>
	<line x1="32.5" y1="29" x2="35.5" y2="29" fill="none" stroke="#e5e7eb" stroke-linecap="round" stroke-linejoin="round" stroke-width="2"/>
	<path d="M42.72,34.92a2.18,2.18,0,1,1-1.53-3.72,2.17,2.17,0,0,1,1.53,3.72Zm-2.21-.86a.91.91,0,0,0,.68.28.93.93,0,0,0,.68-.28.89.89,0,0,0,.28-.67.93.93,0,0,0-.28-.68.87.87,0,0,0-.68-.29.89.89,0,0,0-.68.29.93.93,0,0,0-.28.68A.89.89,0,0,0,40.51,34.06Z" fill="#374151"/>
	<path d="M50.89,31.41a.47.47,0,0,1,.11.35v.66a.46.46,0,0,1-.11.35.5.5,0,0,1-.36.1H46.44v2.46h3.44a.55.55,0,0,1,.36.1.5.5,0,0,1,.11.36v.65a.5.5,0,0,1-.11.36.51.51,0,0,1-.36.1H46.44v3.44a.38.38,0,0,1-.45.46h-.76a.55.55,0,0,1-.36-.1.46.46,0,0,1-.11-.36V31.76a.43.43,0,0,1,.11-.35.5.5,0,0,1,.36-.1h5.3A.5.5,0,0,1,50.89,31.41Z" fill="#374151"/>
</svg>
