<svg xmlns="http://www.w3.org/2000/svg" viewBox="0 0 64 64">
	<path d="M43.67,45.5H46.5a7,7,0,0,0,0-14l-.32,0a10.49,10.49,0,0,0-19.11-8,7,7,0,0,0-10.57,6,7.21,7.21,0,0,0,.1,1.14A7.5,7.5,0,0,0,18,45.5a4.19,4.19,0,0,0,.5,0v0" fill="none" stroke="#e5e7eb" stroke-linecap="round" stroke-linejoin="round" stroke-width="3"/>
	<path d="M24.24,42.67l.24.68a.25.25,0,0,0,.35.14l.65-.31a.26.26,0,0,1,.34.34l-.31.65a.25.25,0,0,0,.14.35l.68.24a.25.25,0,0,1,0,.48l-.68.24a.25.25,0,0,0-.14.35l.31.65a.26.26,0,0,1-.34.34l-.65-.31a.25.25,0,0,0-.35.14l-.24.68a.25.25,0,0,1-.48,0l-.24-.68a.25.25,0,0,0-.35-.14l-.65.31a.26.26,0,0,1-.34-.34l.31-.65a.25.25,0,0,0-.14-.35l-.68-.24a.25.25,0,0,1,0-.48l.68-.24a.25.25,0,0,0,.14-.35l-.31-.65a.26.26,0,0,1,.34-.34l.65.31a.25.25,0,0,0,.35-.14l.24-.68A.25.25,0,0,1,24.24,42.67Z" fill="#72b8d4"/>
	<path d="M31.24,42.67l.24.68a.25.25,0,0,0,.35.14l.65-.31a.26.26,0,0,1,.34.34l-.31.65a.25.25,0,0,0,.14.35l.68.24a.25.25,0,0,1,0,.48l-.68.24a.25.25,0,0,0-.14.35l.31.65a.26.26,0,0,1-.34.34l-.65-.31a.25.25,0,0,0-.35.14l-.24.68a.25.25,0,0,1-.48,0l-.24-.68a.25.25,0,0,0-.35-.14l-.65.31a.26.26,0,0,1-.34-.34l.31-.65a.25.25,0,0,0-.14-.35l-.68-.24a.25.25,0,0,1,0-.48l.68-.24a.25.25,0,0,0,.14-.35l-.31-.65a.26.26,0,0,1,.34-.34l.65.31a.25.25,0,0,0,.35-.14l.24-.68A.25.25,0,0,1,31.24,42.67Z" fill="#72b8d4"/>
	<path d="M38.24,42.67l.24.68a.25.25,0,0,0,.35.14l.65-.31a.26.26,0,0,1,.34.34l-.31.65a.25.25,0,0,0,.14.35l.68.24a.25.25,0,0,1,0,.48l-.68.24a.25.25,0,0,0-.14.35l.31.65a.26.26,0,0,1-.34.34l-.65-.31a.25.25,0,0,0-.35.14l-.24.68a.25.25,0,0,1-.48,0l-.24-.68a.25.25,0,0,0-.35-.14l-.65.31a.26.26,0,0,1-.34-.34l.31-.65a.25.25,0,0,0-.14-.35l-.68-.24a.25.25,0,0,1,0-.48l.68-.24a.25.25,0,0,0,.14-.35l-.31-.65a.26.26,0,0,1,.34-.34l.65.31a.25.25,0,0,0,.35-.14l.24-.68A.25.25,0,0,1,38.24,42.67Z" fill="#72b8d4"/>
	<polygon points="30 36 26 48 30 48 28 58 38 44 32 44 36 36 30 36" fill="#f59e0b"/>
</svg>
