<svg xmlns="http://www.w3.org/2000/svg" viewBox="0 0 64 64">
	<path d="M43.64,20a5,5,0,1,1,3.61,8.46H11.75" fill="none" stroke="#e5e7eb" stroke-linecap="round" stroke-miterlimit="10" stroke-width="3"/>
	<path d="M29.14,44a5,5,0,1,0,3.61-8.46h-21" fill="none" stroke="#e5e7eb" stroke-linecap="round" stroke-miterlimit="10" stroke-width="3"/>
	<path d="M53.25,41.33a.57.57,0,0,1,.11.39v.65a.6.6,0,0,1-.11.4.56.56,0,0,1-.4.11h-1v2a.43.43,0,0,1-.51.51h-.73a.55.55,0,0,1-.4-.12.51.51,0,0,1-.11-.39v-2h-5a.6.6,0,0,1-.4-.11.55.55,0,0,1-.11-.4v-.54a1,1,0,0,1,.18-.62l5-6.17a.88.88,0,0,1,.72-.36h.82a.6.6,0,0,1,.4.1.59.59,0,0,1,.11.41v6h1A.55.55,0,0,1,53.25,41.33Zm-6.45-.12h3.26v-4Z" fill="#374151"/>
</svg>
