<svg width="512" height="512" viewBox="0 0 512 512" fill="none" xmlns="http://www.w3.org/2000/svg">
<path d="M369.74 258.095L372.117 258C385.335 258.031 398.006 263.296 407.355 272.645C416.732 282.022 422 294.739 422 308C422 321.261 416.732 333.979 407.355 343.356C397.979 352.732 385.261 358 372 358L148 358H148L144 358H143.985L143.971 358C130.479 358.067 117.452 353.08 107.452 344.023C97.4532 334.965 91.2066 322.493 89.9424 309.061C88.6782 295.629 92.4879 282.21 100.622 271.446C108.755 260.682 120.624 253.352 133.891 250.9L139.707 249.825L138.715 243.994C138.264 241.346 138.025 238.667 138 235.982C138.029 227.175 140.384 218.532 144.826 210.927C149.273 203.313 155.656 197.01 163.326 192.658C170.996 188.306 179.68 186.061 188.498 186.149C197.316 186.236 205.954 188.655 213.536 193.159L218.613 196.175L221.71 191.146C231.449 175.325 246.522 163.505 264.209 157.82C281.896 152.134 301.032 152.957 318.166 160.14C335.3 167.323 349.302 180.393 357.647 196.992C365.992 213.59 368.13 232.625 363.675 250.661L361.76 258.415L369.74 258.095Z" fill="url(#paint0_linear_166_6002)" stroke="#A8BBD7" stroke-width="12" stroke-miterlimit="10"/>
<g clip-path="url(#clip0_166_6002)">
<path d="M200 376C197.878 376 195.843 375.157 194.343 373.657C192.843 372.157 192 370.122 192 368V356C192 353.878 192.843 351.843 194.343 350.343C195.843 348.843 197.878 348 200 348C202.122 348 204.157 348.843 205.657 350.343C207.157 351.843 208 353.878 208 356V368C208 370.122 207.157 372.157 205.657 373.657C204.157 375.157 202.122 376 200 376Z" fill="url(#paint1_linear_166_6002)" stroke="#0A5AD4" stroke-miterlimit="10"/>
<path d="M256 456C253.878 456 251.843 455.157 250.343 453.657C248.843 452.157 248 450.122 248 448V436C248 433.878 248.843 431.843 250.343 430.343C251.843 428.843 253.878 428 256 428C258.122 428 260.157 428.843 261.657 430.343C263.157 431.843 264 433.878 264 436V448C264 450.122 263.157 452.157 261.657 453.657C260.157 455.157 258.122 456 256 456Z" fill="url(#paint2_linear_166_6002)" stroke="#0A5AD4" stroke-miterlimit="10"/>
<path d="M312 406C309.878 406 307.843 405.157 306.343 403.657C304.843 402.157 304 400.122 304 398V386C304 383.878 304.843 381.843 306.343 380.343C307.843 378.843 309.878 378 312 378C314.122 378 316.157 378.843 317.657 380.343C319.157 381.843 320 383.878 320 386V398C320 400.122 319.157 402.157 317.657 403.657C316.157 405.157 314.122 406 312 406Z" fill="url(#paint3_linear_166_6002)" stroke="#0A5AD4" stroke-miterlimit="10"/>
</g>
<defs>
<linearGradient id="paint0_linear_166_6002" x1="180.5" y1="175.7" x2="313.6" y2="406.4" gradientUnits="userSpaceOnUse">
<stop stop-color="#F3F7FE"/>
<stop offset="0.5" stop-color="#F3F7FE"/>
<stop offset="1" stop-color="#DEEAFB"/>
</linearGradient>
<linearGradient id="paint1_linear_166_6002" x1="193.369" y1="350.539" x2="206.616" y2="373.449" gradientUnits="userSpaceOnUse">
<stop stop-color="#0B65ED"/>
<stop offset="0.5" stop-color="#0A5AD4"/>
<stop offset="1" stop-color="#0950BC"/>
</linearGradient>
<linearGradient id="paint2_linear_166_6002" x1="249.377" y1="430.563" x2="262.624" y2="453.472" gradientUnits="userSpaceOnUse">
<stop stop-color="#0B65ED"/>
<stop offset="0.5" stop-color="#0A5AD4"/>
<stop offset="1" stop-color="#0950BC"/>
</linearGradient>
<linearGradient id="paint3_linear_166_6002" x1="305.349" y1="380.592" x2="318.58" y2="403.403" gradientUnits="userSpaceOnUse">
<stop stop-color="#0B65ED"/>
<stop offset="0.5" stop-color="#0A5AD4"/>
<stop offset="1" stop-color="#0950BC"/>
</linearGradient>
<clipPath id="clip0_166_6002">
<rect width="129" height="109" fill="white" transform="translate(191.5 347.5)"/>
</clipPath>
</defs>
</svg>
