<svg width="512" height="512" viewBox="0 0 512 512" fill="none" xmlns="http://www.w3.org/2000/svg">
<g clip-path="url(#clip0_166_5954)">
<g clip-path="url(#clip1_166_5954)">
<path d="M154 247C176.091 247 194 229.091 194 207C194 184.909 176.091 167 154 167C131.909 167 114 184.909 114 207C114 229.091 131.909 247 154 247Z" fill="url(#paint0_linear_166_5954)" stroke="#F8AF18" stroke-width="4" stroke-miterlimit="10"/>
<path d="M154 140.4V115M154 299V273.6M201.1 160L219.1 142.1M89 272L107 254.1M107 160L89 142M219.1 272.1L201.1 254.1M62 207H87.4M246 207H220.6" stroke="#FBBF24" stroke-width="12" stroke-miterlimit="10" stroke-linecap="round"/>
</g>
<g clip-path="url(#clip2_166_5954)">
<g clip-path="url(#clip3_166_5954)">
<path d="M267.34 265.2C267.34 273.793 270.754 282.034 276.83 288.11C282.906 294.187 291.147 297.6 299.74 297.6H429.54V297.5L431.84 297.6C440.429 297.494 448.674 294.215 454.991 288.394C461.307 282.574 465.248 274.623 466.055 266.071C466.861 257.52 464.477 248.973 459.361 242.073C454.244 235.174 446.757 230.411 438.34 228.7C439.313 222.623 438.534 216.395 436.096 210.745C433.659 205.094 429.662 200.254 424.574 196.793C419.486 193.331 413.517 191.389 407.366 191.196C401.215 191.002 395.136 192.565 389.84 195.7C383.774 185.813 374.372 178.421 363.332 174.86C352.292 171.299 340.343 171.805 329.643 176.285C318.943 180.766 310.199 188.925 304.99 199.29C299.781 209.655 298.451 221.541 301.24 232.8H299.74C291.164 232.8 282.938 236.2 276.865 242.255C270.792 248.309 267.367 256.525 267.34 265.1V265.2Z" fill="url(#paint1_linear_166_5954)" stroke="#848B98" stroke-miterlimit="10"/>
</g>
<path d="M357.58 258.095L359.957 258C373.175 258.031 385.846 263.296 395.195 272.645C404.572 282.022 409.84 294.739 409.84 308C409.84 321.261 404.572 333.979 395.195 343.356C385.819 352.732 373.101 358 359.84 358H135.84H131.84H131.825L131.811 358C118.319 358.067 105.292 353.08 95.2924 344.023C85.2931 334.965 79.0466 322.493 77.7824 309.061C76.5182 295.629 80.3279 282.21 88.4616 271.446C96.5953 260.682 108.464 253.352 121.731 250.9L127.547 249.825L126.555 243.994C126.104 241.346 125.865 238.667 125.84 235.982C125.869 227.175 128.224 218.532 132.666 210.927C137.113 203.313 143.496 197.01 151.166 192.658C158.836 188.306 167.52 186.061 176.338 186.149C185.156 186.236 193.794 188.655 201.376 193.159L206.453 196.175L209.55 191.146C219.289 175.325 234.362 163.505 252.049 157.82C269.736 152.134 288.872 152.957 306.006 160.14C323.14 167.323 337.142 180.393 345.487 196.992C353.832 213.59 355.97 232.625 351.515 250.661L349.6 258.415L357.58 258.095Z" fill="url(#paint2_linear_166_5954)" stroke="#A8BBD7" stroke-width="12" stroke-miterlimit="10"/>
</g>
</g>
<defs>
<linearGradient id="paint0_linear_166_5954" x1="134" y1="172.4" x2="174" y2="241.7" gradientUnits="userSpaceOnUse">
<stop stop-color="#FBBF24"/>
<stop offset="0.5" stop-color="#FBBF24"/>
<stop offset="1" stop-color="#F59E0B"/>
</linearGradient>
<linearGradient id="paint1_linear_166_5954" x1="319.54" y1="181.6" x2="400.24" y2="321.3" gradientUnits="userSpaceOnUse">
<stop stop-color="#9CA3AF"/>
<stop offset="0.5" stop-color="#9CA3AF"/>
<stop offset="1" stop-color="#6B7280"/>
</linearGradient>
<linearGradient id="paint2_linear_166_5954" x1="168.34" y1="175.7" x2="301.44" y2="406.4" gradientUnits="userSpaceOnUse">
<stop stop-color="#F3F7FE"/>
<stop offset="0.5" stop-color="#F3F7FE"/>
<stop offset="1" stop-color="#DEEAFB"/>
</linearGradient>
<clipPath id="clip0_166_5954">
<rect width="410.8" height="258" fill="white" transform="translate(56 109)"/>
</clipPath>
<clipPath id="clip1_166_5954">
<rect width="196" height="196" fill="white" transform="translate(56 109)"/>
</clipPath>
<clipPath id="clip2_166_5954">
<rect width="398" height="222" fill="white" transform="translate(68.8401 145)"/>
</clipPath>
<clipPath id="clip3_166_5954">
<rect width="200.3" height="126.1" fill="white" transform="translate(266.84 172)"/>
</clipPath>
</defs>
</svg>
