<svg width="512" height="512" viewBox="0 0 512 512" fill="none" xmlns="http://www.w3.org/2000/svg">
<g clip-path="url(#clip0_166_6028)">
<g clip-path="url(#clip1_166_6028)">
<path d="M240.6 228.4C229.455 228.479 218.405 226.361 208.079 222.166C197.754 217.971 188.357 211.782 180.426 203.952C172.494 196.123 166.184 186.807 161.855 176.537C157.527 166.267 155.265 155.245 155.2 144.1C155.227 136.976 156.168 129.885 158 123C137.248 125.142 118.016 134.869 103.991 150.314C89.9668 165.76 82.136 185.838 82 206.7C82.0654 217.845 84.327 228.867 88.6555 239.137C92.9839 249.407 99.2943 258.723 107.226 266.552C115.157 274.382 124.554 280.571 134.879 284.766C145.205 288.961 156.255 291.079 167.4 291C186.201 291.07 204.497 284.919 219.437 273.505C234.378 262.092 245.123 246.058 250 227.9C246.878 228.234 243.74 228.401 240.6 228.4Z" fill="url(#paint0_linear_166_6028)" stroke="#72B9D5" stroke-width="4" stroke-linecap="round" stroke-linejoin="round"/>
</g>
<path d="M370.035 258.013L372.412 257.918C385.631 257.949 398.301 263.213 407.651 272.562C417.028 281.939 422.295 294.657 422.295 307.918C422.295 321.178 417.028 333.896 407.651 343.273C398.274 352.65 385.556 357.918 372.295 357.918H148.295H144.295H144.281L144.266 357.918C130.774 357.984 117.747 352.998 107.748 343.94C97.7485 334.883 91.5019 322.411 90.2377 308.978C88.9735 295.546 92.7832 282.127 100.917 271.363C109.051 260.599 120.919 253.27 134.186 250.818L140.003 249.743L139.01 243.911C138.56 241.264 138.321 238.585 138.295 235.899C138.324 227.093 140.679 218.45 145.121 210.845C149.569 203.23 155.951 196.927 163.621 192.576C171.291 188.224 179.975 185.978 188.793 186.066C197.611 186.154 206.249 188.572 213.831 193.076L218.909 196.092L222.005 191.063C231.744 175.242 246.817 163.423 264.504 157.737C282.191 152.052 301.328 152.875 318.461 160.058C335.595 167.241 349.597 180.311 357.942 196.909C366.287 213.508 368.425 232.543 363.97 250.579L362.055 258.332L370.035 258.013Z" fill="url(#paint1_linear_166_6028)" stroke="#A8BBD7" stroke-width="12" stroke-miterlimit="10"/>
</g>
<defs>
<linearGradient id="paint0_linear_166_6028" x1="114.7" y1="139.6" x2="199.2" y2="286" gradientUnits="userSpaceOnUse">
<stop stop-color="#86C3DB"/>
<stop offset="0.5" stop-color="#86C3DB"/>
<stop offset="1" stop-color="#5EAFCF"/>
</linearGradient>
<linearGradient id="paint1_linear_166_6028" x1="180.795" y1="175.618" x2="313.895" y2="406.318" gradientUnits="userSpaceOnUse">
<stop stop-color="#F3F7FE"/>
<stop offset="0.5" stop-color="#F3F7FE"/>
<stop offset="1" stop-color="#DEEAFB"/>
</linearGradient>
<clipPath id="clip0_166_6028">
<rect width="351" height="246" fill="white" transform="translate(80 121)"/>
</clipPath>
<clipPath id="clip1_166_6028">
<rect width="172" height="172" fill="white" transform="translate(80 121)"/>
</clipPath>
</defs>
</svg>
