<svg width="512" height="512" viewBox="0 0 512 512" fill="none" xmlns="http://www.w3.org/2000/svg">
<g clip-path="url(#clip0_166_6034)">
<g clip-path="url(#clip1_166_6034)">
<path d="M166 247C188.091 247 206 229.091 206 207C206 184.909 188.091 167 166 167C143.909 167 126 184.909 126 207C126 229.091 143.909 247 166 247Z" fill="url(#paint0_linear_166_6034)" stroke="#F8AF18" stroke-width="4" stroke-miterlimit="10"/>
<path d="M166 140.4V115M166 299V273.6M213.1 160L231.1 142.1M101 272L119 254.1M119 160L101 142M231.1 272.1L213.1 254.1M74 207H99.4M258 207H232.6" stroke="#FBBF24" stroke-width="12" stroke-miterlimit="10" stroke-linecap="round"/>
</g>
<path d="M369.74 258.095L372.117 258C385.335 258.031 398.006 263.296 407.355 272.645C416.732 282.022 422 294.739 422 308C422 321.261 416.732 333.979 407.355 343.356C397.979 352.732 385.261 358 372 358L148 358H148L144 358H143.985L143.97 358C130.479 358.067 117.452 353.08 107.452 344.023C97.4531 334.965 91.2066 322.493 89.9424 309.061C88.6782 295.629 92.4879 282.21 100.622 271.446C108.755 260.682 120.624 253.352 133.89 250.9L139.707 249.825L138.715 243.994C138.264 241.346 138.025 238.667 138 235.982C138.029 227.175 140.383 218.532 144.826 210.927C149.273 203.313 155.656 197.01 163.326 192.658C170.996 188.306 179.68 186.061 188.498 186.149C197.316 186.236 205.954 188.655 213.536 193.159L218.613 196.175L221.709 191.146C231.449 175.325 246.522 163.505 264.209 157.82C281.896 152.134 301.032 152.957 318.166 160.14C335.3 167.323 349.302 180.393 357.647 196.992C365.992 213.59 368.13 232.625 363.675 250.661L361.76 258.415L369.74 258.095Z" fill="url(#paint1_linear_166_6034)" stroke="#A8BBD7" stroke-width="12" stroke-miterlimit="10"/>
</g>
<defs>
<linearGradient id="paint0_linear_166_6034" x1="146" y1="172.4" x2="186" y2="241.7" gradientUnits="userSpaceOnUse">
<stop stop-color="#FBBF24"/>
<stop offset="0.5" stop-color="#FBBF24"/>
<stop offset="1" stop-color="#F59E0B"/>
</linearGradient>
<linearGradient id="paint1_linear_166_6034" x1="180.5" y1="175.7" x2="313.6" y2="406.4" gradientUnits="userSpaceOnUse">
<stop stop-color="#F3F7FE"/>
<stop offset="0.5" stop-color="#F3F7FE"/>
<stop offset="1" stop-color="#DEEAFB"/>
</linearGradient>
<clipPath id="clip0_166_6034">
<rect width="363" height="258" fill="white" transform="translate(68 109)"/>
</clipPath>
<clipPath id="clip1_166_6034">
<rect width="196" height="196" fill="white" transform="translate(68 109)"/>
</clipPath>
</defs>
</svg>
