<svg width="512" height="512" viewBox="0 0 512 512" fill="none" xmlns="http://www.w3.org/2000/svg">
<path d="M369.74 258.095L372.117 258C385.335 258.031 398.006 263.296 407.355 272.645C416.732 282.022 422 294.739 422 308C422 321.261 416.732 333.979 407.355 343.356C397.978 352.732 385.261 358 372 358L148 358H148L144 358H143.985L143.97 358C130.479 358.067 117.452 353.08 107.452 344.023C97.453 334.965 91.2065 322.493 89.9423 309.061C88.6781 295.629 92.4878 282.21 100.621 271.446C108.755 260.682 120.624 253.352 133.89 250.9L139.707 249.825L138.715 243.994C138.264 241.346 138.025 238.667 138 235.982C138.029 227.175 140.383 218.532 144.826 210.927C149.273 203.313 155.656 197.01 163.326 192.658C170.996 188.306 179.68 186.061 188.498 186.149C197.316 186.236 205.954 188.655 213.536 193.159L218.613 196.175L221.709 191.146C231.449 175.325 246.521 163.505 264.209 157.82C281.896 152.134 301.032 152.957 318.166 160.14C335.299 167.323 349.302 180.393 357.647 196.992C365.992 213.59 368.13 232.625 363.675 250.661L361.76 258.415L369.74 258.095Z" fill="url(#paint0_linear_166_5984)" stroke="#A8BBD7" stroke-width="12" stroke-miterlimit="10"/>
<g clip-path="url(#clip0_166_5984)">
<g clip-path="url(#clip1_166_5984)">
<path d="M219.6 368.5L213.8 365.2C214.321 363.065 214.321 360.835 213.8 358.7L219.6 355.5C220.063 355.241 220.469 354.892 220.795 354.473C221.122 354.055 221.362 353.576 221.502 353.064C221.641 352.552 221.677 352.018 221.609 351.492C221.54 350.966 221.367 350.459 221.1 350C220.841 349.524 220.487 349.105 220.061 348.77C219.635 348.435 219.145 348.189 218.622 348.049C218.098 347.909 217.551 347.876 217.014 347.954C216.478 348.031 215.962 348.217 215.5 348.5L209.7 351.8C208.917 351.031 208.044 350.36 207.1 349.8C206.155 349.25 205.148 348.813 204.1 348.5V342C204.1 340.926 203.673 339.896 202.914 339.136C202.154 338.377 201.124 337.95 200.05 337.95C198.976 337.95 197.946 338.377 197.186 339.136C196.427 339.896 196 340.926 196 342V348.6C193.878 349.212 191.927 350.308 190.3 351.8L184.5 348.5C184.037 348.217 183.522 348.031 182.985 347.954C182.449 347.876 181.902 347.909 181.378 348.049C180.854 348.189 180.364 348.435 179.938 348.77C179.512 349.105 179.159 349.524 178.9 350C178.633 350.459 178.46 350.966 178.391 351.492C178.322 352.018 178.359 352.552 178.498 353.064C178.638 353.576 178.878 354.055 179.204 354.473C179.531 354.892 179.937 355.241 180.4 355.5L186.2 358.8C185.678 360.935 185.678 363.165 186.2 365.3L180.4 368.5C179.937 368.76 179.531 369.109 179.204 369.527C178.878 369.945 178.638 370.424 178.498 370.936C178.359 371.448 178.322 371.982 178.391 372.509C178.46 373.035 178.633 373.542 178.9 374C179.254 374.614 179.765 375.122 180.379 375.473C180.994 375.825 181.692 376.007 182.4 376C183.099 376.011 183.788 375.839 184.4 375.5L190.2 372.2C190.983 372.969 191.856 373.641 192.8 374.2C193.749 374.716 194.756 375.119 195.8 375.4V382C195.8 383.088 196.232 384.13 197.001 384.899C197.77 385.668 198.812 386.1 199.9 386.1C200.987 386.1 202.03 385.668 202.799 384.899C203.568 384.13 204 383.088 204 382V375.4C206.087 374.777 208.003 373.682 209.6 372.2L215.6 375.5C216.211 375.839 216.901 376.011 217.6 376C218.291 375.989 218.968 375.799 219.563 375.448C220.159 375.098 220.654 374.599 221 374C221.271 373.548 221.45 373.046 221.526 372.524C221.602 372.002 221.574 371.47 221.444 370.959C221.314 370.448 221.084 369.967 220.768 369.545C220.451 369.123 220.054 368.768 219.6 368.5ZM196.9 367.2C196.208 366.815 195.6 366.297 195.109 365.675C194.619 365.054 194.256 364.341 194.043 363.579C193.829 362.817 193.768 362.02 193.864 361.234C193.959 360.448 194.209 359.689 194.6 359C195.143 358.08 195.918 357.318 196.849 356.791C197.779 356.265 198.831 355.992 199.9 356C200.951 356.008 201.984 356.283 202.9 356.8C203.583 357.194 204.182 357.718 204.662 358.344C205.143 358.969 205.495 359.683 205.699 360.444C205.904 361.206 205.956 362 205.853 362.782C205.75 363.564 205.494 364.317 205.1 365C204.286 366.36 202.976 367.35 201.445 367.761C199.915 368.171 198.285 367.97 196.9 367.2Z" fill="url(#paint1_linear_166_5984)" stroke="#86C3DB" stroke-miterlimit="10"/>
<path d="M275.6 458.5L269.8 455.2C270.321 453.065 270.321 450.835 269.8 448.7L275.6 445.5C276.062 445.241 276.469 444.892 276.795 444.473C277.122 444.055 277.362 443.576 277.502 443.064C277.641 442.552 277.677 442.018 277.609 441.492C277.54 440.966 277.367 440.459 277.1 440C276.841 439.524 276.487 439.105 276.061 438.77C275.635 438.435 275.145 438.189 274.622 438.049C274.098 437.909 273.551 437.876 273.014 437.954C272.478 438.031 271.962 438.217 271.5 438.5L265.7 441.8C264.917 441.031 264.044 440.36 263.1 439.8C262.155 439.25 261.148 438.813 260.1 438.5V432C260.1 430.926 259.673 429.896 258.914 429.136C258.154 428.377 257.124 427.95 256.05 427.95C254.976 427.95 253.946 428.377 253.186 429.136C252.427 429.896 252 430.926 252 432V438.6C249.878 439.212 247.927 440.308 246.3 441.8L240.5 438.5C240.037 438.217 239.522 438.031 238.985 437.954C238.449 437.876 237.902 437.909 237.378 438.049C236.854 438.189 236.364 438.435 235.938 438.77C235.512 439.105 235.159 439.524 234.9 440C234.633 440.459 234.46 440.966 234.391 441.492C234.322 442.018 234.359 442.552 234.498 443.064C234.638 443.576 234.878 444.055 235.204 444.473C235.531 444.892 235.937 445.241 236.4 445.5L242.2 448.8C241.678 450.935 241.678 453.165 242.2 455.3L236.4 458.5C235.937 458.76 235.531 459.109 235.204 459.527C234.878 459.945 234.638 460.424 234.498 460.936C234.359 461.448 234.322 461.982 234.391 462.509C234.46 463.035 234.633 463.542 234.9 464C235.254 464.614 235.765 465.122 236.379 465.473C236.994 465.825 237.692 466.007 238.4 466C239.099 466.011 239.788 465.839 240.4 465.5L246.2 462.2C247.014 462.976 247.921 463.648 248.9 464.2C249.849 464.716 250.856 465.119 251.9 465.4V472C251.9 473.061 252.321 474.078 253.071 474.829C253.822 475.579 254.839 476 255.9 476C256.961 476 257.978 475.579 258.728 474.829C259.478 474.078 259.9 473.061 259.9 472V465.5C262.023 464.891 263.975 463.796 265.6 462.3L271.4 465.6C272.011 465.939 272.701 466.111 273.4 466.1C274.108 466.107 274.805 465.925 275.42 465.573C276.035 465.222 276.546 464.714 276.9 464.1C277.456 463.198 277.631 462.112 277.387 461.081C277.144 460.05 276.501 459.158 275.6 458.6V458.5ZM252.9 457.2C252.208 456.815 251.6 456.297 251.109 455.675C250.619 455.054 250.256 454.341 250.043 453.579C249.829 452.817 249.768 452.02 249.864 451.234C249.959 450.448 250.209 449.689 250.6 449C251.143 448.08 251.918 447.318 252.849 446.791C253.779 446.265 254.831 445.992 255.9 446C256.951 446.008 257.984 446.283 258.9 446.8C259.583 447.194 260.182 447.718 260.662 448.344C261.143 448.969 261.495 449.683 261.699 450.444C261.904 451.206 261.956 452 261.853 452.782C261.75 453.564 261.494 454.317 261.1 455C260.286 456.36 258.976 457.35 257.445 457.761C255.915 458.171 254.285 457.97 252.9 457.2Z" fill="url(#paint2_linear_166_5984)" stroke="#86C3DB" stroke-miterlimit="10"/>
<path d="M331.6 408.5L325.8 405.2C326.321 403.065 326.321 400.835 325.8 398.7L331.6 395.5C332.063 395.241 332.469 394.892 332.795 394.473C333.122 394.055 333.362 393.576 333.502 393.064C333.641 392.552 333.677 392.018 333.609 391.492C333.54 390.966 333.367 390.459 333.1 390C332.841 389.524 332.487 389.105 332.061 388.77C331.635 388.435 331.145 388.189 330.622 388.049C330.098 387.909 329.551 387.876 329.014 387.954C328.478 388.031 327.962 388.217 327.5 388.5L321.7 391.8C320.917 391.031 320.044 390.36 319.1 389.8C318.155 389.25 317.148 388.813 316.1 388.5V382C316.1 380.926 315.673 379.896 314.914 379.136C314.154 378.377 313.124 377.95 312.05 377.95C310.976 377.95 309.946 378.377 309.186 379.136C308.427 379.896 308 380.926 308 382V388.6C305.878 389.212 303.927 390.308 302.3 391.8L296.5 388.5C296.037 388.217 295.522 388.031 294.985 387.954C294.449 387.876 293.902 387.909 293.378 388.049C292.854 388.189 292.365 388.435 291.938 388.77C291.512 389.105 291.159 389.524 290.9 390C290.633 390.459 290.46 390.966 290.391 391.492C290.322 392.018 290.359 392.552 290.498 393.064C290.638 393.576 290.878 394.055 291.204 394.473C291.531 394.892 291.937 395.241 292.4 395.5L298.2 398.8C297.678 400.935 297.678 403.165 298.2 405.3L292.4 408.5C291.937 408.76 291.531 409.109 291.204 409.527C290.878 409.945 290.638 410.424 290.498 410.936C290.359 411.448 290.322 411.982 290.391 412.509C290.46 413.035 290.633 413.542 290.9 414C291.254 414.614 291.765 415.122 292.379 415.473C292.994 415.825 293.692 416.007 294.4 416C295.099 416.011 295.788 415.839 296.4 415.5L302.2 412.2C303.014 412.976 303.921 413.648 304.9 414.2C305.849 414.716 306.856 415.119 307.9 415.4V422C307.9 423.061 308.321 424.078 309.071 424.829C309.822 425.579 310.839 426 311.9 426C312.961 426 313.978 425.579 314.728 424.829C315.478 424.078 315.9 423.061 315.9 422V415.4C318.023 414.791 319.975 413.696 321.6 412.2L327.4 415.5C328.011 415.839 328.701 416.011 329.4 416C330.108 416.007 330.805 415.825 331.42 415.473C332.035 415.122 332.546 414.614 332.9 414C333.456 413.098 333.631 412.012 333.387 410.981C333.144 409.95 332.501 409.058 331.6 408.5ZM308.9 407.2C308.208 406.815 307.6 406.297 307.109 405.675C306.619 405.054 306.256 404.341 306.043 403.579C305.829 402.817 305.768 402.02 305.864 401.234C305.959 400.448 306.209 399.689 306.6 399C307.143 398.08 307.918 397.318 308.849 396.791C309.779 396.265 310.831 395.992 311.9 396C312.951 396.008 313.984 396.283 314.9 396.8C315.583 397.194 316.182 397.718 316.662 398.344C317.143 398.969 317.495 399.683 317.699 400.444C317.904 401.206 317.956 402 317.853 402.782C317.75 403.564 317.494 404.317 317.1 405C316.286 406.36 314.976 407.35 313.445 407.761C311.915 408.171 310.285 407.97 308.9 407.2Z" fill="url(#paint3_linear_166_5984)" stroke="#86C3DB" stroke-miterlimit="10"/>
</g>
<path d="M200 436C197.878 436 195.843 435.157 194.343 433.657C192.843 432.157 192 430.122 192 428V416C192 413.878 192.843 411.843 194.343 410.343C195.843 408.843 197.878 408 200 408C202.122 408 204.157 408.843 205.657 410.343C207.157 411.843 208 413.878 208 416V428C208 430.122 207.157 432.157 205.657 433.657C204.157 435.157 202.122 436 200 436Z" fill="url(#paint4_linear_166_5984)" stroke="#0A5AD4" stroke-miterlimit="10"/>
<path d="M256 386C253.878 386 251.843 385.157 250.343 383.657C248.843 382.157 248 380.122 248 378V366C248 363.878 248.843 361.843 250.343 360.343C251.843 358.843 253.878 358 256 358C258.122 358 260.157 358.843 261.657 360.343C263.157 361.843 264 363.878 264 366V378C264 380.122 263.157 382.157 261.657 383.657C260.157 385.157 258.122 386 256 386Z" fill="url(#paint5_linear_166_5984)" stroke="#0A5AD4" stroke-miterlimit="10"/>
<path d="M312 476C309.878 476 307.843 475.157 306.343 473.657C304.843 472.157 304 470.122 304 468V456C304 453.878 304.843 451.843 306.343 450.343C307.843 448.843 309.878 448 312 448C314.122 448 316.157 448.843 317.657 450.343C319.157 451.843 320 453.878 320 456V468C320 470.122 319.157 472.157 317.657 473.657C316.157 475.157 314.122 476 312 476Z" fill="url(#paint6_linear_166_5984)" stroke="#0A5AD4" stroke-miterlimit="10"/>
</g>
<defs>
<linearGradient id="paint0_linear_166_5984" x1="180.5" y1="175.7" x2="313.6" y2="406.4" gradientUnits="userSpaceOnUse">
<stop stop-color="#F3F7FE"/>
<stop offset="0.5" stop-color="#F3F7FE"/>
<stop offset="1" stop-color="#DEEAFB"/>
</linearGradient>
<linearGradient id="paint1_linear_166_5984" x1="189.3" y1="343.4" x2="210.7" y2="380.6" gradientUnits="userSpaceOnUse">
<stop stop-color="#86C3DB"/>
<stop offset="0.5" stop-color="#86C3DB"/>
<stop offset="1" stop-color="#5EAFCF"/>
</linearGradient>
<linearGradient id="paint2_linear_166_5984" x1="245.3" y1="433.4" x2="266.7" y2="470.6" gradientUnits="userSpaceOnUse">
<stop stop-color="#86C3DB"/>
<stop offset="0.5" stop-color="#86C3DB"/>
<stop offset="1" stop-color="#5EAFCF"/>
</linearGradient>
<linearGradient id="paint3_linear_166_5984" x1="301.3" y1="383.4" x2="322.7" y2="420.6" gradientUnits="userSpaceOnUse">
<stop stop-color="#86C3DB"/>
<stop offset="0.5" stop-color="#86C3DB"/>
<stop offset="1" stop-color="#5EAFCF"/>
</linearGradient>
<linearGradient id="paint4_linear_166_5984" x1="193.426" y1="410.565" x2="206.559" y2="433.392" gradientUnits="userSpaceOnUse">
<stop stop-color="#0B65ED"/>
<stop offset="0.5" stop-color="#0A5AD4"/>
<stop offset="1" stop-color="#0950BC"/>
</linearGradient>
<linearGradient id="paint5_linear_166_5984" x1="249.398" y1="360.594" x2="262.629" y2="383.405" gradientUnits="userSpaceOnUse">
<stop stop-color="#0B65ED"/>
<stop offset="0.5" stop-color="#0A5AD4"/>
<stop offset="1" stop-color="#0950BC"/>
</linearGradient>
<linearGradient id="paint6_linear_166_5984" x1="305.359" y1="450.547" x2="318.606" y2="473.457" gradientUnits="userSpaceOnUse">
<stop stop-color="#0B65ED"/>
<stop offset="0.5" stop-color="#0A5AD4"/>
<stop offset="1" stop-color="#0950BC"/>
</linearGradient>
<clipPath id="clip0_166_5984">
<rect width="156.2" height="139" fill="white" transform="translate(177.9 337.5)"/>
</clipPath>
<clipPath id="clip1_166_5984">
<rect width="156.2" height="139" fill="white" transform="translate(177.9 337.5)"/>
</clipPath>
</defs>
</svg>
