<?xml version="1.0" encoding="UTF-8"?><svg xmlns="http://www.w3.org/2000/svg" xmlns:xlink="http://www.w3.org/1999/xlink" viewBox="0 0 512 512"><defs><style>.ie,.if,.ig,.ih{fill:none;}.if{stroke-dasharray:0 0 12.58 12.58;}.if,.ig{stroke-miterlimit:10;stroke-width:4px;}.if,.ig,.ih{stroke:#000;stroke-linecap:round;}.ii{clip-path:url(#ea);}.ih{stroke-linejoin:round;stroke-width:15px;}</style><symbol id="a" viewBox="0 0 279 279"><path d="M256.75,173.13c-74.12,0-134.21-59.29-134.21-132.42,0-11.49,1.64-22.58,4.43-33.21C59.79,14.75,7.5,70.87,7.5,139.08c0,73.13,60.09,132.42,134.21,132.42,62.48,0,114.83-42.18,129.79-99.21-4.85,.52-9.76,.84-14.75,.84Z" style="fill:none; stroke:#000; stroke-linecap:round; stroke-linejoin:round; stroke-width:15px;"/></symbol><clipPath id="ea"><polygon points="512 27.47 240 189.12 256 237.12 296 269.12 512 173.12 512 27.47" style="fill:none;"/></clipPath></defs><g id="b"/><g id="c"/><g id="d"/><g id="e"/><g id="f"/><g id="g"/><g id="h"/><g id="i"/><g id="j"/><g id="k"/><g id="l"/><g id="m"/><g id="n"/><g id="o"/><g id="p"/><g id="q"/><g id="r"/><g id="s"/><g id="t"/><g id="u"/><g id="v"/><g id="w"/><g id="x"/><g id="y"/><g id="a`"/><g id="aa"/><g id="ab"/><g id="ac"/><g id="ad"/><g id="ae"/><g id="af"/><g id="ag"/><g id="ah"/><g id="ai"/><g id="aj"/><g id="ak"/><g id="al"/><g id="am"/><g id="an"/><g id="ao"/><g id="ap"/><g id="aq"/><g id="ar"/><g id="as"/><g id="at"/><g id="au"/><g id="av"/><g id="aw"/><g id="ax"/><g id="ay"/><g id="b`"/><g id="ba"/><g id="bb"/><g id="bc"/><g id="bd"/><g id="be"/><g id="bf"/><g id="bg"/><g id="bh"/><g id="bi"/><g id="bj"/><g id="bk"/><g id="bl"/><g id="bm"/><g id="bn"/><g id="bo"/><g id="bp"/><g id="bq"/><g id="br"/><g id="bs"/><g id="bt"/><g id="bu"/><g id="bv"/><g id="bw"/><g id="bx"/><g id="by"/><g id="c`"/><g id="ca"/><g id="cb"/><g id="cc"/><g id="cd"/><g id="ce"/><g id="cf"/><g id="cg"/><g id="ch"/><g id="ci"/><g id="cj"/><g id="ck"/><g id="cl"/><g id="cm"/><g id="cn"/><g id="co"/><g id="cp"/><g id="cq"/><g id="cr"/><g id="cs"/><g id="ct"/><g id="cu"/><g id="cv"/><g id="cw"/><g id="cx"/><g id="cy"/><g id="d`"/><g id="da"/><g id="db"/><g id="dc"/><g id="dd"/><g id="de"/><g id="df"/><g id="dg"/><g id="dh"/><g id="di"/><g id="dj"/><g id="dk"/><g id="dl"/><g id="dm"/><g id="dn"/><g id="do"/><g id="dp"/><g id="dq"/><g id="dr"/><g id="ds"/><g id="dt"/><g id="du"/><g id="dv"/><g id="dw"/><g id="dx"/><g id="dy"/><g id="e`"><g style="clip-path:url(#ea);"><g><g><line x1="370" y1="174.12" x2="364.63" y2="176.8" style="fill:none; stroke:#000; stroke-linecap:round; stroke-miterlimit:10; stroke-width:4px;"/><line x1="353.38" y1="182.42" x2="268.99" y2="224.62" style="fill:none; stroke:#000; stroke-dasharray:0 0 12.58 12.58; stroke-linecap:round; stroke-miterlimit:10; stroke-width:4px;"/><line x1="263.37" y1="227.43" x2="258" y2="230.12" style="fill:none; stroke:#000; stroke-linecap:round; stroke-miterlimit:10; stroke-width:4px;"/></g><path d="M367.1,146.28l18.03,18.37c.44,.45,.62,1.1,.46,1.71l-6.43,24.92c-.46,1.77,1.7,3.01,3,1.73l18.37-18.03c.45-.44,1.1-.62,1.71-.46l24.92,6.43c1.77,.46,3.01-1.7,1.73-3l-18.03-18.37c-.44-.45-.62-1.1-.46-1.71l6.43-24.92c.46-1.77-1.7-3.01-3-1.73l-18.37,18.03c-.45,.44-1.1,.62-1.71,.46l-24.92-6.43c-1.77-.46-3.01,1.7-1.73,3Z"/></g></g><path d="M282.83,162.84l24.92-6.43c.61-.16,1.26,.02,1.71,.46l18.37,18.03c1.3,1.28,3.46,.03,3-1.73l-6.43-24.92c-.16-.61,.02-1.26,.46-1.71l18.03-18.37c1.28-1.3,.03-3.46-1.73-3l-24.92,6.43c-.61,.16-1.26-.02-1.71-.46l-18.37-18.03c-1.3-1.28-3.46-.03-3,1.73l6.43,24.92c.16,.61-.02,1.26-.46,1.71l-18.03,18.37c-1.28,1.3-.03,3.46,1.73,3Z"/><path d="M337.32,223.73l24.8,6.9c.61,.17,1.08,.64,1.25,1.25l6.9,24.8c.49,1.76,2.98,1.76,3.47,0l6.9-24.8c.17-.61,.64-1.08,1.25-1.25l24.8-6.9c1.76-.49,1.76-2.98,0-3.47l-24.8-6.9c-.61-.17-1.08-.64-1.25-1.25l-6.9-24.8c-.49-1.76-2.98-1.76-3.47,0l-6.9,24.8c-.17,.61-.64,1.08-1.25,1.25l-24.8,6.9c-1.76,.49-1.76,2.98,0,3.47Z"/><use width="279" height="279" transform="translate(116.5 116.5)" xlink:href="#a"/></g><g id="eb"/><g id="ec"/><g id="ed"/><g id="ee"/><g id="ef"/><g id="eg"/><g id="eh"/><g id="ei"/><g id="ej"/><g id="ek"/><g id="el"/><g id="em"/><g id="en"/><g id="eo"/><g id="ep"/><g id="eq"/><g id="er"/><g id="es"/><g id="et"/><g id="eu"/><g id="ev"/><g id="ew"/><g id="ex"/><g id="ey"/><g id="f`"/><g id="fa"/><g id="fb"/><g id="fc"/><g id="fd"/><g id="fe"/><g id="ff"/><g id="fg"/><g id="fh"/><g id="fi"/><g id="fj"/><g id="fk"/><g id="fl"/><g id="fm"/><g id="fn"/><g id="fo"/><g id="fp"/><g id="fq"/><g id="fr"/><g id="fs"/><g id="ft"/><g id="fu"/><g id="fv"/><g id="fw"/><g id="fx"/><g id="fy"/><g id="g`"/><g id="ga"/><g id="gb"/><g id="gc"/><g id="gd"/><g id="ge"/><g id="gf"/><g id="gg"/><g id="gh"/><g id="gi"/><g id="gj"/><g id="gk"/><g id="gl"/><g id="gm"/><g id="gn"/><g id="go"/><g id="gp"/><g id="gq"/><g id="gr"/><g id="gs"/><g id="gt"/><g id="gu"/><g id="gv"/><g id="gw"/><g id="gx"/><g id="gy"/><g id="h`"/><g id="ha"/><g id="hb"/><g id="hc"/><g id="hd"/><g id="he"/><g id="hf"/><g id="hg"/><g id="hh"/><g id="hi"/><g id="hj"/><g id="hk"/><g id="hl"/><g id="hm"/><g id="hn"/><g id="ho"/><g id="hp"/><g id="hq"/><g id="hr"/><g id="hs"/><g id="ht"/><g id="hu"/><g id="hv"/><g id="hw"/><g id="hx"/><g id="hy"/><g id="i`"/><g id="ia"/><g id="ib"/><g id="ic"/><g id="id"/></svg>