<?xml version="1.0" encoding="UTF-8"?><svg xmlns="http://www.w3.org/2000/svg" xmlns:xlink="http://www.w3.org/1999/xlink" viewBox="0 0 512 512"><defs><style></style><symbol id="a" viewBox="0 0 232 72"><g><circle cx="116" cy="12" r="12"/><circle cx="156" cy="52" r="16"/><circle cx="76" cy="52" r="16"/><circle cx="12" cy="60" r="12"/><circle cx="220" cy="60" r="12"/><circle cx="180" cy="20" r="8"/><circle cx="52" cy="20" r="8"/></g></symbol></defs><g id="b"/><g id="c"/><g id="d"/><g id="e"/><g id="f"/><g id="g"/><g id="h"/><g id="i"/><g id="j"/><g id="k"/><g id="l"/><g id="m"/><g id="n"/><g id="o"/><g id="p"/><g id="q"/><g id="r"/><g id="s"/><g id="t"/><g id="u"/><g id="v"/><g id="w"/><g id="x"/><g id="y"/><g id="a`"/><g id="aa"/><g id="ab"/><g id="ac"/><g id="ad"/><g id="ae"/><g id="af"/><g id="ag"/><g id="ah"/><g id="ai"/><g id="aj"/><g id="ak"/><g id="al"/><g id="am"/><g id="an"/><g id="ao"/><g id="ap"/><g id="aq"/><g id="ar"/><g id="as"/><g id="at"/><g id="au"/><g id="av"/><g id="aw"/><g id="ax"/><g id="ay"/><g id="b`"/><g id="ba"/><g id="bb"/><g id="bc"/><g id="bd"/><g id="be"/><g id="bf"/><g id="bg"/><g id="bh"/><g id="bi"/><g id="bj"/><g id="bk"/><g id="bl"/><g id="bm"/><g id="bn"/><g id="bo"/><g id="bp"/><g id="bq"/><g id="br"/><g id="bs"/><g id="bt"/><g id="bu"/><g id="bv"/><g id="bw"/><g id="bx"/><g id="by"/><g id="c`"/><g id="ca"/><g id="cb"/><g id="cc"/><g id="cd"/><g id="ce"/><g id="cf"/><g id="cg"/><g id="ch"/><g id="ci"/><g id="cj"/><g id="ck"/><g id="cl"/><g id="cm"/><g id="cn"/><g id="co"/><g id="cp"/><g id="cq"/><g id="cr"/><g id="cs"/><g id="ct"/><g id="cu"/><g id="cv"/><g id="cw"/><g id="cx"/><g id="cy"/><g id="d`"/><g id="da"/><g id="db"/><g id="dc"/><g id="dd"/><g id="de"/><g id="df"/><g id="dg"/><g id="dh"/><g id="di"/><g id="dj"/><g id="dk"/><g id="dl"/><g id="dm"/><g id="dn"/><g id="do"/><g id="dp"/><g id="dq"/><g id="dr"/><g id="ds"/><g id="dt"/><g id="du"/><g id="dv"/><g id="dw"/><g id="dx"/><g id="dy"/><g id="e`"/><g id="ea"/><g id="eb"/><g id="ec"/><g id="ed"/><g id="ee"/><g id="ef"/><g id="eg"/><g id="eh"/><g id="ei"/><g id="ej"/><g id="ek"/><g id="el"/><g id="em"/><g id="en"/><g id="eo"/><g id="ep"/><g id="eq"/><g id="er"/><g id="es"/><g id="et"/><g id="eu"/><g id="ev"/><g id="ew"/><g id="ex"/><g id="ey"/><g id="f`"/><g id="fa"/><g id="fb"/><g id="fc"/><g id="fd"/><g id="fe"/><g id="ff"/><g id="fg"/><g id="fh"/><g id="fi"/><g id="fj"/><g id="fk"/><g id="fl"/><g id="fm"/><g id="fn"/><g id="fo"/><g id="fp"/><g id="fq"/><g id="fr"/><g id="fs"/><g id="ft"/><g id="fu"/><g id="fv"/><g id="fw"/><g id="fx"/><g id="fy"/><g id="g`"/><g id="ga"/><g id="gb"/><g id="gc"/><g id="gd"/><g id="ge"/><g id="gf"/><g id="gg"/><g id="gh"/><g id="gi"/><g id="gj"/><g id="gk"/><g id="gl"/><g id="gm"/><g id="gn"/><g id="go"/><g id="gp"/><g id="gq"/><g id="gr"/><g id="gs"/><g id="gt"/><g id="gu"/><g id="gv"/><g id="gw"/><g id="gx"/><g id="gy"/><g id="h`"/><g id="ha"/><g id="hb"/><g id="hc"/><g id="hd"/><g id="he"/><g id="hf"/><g id="hg"/><g id="hh"><path d="M327.5,258.55c-5.86-2.77-11.83-4.66-17.72-5.79,3.83-4.61,7.25-9.86,10.02-15.72,13.48-28.51,7.11-59.8-14.22-69.88-21.33-10.09-49.56,4.84-63.04,33.34-2.77,5.86-4.66,11.84-5.79,17.73-4.61-3.83-9.86-7.25-15.72-10.02-28.5-13.48-59.79-7.11-69.88,14.22-10.09,21.33,4.84,49.56,33.34,63.04,5.86,2.77,11.83,4.66,17.72,5.79-3.83,4.61-7.25,9.86-10.02,15.72-13.48,28.51-7.11,59.8,14.22,69.88,21.33,10.09,49.56-4.84,63.04-33.34,2.77-5.86,4.66-11.83,5.79-17.72,4.61,3.83,9.86,7.25,15.72,10.02,28.51,13.48,59.79,7.11,69.88-14.22,10.09-21.33-4.84-49.56-33.34-63.04Zm-49.3,18.77s28.74,10.59,25.58,17.27c-3.16,6.68-29.58-8.81-29.58-8.81,0,0,21.58,18.76,16.94,22.41-4.65,3.65-25.83-20.14-25.83-20.14,0,0,15.22,24.93,8.69,27.26-.88,.31-1.91-.27-3.04-1.51-.09,1.68-.52,2.78-1.39,3.1-6.53,2.33-10.58-26.59-10.58-26.59,0,0-1.28,31.83-7.18,31.96-5.91,.13-1.13-28.06-1.13-28.06,0,0-10.59,28.74-17.27,25.58-6.68-3.16,8.81-29.58,8.81-29.58,0,0-18.76,21.58-22.41,16.94-3.65-4.65,20.15-25.83,20.15-25.83,0,0-24.93,15.22-27.27,8.69-.31-.88,.27-1.91,1.51-3.04-1.68-.09-2.78-.52-3.1-1.39-2.34-6.53,26.59-10.58,26.59-10.58,0,0-31.83-1.28-31.96-7.18-.13-5.9,28.06-1.12,28.06-1.12,0,0-28.74-10.6-25.58-17.28,3.16-6.68,29.58,8.81,29.58,8.81,0,0-21.58-18.76-16.94-22.41,4.65-3.65,25.83,20.14,25.83,20.14,0,0-15.22-24.93-8.69-27.26,.88-.31,1.91,.27,3.04,1.51,.09-1.68,.52-2.78,1.39-3.09,6.53-2.34,10.58,26.59,10.58,26.59,0,0,1.28-31.83,7.18-31.96,5.9-.13,1.13,28.06,1.13,28.06,0,0,10.59-28.74,17.27-25.58,6.68,3.16-8.81,29.58-8.81,29.58,0,0,18.76-21.58,22.41-16.94,3.65,4.65-20.15,25.83-20.15,25.83,0,0,24.93-15.22,27.27-8.69,.31,.87-.27,1.91-1.51,3.04,1.68,.09,2.78,.52,3.09,1.39,2.34,6.53-26.59,10.59-26.59,10.59,0,0,31.83,1.28,31.96,7.18,.13,5.9-28.06,1.13-28.06,1.13Z"/><use width="232" height="72" transform="translate(140 132)" xlink:href="#a"/></g><g id="hi"/><g id="hj"/><g id="hk"/><g id="hl"/><g id="hm"/><g id="hn"/><g id="ho"/><g id="hp"/><g id="hq"/><g id="hr"/><g id="hs"/><g id="ht"/><g id="hu"/><g id="hv"/><g id="hw"/><g id="hx"/><g id="hy"/><g id="i`"/><g id="ia"/><g id="ib"/><g id="ic"/></svg>