<svg xmlns="http://www.w3.org/2000/svg" viewBox="0 0 64 64"><line x1="43.5" y1="28.4" x2="40.5" y2="33.6" fill="none" stroke="#000" stroke-linecap="round" stroke-miterlimit="10"/><line x1="23.5" y1="34.1" x2="20.5" y2="28.9" fill="none" stroke="#000" stroke-linecap="round" stroke-miterlimit="10"/><path d="M33.45,12.05l-2.6,1.5-2.5-4.33-5.2,3,2.5,4.33-2.6,1.5a1,1,0,0,0-.36,1.36l.5.87a1,1,0,0,0,1.36.37l10.4-6a1,1,0,0,0,.36-1.36l-.5-.87A1,1,0,0,0,33.45,12.05Z"/><path d="M36,28.31a7.5,7.5,0,1,0-8.08,0,10.5,10.5,0,1,0,8.08,0ZM30,21a1,1,0,1,1,1-1A1,1,0,0,1,30,21Zm2,20a1,1,0,1,1,1-1A1,1,0,0,1,32,41Zm0-3a1,1,0,1,1,1-1A1,1,0,0,1,32,38Zm0-3a1,1,0,1,1,1-1A1,1,0,0,1,32,35Zm0-11a1,1,0,1,1,1-1A1,1,0,0,1,32,24Zm2-3a1,1,0,1,1,1-1A1,1,0,0,1,34,21Z"/></svg>