<?xml version="1.0" encoding="UTF-8"?><svg xmlns="http://www.w3.org/2000/svg" xmlns:xlink="http://www.w3.org/1999/xlink" viewBox="0 0 512 512"><defs><style>.id,.ie,.if{fill:none;}.ie{stroke-width:6px;}.ie,.if{stroke:#000;stroke-miterlimit:10;}.ig{clip-path:url(#fd);}.if{stroke-width:9px;}</style><clipPath id="fd"><polygon points="118.96 428.7 390 428.7 390 305.33 336.88 305.33 325 312 311 303 313 289 325 282 390 282 390 81.59 118.96 81.59 118.96 282 187 282 200 290 200 305 187 312 171.81 303 118.96 303 118.96 428.7" style="fill:none;"/></clipPath></defs><g id="a"/><g id="b"/><g id="c"/><g id="d"/><g id="e"/><g id="f"/><g id="g"/><g id="h"/><g id="i"/><g id="j"/><g id="k"/><g id="l"/><g id="m"/><g id="n"/><g id="o"/><g id="p"/><g id="q"/><g id="r"/><g id="s"/><g id="t"/><g id="u"/><g id="v"/><g id="w"/><g id="x"/><g id="y"/><g id="a`"/><g id="aa"/><g id="ab"/><g id="ac"/><g id="ad"/><g id="ae"/><g id="af"/><g id="ag"/><g id="ah"/><g id="ai"/><g id="aj"/><g id="ak"/><g id="al"/><g id="am"/><g id="an"/><g id="ao"/><g id="ap"/><g id="aq"/><g id="ar"/><g id="as"/><g id="at"/><g id="au"/><g id="av"/><g id="aw"/><g id="ax"/><g id="ay"/><g id="b`"/><g id="ba"/><g id="bb"/><g id="bc"/><g id="bd"/><g id="be"/><g id="bf"/><g id="bg"/><g id="bh"/><g id="bi"/><g id="bj"/><g id="bk"/><g id="bl"/><g id="bm"/><g id="bn"/><g id="bo"/><g id="bp"/><g id="bq"/><g id="br"/><g id="bs"/><g id="bt"/><g id="bu"/><g id="bv"/><g id="bw"/><g id="bx"/><g id="by"/><g id="c`"/><g id="ca"/><g id="cb"/><g id="cc"/><g id="cd"/><g id="ce"/><g id="cf"/><g id="cg"/><g id="ch"/><g id="ci"/><g id="cj"/><g id="ck"/><g id="cl"/><g id="cm"/><g id="cn"/><g id="co"/><g id="cp"/><g id="cq"/><g id="cr"/><g id="cs"/><g id="ct"/><g id="cu"/><g id="cv"/><g id="cw"/><g id="cx"/><g id="cy"/><g id="d`"/><g id="da"/><g id="db"/><g id="dc"/><g id="dd"/><g id="de"/><g id="df"/><g id="dg"/><g id="dh"/><g id="di"/><g id="dj"/><g id="dk"/><g id="dl"/><g id="dm"/><g id="dn"/><g id="do"/><g id="dp"/><g id="dq"/><g id="dr"/><g id="ds"/><g id="dt"/><g id="du"/><g id="dv"/><g id="dw"/><g id="dx"/><g id="dy"/><g id="e`"/><g id="ea"/><g id="eb"/><g id="ec"/><g id="ed"/><g id="ee"/><g id="ef"/><g id="eg"/><g id="eh"/><g id="ei"/><g id="ej"/><g id="ek"/><g id="el"/><g id="em"/><g id="en"/><g id="eo"/><g id="ep"/><g id="eq"/><g id="er"/><g id="es"/><g id="et"/><g id="eu"/><g id="ev"/><g id="ew"/><g id="ex"/><g id="ey"/><g id="f`"/><g id="fa"/><g id="fb"/><g id="fc"><circle cx="325" cy="297" r="15" style="fill:none; stroke:#000; stroke-miterlimit:10; stroke-width:6px;"/><circle cx="187" cy="297" r="15" style="fill:none; stroke:#000; stroke-miterlimit:10; stroke-width:6px;"/><g style="clip-path:url(#fd);"><circle cx="256" cy="330" r="84" style="fill:none; stroke:#000; stroke-miterlimit:10; stroke-width:9px;"/><circle cx="256" cy="202" r="60" style="fill:none; stroke:#000; stroke-miterlimit:10; stroke-width:9px;"/><path d="M259,231c0,1.66-1.34,3-3,3s-3-1.34-3-3,1.34-3,3-3,3,1.34,3,3Zm-12-5c-1.66,0-3,1.34-3,3s1.34,3,3,3,3-1.34,3-3-1.34-3-3-3Zm-8-6c-1.66,0-3,1.34-3,3s1.34,3,3,3,3-1.34,3-3-1.34-3-3-3Zm26,6c-1.66,0-3,1.34-3,3s1.34,3,3,3,3-1.34,3-3-1.34-3-3-3Zm8-6c-1.66,0-3,1.34-3,3s1.34,3,3,3,3-1.34,3-3-1.34-3-3-3Z"/><path d="M280.01,186c0,4.42-3.58,8-8.01,8s-8.01-3.58-8.01-8,3.58-8,8.01-8,8.01,3.58,8.01,8Zm-40.01-8c-4.42,0-8.01,3.58-8.01,8s3.58,8,8.01,8,8.01-3.58,8.01-8-3.58-8-8.01-8Z"/><path d="M280,266h-65.15c-3.79,0-6.85-3.2-6.85-7.14v-9.72c0-4.11,3.33-7.37,7.27-7.12h81.46c3.94-.25,7.27,3.01,7.27,7.12v9.72c0,3.94-3.07,7.14-6.85,7.14h-17.15Z"/><path d="M297.01,144.35l-2.74-10.2c-.96-3.58-4.64-5.71-8.23-4.75l-24.15,6.46c-.15,.04-.31-.05-.35-.2l-9.25-34.46c-.58-2.14-2.78-3.42-4.92-2.84l-38.6,10.33c-2.15,.57-3.42,2.78-2.84,4.93l9.25,34.46c.04,.15-.05,.31-.2,.35l-24.14,6.46c-3.58,.96-5.71,4.64-4.75,8.23l2.73,10.19c.96,3.59,4.65,5.72,8.24,4.76l95.21-25.48c3.58-.96,5.71-4.64,4.75-8.22Zm-80.34,1.54l-1.03-3.86,42.5-11.37,1.03,3.86-42.5,11.37Z"/><ellipse cx="256" cy="205.16" rx="8" ry="7.99"/><path d="M264,324c0,4.42-3.58,8-8,8s-8-3.58-8-8,3.58-8,8-8,8,3.58,8,8Zm-8,16c-4.42,0-8,3.58-8,8s3.58,8,8,8,8-3.58,8-8-3.58-8-8-8Zm0-48c-4.42,0-8,3.58-8,8s3.58,8,8,8,8-3.58,8-8-3.58-8-8-8Z"/></g></g><g id="fe"/><g id="ff"/><g id="fg"/><g id="fh"/><g id="fi"/><g id="fj"/><g id="fk"/><g id="fl"/><g id="fm"/><g id="fn"/><g id="fo"/><g id="fp"/><g id="fq"/><g id="fr"/><g id="fs"/><g id="ft"/><g id="fu"/><g id="fv"/><g id="fw"/><g id="fx"/><g id="fy"/><g id="g`"/><g id="ga"/><g id="gb"/><g id="gc"/><g id="gd"/><g id="ge"/><g id="gf"/><g id="gg"/><g id="gh"/><g id="gi"/><g id="gj"/><g id="gk"/><g id="gl"/><g id="gm"/><g id="gn"/><g id="go"/><g id="gp"/><g id="gq"/><g id="gr"/><g id="gs"/><g id="gt"/><g id="gu"/><g id="gv"/><g id="gw"/><g id="gx"/><g id="gy"/><g id="h`"/><g id="ha"/><g id="hb"/><g id="hc"/><g id="hd"/><g id="he"/><g id="hf"/><g id="hg"/><g id="hh"/><g id="hi"/><g id="hj"/><g id="hk"/><g id="hl"/><g id="hm"/><g id="hn"/><g id="ho"/><g id="hp"/><g id="hq"/><g id="hr"/><g id="hs"/><g id="ht"/><g id="hu"/><g id="hv"/><g id="hw"/><g id="hx"/><g id="hy"/><g id="i`"/><g id="ia"/><g id="ib"/><g id="ic"/></svg>