<svg xmlns="http://www.w3.org/2000/svg" viewBox="0 0 64 64"><path d="M28.88,49.85a1.55,1.55,0,0,1,.88,1.5,1.84,1.84,0,0,1-.6,1.45,2.67,2.67,0,0,1-1.79.53,2.39,2.39,0,0,1-2.53-1.51.32.32,0,0,1,.23-.47l.67-.24a.34.34,0,0,1,.29,0,.46.46,0,0,1,.18.25,1,1,0,0,0,.38.51,1.43,1.43,0,0,0,.74.16c.6,0,.9-.24.9-.7s-.25-.71-.76-.71h-.71a.44.44,0,0,1-.29-.07.42.42,0,0,1-.08-.29v-.56a.41.41,0,0,1,.08-.28.39.39,0,0,1,.29-.08h.53a.9.9,0,0,0,.57-.17.57.57,0,0,0,.22-.49c0-.45-.26-.67-.79-.67a1.12,1.12,0,0,0-.68.16,1,1,0,0,0-.35.51.49.49,0,0,1-.18.24.41.41,0,0,1-.29,0l-.68-.24a.32.32,0,0,1-.22-.47,2.15,2.15,0,0,1,.88-1.13,2.89,2.89,0,0,1,1.6-.38,2.38,2.38,0,0,1,1.61.49,1.67,1.67,0,0,1,.58,1.35A1.49,1.49,0,0,1,28.88,49.85Z"/><path d="M33.21,50.25a.39.39,0,0,1,.08.29v.55a.39.39,0,0,1-.08.29.41.41,0,0,1-.28.08h-2a.42.42,0,0,1-.29-.08.39.39,0,0,1-.08-.29v-.55a.39.39,0,0,1,.08-.29.42.42,0,0,1,.29-.08h2A.41.41,0,0,1,33.21,50.25Z"/><path d="M36.77,49.14c1.61,0,2.42.69,2.42,2.08a1.91,1.91,0,0,1-.67,1.55,2.79,2.79,0,0,1-1.84.56,2.55,2.55,0,0,1-1.86-.63,2.32,2.32,0,0,1-.65-1.76V49.06a2.32,2.32,0,0,1,.65-1.76,2.57,2.57,0,0,1,1.86-.63,2.28,2.28,0,0,1,2.4,1.44.31.31,0,0,1,0,.29.46.46,0,0,1-.25.18l-.65.24a.35.35,0,0,1-.28,0,.53.53,0,0,1-.19-.25A1,1,0,0,0,36.69,48a.93.93,0,0,0-1.06,1v.19A5.3,5.3,0,0,1,36.77,49.14ZM36.68,52q1.05,0,1-.78a.69.69,0,0,0-.24-.58,1.3,1.3,0,0,0-.81-.19,3.12,3.12,0,0,0-1,.14V51C35.63,51.67,36,52,36.68,52Z"/><path d="M42.66,29.06A12,12,0,0,1,30.86,14,12,12,0,1,0,44,29,11.9,11.9,0,0,1,42.66,29.06Z"/><path d="M33.35,15.36l3.12-.81a.2.2,0,0,1,.21.06L39,16.86a.23.23,0,0,0,.38-.21l-.81-3.12a.2.2,0,0,1,.06-.21L40.86,11a.23.23,0,0,0-.21-.38l-3.12.81a.2.2,0,0,1-.21-.06L35,9.14a.23.23,0,0,0-.38.21l.81,3.12a.2.2,0,0,1-.06.21L33.14,15A.23.23,0,0,0,33.35,15.36Z"/><path d="M33.42,19.68l1.51,1.53a.18.18,0,0,1,0,.14l-.54,2.08a.15.15,0,0,0,.25.15l1.53-1.51a.18.18,0,0,1,.14,0l2.08.54a.15.15,0,0,0,.15-.25l-1.51-1.53a.18.18,0,0,1,0-.14l.54-2.08a.15.15,0,0,0-.25-.15l-1.53,1.51a.18.18,0,0,1-.14,0l-2.08-.54A.15.15,0,0,0,33.42,19.68Z"/><path d="M39.66,23.22l3.1.86a.22.22,0,0,1,.16.16l.86,3.1a.23.23,0,0,0,.44,0l.86-3.1a.22.22,0,0,1,.16-.16l3.1-.86a.23.23,0,0,0,0-.44l-3.1-.86a.22.22,0,0,1-.16-.16l-.86-3.1a.23.23,0,0,0-.44,0l-.86,3.1a.22.22,0,0,1-.16.16l-3.1.86A.23.23,0,0,0,39.66,23.22Z"/></svg>