<?xml version="1.0" encoding="UTF-8"?><svg xmlns="http://www.w3.org/2000/svg" xmlns:xlink="http://www.w3.org/1999/xlink" viewBox="0 0 512 512"><defs><style>.if,.ig,.ih{fill:none;}.ig{stroke-miterlimit:10;stroke-width:12px;}.ig,.ih{stroke:#000;}.ii{clip-path:url(#hf);}.ih{stroke-linecap:round;stroke-linejoin:round;stroke-width:15px;}</style><symbol id="a" viewBox="0 0 197.48 128.47"><path d="M161.29,62.08c-.46,0-.91,.05-1.36,.07,.86-3.48,1.36-7.1,1.36-10.85,0-25.01-20.28-45.29-45.29-45.29-16.28,0-30.52,8.62-38.5,21.52-4.52-2.69-9.78-4.27-15.42-4.27-16.68,0-30.2,13.52-30.2,30.2,0,1.67,.17,3.3,.43,4.9-14.98,2.83-26.31,15.97-26.31,31.77,0,17.87,14.48,32.35,32.35,32.35,.73,0,1.44-.06,2.16-.11v.11h120.78c16.68,0,30.2-13.52,30.2-30.2s-13.52-30.2-30.2-30.2Z" style="fill:none; stroke:#000; stroke-miterlimit:10; stroke-width:12px;"/></symbol><symbol id="b" viewBox="0 0 203 203"><path d="M185,125.45c-52.79,0-95.58-42.22-95.58-94.3,0-8.18,1.17-16.08,3.15-23.65C44.74,12.66,7.5,52.63,7.5,101.2c0,52.08,42.79,94.3,95.58,94.3,44.49,0,81.77-30.04,92.42-70.65-3.45,.37-6.95,.6-10.5,.6Z" style="fill:none; stroke:#000; stroke-linecap:round; stroke-linejoin:round; stroke-width:15px;"/></symbol><clipPath id="hf"><path d="M326.62,238.92c-16.33,0-30.6,8.59-38.61,21.44-4.53-2.68-9.8-4.25-15.46-4.25-16.72,0-30.28,13.47-30.28,30.08,0,1.67,.17,3.29,.43,4.88-15.02,2.82-26.39,15.9-26.39,31.65l2.67,11.29H0V0H326.62V238.92Z" style="fill:none;"/></clipPath></defs><g id="c"/><g id="d"/><g id="e"/><g id="f"/><g id="g"/><g id="h"/><g id="i"/><g id="j"/><g id="k"/><g id="l"/><g id="m"/><g id="n"/><g id="o"/><g id="p"/><g id="q"/><g id="r"/><g id="s"/><g id="t"/><g id="u"/><g id="v"/><g id="w"/><g id="x"/><g id="y"/><g id="a`"/><g id="aa"/><g id="ab"/><g id="ac"/><g id="ad"/><g id="ae"/><g id="af"/><g id="ag"/><g id="ah"/><g id="ai"/><g id="aj"/><g id="ak"/><g id="al"/><g id="am"/><g id="an"/><g id="ao"/><g id="ap"/><g id="aq"/><g id="ar"/><g id="as"/><g id="at"/><g id="au"/><g id="av"/><g id="aw"/><g id="ax"/><g id="ay"/><g id="b`"/><g id="ba"/><g id="bb"/><g id="bc"/><g id="bd"/><g id="be"/><g id="bf"/><g id="bg"/><g id="bh"/><g id="bi"/><g id="bj"/><g id="bk"/><g id="bl"/><g id="bm"/><g id="bn"/><g id="bo"/><g id="bp"/><g id="bq"/><g id="br"/><g id="bs"/><g id="bt"/><g id="bu"/><g id="bv"/><g id="bw"/><g id="bx"/><g id="by"/><g id="c`"/><g id="ca"/><g id="cb"/><g id="cc"/><g id="cd"/><g id="ce"/><g id="cf"/><g id="cg"/><g id="ch"/><g id="ci"/><g id="cj"/><g id="ck"/><g id="cl"/><g id="cm"/><g id="cn"/><g id="co"/><g id="cp"/><g id="cq"/><g id="cr"/><g id="cs"/><g id="ct"/><g id="cu"/><g id="cv"/><g id="cw"/><g id="cx"/><g id="cy"/><g id="d`"/><g id="da"/><g id="db"/><g id="dc"/><g id="dd"/><g id="de"/><g id="df"/><g id="dg"/><g id="dh"/><g id="di"/><g id="dj"/><g id="dk"/><g id="dl"/><g id="dm"/><g id="dn"/><g id="do"/><g id="dp"/><g id="dq"/><g id="dr"/><g id="ds"/><g id="dt"/><g id="du"/><g id="dv"/><g id="dw"/><g id="dx"/><g id="dy"/><g id="e`"/><g id="ea"/><g id="eb"/><g id="ec"/><g id="ed"/><g id="ee"/><g id="ef"/><g id="eg"/><g id="eh"/><g id="ei"/><g id="ej"/><g id="ek"/><g id="el"/><g id="em"/><g id="en"/><g id="eo"/><g id="ep"/><g id="eq"/><g id="er"/><g id="es"/><g id="et"/><g id="eu"/><g id="ev"/><g id="ew"/><g id="ex"/><g id="ey"/><g id="f`"/><g id="fa"/><g id="fb"/><g id="fc"/><g id="fd"/><g id="fe"/><g id="ff"/><g id="fg"/><g id="fh"/><g id="fi"/><g id="fj"/><g id="fk"/><g id="fl"/><g id="fm"/><g id="fn"/><g id="fo"/><g id="fp"/><g id="fq"/><g id="fr"/><g id="fs"/><g id="ft"/><g id="fu"/><g id="fv"/><g id="fw"/><g id="fx"/><g id="fy"/><g id="g`"/><g id="ga"/><g id="gb"/><g id="gc"/><g id="gd"/><g id="ge"/><g id="gf"/><g id="gg"/><g id="gh"/><g id="gi"/><g id="gj"/><g id="gk"/><g id="gl"/><g id="gm"/><g id="gn"/><g id="go"/><g id="gp"/><g id="gq"/><g id="gr"/><g id="gs"/><g id="gt"/><g id="gu"/><g id="gv"/><g id="gw"/><g id="gx"/><g id="gy"/><g id="h`"/><g id="ha"/><g id="hb"/><g id="hc"/><g id="hd"/><g id="he"><g style="clip-path:url(#hf);"><use width="203" height="203" transform="translate(154.5 134.5)" xlink:href="#b"/></g><path d="M220.22,438.38h-40.61c0-4.56,.98-8.38,2.95-11.45,1.97-2.98,5.57-6.27,10.8-9.87l7.92-5.61c2.02-1.39,3.44-2.71,4.28-3.96,.84-1.25,1.26-2.66,1.26-4.25,0-2.06-.62-3.68-1.87-4.86-1.25-1.18-2.95-1.76-5.11-1.76-4.89,0-7.34,2.86-7.34,8.57v1.08h-12.17v-1.59c0-5.9,1.73-10.51,5.18-13.82,3.46-3.31,8.35-4.97,14.69-4.97s10.85,1.46,14.4,4.39c3.6,2.98,5.4,7.03,5.4,12.17,0,3.31-.85,6.29-2.55,8.93-1.71,2.64-4.43,5.16-8.17,7.56l-8.86,5.61c-1.68,1.11-2.59,2.04-2.74,2.81h22.54v11.02Z"/><path d="M253.77,438.38h-13.46v-32.04h-12.67v-9h2.16c3.7,0,6.62-.79,8.78-2.38,2.02-1.49,3.34-3.91,3.96-7.27l.14-.57h11.09v51.26Z"/><path d="M283.79,423.34h-20.52v-9.94h20.52v9.94Z"/><path d="M328.43,432.27c-4.03,4.85-9.46,7.27-16.27,7.27s-12.24-2.42-16.27-7.27c-4.03-4.85-6.05-11.4-6.05-19.66s2.02-14.64,6.05-19.44c3.94-4.8,9.36-7.2,16.27-7.2s12.24,2.4,16.27,7.2c3.98,4.85,5.98,11.33,5.98,19.44s-1.99,14.81-5.98,19.66Zm-16.27-3.17c6.24,0,9.36-5.45,9.36-16.35s-3.12-16.34-9.36-16.34-9.43,5.45-9.43,16.34,3.14,16.35,9.43,16.35Z"/><use width="197.48" height="128.47" transform="translate(210.31 232.95)" xlink:href="#a"/></g><g id="hg"/><g id="hh"/><g id="hi"/><g id="hj"/><g id="hk"/><g id="hl"/><g id="hm"/><g id="hn"/><g id="ho"/><g id="hp"/><g id="hq"/><g id="hr"/><g id="hs"/><g id="ht"/><g id="hu"/><g id="hv"/><g id="hw"/><g id="hx"/><g id="hy"/><g id="i`"/><g id="ia"/><g id="ib"/><g id="ic"/><g id="id"/><g id="ie"/></svg>