<?xml version="1.0" encoding="UTF-8"?><svg xmlns="http://www.w3.org/2000/svg" xmlns:xlink="http://www.w3.org/1999/xlink" viewBox="0 0 512 512"><defs><style>.ie,.if,.ig,.ih{fill:none;}.if{stroke-width:12px;}.if,.ig{stroke-miterlimit:10;}.if,.ig,.ih{stroke:#000;}.ig{stroke-width:15px;}.ig,.ih{stroke-linecap:round;}.ih{stroke-linejoin:round;stroke-width:18px;}.ii{clip-path:url(#h`);}</style><symbol id="a" viewBox="0 0 291 291"><g><circle cx="145.5" cy="145.5" r="64.4" style="fill:none; stroke:#000; stroke-miterlimit:10; stroke-width:12px;"/><path d="M145.5,45.57V7.5m0,276v-38.07M216.16,74.84l26.92-26.92M47.92,243.08l26.92-26.92m0-141.32l-26.92-26.92M243.08,243.08l-26.92-26.92M45.57,145.5H7.5m276,0h-38.07" style="fill:none; stroke:#000; stroke-linecap:round; stroke-miterlimit:10; stroke-width:15px;"/></g></symbol><clipPath id="h`"><rect y="12" width="512" height="282" style="fill:none;"/></clipPath></defs><g id="b"/><g id="c"/><g id="d"/><g id="e"/><g id="f"/><g id="g"/><g id="h"/><g id="i"/><g id="j"/><g id="k"/><g id="l"/><g id="m"/><g id="n"/><g id="o"/><g id="p"/><g id="q"/><g id="r"/><g id="s"/><g id="t"/><g id="u"/><g id="v"/><g id="w"/><g id="x"/><g id="y"/><g id="a`"/><g id="aa"/><g id="ab"/><g id="ac"/><g id="ad"/><g id="ae"/><g id="af"/><g id="ag"/><g id="ah"/><g id="ai"/><g id="aj"/><g id="ak"/><g id="al"/><g id="am"/><g id="an"/><g id="ao"/><g id="ap"/><g id="aq"/><g id="ar"/><g id="as"/><g id="at"/><g id="au"/><g id="av"/><g id="aw"/><g id="ax"/><g id="ay"/><g id="b`"/><g id="ba"/><g id="bb"/><g id="bc"/><g id="bd"/><g id="be"/><g id="bf"/><g id="bg"/><g id="bh"/><g id="bi"/><g id="bj"/><g id="bk"/><g id="bl"/><g id="bm"/><g id="bn"/><g id="bo"/><g id="bp"/><g id="bq"/><g id="br"/><g id="bs"/><g id="bt"/><g id="bu"/><g id="bv"/><g id="bw"/><g id="bx"/><g id="by"/><g id="c`"/><g id="ca"/><g id="cb"/><g id="cc"/><g id="cd"/><g id="ce"/><g id="cf"/><g id="cg"/><g id="ch"/><g id="ci"/><g id="cj"/><g id="ck"/><g id="cl"/><g id="cm"/><g id="cn"/><g id="co"/><g id="cp"/><g id="cq"/><g id="cr"/><g id="cs"/><g id="ct"/><g id="cu"/><g id="cv"/><g id="cw"/><g id="cx"/><g id="cy"/><g id="d`"/><g id="da"/><g id="db"/><g id="dc"/><g id="dd"/><g id="de"/><g id="df"/><g id="dg"/><g id="dh"/><g id="di"/><g id="dj"/><g id="dk"/><g id="dl"/><g id="dm"/><g id="dn"/><g id="do"/><g id="dp"/><g id="dq"/><g id="dr"/><g id="ds"/><g id="dt"/><g id="du"/><g id="dv"/><g id="dw"/><g id="dx"/><g id="dy"/><g id="e`"/><g id="ea"/><g id="eb"/><g id="ec"/><g id="ed"/><g id="ee"/><g id="ef"/><g id="eg"/><g id="eh"/><g id="ei"/><g id="ej"/><g id="ek"/><g id="el"/><g id="em"/><g id="en"/><g id="eo"/><g id="ep"/><g id="eq"/><g id="er"/><g id="es"/><g id="et"/><g id="eu"/><g id="ev"/><g id="ew"/><g id="ex"/><g id="ey"/><g id="f`"/><g id="fa"/><g id="fb"/><g id="fc"/><g id="fd"/><g id="fe"/><g id="ff"/><g id="fg"/><g id="fh"/><g id="fi"/><g id="fj"/><g id="fk"/><g id="fl"/><g id="fm"/><g id="fn"/><g id="fo"/><g id="fp"/><g id="fq"/><g id="fr"/><g id="fs"/><g id="ft"/><g id="fu"/><g id="fv"/><g id="fw"/><g id="fx"/><g id="fy"/><g id="g`"/><g id="ga"/><g id="gb"/><g id="gc"/><g id="gd"/><g id="ge"/><g id="gf"/><g id="gg"/><g id="gh"/><g id="gi"/><g id="gj"/><g id="gk"/><g id="gl"/><g id="gm"/><g id="gn"/><g id="go"/><g id="gp"/><g id="gq"/><g id="gr"/><g id="gs"/><g id="gt"/><g id="gu"/><g id="gv"/><g id="gw"/><g id="gx"/><g id="gy"><g style="clip-path:url(#h`);"><use width="291" height="291" transform="translate(110.5 168.5)" xlink:href="#a"/></g><line x1="128" y1="320" x2="384" y2="320" style="fill:none; stroke:#000; stroke-linecap:round; stroke-linejoin:round; stroke-width:18px;"/><path d="M220.83,402.96c5.47,0,9.89,1.61,13.25,4.82,3.41,3.26,5.11,7.58,5.11,12.96s-1.92,10.2-5.76,13.75c-3.84,3.5-8.88,5.25-15.12,5.25s-11.42-1.92-15.41-5.76c-4.75-4.51-7.13-11.4-7.13-20.66,0-8.73,1.91-15.49,5.72-20.27,3.82-4.77,9.35-7.16,16.6-7.16,5.04,0,9.23,1.14,12.56,3.42,3.33,2.28,5.58,5.51,6.73,9.68l-12.46,.72c-1.06-2.73-3.36-4.1-6.91-4.1-2.98,0-5.22,1-6.73,2.99s-2.44,5.24-2.77,9.75c2.88-3.6,6.98-5.4,12.31-5.4Zm-9.5,23.61c1.73,1.88,3.94,2.81,6.62,2.81s4.75-.82,6.19-2.45c1.44-1.68,2.16-3.67,2.16-5.98,0-2.45-.79-4.44-2.38-5.98s-3.62-2.3-6.12-2.3-4.51,.76-6.05,2.27c-1.54,1.51-2.38,3.56-2.52,6.16,.14,2.16,.84,3.98,2.09,5.47Z"/><path d="M266.26,423.34h-20.52v-9.94h20.52v9.94Z"/><path d="M309.1,391.95c4.8,4.51,7.2,11.38,7.2,20.59,0,8.74-1.91,15.49-5.72,20.27s-9.37,7.16-16.67,7.16c-5.04,0-9.23-1.14-12.56-3.42-3.34-2.28-5.55-5.48-6.66-9.61l12.38-.79c1.05,2.73,3.36,4.1,6.91,4.1,2.93,0,5.17-.99,6.73-2.98,1.56-1.99,2.51-5.22,2.84-9.69-2.98,3.55-7.11,5.33-12.38,5.33s-9.82-1.61-13.18-4.82c-3.41-3.26-5.11-7.56-5.11-12.89,0-5.62,1.92-10.2,5.76-13.75,3.79-3.5,8.81-5.26,15.05-5.26s11.42,1.92,15.41,5.76Zm-14.9,21.31c2.49,0,4.51-.77,6.05-2.3,1.54-1.54,2.38-3.6,2.52-6.19-.14-2.21-.84-4.01-2.09-5.4-1.63-1.87-3.84-2.81-6.62-2.81s-4.69,.78-6.16,2.34c-1.46,1.56-2.2,3.57-2.2,6.01s.78,4.52,2.34,6.05c1.56,1.54,3.61,2.3,6.16,2.3Z"/></g><g id="ha"/><g id="hb"/><g id="hc"/><g id="hd"/><g id="he"/><g id="hf"/><g id="hg"/><g id="hh"/><g id="hi"/><g id="hj"/><g id="hk"/><g id="hl"/><g id="hm"/><g id="hn"/><g id="ho"/><g id="hp"/><g id="hq"/><g id="hr"/><g id="hs"/><g id="ht"/><g id="hu"/><g id="hv"/><g id="hw"/><g id="hx"/><g id="hy"/><g id="i`"/><g id="ia"/><g id="ib"/><g id="ic"/><g id="id"/></svg>