<?xml version="1.0" encoding="UTF-8"?><svg xmlns="http://www.w3.org/2000/svg" xmlns:xlink="http://www.w3.org/1999/xlink" viewBox="0 0 512 512"><defs><style>.ii,.ij{fill:none;}.ik{clip-path:url(#e);}.ij{stroke:#000;stroke-linecap:round;stroke-linejoin:round;stroke-width:15px;}</style><symbol id="a" viewBox="0 0 359 231"><path d="M295.5,223.5c30.93,0,56-25.07,56-56s-25.07-56-56-56c-.85,0-1.68,.09-2.53,.13,1.59-6.46,2.53-13.18,2.53-20.13,0-46.39-37.61-84-84-84-30.2,0-56.6,15.99-71.4,39.92-8.38-4.99-18.13-7.92-28.6-7.92-30.93,0-56,25.07-56,56,0,3.1,.32,6.12,.8,9.08-27.78,5.25-48.8,29.61-48.8,58.92,0,33.14,26.86,60,60,60" style="fill:none; stroke:#000; stroke-linecap:round; stroke-linejoin:round; stroke-width:15px;"/></symbol><symbol id="b" viewBox="0 0 96 176"><polygon points="32 0 0 96 32 96 16 176 96 64 48 64 80 0 32 0"/></symbol><symbol id="c" viewBox="0 0 183 183"><path d="M166.12,112.9c-47.17,0-85.41-37.73-85.41-84.27,0-7.31,1.04-14.37,2.82-21.14C40.77,12.11,7.5,47.83,7.5,91.23c0,46.54,38.24,84.27,85.41,84.27,39.76,0,73.07-26.84,82.59-63.13-3.08,.33-6.21,.53-9.38,.53Z" style="fill:none; stroke:#000; stroke-linecap:round; stroke-linejoin:round; stroke-width:15px;"/></symbol><clipPath id="e"><path d="M0,0V286H54.5c3.19-28.52,21.38-53.43,47.73-65.07,3.1-39.63,36.35-70.93,76.76-70.93,7.37,0,14.64,1.05,21.69,3.14,17.88-20.18,42.51-32.5,69.31-34.76V0H0Z" style="fill:none;"/></clipPath><symbol id="d" viewBox="0 0 426.5 362.5"><g><use width="359" height="231" transform="translate(67.5 131.5)" xlink:href="#a"/><g style="clip-path:url(#e);"><use width="183" height="183" transform="translate(55.5 86.5)" xlink:href="#c"/></g></g></symbol><symbol id="f" viewBox="0 0 155.2 48"><g><path d="M41.17,30.54l-5.78-3.29c.52-2.16,.49-4.37-.01-6.48l5.79-3.3c1.94-1.1,2.6-3.55,1.48-5.46-1.12-1.91-3.59-2.57-5.54-1.46l-5.79,3.3c-.79-.74-1.66-1.4-2.64-1.96-.98-.56-2-.97-3.04-1.28V4c0-2.21-1.81-4-4.05-4s-4.05,1.79-4.05,4v6.6c-2.1,.62-4.06,1.71-5.69,3.23l-5.78-3.29c-1.94-1.11-4.42-.45-5.54,1.46-1.12,1.91-.46,4.36,1.48,5.46l5.78,3.29c-.52,2.16-.49,4.37,.01,6.48l-5.79,3.3c-1.94,1.1-2.6,3.55-1.48,5.46,.75,1.28,2.11,2,3.51,2,.69,0,1.38-.17,2.02-.54l5.79-3.3c.79,.74,1.66,1.4,2.64,1.96,.98,.56,2,.97,3.04,1.27v6.61c0,2.21,1.81,4,4.05,4s4.05-1.79,4.05-4v-6.61c2.1-.62,4.05-1.7,5.68-3.22l5.79,3.3c.64,.36,1.33,.54,2.02,.54,1.4,0,2.76-.72,3.51-2,1.12-1.91,.46-4.36-1.48-5.46Zm-22.61-1.34c-2.9-1.65-3.9-5.33-2.23-8.2,1.13-1.92,3.17-3,5.28-3,1.03,0,2.07,.26,3.03,.8,2.9,1.65,3.9,5.33,2.23,8.2-1.68,2.87-5.4,3.85-8.3,2.2Z"/><path d="M97.17,30.54l-5.78-3.29c.52-2.16,.49-4.37-.01-6.48l5.79-3.3c1.94-1.1,2.6-3.55,1.48-5.46-1.12-1.91-3.59-2.57-5.54-1.46l-5.79,3.3c-.79-.74-1.66-1.4-2.64-1.96-.98-.56-2-.97-3.04-1.28V4c0-2.21-1.81-4-4.05-4s-4.05,1.79-4.05,4v6.6c-2.1,.62-4.06,1.71-5.69,3.23l-5.78-3.29c-1.94-1.11-4.42-.45-5.54,1.46-1.12,1.91-.46,4.36,1.48,5.46l5.78,3.29c-.52,2.16-.49,4.37,.01,6.48l-5.79,3.3c-1.94,1.1-2.6,3.55-1.48,5.46,.75,1.28,2.11,2,3.51,2,.69,0,1.38-.17,2.02-.54l5.79-3.3c.79,.74,1.66,1.4,2.64,1.96,.98,.56,2,.97,3.04,1.27v6.61c0,2.21,1.81,4,4.05,4s4.05-1.79,4.05-4v-6.61c2.1-.62,4.05-1.7,5.68-3.22l5.79,3.3c.64,.36,1.33,.54,2.02,.54,1.4,0,2.76-.72,3.51-2,1.12-1.91,.46-4.36-1.48-5.46Zm-22.61-1.34c-2.9-1.65-3.9-5.33-2.23-8.2,1.13-1.92,3.17-3,5.28-3,1.03,0,2.07,.26,3.03,.8,2.9,1.65,3.9,5.33,2.23,8.2-1.68,2.87-5.4,3.85-8.3,2.2Z"/><path d="M153.17,30.54l-5.78-3.29c.52-2.16,.49-4.37-.01-6.48l5.79-3.3c1.94-1.1,2.6-3.55,1.48-5.46-1.12-1.91-3.59-2.57-5.54-1.46l-5.79,3.3c-.79-.74-1.66-1.4-2.64-1.96-.98-.56-2-.97-3.04-1.28V4c0-2.21-1.81-4-4.05-4s-4.05,1.79-4.05,4v6.6c-2.1,.62-4.06,1.71-5.69,3.23l-5.78-3.29c-1.94-1.11-4.42-.45-5.54,1.46-1.12,1.91-.46,4.36,1.48,5.46l5.78,3.29c-.52,2.16-.49,4.37,.01,6.48l-5.79,3.3c-1.94,1.1-2.6,3.55-1.48,5.46,.75,1.28,2.11,2,3.51,2,.69,0,1.38-.17,2.02-.54l5.79-3.3c.79,.74,1.66,1.4,2.64,1.96,.98,.56,2,.97,3.04,1.27v6.61c0,2.21,1.81,4,4.05,4s4.05-1.79,4.05-4v-6.61c2.1-.62,4.05-1.7,5.68-3.22l5.79,3.3c.64,.36,1.33,.54,2.02,.54,1.4,0,2.76-.72,3.51-2,1.12-1.91,.46-4.36-1.48-5.46Zm-22.61-1.34c-2.9-1.65-3.9-5.33-2.23-8.2,1.13-1.92,3.17-3,5.28-3,1.03,0,2.07,.26,3.03,.8,2.9,1.65,3.9,5.33,2.23,8.2-1.68,2.87-5.4,3.85-8.3,2.2Z"/></g></symbol></defs><g id="g"/><g id="h"/><g id="i"/><g id="j"/><g id="k"/><g id="l"/><g id="m"/><g id="n"/><g id="o"/><g id="p"/><g id="q"/><g id="r"/><g id="s"/><g id="t"/><g id="u"/><g id="v"/><g id="w"/><g id="x"/><g id="y"/><g id="a`"/><g id="aa"/><g id="ab"/><g id="ac"/><g id="ad"/><g id="ae"/><g id="af"/><g id="ag"/><g id="ah"/><g id="ai"/><g id="aj"/><g id="ak"/><g id="al"/><g id="am"/><g id="an"/><g id="ao"/><g id="ap"/><g id="aq"/><g id="ar"/><g id="as"/><g id="at"/><g id="au"/><g id="av"/><g id="aw"/><g id="ax"/><g id="ay"/><g id="b`"/><g id="ba"/><g id="bb"/><g id="bc"/><g id="bd"/><g id="be"/><g id="bf"/><g id="bg"/><g id="bh"/><g id="bi"/><g id="bj"/><g id="bk"/><g id="bl"/><g id="bm"/><g id="bn"/><g id="bo"/><g id="bp"/><g id="bq"/><g id="br"/><g id="bs"/><g id="bt"/><g id="bu"/><g id="bv"/><g id="bw"/><g id="bx"/><g id="by"/><g id="c`"/><g id="ca"/><g id="cb"/><g id="cc"/><g id="cd"/><g id="ce"/><g id="cf"/><g id="cg"/><g id="ch"/><g id="ci"/><g id="cj"/><g id="ck"/><g id="cl"/><g id="cm"/><g id="cn"/><g id="co"/><g id="cp"/><g id="cq"/><g id="cr"/><g id="cs"/><g id="ct"/><g id="cu"/><g id="cv"/><g id="cw"/><g id="cx"/><g id="cy"/><g id="d`"/><g id="da"/><g id="db"/><g id="dc"/><g id="dd"/><g id="de"/><g id="df"><use width="426.5" height="362.5" transform="translate(9 9)" xlink:href="#d"/><use width="155.2" height="48" transform="translate(178.4 338)" xlink:href="#f"/><use width="96" height="176" transform="translate(208 293)" xlink:href="#b"/></g><g id="dg"/><g id="dh"/><g id="di"/><g id="dj"/><g id="dk"/><g id="dl"/><g id="dm"/><g id="dn"/><g id="do"/><g id="dp"/><g id="dq"/><g id="dr"/><g id="ds"/><g id="dt"/><g id="du"/><g id="dv"/><g id="dw"/><g id="dx"/><g id="dy"/><g id="e`"/><g id="ea"/><g id="eb"/><g id="ec"/><g id="ed"/><g id="ee"/><g id="ef"/><g id="eg"/><g id="eh"/><g id="ei"/><g id="ej"/><g id="ek"/><g id="el"/><g id="em"/><g id="en"/><g id="eo"/><g id="ep"/><g id="eq"/><g id="er"/><g id="es"/><g id="et"/><g id="eu"/><g id="ev"/><g id="ew"/><g id="ex"/><g id="ey"/><g id="f`"/><g id="fa"/><g id="fb"/><g id="fc"/><g id="fd"/><g id="fe"/><g id="ff"/><g id="fg"/><g id="fh"/><g id="fi"/><g id="fj"/><g id="fk"/><g id="fl"/><g id="fm"/><g id="fn"/><g id="fo"/><g id="fp"/><g id="fq"/><g id="fr"/><g id="fs"/><g id="ft"/><g id="fu"/><g id="fv"/><g id="fw"/><g id="fx"/><g id="fy"/><g id="g`"/><g id="ga"/><g id="gb"/><g id="gc"/><g id="gd"/><g id="ge"/><g id="gf"/><g id="gg"/><g id="gh"/><g id="gi"/><g id="gj"/><g id="gk"/><g id="gl"/><g id="gm"/><g id="gn"/><g id="go"/><g id="gp"/><g id="gq"/><g id="gr"/><g id="gs"/><g id="gt"/><g id="gu"/><g id="gv"/><g id="gw"/><g id="gx"/><g id="gy"/><g id="h`"/><g id="ha"/><g id="hb"/><g id="hc"/><g id="hd"/><g id="he"/><g id="hf"/><g id="hg"/><g id="hh"/><g id="hi"/><g id="hj"/><g id="hk"/><g id="hl"/><g id="hm"/><g id="hn"/><g id="ho"/><g id="hp"/><g id="hq"/><g id="hr"/><g id="hs"/><g id="ht"/><g id="hu"/><g id="hv"/><g id="hw"/><g id="hx"/><g id="hy"/><g id="i`"/><g id="ia"/><g id="ib"/><g id="ic"/><g id="id"/><g id="ie"/><g id="if"/><g id="ig"/><g id="ih"/></svg>