<svg xmlns="http://www.w3.org/2000/svg" xmlns:xlink="http://www.w3.org/1999/xlink" viewBox="0 0 64 64"><defs><clipPath id="a"><path d="M47.5,45.71a4,4,0,0,1-4-4.06,4.07,4.07,0,0,1,1.71-3.32V28.61H13.12v17.1Z" fill="none"/></clipPath></defs><g clip-path="url(#a)"><path d="M47,34.33H46c-1.36,0-2.61-1.46-3.25-2.67a.28.28,0,0,0-.5,0c-.64,1.21-1.89,2.67-3.25,2.67s-2.61-1.46-3.25-2.67a.28.28,0,0,0-.5,0c-.64,1.21-1.89,2.67-3.25,2.67s-2.61-1.46-3.25-2.67a.28.28,0,0,0-.5,0c-.64,1.21-1.89,2.67-3.25,2.67s-2.61-1.46-3.25-2.67a.28.28,0,0,0-.5,0c-.64,1.21-1.89,2.67-3.25,2.67H17v6.13a2,2,0,0,0,2,2H45a2,2,0,0,0,2-2Z"/></g><circle cx="47.5" cy="41.71" r="2.57"/><path d="M47.5,33.14v8.57" fill="none" stroke="#000" stroke-linecap="round" stroke-miterlimit="10" stroke-width="2"/><path d="M51.5,41.65a4,4,0,1,1-8,0,4.07,4.07,0,0,1,1.71-3.32V28.61a2.29,2.29,0,1,1,4.58,0v9.72A4.07,4.07,0,0,1,51.5,41.65ZM47.79,32h2m-2-2.29h2m-2,4.58h2" fill="none" stroke="#000" stroke-linecap="round" stroke-linejoin="round"/></svg>