<?xml version="1.0" encoding="UTF-8"?><svg xmlns="http://www.w3.org/2000/svg" xmlns:xlink="http://www.w3.org/1999/xlink" viewBox="0 0 512 512"><defs><style>.ie,.if,.ig{fill:none;}.if{stroke-linecap:round;}.if,.ig{stroke:#000;stroke-miterlimit:10;stroke-width:15px;}.ih{clip-path:url(#gn);}</style><symbol id="a" viewBox="0 0 375 375"><g><circle cx="187.5" cy="187.5" r="84" style="fill:none; stroke:#000; stroke-miterlimit:10; stroke-width:15px;"/><path d="M187.5,57.16V7.5m0,360v-49.66m92.17-222.51l35.11-35.11M60.22,314.78l35.11-35.11m0-184.34L60.22,60.22m254.56,254.56l-35.11-35.11M57.16,187.5H7.5m360,0h-49.66" style="fill:none; stroke:#000; stroke-linecap:round; stroke-miterlimit:10; stroke-width:15px;"/></g></symbol><clipPath id="gn"><path d="M64,64H448V256h-120.01c-39.76,0-71.99,32.23-71.99,71.99v120.01H64V64Z" style="fill:none;"/></clipPath></defs><g id="b"/><g id="c"/><g id="d"/><g id="e"/><g id="f"/><g id="g"/><g id="h"/><g id="i"/><g id="j"/><g id="k"/><g id="l"/><g id="m"/><g id="n"/><g id="o"/><g id="p"/><g id="q"/><g id="r"/><g id="s"/><g id="t"/><g id="u"/><g id="v"/><g id="w"/><g id="x"/><g id="y"/><g id="a`"/><g id="aa"/><g id="ab"/><g id="ac"/><g id="ad"/><g id="ae"/><g id="af"/><g id="ag"/><g id="ah"/><g id="ai"/><g id="aj"/><g id="ak"/><g id="al"/><g id="am"/><g id="an"/><g id="ao"/><g id="ap"/><g id="aq"/><g id="ar"/><g id="as"/><g id="at"/><g id="au"/><g id="av"/><g id="aw"/><g id="ax"/><g id="ay"/><g id="b`"/><g id="ba"/><g id="bb"/><g id="bc"/><g id="bd"/><g id="be"/><g id="bf"/><g id="bg"/><g id="bh"/><g id="bi"/><g id="bj"/><g id="bk"/><g id="bl"/><g id="bm"/><g id="bn"/><g id="bo"/><g id="bp"/><g id="bq"/><g id="br"/><g id="bs"/><g id="bt"/><g id="bu"/><g id="bv"/><g id="bw"/><g id="bx"/><g id="by"/><g id="c`"/><g id="ca"/><g id="cb"/><g id="cc"/><g id="cd"/><g id="ce"/><g id="cf"/><g id="cg"/><g id="ch"/><g id="ci"/><g id="cj"/><g id="ck"/><g id="cl"/><g id="cm"/><g id="cn"/><g id="co"/><g id="cp"/><g id="cq"/><g id="cr"/><g id="cs"/><g id="ct"/><g id="cu"/><g id="cv"/><g id="cw"/><g id="cx"/><g id="cy"/><g id="d`"/><g id="da"/><g id="db"/><g id="dc"/><g id="dd"/><g id="de"/><g id="df"/><g id="dg"/><g id="dh"/><g id="di"/><g id="dj"/><g id="dk"/><g id="dl"/><g id="dm"/><g id="dn"/><g id="do"/><g id="dp"/><g id="dq"/><g id="dr"/><g id="ds"/><g id="dt"/><g id="du"/><g id="dv"/><g id="dw"/><g id="dx"/><g id="dy"/><g id="e`"/><g id="ea"/><g id="eb"/><g id="ec"/><g id="ed"/><g id="ee"/><g id="ef"/><g id="eg"/><g id="eh"/><g id="ei"/><g id="ej"/><g id="ek"/><g id="el"/><g id="em"/><g id="en"/><g id="eo"/><g id="ep"/><g id="eq"/><g id="er"/><g id="es"/><g id="et"/><g id="eu"/><g id="ev"/><g id="ew"/><g id="ex"/><g id="ey"/><g id="f`"/><g id="fa"/><g id="fb"/><g id="fc"/><g id="fd"/><g id="fe"/><g id="ff"/><g id="fg"/><g id="fh"/><g id="fi"/><g id="fj"/><g id="fk"/><g id="fl"/><g id="fm"/><g id="fn"/><g id="fo"/><g id="fp"/><g id="fq"/><g id="fr"/><g id="fs"/><g id="ft"/><g id="fu"/><g id="fv"/><g id="fw"/><g id="fx"/><g id="fy"/><g id="g`"/><g id="ga"/><g id="gb"/><g id="gc"/><g id="gd"/><g id="ge"/><g id="gf"/><g id="gg"/><g id="gh"/><g id="gi"/><g id="gj"/><g id="gk"/><g id="gl"/><g id="gm"><g style="clip-path:url(#gn);"><use width="375" height="375" transform="translate(68.5 68.5)" xlink:href="#a"/><path d="M254,338v-10.02c0-40.86,33.12-73.98,73.98-73.98h10.02" style="fill:none; stroke:#000; stroke-miterlimit:10; stroke-width:15px;"/></g><g><path d="M337.71,388c-9.6,0-16.98-2.25-22.14-6.76-5.16-4.51-7.74-10.97-7.74-19.4v-45.85h18.32v45.94c0,7.38,3.88,11.07,11.66,11.07s11.56-3.69,11.56-11.07v-45.94h18.32v45.85c0,8.49-2.58,14.97-7.74,19.45-5.16,4.47-12.57,6.71-22.24,6.71Z"/><path d="M413.43,344.51l8.13-28.51h18.61l-22.53,69.75h-19.4l-22.53-69.75h18.81l8.23,28.41,5.39,21.94,5.29-21.85Z"/></g></g><g id="go"/><g id="gp"/><g id="gq"/><g id="gr"/><g id="gs"/><g id="gt"/><g id="gu"/><g id="gv"/><g id="gw"/><g id="gx"/><g id="gy"/><g id="h`"/><g id="ha"/><g id="hb"/><g id="hc"/><g id="hd"/><g id="he"/><g id="hf"/><g id="hg"/><g id="hh"/><g id="hi"/><g id="hj"/><g id="hk"/><g id="hl"/><g id="hm"/><g id="hn"/><g id="ho"/><g id="hp"/><g id="hq"/><g id="hr"/><g id="hs"/><g id="ht"/><g id="hu"/><g id="hv"/><g id="hw"/><g id="hx"/><g id="hy"/><g id="i`"/><g id="ia"/><g id="ib"/><g id="ic"/><g id="id"/></svg>