<?xml version="1.0" encoding="UTF-8"?><svg xmlns="http://www.w3.org/2000/svg" xmlns:xlink="http://www.w3.org/1999/xlink" viewBox="0 0 512 512"><defs><style>.ie,.if,.ig,.ih{fill:none;}.if{stroke-width:12px;}.if,.ig{stroke-linecap:round;}.if,.ig,.ih{stroke:#000;}.if,.ih{stroke-miterlimit:10;}.ig{stroke-linejoin:round;}.ig,.ih{stroke-width:9px;}.ii{clip-path:url(#ho);}</style><symbol id="a" viewBox="0 0 138 96"><g><path d="M105.23,10.78c2.83-2.94,6.81-4.78,11.22-4.78,8.59,0,15.56,6.96,15.56,15.56s-6.96,15.56-15.56,15.56H6" style="fill:none; stroke:#000; stroke-linecap:round; stroke-miterlimit:10; stroke-width:12px;"/><path d="M60.67,85.22c2.83,2.94,6.81,4.78,11.22,4.78,8.59,0,15.56-6.96,15.56-15.56s-6.96-15.56-15.56-15.56H6.56" style="fill:none; stroke:#000; stroke-linecap:round; stroke-miterlimit:10; stroke-width:12px;"/></g></symbol><clipPath id="ho"><polygon points="245.68 256.95 74.85 256.95 74.85 396.5 185.68 396.5 212.91 343.55 245.65 306.78 245.68 256.95" style="fill:none;"/></clipPath></defs><g id="b"/><g id="c"/><g id="d"/><g id="e"/><g id="f"/><g id="g"/><g id="h"/><g id="i"/><g id="j"/><g id="k"/><g id="l"/><g id="m"/><g id="n"/><g id="o"/><g id="p"/><g id="q"/><g id="r"/><g id="s"/><g id="t"/><g id="u"/><g id="v"/><g id="w"/><g id="x"/><g id="y"/><g id="a`"/><g id="aa"/><g id="ab"/><g id="ac"/><g id="ad"/><g id="ae"/><g id="af"/><g id="ag"/><g id="ah"/><g id="ai"/><g id="aj"/><g id="ak"/><g id="al"/><g id="am"/><g id="an"/><g id="ao"/><g id="ap"/><g id="aq"/><g id="ar"/><g id="as"/><g id="at"/><g id="au"/><g id="av"/><g id="aw"/><g id="ax"/><g id="ay"/><g id="b`"/><g id="ba"/><g id="bb"/><g id="bc"/><g id="bd"/><g id="be"/><g id="bf"/><g id="bg"/><g id="bh"/><g id="bi"/><g id="bj"/><g id="bk"/><g id="bl"/><g id="bm"/><g id="bn"/><g id="bo"/><g id="bp"/><g id="bq"/><g id="br"/><g id="bs"/><g id="bt"/><g id="bu"/><g id="bv"/><g id="bw"/><g id="bx"/><g id="by"/><g id="c`"/><g id="ca"/><g id="cb"/><g id="cc"/><g id="cd"/><g id="ce"/><g id="cf"/><g id="cg"/><g id="ch"/><g id="ci"/><g id="cj"/><g id="ck"/><g id="cl"/><g id="cm"/><g id="cn"/><g id="co"/><g id="cp"/><g id="cq"/><g id="cr"/><g id="cs"/><g id="ct"/><g id="cu"/><g id="cv"/><g id="cw"/><g id="cx"/><g id="cy"/><g id="d`"/><g id="da"/><g id="db"/><g id="dc"/><g id="dd"/><g id="de"/><g id="df"/><g id="dg"/><g id="dh"/><g id="di"/><g id="dj"/><g id="dk"/><g id="dl"/><g id="dm"/><g id="dn"/><g id="do"/><g id="dp"/><g id="dq"/><g id="dr"/><g id="ds"/><g id="dt"/><g id="du"/><g id="dv"/><g id="dw"/><g id="dx"/><g id="dy"/><g id="e`"/><g id="ea"/><g id="eb"/><g id="ec"/><g id="ed"/><g id="ee"/><g id="ef"/><g id="eg"/><g id="eh"/><g id="ei"/><g id="ej"/><g id="ek"/><g id="el"/><g id="em"/><g id="en"/><g id="eo"/><g id="ep"/><g id="eq"/><g id="er"/><g id="es"/><g id="et"/><g id="eu"/><g id="ev"/><g id="ew"/><g id="ex"/><g id="ey"/><g id="f`"/><g id="fa"/><g id="fb"/><g id="fc"/><g id="fd"/><g id="fe"/><g id="ff"/><g id="fg"/><g id="fh"/><g id="fi"/><g id="fj"/><g id="fk"/><g id="fl"/><g id="fm"/><g id="fn"/><g id="fo"/><g id="fp"/><g id="fq"/><g id="fr"/><g id="fs"/><g id="ft"/><g id="fu"/><g id="fv"/><g id="fw"/><g id="fx"/><g id="fy"/><g id="g`"/><g id="ga"/><g id="gb"/><g id="gc"/><g id="gd"/><g id="ge"/><g id="gf"/><g id="gg"/><g id="gh"/><g id="gi"/><g id="gj"/><g id="gk"/><g id="gl"/><g id="gm"/><g id="gn"/><g id="go"/><g id="gp"/><g id="gq"/><g id="gr"/><g id="gs"/><g id="gt"/><g id="gu"/><g id="gv"/><g id="gw"/><g id="gx"/><g id="gy"/><g id="h`"/><g id="ha"/><g id="hb"/><g id="hc"/><g id="hd"/><g id="he"/><g id="hf"/><g id="hg"/><g id="hh"/><g id="hi"/><g id="hj"/><g id="hk"/><g id="hl"/><g id="hm"/><g id="hn"><g style="clip-path:url(#ho);"><path d="M245.68,309.62c-13.79,0-26.33-14.73-32.81-27.02-1.1-2.1-4.02-2.1-5.12,0-6.47,12.29-19.01,27.02-32.81,27.02s-26.33-14.73-32.81-27.02c-1.1-2.1-4.02-2.1-5.12,0-6.47,12.29-19.01,27.02-32.81,27.02h-10.11v61.97c0,11.37,9.03,20.59,20.16,20.59H245.68v-82.57Z" style="fill:none; stroke:#000; stroke-linecap:round; stroke-linejoin:round; stroke-width:9px;"/></g><g><path d="M378.48,160.55c.55-5.72-.42-10.41-2.17-10.59l-1.39-.15c-1.76-.18-3.67,4.2-4.33,9.91l-12.83,111.7c-.69,5.97,.27,11.06,2.1,11.26l3.55,.37c1.84,.19,3.83-4.6,4.4-10.57l10.67-111.92Z"/><path d="M427.78,167.4c2.47-23.51-15.77-44.69-40.75-47.32-16.82-1.77-32.38,5.36-41.52,17.36-.74-.12-1.42-.36-2.17-.44-18.73-1.97-35.42,10.73-37.27,28.36-1.53,14.54,7.58,27.76,21.3,33.1-1.48,2.48-2.47,5.27-2.79,8.29-1.24,11.75,7.89,22.35,20.38,23.66,5.69,.6,11.04-.91,15.35-3.75,5.42,8.15,14.48,14.06,25.36,15.2,18.73,1.97,35.42-10.73,37.27-28.36,.86-8.14-1.71-15.84-6.45-22.04,6.16-6.45,10.31-14.73,11.29-24.07Z"/></g><path d="M402.31,369.75v-66.3c0-12.38-8.87-22.42-19.81-22.42h-62.58c-27.05,0-52.83,9.47-74.24,26.26-17.55,13.76-32.18,32.43-42.16,54.82l-13.41,30.08h192.39c10.95,0,19.82-10.04,19.82-22.43Z" style="fill:none; stroke:#000; stroke-miterlimit:10; stroke-width:9px;"/><use width="138" height="96" transform="translate(99 146)" xlink:href="#a"/></g><g id="hp"/><g id="hq"/><g id="hr"/><g id="hs"/><g id="ht"/><g id="hu"/><g id="hv"/><g id="hw"/><g id="hx"/><g id="hy"/><g id="i`"/><g id="ia"/><g id="ib"/><g id="ic"/><g id="id"/></svg>