<?xml version="1.0" encoding="UTF-8"?><svg xmlns="http://www.w3.org/2000/svg" xmlns:xlink="http://www.w3.org/1999/xlink" viewBox="0 0 512 512"><defs><style>.id{fill:none;stroke:#000;stroke-linecap:round;stroke-miterlimit:10;stroke-width:18px;}</style><symbol id="a" viewBox="0 0 342 234"><g><path d="M264.16,21.29c7.28-7.57,17.51-12.29,28.84-12.29,22.09,0,40,17.91,40,40s-17.91,40-40,40H9" style="fill:none; stroke:#000; stroke-linecap:round; stroke-miterlimit:10; stroke-width:18px;"/><path d="M148.16,212.71c7.28,7.57,17.51,12.29,28.84,12.29,22.09,0,40-17.91,40-40s-17.91-40-40-40H9" style="fill:none; stroke:#000; stroke-linecap:round; stroke-miterlimit:10; stroke-width:18px;"/></g></symbol></defs><g id="b"/><g id="c"/><g id="d"/><g id="e"/><g id="f"/><g id="g"/><g id="h"/><g id="i"/><g id="j"/><g id="k"/><g id="l"/><g id="m"/><g id="n"/><g id="o"/><g id="p"/><g id="q"/><g id="r"/><g id="s"/><g id="t"/><g id="u"/><g id="v"/><g id="w"/><g id="x"/><g id="y"/><g id="a`"/><g id="aa"/><g id="ab"/><g id="ac"/><g id="ad"/><g id="ae"/><g id="af"/><g id="ag"/><g id="ah"/><g id="ai"/><g id="aj"/><g id="ak"/><g id="al"/><g id="am"/><g id="an"/><g id="ao"/><g id="ap"/><g id="aq"/><g id="ar"/><g id="as"/><g id="at"/><g id="au"/><g id="av"/><g id="aw"/><g id="ax"/><g id="ay"/><g id="b`"/><g id="ba"/><g id="bb"/><g id="bc"/><g id="bd"/><g id="be"/><g id="bf"/><g id="bg"/><g id="bh"/><g id="bi"/><g id="bj"/><g id="bk"/><g id="bl"/><g id="bm"/><g id="bn"/><g id="bo"/><g id="bp"/><g id="bq"/><g id="br"/><g id="bs"/><g id="bt"/><g id="bu"/><g id="bv"/><g id="bw"/><g id="bx"/><g id="by"/><g id="c`"/><g id="ca"/><g id="cb"/><g id="cc"/><g id="cd"/><g id="ce"/><g id="cf"/><g id="cg"/><g id="ch"/><g id="ci"/><g id="cj"/><g id="ck"/><g id="cl"/><g id="cm"/><g id="cn"/><g id="co"/><g id="cp"/><g id="cq"/><g id="cr"/><g id="cs"/><g id="ct"/><g id="cu"/><g id="cv"/><g id="cw"/><g id="cx"/><g id="cy"/><g id="d`"/><g id="da"/><g id="db"/><g id="dc"/><g id="dd"/><g id="de"/><g id="df"/><g id="dg"/><g id="dh"/><g id="di"/><g id="dj"/><g id="dk"/><g id="dl"/><g id="dm"/><g id="dn"/><g id="do"/><g id="dp"/><g id="dq"/><g id="dr"/><g id="ds"/><g id="dt"/><g id="du"/><g id="dv"/><g id="dw"/><g id="dx"/><g id="dy"/><g id="e`"/><g id="ea"/><g id="eb"/><g id="ec"/><g id="ed"/><g id="ee"/><g id="ef"/><g id="eg"/><g id="eh"/><g id="ei"/><g id="ej"/><g id="ek"/><g id="el"/><g id="em"/><g id="en"/><g id="eo"/><g id="ep"/><g id="eq"/><g id="er"/><g id="es"/><g id="et"/><g id="eu"/><g id="ev"/><g id="ew"/><g id="ex"/><g id="ey"/><g id="f`"/><g id="fa"/><g id="fb"/><g id="fc"/><g id="fd"/><g id="fe"/><g id="ff"/><g id="fg"/><g id="fh"/><g id="fi"/><g id="fj"/><g id="fk"/><g id="fl"/><g id="fm"/><g id="fn"/><g id="fo"/><g id="fp"/><g id="fq"/><g id="fr"/><g id="fs"/><g id="ft"/><g id="fu"/><g id="fv"/><g id="fw"/><g id="fx"/><g id="fy"/><g id="g`"/><g id="ga"/><g id="gb"/><g id="gc"/><g id="gd"/><g id="ge"/><g id="gf"/><g id="gg"/><g id="gh"/><g id="gi"/><g id="gj"/><g id="gk"/><g id="gl"><use width="342" height="234" transform="translate(85 139)" xlink:href="#a"/><path d="M249.55,180.67l-5.77-3.36c.52-2.2,.49-4.46-.01-6.61l5.79-3.37c1.94-1.13,2.6-3.62,1.48-5.58-1.12-1.95-3.59-2.62-5.53-1.49l-5.78,3.37c-.79-.75-1.66-1.43-2.64-2-.98-.57-2-.99-3.04-1.31v-6.73c0-2.25-1.81-4.08-4.05-4.08s-4.05,1.83-4.05,4.08v6.74c-2.1,.63-4.05,1.74-5.68,3.29l-5.77-3.36c-1.94-1.13-4.41-.46-5.53,1.49-1.12,1.95-.45,4.45,1.48,5.58l5.77,3.36c-.52,2.2-.49,4.46,.01,6.61l-5.79,3.37c-1.94,1.13-2.6,3.62-1.48,5.58,.75,1.31,2.11,2.04,3.51,2.04,.69,0,1.38-.18,2.02-.55l5.78-3.37c.79,.75,1.66,1.43,2.64,2,.98,.57,2,.98,3.04,1.3v6.74c0,2.25,1.81,4.08,4.05,4.08s4.05-1.83,4.05-4.08v-6.75c2.09-.63,4.04-1.74,5.67-3.29l5.78,3.37c.64,.37,1.33,.55,2.02,.55,1.4,0,2.76-.73,3.51-2.04,1.12-1.95,.45-4.45-1.48-5.58Zm-22.58-1.37c-2.9-1.69-3.9-5.44-2.22-8.36,1.12-1.96,3.17-3.06,5.27-3.06,1.03,0,2.07,.26,3.02,.82,2.9,1.69,3.9,5.44,2.22,8.36-1.67,2.92-5.39,3.92-8.29,2.24Z"/><path d="M393.55,282.67l-5.77-3.36c.52-2.2,.49-4.46-.01-6.61l5.79-3.37c1.94-1.13,2.6-3.62,1.48-5.58-1.12-1.95-3.59-2.62-5.53-1.49l-5.78,3.37c-.79-.75-1.66-1.43-2.64-2-.98-.57-2-.99-3.04-1.31v-6.73c0-2.25-1.81-4.08-4.05-4.08s-4.05,1.83-4.05,4.08v6.74c-2.1,.63-4.05,1.74-5.68,3.29l-5.77-3.36c-1.94-1.13-4.41-.46-5.53,1.49-1.12,1.95-.45,4.45,1.48,5.58l5.77,3.36c-.52,2.2-.49,4.46,.01,6.61l-5.79,3.37c-1.94,1.13-2.6,3.62-1.48,5.58,.75,1.31,2.11,2.04,3.51,2.04,.69,0,1.38-.18,2.02-.55l5.78-3.37c.79,.75,1.66,1.43,2.64,2,.98,.57,2,.98,3.04,1.3v6.74c0,2.25,1.81,4.08,4.05,4.08s4.05-1.83,4.05-4.08v-6.75c2.09-.63,4.04-1.74,5.67-3.29l5.78,3.37c.64,.37,1.33,.55,2.02,.55,1.4,0,2.76-.73,3.51-2.04,1.12-1.95,.45-4.45-1.48-5.58Zm-22.58-1.37c-2.9-1.69-3.9-5.44-2.22-8.36,1.12-1.96,3.17-3.06,5.27-3.06,1.03,0,2.07,.26,3.02,.82,2.9,1.69,3.9,5.44,2.22,8.36-1.67,2.92-5.39,3.92-8.29,2.24Z"/><path d="M163.55,340.67l-5.77-3.36c.52-2.2,.49-4.46-.01-6.61l5.79-3.37c1.94-1.13,2.6-3.62,1.48-5.58-1.12-1.95-3.59-2.62-5.53-1.49l-5.78,3.37c-.79-.75-1.66-1.43-2.64-2-.98-.57-2-.99-3.04-1.31v-6.73c0-2.25-1.81-4.08-4.05-4.08s-4.05,1.83-4.05,4.08v6.74c-2.1,.63-4.05,1.74-5.68,3.29l-5.77-3.36c-1.94-1.13-4.41-.46-5.53,1.49-1.12,1.95-.45,4.45,1.48,5.58l5.77,3.36c-.52,2.2-.49,4.46,.01,6.61l-5.79,3.37c-1.94,1.13-2.6,3.62-1.48,5.58,.75,1.31,2.11,2.04,3.51,2.04,.69,0,1.38-.18,2.02-.55l5.78-3.37c.79,.75,1.66,1.43,2.64,2,.98,.57,2,.98,3.04,1.3v6.74c0,2.25,1.81,4.08,4.05,4.08s4.05-1.83,4.05-4.08v-6.75c2.09-.63,4.04-1.74,5.67-3.29l5.78,3.37c.64,.37,1.33,.55,2.02,.55,1.4,0,2.76-.73,3.51-2.04,1.12-1.95,.45-4.45-1.48-5.58Zm-22.58-1.37c-2.9-1.69-3.9-5.44-2.22-8.36,1.12-1.96,3.17-3.06,5.27-3.06,1.03,0,2.07,.26,3.02,.82,2.9,1.69,3.9,5.44,2.22,8.36-1.67,2.92-5.39,3.92-8.29,2.24Z"/></g><g id="gm"/><g id="gn"/><g id="go"/><g id="gp"/><g id="gq"/><g id="gr"/><g id="gs"/><g id="gt"/><g id="gu"/><g id="gv"/><g id="gw"/><g id="gx"/><g id="gy"/><g id="h`"/><g id="ha"/><g id="hb"/><g id="hc"/><g id="hd"/><g id="he"/><g id="hf"/><g id="hg"/><g id="hh"/><g id="hi"/><g id="hj"/><g id="hk"/><g id="hl"/><g id="hm"/><g id="hn"/><g id="ho"/><g id="hp"/><g id="hq"/><g id="hr"/><g id="hs"/><g id="ht"/><g id="hu"/><g id="hv"/><g id="hw"/><g id="hx"/><g id="hy"/><g id="i`"/><g id="ia"/><g id="ib"/><g id="ic"/></svg>