<?xml version="1.0" encoding="UTF-8"?><svg xmlns="http://www.w3.org/2000/svg" xmlns:xlink="http://www.w3.org/1999/xlink" viewBox="0 0 512 512"><defs><style>.id{fill:none;stroke:#000;stroke-linecap:round;stroke-miterlimit:10;stroke-width:18px;}</style><symbol id="a" viewBox="0 0 342 234"><g><path d="M264.16,21.29c7.28-7.57,17.51-12.29,28.84-12.29,22.09,0,40,17.91,40,40s-17.91,40-40,40H9" style="fill:none; stroke:#000; stroke-linecap:round; stroke-miterlimit:10; stroke-width:18px;"/><path d="M148.16,212.71c7.28,7.57,17.51,12.29,28.84,12.29,22.09,0,40-17.91,40-40s-17.91-40-40-40H9" style="fill:none; stroke:#000; stroke-linecap:round; stroke-miterlimit:10; stroke-width:18px;"/></g></symbol></defs><g id="b"/><g id="c"/><g id="d"/><g id="e"/><g id="f"/><g id="g"/><g id="h"/><g id="i"/><g id="j"/><g id="k"/><g id="l"/><g id="m"/><g id="n"/><g id="o"/><g id="p"/><g id="q"/><g id="r"/><g id="s"/><g id="t"/><g id="u"/><g id="v"/><g id="w"/><g id="x"/><g id="y"/><g id="a`"/><g id="aa"/><g id="ab"/><g id="ac"/><g id="ad"/><g id="ae"/><g id="af"/><g id="ag"/><g id="ah"/><g id="ai"/><g id="aj"/><g id="ak"/><g id="al"/><g id="am"/><g id="an"/><g id="ao"/><g id="ap"/><g id="aq"/><g id="ar"/><g id="as"/><g id="at"/><g id="au"/><g id="av"/><g id="aw"/><g id="ax"/><g id="ay"/><g id="b`"/><g id="ba"/><g id="bb"/><g id="bc"/><g id="bd"/><g id="be"/><g id="bf"/><g id="bg"/><g id="bh"/><g id="bi"/><g id="bj"/><g id="bk"/><g id="bl"/><g id="bm"/><g id="bn"/><g id="bo"/><g id="bp"/><g id="bq"/><g id="br"/><g id="bs"/><g id="bt"/><g id="bu"/><g id="bv"/><g id="bw"/><g id="bx"/><g id="by"/><g id="c`"/><g id="ca"/><g id="cb"/><g id="cc"/><g id="cd"/><g id="ce"/><g id="cf"/><g id="cg"/><g id="ch"/><g id="ci"/><g id="cj"/><g id="ck"/><g id="cl"/><g id="cm"/><g id="cn"/><g id="co"/><g id="cp"/><g id="cq"/><g id="cr"/><g id="cs"/><g id="ct"/><g id="cu"/><g id="cv"/><g id="cw"/><g id="cx"/><g id="cy"/><g id="d`"/><g id="da"/><g id="db"/><g id="dc"/><g id="dd"/><g id="de"/><g id="df"/><g id="dg"/><g id="dh"/><g id="di"/><g id="dj"/><g id="dk"/><g id="dl"/><g id="dm"/><g id="dn"/><g id="do"/><g id="dp"/><g id="dq"/><g id="dr"/><g id="ds"/><g id="dt"/><g id="du"/><g id="dv"/><g id="dw"/><g id="dx"/><g id="dy"/><g id="e`"/><g id="ea"/><g id="eb"/><g id="ec"/><g id="ed"/><g id="ee"/><g id="ef"/><g id="eg"/><g id="eh"/><g id="ei"/><g id="ej"/><g id="ek"/><g id="el"/><g id="em"/><g id="en"/><g id="eo"/><g id="ep"/><g id="eq"/><g id="er"/><g id="es"/><g id="et"/><g id="eu"/><g id="ev"/><g id="ew"/><g id="ex"/><g id="ey"/><g id="f`"/><g id="fa"/><g id="fb"/><g id="fc"/><g id="fd"/><g id="fe"/><g id="ff"/><g id="fg"/><g id="fh"/><g id="fi"/><g id="fj"/><g id="fk"/><g id="fl"/><g id="fm"/><g id="fn"/><g id="fo"/><g id="fp"/><g id="fq"/><g id="fr"/><g id="fs"/><g id="ft"/><g id="fu"/><g id="fv"/><g id="fw"/><g id="fx"/><g id="fy"/><g id="g`"/><g id="ga"/><g id="gb"/><g id="gc"/><g id="gd"/><g id="ge"/><g id="gf"><use width="342" height="234" transform="translate(85 139)" xlink:href="#a"/><path d="M405.45,338.12c-5.27,3.92-12.43,5.88-21.49,5.88s-16.13-1.96-21.4-5.88c-5.27-3.92-7.9-9.28-7.9-16.1,0-4.24,1.17-7.79,3.52-10.65,2.34-2.86,5.64-4.8,9.88-5.83v-.29c-3.15-1.09-5.64-2.94-7.47-5.54-1.83-2.6-2.75-5.6-2.75-9.01,0-5.85,2.3-10.42,6.89-13.73,4.59-3.31,11-4.97,19.23-4.97s14.75,1.66,19.37,4.97c4.63,3.31,6.94,7.89,6.94,13.73,0,3.47-.92,6.5-2.75,9.11-1.83,2.6-4.32,4.42-7.47,5.45v.29c4.24,1.09,7.52,3.05,9.83,5.88,2.31,2.83,3.47,6.36,3.47,10.6,0,6.81-2.64,12.18-7.9,16.1Zm-21.4-7.04c3.79,0,6.78-.85,8.96-2.55,2.18-1.7,3.28-4.06,3.28-7.08s-1.08-5.38-3.23-7.08c-2.16-1.7-5.16-2.55-9.01-2.55s-6.97,.85-9.16,2.55c-2.19,1.7-3.28,4.07-3.28,7.08s1.11,5.38,3.33,7.08c2.22,1.7,5.25,2.55,9.11,2.55Zm0-30.36c3.34,0,5.96-.74,7.86-2.22,1.89-1.48,2.84-3.53,2.84-6.17s-.93-4.55-2.8-5.93c-1.86-1.38-4.5-2.07-7.9-2.07-7.2,0-10.79,2.67-10.79,8,0,2.64,.95,4.69,2.84,6.17,1.89,1.48,4.55,2.22,7.95,2.22Z"/></g><g id="gg"/><g id="gh"/><g id="gi"/><g id="gj"/><g id="gk"/><g id="gl"/><g id="gm"/><g id="gn"/><g id="go"/><g id="gp"/><g id="gq"/><g id="gr"/><g id="gs"/><g id="gt"/><g id="gu"/><g id="gv"/><g id="gw"/><g id="gx"/><g id="gy"/><g id="h`"/><g id="ha"/><g id="hb"/><g id="hc"/><g id="hd"/><g id="he"/><g id="hf"/><g id="hg"/><g id="hh"/><g id="hi"/><g id="hj"/><g id="hk"/><g id="hl"/><g id="hm"/><g id="hn"/><g id="ho"/><g id="hp"/><g id="hq"/><g id="hr"/><g id="hs"/><g id="ht"/><g id="hu"/><g id="hv"/><g id="hw"/><g id="hx"/><g id="hy"/><g id="i`"/><g id="ia"/><g id="ib"/><g id="ic"/></svg>