<?xml version="1.0" encoding="UTF-8"?><svg xmlns="http://www.w3.org/2000/svg" xmlns:xlink="http://www.w3.org/1999/xlink" viewBox="0 0 512 512"><defs><style>.ie,.if,.ig,.ih{fill:none;}.if{stroke-width:12px;}.if,.ig{stroke-linecap:round;}.if,.ig,.ih{stroke:#000;}.if,.ih{stroke-miterlimit:10;}.ig{stroke-linejoin:round;}.ig,.ih{stroke-width:9px;}.ii{clip-path:url(#hp);}</style><symbol id="a" viewBox="0 0 138 96"><g><path d="M105.23,10.78c2.83-2.94,6.81-4.78,11.22-4.78,8.59,0,15.56,6.96,15.56,15.56s-6.96,15.56-15.56,15.56H6" style="fill:none; stroke:#000; stroke-linecap:round; stroke-miterlimit:10; stroke-width:12px;"/><path d="M60.67,85.22c2.83,2.94,6.81,4.78,11.22,4.78,8.59,0,15.56-6.96,15.56-15.56s-6.96-15.56-15.56-15.56H6.56" style="fill:none; stroke:#000; stroke-linecap:round; stroke-miterlimit:10; stroke-width:12px;"/></g></symbol><clipPath id="hp"><polygon points="245.68 256.95 74.85 256.95 74.85 396.5 185.68 396.5 212.91 343.55 245.65 306.78 245.68 256.95" style="fill:none;"/></clipPath></defs><g id="b"/><g id="c"/><g id="d"/><g id="e"/><g id="f"/><g id="g"/><g id="h"/><g id="i"/><g id="j"/><g id="k"/><g id="l"/><g id="m"/><g id="n"/><g id="o"/><g id="p"/><g id="q"/><g id="r"/><g id="s"/><g id="t"/><g id="u"/><g id="v"/><g id="w"/><g id="x"/><g id="y"/><g id="a`"/><g id="aa"/><g id="ab"/><g id="ac"/><g id="ad"/><g id="ae"/><g id="af"/><g id="ag"/><g id="ah"/><g id="ai"/><g id="aj"/><g id="ak"/><g id="al"/><g id="am"/><g id="an"/><g id="ao"/><g id="ap"/><g id="aq"/><g id="ar"/><g id="as"/><g id="at"/><g id="au"/><g id="av"/><g id="aw"/><g id="ax"/><g id="ay"/><g id="b`"/><g id="ba"/><g id="bb"/><g id="bc"/><g id="bd"/><g id="be"/><g id="bf"/><g id="bg"/><g id="bh"/><g id="bi"/><g id="bj"/><g id="bk"/><g id="bl"/><g id="bm"/><g id="bn"/><g id="bo"/><g id="bp"/><g id="bq"/><g id="br"/><g id="bs"/><g id="bt"/><g id="bu"/><g id="bv"/><g id="bw"/><g id="bx"/><g id="by"/><g id="c`"/><g id="ca"/><g id="cb"/><g id="cc"/><g id="cd"/><g id="ce"/><g id="cf"/><g id="cg"/><g id="ch"/><g id="ci"/><g id="cj"/><g id="ck"/><g id="cl"/><g id="cm"/><g id="cn"/><g id="co"/><g id="cp"/><g id="cq"/><g id="cr"/><g id="cs"/><g id="ct"/><g id="cu"/><g id="cv"/><g id="cw"/><g id="cx"/><g id="cy"/><g id="d`"/><g id="da"/><g id="db"/><g id="dc"/><g id="dd"/><g id="de"/><g id="df"/><g id="dg"/><g id="dh"/><g id="di"/><g id="dj"/><g id="dk"/><g id="dl"/><g id="dm"/><g id="dn"/><g id="do"/><g id="dp"/><g id="dq"/><g id="dr"/><g id="ds"/><g id="dt"/><g id="du"/><g id="dv"/><g id="dw"/><g id="dx"/><g id="dy"/><g id="e`"/><g id="ea"/><g id="eb"/><g id="ec"/><g id="ed"/><g id="ee"/><g id="ef"/><g id="eg"/><g id="eh"/><g id="ei"/><g id="ej"/><g id="ek"/><g id="el"/><g id="em"/><g id="en"/><g id="eo"/><g id="ep"/><g id="eq"/><g id="er"/><g id="es"/><g id="et"/><g id="eu"/><g id="ev"/><g id="ew"/><g id="ex"/><g id="ey"/><g id="f`"/><g id="fa"/><g id="fb"/><g id="fc"/><g id="fd"/><g id="fe"/><g id="ff"/><g id="fg"/><g id="fh"/><g id="fi"/><g id="fj"/><g id="fk"/><g id="fl"/><g id="fm"/><g id="fn"/><g id="fo"/><g id="fp"/><g id="fq"/><g id="fr"/><g id="fs"/><g id="ft"/><g id="fu"/><g id="fv"/><g id="fw"/><g id="fx"/><g id="fy"/><g id="g`"/><g id="ga"/><g id="gb"/><g id="gc"/><g id="gd"/><g id="ge"/><g id="gf"/><g id="gg"/><g id="gh"/><g id="gi"/><g id="gj"/><g id="gk"/><g id="gl"/><g id="gm"/><g id="gn"/><g id="go"/><g id="gp"/><g id="gq"/><g id="gr"/><g id="gs"/><g id="gt"/><g id="gu"/><g id="gv"/><g id="gw"/><g id="gx"/><g id="gy"/><g id="h`"/><g id="ha"/><g id="hb"/><g id="hc"/><g id="hd"/><g id="he"/><g id="hf"/><g id="hg"/><g id="hh"/><g id="hi"/><g id="hj"/><g id="hk"/><g id="hl"/><g id="hm"/><g id="hn"/><g id="ho"><g style="clip-path:url(#hp);"><path d="M245.68,309.62c-13.79,0-26.33-14.73-32.81-27.02-1.1-2.1-4.02-2.1-5.12,0-6.47,12.29-19.01,27.02-32.81,27.02s-26.33-14.73-32.81-27.02c-1.1-2.1-4.02-2.1-5.12,0-6.47,12.29-19.01,27.02-32.81,27.02h-10.11v61.97c0,11.37,9.03,20.59,20.16,20.59H245.68v-82.57Z" style="fill:none; stroke:#000; stroke-linecap:round; stroke-linejoin:round; stroke-width:9px;"/></g><g><path d="M353.42,158.32c-.83-5.78-2.88-10.19-4.63-9.96l-1.39,.18c-1.75,.23-2.57,5.03-1.85,10.82l14.05,113.48c.75,6.06,2.89,10.88,4.72,10.63l3.53-.47c1.83-.24,2.63-5.45,1.76-11.5l-16.2-113.2Z"/><path d="M402.92,153.22c-3.13-23.43-25.84-39.73-50.73-36.41-16.77,2.24-30.21,12.82-36.27,26.64-.74,.05-1.47-.02-2.22,.08-18.67,2.49-31.9,18.76-29.56,36.33,1.93,14.49,13.9,25.2,28.49,27.16-.86,2.76-1.16,5.7-.76,8.72,1.56,11.71,12.92,19.87,25.37,18.2,5.67-.76,10.52-3.48,14.04-7.26,7.18,6.64,17.38,10.26,28.22,8.81,18.67-2.49,31.9-18.76,29.56-36.33-1.08-8.11-5.39-14.99-11.45-19.9,4.48-7.72,6.56-16.74,5.31-26.05Z"/></g><path d="M402.31,369.75v-66.3c0-12.38-8.87-22.42-19.81-22.42h-62.58c-49.21,0-94.23,31.36-116.41,81.08l-13.41,30.08h192.39c10.95,0,19.82-10.04,19.82-22.43Z" style="fill:none; stroke:#000; stroke-miterlimit:10; stroke-width:9px;"/><use width="138" height="96" transform="translate(237 146) rotate(-180) scale(1 -1)" xlink:href="#a"/></g><g id="hq"/><g id="hr"/><g id="hs"/><g id="ht"/><g id="hu"/><g id="hv"/><g id="hw"/><g id="hx"/><g id="hy"/><g id="i`"/><g id="ia"/><g id="ib"/><g id="ic"/><g id="id"/></svg>