<svg xmlns="http://www.w3.org/2000/svg" xmlns:xlink="http://www.w3.org/1999/xlink" viewBox="0 0 64 64"><defs><linearGradient id="a" x1="36.75" y1="15.1" x2="41.25" y2="22.9" gradientUnits="userSpaceOnUse"><stop offset="0" stop-color="#fcd966"/><stop offset="0.45" stop-color="#fcd966"/><stop offset="1" stop-color="#fccd34"/></linearGradient><linearGradient id="b" x1="44.04" y1="25.6" x2="47.96" y2="32.4" xlink:href="#a"/><clipPath id="c"><polygon points="64 2.79 30 23 32 29 37 33 64 21 64 2.79" fill="none"/></clipPath><linearGradient id="d" x1="43.04" y1="18.6" x2="46.96" y2="25.4" xlink:href="#a"/><linearGradient id="e" x1="21.92" y1="18.75" x2="38.52" y2="47.52" gradientUnits="userSpaceOnUse"><stop offset="0" stop-color="#86c3db"/><stop offset="0.45" stop-color="#86c3db"/><stop offset="1" stop-color="#5eafcf"/></linearGradient></defs><path d="M35.35,21.36l3.12-.81a.2.2,0,0,1,.21.06L41,22.86a.23.23,0,0,0,.38-.21l-.81-3.12a.2.2,0,0,1,.06-.21L42.86,17a.23.23,0,0,0-.21-.38l-3.12.81a.2.2,0,0,1-.21-.06L37,15.14a.23.23,0,0,0-.38.21l.81,3.12a.2.2,0,0,1-.06.21L35.14,21A.23.23,0,0,0,35.35,21.36Z" stroke="#fcd34d" stroke-linecap="round" stroke-linejoin="round" stroke-width="0.25" fill="url(#a)"/><path d="M41.66,29.22l3.1.86a.22.22,0,0,1,.16.16l.86,3.1a.23.23,0,0,0,.44,0l.86-3.1a.22.22,0,0,1,.16-.16l3.1-.86a.23.23,0,0,0,0-.44l-3.1-.86a.22.22,0,0,1-.16-.16l-.86-3.1a.23.23,0,0,0-.44,0l-.86,3.1a.22.22,0,0,1-.16.16l-3.1.86A.23.23,0,0,0,41.66,29.22Z" stroke="#fcd34d" stroke-linecap="round" stroke-linejoin="round" stroke-width="0.25" fill="url(#b)"/><g clip-path="url(#c)"><line x1="41.5" y1="23.5" x2="40.16" y2="24.17" fill="none" stroke="#fcd34d" stroke-linecap="round" stroke-miterlimit="10"/><line x1="37.9" y1="25.3" x2="29.97" y2="29.26" fill="none" stroke="#fcd34d" stroke-linecap="round" stroke-miterlimit="10" stroke-dasharray="2.53 2.53"/><line x1="28.84" y1="29.83" x2="27.5" y2="30.5" fill="none" stroke="#fcd34d" stroke-linecap="round" stroke-miterlimit="10"/><path d="M41.14,20l2.25,2.3a.2.2,0,0,1,.06.21l-.81,3.12a.23.23,0,0,0,.38.21l2.3-2.25a.2.2,0,0,1,.21-.06l3.12.81a.23.23,0,0,0,.21-.38l-2.25-2.3a.2.2,0,0,1-.06-.21l.81-3.12a.23.23,0,0,0-.38-.21l-2.3,2.25a.2.2,0,0,1-.21.06l-3.12-.81A.23.23,0,0,0,41.14,20Z" stroke="#fcd34d" stroke-linecap="round" stroke-linejoin="round" stroke-width="0.25" fill="url(#d)"/></g><path d="M46.66,36.2A16.66,16.66,0,0,1,29.88,19.65a16.29,16.29,0,0,1,.55-4.15A16.56,16.56,0,1,0,48.5,36.1C47.89,36.16,47.28,36.2,46.66,36.2Z" stroke="#72b9d5" stroke-linecap="round" stroke-linejoin="round" stroke-width="0.5" fill="url(#e)"/></svg>