<svg xmlns="http://www.w3.org/2000/svg" viewBox="0 0 512 512">
    <defs>
        <linearGradient id="a" x1="193.89" y1="143.9" x2="327.14" y2="374.7" gradientUnits="userSpaceOnUse">
            <stop offset="0" stop-color="#86c3db"/>
            <stop offset="0.45" stop-color="#86c3db"/>
            <stop offset="1" stop-color="#5eafcf"/>
        </linearGradient>
    </defs>
    <path d="M384,256A128,128,0,0,0,256,128c-169.79,6.74-169.74,249.28,0,256A128,128,0,0,0,384,256Z" fill="none" stroke="#e5e7eb" stroke-linecap="round" stroke-linejoin="round" stroke-width="17.45" stroke-dasharray="16.87 56.24"/>
    <path d="M391.41,214.83c-19.32-68.31-87-108.48-155.57-95.15a135.19,135.19,0,0,1,13.79,31.91c20.71,73.24-22,151-95.42,173.77A145.41,145.41,0,0,1,139.37,329c31,52.52,94.75,78.72,156.62,59.56C369.39,365.88,412.12,288.08,391.41,214.83Z" stroke="#72b9d5" stroke-linecap="round" stroke-linejoin="round" stroke-width="6" fill="url(#a)"/>
</svg>
