<svg xmlns="http://www.w3.org/2000/svg" xmlns:xlink="http://www.w3.org/1999/xlink" viewBox="0 0 512 512">
    <defs>
        <linearGradient id="a" x1="99.45" y1="30.68" x2="232.64" y2="261.37" gradientUnits="userSpaceOnUse">
            <stop offset="0" stop-color="#f3f7fe"/>
            <stop offset="0.45" stop-color="#f3f7fe"/>
            <stop offset="1" stop-color="#deeafb"/>
        </linearGradient>
        <linearGradient id="b" x1="34.67" y1="18.56" x2="119.21" y2="164.99" gradientUnits="userSpaceOnUse">
            <stop offset="0" stop-color="#86c3db"/>
            <stop offset="0.45" stop-color="#86c3db"/>
            <stop offset="1" stop-color="#5eafcf"/>
        </linearGradient>
        <linearGradient id="c" x1="1301.87" y1="-575.97" x2="1311.33" y2="-551.33" gradientTransform="translate(-1002.34 1123.11) rotate(-9)" gradientUnits="userSpaceOnUse">
            <stop offset="0" stop-color="#0b65ed"/>
            <stop offset="0.45" stop-color="#0a5ad4"/>
            <stop offset="1" stop-color="#0950bc"/>
        </linearGradient>
        <linearGradient id="d" x1="1357.18" y1="-567.21" x2="1366.64" y2="-542.57" xlink:href="#c"/>
        <linearGradient id="e" x1="1412.5" y1="-558.45" x2="1421.95" y2="-533.81" xlink:href="#c"/>
        <symbol id="g" viewBox="0 0 172 172">
            <!-- moon -->
            <path d="M160.62,107.4c-47.17,0-85.41-37.73-85.41-84.26A83.31,83.31,0,0,1,78,2C35.27,6.61,2,42.33,2,85.73,2,132.27,40.24,170,87.41,170A85.16,85.16,0,0,0,170,106.87,88,88,0,0,1,160.62,107.4Z" stroke="#72b9d5" stroke-linecap="round" stroke-linejoin="round" stroke-width="4" fill="url(#b)">
                <animateTransform
                    attributeName="transform"
                    additive="sum"
                    type="rotate"
                    values="-15 86 86; 9 86 86; -15 86 86"
                    dur="6s"
                    repeatCount="indefinite"/>
            </path>
        </symbol>
        <symbol id="h" viewBox="0 0 350 222">
            <path d="M291,107c-.85,0-1.68.09-2.53.13A83.9,83.9,0,0,0,135.6,42.92,55.91,55.91,0,0,0,51,91a56.56,56.56,0,0,0,.8,9.08A60,60,0,0,0,63,219c1.35,0,2.67-.11,4-.2v.2H291a56,56,0,0,0,0-112Z" stroke="#e6effc" stroke-miterlimit="10" stroke-width="6" fill="url(#a)"/>
        </symbol>
        <symbol id="f" viewBox="0 0 351 246">
            <use width="172" height="172" xlink:href="#g"/>
            <use width="350" height="222" transform="translate(1 24)" xlink:href="#h"/>
        </symbol>
    </defs>
    <use width="351" height="246" transform="translate(80 121)" xlink:href="#f"/>

    <!-- raindrop-1 -->
    <path d="M200,376a8,8,0,0,1-8-8V356a8,8,0,0,1,16,0v12A8,8,0,0,1,200,376Z" stroke="#0a5ad4" stroke-miterlimit="10" fill="url(#c)" opacity="0">
        <animateTransform
            id="x1"
            attributeName="transform"
            additive="sum"
            type="translate"
            values="0 -32; 0 -32; 0 120;"
            begin="0s; x1.end+1s"
            dur="1s"
            keyTimes="0; .25; 1"/>

        <animate
            id="y1"
            attributeName="opacity"
            values="0; 1; 0"
            begin="0s; y1.end+1s"
            dur="1s"
            keyTimes="0; .25; 1"/>
    </path>

    <!-- raindrop-2 -->
    <path d="M256,376a8,8,0,0,1-8-8V356a8,8,0,0,1,16,0v12A8,8,0,0,1,256,376Z" stroke="#0a5ad4" stroke-miterlimit="10" fill="url(#d)" opacity="0">
        <animateTransform
            id="x2"
            attributeName="transform"
            additive="sum"
            type="translate"
            values="0 -32; 0 -32; 0 120;"
            begin="1.34s; x2.end+1s"
            dur="1s"
            keyTimes="0; .25; 1"/>

        <animate
            id="y2"
            attributeName="opacity"
            values="0; 1; 0"
            begin="1.34s; y2.end+1s"
            dur="1s"
            keyTimes="0; .25; 1"/>
    </path>

    <!-- raindrop-3 -->
    <path d="M312,376a8,8,0,0,1-8-8V356a8,8,0,0,1,16,0v12A8,8,0,0,1,312,376Z" stroke="#0a5ad4" stroke-miterlimit="10" fill="url(#e)" opacity="0">
        <animateTransform
            id="x3"
            attributeName="transform"
            additive="sum"
            type="translate"
            values="0 -32; 0 -32; 0 120;"
            begin=".67s; x3.end+1s"
            dur="1s"
            keyTimes="0; .25; 1"/>

        <animate
            id="y3"
            attributeName="opacity"
            values="0; 1; 0"
            begin=".67s; y3.end+1s"
            dur="1s"
            keyTimes="0; .25; 1"/>
    </path>
</svg>
