<svg xmlns="http://www.w3.org/2000/svg" xmlns:xlink="http://www.w3.org/1999/xlink" viewBox="0 0 512 512">
    <defs>
        <linearGradient id="a" x1="213.99" y1="257.24" x2="298.01" y2="402.76" gradientUnits="userSpaceOnUse">
            <stop offset="0" stop-color="#f3f7fe"/>
            <stop offset="0.45" stop-color="#f3f7fe"/>
            <stop offset="1" stop-color="#deeafb"/>
        </linearGradient>
        <linearGradient id="b" x1="317.5" y1="284.01" x2="332.5" y2="309.99" xlink:href="#a"/>
        <linearGradient id="c" x1="179.5" y1="284.01" x2="194.5" y2="309.99" xlink:href="#a"/>
        <linearGradient id="d" x1="225.99" y1="150.03" x2="286.01" y2="253.97" xlink:href="#a"/>
        <linearGradient id="e" x1="241.25" y1="229.46" x2="270.75" y2="280.54" gradientUnits="userSpaceOnUse">
            <stop offset="0" stop-color="#f87171"/>
            <stop offset="0.45" stop-color="#f87171"/>
            <stop offset="1" stop-color="#dc2626"/>
        </linearGradient>
        <linearGradient id="f" x1="397.91" y1="606.3" x2="443.67" y2="685.54" gradientTransform="translate(-335.01 -364.22) rotate(-15)" gradientUnits="userSpaceOnUse">
            <stop offset="0" stop-color="#495057"/>
            <stop offset="0.45" stop-color="#495057"/>
            <stop offset="1" stop-color="#212529"/>
        </linearGradient>
        <linearGradient id="g" x1="252" y1="198.24" x2="260" y2="212.09" gradientUnits="userSpaceOnUse">
            <stop offset="0" stop-color="#ffc078"/>
            <stop offset="0.45" stop-color="#ffc078"/>
            <stop offset="1" stop-color="#ff922b"/>
        </linearGradient>
    </defs>
    <circle cx="256" cy="330" r="84" stroke="#e6effc" stroke-miterlimit="10" stroke-width="4" fill="url(#a)"/>
    <circle cx="325" cy="297" r="15" stroke="#e6effc" stroke-miterlimit="10" stroke-width="4" fill="url(#b)"/>
    <circle cx="187" cy="297" r="15" stroke="#e6effc" stroke-miterlimit="10" stroke-width="4" fill="url(#c)"/>
    <circle cx="256" cy="202" r="60" stroke="#e6effc" stroke-miterlimit="10" stroke-width="4" fill="url(#d)"/>
    <path d="M259,231a3,3,0,1,1-3-3A3,3,0,0,1,259,231Zm-12-5a3,3,0,1,0,3,3A3,3,0,0,0,247,226Zm-8-6a3,3,0,1,0,3,3A3,3,0,0,0,239,220Zm26,6a3,3,0,1,0,3,3A3,3,0,0,0,265,226Zm8-6a3,3,0,1,0,3,3A3,3,0,0,0,273,220Z" fill="#374151"/>
    <path d="M280,186a8,8,0,1,1-8-8A8,8,0,0,1,280,186Zm-40-8a8,8,0,1,0,8,8A8,8,0,0,0,240,178Z" fill="#374151"/>
    <path d="M280,264H214.85c-3.78,0-6.85-2.4-6.85-5.35v-7.3c0-3.08,3.33-5.53,7.27-5.34h81.46c3.94-.19,7.27,2.26,7.27,5.34v7.3c0,3-3.07,5.35-6.85,5.35Z" stroke="#ef4444" stroke-miterlimit="10" stroke-width="2" fill="url(#e)"/>
    <path d="M290.05,133.4l-24.15,6.46a.29.29,0,0,1-.35-.2L256.3,105.2a4,4,0,0,0-4.92-2.85l-38.6,10.33a4,4,0,0,0-2.84,4.93l9.24,34.45a.28.28,0,0,1-.2.35l-24.15,6.46a6.72,6.72,0,0,0-4.75,8.23l2.74,10.19a6.72,6.72,0,0,0,8.24,4.75l95.21-25.47a6.71,6.71,0,0,0,4.74-8.22l-2.74-10.2A6.71,6.71,0,0,0,290.05,133.4Z" stroke="#343a40" stroke-miterlimit="10" stroke-width="4" fill="url(#f)"/>
    <line x1="222.08" y1="147.44" x2="260.72" y2="137.11" fill="none" stroke="#ef4444" stroke-linecap="square" stroke-miterlimit="10" stroke-width="4"/>
    <ellipse cx="256" cy="205.16" rx="8" ry="7.99" stroke="#ffa94d" stroke-miterlimit="10" stroke-width="2" fill="url(#g)"/>
    <path d="M264,324a8,8,0,1,1-8-8A8,8,0,0,1,264,324Zm-8,16a8,8,0,1,0,8,8A8,8,0,0,0,256,340Zm0-48a8,8,0,1,0,8,8A8,8,0,0,0,256,292Z" fill="#374151"/>
</svg>
