<svg xmlns="http://www.w3.org/2000/svg" xmlns:xlink="http://www.w3.org/1999/xlink" viewBox="0 0 512 512">
    <defs>
        <linearGradient id="a" x1="-7.17" y1="36.31" x2="116.44" y2="250.4" gradientUnits="userSpaceOnUse">
            <stop offset="0" stop-color="#515a69" stop-opacity="0.05"/>
            <stop offset="0.45" stop-color="#6b7280" stop-opacity="0.05"/>
            <stop offset="1" stop-color="#384354" stop-opacity="0.1"/>
        </linearGradient>
        <linearGradient id="b" x1="-8.67" y1="33.71" x2="117.94" y2="253" gradientUnits="userSpaceOnUse">
            <stop offset="0" stop-color="#d4d7dd"/>
            <stop offset="0.45" stop-color="#d4d7dd"/>
            <stop offset="1" stop-color="#bec1c6"/>
        </linearGradient>
        <symbol id="d" viewBox="0 0 72 168">
            <circle cx="36" cy="132" r="36" fill="#ef4444"/>
            <path d="M36,12V132" fill="none" stroke="#ef4444" stroke-linecap="round" stroke-miterlimit="10" stroke-width="24">
                <animateTransform
                    attributeName="transform"
                    type="translate"
                    values="0 0; 0 18; 0 0"
                    dur="1s"
                    calcMode="spline"
                    keySplines=".42, 0, .58, 1; .42, 0, .58, 1"
                    repeatCount="indefinite"/>
            </path>
        </symbol>
        <symbol id="e" viewBox="0 0 118 278">
            <path d="M115,218.16C115,249.55,89.93,275,59,275S3,249.55,3,218.16a57,57,0,0,1,24-46.6V35.48a32,32,0,1,1,64,0V171.56A57,57,0,0,1,115,218.16ZM63,83H91M63,51H91M63,115H91" stroke-linecap="round" stroke-linejoin="round" stroke-width="6" fill="url(#a)" stroke="url(#b)"/>
        </symbol>
        <symbol id="c" viewBox="0 0 118 278">
            <use width="72" height="168" transform="translate(23 87)" xlink:href="#d"/>
            <use width="118" height="278" xlink:href="#e"/>
        </symbol>
    </defs>
    <use width="118" height="278" transform="translate(197 117)" xlink:href="#c"/>

    <path d="M372.5,247a4.59,4.59,0,0,1-3.18-1.26L350,227.34l-19.32,18.4a4.64,4.64,0,0,1-6.36,0,4.14,4.14,0,0,1,0-6.06l22.5-21.42a4.64,4.64,0,0,1,6.36,0l22.5,21.42a4.14,4.14,0,0,1,0,6.06A4.59,4.59,0,0,1,372.5,247Z" fill="#e34647" opacity="0">
        <animateTransform
            attributeName="transform"
            type="translate"
            values="0 30; 0 0; 0 -30"
            begin="-1.2s"
            dur="3s"
            calcMode="spline"
            keySplines=".55, 0, .1, 1; .55, 0, .1, 1"
            repeatCount="indefinite"/>

        <animate
            attributeName="opacity"
            values="0; 1; 0"
            begin="-1.2s"
            dur="3s"
            calcMode="spline"
            keySplines=".55, 0, .1, 1; .55, 0, .1, 1"
            repeatCount="indefinite"/>
    </path>

    <path d="M372.5,274a4.59,4.59,0,0,1-3.18-1.26L350,254.34l-19.32,18.4a4.64,4.64,0,0,1-6.36,0,4.14,4.14,0,0,1,0-6.06l22.5-21.42a4.64,4.64,0,0,1,6.36,0l22.5,21.42a4.14,4.14,0,0,1,0,6.06A4.59,4.59,0,0,1,372.5,274Z" fill="#e34647" opacity="0">
        <animateTransform
            attributeName="transform"
            type="translate"
            values="0 30; 0 0; 0 -30"
            begin="-1.1s"
            dur="3s"
            calcMode="spline"
            keySplines=".55, 0, .1, 1; .55, 0, .1, 1"
            repeatCount="indefinite"/>

        <animate
            attributeName="opacity"
            values="0; 1; 0"
            begin="-1.1s"
            dur="3s"
            calcMode="spline"
            keySplines=".55, 0, .1, 1; .55, 0, .1, 1"
            repeatCount="indefinite"/>
    </path>

    <path d="M372.5,301a4.59,4.59,0,0,1-3.18-1.26L350,281.34l-19.32,18.4a4.64,4.64,0,0,1-6.36,0,4.14,4.14,0,0,1,0-6.06l22.5-21.42a4.64,4.64,0,0,1,6.36,0l22.5,21.42a4.14,4.14,0,0,1,0,6.06A4.59,4.59,0,0,1,372.5,301Z" fill="#e34647" opacity="0">
        <animateTransform
            attributeName="transform"
            type="translate"
            values="0 30; 0 0; 0 -30"
            begin="-1s"
            dur="3s"
            calcMode="spline"
            keySplines=".55, 0, .1, 1; .55, 0, .1, 1"
            repeatCount="indefinite"/>

        <animate
            attributeName="opacity"
            values="0; 1; 0"
            begin="-1s"
            dur="3s"
            calcMode="spline"
            keySplines=".55, 0, .1, 1; .55, 0, .1, 1"
            repeatCount="indefinite"/>
    </path>
</svg>
