<svg xmlns="http://www.w3.org/2000/svg" xmlns:xlink="http://www.w3.org/1999/xlink" viewBox="0 0 512 512">
    <defs>
        <linearGradient id="a" x1="78" y1="63.35" x2="118" y2="132.65" gradientUnits="userSpaceOnUse">
            <stop offset="0" stop-color="#fbbf24"/>
            <stop offset="0.45" stop-color="#fbbf24"/>
            <stop offset="1" stop-color="#f59e0b"/>
        </linearGradient>
        <linearGradient id="b" x1="-7.17" y1="36.31" x2="116.44" y2="250.4" gradientUnits="userSpaceOnUse">
            <stop offset="0" stop-color="#515a69" stop-opacity="0.05"/>
            <stop offset="0.45" stop-color="#6b7280" stop-opacity="0.05"/>
            <stop offset="1" stop-color="#384354" stop-opacity="0.1"/>
        </linearGradient>
        <linearGradient id="c" x1="-8.67" y1="33.71" x2="117.94" y2="253" gradientUnits="userSpaceOnUse">
            <stop offset="0" stop-color="#d4d7dd"/>
            <stop offset="0.45" stop-color="#d4d7dd"/>
            <stop offset="1" stop-color="#bec1c6"/>
        </linearGradient>
        <clipPath id="d">
            <path d="M256,392c30.93,0,56-25.45,56-56.84a57,57,0,0,0-24-46.6V152.48A32.24,32.24,0,0,0,256,120V79.74H423.17V392Zm4-192h28m-28-32h28m-28,64h28" fill="none"/>
        </clipPath>
        <symbol id="e" viewBox="0 0 196 196" overflow="visible">
            <!-- sun-core -->
            <circle cx="98" cy="98" r="40" stroke="#f8af18" stroke-miterlimit="10" stroke-width="4" fill="url(#a)"/>

            <!-- sun-rays -->
            <path d="M98,31.38V6m0,184V164.62M145.11,50.89,163.05,33M33,163.05l17.94-17.94m0-94.22L33,33m130.1,130.1-17.94-17.94M6,98H31.38M190,98H164.62" fill="none" stroke="#fbbf24" stroke-linecap="round" stroke-miterlimit="10" stroke-width="12">
                <animateTransform
                    attributeName="transform"
                    additive="sum"
                    type="rotate"
                    values="0 98 98; 45 98 98"
                    dur="6s"
                    repeatCount="indefinite"/>
            </path>
        </symbol>
        <symbol id="g" viewBox="0 0 72 168">
            <circle cx="36" cy="132" r="36" fill="#ef4444"/>
            <path d="M36,12V132" fill="none" stroke="#ef4444" stroke-linecap="round" stroke-miterlimit="10" stroke-width="24">
                <animateTransform
                    attributeName="transform"
                    type="translate"
                    values="0 0; 0 18; 0 0"
                    dur="1s"
                    calcMode="spline"
                    keySplines=".42, 0, .58, 1; .42, 0, .58, 1"
                    repeatCount="indefinite"/>
            </path>
        </symbol>
        <symbol id="h" viewBox="0 0 118 278">
            <path d="M115,218.16C115,249.55,89.93,275,59,275S3,249.55,3,218.16a57,57,0,0,1,24-46.6V35.48a32,32,0,1,1,64,0V171.56A57,57,0,0,1,115,218.16ZM63,83H91M63,51H91M63,115H91" stroke-linecap="round" stroke-linejoin="round" stroke-width="6" fill="url(#b)" stroke="url(#c)"/>
        </symbol>
        <symbol id="f" viewBox="0 0 118 278">
            <use width="72" height="168" transform="translate(23 87)" xlink:href="#g"/>
            <use width="118" height="278" xlink:href="#h"/>
        </symbol>
    </defs>
    <g clip-path="url(#d)">
        <use width="196" height="196" transform="translate(216 108)" xlink:href="#e"/>
    </g>
    <use width="118" height="278" transform="translate(197 117)" xlink:href="#f"/>
</svg>
