<?xml version="1.0" encoding="UTF-8"?>
<svg id="iu" xmlns="http://www.w3.org/2000/svg" xmlns:xlink="http://www.w3.org/1999/xlink" viewBox="0 0 512 512">
    <defs>
        <linearGradient id="b" x1="145.99" y1="115.24" x2="230.01" y2="260.76" gradientUnits="userSpaceOnUse">
            <stop offset="0" stop-color="#fbbf24"/>
            <stop offset="1" stop-color="#f8af18"/>
        </linearGradient>
        <symbol id="a" viewBox="0 0 376 376">
            <g>
                <circle cx="188" cy="188" r="84" fill="url(#b)" stroke="#f8af18" stroke-miterlimit="10" stroke-width="4"/>
                <path d="m188,57.66V8m0,360v-49.66m92.17-222.51l35.11-35.11M60.72,315.28l35.11-35.11m0-184.34l-35.11-35.11m254.56,254.56l-35.11-35.11M57.66,188H8m360,0h-49.66" fill="none" stroke="#fbbf24" stroke-linecap="round" stroke-miterlimit="10" stroke-width="16">
                    <animateTransform
                        attributeName="transform"
                        additive="sum"
                        type="rotate"
                        values="0 192 192; 45 192 192"
                        dur="6s"
                        repeatCount="indefinite"/>
                </path>
            </g>
        </symbol>
        <clipPath id="iv">
            <path d="m64,64h384v192s-120.01,0-120.01,0c-39.76,0-71.99,32.23-71.99,71.99v120.01H64s0-384,0-384Z" fill="none"/>
        </clipPath>
    </defs>
    <g clip-path="url(#iv)">
        <use width="376" height="376" transform="translate(68 68)" xlink:href="#a"/>
        <path d="m254,338v-10.02c0-40.86,33.12-73.98,73.98-73.98h10.02" fill="none" stroke="#f8af18" stroke-miterlimit="10" stroke-width="6"/>
    </g>
    <rect x="280" y="280" width="144" height="144" rx="48" ry="48" fill="#9936d4"/>
    <g>
        <path d="m319.08,383.25h-15.71v-37.38h-14.78v-10.5h2.52c4.31,0,7.73-.92,10.25-2.77,2.35-1.74,3.89-4.56,4.62-8.48l.17-.67h12.94v59.81Z" fill="#fff"/>
        <path d="m356.71,383.25h-15.71v-37.38h-14.78v-10.5h2.52c4.31,0,7.73-.92,10.25-2.77,2.35-1.74,3.89-4.56,4.62-8.48l.17-.67h12.94v59.81Z" fill="#fff"/>
        <path d="m397.71,351.17h17.3v11.09h-17.3v17.64h-11.84v-17.64h-17.22v-11.09h17.22v-17.64h11.84v17.64Z" fill="#fff"/>
    </g>
</svg>
