<svg xmlns="http://www.w3.org/2000/svg" xmlns:xlink="http://www.w3.org/1999/xlink" viewBox="0 0 64 64"><defs><clipPath id="a"><polygon points="20 27 32 23 32 11 6 11 6 35 14 35 20 27" fill="none"/></clipPath><linearGradient id="b" x1="16.5" y1="19.67" x2="21.5" y2="28.33" gradientUnits="userSpaceOnUse"><stop offset="0" stop-color="#fbbf24"/><stop offset="0.45" stop-color="#fbbf24"/><stop offset="1" stop-color="#f59e0b"/></linearGradient><linearGradient id="c" x1="23.29" y1="23.36" x2="38.11" y2="49.02" gradientUnits="userSpaceOnUse"><stop offset="0" stop-color="#f87171"/><stop offset="0.45" stop-color="#f87171"/><stop offset="1" stop-color="#dc2626"/></linearGradient><linearGradient id="d" x1="24.62" y1="26.06" x2="37.18" y2="47.82" xlink:href="#b"/><linearGradient id="e" x1="18" y1="34.25" x2="46" y2="34.25" gradientUnits="userSpaceOnUse"><stop offset="0" stop-color="#51cf66"/><stop offset="0.45" stop-color="#51cf66"/><stop offset="1" stop-color="#37b24d"/></linearGradient><linearGradient id="f" x1="39.75" y1="32.41" x2="49.01" y2="48.46" gradientUnits="userSpaceOnUse"><stop offset="0" stop-color="#f3f7fe"/><stop offset="0.45" stop-color="#f3f7fe"/><stop offset="1" stop-color="#deeafb"/></linearGradient></defs><g clip-path="url(#a)"><circle cx="19" cy="24" r="5" stroke="#f8af18" stroke-miterlimit="10" stroke-width="0.5" fill="url(#b)"/><path d="M19,15.67V12.5m0,23V32.33m5.89-14.22,2.24-2.24M10.87,32.13l2.24-2.24m0-11.78-2.24-2.24M27.13,32.13l-2.24-2.24M7.5,24h3.17M30.5,24H27.33" fill="none" stroke="#fbbf24" stroke-linecap="round" stroke-miterlimit="10" stroke-width="2"/></g><path d="M13.5,41A18.25,18.25,0,0,1,32,23,18.25,18.25,0,0,1,50.5,41" fill="none" stroke-miterlimit="10" stroke-width="3" stroke="url(#c)"/><path d="M16.5,41A15.26,15.26,0,0,1,32,26,15.26,15.26,0,0,1,47.5,41" fill="none" stroke-miterlimit="10" stroke-width="3" stroke="url(#d)"/><path d="M19.5,41A12.26,12.26,0,0,1,32,29,12.26,12.26,0,0,1,44.5,41" fill="none" stroke-miterlimit="10" stroke-width="3" stroke="url(#e)"/><path d="M53.09,37.72h-.17a5.86,5.86,0,0,0-10.67-4.46,3.9,3.9,0,0,0-5.9,3.34,4.23,4.23,0,0,0,0,.63,4.17,4.17,0,0,0,.79,8.26h15.9a3.89,3.89,0,1,0,0-7.78Z" stroke="#e6effc" stroke-miterlimit="10" stroke-width="0.5" fill="url(#f)"/></svg>