<svg xmlns="http://www.w3.org/2000/svg" xmlns:xlink="http://www.w3.org/1999/xlink" viewBox="0 0 64 64"><defs><linearGradient id="a" x1="21.92" y1="18.75" x2="38.52" y2="47.52" gradientUnits="userSpaceOnUse"><stop offset="0" stop-color="#86c3db"/><stop offset="0.45" stop-color="#86c3db"/><stop offset="1" stop-color="#5eafcf"/></linearGradient><linearGradient id="b" x1="36.75" y1="15.1" x2="41.25" y2="22.9" gradientUnits="userSpaceOnUse"><stop offset="0" stop-color="#fcd966"/><stop offset="0.45" stop-color="#fcd966"/><stop offset="1" stop-color="#fccd34"/></linearGradient><linearGradient id="c" x1="36.69" y1="24.73" x2="39.31" y2="29.27" xlink:href="#b"/><linearGradient id="d" x1="44.04" y1="25.6" x2="47.96" y2="32.4" xlink:href="#b"/></defs><path d="M46.66,36.2A16.66,16.66,0,0,1,29.88,19.65a16.29,16.29,0,0,1,.55-4.15A16.56,16.56,0,1,0,48.5,36.1C47.89,36.16,47.28,36.2,46.66,36.2Z" stroke="#72b9d5" stroke-linecap="round" stroke-linejoin="round" stroke-width="0.5" fill="url(#a)"/><path d="M35.35,21.36l3.12-.81a.2.2,0,0,1,.21.06L41,22.86a.23.23,0,0,0,.38-.21l-.81-3.12a.2.2,0,0,1,.06-.21L42.86,17a.23.23,0,0,0-.21-.38l-3.12.81a.2.2,0,0,1-.21-.06L37,15.14a.23.23,0,0,0-.38.21l.81,3.12a.2.2,0,0,1-.06.21L35.14,21A.23.23,0,0,0,35.35,21.36Z" stroke="#fcd34d" stroke-linecap="round" stroke-linejoin="round" stroke-width="0.25" fill="url(#b)"/><path d="M35.42,25.68l1.51,1.53a.18.18,0,0,1,0,.14l-.54,2.08a.15.15,0,0,0,.25.15l1.53-1.51a.18.18,0,0,1,.14,0l2.08.54a.15.15,0,0,0,.15-.25l-1.51-1.53a.18.18,0,0,1,0-.14l.54-2.08a.15.15,0,0,0-.25-.15l-1.53,1.51a.18.18,0,0,1-.14,0l-2.08-.54A.15.15,0,0,0,35.42,25.68Z" stroke="#fcd34d" stroke-linecap="round" stroke-linejoin="round" stroke-width="0.25" fill="url(#c)"/><path d="M41.66,29.22l3.1.86a.22.22,0,0,1,.16.16l.86,3.1a.23.23,0,0,0,.44,0l.86-3.1a.22.22,0,0,1,.16-.16l3.1-.86a.23.23,0,0,0,0-.44l-3.1-.86a.22.22,0,0,1-.16-.16l-.86-3.1a.23.23,0,0,0-.44,0l-.86,3.1a.22.22,0,0,1-.16.16l-3.1.86A.23.23,0,0,0,41.66,29.22Z" stroke="#fcd34d" stroke-linecap="round" stroke-linejoin="round" stroke-width="0.25" fill="url(#d)"/></svg>