<svg xmlns="http://www.w3.org/2000/svg" xmlns:xlink="http://www.w3.org/1999/xlink" viewBox="0 0 64 64"><defs><clipPath id="a"><path d="M41,48.94a7,7,0,0,1-7-7.1A7.12,7.12,0,0,1,37,36V15H21V48.94Z" fill="none"/></clipPath><linearGradient id="b" x1="23.61" y1="21.85" x2="37.27" y2="45.52" gradientUnits="userSpaceOnUse"><stop offset="0" stop-color="#3392d6"/><stop offset="0.45" stop-color="#3392d6"/><stop offset="1" stop-color="#2477b2"/></linearGradient><linearGradient id="c" x1="32.73" y1="19.16" x2="48.18" y2="45.93" gradientUnits="userSpaceOnUse"><stop offset="0" stop-color="#515a69" stop-opacity="0.05"/><stop offset="0.45" stop-color="#6b7280" stop-opacity="0.05"/><stop offset="1" stop-color="#384354" stop-opacity="0.1"/></linearGradient><linearGradient id="d" x1="32.48" y1="18.73" x2="48.43" y2="46.36" gradientUnits="userSpaceOnUse"><stop offset="0" stop-color="#d4d7dd"/><stop offset="0.45" stop-color="#d4d7dd"/><stop offset="1" stop-color="#bec1c6"/></linearGradient></defs><g clip-path="url(#a)"><path d="M32,17c-6.09,9-10,14.62-10,20.09a10,10,0,0,0,20,0C42,31.62,38.09,26,32,17Z" stroke="#2885c7" stroke-miterlimit="10" stroke-width="0.5" fill="url(#b)"/></g><circle cx="41" cy="42" r="4.5" fill="#ef4444"/><path d="M41,27V42" fill="none" stroke="#ef4444" stroke-linecap="round" stroke-miterlimit="10" stroke-width="3"/><path d="M48,41.9a7,7,0,1,1-14,0,7.12,7.12,0,0,1,3-5.83v-17a4,4,0,1,1,8,0v17A7.12,7.12,0,0,1,48,41.9ZM41.5,25H45m-3.5-4H45m-3.5,8H45" stroke-linecap="round" stroke-linejoin="round" fill="url(#c)" stroke="url(#d)"/></svg>