<svg xmlns="http://www.w3.org/2000/svg" xmlns:xlink="http://www.w3.org/1999/xlink" viewBox="0 0 64 64"><defs><linearGradient id="a" x1="40.76" y1="20.75" x2="47.76" y2="32.87" gradientTransform="translate(2.78 -4.77) rotate(6)" gradientUnits="userSpaceOnUse"><stop offset="0" stop-color="#875b34"/><stop offset="0.45" stop-color="#875b34"/><stop offset="1" stop-color="#624226"/></linearGradient><linearGradient id="b" x1="41.62" y1="16.91" x2="47.69" y2="27.42" gradientTransform="translate(2.78 -4.77) rotate(6)" gradientUnits="userSpaceOnUse"><stop offset="0" stop-color="#51cf66"/><stop offset="0.45" stop-color="#51cf66"/><stop offset="1" stop-color="#37b24d"/></linearGradient><linearGradient id="c" x1="21.06" y1="31.71" x2="28.46" y2="44.54" gradientUnits="userSpaceOnUse"><stop offset="0" stop-color="#3392d6"/><stop offset="0.45" stop-color="#3392d6"/><stop offset="1" stop-color="#2477b2"/></linearGradient><linearGradient id="d" x1="34.09" y1="32.74" x2="41.3" y2="45.22" gradientUnits="userSpaceOnUse"><stop offset="0" stop-color="#fbbf24"/><stop offset="0.45" stop-color="#fbbf24"/><stop offset="1" stop-color="#f59e0b"/></linearGradient><linearGradient id="e" x1="22.86" y1="16.33" x2="27.95" y2="25.15" gradientUnits="userSpaceOnUse"><stop offset="0" stop-color="#d4d7dd"/><stop offset="0.45" stop-color="#d4d7dd"/><stop offset="1" stop-color="#bec1c6"/></linearGradient><linearGradient id="f" x1="19.48" y1="21.39" x2="24.89" y2="30.76" xlink:href="#e"/></defs><path d="M45.12,19.79c.07-.68,0-1.24-.19-1.26l-.14,0c-.17,0-.37.51-.45,1.2L42.83,33.08c-.09.71,0,1.32.18,1.34l.35,0c.18,0,.39-.55.46-1.27Z" stroke="#744e2d" stroke-linecap="round" stroke-linejoin="round" stroke-width="0.5" fill="url(#a)"/><path d="M50,20.26a4.38,4.38,0,0,0-4-4.69,4.55,4.55,0,0,0-4.11,1.72l-.22,0A3.28,3.28,0,0,0,38,20.05a3.22,3.22,0,0,0,2.11,3.28,2.09,2.09,0,0,0-.27.82,2.18,2.18,0,0,0,2,2.34,2.3,2.3,0,0,0,1.52-.37,3.45,3.45,0,0,0,2.51,1.51,3.29,3.29,0,0,0,3.69-2.81,3.06,3.06,0,0,0-.64-2.18A4.08,4.08,0,0,0,50,20.26Z" stroke="#40c057" stroke-linecap="round" stroke-miterlimit="10" stroke-width="0.5" fill="url(#b)"/><path d="M32,34.33c-1.36,0-2.61-1.46-3.25-2.67a.28.28,0,0,0-.5,0c-.64,1.21-1.89,2.67-3.25,2.67s-2.61-1.46-3.25-2.67a.28.28,0,0,0-.5,0c-.64,1.21-1.89,2.67-3.25,2.67H17v6.13a2,2,0,0,0,2,2H32Z" stroke="#2885c7" stroke-linecap="round" stroke-linejoin="round" stroke-width="0.5" fill="url(#c)"/><path d="M47.5,40.28V33.72a2.1,2.1,0,0,0-2-2.22H39.35c-4.87,0-9.33,3.1-11.52,8l-1.33,3h19A2.1,2.1,0,0,0,47.5,40.28Z" stroke="#f8af18" stroke-miterlimit="10" stroke-width="0.5" fill="url(#d)"/><path d="M30.18,17.68a2.22,2.22,0,1,1,1.6,3.76H16" fill="none" stroke-linecap="round" stroke-miterlimit="10" stroke-width="2" stroke="url(#e)"/><path d="M23.73,28.32a2.22,2.22,0,1,0,1.6-3.76H16" fill="none" stroke-linecap="round" stroke-miterlimit="10" stroke-width="2" stroke="url(#f)"/></svg>