<svg xmlns="http://www.w3.org/2000/svg" xmlns:xlink="http://www.w3.org/1999/xlink" viewBox="0 0 64 64"><defs><clipPath id="a"><path d="M47.23,28.5a7.8,7.8,0,0,0-5.63,2.38,6.06,6.06,0,0,0-1.34-.16,5.91,5.91,0,0,0-5.86,5.11,6.16,6.16,0,0,0-3.4,5.5H9.76V19.47H47.23Z" fill="none"/></clipPath></defs><g clip-path="url(#a)"><path d="M13.5,41A18.25,18.25,0,0,1,32,23,18.25,18.25,0,0,1,50.5,41" fill="none" stroke="#000" stroke-miterlimit="10" stroke-width="3"/><path d="M19.5,41A12.26,12.26,0,0,1,32,29,12.26,12.26,0,0,1,44.5,41" fill="none" stroke="#000" stroke-miterlimit="10" stroke-width="3"/></g><path d="M53.09,37.72h-.17a5.86,5.86,0,0,0-10.67-4.46,3.9,3.9,0,0,0-5.9,3.34,4.23,4.23,0,0,0,0,.63,4.17,4.17,0,0,0,.79,8.26h15.9a3.89,3.89,0,1,0,0-7.78Z"/></svg>