<svg xmlns="http://www.w3.org/2000/svg" xmlns:xlink="http://www.w3.org/1999/xlink" viewBox="0 0 64 64"><defs><clipPath id="a"><rect y="4.5" width="64" height="32" fill="none"/></clipPath></defs><path d="M25.54,50.86a2.72,2.72,0,0,1-1.83-.52,2,2,0,0,1-.59-1.56,1.93,1.93,0,0,1,.66-1.55,2.82,2.82,0,0,1,1.85-.56,2.55,2.55,0,0,1,1.86.63,2.36,2.36,0,0,1,.65,1.76v1.88a2.36,2.36,0,0,1-.65,1.76,2.59,2.59,0,0,1-1.86.63,2.3,2.3,0,0,1-2.41-1.44.34.34,0,0,1,0-.29.4.4,0,0,1,.24-.18l.66-.24a.35.35,0,0,1,.28,0,.6.6,0,0,1,.19.25,1,1,0,0,0,1.05.58.93.93,0,0,0,1.06-1.05v-.18A5.43,5.43,0,0,1,25.54,50.86ZM25.63,48c-.7,0-1.06.26-1.06.78a.69.69,0,0,0,.25.58,1.3,1.3,0,0,0,.81.19,3.12,3.12,0,0,0,1.05-.14V49C26.68,48.33,26.33,48,25.63,48Z"/><path d="M31.67,50.25a.44.44,0,0,1,.08.29v.55a.3.3,0,0,1-.37.37h-2a.3.3,0,0,1-.37-.37v-.55a.3.3,0,0,1,.37-.37h2A.44.44,0,0,1,31.67,50.25Z"/><path d="M35.07,46.89a.39.39,0,0,1,.08.28v5.66a.41.41,0,0,1-.08.28.37.37,0,0,1-.29.09h-.73a.39.39,0,0,1-.29-.09.41.41,0,0,1-.08-.28V48.6l-.87.5c-.25.14-.43.1-.56-.14l-.31-.57a.37.37,0,0,1-.05-.29c0-.06.1-.13.23-.21L33.75,47a1,1,0,0,1,.52-.15h.51A.37.37,0,0,1,35.07,46.89Z"/><path d="M38.61,46.67a2.29,2.29,0,0,1,1.66.6,2,2,0,0,1,.61,1.46,2.09,2.09,0,0,1-.51,1.51,5.73,5.73,0,0,1-1.89,1.07l-.21.07-.23.08-.19.08a.38.38,0,0,0-.15.12.24.24,0,0,0-.05.14v.07h2.74a.3.3,0,0,1,.37.37v.59a.41.41,0,0,1-.08.28.39.39,0,0,1-.29.09h-3.9a.35.35,0,0,1-.28-.09.41.41,0,0,1-.08-.28v-.69a2,2,0,0,1,.14-.77,1.46,1.46,0,0,1,.42-.57,4.33,4.33,0,0,1,.53-.37,4.49,4.49,0,0,1,.64-.29A5.32,5.32,0,0,0,39,49.58a1,1,0,0,0,.39-.79.74.74,0,0,0-.22-.55.78.78,0,0,0-.6-.23,1,1,0,0,0-1,.66.54.54,0,0,1-.19.25.4.4,0,0,1-.28,0l-.69-.25a.32.32,0,0,1-.23-.47A2.36,2.36,0,0,1,38.61,46.67Z"/><g clip-path="url(#a)"><circle cx="32" cy="30" r="7.7"/><path d="M32,18.05V13.5m0,33V42m8.45-20.4,3.22-3.22M20.33,41.67l3.22-3.22m0-16.9-3.22-3.22M43.67,41.67l-3.22-3.22M20.05,30H15.5m33,0H44" fill="none" stroke="#000" stroke-linecap="round" stroke-miterlimit="10" stroke-width="3"/></g><line x1="21.5" y1="39" x2="42.5" y2="39" fill="none" stroke="#000" stroke-linecap="round" stroke-linejoin="round"/></svg>