<svg xmlns="http://www.w3.org/2000/svg" xmlns:xlink="http://www.w3.org/1999/xlink" viewBox="0 0 64 64"><defs><clipPath id="a"><path d="M8,8H56V32H41a9,9,0,0,0-9,9V56H8Z" fill="none"/></clipPath></defs><g clip-path="url(#a)"><circle cx="32" cy="32" r="10.5"/><path d="M32,15.71V9.5m0,45V48.29M43.52,20.48l4.39-4.39M16.09,47.91l4.39-4.39m0-23-4.39-4.39M47.91,47.91l-4.39-4.39M15.71,32H9.5m45,0H48.29" fill="none" stroke="#000" stroke-linecap="round" stroke-miterlimit="10" stroke-width="3"/></g><rect x="35" y="35" width="18" height="18" rx="6"/><path d="M44.11,43C46,43,47,43.8,47,45.47a2.26,2.26,0,0,1-.8,1.85A3.29,3.29,0,0,1,44,48a3,3,0,0,1-2.23-.76A2.84,2.84,0,0,1,41,45.12V42.88a2.81,2.81,0,0,1,.78-2.12A3,3,0,0,1,44,40a2.73,2.73,0,0,1,2.87,1.73.37.37,0,0,1,0,.35.53.53,0,0,1-.3.21l-.77.29a.42.42,0,0,1-.34,0,.67.67,0,0,1-.22-.31A1.23,1.23,0,0,0,44,41.61a1.11,1.11,0,0,0-1.27,1.25v.23A6.56,6.56,0,0,1,44.11,43ZM44,46.41q1.26,0,1.26-.93a.84.84,0,0,0-.29-.7,1.63,1.63,0,0,0-1-.23,3.7,3.7,0,0,0-1.26.17v.49Q42.74,46.41,44,46.41Z" fill="#fff"/></svg>