<?xml version="1.0" encoding="UTF-8"?><svg id="p" xmlns="http://www.w3.org/2000/svg" xmlns:xlink="http://www.w3.org/1999/xlink" viewBox="0 0 1280 640"><defs><linearGradient id="b" x1="99.45" y1="30.68" x2="232.64" y2="261.37" gradientTransform="matrix(1, 0, 0, 1, 0, 0)" gradientUnits="userSpaceOnUse"><stop offset="0" stop-color="#f3f7fe"/><stop offset=".45" stop-color="#f3f7fe"/><stop offset="1" stop-color="#deeafb"/></linearGradient><symbol id="a" viewBox="0 0 350 222"><path d="M291,107c-.85,0-1.68,.09-2.53,.13,1.59-6.46,2.53-13.18,2.53-20.13,0-46.39-37.61-84-84-84-30.2,0-56.6,15.99-71.4,39.92-8.38-4.99-18.13-7.92-28.6-7.92-30.93,0-56,25.07-56,56,0,3.1,.32,6.12,.8,9.08-27.78,5.25-48.8,29.61-48.8,58.92,0,33.14,26.86,60,60,60,1.35,0,2.67-.11,4-.2v.2h224c30.93,0,56-25.07,56-56s-25.07-56-56-56Z" fill="url(#b)" stroke="#e6effc" stroke-miterlimit="10" stroke-width="6"/></symbol><linearGradient id="d" x1="6" y1="169.61" x2="18" y2="190.39" gradientTransform="matrix(1, 0, 0, 1, 0, 0)" gradientUnits="userSpaceOnUse"><stop offset="0" stop-color="#fde68a"/><stop offset=".45" stop-color="#fde68a"/><stop offset="1" stop-color="#fde171"/></linearGradient><linearGradient id="e" x1="66" x2="78" y2="190.39" xlink:href="#d"/><linearGradient id="f" x1="38" y1="137.61" x2="50" y2="158.39" xlink:href="#d"/><linearGradient id="g" x1="98" y1="137.61" x2="110" y2="158.39" xlink:href="#d"/><linearGradient id="h" x1="70" y1="101.61" x2="82" y2="122.39" xlink:href="#d"/><linearGradient id="i" x1="130" y1="101.61" x2="142" y2="122.39" xlink:href="#d"/><linearGradient id="j" x1="102" y1="69.61" x2="114" y2="90.39" xlink:href="#d"/><linearGradient id="k" x1="162" y1="69.61" x2="174" y2="90.39" xlink:href="#d"/><linearGradient id="l" x1="134" y1="33.61" x2="146" y2="54.39" xlink:href="#d"/><linearGradient id="m" x1="194" y1="33.61" x2="206" y2="54.39" xlink:href="#d"/><linearGradient id="n" x1="166" y1="1.61" x2="178" y2="22.39" xlink:href="#d"/><linearGradient id="o" x1="226" y1="1.61" x2="238" y2="22.39" xlink:href="#d"/><symbol id="c" viewBox="0 0 244 192"><g><circle cx="12" cy="180" r="12" fill="url(#d)"/><circle cx="72" cy="180" r="12" fill="url(#e)"/><circle cx="44" cy="148" r="12" fill="url(#f)"/><circle cx="104" cy="148" r="12" fill="url(#g)"/><circle cx="76" cy="112" r="12" fill="url(#h)"/><circle cx="136" cy="112" r="12" fill="url(#i)"/><circle cx="108" cy="80" r="12" fill="url(#j)"/><circle cx="168" cy="80" r="12" fill="url(#k)"/><circle cx="140" cy="44" r="12" fill="url(#l)"/><circle cx="200" cy="44" r="12" fill="url(#m)"/><circle cx="172" cy="12" r="12" fill="url(#n)"/><circle cx="232" cy="12" r="12" fill="url(#o)"/></g></symbol><linearGradient id="q" x1="640" y1="640" x2="640" y2="0" gradientTransform="matrix(1, 0, 0, 1, 0, 0)" gradientUnits="userSpaceOnUse"><stop offset="0" stop-color="#f8fafc"/><stop offset="1" stop-color="#fff"/></linearGradient><linearGradient id="r" x1="302.04" y1="161.6" x2="337.33" y2="222.72" gradientTransform="matrix(1, 0, 0, 1, 0, 0)" gradientUnits="userSpaceOnUse"><stop offset="0" stop-color="#fbbf24"/><stop offset=".45" stop-color="#fbbf24"/><stop offset="1" stop-color="#f59e0b"/></linearGradient><linearGradient id="s" x1="414.55" y1="403.83" x2="470.35" y2="500.47" gradientTransform="matrix(1, 0, 0, 1, 0, 0)" gradientUnits="userSpaceOnUse"><stop offset="0" stop-color="#86c3db"/><stop offset=".45" stop-color="#86c3db"/><stop offset="1" stop-color="#5eafcf"/></linearGradient><linearGradient id="t" x1="1098.37" y1="270.67" x2="1115.17" y2="299.78" xlink:href="#r"/><linearGradient id="u" x1="1176.27" y1="274.57" x2="1210.1" y2="333.15" gradientTransform="matrix(1, 0, 0, 1, 0, 0)" gradientUnits="userSpaceOnUse"><stop offset="0" stop-color="#9ca3af"/><stop offset=".45" stop-color="#9ca3af"/><stop offset="1" stop-color="#6b7280"/></linearGradient><linearGradient id="v" x1="1112.77" y1="272.07" x2="1168.71" y2="368.96" xlink:href="#b"/><linearGradient id="w" x1="1121.58" y1="342.52" x2="1130.59" y2="358.13" xlink:href="#s"/><linearGradient id="x" x1="1145.1" y1="380.32" x2="1154.11" y2="395.93" xlink:href="#s"/><linearGradient id="y" x1="1168.62" y1="359.32" x2="1177.63" y2="374.93" xlink:href="#s"/><linearGradient id="z" x1="1108.43" y1="485.45" x2="1112.4" y2="495.8" gradientTransform="translate(-47.41 64.65) rotate(-9)" gradientUnits="userSpaceOnUse"><stop offset="0" stop-color="#0b65ed"/><stop offset=".45" stop-color="#0a5ad4"/><stop offset="1" stop-color="#0950bc"/></linearGradient><linearGradient id="aa" x1="1134.94" y1="468.39" x2="1138.92" y2="478.74" xlink:href="#z"/><linearGradient id="ab" x1="1152.26" y1="509.4" x2="1156.23" y2="519.75" xlink:href="#z"/><linearGradient id="ac" x1="88.76" y1="272.09" x2="144.7" y2="368.98" xlink:href="#b"/><linearGradient id="ad" x1="93.44" y1="298.99" x2="101.06" y2="318.84" xlink:href="#z"/><linearGradient id="ae" x1="113.27" y1="323.56" x2="120.89" y2="343.42" gradientTransform="translate(-47.32 65.74) rotate(-9)" xlink:href="#z"/><linearGradient id="af" x1="138.89" y1="311.62" x2="146.51" y2="331.48" gradientTransform="translate(-47.23 66.84) rotate(-9)" xlink:href="#z"/><linearGradient id="ag" x1="102.8" y1="327.7" x2="133.13" y2="380.23" gradientTransform="matrix(1, 0, 0, 1, 0, 0)" gradientUnits="userSpaceOnUse"><stop offset="0" stop-color="#f7b23b"/><stop offset=".45" stop-color="#f7b23b"/><stop offset="1" stop-color="#f59e0b"/></linearGradient><linearGradient id="ah" x1="817.57" y1="143.83" x2="853.56" y2="206.16" gradientTransform="matrix(1, 0, 0, 1, 0, 0)" gradientUnits="userSpaceOnUse"><stop offset="0" stop-color="#d4d7dd"/><stop offset=".45" stop-color="#d4d7dd"/><stop offset="1" stop-color="#bec1c6"/></linearGradient><linearGradient id="ai" x1="792.03" y1="182.1" x2="830.38" y2="248.53" xlink:href="#ah"/><clipPath id="aj"><polygon points="849.34 340.72 1064.38 340.72 849.34 555.76 849.34 340.72" fill="none"/></clipPath></defs><rect width="1280" height="640" fill="url(#q)"/><g><path d="M128,0V128H0V0H128m1-1H-1V129H129V-1h0Z" fill="#f1f5f9"/><path d="M256,0V128H128V0h128m1-1H127V129h130V-1h0Z" fill="#f1f5f9"/><path d="M384,0V128h-128V0h128m1-1H255V129h130V-1h0Z" fill="#f1f5f9"/><path d="M512,0V128h-128V0h128m1-1h-130V129h130V-1h0Z" fill="#f1f5f9"/><path d="M640,0V128h-128V0h128m1-1h-130V129h130V-1h0Z" fill="#f1f5f9"/><path d="M768,0V128h-128V0h128m1-1h-130V129h130V-1h0Z" fill="#f1f5f9"/><path d="M896,0V128h-128V0h128m1-1h-130V129h130V-1h0Z" fill="#f1f5f9"/><path d="M1024,0V128h-128V0h128m1-1h-130V129h130V-1h0Z" fill="#f1f5f9"/><path d="M1152,0V128h-128V0h128m1-1h-130V129h130V-1h0Z" fill="#f1f5f9"/><path d="M1280,0V128h-128V0h128m1-1h-130V129h130V-1h0Z" fill="#f1f5f9"/><path d="M128,128v128H0V128H128m1-1H-1v130H129V127h0Z" fill="#f1f5f9"/><path d="M256,128v128H128V128h128m1-1H127v130h130V127h0Z" fill="#f1f5f9"/><path d="M384,128v128h-128V128h128m1-1H255v130h130V127h0Z" fill="#f1f5f9"/><path d="M512,128v128h-128V128h128m1-1h-130v130h130V127h0Z" fill="#f1f5f9"/><path d="M640,128v128h-128V128h128m1-1h-130v130h130V127h0Z" fill="#f1f5f9"/><path d="M768,128v128h-128V128h128m1-1h-130v130h130V127h0Z" fill="#f1f5f9"/><path d="M896,128v128h-128V128h128m1-1h-130v130h130V127h0Z" fill="#f1f5f9"/><path d="M1024,128v128h-128V128h128m1-1h-130v130h130V127h0Z" fill="#f1f5f9"/><path d="M1152,128v128h-128V128h128m1-1h-130v130h130V127h0Z" fill="#f1f5f9"/><path d="M1280,128v128h-128V128h128m1-1h-130v130h130V127h0Z" fill="#f1f5f9"/><path d="M128,256v128H0v-128H128m1-1H-1v130H129V255h0Z" fill="#f1f5f9"/><path d="M256,256v128H128v-128h128m1-1H127v130h130V255h0Z" fill="#f1f5f9"/><path d="M384,256v128h-128v-128h128m1-1H255v130h130V255h0Z" fill="#f1f5f9"/><path d="M512,256v128h-128v-128h128m1-1h-130v130h130V255h0Z" fill="#f1f5f9"/><path d="M640,256v128h-128v-128h128m1-1h-130v130h130V255h0Z" fill="#f1f5f9"/><path d="M768,256v128h-128v-128h128m1-1h-130v130h130V255h0Z" fill="#f1f5f9"/><path d="M896,256v128h-128v-128h128m1-1h-130v130h130V255h0Z" fill="#f1f5f9"/><path d="M1024,256v128h-128v-128h128m1-1h-130v130h130V255h0Z" fill="#f1f5f9"/><path d="M1152,256v128h-128v-128h128m1-1h-130v130h130V255h0Z" fill="#f1f5f9"/><path d="M1280,256v128h-128v-128h128m1-1h-130v130h130V255h0Z" fill="#f1f5f9"/><path d="M128,384v128H0v-128H128m1-1H-1v130H129v-130h0Z" fill="#f1f5f9"/><path d="M256,384v128H128v-128h128m1-1H127v130h130v-130h0Z" fill="#f1f5f9"/><path d="M384,384v128h-128v-128h128m1-1H255v130h130v-130h0Z" fill="#f1f5f9"/><path d="M512,384v128h-128v-128h128m1-1h-130v130h130v-130h0Z" fill="#f1f5f9"/><path d="M640,384v128h-128v-128h128m1-1h-130v130h130v-130h0Z" fill="#f1f5f9"/><path d="M768,384v128h-128v-128h128m1-1h-130v130h130v-130h0Z" fill="#f1f5f9"/><path d="M896,384v128h-128v-128h128m1-1h-130v130h130v-130h0Z" fill="#f1f5f9"/><path d="M1024,384v128h-128v-128h128m1-1h-130v130h130v-130h0Z" fill="#f1f5f9"/><path d="M1152,384v128h-128v-128h128m1-1h-130v130h130v-130h0Z" fill="#f1f5f9"/><path d="M1280,384v128h-128v-128h128m1-1h-130v130h130v-130h0Z" fill="#f1f5f9"/><path d="M128,512v128H0v-128H128m1-1H-1v130H129v-130h0Z" fill="#f1f5f9"/><path d="M256,512v128H128v-128h128m1-1H127v130h130v-130h0Z" fill="#f1f5f9"/><path d="M384,512v128h-128v-128h128m1-1H255v130h130v-130h0Z" fill="#f1f5f9"/><path d="M512,512v128h-128v-128h128m1-1h-130v130h130v-130h0Z" fill="#f1f5f9"/><path d="M640,512v128h-128v-128h128m1-1h-130v130h130v-130h0Z" fill="#f1f5f9"/><path d="M768,512v128h-128v-128h128m1-1h-130v130h130v-130h0Z" fill="#f1f5f9"/><path d="M896,512v128h-128v-128h128m1-1h-130v130h130v-130h0Z" fill="#f1f5f9"/><path d="M1024,512v128h-128v-128h128m1-1h-130v130h130v-130h0Z" fill="#f1f5f9"/><path d="M1152,512v128h-128v-128h128m1-1h-130v130h130v-130h0Z" fill="#f1f5f9"/><path d="M1280,512v128h-128v-128h128m1-1h-130v130h130v-130h0Z" fill="#f1f5f9"/></g><g><path d="M391,353.35v-67.85h10.78l26.77,41.61h-5.49l26.67-41.61h10.88v67.85h-15.12v-42.38l2.7,.67-17.43,27.1h-10.01l-17.33-27.1,2.6-.67v42.38h-15.02Z" fill="#1f2937"/><path d="M495.38,354.4c-5.07,0-9.58-1.04-13.53-3.12-3.95-2.08-7.05-4.98-9.29-8.7-2.25-3.71-3.37-7.91-3.37-12.59s1.11-8.86,3.32-12.54c2.21-3.68,5.21-6.58,9-8.7,3.79-2.11,8.06-3.17,12.81-3.17s8.7,.99,12.23,2.98c3.53,1.99,6.31,4.74,8.33,8.26,2.02,3.52,3.03,7.56,3.03,12.11,0,.83-.05,1.71-.14,2.64-.1,.93-.27,2-.53,3.22l-40.34,.1v-10.09l34.09-.1-6.36,4.23c-.06-2.69-.48-4.92-1.25-6.68-.77-1.76-1.91-3.11-3.42-4.04-1.51-.93-3.36-1.39-5.54-1.39-2.31,0-4.32,.53-6.02,1.59-1.7,1.06-3.02,2.55-3.95,4.47-.93,1.92-1.4,4.26-1.4,7.02s.5,5.11,1.49,7.06c.99,1.96,2.41,3.46,4.24,4.52,1.83,1.06,4,1.59,6.5,1.59,2.31,0,4.4-.4,6.26-1.2,1.86-.8,3.5-2,4.91-3.6l8.09,8.07c-2.31,2.69-5.1,4.71-8.38,6.06-3.27,1.35-6.87,2.02-10.78,2.02Z" fill="#1f2937"/><path d="M520.12,319.14v-12.49h35.92v12.49h-35.92Zm10.59,34.21v-66.02h14.73v66.02h-14.73Z" fill="#1f2937"/><path d="M584.64,354.4c-5.07,0-9.58-1.04-13.53-3.12-3.95-2.08-7.05-4.98-9.29-8.7-2.25-3.71-3.37-7.91-3.37-12.59s1.11-8.86,3.32-12.54c2.21-3.68,5.21-6.58,9-8.7,3.79-2.11,8.06-3.17,12.81-3.17s8.7,.99,12.23,2.98c3.53,1.99,6.31,4.74,8.33,8.26,2.02,3.52,3.03,7.56,3.03,12.11,0,.83-.05,1.71-.14,2.64-.1,.93-.27,2-.53,3.22l-40.35,.1v-10.09l34.09-.1-6.36,4.23c-.06-2.69-.48-4.92-1.25-6.68-.77-1.76-1.91-3.11-3.42-4.04-1.51-.93-3.35-1.39-5.54-1.39-2.31,0-4.32,.53-6.02,1.59-1.7,1.06-3.02,2.55-3.95,4.47-.93,1.92-1.4,4.26-1.4,7.02s.5,5.11,1.49,7.06c1,1.96,2.41,3.46,4.24,4.52s4,1.59,6.5,1.59c2.31,0,4.4-.4,6.26-1.2,1.86-.8,3.5-2,4.91-3.6l8.09,8.07c-2.31,2.69-5.1,4.71-8.38,6.06-3.27,1.35-6.87,2.02-10.78,2.02Z" fill="#1f2937"/><path d="M636.82,354.4c-4.81,0-9.16-1.07-13.05-3.22-3.88-2.14-6.95-5.08-9.2-8.79-2.25-3.71-3.37-7.88-3.37-12.49s1.12-8.74,3.37-12.4c2.25-3.65,5.3-6.55,9.15-8.7,3.85-2.15,8.22-3.22,13.1-3.22s9.24,1.06,13.1,3.17c3.85,2.11,6.9,5.01,9.15,8.7,2.25,3.69,3.37,7.83,3.37,12.44s-1.12,8.78-3.37,12.49c-2.25,3.72-5.3,6.65-9.15,8.79-3.85,2.15-8.22,3.22-13.1,3.22Zm0-13.36c2.12,0,3.98-.46,5.59-1.39,1.6-.93,2.84-2.24,3.71-3.94,.87-1.7,1.3-3.64,1.3-5.81s-.45-4.08-1.35-5.72c-.9-1.63-2.13-2.91-3.71-3.84-1.57-.93-3.42-1.39-5.54-1.39s-3.88,.47-5.49,1.39c-1.61,.93-2.86,2.23-3.76,3.89-.9,1.67-1.35,3.59-1.35,5.77s.45,4.02,1.35,5.72c.9,1.7,2.15,3.01,3.76,3.94,1.6,.93,3.43,1.39,5.49,1.39Z" fill="#1f2937"/><path d="M692.38,354.4c-4.82,0-9.18-1.06-13.1-3.17-3.92-2.11-7-5.03-9.24-8.75-2.25-3.71-3.37-7.88-3.37-12.49s1.14-8.86,3.42-12.54c2.28-3.68,5.38-6.58,9.29-8.7,3.91-2.11,8.31-3.17,13.19-3.17,3.66,0,7.01,.62,10.06,1.87,3.05,1.25,5.76,3.12,8.14,5.62l-9.44,9.42c-1.09-1.22-2.36-2.11-3.8-2.69-1.44-.58-3.1-.87-4.96-.87-2.12,0-4,.47-5.63,1.39-1.64,.93-2.92,2.21-3.85,3.84-.93,1.63-1.4,3.54-1.4,5.72s.46,4.1,1.4,5.77c.93,1.67,2.23,2.98,3.9,3.94,1.67,.96,3.53,1.44,5.58,1.44,1.93,0,3.64-.34,5.15-1.01s2.81-1.62,3.9-2.84l9.34,9.42c-2.44,2.56-5.2,4.5-8.28,5.81-3.08,1.31-6.52,1.97-10.3,1.97Z" fill="#1f2937"/><path d="M738.89,354.4c-4.81,0-9.16-1.07-13.05-3.22-3.88-2.14-6.95-5.08-9.2-8.79-2.25-3.71-3.37-7.88-3.37-12.49s1.12-8.74,3.37-12.4c2.25-3.65,5.3-6.55,9.15-8.7,3.85-2.15,8.22-3.22,13.1-3.22s9.24,1.06,13.1,3.17,6.9,5.01,9.15,8.7c2.25,3.69,3.37,7.83,3.37,12.44s-1.12,8.78-3.37,12.49c-2.25,3.72-5.3,6.65-9.15,8.79-3.85,2.15-8.22,3.22-13.1,3.22Zm0-13.36c2.12,0,3.98-.46,5.58-1.39,1.6-.93,2.84-2.24,3.71-3.94,.87-1.7,1.3-3.64,1.3-5.81s-.45-4.08-1.35-5.72c-.9-1.63-2.14-2.91-3.71-3.84-1.57-.93-3.42-1.39-5.54-1.39s-3.88,.47-5.49,1.39c-1.6,.93-2.86,2.23-3.75,3.89-.9,1.67-1.35,3.59-1.35,5.77s.45,4.02,1.35,5.72c.9,1.7,2.15,3.01,3.75,3.94,1.6,.93,3.43,1.39,5.49,1.39Z" fill="#1f2937"/><path d="M771.82,353.35v-46.7h14.73v46.7h-14.73Zm30.91,0v-26.62c0-2.43-.76-4.4-2.26-5.91-1.51-1.5-3.42-2.26-5.73-2.26-1.61,0-3.02,.34-4.24,1.01-1.22,.67-2.18,1.63-2.89,2.88-.71,1.25-1.06,2.68-1.06,4.28l-5.68-2.79c0-3.65,.8-6.85,2.41-9.61,1.6-2.75,3.83-4.88,6.69-6.39,2.86-1.5,6.08-2.26,9.68-2.26s6.53,.82,9.2,2.45c2.66,1.63,4.77,3.8,6.31,6.49,1.54,2.69,2.31,5.64,2.31,8.84v29.89h-14.73Z" fill="#1f2937"/><path d="M843.94,354.5c-2.76,0-5.47-.35-8.14-1.06-2.66-.7-5.14-1.71-7.41-3.03-2.28-1.31-4.22-2.84-5.83-4.56l8.38-8.46c1.54,1.67,3.37,2.96,5.49,3.89,2.12,.93,4.43,1.39,6.93,1.39,1.73,0,3.06-.26,4-.77,.93-.51,1.4-1.22,1.4-2.11,0-1.15-.56-2.03-1.68-2.64-1.12-.61-2.55-1.15-4.28-1.63-1.73-.48-3.56-1.01-5.49-1.59-1.93-.58-3.75-1.38-5.49-2.4-1.73-1.02-3.15-2.45-4.24-4.28-1.09-1.83-1.64-4.15-1.64-6.97,0-3.01,.77-5.62,2.31-7.83s3.72-3.95,6.55-5.24c2.82-1.28,6.13-1.92,9.92-1.92,3.98,0,7.65,.69,11.02,2.07,3.37,1.38,6.12,3.41,8.23,6.1l-8.38,8.46c-1.48-1.73-3.13-2.95-4.96-3.65-1.83-.7-3.61-1.06-5.34-1.06s-2.92,.24-3.76,.72c-.84,.48-1.25,1.17-1.25,2.07,0,.96,.54,1.73,1.64,2.31,1.09,.58,2.5,1.09,4.24,1.54,1.73,.45,3.56,.99,5.49,1.63,1.93,.64,3.75,1.51,5.49,2.59,1.73,1.09,3.14,2.55,4.24,4.37,1.09,1.83,1.64,4.21,1.64,7.16,0,4.55-1.72,8.17-5.15,10.86-3.44,2.69-8.07,4.04-13.91,4.04Z" fill="#1f2937"/><path d="M880.24,354.4c-2.5,0-4.59-.87-6.26-2.59-1.67-1.73-2.5-3.81-2.5-6.25,0-2.56,.83-4.69,2.5-6.39,1.67-1.7,3.76-2.55,6.26-2.55s4.67,.85,6.31,2.55c1.64,1.7,2.45,3.83,2.45,6.39s-.82,4.52-2.45,6.25c-1.64,1.73-3.74,2.59-6.31,2.59Z" fill="#0055ce"/></g><g><circle cx="319.69" cy="192.16" r="35.28" fill="url(#r)" stroke="#f8af18" stroke-miterlimit="10" stroke-width="2.52"/><path d="M319.69,137.42v-20.86m0,151.2v-20.86m38.71-93.46l14.75-14.75m-106.91,106.91l14.75-14.75m0-77.42l-14.75-14.75m106.91,106.91l-14.75-14.75m-93.46-38.71h-20.86m151.2,0h-20.86" fill="none" stroke="#fbbf24" stroke-linecap="round" stroke-miterlimit="10" stroke-width="10.08"/></g><path d="M497.68,462.46c-31.13,0-56.37-24.9-56.37-55.62,0-4.83,.69-9.48,1.86-13.95-28.22,3.05-50.18,26.62-50.18,55.26,0,30.72,25.24,55.62,56.37,55.62,26.24,0,48.23-17.72,54.51-41.67-2.04,.22-4.1,.35-6.19,.35Z" fill="url(#s)" stroke="#72b9d5" stroke-linecap="round" stroke-linejoin="round" stroke-width="2.52"/><g><g><g><circle cx="1106.77" cy="285.22" r="16.8" fill="url(#t)" stroke="#f8af18" stroke-miterlimit="10" stroke-width="1.68"/><path d="M1106.77,257.24v-10.66m0,77.28v-10.66m19.79-47.77l7.54-7.54m-54.65,54.65l7.54-7.54m0-39.57l-7.54-7.54m54.65,54.65l-7.54-7.54m-58.43-19.79h10.66m66.62,0h-10.66" fill="none" stroke="#fbbf24" stroke-linecap="round" stroke-miterlimit="10" stroke-width="5.04"/></g><g><path d="M1154.37,309.62c0,7.52,6.09,13.61,13.61,13.61h54.42v-.05c.32,.02,.64,.05,.97,.05,8.05,0,14.58-6.53,14.58-14.58,0-7.12-5.11-13.04-11.86-14.32,.12-.72,.19-1.45,.19-2.21,0-7.52-6.09-13.61-13.61-13.61-2.54,0-4.91,.71-6.95,1.92-3.6-5.81-10.01-9.7-17.35-9.7-11.27,0-20.41,9.14-20.41,20.42,0,1.69,.23,3.32,.61,4.89-.21,0-.41-.03-.61-.03-7.51,0-13.61,6.09-13.61,13.61Z" fill="url(#u)" stroke="#848b98" stroke-miterlimit="10" stroke-width=".42"/><path d="M1193.22,304.12c-.36,0-.71,.04-1.06,.05,.67-2.71,1.06-5.53,1.06-8.45,0-19.48-15.8-35.28-35.28-35.28-12.68,0-23.77,6.72-29.99,16.76-3.52-2.1-7.62-3.32-12.01-3.32-12.99,0-23.52,10.53-23.52,23.52,0,1.3,.13,2.57,.34,3.81-11.67,2.21-20.5,12.44-20.5,24.75,0,13.92,11.28,25.2,25.2,25.2,.57,0,1.12-.05,1.68-.08v.08h94.08c12.99,0,23.52-10.53,23.52-23.52s-10.53-23.52-23.52-23.52Z" fill="url(#v)" stroke="#e6effc" stroke-miterlimit="10" stroke-width="2.52"/></g></g><g><g><path d="M1134.31,353.07l-2.43-1.38c.22-.91,.21-1.84,0-2.72l2.43-1.39c.81-.46,1.09-1.49,.62-2.29-.47-.8-1.51-1.08-2.32-.61l-2.43,1.39c-.33-.31-.7-.59-1.11-.82-.41-.23-.84-.41-1.28-.54v-2.77c0-.93-.76-1.68-1.7-1.68s-1.7,.75-1.7,1.68v2.77c-.88,.26-1.7,.72-2.39,1.36l-2.43-1.38c-.81-.46-1.85-.19-2.32,.61-.47,.8-.19,1.83,.62,2.29l2.43,1.38c-.22,.91-.21,1.84,0,2.72l-2.43,1.39c-.81,.46-1.09,1.49-.62,2.29,.32,.54,.89,.84,1.48,.84,.29,0,.58-.07,.85-.23l2.43-1.39c.33,.31,.7,.59,1.11,.82,.41,.23,.84,.41,1.28,.53v2.77c0,.93,.76,1.68,1.7,1.68s1.7-.75,1.7-1.68v-2.78c.88-.26,1.7-.71,2.39-1.35l2.43,1.39c.27,.15,.56,.23,.85,.23,.59,0,1.16-.3,1.48-.84,.47-.8,.19-1.83-.62-2.29Zm-9.5-.56c-1.22-.7-1.64-2.24-.93-3.44,.47-.81,1.33-1.26,2.22-1.26,.43,0,.87,.11,1.27,.34,1.22,.7,1.64,2.24,.93,3.44-.7,1.2-2.27,1.62-3.49,.92Z" fill="url(#w)" stroke="#86c3db" stroke-miterlimit="10" stroke-width=".42"/><path d="M1157.83,390.87l-2.43-1.38c.22-.91,.21-1.84,0-2.72l2.43-1.39c.81-.46,1.09-1.49,.62-2.29-.47-.8-1.51-1.08-2.32-.61l-2.43,1.39c-.33-.31-.7-.59-1.11-.82-.41-.23-.84-.41-1.28-.54v-2.77c0-.93-.76-1.68-1.7-1.68s-1.7,.75-1.7,1.68v2.77c-.88,.26-1.7,.72-2.39,1.36l-2.43-1.38c-.81-.46-1.85-.19-2.32,.61-.47,.8-.19,1.83,.62,2.29l2.43,1.38c-.22,.91-.21,1.84,0,2.72l-2.43,1.39c-.81,.46-1.09,1.49-.62,2.29,.32,.54,.89,.84,1.48,.84,.29,0,.58-.07,.85-.23l2.43-1.39c.33,.31,.7,.59,1.11,.82,.41,.23,.84,.41,1.28,.53v2.77c0,.93,.76,1.68,1.7,1.68s1.7-.75,1.7-1.68v-2.78c.88-.26,1.7-.71,2.39-1.35l2.43,1.39c.27,.15,.56,.23,.85,.23,.59,0,1.16-.3,1.48-.84,.47-.8,.19-1.83-.62-2.29Zm-9.5-.56c-1.22-.7-1.64-2.24-.93-3.44,.47-.81,1.33-1.26,2.22-1.26,.43,0,.87,.11,1.27,.34,1.22,.7,1.64,2.24,.93,3.44-.7,1.2-2.27,1.62-3.49,.92Z" fill="url(#x)" stroke="#86c3db" stroke-miterlimit="10" stroke-width=".42"/><path d="M1181.35,369.87l-2.43-1.38c.22-.91,.21-1.84,0-2.72l2.43-1.39c.81-.46,1.09-1.49,.62-2.29-.47-.8-1.51-1.08-2.32-.61l-2.43,1.39c-.33-.31-.7-.59-1.11-.82-.41-.23-.84-.41-1.28-.54v-2.77c0-.93-.76-1.68-1.7-1.68s-1.7,.75-1.7,1.68v2.77c-.88,.26-1.7,.72-2.39,1.36l-2.43-1.38c-.81-.46-1.85-.19-2.32,.61-.47,.8-.19,1.83,.62,2.29l2.43,1.38c-.22,.91-.21,1.84,0,2.72l-2.43,1.39c-.81,.46-1.09,1.49-.62,2.29,.32,.54,.89,.84,1.48,.84,.29,0,.58-.07,.85-.23l2.43-1.39c.33,.31,.7,.59,1.11,.82,.41,.23,.84,.41,1.28,.53v2.77c0,.93,.76,1.68,1.7,1.68s1.7-.75,1.7-1.68v-2.78c.88-.26,1.7-.71,2.39-1.35l2.43,1.39c.27,.15,.56,.23,.85,.23,.59,0,1.16-.3,1.48-.84,.47-.8,.19-1.83-.62-2.29Zm-9.5-.56c-1.22-.7-1.64-2.24-.93-3.44,.47-.81,1.33-1.26,2.22-1.26,.43,0,.87,.11,1.27,.34,1.22,.7,1.64,2.24,.93,3.44-.7,1.2-2.27,1.62-3.49,.92Z" fill="url(#y)" stroke="#86c3db" stroke-miterlimit="10" stroke-width=".42"/></g><g><path d="M1126.09,381.4c-1.86,0-3.36-1.5-3.36-3.36v-5.04c0-1.86,1.5-3.36,3.36-3.36s3.36,1.5,3.36,3.36v5.04c0,1.86-1.5,3.36-3.36,3.36Z" fill="url(#z)" stroke="#0a5ad4" stroke-miterlimit="10" stroke-width=".42"/><path d="M1149.61,360.4c-1.86,0-3.36-1.5-3.36-3.36v-5.04c0-1.86,1.5-3.36,3.36-3.36s3.36,1.5,3.36,3.36v5.04c0,1.86-1.5,3.36-3.36,3.36Z" fill="url(#aa)" stroke="#0a5ad4" stroke-miterlimit="10" stroke-width=".42"/><path d="M1173.13,398.2c-1.86,0-3.36-1.5-3.36-3.36v-5.04c0-1.86,1.5-3.36,3.36-3.36s3.36,1.5,3.36,3.36v5.04c0,1.86-1.5,3.36-3.36,3.36Z" fill="url(#ab)" stroke="#0a5ad4" stroke-miterlimit="10" stroke-width=".42"/></g></g></g><g><path d="M169.21,304.15c-.36,0-.71,.04-1.06,.05,.67-2.71,1.06-5.53,1.06-8.45,0-19.48-15.8-35.28-35.28-35.28-12.68,0-23.77,6.72-29.99,16.76-3.52-2.1-7.62-3.32-12.01-3.32-12.99,0-23.52,10.53-23.52,23.52,0,1.3,.13,2.57,.34,3.81-11.67,2.21-20.5,12.44-20.5,24.75,0,13.92,11.28,25.2,25.2,25.2,.57,0,1.12-.05,1.68-.08v.08h94.08c12.99,0,23.52-10.53,23.52-23.52s-10.53-23.52-23.52-23.52Z" fill="url(#ac)" stroke="#e6effc" stroke-miterlimit="10" stroke-width="2.52"/><g><path d="M96.97,366.31c-1.86,0-3.36-1.5-3.36-3.36v-16.8c0-1.86,1.5-3.36,3.36-3.36s3.36,1.5,3.36,3.36v16.8c0,1.86-1.5,3.36-3.36,3.36Z" fill="url(#ad)" stroke="#0a5ad4" stroke-miterlimit="10" stroke-width=".42"/><path d="M120.49,388.57c-1.86,0-3.36-1.5-3.36-3.36v-16.8c0-1.86,1.5-3.36,3.36-3.36s3.36,1.5,3.36,3.36v16.8c0,1.86-1.5,3.36-3.36,3.36Z" fill="url(#ae)" stroke="#0a5ad4" stroke-miterlimit="10" stroke-width=".42"/><path d="M144.01,373.87c-1.86,0-3.36-1.5-3.36-3.36v-16.8c0-1.86,1.5-3.36,3.36-3.36s3.36,1.5,3.36,3.36v16.8c0,1.86-1.5,3.36-3.36,3.36Z" fill="url(#af)" stroke="#0a5ad4" stroke-miterlimit="10" stroke-width=".42"/></g><polygon points="113.77 321.37 100.33 361.69 113.77 361.69 107.05 395.29 140.65 348.25 120.49 348.25 133.93 321.37 113.77 321.37" fill="url(#ag)" stroke="#f6a823" stroke-miterlimit="10" stroke-width="1.68"/></g><g><path d="M871.61,151.88c3.06-3.18,7.35-5.16,12.11-5.16,9.28,0,16.8,7.52,16.8,16.8s-7.52,16.8-16.8,16.8h-119.28" fill="none" stroke="url(#ah)" stroke-linecap="round" stroke-miterlimit="10" stroke-width="10.08"/><path d="M822.89,232.28c3.06,3.18,7.35,5.16,12.11,5.16,9.28,0,16.8-7.52,16.8-16.8s-7.52-16.8-16.8-16.8h-70.56" fill="none" stroke="url(#ai)" stroke-linecap="round" stroke-miterlimit="10" stroke-width="10.08"/></g><g><g clip-path="url(#aj)"><use width="350" height="222" transform="translate(885.04 401.62) scale(.42)" xlink:href="#a"/></g><use width="244" height="192" transform="translate(929.98 417.16) scale(.42)" xlink:href="#c"/></g><g><path d="M475,406.21l8.68-20.14h2.41l8.62,20.14h-3.74l-6.75-16.31h1.27l-6.81,16.31h-3.67Zm4.28-3.88v-2.88h11.18v2.88h-11.18Z" fill="#0055ce"/><path d="M497.26,406.21v-13.81h3.31v13.81h-3.31Zm9.91,0v-7.97c0-.92-.31-1.68-.92-2.27-.61-.59-1.4-.89-2.37-.89-.64,0-1.22,.13-1.72,.4-.5,.27-.89,.64-1.17,1.12s-.42,1.03-.42,1.64l-1.3-.69c0-1.05,.24-1.99,.72-2.8,.48-.81,1.15-1.46,2-1.93,.85-.47,1.81-.71,2.88-.71s2.05,.26,2.89,.79c.84,.53,1.51,1.21,1.99,2.04,.48,.83,.72,1.7,.72,2.6v8.66h-3.31Z" fill="#0055ce"/><path d="M515.55,389.87c-.56,0-1.03-.18-1.4-.55-.37-.36-.56-.81-.56-1.35s.19-.99,.56-1.35,.84-.55,1.4-.55,1.06,.18,1.42,.55c.36,.36,.54,.81,.54,1.35s-.18,.99-.54,1.35c-.36,.37-.83,.55-1.42,.55Zm-1.66,16.34v-13.81h3.31v13.81h-3.31Z" fill="#0055ce"/><path d="M520.91,406.21v-13.81h3.31v13.81h-3.31Zm9.61,0v-8.23c0-.92-.3-1.64-.9-2.14-.6-.51-1.35-.76-2.23-.76-.6,0-1.14,.12-1.61,.35s-.85,.56-1.13,.99-.42,.95-.42,1.57l-1.3-.69c0-1.05,.24-1.97,.72-2.73,.48-.77,1.13-1.37,1.96-1.8,.82-.43,1.75-.65,2.77-.65s1.95,.21,2.77,.63c.82,.42,1.48,1.02,1.96,1.78,.48,.77,.72,1.69,.72,2.76v8.92h-3.31Zm9.61,0v-8.23c0-.92-.3-1.64-.9-2.14-.6-.51-1.35-.76-2.23-.76-.58,0-1.12,.12-1.6,.35-.48,.23-.86,.56-1.14,.99s-.42,.95-.42,1.57l-1.87-.69c.1-1.05,.42-1.97,.96-2.73,.54-.77,1.24-1.37,2.09-1.8,.85-.43,1.79-.65,2.82-.65s1.99,.21,2.83,.63c.84,.42,1.52,1.02,2.02,1.78,.5,.77,.75,1.69,.75,2.76v8.92h-3.31Z" fill="#0055ce"/><path d="M552.91,406.5c-1.31,0-2.49-.32-3.54-.95-1.05-.63-1.89-1.49-2.5-2.57-.61-1.08-.92-2.3-.92-3.64s.31-2.58,.92-3.67c.61-1.08,1.45-1.95,2.5-2.59,1.05-.64,2.23-.96,3.54-.96,1.1,0,2.08,.23,2.94,.68,.85,.45,1.53,1.07,2.03,1.86,.5,.79,.75,1.68,.75,2.68v3.97c0,1-.25,1.89-.74,2.68s-1.17,1.4-2.03,1.86c-.86,.45-1.85,.68-2.95,.68Zm.54-2.99c1.22,0,2.21-.39,2.97-1.18s1.13-1.79,1.13-3.02c0-.82-.17-1.55-.51-2.19-.34-.63-.82-1.13-1.43-1.48-.61-.35-1.33-.53-2.15-.53s-1.51,.18-2.12,.53c-.61,.36-1.09,.85-1.45,1.48-.35,.63-.53,1.36-.53,2.19s.18,1.55,.53,2.19c.35,.63,.83,1.13,1.45,1.48s1.32,.53,2.12,.53Zm3.89,2.7v-3.71l.57-3.37-.57-3.34v-3.39h3.31v13.81h-3.31Z" fill="#0055ce"/><path d="M563.06,395.28v-2.88h10.24v2.88h-10.24Zm3.46,10.93v-19.56h3.31v19.56h-3.31Z" fill="#0055ce"/><path d="M582.01,406.5c-1.45,0-2.75-.31-3.9-.93-1.15-.62-2.07-1.48-2.74-2.58-.67-1.09-1.01-2.32-1.01-3.68s.33-2.58,.99-3.67c.66-1.08,1.56-1.94,2.7-2.57s2.39-.95,3.78-.95,2.54,.3,3.57,.89c1.03,.59,1.85,1.41,2.44,2.45s.89,2.21,.89,3.54c0,.23-.01,.47-.05,.71s-.08,.5-.14,.79h-11.87v-2.59h10.15l-1.24,1.04c-.04-.84-.21-1.55-.51-2.13-.3-.58-.73-1.02-1.28-1.32-.55-.31-1.23-.46-2.03-.46-.84,0-1.58,.17-2.2,.52s-1.1,.83-1.45,1.45c-.34,.62-.51,1.37-.51,2.23s.18,1.62,.54,2.27c.36,.65,.87,1.16,1.54,1.51s1.43,.53,2.29,.53c.74,0,1.43-.12,2.06-.37s1.17-.61,1.61-1.09l2.11,2.04c-.7,.79-1.56,1.38-2.56,1.78s-2.07,.6-3.19,.6Z" fill="#0055ce"/><path d="M597.43,406.5c-1.31,0-2.49-.32-3.54-.95-1.05-.63-1.89-1.49-2.5-2.57s-.92-2.3-.92-3.64,.31-2.58,.92-3.67,1.45-1.95,2.5-2.59c1.05-.64,2.23-.96,3.54-.96,1.1,0,2.08,.23,2.94,.68,.85,.45,1.53,1.07,2.03,1.86s.75,1.68,.75,2.68v3.97c0,1-.25,1.89-.74,2.68-.49,.79-1.17,1.4-2.03,1.86-.86,.45-1.85,.68-2.95,.68Zm.54-2.99c.82,0,1.54-.18,2.15-.53,.61-.35,1.09-.85,1.43-1.48s.51-1.36,.51-2.19-.17-1.55-.51-2.19c-.34-.63-.82-1.13-1.43-1.48-.61-.35-1.32-.53-2.12-.53s-1.54,.18-2.15,.53c-.61,.36-1.1,.85-1.45,1.48-.35,.63-.53,1.36-.53,2.19s.18,1.55,.53,2.19c.35,.63,.83,1.13,1.45,1.48,.61,.35,1.32,.53,2.12,.53Zm7.2,2.7h-3.31v-3.71l.57-3.37-.57-3.34v-10.3h3.31v20.71Z" fill="#0055ce"/><path d="M620.75,406.21l-6.93-20.14h3.4l5.21,15.51h-.9l5.09-15.51h2.41l5.09,15.51h-.9l5.21-15.51h3.4l-6.93,20.14h-2.41l-5.12-15.48h.9l-5.12,15.48h-2.41Z" fill="#0055ce"/><path d="M649.07,406.5c-1.45,0-2.75-.31-3.9-.93-1.16-.62-2.07-1.48-2.74-2.58-.67-1.09-1.01-2.32-1.01-3.68s.33-2.58,.99-3.67c.66-1.08,1.56-1.94,2.7-2.57,1.13-.63,2.39-.95,3.78-.95s2.54,.3,3.57,.89,1.85,1.41,2.44,2.45c.59,1.04,.89,2.21,.89,3.54,0,.23-.02,.47-.05,.71-.03,.24-.08,.5-.14,.79h-11.87v-2.59h10.15l-1.23,1.04c-.04-.84-.21-1.55-.51-2.13-.3-.58-.73-1.02-1.28-1.32-.55-.31-1.23-.46-2.03-.46-.84,0-1.58,.17-2.2,.52-.62,.35-1.11,.83-1.45,1.45-.34,.62-.51,1.37-.51,2.23s.18,1.62,.54,2.27,.87,1.16,1.54,1.51,1.43,.53,2.29,.53c.74,0,1.43-.12,2.06-.37s1.17-.61,1.61-1.09l2.11,2.04c-.7,.79-1.56,1.38-2.56,1.78-1.01,.4-2.07,.6-3.19,.6Z" fill="#0055ce"/><path d="M664.49,406.5c-1.31,0-2.49-.32-3.54-.95-1.05-.63-1.89-1.49-2.5-2.57s-.92-2.3-.92-3.64,.31-2.58,.92-3.67,1.45-1.95,2.5-2.59c1.05-.64,2.23-.96,3.54-.96,1.1,0,2.08,.23,2.94,.68,.85,.45,1.53,1.07,2.03,1.86s.75,1.68,.75,2.68v3.97c0,1-.25,1.89-.74,2.68-.49,.79-1.17,1.4-2.03,1.86-.86,.45-1.85,.68-2.95,.68Zm.54-2.99c1.22,0,2.21-.39,2.97-1.18s1.13-1.79,1.13-3.02c0-.82-.17-1.55-.51-2.19-.34-.63-.82-1.13-1.43-1.48-.61-.35-1.33-.53-2.15-.53s-1.51,.18-2.12,.53c-.61,.36-1.1,.85-1.45,1.48-.35,.63-.53,1.36-.53,2.19s.18,1.55,.53,2.19c.35,.63,.83,1.13,1.45,1.48,.61,.35,1.32,.53,2.12,.53Zm3.89,2.7v-3.71l.57-3.37-.57-3.34v-3.39h3.31v13.81h-3.31Z" fill="#0055ce"/><path d="M674.64,395.28v-2.88h10.24v2.88h-10.24Zm3.46,10.93v-19.56h3.31v19.56h-3.31Z" fill="#0055ce"/><path d="M687.3,406.21v-20.71h3.31v20.71h-3.31Zm9.91,0v-7.97c0-.92-.31-1.68-.92-2.27-.61-.59-1.4-.89-2.37-.89-.64,0-1.22,.13-1.72,.4-.5,.27-.89,.64-1.17,1.12s-.42,1.03-.42,1.64l-1.3-.69c0-1.05,.24-1.99,.72-2.8,.48-.81,1.15-1.46,2-1.93,.85-.47,1.81-.71,2.88-.71s2.05,.23,2.89,.69c.84,.46,1.51,1.1,1.99,1.91,.48,.82,.72,1.76,.72,2.83v8.66h-3.31Z" fill="#0055ce"/><path d="M710.61,406.5c-1.45,0-2.75-.31-3.9-.93-1.16-.62-2.07-1.48-2.74-2.58-.67-1.09-1.01-2.32-1.01-3.68s.33-2.58,.99-3.67c.66-1.08,1.56-1.94,2.7-2.57s2.39-.95,3.78-.95,2.54,.3,3.57,.89,1.85,1.41,2.44,2.45c.59,1.04,.89,2.21,.89,3.54,0,.23-.01,.47-.05,.71s-.08,.5-.14,.79h-11.87v-2.59h10.15l-1.24,1.04c-.04-.84-.21-1.55-.51-2.13-.3-.58-.73-1.02-1.28-1.32-.55-.31-1.23-.46-2.03-.46-.84,0-1.58,.17-2.2,.52s-1.1,.83-1.45,1.45c-.34,.62-.51,1.37-.51,2.23s.18,1.62,.54,2.27c.36,.65,.87,1.16,1.54,1.51s1.43,.53,2.29,.53c.74,0,1.43-.12,2.06-.37s1.17-.61,1.61-1.09l2.11,2.04c-.7,.79-1.56,1.38-2.56,1.78-1.01,.4-2.07,.6-3.19,.6Z" fill="#0055ce"/><path d="M719.98,406.21v-13.81h3.31v13.81h-3.31Zm3.31-7.68l-1.14-.55c0-1.74,.41-3.16,1.22-4.24,.81-1.08,2.04-1.63,3.69-1.63,.72,0,1.38,.13,1.96,.37s1.12,.65,1.63,1.21l-2.17,2.13c-.26-.27-.55-.46-.87-.57-.32-.12-.69-.17-1.12-.17-.92,0-1.69,.28-2.29,.83-.6,.56-.9,1.43-.9,2.62Z" fill="#0055ce"/><path d="M739.27,406.21v-20.14h3.46v20.14h-3.46Z" fill="#0055ce"/><path d="M753.51,406.5c-1.43,0-2.72-.32-3.87-.95-1.16-.63-2.06-1.5-2.73-2.59-.66-1.09-.99-2.31-.99-3.65s.33-2.58,.99-3.67c.66-1.08,1.57-1.94,2.73-2.57,1.15-.63,2.44-.95,3.87-.95,1.12,0,2.17,.21,3.15,.62s1.8,1,2.49,1.77l-2.17,2.1c-.42-.48-.93-.84-1.52-1.08s-1.24-.36-1.94-.36c-.82,0-1.55,.18-2.18,.53s-1.12,.84-1.48,1.45c-.35,.61-.53,1.33-.53,2.16s.18,1.52,.53,2.14c.35,.62,.84,1.11,1.48,1.47s1.36,.53,2.18,.53c.7,0,1.35-.12,1.94-.36s1.1-.6,1.52-1.08l2.17,2.1c-.68,.77-1.51,1.36-2.49,1.77s-2.02,.62-3.15,.62Z" fill="#0055ce"/><path d="M767.85,406.5c-1.41,0-2.68-.32-3.83-.96s-2.05-1.51-2.73-2.6c-.67-1.09-1.01-2.31-1.01-3.65s.34-2.55,1.01-3.62c.67-1.07,1.58-1.93,2.73-2.58,1.14-.64,2.42-.96,3.83-.96s2.71,.32,3.86,.95c1.15,.63,2.05,1.49,2.73,2.57,.67,1.08,1.01,2.3,1.01,3.64s-.34,2.56-1.01,3.65c-.67,1.09-1.58,1.96-2.73,2.6-1.14,.64-2.43,.96-3.86,.96Zm0-3.05c.82,0,1.55-.18,2.18-.53,.63-.35,1.12-.85,1.48-1.48,.35-.63,.53-1.35,.53-2.16s-.18-1.51-.54-2.13c-.36-.61-.85-1.1-1.48-1.45s-1.35-.53-2.17-.53-1.52,.18-2.15,.53-1.12,.84-1.48,1.45c-.35,.61-.53,1.32-.53,2.13s.18,1.53,.53,2.16c.35,.63,.84,1.13,1.48,1.48s1.35,.53,2.15,.53Z" fill="#0055ce"/><path d="M778.19,406.21v-13.81h3.31v13.81h-3.31Zm9.91,0v-7.97c0-.92-.31-1.68-.92-2.27-.61-.59-1.4-.89-2.37-.89-.64,0-1.22,.13-1.72,.4-.5,.27-.89,.64-1.17,1.12s-.42,1.03-.42,1.64l-1.3-.69c0-1.05,.24-1.99,.72-2.8,.48-.81,1.15-1.46,2-1.93,.85-.47,1.81-.71,2.88-.71s2.05,.26,2.89,.79c.84,.53,1.51,1.21,1.99,2.04,.48,.83,.72,1.7,.72,2.6v8.66h-3.31Z" fill="#0055ce"/><path d="M799.52,406.5c-.8,0-1.58-.1-2.32-.3-.74-.2-1.43-.49-2.05-.86-.62-.37-1.17-.83-1.63-1.37l2.11-2.01c.5,.56,1.08,.97,1.73,1.25,.65,.28,1.39,.42,2.21,.42,.74,0,1.31-.1,1.69-.32,.38-.21,.57-.52,.57-.92s-.18-.75-.54-.98c-.36-.23-.83-.43-1.4-.59s-1.17-.33-1.81-.5c-.63-.17-1.24-.41-1.81-.7-.57-.3-1.04-.71-1.4-1.22s-.54-1.19-.54-2.01c0-.88,.22-1.64,.65-2.27,.43-.63,1.04-1.12,1.84-1.47,.79-.34,1.74-.52,2.85-.52,1.16,0,2.19,.2,3.09,.59s1.64,.98,2.24,1.77l-2.11,2.01c-.42-.5-.9-.87-1.45-1.12s-1.17-.37-1.87-.37c-.66,0-1.17,.1-1.54,.29-.36,.19-.54,.47-.54,.83,0,.38,.18,.68,.54,.89,.36,.21,.83,.39,1.4,.55,.57,.15,1.17,.32,1.81,.5s1.24,.43,1.81,.75c.57,.32,1.04,.74,1.4,1.27,.36,.53,.54,1.21,.54,2.06,0,1.34-.49,2.41-1.48,3.19-.98,.79-2.32,1.18-4.01,1.18Z" fill="#0055ce"/></g></svg>