<svg xmlns="http://www.w3.org/2000/svg" viewBox="0 0 64 64">
	<path d="M47.41,30.68a15.89,15.89,0,0,0,.17-2.05,11.45,11.45,0,0,0-21-6.32,7.89,7.89,0,0,0-11.1,7.26v.25a8.84,8.84,0,0,0-6,8.29,8.75,8.75,0,0,0,8.71,8.71H25V44.51H18.12a6.39,6.39,0,0,1-6.4-6.4,6.48,6.48,0,0,1,5.21-6.32L18,31.62l-.17-1.11a3.7,3.7,0,0,1-.09-.94,5.69,5.69,0,0,1,5.64-5.64,5.07,5.07,0,0,1,2.9.85l1,.6.59-1.11a9.16,9.16,0,0,1,17.25,4.27,11,11,0,0,1-.42,2.82L44.25,33,46,32.9h.26a5.81,5.81,0,0,1,0,11.61H39v2.31h7.3a8.31,8.31,0,0,0,8.2-8.12A8.1,8.1,0,0,0,47.41,30.68Z" fill="#efefef"/>
	<g>
		<polygon points="30 36 26 48 30 48 28 58 38 44 32 44 36 36 30 36" fill="#f4a71d"/>
		<animate id="a" attributeName="opacity" values="1;1;1;1;1;1;0.1;1;0.1;1;1;0.1;1;0.1;1" dur="2s" repeatCount="indefinite"/>
	</g>
</svg>
