<svg xmlns="http://www.w3.org/2000/svg" viewBox="0 0 64 64"><g><path fill="#efefef" d="M46.3 46.81H18.21a8.74 8.74 0 01-8.71-8.7 8.84 8.84 0 016-8.29v-.25a7.89 7.89 0 0111.1-7.26 11.46 11.46 0 0121 6.32 15.89 15.89 0 01-.17 2.05 8.1 8.1 0 017.09 8 8.3 8.3 0 01-8.22 8.13zM23.42 23.93a5.69 5.69 0 00-5.64 5.64 3.7 3.7 0 00.09.94l.13 1.11-1.11.17a6.48 6.48 0 00-5.21 6.32 6.39 6.39 0 006.4 6.4h28.1a5.81 5.81 0 000-11.61H46l-1.75.1.52-1.62a11 11 0 00.42-2.82 9.16 9.16 0 00-17.25-4.27l-.59 1.11-1-.6a5.07 5.07 0 00-2.93-.87z"/><animateTransform attributeName="transform" dur="7s" repeatCount="indefinite" type="translate" values="-3 0; 3 0; -3 0"/></g></svg>