<svg xmlns="http://www.w3.org/2000/svg" viewBox="0 0 64 64"><defs><clipPath id="a"><path fill="none" d="M21.17 46.81L18 64h24l2.75-17.19H21.17z"/></clipPath></defs><path fill="#efefef" d="M46.3 46.81H18.21a8.74 8.74 0 01-8.71-8.7 8.84 8.84 0 016-8.29v-.25a7.89 7.89 0 0111.1-7.26 11.46 11.46 0 0121 6.32 15.89 15.89 0 01-.17 2.05 8.1 8.1 0 017.09 8 8.3 8.3 0 01-8.22 8.13zm-25.42-2.3h25.34a5.81 5.81 0 000-11.61H46l-1.75.1.52-1.62a11 11 0 00.42-2.82 9.16 9.16 0 00-17.25-4.27l-.59 1.11-1-.6a5.07 5.07 0 00-2.9-.85 5.69 5.69 0 00-5.64 5.64 3.7 3.7 0 00.09.94l.1 1.09-1.11.17a6.48 6.48 0 00-5.21 6.32 6.39 6.39 0 006.4 6.4h2.76"/><g clip-path="url(#a)"><g><g><g><path fill="#72b8d4" d="M32.29 47.2l.29.82a.29.29 0 00.41.17l.79-.37a.3.3 0 01.4.4l-.37.79a.29.29 0 00.17.41l.82.29a.31.31 0 010 .58l-.82.29a.29.29 0 00-.17.41l.37.79a.3.3 0 01-.4.4l-.78-.37a.29.29 0 00-.41.17l-.29.82a.31.31 0 01-.58 0l-.3-.8a.29.29 0 00-.41-.17l-.79.37a.3.3 0 01-.4-.4l.37-.79a.29.29 0 00-.17-.41l-.82-.29a.31.31 0 010-.58l.82-.29a.29.29 0 00.17-.41l-.37-.79a.3.3 0 01.4-.4l.79.37a.29.29 0 00.41-.17l.29-.82a.31.31 0 01.58-.02z"/><animateTransform attributeName="transform" dur="9s" repeatCount="indefinite" type="rotate" values="0 32 50; 180 32 50; 360 32 50"/></g><animateTransform attributeName="transform" dur="3s" repeatCount="indefinite" type="translate" values="-3 0; 3 0"/></g><animateTransform attributeName="transform" dur="3s" repeatCount="indefinite" type="translate" values="2 -6; -2 12"/><animate attributeName="opacity" dur="3s" repeatCount="indefinite" values="1;1;1;0"/></g><g><g><g><path fill="#72b8d4" d="M39.29 47.2l.29.82a.29.29 0 00.41.17l.79-.37a.3.3 0 01.4.4l-.37.79a.29.29 0 00.17.41l.82.29a.31.31 0 010 .58l-.82.29a.29.29 0 00-.17.41l.37.79a.3.3 0 01-.4.4l-.78-.37a.29.29 0 00-.41.17l-.29.82a.31.31 0 01-.58 0l-.3-.8a.29.29 0 00-.41-.17l-.79.37a.3.3 0 01-.4-.4l.37-.79a.29.29 0 00-.17-.41l-.82-.29a.31.31 0 010-.58l.82-.29a.29.29 0 00.17-.41l-.37-.79a.3.3 0 01.4-.4l.79.37a.29.29 0 00.41-.17l.29-.82a.31.31 0 01.58-.02z"/><animateTransform attributeName="transform" dur="6s" repeatCount="indefinite" type="rotate" values="0 39 50; 180 39 50; 360 39 50"/></g><animateTransform attributeName="transform" begin="-1s" dur="3s" repeatCount="indefinite" type="translate" values="0 0; 3 0"/></g><animateTransform attributeName="transform" begin="-1s" dur="3s" repeatCount="indefinite" type="translate" values="2 -6; -2 12"/><animate attributeName="opacity" begin="-1s" dur="3s" repeatCount="indefinite" values="1;1;1;0"/></g><g><g><g><path fill="#72b8d4" d="M25.29 47.2l.29.82a.29.29 0 00.41.17l.79-.37a.3.3 0 01.4.4l-.37.79a.29.29 0 00.17.41l.82.29a.31.31 0 010 .58l-.82.29a.29.29 0 00-.17.41l.37.79a.3.3 0 01-.4.4l-.78-.37a.29.29 0 00-.41.17l-.29.82a.31.31 0 01-.58 0l-.3-.8a.29.29 0 00-.41-.17l-.79.37a.3.3 0 01-.4-.4l.37-.79a.29.29 0 00-.17-.41l-.82-.29a.31.31 0 010-.58l.82-.29a.29.29 0 00.17-.41l-.37-.79a.3.3 0 01.4-.4l.79.37a.29.29 0 00.41-.17l.29-.82a.31.31 0 01.58-.02z"/><animateTransform attributeName="transform" dur="6s" repeatCount="indefinite" type="rotate" values="0 25 50; 180 25 50; 360 25 50"/></g><animateTransform attributeName="transform" begin="-1.5s" dur="3s" repeatCount="indefinite" type="translate" values="-3 0; 2 0"/></g><animateTransform attributeName="transform" begin="-1.5s" dur="3s" repeatCount="indefinite" type="translate" values="2 -6; -2 12"/><animate attributeName="opacity" begin="-1.5s" dur="3s" repeatCount="indefinite" values="1;1;1;0"/></g></g></svg>