<svg xmlns="http://www.w3.org/2000/svg" viewBox="0 0 64 64"><defs><clipPath id="a"><path fill="none" d="M0 6h64v36H0z"/></clipPath></defs><g clip-path="url(#a)"><g><path fill="#f4a71d" d="M32 26.36A8.64 8.64 0 1123.36 35 8.66 8.66 0 0132 26.36m0-3A11.64 11.64 0 1043.64 35 11.64 11.64 0 0032 23.36z"/><path fill="none" stroke="#f4a71d" stroke-linecap="round" stroke-miterlimit="10" stroke-width="3" d="M32 18.71V12.5M32 57.5v-6.21M43.52 23.48l4.39-4.39M16.09 50.91l4.39-4.39M20.48 23.48l-4.39-4.39M47.91 50.91l-4.39-4.39M15.71 35H9.5M54.5 35h-6.21"/><animateTransform attributeName="transform" dur="45s" from="0 32 35" repeatCount="indefinite" to="360 32 35" type="rotate"/></g></g><path fill="none" stroke="#2885c7" stroke-linecap="round" stroke-miterlimit="10" stroke-width="2" d="M12.5 45h39M15.5 49h33"/></svg>