<svg xmlns="http://www.w3.org/2000/svg" viewBox="0 0 64 64"><defs><clipPath id="a"><path fill="none" d="M0 5h64v36H0z"/></clipPath></defs><g clip-path="url(#a)"><path fill="#f4a71d" d="M32 28.36A8.64 8.64 0 1123.36 37 8.66 8.66 0 0132 28.36m0-3A11.64 11.64 0 1043.64 37 11.64 11.64 0 0032 25.36z"/><path fill="none" stroke="#f4a71d" stroke-linecap="round" stroke-miterlimit="10" stroke-width="3" d="M32 20.71V14.5M32 59.5v-6.21M43.52 25.48l4.39-4.39M16.09 52.91l4.39-4.39M20.48 25.48l-4.39-4.39M47.91 52.91l-4.39-4.39M15.71 37H9.5M54.5 37h-6.21"/><animateTransform attributeName="transform" dur="45s" from="0 32 37" repeatCount="indefinite" to="360 32 37" type="rotate"/></g><path fill="none" stroke="#222325" stroke-linecap="round" stroke-miterlimit="10" d="M32 40.5v-7M35 37l-3-3.5M29 37l3-3.5"/><path fill="none" stroke="#8bc24a" stroke-linecap="round" stroke-miterlimit="10" stroke-width="3" d="M10.5 45h43"/></svg>