<svg xmlns="http://www.w3.org/2000/svg" viewBox="0 0 64 64"><path fill="#efefef" d="M47.41 30.68a15.89 15.89 0 00.17-2.05 11.45 11.45 0 00-21-6.32 7.89 7.89 0 00-11.1 7.26v.25a8.84 8.84 0 00-6 8.29 8.75 8.75 0 008.71 8.71H25v-2.31h-6.88a6.39 6.39 0 01-6.4-6.4 6.48 6.48 0 015.21-6.32l1.07-.17-.17-1.11a3.7 3.7 0 01-.09-.94 5.69 5.69 0 015.64-5.64 5.07 5.07 0 012.9.85l1 .6.59-1.11a9.16 9.16 0 0117.25 4.27 11 11 0 01-.42 2.82L44.25 33l1.75-.1h.26a5.81 5.81 0 010 11.61H39v2.31h7.3a8.31 8.31 0 008.2-8.12 8.1 8.1 0 00-7.09-8.02z"/><g><path fill="#f4a71d" d="M30 36l-4 12h4l-2 10 10-14h-6l4-8h-6z"/><animate attributeName="opacity" dur="2s" repeatCount="indefinite" values="1;1;1;1;1;1;0.1;1;0.1;1;1;0.1;1;0.1;1"/></g></svg>