<svg xmlns="http://www.w3.org/2000/svg" viewBox="0 0 64 64"><g><path fill="#efefef" d="M48.14 17a6.57 6.57 0 00-4.84 1.92 1.87 1.87 0 102.7 2.65 2.81 2.81 0 112 4.8H11.38a1.88 1.88 0 100 3.75h36.56a6.56 6.56 0 003.28-12.24 6.47 6.47 0 00-3.08-.88zM11.37 33.88a1.88 1.88 0 000 3.75h21.57a2.81 2.81 0 11-2 4.8 1.87 1.87 0 10-2.65 2.65 6.56 6.56 0 104.64-11.2z"/><animateTransform attributeName="transform" dur="2s" repeatCount="indefinite" type="translate" values="-8 2; 0 -2; 8 0; 0 1; -8 2"/></g></svg>