<svg xmlns="http://www.w3.org/2000/svg" viewBox="0 0 64 64"><defs><linearGradient id="a" x1="20.5" x2="37.02" y1="23.84" y2="52.46" gradientUnits="userSpaceOnUse"><stop offset="0" stop-color="#ffe066"/><stop offset=".45" stop-color="#ffe066"/><stop offset="1" stop-color="#fcc419"/></linearGradient></defs><path fill="url(#a)" stroke="#ffd43b" stroke-linecap="round" stroke-miterlimit="10" stroke-width=".5" d="M47.58 43 41 30.91l-6.37-11.67a3 3 0 0 0-5.26 0L23 30.91 16.42 43a3 3 0 0 0 2.63 4.43H45A3 3 0 0 0 47.58 43zM30.37 27.66a1.08 1.08 0 0 1 .68-.16H33a1.09 1.09 0 0 1 .69.16.69.69 0 0 1 .18.58l-.38 8.91a.76.76 0 0 1-.2.57 1 1 0 0 1-.66.15h-1.2a1.08 1.08 0 0 1-.67-.15.8.8 0 0 1-.2-.57l-.35-8.91a.72.72 0 0 1 .16-.58zM34 41a1.52 1.52 0 0 1-.37 1.18 2.21 2.21 0 0 1-1.38.32h-.5a2.21 2.21 0 0 1-1.38-.32A1.52 1.52 0 0 1 30 41v-.37a1.52 1.52 0 0 1 .37-1.18 2.21 2.21 0 0 1 1.38-.32h.5a2.21 2.21 0 0 1 1.38.32 1.52 1.52 0 0 1 .37 1.18z"/></svg>