<svg xmlns="http://www.w3.org/2000/svg" xmlns:xlink="http://www.w3.org/1999/xlink" viewBox="0 0 512 512"><defs><linearGradient id="a" x1="6" x2="18" y1="169.6" y2="190.4" gradientUnits="userSpaceOnUse"><stop offset="0" stop-color="#fde68a"/><stop offset=".5" stop-color="#fde68a"/><stop offset="1" stop-color="#fde171"/></linearGradient><linearGradient xlink:href="#a" id="b" x1="66" x2="78" y1="169.6" y2="190.4"/><linearGradient xlink:href="#a" id="c" x1="38" x2="50" y1="137.6" y2="158.4"/><linearGradient xlink:href="#a" id="d" x1="98" x2="110" y1="137.6" y2="158.4"/><linearGradient xlink:href="#a" id="e" x1="70" x2="82" y1="101.6" y2="122.4"/><linearGradient xlink:href="#a" id="f" x1="130" x2="142" y1="101.6" y2="122.4"/><linearGradient xlink:href="#a" id="g" x1="102" x2="114" y1="69.6" y2="90.4"/><linearGradient xlink:href="#a" id="h" x1="162" x2="174" y1="69.6" y2="90.4"/><linearGradient xlink:href="#a" id="i" x1="134" x2="146" y1="33.6" y2="54.4"/><linearGradient xlink:href="#a" id="j" x1="194" x2="206" y1="33.6" y2="54.4"/><linearGradient xlink:href="#a" id="k" x1="166" x2="178" y1="1.6" y2="22.4"/><linearGradient xlink:href="#a" id="l" x1="226" x2="238" y1="1.6" y2="22.4"/><linearGradient id="m" x1="150" x2="234" y1="119.2" y2="264.8" gradientUnits="userSpaceOnUse"><stop offset="0" stop-color="#fbbf24"/><stop offset=".5" stop-color="#fbbf24"/><stop offset="1" stop-color="#f59e0b"/></linearGradient><symbol id="o" viewBox="0 0 384 384"><circle cx="192" cy="192" r="84" fill="url(#m)" stroke="#f8af18" stroke-miterlimit="10" stroke-width="6"/><path fill="none" stroke="#fbbf24" stroke-linecap="round" stroke-miterlimit="10" stroke-width="24" d="M192 61.7V12m0 360v-49.7m92.2-222.5 35-35M64.8 319.2l35.1-35.1m0-184.4-35-35m254.5 254.5-35.1-35.1M61.7 192H12m360 0h-49.7"><animateTransform additive="sum" attributeName="transform" dur="6s" repeatCount="indefinite" type="rotate" values="0 192 192; 45 192 192"/></path></symbol><symbol id="p" viewBox="0 0 244 192"><circle cx="12" cy="180" r="12" fill="url(#a)"><animate attributeName="opacity" begin="-1s" dur=".67s" repeatCount="indefinite" values=".5; 1; .5"/></circle><circle cx="72" cy="180" r="12" fill="url(#b)"><animate attributeName="opacity" begin="-1.08s" dur=".67s" repeatCount="indefinite" values=".5; 1; .5"/></circle><circle cx="44" cy="148" r="12" fill="url(#c)"><animate attributeName="opacity" begin="-1.16s" dur=".67s" repeatCount="indefinite" values=".5; 1; .5"/></circle><circle cx="104" cy="148" r="12" fill="url(#d)"><animate attributeName="opacity" begin="-1.24s" dur=".67s" repeatCount="indefinite" values=".5; 1; .5"/></circle><circle cx="76" cy="112" r="12" fill="url(#e)"><animate attributeName="opacity" begin="-1.32s" dur=".67s" repeatCount="indefinite" values=".5; 1; .5"/></circle><circle cx="136" cy="112" r="12" fill="url(#f)"><animate attributeName="opacity" begin="-1.40s" dur=".67s" repeatCount="indefinite" values=".5; 1; .5"/></circle><circle cx="108" cy="80" r="12" fill="url(#g)"><animate attributeName="opacity" begin="-1.48s" dur=".67s" repeatCount="indefinite" values=".5; 1; .5"/></circle><circle cx="168" cy="80" r="12" fill="url(#h)"><animate attributeName="opacity" begin="-1.56s" dur=".67s" repeatCount="indefinite" values=".5; 1; .5"/></circle><circle cx="140" cy="44" r="12" fill="url(#i)"><animate attributeName="opacity" begin="-1.64s" dur=".67s" repeatCount="indefinite" values=".5; 1; .5"/></circle><circle cx="200" cy="44" r="12" fill="url(#j)"><animate attributeName="opacity" begin="-1.72s" dur=".67s" repeatCount="indefinite" values=".5; 1; .5"/></circle><circle cx="172" cy="12" r="12" fill="url(#k)"><animate attributeName="opacity" begin="-1.80s" dur=".67s" repeatCount="indefinite" values=".5; 1; .5"/></circle><circle cx="232" cy="12" r="12" fill="url(#l)"><animate attributeName="opacity" begin="-1.88s" dur=".67s" repeatCount="indefinite" values=".5; 1; .5"/></circle></symbol><clipPath id="n"><path fill="none" d="M0 0h512L0 512V0z"/></clipPath></defs><g clip-path="url(#n)"><use xlink:href="#o" width="384" height="384" transform="translate(64 64)"/></g><use xlink:href="#p" width="244" height="192" transform="translate(192 182)"/></svg>