<svg xmlns="http://www.w3.org/2000/svg" xmlns:xlink="http://www.w3.org/1999/xlink" viewBox="0 0 512 512"><defs><linearGradient id="a" x1="99.5" x2="232.6" y1="30.7" y2="261.4" gradientUnits="userSpaceOnUse"><stop offset="0" stop-color="#f3f7fe"/><stop offset=".5" stop-color="#f3f7fe"/><stop offset="1" stop-color="#deeafb"/></linearGradient><linearGradient id="b" x1="6" x2="18" y1="169.6" y2="190.4" gradientUnits="userSpaceOnUse"><stop offset="0" stop-color="#fde68a"/><stop offset=".5" stop-color="#fde68a"/><stop offset="1" stop-color="#fde171"/></linearGradient><linearGradient xlink:href="#b" id="c" x1="66" x2="78" y1="169.6" y2="190.4"/><linearGradient xlink:href="#b" id="d" x1="38" x2="50" y1="137.6" y2="158.4"/><linearGradient xlink:href="#b" id="e" x1="98" x2="110" y1="137.6" y2="158.4"/><linearGradient xlink:href="#b" id="f" x1="70" x2="82" y1="101.6" y2="122.4"/><linearGradient xlink:href="#b" id="g" x1="130" x2="142" y1="101.6" y2="122.4"/><linearGradient xlink:href="#b" id="h" x1="102" x2="114" y1="69.6" y2="90.4"/><linearGradient xlink:href="#b" id="i" x1="162" x2="174" y1="69.6" y2="90.4"/><linearGradient xlink:href="#b" id="j" x1="134" x2="146" y1="33.6" y2="54.4"/><linearGradient xlink:href="#b" id="k" x1="194" x2="206" y1="33.6" y2="54.4"/><linearGradient xlink:href="#b" id="l" x1="166" x2="178" y1="1.6" y2="22.4"/><linearGradient xlink:href="#b" id="m" x1="226" x2="238" y1="1.6" y2="22.4"/><symbol id="o" viewBox="0 0 350 222"><path fill="url(#a)" stroke="#e6effc" stroke-miterlimit="10" stroke-width="6" d="m291 107-2.5.1A83.9 83.9 0 00135.6 43 56 56 0 0051 91a56.6 56.6 0 00.8 9A60 60 0 0063 219l4-.2v.2h224a56 56 0 000-112Z"/></symbol><symbol id="p" viewBox="0 0 244 192"><circle cx="12" cy="180" r="12" fill="url(#b)"><animate attributeName="opacity" begin="-1s" dur=".67s" repeatCount="indefinite" values=".5; 1; .5"/></circle><circle cx="72" cy="180" r="12" fill="url(#c)"><animate attributeName="opacity" begin="-1.08s" dur=".67s" repeatCount="indefinite" values=".5; 1; .5"/></circle><circle cx="44" cy="148" r="12" fill="url(#d)"><animate attributeName="opacity" begin="-1.16s" dur=".67s" repeatCount="indefinite" values=".5; 1; .5"/></circle><circle cx="104" cy="148" r="12" fill="url(#e)"><animate attributeName="opacity" begin="-1.24s" dur=".67s" repeatCount="indefinite" values=".5; 1; .5"/></circle><circle cx="76" cy="112" r="12" fill="url(#f)"><animate attributeName="opacity" begin="-1.32s" dur=".67s" repeatCount="indefinite" values=".5; 1; .5"/></circle><circle cx="136" cy="112" r="12" fill="url(#g)"><animate attributeName="opacity" begin="-1.40s" dur=".67s" repeatCount="indefinite" values=".5; 1; .5"/></circle><circle cx="108" cy="80" r="12" fill="url(#h)"><animate attributeName="opacity" begin="-1.48s" dur=".67s" repeatCount="indefinite" values=".5; 1; .5"/></circle><circle cx="168" cy="80" r="12" fill="url(#i)"><animate attributeName="opacity" begin="-1.56s" dur=".67s" repeatCount="indefinite" values=".5; 1; .5"/></circle><circle cx="140" cy="44" r="12" fill="url(#j)"><animate attributeName="opacity" begin="-1.64s" dur=".67s" repeatCount="indefinite" values=".5; 1; .5"/></circle><circle cx="200" cy="44" r="12" fill="url(#k)"><animate attributeName="opacity" begin="-1.72s" dur=".67s" repeatCount="indefinite" values=".5; 1; .5"/></circle><circle cx="172" cy="12" r="12" fill="url(#l)"><animate attributeName="opacity" begin="-1.80s" dur=".67s" repeatCount="indefinite" values=".5; 1; .5"/></circle><circle cx="232" cy="12" r="12" fill="url(#m)"><animate attributeName="opacity" begin="-1.88s" dur=".67s" repeatCount="indefinite" values=".5; 1; .5"/></circle></symbol><clipPath id="n"><path fill="none" d="M0 0h512L0 512V0z"/></clipPath></defs><g clip-path="url(#n)"><use xlink:href="#o" width="350" height="222" transform="translate(85 145)"/></g><use xlink:href="#p" width="244" height="192" transform="translate(192 182)"/></svg>