<svg xmlns="http://www.w3.org/2000/svg" xmlns:xlink="http://www.w3.org/1999/xlink" viewBox="0 0 64 64"><defs><clipPath id="b"><path fill="none" d="M7.5 7.5h47l-47 47v-47z"/></clipPath><linearGradient id="c" x1="22.56" x2="39.2" y1="21.96" y2="50.8" gradientUnits="userSpaceOnUse"><stop offset="0" stop-color="#f3f7fe"/><stop offset=".45" stop-color="#f3f7fe"/><stop offset="1" stop-color="#deeafb"/></linearGradient><linearGradient id="a" x1="22.14" x2="27.53" y1="36" y2="45.32" gradientUnits="userSpaceOnUse"><stop offset="0" stop-color="#fde68a"/><stop offset=".45" stop-color="#fde68a"/><stop offset="1" stop-color="#fde171"/></linearGradient><linearGradient id="d" x1="34.27" x2="39.66" y1="28.99" y2="38.32" xlink:href="#a"/><linearGradient id="e" x1="43.47" x2="48.86" y1="23.68" y2="33" xlink:href="#a"/><linearGradient id="f" x1="32.14" x2="37.53" y1="36" y2="45.32" xlink:href="#a"/><linearGradient id="g" x1="44.27" x2="49.66" y1="28.99" y2="38.32" xlink:href="#a"/><linearGradient id="h" x1="53.47" x2="58.86" y1="23.68" y2="33" xlink:href="#a"/></defs><g clip-path="url(#b)"><path fill="url(#c)" stroke="#e6effc" stroke-miterlimit="10" stroke-width=".5" d="M46.5 31.5h-.32a10.49 10.49 0 0 0-19.11-8 7 7 0 0 0-10.57 6 7.21 7.21 0 0 0 .1 1.14A7.5 7.5 0 0 0 18 45.5a4.19 4.19 0 0 0 .5 0h28a7 7 0 0 0 0-14z"/></g><g><animateTransform attributeName="transform" dur="3s" repeatCount="indefinite" type="translate" values="-2 2; 0 0; -2 2"/></g><g><animateTransform attributeName="transform" begin="-2.5s" dur="3s" repeatCount="indefinite" type="translate" values="-2 2; 0 0; -2 2"/></g></svg>