<svg xmlns="http://www.w3.org/2000/svg" xmlns:xlink="http://www.w3.org/1999/xlink" viewBox="0 0 512 512"><defs><linearGradient id="b" x1="99.5" x2="232.6" y1="30.7" y2="261.4" gradientUnits="userSpaceOnUse"><stop offset="0" stop-color="#f3f7fe"/><stop offset=".5" stop-color="#f3f7fe"/><stop offset="1" stop-color="#deeafb"/></linearGradient><linearGradient id="a" x1="6.5" x2="18.5" y1="2.1" y2="22.9" gradientUnits="userSpaceOnUse"><stop offset="0" stop-color="#86c3db"/><stop offset=".5" stop-color="#86c3db"/><stop offset="1" stop-color="#5eafcf"/></linearGradient><linearGradient xlink:href="#a" id="e" x1="62.5" x2="74.5" y1="2.1" y2="22.9"/><linearGradient xlink:href="#a" id="h" x1="118.5" x2="130.5" y1="2.1" y2="22.9"/><symbol id="k" viewBox="0 0 350 222"><path fill="url(#b)" stroke="#e6effc" stroke-miterlimit="10" stroke-width="6" d="m291 107-2.5.1A83.9 83.9 0 00135.6 43 56 56 0 0051 91a56.6 56.6 0 00.8 9A60 60 0 0063 219l4-.2v.2h224a56 56 0 000-112Z"/></symbol><symbol id="l" overflow="visible" viewBox="0 0 137 25"><path fill="url(#a)" stroke="#86c3db" stroke-miterlimit="10" d="M12.5.5a12 12 0 1012 12 12 12 0 00-12-12Z" opacity="0"><animateTransform id="c" additive="sum" attributeName="transform" begin="0s; c.end+.42s" dur=".58s" keyTimes="0; .71; 1" type="translate" values="0 -46; 0 86; -18 74"/><animate id="d" attributeName="opacity" begin="0s; d.end+.42s" dur=".58s" keyTimes="0; .14; .71; 1" values="0; 1; 1; 0"/></path><path fill="url(#e)" stroke="#86c3db" stroke-miterlimit="10" d="M68.5.5a12 12 0 1012 12 12 12 0 00-12-12Z" opacity="0"><animateTransform id="f" additive="sum" attributeName="transform" begin=".67s; f.end+.42s" dur=".58s" keyTimes="0; .71; 1" type="translate" values="0 -46; 0 86; 0 74"/><animate id="g" attributeName="opacity" begin=".67s; g.end+.42s" dur=".58s" keyTimes="0; .14; .71; 1" values="0; 1; 1; 0"/></path><path fill="url(#h)" stroke="#86c3db" stroke-miterlimit="10" d="M124.5.5a12 12 0 1012 12 12 12 0 00-12-12Z" opacity="0"><animateTransform id="i" additive="sum" attributeName="transform" begin=".33s; i.end+.42s" dur=".58s" keyTimes="0; .71; 1" type="translate" values="0 -46; 0 86; 18 74"/><animate id="j" attributeName="opacity" begin=".33s; j.end+.42s" dur=".58s" keyTimes="0; .14; .71; 1" values="0; 1; 1; 0"/></path></symbol></defs><use xlink:href="#k" width="350" height="222" transform="translate(81 145)"/><use xlink:href="#l" width="137" height="25" transform="translate(187.5 349.5)"/></svg>