<svg xmlns="http://www.w3.org/2000/svg" xmlns:xlink="http://www.w3.org/1999/xlink" viewBox="0 0 512 512"><defs><linearGradient id="a" x1="54.3" x2="187.2" y1="29" y2="259.1" gradientUnits="userSpaceOnUse"><stop offset="0" stop-color="#86c3db"/><stop offset=".5" stop-color="#86c3db"/><stop offset="1" stop-color="#5eafcf"/></linearGradient><clipPath id="b"><path fill="none" d="M512 306H304l-35.9-31.4a18.4 18.4 0 00-24.2 0L208 306H0V0h512Z"/></clipPath><symbol id="c" viewBox="0 0 270 270"><path fill="url(#a)" stroke="#72b9d5" stroke-linecap="round" stroke-linejoin="round" stroke-width="6" d="M252.3 168.6A133.4 133.4 0 01118 36.2 130.5 130.5 0 01122.5 3 133 133 0 003 134.6C3 207.7 63 267 137.2 267c62.5 0 114.8-42.2 129.8-99.2a135.6 135.6 0 01-14.8.8Z"><animateTransform additive="sum" attributeName="transform" dur="6s" repeatCount="indefinite" type="rotate" values="-15 135 135; 9 135 135; -15 135 135"/></path></symbol></defs><path fill="none" stroke="#374151" stroke-linecap="round" stroke-linejoin="round" stroke-width="18" d="M128 332h88l40-36 40 36h88"/><g clip-path="url(#b)"><use xlink:href="#c" width="270" height="270" transform="translate(121 121)"/></g></svg>