<svg xmlns="http://www.w3.org/2000/svg" xmlns:xlink="http://www.w3.org/1999/xlink" viewBox="0 0 512 512"><defs><linearGradient id="d" x1="99.5" x2="232.6" y1="30.7" y2="261.4" gradientUnits="userSpaceOnUse"><stop offset="0" stop-color="#f3f7fe"/><stop offset=".5" stop-color="#f3f7fe"/><stop offset="1" stop-color="#deeafb"/></linearGradient><linearGradient id="c" x1="52.7" x2="133.4" y1="9.6" y2="149.3" gradientUnits="userSpaceOnUse"><stop offset="0" stop-color="#9ca3af"/><stop offset=".5" stop-color="#9ca3af"/><stop offset="1" stop-color="#6b7280"/></linearGradient><linearGradient id="b" x1="34.7" x2="119.2" y1="18.6" y2="165" gradientUnits="userSpaceOnUse"><stop offset="0" stop-color="#86c3db"/><stop offset=".5" stop-color="#86c3db"/><stop offset="1" stop-color="#5eafcf"/></linearGradient><linearGradient id="a" x1="1381.3" x2="1399.5" y1="-1144.7" y2="-1097.4" gradientTransform="rotate(-9 8002.567 8233.063)" gradientUnits="userSpaceOnUse"><stop offset="0" stop-color="#0b65ed"/><stop offset=".5" stop-color="#0a5ad4"/><stop offset="1" stop-color="#0950bc"/></linearGradient><linearGradient xlink:href="#a" id="k" x1="1436.7" x2="1454.9" y1="-1137" y2="-1089.7" gradientTransform="rotate(-9 8009.537 8233.037)"/><linearGradient xlink:href="#a" id="n" x1="1492.1" x2="1510.3" y1="-1129.3" y2="-1082.1" gradientTransform="rotate(-9 8016.566 8233.078)"/><symbol id="g" viewBox="0 0 172 172"><path fill="url(#b)" stroke="#72b9d5" stroke-linecap="round" stroke-linejoin="round" stroke-width="4" d="M160.6 107.4a84.8 84.8 0 01-85.4-84.3A83.3 83.3 0 0178 2 84.7 84.7 0 002 85.7 84.8 84.8 0 0087.4 170a85.2 85.2 0 0082.6-63.1 88 88 0 01-9.4.5Z"><animateTransform additive="sum" attributeName="transform" dur="6s" repeatCount="indefinite" type="rotate" values="-15 86 86; 9 86 86; -15 86 86"/></path></symbol><symbol id="e" viewBox="0 0 200.3 126.1"><path fill="url(#c)" stroke="#848b98" stroke-miterlimit="10" d="M.5 93.2a32.4 32.4 0 0032.4 32.4h129.8v-.1l2.3.1a34.8 34.8 0 006.5-68.9 32.4 32.4 0 00-48.5-33 48.6 48.6 0 00-88.6 37.1h-1.5A32.4 32.4 0 00.5 93.1Z"/></symbol><symbol id="f" viewBox="0 0 350 222"><path fill="url(#d)" stroke="#e6effc" stroke-miterlimit="10" stroke-width="6" d="m291 107-2.5.1A83.9 83.9 0 00135.6 43 56 56 0 0051 91a56.6 56.6 0 00.8 9A60 60 0 0063 219l4-.2v.2h224a56 56 0 000-112Z"/></symbol><symbol id="h" overflow="visible" viewBox="0 0 398 222"><use xlink:href="#e" width="200.3" height="126.1" transform="translate(198 27)"><animateTransform additive="sum" attributeName="transform" dur="6s" repeatCount="indefinite" type="translate" values="-9 0; 9 0; -9 0"/></use><use xlink:href="#f" width="350" height="222"><animateTransform additive="sum" attributeName="transform" dur="6s" repeatCount="indefinite" type="translate" values="-18 0; 18 0; -18 0"/></use></symbol><symbol id="q" overflow="visible" viewBox="0 0 398.8 246"><use xlink:href="#g" width="172" height="172"/><use xlink:href="#h" width="398" height="222" transform="translate(.84 24)"/></symbol><symbol id="r" overflow="visible" viewBox="0 0 129 57"><path fill="url(#a)" stroke="#0a5ad4" stroke-miterlimit="10" d="M8.5 56.5a8 8 0 01-8-8v-40a8 8 0 0116 0v40a8 8 0 01-8 8Z" opacity="0"><animateTransform id="i" additive="sum" attributeName="transform" begin="0s; i.end+.33s" dur=".67s" type="translate" values="0 -60; 0 60"/><animate id="j" attributeName="opacity" begin="0s; j.end+.33s" dur=".67s" keyTimes="0; .25; 1" values="0; 1; 0"/></path><path fill="url(#k)" stroke="#0a5ad4" stroke-miterlimit="10" d="M64.5 56.5a8 8 0 01-8-8v-40a8 8 0 0116 0v40a8 8 0 01-8 8Z" opacity="0"><animateTransform id="l" additive="sum" attributeName="transform" begin=".33s; l.end+.33s" dur=".67s" type="translate" values="0 -60; 0 60"/><animate id="m" attributeName="opacity" begin=".33s; m.end+.33s" dur=".67s" keyTimes="0; .25; 1" values="0; 1; 0"/></path><path fill="url(#n)" stroke="#0a5ad4" stroke-miterlimit="10" d="M120.5 56.5a8 8 0 01-8-8v-40a8 8 0 0116 0v40a8 8 0 01-8 8Z" opacity="0"><animateTransform id="o" additive="sum" attributeName="transform" begin="-.33s; o.end+.33s" dur=".67s" type="translate" values="0 -60; 0 60"/><animate id="p" attributeName="opacity" begin="-.33s; p.end+.33s" dur=".67s" keyTimes="0; .25; 1" values="0; 1; 0"/></path></symbol></defs><use xlink:href="#q" width="398.8" height="246" transform="translate(68 121)"/><use xlink:href="#r" width="129" height="57" transform="translate(191.5 343.5)"/></svg>