<svg xmlns="http://www.w3.org/2000/svg" xmlns:xlink="http://www.w3.org/1999/xlink" viewBox="0 0 512 512"><defs><linearGradient id="c" x1="99.5" x2="232.6" y1="30.7" y2="261.4" gradientUnits="userSpaceOnUse"><stop offset="0" stop-color="#f3f7fe"/><stop offset=".5" stop-color="#f3f7fe"/><stop offset="1" stop-color="#deeafb"/></linearGradient><linearGradient id="a" x1="6.5" x2="18.5" y1="2.1" y2="22.9" gradientUnits="userSpaceOnUse"><stop offset="0" stop-color="#86c3db"/><stop offset=".5" stop-color="#86c3db"/><stop offset="1" stop-color="#5eafcf"/></linearGradient><linearGradient xlink:href="#a" id="f" x1="62.5" x2="74.5" y1="2.1" y2="22.9"/><linearGradient xlink:href="#a" id="i" x1="118.5" x2="130.5" y1="2.1" y2="22.9"/><linearGradient xlink:href="#a" id="b" x1="34.7" x2="119.2" y1="18.6" y2="165"/><symbol id="d" viewBox="0 0 172 172"><path fill="url(#b)" stroke="#72b9d5" stroke-linecap="round" stroke-linejoin="round" stroke-width="4" d="M160.6 107.4a84.8 84.8 0 01-85.4-84.3A83.3 83.3 0 0178 2 84.7 84.7 0 002 85.7 84.8 84.8 0 0087.4 170a85.2 85.2 0 0082.6-63.1 88 88 0 01-9.4.5Z"><animateTransform additive="sum" attributeName="transform" dur="6s" repeatCount="indefinite" type="rotate" values="-15 86 86; 9 86 86; -15 86 86"/></path></symbol><symbol id="e" viewBox="0 0 350 222"><path fill="url(#c)" stroke="#e6effc" stroke-miterlimit="10" stroke-width="6" d="m291 107-2.5.1A83.9 83.9 0 00135.6 43 56 56 0 0051 91a56.6 56.6 0 00.8 9A60 60 0 0063 219l4-.2v.2h224a56 56 0 000-112Z"/></symbol><symbol id="n" viewBox="0 0 351 246"><use xlink:href="#d" width="172" height="172"/><use xlink:href="#e" width="350" height="222" transform="translate(1 24)"/></symbol><symbol id="o" overflow="visible" viewBox="0 0 137 25"><path fill="url(#f)" stroke="#86c3db" stroke-miterlimit="10" d="M12.5.5a12 12 0 1012 12 12 12 0 00-12-12Z" opacity="0"><animateTransform id="g" additive="sum" attributeName="transform" begin="0s; g.end+.42s" dur=".58s" keyTimes="0; .71; 1" type="translate" values="0 -46; 0 86; -18 74"/><animate id="h" attributeName="opacity" begin="0s; h.end+.42s" dur=".58s" keyTimes="0; .14; .71; 1" values="0; 1; 1; 0"/></path><path fill="url(#i)" stroke="#86c3db" stroke-miterlimit="10" d="M68.5.5a12 12 0 1012 12 12 12 0 00-12-12Z" opacity="0"><animateTransform id="j" additive="sum" attributeName="transform" begin=".67s; j.end+.42s" dur=".58s" keyTimes="0; .71; 1" type="translate" values="0 -46; 0 86; 0 74"/><animate id="k" attributeName="opacity" begin=".67s; k.end+.42s" dur=".58s" keyTimes="0; .14; .71; 1" values="0; 1; 1; 0"/></path><path fill="url(#b)" stroke="#86c3db" stroke-miterlimit="10" d="M124.5.5a12 12 0 1012 12 12 12 0 00-12-12Z" opacity="0"><animateTransform id="l" additive="sum" attributeName="transform" begin=".33s; l.end+.42s" dur=".58s" keyTimes="0; .71; 1" type="translate" values="0 -46; 0 86; 18 74"/><animate id="m" attributeName="opacity" begin=".33s; m.end+.42s" dur=".58s" keyTimes="0; .14; .71; 1" values="0; 1; 1; 0"/></path></symbol></defs><use xlink:href="#n" width="351" height="246" transform="translate(80 121)"/><use xlink:href="#o" width="137" height="25" transform="translate(187.5 349.5)"/></svg>