<svg xmlns="http://www.w3.org/2000/svg" xmlns:xlink="http://www.w3.org/1999/xlink" viewBox="0 0 512 512"><defs><symbol id="g" viewBox="0 0 172 172"><path fill="url(#b)" stroke="#72b9d5" stroke-linecap="round" stroke-linejoin="round" stroke-width="4" d="M160.6 107.4a84.8 84.8 0 01-85.4-84.3A83.3 83.3 0 0178 2 84.7 84.7 0 002 85.7 84.8 84.8 0 0087.4 170a85.2 85.2 0 0082.6-63.1 88 88 0 01-9.4.5Z"><animateTransform additive="sum" attributeName="transform" dur="6s" repeatCount="indefinite" type="rotate" values="-15 86 86; 9 86 86; -15 86 86"/></path></symbol><symbol id="h" viewBox="0 0 350 222"><path fill="url(#a)" stroke="#e6effc" stroke-miterlimit="10" stroke-width="6" d="m291 107-2.5.1A83.9 83.9 0 00135.6 43 56 56 0 0051 91a56.6 56.6 0 00.8 9A60 60 0 0063 219l4-.2v.2h224a56 56 0 000-112Z"/></symbol><symbol id="f" viewBox="0 0 351 246"><use xlink:href="#g" width="172" height="172"/><use xlink:href="#h" width="350" height="222" transform="translate(1 24)"/></symbol><symbol id="i" overflow="visible" viewBox="0 0 168 212"><circle cx="86" cy="186" r="24" fill="url(#c)" stroke="#afb4bc" stroke-miterlimit="10" stroke-width="4" opacity="0"><animateTransform id="x1" additive="sum" attributeName="transform" begin="0s; x1.end+.75s" dur="2.25s" type="translate" values="0 0; -58 -118"/><animate id="y1" attributeName="r" begin="0s; y1.end+.75s" dur="2.25s" values="24; 36"/><animate id="z1" attributeName="opacity" begin="0s; y1.end+.75s" dur="2.25s" keyTimes="0; .17; .83; 1" values="0; 1; 1; 0"/></circle><circle cx="86" cy="186" r="24" fill="url(#c)" stroke="#afb4bc" stroke-miterlimit="10" stroke-width="4" opacity="0"><animateTransform id="x2" additive="sum" attributeName="transform" begin=".83s; x2.end+.75s" dur="2.25s" type="translate" values="0 0; 58 -118"/><animate id="y2" attributeName="r" begin=".83s; y2.end+.75s" dur="2.25s" values="24; 36"/><animate id="z2" attributeName="opacity" begin=".83s; z2.end+.75s" dur="2.25s" keyTimes="0; .17; .83; 1" values="0; 1; 1; 0"/></circle><circle cx="86" cy="186" r="24" fill="url(#c)" stroke="#afb4bc" stroke-miterlimit="10" stroke-width="4" opacity="0"><animateTransform id="x3" additive="sum" attributeName="transform" begin="1.66s; x3.end+.75s" dur="2.25s" type="translate" values="0 0; 0 -118"/><animate id="y3" attributeName="r" begin="1.66s; y3.end+.75s" dur="2.25s" values="24; 36"/><animate id="z3" attributeName="opacity" begin="1.66s; z3.end+.75s" dur="2.25s" keyTimes="0; .17; .83; 1" values="0; 1; 1; 0"/></circle></symbol><linearGradient id="a" x1="99.5" x2="232.6" y1="30.7" y2="261.4" gradientUnits="userSpaceOnUse"><stop offset="0" stop-color="#f3f7fe"/><stop offset=".5" stop-color="#f3f7fe"/><stop offset="1" stop-color="#deeafb"/></linearGradient><linearGradient id="b" x1="34.7" x2="119.2" y1="18.6" y2="165" gradientUnits="userSpaceOnUse"><stop offset="0" stop-color="#86c3db"/><stop offset=".5" stop-color="#86c3db"/><stop offset="1" stop-color="#5eafcf"/></linearGradient><linearGradient id="c" x1="74" x2="98" y1="165.2" y2="206.8" gradientUnits="userSpaceOnUse"><stop offset="0" stop-color="#b8bdc6"/><stop offset=".5" stop-color="#b8bdc6"/><stop offset="1" stop-color="#a5aab2"/></linearGradient></defs><use xlink:href="#f" width="351" height="246" transform="translate(80 121)"/><use xlink:href="#i" width="168" height="212" transform="translate(172 232)"/></svg>