<svg xmlns="http://www.w3.org/2000/svg" xmlns:xlink="http://www.w3.org/1999/xlink" viewBox="0 0 512 512"><defs><linearGradient id="c" x1="99.5" x2="232.6" y1="30.7" y2="261.4" gradientUnits="userSpaceOnUse"><stop offset="0" stop-color="#f3f7fe"/><stop offset=".5" stop-color="#f3f7fe"/><stop offset="1" stop-color="#deeafb"/></linearGradient><linearGradient id="a" x1="1381.3" x2="1399.5" y1="-1144.7" y2="-1097.4" gradientTransform="rotate(-9 8002.567 8233.063)" gradientUnits="userSpaceOnUse"><stop offset="0" stop-color="#0b65ed"/><stop offset=".5" stop-color="#0a5ad4"/><stop offset="1" stop-color="#0950bc"/></linearGradient><linearGradient xlink:href="#a" id="h" x1="1436.7" x2="1454.9" y1="-1137" y2="-1089.7" gradientTransform="rotate(-9 8009.537 8233.037)"/><linearGradient xlink:href="#a" id="k" x1="1492.1" x2="1510.3" y1="-1129.3" y2="-1082.1" gradientTransform="rotate(-9 8016.566 8233.078)"/><linearGradient id="b" x1="78" x2="118" y1="63.4" y2="132.7" gradientUnits="userSpaceOnUse"><stop offset="0" stop-color="#fbbf24"/><stop offset=".5" stop-color="#fbbf24"/><stop offset="1" stop-color="#f59e0b"/></linearGradient><symbol id="d" viewBox="0 0 196 196"><circle cx="98" cy="98" r="40" fill="url(#b)" stroke="#f8af18" stroke-miterlimit="10" stroke-width="4"/><path fill="none" stroke="#fbbf24" stroke-linecap="round" stroke-miterlimit="10" stroke-width="12" d="M98 31.4V6m0 184v-25.4M145.1 51l18-17.9M33 163l18-17.9M51 51 33 33m130.1 130.1-18-18M6 98h25.4M190 98h-25.4"><animateTransform additive="sum" attributeName="transform" dur="6s" repeatCount="indefinite" type="rotate" values="0 98 98; 45 98 98"/></path></symbol><symbol id="e" viewBox="0 0 350 222"><path fill="url(#c)" stroke="#e6effc" stroke-miterlimit="10" stroke-width="6" d="m291 107-2.5.1A83.9 83.9 0 00135.6 43 56 56 0 0051 91a56.6 56.6 0 00.8 9A60 60 0 0063 219l4-.2v.2h224a56 56 0 000-112Z"/></symbol><symbol id="n" viewBox="0 0 363 258"><use xlink:href="#d" width="196" height="196"/><use xlink:href="#e" width="350" height="222" transform="translate(13 36)"/></symbol><symbol id="o" overflow="visible" viewBox="0 0 129 57"><path fill="url(#a)" stroke="#0a5ad4" stroke-miterlimit="10" d="M8.5 56.5a8 8 0 01-8-8v-40a8 8 0 0116 0v40a8 8 0 01-8 8Z" opacity="0"><animateTransform id="f" additive="sum" attributeName="transform" begin="0s; f.end+.33s" dur=".67s" type="translate" values="0 -60; 0 60"/><animate id="g" attributeName="opacity" begin="0s; g.end+.33s" dur=".67s" keyTimes="0; .25; 1" values="0; 1; 0"/></path><path fill="url(#h)" stroke="#0a5ad4" stroke-miterlimit="10" d="M64.5 56.5a8 8 0 01-8-8v-40a8 8 0 0116 0v40a8 8 0 01-8 8Z" opacity="0"><animateTransform id="i" additive="sum" attributeName="transform" begin=".33s; i.end+.33s" dur=".67s" type="translate" values="0 -60; 0 60"/><animate id="j" attributeName="opacity" begin=".33s; j.end+.33s" dur=".67s" keyTimes="0; .25; 1" values="0; 1; 0"/></path><path fill="url(#k)" stroke="#0a5ad4" stroke-miterlimit="10" d="M120.5 56.5a8 8 0 01-8-8v-40a8 8 0 0116 0v40a8 8 0 01-8 8Z" opacity="0"><animateTransform id="l" additive="sum" attributeName="transform" begin="-.33s; l.end+.33s" dur=".67s" type="translate" values="0 -60; 0 60"/><animate id="m" attributeName="opacity" begin="-.33s; m.end+.33s" dur=".67s" keyTimes="0; .25; 1" values="0; 1; 0"/></path></symbol></defs><use xlink:href="#n" width="363" height="258" transform="translate(68 109)"/><use xlink:href="#o" width="129" height="57" transform="translate(191.5 343.5)"/></svg>