<svg xmlns="http://www.w3.org/2000/svg" xmlns:xlink="http://www.w3.org/1999/xlink" viewBox="0 0 512 512"><defs><linearGradient id="a" x1="111" x2="123" y1="2.6" y2="23.4" gradientUnits="userSpaceOnUse"><stop offset="0" stop-color="#fbbf24"/><stop offset=".5" stop-color="#fbbf24"/><stop offset="1" stop-color="#f59e0b"/></linearGradient><linearGradient xlink:href="#a" id="c" x1="149" x2="165" y1="39.1" y2="66.9"/><linearGradient xlink:href="#a" id="d" x1="69" x2="85" y1="39.1" y2="66.9"/><linearGradient xlink:href="#a" id="e" x1="7" x2="19" y1="50.6" y2="71.4"/><linearGradient xlink:href="#a" id="f" x1="215" x2="227" y1="50.6" y2="71.4"/><linearGradient xlink:href="#a" id="g" x1="177" x2="185" y1="14.1" y2="27.9"/><linearGradient xlink:href="#a" id="h" x1="49" x2="57" y1="14.1" y2="27.9"/><linearGradient id="i" x1="210.9" x2="280.2" y1="282.2" y2="402.2" gradientUnits="userSpaceOnUse"><stop offset="0" stop-color="#875b34"/><stop offset=".5" stop-color="#875b34"/><stop offset="1" stop-color="#624226"/></linearGradient><linearGradient id="b" x1="272.6" x2="315.2" y1="237.5" y2="311.2" gradientUnits="userSpaceOnUse"><stop offset="0" stop-color="#51cf66"/><stop offset=".5" stop-color="#51cf66"/><stop offset="1" stop-color="#37b24d"/></linearGradient><linearGradient xlink:href="#b" id="j" x1="163.9" x2="206.5" y1="218.6" y2="292.3"/><linearGradient xlink:href="#b" id="k" x1="273.5" x2="346" y1="127.2" y2="252.7"/><linearGradient xlink:href="#b" id="l" x1="187.5" x2="267.3" y1="145" y2="283.2"/><symbol id="m" overflow="visible" viewBox="0 0 234 74"><circle cx="117" cy="13" r="12" fill="url(#a)" stroke="#f8af18" stroke-miterlimit="10" stroke-width="2"><animateTransform attributeName="transform" begin="-0.33s" calcMode="spline" dur="3s" keySplines=".42, 0, .58, 1; .42, 0, .58, 1" repeatCount="indefinite" type="translate" values="0 -30; 0 30; 0 -30"/></circle><circle cx="157" cy="53" r="16" fill="url(#c)" stroke="#f8af18" stroke-miterlimit="10" stroke-width="2"><animateTransform attributeName="transform" begin="-1.17s" calcMode="spline" dur="3s" keySplines=".42, 0, .58, 1; .42, 0, .58, 1" repeatCount="indefinite" type="translate" values="0 -30; 0 30; 0 -30"/></circle><circle cx="77" cy="53" r="16" fill="url(#d)" stroke="#f8af18" stroke-miterlimit="10" stroke-width="2"><animateTransform attributeName="transform" begin="-1s" calcMode="spline" dur="3s" keySplines=".42, 0, .58, 1; .42, 0, .58, 1" repeatCount="indefinite" type="translate" values="0 -30; 0 30; 0 -30"/></circle><circle cx="13" cy="61" r="12" fill="url(#e)" stroke="#f8af18" stroke-miterlimit="10" stroke-width="2"><animateTransform attributeName="transform" begin="-.67s" calcMode="spline" dur="3s" keySplines=".42, 0, .58, 1; .42, 0, .58, 1" repeatCount="indefinite" type="translate" values="0 -30; 0 30; 0 -30"/></circle><circle cx="221" cy="61" r="12" fill="url(#f)" stroke="#f8af18" stroke-miterlimit="10" stroke-width="2"><animateTransform attributeName="transform" begin="-1.5s" calcMode="spline" dur="3s" keySplines=".42, 0, .58, 1; .42, 0, .58, 1" repeatCount="indefinite" type="translate" values="0 -30; 0 30; 0 -30"/></circle><circle cx="181" cy="21" r="8" fill="url(#g)" stroke="#f8af18" stroke-miterlimit="10" stroke-width="2"><animateTransform attributeName="transform" begin="-1.33s" calcMode="spline" dur="3s" keySplines=".42, 0, .58, 1; .42, 0, .58, 1" repeatCount="indefinite" type="translate" values="0 -30; 0 30; 0 -30"/></circle><circle cx="53" cy="21" r="8" fill="url(#h)" stroke="#f8af18" stroke-miterlimit="10" stroke-width="2"><animateTransform attributeName="transform" begin="-.83s" calcMode="spline" dur="3s" keySplines=".42, 0, .58, 1; .42, 0, .58, 1" repeatCount="indefinite" type="translate" values="0 -30; 0 30; 0 -30"/></circle></symbol></defs><path fill="url(#i)" stroke="#744e2d" stroke-linecap="round" stroke-linejoin="round" stroke-width="4" d="m265 403.6-4-127a12 12 0 00-12-11.7h-5a12 12 0 00-12 11.7l-4 127a12 12 0 0012 12.4h13.1a12 12 0 0012-12.4Z"/><ellipse cx="293.9" cy="274.4" fill="url(#b)" stroke="#40c057" stroke-linecap="round" stroke-miterlimit="10" stroke-width="4" rx="42.7" ry="42.5"/><ellipse cx="185.2" cy="255.5" fill="url(#j)" stroke="#40c057" stroke-linecap="round" stroke-miterlimit="10" stroke-width="4" rx="42.7" ry="42.5"/><path fill="url(#k)" stroke="#40c057" stroke-linecap="round" stroke-miterlimit="10" stroke-width="4" d="M317.6 146.9a57.5 57.5 0 00-10.9 1.1 28.4 28.4 0 10-41.1 32.8 56.2 56.2 0 00-4.9 22.8 56.9 56.9 0 1057-56.7Z"/><path fill="url(#l)" stroke="#40c057" stroke-linecap="round" stroke-miterlimit="10" stroke-width="4" d="M289.2 184.7a57 57 0 00-106.3-28.1c-1 0-1.8-.3-2.8-.3a42.4 42.4 0 00-11.8 83.1 28 28 0 00-2.4 11.3A28.3 28.3 0 00213 272a42.6 42.6 0 0076.2-26 42 42 0 00-10.9-28.1 56.1 56.1 0 0010.9-33.2Z"/><use xlink:href="#m" width="234" height="74" transform="translate(139 89)"/></svg>