<svg xmlns="http://www.w3.org/2000/svg" xmlns:xlink="http://www.w3.org/1999/xlink" viewBox="0 0 512 512"><defs><linearGradient id="a" x1="111" x2="123" y1="2.6" y2="23.4" gradientUnits="userSpaceOnUse"><stop offset="0" stop-color="#fbbf24"/><stop offset=".5" stop-color="#fbbf24"/><stop offset="1" stop-color="#f59e0b"/></linearGradient><linearGradient xlink:href="#a" id="b" x1="149" x2="165" y1="39.1" y2="66.9"/><linearGradient xlink:href="#a" id="c" x1="69" x2="85" y1="39.1" y2="66.9"/><linearGradient xlink:href="#a" id="d" x1="7" x2="19" y1="50.6" y2="71.4"/><linearGradient xlink:href="#a" id="e" x1="215" x2="227" y1="50.6" y2="71.4"/><linearGradient xlink:href="#a" id="f" x1="177" x2="185" y1="14.1" y2="27.9"/><linearGradient xlink:href="#a" id="g" x1="49" x2="57" y1="14.1" y2="27.9"/><linearGradient id="h" x1="212.4" x2="320.7" y1="164" y2="351.6" gradientUnits="userSpaceOnUse"><stop offset="0" stop-color="#51cf66"/><stop offset=".5" stop-color="#51cf66"/><stop offset="1" stop-color="#37b24d"/></linearGradient><linearGradient xlink:href="#h" id="i" x1="278.6" x2="330.8" y1="268.3" y2="358.8"/><linearGradient xlink:href="#h" id="j" x1="239.3" x2="323.7" y1="209.2" y2="355.5"/><linearGradient xlink:href="#h" id="k" x1="168.7" x2="267.6" y1="207.6" y2="378.9"/><linearGradient xlink:href="#h" id="l" x1="184.7" x2="242.4" y1="284" y2="384.1"/><symbol id="m" overflow="visible" viewBox="0 0 234 74"><circle cx="117" cy="13" r="12" fill="url(#a)" stroke="#f8af18" stroke-miterlimit="10" stroke-width="2"><animateTransform attributeName="transform" begin="-0.33s" calcMode="spline" dur="3s" keySplines=".42, 0, .58, 1; .42, 0, .58, 1" repeatCount="indefinite" type="translate" values="0 -30; 0 30; 0 -30"/></circle><circle cx="157" cy="53" r="16" fill="url(#b)" stroke="#f8af18" stroke-miterlimit="10" stroke-width="2"><animateTransform attributeName="transform" begin="-1.17s" calcMode="spline" dur="3s" keySplines=".42, 0, .58, 1; .42, 0, .58, 1" repeatCount="indefinite" type="translate" values="0 -30; 0 30; 0 -30"/></circle><circle cx="77" cy="53" r="16" fill="url(#c)" stroke="#f8af18" stroke-miterlimit="10" stroke-width="2"><animateTransform attributeName="transform" begin="-1s" calcMode="spline" dur="3s" keySplines=".42, 0, .58, 1; .42, 0, .58, 1" repeatCount="indefinite" type="translate" values="0 -30; 0 30; 0 -30"/></circle><circle cx="13" cy="61" r="12" fill="url(#d)" stroke="#f8af18" stroke-miterlimit="10" stroke-width="2"><animateTransform attributeName="transform" begin="-.67s" calcMode="spline" dur="3s" keySplines=".42, 0, .58, 1; .42, 0, .58, 1" repeatCount="indefinite" type="translate" values="0 -30; 0 30; 0 -30"/></circle><circle cx="221" cy="61" r="12" fill="url(#e)" stroke="#f8af18" stroke-miterlimit="10" stroke-width="2"><animateTransform attributeName="transform" begin="-1.5s" calcMode="spline" dur="3s" keySplines=".42, 0, .58, 1; .42, 0, .58, 1" repeatCount="indefinite" type="translate" values="0 -30; 0 30; 0 -30"/></circle><circle cx="181" cy="21" r="8" fill="url(#f)" stroke="#f8af18" stroke-miterlimit="10" stroke-width="2"><animateTransform attributeName="transform" begin="-1.33s" calcMode="spline" dur="3s" keySplines=".42, 0, .58, 1; .42, 0, .58, 1" repeatCount="indefinite" type="translate" values="0 -30; 0 30; 0 -30"/></circle><circle cx="53" cy="21" r="8" fill="url(#g)" stroke="#f8af18" stroke-miterlimit="10" stroke-width="2"><animateTransform attributeName="transform" begin="-.83s" calcMode="spline" dur="3s" keySplines=".42, 0, .58, 1; .42, 0, .58, 1" repeatCount="indefinite" type="translate" values="0 -30; 0 30; 0 -30"/></circle></symbol></defs><path fill="url(#h)" stroke="#40c057" stroke-linecap="round" stroke-miterlimit="10" stroke-width="2" d="M264.5 384c.1-14.9.8-109.5 2.4-131.8 1.9-24.2 11-58.6 16.5-84.7S275 128 275 128s13.4 13.4-6.1 72c-18.7 56-14 174-13.5 184Z"/><path fill="url(#i)" stroke="#40c057" stroke-linecap="round" stroke-miterlimit="10" stroke-width="2" d="M289.4 280c-16.8 38.6-19 86.4-19.2 104H287c-1.4-19.6-3.5-76.4 13.6-107.6 21-38.3 39.3-32 39.3-32s-29.7-12.7-50.6 35.6Z"/><path fill="url(#j)" stroke="#40c057" stroke-linecap="round" stroke-miterlimit="10" stroke-width="2" d="M261.5 384h12.8c1.5-21.1 7.2-87.9 19.7-123 15-42 4.3-85.9 4.3-85.9s5.6 43.1-14.3 89c-17 39-21.5 102-22.5 119.9Z"/><path fill="url(#k)" stroke="#40c057" stroke-linecap="round" stroke-miterlimit="10" stroke-width="2" d="M242.3 384h16.5c-2-11.6-15.9-91.7-30.5-121-15.8-31.4-27.5-46.1-56.3-57.3 0 0 35.2 15.1 51.7 83a843.4 843.4 0 0118.6 95.3Z"/><path fill="url(#l)" stroke="#40c057" stroke-linecap="round" stroke-miterlimit="10" stroke-width="2" d="M242.6 384c-4-19-19.7-81.8-58.9-99.4 0 0 21.8 23.4 32.4 49.2a219.3 219.3 0 0112.5 50.2Z"/><use xlink:href="#m" width="234" height="74" transform="translate(139 131)"/></svg>