<svg xmlns="http://www.w3.org/2000/svg" xmlns:xlink="http://www.w3.org/1999/xlink" viewBox="0 0 64 64"><defs><linearGradient id="c" x1="27.54" x2="36.21" y1="36.27" y2="51.28" gradientUnits="userSpaceOnUse"><stop offset="0" stop-color="#624226"/><stop offset=".45" stop-color="#624226"/><stop offset="1" stop-color="#312113"/></linearGradient><linearGradient id="a" x1="35.27" x2="40.58" y1="30.69" y2="39.9" gradientUnits="userSpaceOnUse"><stop offset="0" stop-color="#51cf66"/><stop offset=".45" stop-color="#51cf66"/><stop offset="1" stop-color="#37b24d"/></linearGradient><linearGradient id="d" x1="21.67" x2="26.99" y1="28.33" y2="37.54" xlink:href="#a"/><linearGradient id="e" x1="35.38" x2="44.43" y1="16.89" y2="32.58" xlink:href="#a"/><linearGradient id="f" x1="26.45" x2="36.42" y1="18.07" y2="35.34" xlink:href="#a"/><linearGradient id="g" x1="21.05" x2="28.73" y1="21.25" y2="34.56" xlink:href="#a"/><linearGradient id="b" x1="31.25" x2="32.75" y1="11.7" y2="14.3" gradientUnits="userSpaceOnUse"><stop offset="0" stop-color="#fbbf24"/><stop offset=".45" stop-color="#fbbf24"/><stop offset="1" stop-color="#f59e0b"/></linearGradient><linearGradient id="h" x1="36" x2="38" y1="16.27" y2="19.73" xlink:href="#b"/><linearGradient id="i" x1="26" x2="28" y1="16.27" y2="19.73" xlink:href="#b"/><linearGradient id="j" x1="18.25" x2="19.75" y1="17.7" y2="20.3" xlink:href="#b"/><linearGradient id="k" x1="44.25" x2="45.75" y1="17.7" y2="20.3" xlink:href="#b"/><linearGradient id="l" x1="39.5" x2="40.5" y1="13.13" y2="14.87" xlink:href="#b"/><linearGradient id="m" x1="23.5" x2="24.5" y1="13.13" y2="14.87" xlink:href="#b"/></defs><path fill="url(#c)" stroke="#49311d" stroke-linecap="round" stroke-linejoin="round" stroke-width=".5" d="m34.32 51.45-.5-15.88a1.5 1.5 0 0 0-1.5-1.46h-.64a1.5 1.5 0 0 0-1.5 1.46l-.5 15.88a1.5 1.5 0 0 0 1.5 1.55h1.64a1.5 1.5 0 0 0 1.5-1.55z"/><ellipse cx="37.93" cy="35.3" fill="url(#a)" stroke="#40c057" stroke-linecap="round" stroke-miterlimit="10" stroke-width=".5" rx="5.33" ry="5.31"/><ellipse cx="24.33" cy="32.93" fill="url(#d)" stroke="#40c057" stroke-linecap="round" stroke-miterlimit="10" stroke-width=".5" rx="5.33" ry="5.31"/><path fill="url(#e)" stroke="#40c057" stroke-linecap="round" stroke-miterlimit="10" stroke-width=".5" d="M40.89 19.36a7.56 7.56 0 0 0-1.36.13 3.55 3.55 0 1 0-5.15 4.11 7.11 7.11 0 1 0 6.51-4.24z"/><path fill="url(#f)" stroke="#40c057" stroke-linecap="round" stroke-miterlimit="10" stroke-width=".5" d="M37.33 24.08a7.11 7.11 0 1 0-10.45 6.25 5.6 5.6 0 0 0-.21 1.42 5.33 5.33 0 0 0 10.66 0A5.24 5.24 0 0 0 36 28.24a7 7 0 0 0 1.33-4.16z"/><path fill="url(#g)" stroke="#40c057" stroke-linecap="round" stroke-miterlimit="10" stroke-width=".5" d="M27.57 29.49a5.34 5.34 0 1 0-5.35 1.44 3.49 3.49 0 0 0-.29 1.41 3.56 3.56 0 1 0 5.64-2.85z"/><circle cx="32" cy="13" r="1.5" fill="url(#b)" stroke="#f8af18" stroke-miterlimit="10" stroke-width=".25"><animateTransform attributeName="transform" calcMode="spline" dur="5s" keySplines="0.5 0 0.5 1; 0.5 0 0.5 1" repeatCount="indefinite" type="translate" values="0 -3; 0 3; 0 -3"/></circle><circle cx="37" cy="18" r="2" fill="url(#h)" stroke="#f8af18" stroke-miterlimit="10" stroke-width=".25"><animateTransform attributeName="transform" begin="-0.6s" calcMode="spline" dur="5s" keySplines="0.5 0 0.5 1; 0.5 0 0.5 1" repeatCount="indefinite" type="translate" values="0 -3; 0 3; 0 -3"/></circle><circle cx="27" cy="18" r="2" fill="url(#i)" stroke="#f8af18" stroke-miterlimit="10" stroke-width=".25"><animateTransform attributeName="transform" begin="-0.4s" calcMode="spline" dur="5s" keySplines="0.5 0 0.5 1; 0.5 0 0.5 1" repeatCount="indefinite" type="translate" values="0 -3; 0 3; 0 -3"/></circle><circle cx="19" cy="19" r="1.5" fill="url(#j)" stroke="#f8af18" stroke-miterlimit="10" stroke-width=".25"><animateTransform attributeName="transform" begin="-0.2s" calcMode="spline" dur="5s" keySplines="0.5 0 0.5 1; 0.5 0 0.5 1" repeatCount="indefinite" type="translate" values="0 -3; 0 3; 0 -3"/></circle><circle cx="45" cy="19" r="1.5" fill="url(#k)" stroke="#f8af18" stroke-miterlimit="10" stroke-width=".25"><animateTransform attributeName="transform" begin="-1.2s" calcMode="spline" dur="5s" keySplines="0.5 0 0.5 1; 0.5 0 0.5 1" repeatCount="indefinite" type="translate" values="0 -3; 0 3; 0 -3"/></circle><circle cx="40" cy="14" r="1" fill="url(#l)" stroke="#f8af18" stroke-miterlimit="10" stroke-width=".25"><animateTransform attributeName="transform" begin="-1.0s" calcMode="spline" dur="5s" keySplines="0.5 0 0.5 1; 0.5 0 0.5 1" repeatCount="indefinite" type="translate" values="0 -3; 0 3; 0 -3"/></circle><circle cx="24" cy="14" r="1" fill="url(#m)" stroke="#f8af18" stroke-miterlimit="10" stroke-width=".25"><animateTransform attributeName="transform" begin="-0.8s" calcMode="spline" dur="5s" keySplines="0.5 0 0.5 1; 0.5 0 0.5 1" repeatCount="indefinite" type="translate" values="0 -3; 0 3; 0 -3"/></circle></svg>