<svg xmlns="http://www.w3.org/2000/svg" xmlns:xlink="http://www.w3.org/1999/xlink" viewBox="0 0 512 512"><defs><linearGradient id="a" x1="54" x2="125.8" y1="16.9" y2="141.3" gradientUnits="userSpaceOnUse"><stop offset="0" stop-color="#f3f7fe"/><stop offset=".5" stop-color="#f3f7fe"/><stop offset="1" stop-color="#deeafb"/></linearGradient><linearGradient id="b" x1="78" x2="118" y1="63.4" y2="132.7" gradientUnits="userSpaceOnUse"><stop offset="0" stop-color="#fbbf24"/><stop offset=".5" stop-color="#fbbf24"/><stop offset="1" stop-color="#f59e0b"/></linearGradient><linearGradient id="d" x1="160.3" x2="278.9" y1="168.9" y2="374.2" gradientUnits="userSpaceOnUse"><stop offset="0" stop-color="#f87171"/><stop offset=".5" stop-color="#f87171"/><stop offset="1" stop-color="#dc2626"/></linearGradient><linearGradient xlink:href="#b" id="e" x1="171" x2="271.5" y1="190.5" y2="364.6"/><linearGradient id="f" x1="118" x2="342" y1="256" y2="256" gradientUnits="userSpaceOnUse"><stop offset="0" stop-color="#51cf66"/><stop offset=".5" stop-color="#51cf66"/><stop offset="1" stop-color="#37b24d"/></linearGradient><symbol id="g" viewBox="0 0 196 196"><circle cx="98" cy="98" r="40" fill="url(#b)" stroke="#f8af18" stroke-miterlimit="10" stroke-width="4"/><path fill="none" stroke="#fbbf24" stroke-linecap="round" stroke-miterlimit="10" stroke-width="12" d="M98 31.4V6m0 184v-25.4M145.1 51l18-17.9M33 163l18-17.9M51 51 33 33m130.1 130.1-18-18M6 98h25.4M190 98h-25.4"><animateTransform additive="sum" attributeName="transform" dur="6s" repeatCount="indefinite" type="rotate" values="0 98 98; 45 98 98"/></path></symbol><symbol id="h" overflow="visible" viewBox="0 0 189.5 120.5"><path fill="url(#a)" stroke="#e6effc" stroke-miterlimit="10" stroke-width="4" d="m157.3 58-1.4.1a45.8 45.8 0 001.4-10.8 45.3 45.3 0 00-83.8-23.8 30.1 30.1 0 00-45.6 26 30.5 30.5 0 00.4 4.9 32.3 32.3 0 006 64h123a30.2 30.2 0 000-60.3Z"><animateTransform additive="sum" attributeName="transform" dur="6s" repeatCount="indefinite" type="translate" values="-12 0; 12 0; -12 0"/></path></symbol><clipPath id="c"><path fill="none" d="M238 59.1H36V268h52.4l67.4-82.6 82.2-19.2V59.1z"/></clipPath></defs><g clip-path="url(#c)"><use xlink:href="#g" width="196" height="196" transform="translate(48 78)"/></g><path fill="none" stroke="url(#d)" stroke-miterlimit="10" stroke-width="24" d="M82 310c0-79.5 66.3-144 148-144s148 64.5 148 144"/><path fill="none" stroke="url(#e)" stroke-miterlimit="10" stroke-width="24" d="M106 310c0-66.3 55.5-120 124-120s124 53.7 124 120"/><path fill="none" stroke="url(#f)" stroke-miterlimit="10" stroke-width="24" d="M130 310c0-53 44.8-96 100-96s100 43 100 96"/><use xlink:href="#h" width="189.5" height="120.5" transform="translate(239.94 223.59)"/></svg>