<svg xmlns="http://www.w3.org/2000/svg" xmlns:xlink="http://www.w3.org/1999/xlink" viewBox="0 0 64 64"><defs><linearGradient id="b" x1="22.56" x2="39.2" y1="21.96" y2="50.8" gradientUnits="userSpaceOnUse"><stop offset="0" stop-color="#f3f7fe"/><stop offset=".45" stop-color="#f3f7fe"/><stop offset="1" stop-color="#deeafb"/></linearGradient><linearGradient id="a" x1="22.66" x2="25.34" y1="42.68" y2="47.32" gradientUnits="userSpaceOnUse"><stop offset="0" stop-color="#86c3db"/><stop offset=".45" stop-color="#86c3db"/><stop offset="1" stop-color="#5eafcf"/></linearGradient><linearGradient id="c" x1="29.66" x2="32.34" y1="42.68" y2="47.32" xlink:href="#a"/><linearGradient id="d" x1="36.66" x2="39.34" y1="42.68" y2="47.32" xlink:href="#a"/></defs><path fill="url(#b)" stroke="#e6effc" stroke-miterlimit="10" stroke-width=".5" d="M46.5 31.5h-.32a10.49 10.49 0 0 0-19.11-8 7 7 0 0 0-10.57 6 7.21 7.21 0 0 0 .1 1.14A7.5 7.5 0 0 0 18 45.5a4.19 4.19 0 0 0 .5 0h28a7 7 0 0 0 0-14z"/><path fill="url(#a)" d="m26.45 45.82-.73-.41a1.59 1.59 0 0 0 0-.81l.73-.42a.49.49 0 0 0 .18-.68.51.51 0 0 0-.69-.18l-.72.41a1.66 1.66 0 0 0-.71-.41v-.82a.51.51 0 0 0-1 0v.83a1.74 1.74 0 0 0-.71.4l-.72-.41a.51.51 0 0 0-.69.18.49.49 0 0 0 .18.68l.73.41a1.59 1.59 0 0 0 0 .81l-.73.42a.49.49 0 0 0-.18.68.5.5 0 0 0 .44.25.47.47 0 0 0 .25-.07l.72-.41a2 2 0 0 0 .33.25 1.5 1.5 0 0 0 .38.15v.83a.51.51 0 0 0 1 0v-.83a1.74 1.74 0 0 0 .71-.4l.72.41a.47.47 0 0 0 .25.07.5.5 0 0 0 .44-.25.49.49 0 0 0-.18-.68zm-2.83-.17a.75.75 0 0 1 .38-1.4.75.75 0 0 1 .38.1.75.75 0 0 1 .28 1 .77.77 0 0 1-1.04.3z"><animateTransform additive="sum" attributeName="transform" begin="-2.7s" dur="4s" repeatCount="indefinite" type="translate" values="1 -6; -1 12"/><animateTransform additive="sum" attributeName="transform" begin="-2.7s" dur="4s" repeatCount="indefinite" type="rotate" values="-45 24 45; 45 24 45"/><animate attributeName="opacity" begin="-2.7s" dur="4s" repeatCount="indefinite" values="0;1;1;1;0"/></path><path fill="url(#c)" d="m33.45 45.82-.73-.41a1.59 1.59 0 0 0 0-.81l.73-.42a.49.49 0 0 0 .18-.68.51.51 0 0 0-.69-.18l-.72.41a1.66 1.66 0 0 0-.71-.41v-.82a.51.51 0 0 0-1 0v.83a1.74 1.74 0 0 0-.71.4l-.72-.41a.51.51 0 0 0-.69.18.49.49 0 0 0 .18.68l.73.41a1.59 1.59 0 0 0 0 .81l-.73.42a.49.49 0 0 0-.18.68.5.5 0 0 0 .44.25.47.47 0 0 0 .25-.07l.72-.41a2 2 0 0 0 .33.25 1.5 1.5 0 0 0 .38.15v.83a.51.51 0 0 0 1 0v-.83a1.74 1.74 0 0 0 .71-.4l.72.41a.47.47 0 0 0 .25.07.5.5 0 0 0 .44-.25.49.49 0 0 0-.18-.68zm-2.83-.17a.75.75 0 0 1 .38-1.4.75.75 0 0 1 .38.1.75.75 0 0 1 .28 1 .77.77 0 0 1-1.04.3z"><animateTransform additive="sum" attributeName="transform" dur="4s" repeatCount="indefinite" type="translate" values="-1 -6; 1 12"/><animateTransform additive="sum" attributeName="transform" dur="4s" repeatCount="indefinite" type="rotate" values="-45 31 45; 45 31 45"/><animate attributeName="opacity" dur="4s" repeatCount="indefinite" values="0;1;1;1;0"/></path><path fill="url(#d)" d="m40.45 45.82-.73-.41a1.59 1.59 0 0 0 0-.81l.73-.42a.49.49 0 0 0 .18-.68.51.51 0 0 0-.69-.18l-.72.41a1.66 1.66 0 0 0-.71-.41v-.82a.51.51 0 0 0-1 0v.83a1.74 1.74 0 0 0-.71.4l-.72-.41a.51.51 0 0 0-.69.18.49.49 0 0 0 .18.68l.73.41a1.59 1.59 0 0 0 0 .81l-.73.42a.49.49 0 0 0-.18.68.5.5 0 0 0 .44.25.47.47 0 0 0 .25-.07l.72-.41a2 2 0 0 0 .33.25 1.5 1.5 0 0 0 .38.15v.83a.51.51 0 0 0 1 0v-.83a1.74 1.74 0 0 0 .71-.4l.72.41a.47.47 0 0 0 .25.07.5.5 0 0 0 .44-.25.49.49 0 0 0-.18-.68zm-2.83-.17a.75.75 0 0 1 .38-1.4.75.75 0 0 1 .38.1.75.75 0 0 1 .28 1 .77.77 0 0 1-1.04.3z"><animateTransform additive="sum" attributeName="transform" begin="-1.3s" dur="4s" repeatCount="indefinite" type="translate" values="1 -6; -1 12"/><animateTransform additive="sum" attributeName="transform" begin="-1.3s" dur="4s" repeatCount="indefinite" type="rotate" values="-45 38 45; 45 38 45"/><animate attributeName="opacity" begin="-1.3s" dur="4s" repeatCount="indefinite" values="0;1;1;1;0"/></path></svg>