<svg xmlns="http://www.w3.org/2000/svg" xmlns:xlink="http://www.w3.org/1999/xlink" viewBox="0 0 512 512"><defs><linearGradient id="a" x1="54.3" x2="187.2" y1="29" y2="259.1" gradientUnits="userSpaceOnUse"><stop offset="0" stop-color="#86c3db"/><stop offset=".5" stop-color="#86c3db"/><stop offset="1" stop-color="#5eafcf"/></linearGradient><linearGradient id="b" x1="294" x2="330" y1="112.8" y2="175.2" gradientUnits="userSpaceOnUse"><stop offset="0" stop-color="#fcd966"/><stop offset=".5" stop-color="#fcd966"/><stop offset="1" stop-color="#fccd34"/></linearGradient><linearGradient xlink:href="#b" id="c" x1="295.5" x2="316.5" y1="185.9" y2="222.1"/><linearGradient xlink:href="#b" id="d" x1="356.3" x2="387.7" y1="194.8" y2="249.2"/><symbol id="e" overflow="visible" viewBox="0 0 270 270"><path fill="url(#a)" stroke="#72b9d5" stroke-linecap="round" stroke-linejoin="round" stroke-width="6" d="M252.3 168.6A133.4 133.4 0 01118 36.2 130.5 130.5 0 01122.5 3 133 133 0 003 134.6C3 207.7 63 267 137.2 267c62.5 0 114.8-42.2 129.8-99.2a135.6 135.6 0 01-14.8.8Z"><animateTransform additive="sum" attributeName="transform" dur="6s" repeatCount="indefinite" type="rotate" values="-15 135 135; 9 135 135; -15 135 135"/></path></symbol></defs><path fill="url(#b)" stroke="#fcd34d" stroke-linecap="round" stroke-linejoin="round" stroke-width="2" d="m282.8 162.8 25-6.4a1.8 1.8 0 011.7.5l18.3 18a1.8 1.8 0 003-1.7l-6.4-25a1.8 1.8 0 01.5-1.7l18-18.4a1.8 1.8 0 00-1.8-3l-24.9 6.5a1.8 1.8 0 01-1.7-.5l-18.4-18a1.8 1.8 0 00-3 1.7l6.5 25a1.8 1.8 0 01-.5 1.7l-18 18.3a1.8 1.8 0 001.7 3Z"><animateTransform additive="sum" attributeName="transform" calcMode="spline" dur="6s" keySplines=".42, 0, .58, 1; .42, 0, .58, 1" repeatCount="indefinite" type="rotate" values="-15 312 144; 15 312 144; -15 312 144"/><animate attributeName="opacity" dur="6s" values="1; .75; 1; .75; 1; .75; 1"/></path><path fill="url(#c)" stroke="#fcd34d" stroke-linecap="round" stroke-linejoin="round" stroke-width="2" d="m285.4 193.4 12 12.3a1.2 1.2 0 01.3 1.1l-4.3 16.6a1.2 1.2 0 002 1.2l12.3-12a1.2 1.2 0 011.1-.3l16.6 4.3a1.2 1.2 0 001.2-2l-12-12.3a1.2 1.2 0 01-.3-1.1l4.3-16.6a1.2 1.2 0 00-2-1.2l-12.3 12a1.2 1.2 0 01-1.1.3l-16.7-4.3a1.2 1.2 0 00-1.1 2Z"><animateTransform additive="sum" attributeName="transform" begin="-.33s" calcMode="spline" dur="6s" keySplines=".42, 0, .58, 1; .42, 0, .58, 1" repeatCount="indefinite" type="rotate" values="-15 306 204; 15 306 204; -15 306 204"/><animate attributeName="opacity" begin="-.33s" dur="6s" values="1; .75; 1; .75; 1; .75; 1"/></path><path fill="url(#d)" stroke="#fcd34d" stroke-linecap="round" stroke-linejoin="round" stroke-width="2" d="m337.3 223.7 24.8 7a1.8 1.8 0 011.3 1.2l6.9 24.8a1.8 1.8 0 003.4 0l7-24.8a1.8 1.8 0 011.2-1.3l24.8-6.9a1.8 1.8 0 000-3.4l-24.8-7a1.8 1.8 0 01-1.3-1.2l-6.9-24.8a1.8 1.8 0 00-3.4 0l-7 24.8a1.8 1.8 0 01-1.2 1.3l-24.8 6.9a1.8 1.8 0 000 3.4Z"><animateTransform additive="sum" attributeName="transform" begin="-.67s" calcMode="spline" dur="6s" keySplines=".42, 0, .58, 1; .42, 0, .58, 1" repeatCount="indefinite" type="rotate" values="-15 372 222; 15 372 222; -15 372 222"/><animate attributeName="opacity" begin="-.67s" dur="6s" values="1; .75; 1; .75; 1; .75; 1"/></path><use xlink:href="#e" width="270" height="270" transform="translate(121 121)"/></svg>