<svg xmlns="http://www.w3.org/2000/svg" xmlns:xlink="http://www.w3.org/1999/xlink" viewBox="0 0 512 512"><defs><linearGradient id="a" x1="79.5" x2="165.8" y1="-22.3" y2="127.2" gradientUnits="userSpaceOnUse"><stop offset="0" stop-color="#3392d6"/><stop offset=".5" stop-color="#3392d6"/><stop offset="1" stop-color="#2477b2"/></linearGradient><linearGradient id="c" x1="324.8" x2="413" y1="186.8" y2="339.5" gradientUnits="userSpaceOnUse"><stop offset="0" stop-color="#515a69" stop-opacity=".1"/><stop offset=".5" stop-color="#6b7280" stop-opacity=".1"/><stop offset="1" stop-color="#384354" stop-opacity=".1"/></linearGradient><linearGradient id="d" x1="323.7" x2="414" y1="184.9" y2="341.3" gradientUnits="userSpaceOnUse"><stop offset="0" stop-color="#d4d7dd"/><stop offset=".5" stop-color="#d4d7dd"/><stop offset="1" stop-color="#bec1c6"/></linearGradient><clipPath id="b"><path fill="none" d="M372 357c-22 0-40-18.1-40-40.5a40.6 40.6 0 0117.1-33.3v-97A23 23 0 01372 163H119.2v194Zm2.9-137h20m-20-22.8h20m-20 45.7h20"/></clipPath><symbol id="e" viewBox="0 0 244 92"><path fill="url(#a)" stroke="#2885c7" stroke-linecap="round" stroke-linejoin="round" stroke-width="4" d="M242 24.6h-8c-11 0-20.9-11.6-26-21.4a2.3 2.3 0 00-4 0c-5.2 9.8-15.1 21.4-26 21.4S157.1 13 152 3.2a2.3 2.3 0 00-4 0c-5.2 9.8-15.1 21.4-26 21.4S101.1 13 96 3.2a2.3 2.3 0 00-4 0C86.7 13 77 24.6 66 24.6S45 13 40 3.2a2.3 2.3 0 00-4 0C30.7 13 21 24.6 10 24.6H2v49.1A16.1 16.1 0 0018 90h208a16.1 16.1 0 0016-16.3Z"><animate attributeName="d" calcMode="spline" dur="3s" keySplines=".42, 0, .58, 1; .42, 0, .58, 1" repeatCount="indefinite" values="M 242 24.63 h -8 c -10.92 0 -20.85 -11.66 -26 -21.39 a 2.28 2.28 0 0 0 -4.06 0 c -5.12 9.73 -15.05 21.39 -26 21.39 S 157.15 13 152 3.24 a 2.28 2.28 0 0 0 -4.06 0 c -5.12 9.73 -15.05 21.39 -26 21.39 S 101.15 13 96 3.24 a 2.28 2.28 0 0 0 -4.06 0 c -5.12 9.73 -15 21.39 -26 21.39 S 45.15 13 40 3.24 a 2.28 2.28 0 0 0 -4.06 0 c -5.12 9.73 -15 21.39 -26 21.39 H 2 V 74 A 16.14 16.14 0 0 0 18 90 H 226 a 16.14 16.14 0 0 0 16 -16.3 Z; M 242 24.63 h -8 c -10.92 0 -20.85 -11.66 -26 -21.39 a 2.28 2.28 0 0 0 -4.06 0 c -5.12 9.73 -15.05 21.39 -26 21.39 S 157.15 13 152 3.24 a 2.28 2.28 0 0 0 -4.06 0 c -5.12 9.73 -15.05 21.39 -26 21.39 S 101.15 13 96 3.24 a 2.28 2.28 0 0 0 -4.06 0 c -5.12 9.73 -15 21.39 -26 21.39 S 45.15 13 40 3.24 a 2.28 2.28 0 0 0 -4.06 0 c -5.12 9.73 -15 21.39 -26 21.39 H 2 V 59 A 16.14 16.14 0 0 0 18 75 H 226 a 16.14 16.14 0 0 0 16 -16.3 Z; M 242 24.63 h -8 c -10.92 0 -20.85 -11.66 -26 -21.39 a 2.28 2.28 0 0 0 -4.06 0 c -5.12 9.73 -15.05 21.39 -26 21.39 S 157.15 13 152 3.24 a 2.28 2.28 0 0 0 -4.06 0 c -5.12 9.73 -15.05 21.39 -26 21.39 S 101.15 13 96 3.24 a 2.28 2.28 0 0 0 -4.06 0 c -5.12 9.73 -15 21.39 -26 21.39 S 45.15 13 40 3.24 a 2.28 2.28 0 0 0 -4.06 0 c -5.12 9.73 -15 21.39 -26 21.39 H 2 V 74 A 16.14 16.14 0 0 0 18 90 H 226 a 16.14 16.14 0 0 0 16 -16.3 Z"/><animateTransform additive="sum" attributeName="transform" calcMode="spline" dur="3s" keySplines=".42, 0, .58, 1; .42, 0, .58, 1" repeatCount="indefinite" type="translate" values="0 0; 0 15; 0 0"/></path></symbol></defs><g clip-path="url(#b)"><use xlink:href="#e" width="244" height="92" transform="translate(134 242)"/></g><ellipse cx="372" cy="317.1" fill="#ef4444" rx="25.7" ry="25.7"/><path fill="none" stroke="#ef4444" stroke-linecap="round" stroke-miterlimit="10" stroke-width="17.1" d="M372 231.5V317"><animateTransform attributeName="transform" calcMode="spline" dur="1s" keySplines=".42, 0, .58, 1; .42, 0, .58, 1" repeatCount="indefinite" type="translate" values="0 0; 0 18; 0 0"/></path><path fill="url(#c)" stroke="url(#d)" stroke-linecap="round" stroke-linejoin="round" stroke-width="4.3" d="M412 316.5c0 22.3-18 40.5-40 40.5s-40-18.1-40-40.5a40.6 40.6 0 0117.1-33.3v-97a22.9 22.9 0 1145.8 0v97a40.6 40.6 0 0117.1 33.3ZM374.9 220h20m-20-22.9h20m-20 45.7h20"/></svg>