<svg xmlns="http://www.w3.org/2000/svg" viewBox="0 0 64 64"><defs><clipPath id="a"><path fill="none" d="M47.5 45.71a4 4 0 0 1-4-4.06 4.07 4.07 0 0 1 1.71-3.32v-9.72H13.12v17.1z"/></clipPath><linearGradient id="b" x1="25.82" x2="38.39" y1="26.77" y2="48.54" gradientUnits="userSpaceOnUse"><stop offset="0" stop-color="#3392d6"/><stop offset=".45" stop-color="#3392d6"/><stop offset="1" stop-color="#2477b2"/></linearGradient><linearGradient id="c" x1="42.77" x2="51.6" y1="28.66" y2="43.96" gradientUnits="userSpaceOnUse"><stop offset="0" stop-color="#515a69" stop-opacity=".05"/><stop offset=".45" stop-color="#6b7280" stop-opacity=".05"/><stop offset="1" stop-color="#384354" stop-opacity=".1"/></linearGradient><linearGradient id="d" x1="42.52" x2="51.85" y1="28.23" y2="44.39" gradientUnits="userSpaceOnUse"><stop offset="0" stop-color="#d4d7dd"/><stop offset=".45" stop-color="#d4d7dd"/><stop offset="1" stop-color="#bec1c6"/></linearGradient></defs><g clip-path="url(#a)"><path fill="url(#b)" stroke="#2885c7" stroke-linecap="round" stroke-linejoin="round" stroke-width=".5" d="M47 34.33h-1c-1.36 0-2.61-1.46-3.25-2.67a.28.28 0 0 0-.5 0c-.64 1.21-1.89 2.67-3.25 2.67s-2.61-1.46-3.25-2.67a.28.28 0 0 0-.5 0c-.64 1.21-1.89 2.67-3.25 2.67s-2.61-1.46-3.25-2.67a.28.28 0 0 0-.5 0c-.64 1.21-1.89 2.67-3.25 2.67s-2.61-1.46-3.25-2.67a.28.28 0 0 0-.5 0c-.64 1.21-1.89 2.67-3.25 2.67h-1v6.13a2 2 0 0 0 2 2h26a2 2 0 0 0 2-2z"><animate attributeName="d" calcMode="spline" dur="3s" keySplines="0.5 0 0.5 1; 0.5 0 0.5 1" repeatCount="indefinite" values="M47,34.33H46c-1.36,0-2.61-1.46-3.25-2.67a.28.28,0,0,0-.5,0c-.64,1.21-1.89,2.67-3.25,2.67s-2.61-1.46-3.25-2.67a.28.28,0,0,0-.5,0c-.64,1.21-1.89,2.67-3.25,2.67s-2.61-1.46-3.25-2.67a.28.28,0,0,0-.5,0c-.64,1.21-1.89,2.67-3.25,2.67s-2.61-1.46-3.25-2.67a.28.28,0,0,0-.5,0c-.64,1.21-1.89,2.67-3.25,2.67H17v6.13a2,2,0,0,0,2,2H45a2,2,0,0,0,2-2Z; M47,36.33H46c-1.36,0-2.61-1.46-3.25-2.67a.28.28,0,0,0-.5,0c-.64,1.21-1.89,2.67-3.25,2.67s-2.61-1.46-3.25-2.67a.28.28,0,0,0-.5,0c-.64,1.21-1.89,2.67-3.25,2.67s-2.61-1.46-3.25-2.67a.28.28,0,0,0-.5,0c-.64,1.21-1.89,2.67-3.25,2.67s-2.61-1.46-3.25-2.67a.28.28,0,0,0-.5,0c-.64,1.21-1.89,2.67-3.25,2.67H17v4.13a2,2,0,0,0,2,2H45a2,2,0,0,0,2-2Z; M47,34.33H46c-1.36,0-2.61-1.46-3.25-2.67a.28.28,0,0,0-.5,0c-.64,1.21-1.89,2.67-3.25,2.67s-2.61-1.46-3.25-2.67a.28.28,0,0,0-.5,0c-.64,1.21-1.89,2.67-3.25,2.67s-2.61-1.46-3.25-2.67a.28.28,0,0,0-.5,0c-.64,1.21-1.89,2.67-3.25,2.67s-2.61-1.46-3.25-2.67a.28.28,0,0,0-.5,0c-.64,1.21-1.89,2.67-3.25,2.67H17v6.13a2,2,0,0,0,2,2H45a2,2,0,0,0,2-2Z"/></path></g><circle cx="47.5" cy="41.71" r="2.57" fill="#ef4444"/><path fill="none" stroke="#ef4444" stroke-linecap="round" stroke-miterlimit="10" stroke-width="2" d="M47.5 33.14v8.57"><animateTransform attributeName="transform" dur="1s" repeatCount="indefinite" type="translate" values="0 0; 0 1; 0 0"/></path><path fill="url(#c)" stroke="url(#d)" stroke-linecap="round" stroke-linejoin="round" d="M51.5 41.65a4 4 0 1 1-8 0 4.07 4.07 0 0 1 1.71-3.32v-9.72a2.29 2.29 0 1 1 4.58 0v9.72a4.07 4.07 0 0 1 1.71 3.32zM47.79 32h2m-2-2.29h2m-2 4.58h2"/></svg>