<svg xmlns="http://www.w3.org/2000/svg" xmlns:xlink="http://www.w3.org/1999/xlink" viewBox="0 0 512 512"><defs><symbol id="e" viewBox="0 0 164 245.6"><path fill="url(#a)" stroke="#2885c7" stroke-miterlimit="10" stroke-width="4" d="M82 3.6c-48.7 72-80 117-80 160.7s35.8 79.3 80 79.3 80-35.5 80-79.3S130.7 75.5 82 3.6Z"/></symbol><symbol id="g" viewBox="0 0 72 168"><circle cx="36" cy="132" r="36" fill="#ef4444"/><path fill="none" stroke="#ef4444" stroke-linecap="round" stroke-miterlimit="10" stroke-width="24" d="M36 12v120"><animateTransform attributeName="transform" calcMode="spline" dur="1s" keySplines=".42, 0, .58, 1; .42, 0, .58, 1" repeatCount="indefinite" type="translate" values="0 0; 0 18; 0 0"/></path></symbol><symbol id="h" viewBox="0 0 118 278"><path fill="url(#b)" stroke="url(#c)" stroke-linecap="round" stroke-linejoin="round" stroke-width="6" d="M115 218.2c0 31.4-25 56.8-56 56.8S3 249.6 3 218.2a57 57 0 0124-46.6V35.5a32 32 0 1164 0v136a57 57 0 0124 46.7ZM63 83h28M63 51h28m-28 64h28"/></symbol><symbol id="f" viewBox="0 0 118 278"><use xlink:href="#g" width="72" height="168" transform="translate(23 87)"/><use xlink:href="#h" width="118" height="278"/></symbol><linearGradient id="a" x1="14.8" x2="124.2" y1="42.3" y2="231.7" gradientUnits="userSpaceOnUse"><stop offset="0" stop-color="#3392d6"/><stop offset=".5" stop-color="#3392d6"/><stop offset="1" stop-color="#2477b2"/></linearGradient><linearGradient id="b" x1="-7.2" x2="116.4" y1="36.3" y2="250.4" gradientUnits="userSpaceOnUse"><stop offset="0" stop-color="#515a69" stop-opacity=".1"/><stop offset=".5" stop-color="#6b7280" stop-opacity=".1"/><stop offset="1" stop-color="#384354" stop-opacity=".1"/></linearGradient><linearGradient id="c" x1="-8.7" x2="117.9" y1="33.7" y2="253" gradientUnits="userSpaceOnUse"><stop offset="0" stop-color="#d4d7dd"/><stop offset=".5" stop-color="#d4d7dd"/><stop offset="1" stop-color="#bec1c6"/></linearGradient><clipPath id="d"><path fill="none" d="M334 392c-31 0-56-25.4-56-56.8a57 57 0 0124-46.6V152.5a32.2 32.2 0 0132-32.5H167.3v272Zm4-192h28m-28-32h28m-28 64h28"/></clipPath></defs><g clip-path="url(#d)"><use xlink:href="#e" width="164" height="245.6" transform="translate(173.93 133.01)"/></g><use xlink:href="#f" width="118" height="278" transform="translate(275 117)"/></svg>