<svg xmlns="http://www.w3.org/2000/svg" xmlns:xlink="http://www.w3.org/1999/xlink" viewBox="0 0 512 512"><defs><linearGradient id="b" x1="99.5" x2="232.6" y1="30.7" y2="261.4" gradientUnits="userSpaceOnUse"><stop offset="0" stop-color="#f3f7fe"/><stop offset=".5" stop-color="#f3f7fe"/><stop offset="1" stop-color="#deeafb"/></linearGradient><linearGradient id="m" x1="8.7" x2="80.9" y1="17.1" y2="142.1" gradientUnits="userSpaceOnUse"><stop offset="0" stop-color="#f7b23b"/><stop offset=".5" stop-color="#f7b23b"/><stop offset="1" stop-color="#f59e0b"/></linearGradient><linearGradient id="a" x1="34.7" x2="119.2" y1="18.6" y2="165" gradientUnits="userSpaceOnUse"><stop offset="0" stop-color="#86c3db"/><stop offset=".5" stop-color="#86c3db"/><stop offset="1" stop-color="#5eafcf"/></linearGradient><linearGradient xlink:href="#a" id="g" x1="11.4" x2="32.8" y1="5.9" y2="43.1"/><linearGradient xlink:href="#a" id="j" x1="67.4" x2="88.8" y1="5.9" y2="43.1"/><linearGradient xlink:href="#a" id="f" x1="123.4" x2="144.8" y1="5.9" y2="43.1"/><symbol id="c" viewBox="0 0 172 172"><path fill="url(#a)" stroke="#72b9d5" stroke-linecap="round" stroke-linejoin="round" stroke-width="4" d="M160.6 107.4a84.8 84.8 0 01-85.4-84.3A83.3 83.3 0 0178 2 84.7 84.7 0 002 85.7 84.8 84.8 0 0087.4 170a85.2 85.2 0 0082.6-63.1 88 88 0 01-9.4.5Z"><animateTransform additive="sum" attributeName="transform" dur="6s" repeatCount="indefinite" type="rotate" values="-15 86 86; 9 86 86; -15 86 86"/></path></symbol><symbol id="d" viewBox="0 0 350 222"><path fill="url(#b)" stroke="#e6effc" stroke-miterlimit="10" stroke-width="6" d="m291 107-2.5.1A83.9 83.9 0 00135.6 43 56 56 0 0051 91a56.6 56.6 0 00.8 9A60 60 0 0063 219l4-.2v.2h224a56 56 0 000-112Z"/></symbol><symbol id="o" viewBox="0 0 351 246"><use xlink:href="#c" width="172" height="172"/><use xlink:href="#d" width="350" height="222" transform="translate(1 24)"/></symbol><symbol id="p" overflow="visible" viewBox="0 0 156.2 49"><g><path fill="url(#a)" stroke="#86c3db" stroke-miterlimit="10" d="m41.7 31-5.8-3.3a13.7 13.7 0 000-6.5l5.8-3.2a4 4 0 001.5-5.5 4 4 0 00-5.6-1.5l-5.8 3.3a13.6 13.6 0 00-2.6-2 13.8 13.8 0 00-3-1.3V4.5a4 4 0 00-8.1 0v6.6a14.3 14.3 0 00-5.7 3.2L6.6 11A4 4 0 001 12.5 4 4 0 002.5 18l5.8 3.3a13.7 13.7 0 000 6.5L2.5 31A4 4 0 001 36.5a4 4 0 003.5 2 4 4 0 002-.5l5.8-3.3a13.6 13.6 0 002.6 2 13.8 13.8 0 003 1.2v6.6a4 4 0 008.2 0v-6.6a14.2 14.2 0 005.6-3.2l6 3.3a4 4 0 002 .5 4 4 0 003.4-2 4 4 0 00-1.4-5.5ZM19 29.7a6 6 0 01-2.3-8.2 6.1 6.1 0 015.3-3 6.2 6.2 0 013 .8 6 6 0 012.2 8.2 6.1 6.1 0 01-8.2 2.2Z" opacity="0"><animateTransform additive="sum" attributeName="transform" dur="6s" repeatCount="indefinite" type="rotate" values="0 24 24; 360 24 24"/><animate id="e" attributeName="opacity" begin="0s; e.end+1s" dur="2s" keyTimes="0; .17; .83; 1" values="0; 1; 1; 0"/></path><animateTransform additive="sum" attributeName="transform" begin="0s; f.end+1s" dur="2s" type="translate" values="0 -36; 0 92;"/></g><g><path fill="url(#g)" stroke="#86c3db" stroke-miterlimit="10" d="m97.7 31-5.8-3.3a13.7 13.7 0 000-6.5l5.8-3.2a4 4 0 001.5-5.5 4 4 0 00-5.6-1.5l-5.8 3.3a13.6 13.6 0 00-2.6-2 13.8 13.8 0 00-3-1.3V4.5a4 4 0 00-8.1 0v6.6a14.3 14.3 0 00-5.7 3.2L62.6 11a4 4 0 00-5.6 1.5 4 4 0 001.5 5.5l5.8 3.3a13.7 13.7 0 000 6.5L58.5 31a4 4 0 00-1.5 5.5 4 4 0 003.5 2 4 4 0 002-.5l5.8-3.3a13.6 13.6 0 002.7 2 13.8 13.8 0 003 1.2v6.6a4 4 0 008 0v-6.6a14.2 14.2 0 005.7-3.2l6 3.3a4 4 0 002 .5 4 4 0 003.4-2 4 4 0 00-1.4-5.5ZM75 29.7a6 6 0 01-2.3-8.2 6.1 6.1 0 015.3-3 6.2 6.2 0 013 .8 6 6 0 012.2 8.2 6.1 6.1 0 01-8.2 2.2Z" opacity="0"><animateTransform additive="sum" attributeName="transform" dur="6s" repeatCount="indefinite" type="rotate" values="0 80 24; 360 80 24"/><animate id="h" attributeName="opacity" begin="-.83s; h.end+1s" dur="2s" keyTimes="0; .17; .83; 1" values="0; 1; 1; 0"/></path><animateTransform id="i" additive="sum" attributeName="transform" begin="-.83s; i.end+1s" dur="2s" type="translate" values="0 -36; 0 92;"/></g><g><path fill="url(#j)" stroke="#86c3db" stroke-miterlimit="10" d="m153.7 31-5.8-3.3a13.7 13.7 0 000-6.5l5.8-3.2a4 4 0 001.5-5.5 4 4 0 00-5.6-1.5l-5.8 3.3a13.6 13.6 0 00-2.6-2 13.8 13.8 0 00-3-1.3V4.5a4 4 0 00-8.1 0v6.6a14.3 14.3 0 00-5.7 3.2l-5.8-3.3a4 4 0 00-5.6 1.5 4 4 0 001.5 5.5l5.8 3.3a13.7 13.7 0 000 6.5l-5.8 3.2a4 4 0 00-1.5 5.5 4 4 0 003.5 2 4 4 0 002-.5l5.8-3.3a13.6 13.6 0 002.7 2 13.8 13.8 0 003 1.2v6.6a4 4 0 008 0v-6.6a14.2 14.2 0 005.7-3.2l5.8 3.3a4 4 0 002 .5 4 4 0 003.5-2 4 4 0 00-1.3-5.5ZM131 29.7a6 6 0 01-2.3-8.2 6.1 6.1 0 015.3-3 6.2 6.2 0 013 .8 6 6 0 012.2 8.2 6.1 6.1 0 01-8.2 2.2Z" opacity="0"><animateTransform additive="sum" attributeName="transform" dur="6s" repeatCount="indefinite" type="rotate" values="0 136 24; 360 136 24"/><animate id="k" attributeName="opacity" begin=".83s; k.end+1s" dur="2s" keyTimes="0; .17; .83; 1" values="0; 1; 1; 0"/></path><animateTransform id="l" additive="sum" attributeName="transform" begin=".83s; l.end+1s" dur="2s" type="translate" values="0 -36; 0 92;"/></g></symbol><symbol id="q" viewBox="0 0 102.7 186.8"><path fill="url(#m)" stroke="#f6a823" stroke-miterlimit="10" stroke-width="4" d="m34.8 2-32 96h32l-16 80 80-112h-48l32-64h-48z"><animate id="n" attributeName="opacity" begin="0s; n.end+.67s" dur="1.33s" keyTimes="0; .38; .5; .63; .75; .86; .94; 1" values="1; 1; 0; 1; 0; 1; 0; 1"/></path></symbol></defs><use xlink:href="#o" width="351" height="246" transform="translate(80 121)"/><use xlink:href="#p" width="156.2" height="49" transform="translate(177.9 337.5)"/><use xlink:href="#q" width="102.7" height="186.7" transform="translate(205.23 291)"/></svg>