<svg xmlns="http://www.w3.org/2000/svg" viewBox="0 0 64 64"><defs><linearGradient id="a" x1="25.38" x2="38.8" y1="25.81" y2="49.04" gradientUnits="userSpaceOnUse"><stop offset="0" stop-color="#3392d6"/><stop offset=".45" stop-color="#3392d6"/><stop offset="1" stop-color="#2477b2"/></linearGradient></defs><path fill="url(#a)" stroke="#2885c7" stroke-linecap="round" stroke-linejoin="round" stroke-width=".5" d="M46 33.31a3.72 3.72 0 0 1-3.28-2 .25.25 0 0 0-.44 0 3.71 3.71 0 0 1-6.56 0 .25.25 0 0 0-.44 0 3.71 3.71 0 0 1-6.56 0 .25.25 0 0 0-.44 0 3.71 3.71 0 0 1-6.56 0 .25.25 0 0 0-.44 0 3.72 3.72 0 0 1-3.28 2h-3.5v7.89a1.61 1.61 0 0 0 1.61 1.61h31.77a1.62 1.62 0 0 0 1.62-1.62v-7.88z"><animate attributeName="d" calcMode="spline" dur="3s" keySplines="0.5 0 0.5 1; 0.5 0 0.5 1" repeatCount="indefinite" values="M46,33.31a3.72,3.72,0,0,1-3.28-2,.25.25,0,0,0-.44,0,3.71,3.71,0,0,1-6.56,0,.25.25,0,0,0-.44,0,3.71,3.71,0,0,1-6.56,0,.25.25,0,0,0-.44,0,3.71,3.71,0,0,1-6.56,0,.25.25,0,0,0-.44,0,3.72,3.72,0,0,1-3.28,2H14.5V41.2a1.61,1.61,0,0,0,1.61,1.61H47.88a1.62,1.62,0,0,0,1.62-1.62V33.31Z; M46,31.31a3.72,3.72,0,0,1-3.28-2,.25.25,0,0,0-.44,0,3.71,3.71,0,0,1-6.56,0,.25.25,0,0,0-.44,0,3.71,3.71,0,0,1-6.56,0,.25.25,0,0,0-.44,0,3.71,3.71,0,0,1-6.56,0,.25.25,0,0,0-.44,0,3.72,3.72,0,0,1-3.28,2H14.5V41.2a1.61,1.61,0,0,0,1.61,1.61H47.88a1.62,1.62,0,0,0,1.62-1.62V31.31Z; M46,33.31a3.72,3.72,0,0,1-3.28-2,.25.25,0,0,0-.44,0,3.71,3.71,0,0,1-6.56,0,.25.25,0,0,0-.44,0,3.71,3.71,0,0,1-6.56,0,.25.25,0,0,0-.44,0,3.71,3.71,0,0,1-6.56,0,.25.25,0,0,0-.44,0,3.72,3.72,0,0,1-3.28,2H14.5V41.2a1.61,1.61,0,0,0,1.61,1.61H47.88a1.62,1.62,0,0,0,1.62-1.62V33.31Z"/></path><path fill="none" stroke="#374151" stroke-linecap="round" stroke-linejoin="round" stroke-width="2" d="M32 28.5v-9l-3 3.45 3-3.45 3 3.45"><animateTransform attributeName="transform" calcMode="spline" dur="1.5s" keySplines="0.5 0 0.5 1; 0.5 0 0.5 1" repeatCount="indefinite" type="translate" values="0 2; 0 -2; 0 2"/></path></svg>