<svg xmlns="http://www.w3.org/2000/svg" viewBox="0 0 64 64"><defs><linearGradient id="a" x1="28.15" x2="35.85" y1="19.33" y2="32.67" gradientUnits="userSpaceOnUse"><stop offset="0" stop-color="#fbbf24"/><stop offset=".45" stop-color="#fbbf24"/><stop offset="1" stop-color="#f59e0b"/></linearGradient></defs><circle cx="32" cy="26" r="7.7" fill="url(#a)" stroke="#f8af18" stroke-miterlimit="10" stroke-width=".5"/><path fill="none" stroke="#fbbf24" stroke-linecap="round" stroke-miterlimit="10" stroke-width="3" d="M32 14.05V9.5m0 33V38m8.45-20.4 3.22-3.22M20.33 37.67l3.22-3.22m0-16.9-3.22-3.22m23.34 23.34-3.22-3.22M20.05 26H15.5m33 0H44"><animateTransform attributeName="transform" dur="45s" repeatCount="indefinite" type="rotate" values="0 32 26; 360 32 26"/></path><path fill="#374151" d="M24.41 46.89c.06 0 .08.14.08.28v5.66a.31.31 0 0 1-.36.37h-.73a.37.37 0 0 1-.29-.09.36.36 0 0 1-.08-.28V48.6l-.88.5a.36.36 0 0 1-.56-.14l-.31-.57a.37.37 0 0 1-.05-.29.6.6 0 0 1 .23-.21l1.63-.89a1 1 0 0 1 .52-.15h.52a.36.36 0 0 1 .28.04zm3.59-.22a2.27 2.27 0 0 1 1.66.6 2 2 0 0 1 .62 1.46 2.05 2.05 0 0 1-.52 1.51 5.73 5.73 0 0 1-1.89 1.07l-.2.07a1.18 1.18 0 0 0-.23.08l-.19.08a.52.52 0 0 0-.16.12.23.23 0 0 0 0 .14v.07h2.73A.42.42 0 0 1 30 52a.44.44 0 0 1 .08.29v.59a.41.41 0 0 1-.08.28.37.37 0 0 1-.29.09h-3.9a.36.36 0 0 1-.28-.09.41.41 0 0 1-.08-.28v-.69a2 2 0 0 1 .14-.77 1.59 1.59 0 0 1 .41-.62 4.3 4.3 0 0 1 .52-.37 5.07 5.07 0 0 1 .64-.29 4.83 4.83 0 0 0 1.12-.56 1 1 0 0 0 .39-.79.74.74 0 0 0-.22-.55.77.77 0 0 0-.55-.24 1 1 0 0 0-1 .66.44.44 0 0 1-.19.25.37.37 0 0 1-.27 0l-.7-.25a.32.32 0 0 1-.22-.47A2.35 2.35 0 0 1 28 46.67zm5.54 3.58a.44.44 0 0 1 .08.29v.55a.3.3 0 0 1-.37.37h-2a.3.3 0 0 1-.37-.37v-.55a.3.3 0 0 1 .37-.37h2a.44.44 0 0 1 .29.08zm3.4-3.36c.06 0 .08.14.08.28v5.66a.36.36 0 0 1-.08.28.37.37 0 0 1-.29.09h-.73a.32.32 0 0 1-.37-.37V48.6l-.87.5a.36.36 0 0 1-.56-.14l-.31-.57a.37.37 0 0 1-.05-.29.6.6 0 0 1 .23-.21l1.63-.89a1 1 0 0 1 .52-.15h.51a.37.37 0 0 1 .29.04zm5.5 0a.39.39 0 0 1 .08.28v.6a.44.44 0 0 1-.08.29.42.42 0 0 1-.29.08h-2.37l-.09.94h.83a2.25 2.25 0 0 1 1.69.59 2.06 2.06 0 0 1 .57 1.5 2.1 2.1 0 0 1-.62 1.54 2.35 2.35 0 0 1-1.71.62 2.39 2.39 0 0 1-2.52-1.49.36.36 0 0 1 0-.29.36.36 0 0 1 .23-.17l.7-.25a.39.39 0 0 1 .29 0 .59.59 0 0 1 .18.25.89.89 0 0 0 .38.48 1.31 1.31 0 0 0 .71.16.78.78 0 0 0 .84-.85.72.72 0 0 0-.23-.56.93.93 0 0 0-.61-.2h-1.9a.41.41 0 0 1-.31-.1.41.41 0 0 1-.06-.33l.27-2.62a.54.54 0 0 1 .15-.41.61.61 0 0 1 .43-.15h3.15a.37.37 0 0 1 .29.09z"/></svg>