<svg xmlns="http://www.w3.org/2000/svg" xmlns:xlink="http://www.w3.org/1999/xlink" viewBox="0 0 64 64"><defs><linearGradient id="a" x1="14.86" x2="19.95" y1="24.33" y2="33.15" gradientUnits="userSpaceOnUse"><stop offset="0" stop-color="#d4d7dd"/><stop offset=".45" stop-color="#d4d7dd"/><stop offset="1" stop-color="#bec1c6"/></linearGradient><linearGradient id="b" x1="11.48" x2="16.89" y1="29.39" y2="38.76" xlink:href="#a"/><linearGradient id="c" x1="-9.68" x2="5.58" y1="-39.92" y2="-13.48" gradientTransform="rotate(60 -38.005 33.374)" xlink:href="#a"/><linearGradient id="d" x1="-17.83" x2="12.17" y1="-25.33" y2="-25.33" gradientTransform="matrix(.5 .87 .87 -.5 65.77 17.34)" gradientUnits="userSpaceOnUse"><stop offset="0" stop-color="#f87171"/><stop offset=".45" stop-color="#f87171"/><stop offset="1" stop-color="#dc2626"/></linearGradient></defs><path fill="none" stroke="url(#a)" stroke-dasharray="12 15" stroke-linecap="round" stroke-miterlimit="10" stroke-width="2" d="M22.18 25.68a2.22 2.22 0 1 1 1.6 3.76H8"><animate attributeName="stroke-dashoffset" dur="2s" repeatCount="indefinite" values="-27; 27"/></path><path fill="none" stroke="url(#b)" stroke-dasharray="7 14" stroke-linecap="round" stroke-miterlimit="10" stroke-width="2" d="M15.73 36.32a2.22 2.22 0 1 0 1.6-3.76H8"><animate attributeName="stroke-dashoffset" begin="-1.5s" dur="2s" repeatCount="indefinite" values="-21; 21"/></path><path fill="none" stroke="url(#c)" stroke-linecap="round" stroke-linejoin="round" stroke-width="2" d="M24.28 44.76a3 3 0 0 1-3-5.2l.27-.15 23.77-13.72"/><g><path fill="url(#d)" stroke="#ef4444" stroke-miterlimit="10" stroke-width=".5" d="M55.12 37.55c-5.74 3.31-13.75.18-17.9-7s-2.84-15.67 2.9-19l.16 1.75A8.92 8.92 0 0 0 44 19.61l1.27.86v1a8.9 8.9 0 0 0 3.87 6.71l.81.51.11 1.53a8.86 8.86 0 0 0 3.6 6.36z"/><path fill="none" stroke="#ef4444" stroke-linecap="round" stroke-linejoin="round" stroke-width=".5" d="M50 28.64c-5.39 4.08-12.76 1.91-12.76 1.91s1.82-7.46 8-10.08"/><animateTransform attributeName="transform" dur="1s" repeatCount="indefinite" type="translate" values="0 0; 1 -0.5; 0 0"/></g></svg>