<svg xmlns="http://www.w3.org/2000/svg" xmlns:xlink="http://www.w3.org/1999/xlink" viewBox="0 0 512 512"><defs><linearGradient id="a" x1="54.5" x2="89.2" y1="2.2" y2="62.2" gradientUnits="userSpaceOnUse"><stop offset="0" stop-color="#d4d7dd"/><stop offset=".5" stop-color="#d4d7dd"/><stop offset="1" stop-color="#bec1c6"/></linearGradient><linearGradient xlink:href="#a" id="b" x1="31.4" x2="68.3" y1="37.6" y2="101.4"/><linearGradient xlink:href="#a" id="c" x1="-2197.1" x2="-2077" y1="5168.6" y2="5376.7" gradientTransform="rotate(45 5106 5660.004)"/><linearGradient id="d" x1="-2191.4" x2="-2110.1" y1="5157.8" y2="5298.6" gradientTransform="rotate(45 5106 5660.004)" gradientUnits="userSpaceOnUse"><stop offset="0" stop-color="#f87171"/><stop offset=".5" stop-color="#f87171"/><stop offset="1" stop-color="#dc2626"/></linearGradient><symbol id="e" viewBox="0 0 138 96"><path fill="none" stroke="url(#a)" stroke-dasharray="58" stroke-linecap="round" stroke-miterlimit="10" stroke-width="12" d="M105.2 10.8A15.6 15.6 0 11116.4 37H6"><animate attributeName="stroke-dashoffset" dur="6s" repeatCount="indefinite" values="0; 1274"/></path><path fill="none" stroke="url(#b)" stroke-dasharray="43" stroke-linecap="round" stroke-miterlimit="10" stroke-width="12" d="M60.7 85.2A15.6 15.6 0 1071.9 59H6.6"><animate attributeName="stroke-dashoffset" dur="6s" repeatCount="indefinite" values="0; 857"/></path></symbol></defs><g><path fill="none" stroke="url(#c)" stroke-linecap="round" stroke-linejoin="round" stroke-width="12" d="M304 355a24 24 0 01-48 0V133" transform="rotate(45 256 256)"/><g transform="rotate(45 256 256)"><path fill="url(#d)" stroke="#ef4444" stroke-miterlimit="10" stroke-width="4" d="M376 237c0-53-53.7-96-120-96s-120 43-120 96l12.7-5.8c18-8.3 41-8 58.5.5l11 5.3 6.8-3.5a70.8 70.8 0 0162 0l6.8 3.5 11-5.3a71.1 71.1 0 0158.5-.5Z"/><path fill="none" stroke="#ef4444" stroke-linecap="round" stroke-linejoin="round" stroke-width="2" d="M293.8 237c6.6-53.6-37.8-96-37.8-96s-44.4 42.4-37.8 96"/><animateTransform additive="sum" attributeName="transform" calcMode="spline" dur="6s" keySplines=".42, 0, .58, 1; .42, 0, .58, 1" repeatCount="indefinite" type="scale" values="1 1; .9 1.1; 1 1"/><animateTransform additive="sum" attributeName="transform" calcMode="spline" dur="6s" keySplines=".42, 0, .58, 1; .42, 0, .58, 1" repeatCount="indefinite" type="translate" values="0 0; 29 -14; 0 0"/></g></g><use xlink:href="#e" width="138" height="96" transform="translate(62.5 201)"/></svg>