<svg xmlns="http://www.w3.org/2000/svg" xmlns:xlink="http://www.w3.org/1999/xlink" viewBox="0 0 512 512"><defs><linearGradient id="a" x1="150" x2="234" y1="119.2" y2="264.8" gradientUnits="userSpaceOnUse"><stop offset="0" stop-color="#fbbf24"/><stop offset=".5" stop-color="#fbbf24"/><stop offset="1" stop-color="#f59e0b"/></linearGradient><clipPath id="b"><path fill="none" d="M64 64h384v192H328a72 72 0 00-72 72v120H64Z"/></clipPath><symbol id="c" viewBox="0 0 384 384"><circle cx="192" cy="192" r="84" fill="url(#a)" stroke="#f8af18" stroke-miterlimit="10" stroke-width="6"/><path fill="none" stroke="#fbbf24" stroke-linecap="round" stroke-miterlimit="10" stroke-width="24" d="M192 61.7V12m0 360v-49.7m92.2-222.5 35-35M64.8 319.2l35.1-35.1m0-184.4-35-35m254.5 254.5-35.1-35.1M61.7 192H12m360 0h-49.7"><animateTransform additive="sum" attributeName="transform" dur="6s" repeatCount="indefinite" type="rotate" values="0 192 192; 45 192 192"/></path></symbol></defs><g clip-path="url(#b)"><use xlink:href="#c" width="384" height="384" transform="translate(64 64)"/><path fill="none" stroke="#f8af18" stroke-miterlimit="10" stroke-width="6" d="M254 338v-10a74 74 0 0174-74h10"/></g><rect width="144" height="144" x="280" y="280" fill="#ff8d00" rx="48"/><path fill="#fff" d="M356.5 338.8q11 0 17.7 6.5t6.8 17.3q0 11.3-7.7 18.4t-20.2 7q-12.6 0-20.6-7.7-9.5-9-9.5-27.7 0-17.5 7.6-27t22.2-9.6q10.1 0 16.8 4.6a22.3 22.3 0 019 13l-16.6 1q-2.1-5.6-9.3-5.6-6 0-9 4t-3.7 13q5.8-7.2 16.5-7.2Zm-12.7 31.6a11.5 11.5 0 008.8 3.7q5.4 0 8.3-3.2a11.9 11.9 0 002.9-8 10.6 10.6 0 00-3.2-8 11.2 11.2 0 00-8.2-3.1 11 11 0 00-8 3 12 12 0 00-3.4 8.2 12.3 12.3 0 002.8 7.4Z"/></svg>