<svg xmlns="http://www.w3.org/2000/svg" xmlns:xlink="http://www.w3.org/1999/xlink" viewBox="0 0 64 64"><defs><linearGradient id="b" x1="21.06" x2="28.46" y1="31.71" y2="44.54" gradientUnits="userSpaceOnUse"><stop offset="0" stop-color="#3392d6"/><stop offset=".45" stop-color="#3392d6"/><stop offset="1" stop-color="#2477b2"/></linearGradient><linearGradient id="c" x1="39.16" x2="46.16" y1="13.39" y2="25.51" gradientTransform="rotate(-6 111.216 19.126)" gradientUnits="userSpaceOnUse"><stop offset="0" stop-color="#875b34"/><stop offset=".45" stop-color="#875b34"/><stop offset="1" stop-color="#624226"/></linearGradient><linearGradient id="d" x1="40.02" x2="46.09" y1="9.55" y2="20.06" gradientTransform="rotate(-6 111.216 19.126)" gradientUnits="userSpaceOnUse"><stop offset="0" stop-color="#51cf66"/><stop offset=".45" stop-color="#51cf66"/><stop offset="1" stop-color="#37b24d"/></linearGradient><linearGradient id="e" x1="34.09" x2="41.3" y1="32.74" y2="45.22" gradientUnits="userSpaceOnUse"><stop offset="0" stop-color="#fbbf24"/><stop offset=".45" stop-color="#fbbf24"/><stop offset="1" stop-color="#f59e0b"/></linearGradient><linearGradient id="a" x1="28.92" x2="21.9" y1="13.85" y2="26" gradientTransform="matrix(-1 0 0 1 50 0)" gradientUnits="userSpaceOnUse"><stop offset="0" stop-color="#d4d7dd"/><stop offset=".45" stop-color="#d4d7dd"/><stop offset="1" stop-color="#bec1c6"/></linearGradient><linearGradient id="f" x1="23.93" x2="20.44" y1="22.24" y2="28.28" xlink:href="#a"/></defs><path fill="url(#b)" stroke="#2885c7" stroke-linecap="round" stroke-linejoin="round" stroke-width=".5" d="M32 34.33c-1.36 0-2.61-1.46-3.25-2.67a.28.28 0 0 0-.5 0c-.64 1.21-1.89 2.67-3.25 2.67s-2.61-1.46-3.25-2.67a.28.28 0 0 0-.5 0c-.64 1.21-1.89 2.67-3.25 2.67h-1v6.13a2 2 0 0 0 2 2h13z"><animate attributeName="d" calcMode="spline" dur="3s" keySplines="0.5 0 0.5 1; 0.5 0 0.5 1" repeatCount="indefinite" values="M32,34.33c-1.36,0-2.61-1.46-3.25-2.67a.28.28,0,0,0-.5,0c-.64,1.21-1.89,2.67-3.25,2.67s-2.61-1.46-3.25-2.67a.28.28,0,0,0-.5,0c-.64,1.21-1.89,2.67-3.25,2.67H17v6.13a2,2,0,0,0,2,2H32Z; M32,36.33c-1.36,0-2.61-1.46-3.25-2.67a.28.28,0,0,0-.5,0c-.64,1.21-1.89,2.67-3.25,2.67s-2.61-1.46-3.25-2.67a.28.28,0,0,0-.5,0c-.64,1.21-1.89,2.67-3.25,2.67H17v4.13a2,2,0,0,0,2,2H32Z; M32,34.33c-1.36,0-2.61-1.46-3.25-2.67a.28.28,0,0,0-.5,0c-.64,1.21-1.89,2.67-3.25,2.67s-2.61-1.46-3.25-2.67a.28.28,0,0,0-.5,0c-.64,1.21-1.89,2.67-3.25,2.67H17v6.13a2,2,0,0,0,2,2H32Z"/></path><path fill="url(#c)" stroke="#744e2d" stroke-linecap="round" stroke-linejoin="round" stroke-width=".5" d="M42.78 19.79c-.08-.68-.27-1.21-.45-1.19h-.14c-.17 0-.26.58-.19 1.26l1.3 13.4c.07.71.28 1.29.46 1.27h.35c.18 0 .27-.62.18-1.34z"/><path fill="url(#d)" stroke="#40c057" stroke-linecap="round" stroke-miterlimit="10" stroke-width=".5" d="M47.67 19.23a4.36 4.36 0 0 0-4.92-3.74A4.54 4.54 0 0 0 39.09 18h-.22a3.27 3.27 0 0 0-3 3.51 3.18 3.18 0 0 0 2.74 2.76 2.06 2.06 0 0 0-.1.86A2.18 2.18 0 0 0 41 27a2.3 2.3 0 0 0 1.41-.68 3.4 3.4 0 0 0 2.77.95 3.27 3.27 0 0 0 3-3.51 3 3 0 0 0-1.08-2 4 4 0 0 0 .57-2.53z"><animateTransform attributeName="transform" dur="1.5s" repeatCount="indefinite" type="translate" values="-.5 0; .5 0; -.5 0"/></path><path fill="url(#e)" stroke="#f8af18" stroke-miterlimit="10" stroke-width=".5" d="M47.5 40.28v-6.56a2.1 2.1 0 0 0-2-2.22h-6.15c-4.87 0-9.33 3.1-11.52 8l-1.33 3h19a2.1 2.1 0 0 0 2-2.22z"/><path fill="none" stroke="url(#a)" stroke-dasharray="12 15" stroke-linecap="round" stroke-miterlimit="10" stroke-width="2" d="M19.82 17.68a2.22 2.22 0 1 0-1.6 3.76H34"><animate attributeName="stroke-dashoffset" dur="2s" repeatCount="indefinite" values="-27; 27"/></path><path fill="none" stroke="url(#f)" stroke-dasharray="7 14" stroke-linecap="round" stroke-miterlimit="10" stroke-width="2" d="M26.27 28.32a2.22 2.22 0 1 1-1.6-3.76H34"><animate attributeName="stroke-dashoffset" begin="-1.5s" dur="2s" repeatCount="indefinite" values="-21; 21"/></path></svg>