<?xml version="1.0" encoding="UTF-8"?><svg xmlns="http://www.w3.org/2000/svg" xmlns:xlink="http://www.w3.org/1999/xlink" viewBox="0 0 512 512"><defs><style>.id{fill:none;stroke:#000;stroke-miterlimit:10;stroke-width:15px;}</style><symbol id="a" viewBox="0 0 175 260.88"><path d="M87.5,13.38C38.8,85.35,7.5,130.37,7.5,174.13s35.79,79.25,80,79.25,80-35.47,80-79.25S136.2,85.35,87.5,13.38Z" style="fill:none; stroke:#000; stroke-miterlimit:10; stroke-width:15px;"/></symbol></defs><g id="b"/><g id="c"/><g id="d"/><g id="e"/><g id="f"/><g id="g"/><g id="h"/><g id="i"/><g id="j"/><g id="k"/><g id="l"/><g id="m"/><g id="n"/><g id="o"/><g id="p"/><g id="q"/><g id="r"/><g id="s"/><g id="t"/><g id="u"/><g id="v"/><g id="w"/><g id="x"/><g id="y"/><g id="a`"/><g id="aa"/><g id="ab"/><g id="ac"/><g id="ad"/><g id="ae"/><g id="af"/><g id="ag"/><g id="ah"/><g id="ai"/><g id="aj"/><g id="ak"/><g id="al"/><g id="am"/><g id="an"/><g id="ao"/><g id="ap"/><g id="aq"/><g id="ar"/><g id="as"/><g id="at"/><g id="au"/><g id="av"/><g id="aw"/><g id="ax"/><g id="ay"/><g id="b`"/><g id="ba"/><g id="bb"/><g id="bc"/><g id="bd"/><g id="be"/><g id="bf"/><g id="bg"/><g id="bh"/><g id="bi"/><g id="bj"/><g id="bk"/><g id="bl"/><g id="bm"/><g id="bn"/><g id="bo"/><g id="bp"/><g id="bq"/><g id="br"/><g id="bs"/><g id="bt"/><g id="bu"/><g id="bv"/><g id="bw"/><g id="bx"/><g id="by"/><g id="c`"/><g id="ca"/><g id="cb"/><g id="cc"/><g id="cd"/><g id="ce"/><g id="cf"/><g id="cg"/><g id="ch"/><g id="ci"/><g id="cj"/><g id="ck"/><g id="cl"/><g id="cm"/><g id="cn"/><g id="co"/><g id="cp"/><g id="cq"/><g id="cr"/><g id="cs"/><g id="ct"/><g id="cu"/><g id="cv"/><g id="cw"/><g id="cx"/><g id="cy"/><g id="d`"/><g id="da"/><g id="db"/><g id="dc"/><g id="dd"/><g id="de"/><g id="df"/><g id="dg"/><g id="dh"/><g id="di"/><g id="dj"/><g id="dk"/><g id="dl"/><g id="dm"/><g id="dn"/><g id="do"/><g id="dp"/><g id="dq"/><g id="dr"/><g id="ds"/><g id="dt"/><g id="du"/><g id="dv"/><g id="dw"/><g id="dx"/><g id="dy"/><g id="e`"/><g id="ea"/><g id="eb"/><g id="ec"/><g id="ed"/><g id="ee"/><g id="ef"/><g id="eg"/><g id="eh"/><g id="ei"/><g id="ej"/><g id="ek"/><g id="el"/><g id="em"/><g id="en"/><g id="eo"/><g id="ep"/><g id="eq"/><g id="er"/><g id="es"/><g id="et"/><g id="eu"/><g id="ev"><use width="175" height="260.88" transform="translate(168.4 123.18)" xlink:href="#a"/><path d="M218.78,250.47c3.19-2.98,7.75-4.47,13.69-4.47s10.49,1.49,13.68,4.47,4.78,7.12,4.78,12.4v8.04c0,5.21-1.59,9.28-4.78,12.22-3.19,2.94-7.75,4.42-13.68,4.42s-10.5-1.47-13.69-4.42-4.78-7.01-4.78-12.22v-8.04c0-5.28,1.59-9.42,4.78-12.4Zm71.21-1.53c.3,.76,.11,1.62-.55,2.61l-52.96,73.24c-1.11,1.5-2.06,2.45-2.84,2.83s-2.32,.56-4.62,.56h-4.34c-1.33,0-2.17-.38-2.5-1.13s-.14-1.66,.61-2.72l52.96-73.35c.97-1.43,1.86-2.32,2.67-2.65,.82-.34,2.26-.52,4.34-.52h4.89c1.26,0,2.04,.38,2.34,1.13Zm-57.52,7.59c-5.12,0-7.68,2.3-7.68,6.9v6.79c0,4.6,2.56,6.9,7.68,6.9s7.67-2.3,7.67-6.9v-6.79c0-4.6-2.55-6.9-7.67-6.9Zm33.38,36.39c3.19-2.98,7.75-4.47,13.69-4.47s10.49,1.49,13.68,4.47c3.19,2.99,4.78,7.12,4.78,12.4v8.04c0,5.21-1.59,9.28-4.78,12.23-3.19,2.94-7.75,4.42-13.68,4.42s-10.5-1.47-13.69-4.42c-3.19-2.95-4.78-7.02-4.78-12.23v-8.04c0-5.28,1.59-9.41,4.78-12.4Zm13.69,6.06c-5.12,0-7.68,2.3-7.68,6.91v6.67c0,4.68,2.56,7.02,7.68,7.02s7.67-2.34,7.67-7.02v-6.67c0-4.61-2.55-6.91-7.67-6.91Z"/></g><g id="ew"/><g id="ex"/><g id="ey"/><g id="f`"/><g id="fa"/><g id="fb"/><g id="fc"/><g id="fd"/><g id="fe"/><g id="ff"/><g id="fg"/><g id="fh"/><g id="fi"/><g id="fj"/><g id="fk"/><g id="fl"/><g id="fm"/><g id="fn"/><g id="fo"/><g id="fp"/><g id="fq"/><g id="fr"/><g id="fs"/><g id="ft"/><g id="fu"/><g id="fv"/><g id="fw"/><g id="fx"/><g id="fy"/><g id="g`"/><g id="ga"/><g id="gb"/><g id="gc"/><g id="gd"/><g id="ge"/><g id="gf"/><g id="gg"/><g id="gh"/><g id="gi"/><g id="gj"/><g id="gk"/><g id="gl"/><g id="gm"/><g id="gn"/><g id="go"/><g id="gp"/><g id="gq"/><g id="gr"/><g id="gs"/><g id="gt"/><g id="gu"/><g id="gv"/><g id="gw"/><g id="gx"/><g id="gy"/><g id="h`"/><g id="ha"/><g id="hb"/><g id="hc"/><g id="hd"/><g id="he"/><g id="hf"/><g id="hg"/><g id="hh"/><g id="hi"/><g id="hj"/><g id="hk"/><g id="hl"/><g id="hm"/><g id="hn"/><g id="ho"/><g id="hp"/><g id="hq"/><g id="hr"/><g id="hs"/><g id="ht"/><g id="hu"/><g id="hv"/><g id="hw"/><g id="hx"/><g id="hy"/><g id="i`"/><g id="ia"/><g id="ib"/><g id="ic"/></svg>