<?xml version="1.0" encoding="UTF-8"?><svg xmlns="http://www.w3.org/2000/svg" xmlns:xlink="http://www.w3.org/1999/xlink" viewBox="0 0 512 512"><defs><style></style><symbol id="a" viewBox="0 0 232 72"><g><circle cx="116" cy="12" r="12"/><circle cx="156" cy="52" r="16"/><circle cx="76" cy="52" r="16"/><circle cx="12" cy="60" r="12"/><circle cx="220" cy="60" r="12"/><circle cx="180" cy="20" r="8"/><circle cx="52" cy="20" r="8"/></g></symbol></defs><g id="b"/><g id="c"/><g id="d"/><g id="e"/><g id="f"/><g id="g"/><g id="h"/><g id="i"/><g id="j"/><g id="k"/><g id="l"/><g id="m"/><g id="n"/><g id="o"/><g id="p"/><g id="q"/><g id="r"/><g id="s"/><g id="t"/><g id="u"/><g id="v"/><g id="w"/><g id="x"/><g id="y"/><g id="a`"/><g id="aa"/><g id="ab"/><g id="ac"/><g id="ad"/><g id="ae"/><g id="af"/><g id="ag"/><g id="ah"/><g id="ai"/><g id="aj"/><g id="ak"/><g id="al"/><g id="am"/><g id="an"/><g id="ao"/><g id="ap"/><g id="aq"/><g id="ar"/><g id="as"/><g id="at"/><g id="au"/><g id="av"/><g id="aw"/><g id="ax"/><g id="ay"/><g id="b`"/><g id="ba"/><g id="bb"/><g id="bc"/><g id="bd"/><g id="be"/><g id="bf"/><g id="bg"/><g id="bh"/><g id="bi"/><g id="bj"/><g id="bk"/><g id="bl"/><g id="bm"/><g id="bn"/><g id="bo"/><g id="bp"/><g id="bq"/><g id="br"/><g id="bs"/><g id="bt"/><g id="bu"/><g id="bv"/><g id="bw"/><g id="bx"/><g id="by"/><g id="c`"/><g id="ca"/><g id="cb"/><g id="cc"/><g id="cd"/><g id="ce"/><g id="cf"/><g id="cg"/><g id="ch"/><g id="ci"/><g id="cj"/><g id="ck"/><g id="cl"/><g id="cm"/><g id="cn"/><g id="co"/><g id="cp"/><g id="cq"/><g id="cr"/><g id="cs"/><g id="ct"/><g id="cu"/><g id="cv"/><g id="cw"/><g id="cx"/><g id="cy"/><g id="d`"/><g id="da"/><g id="db"/><g id="dc"/><g id="dd"/><g id="de"/><g id="df"/><g id="dg"/><g id="dh"/><g id="di"/><g id="dj"/><g id="dk"/><g id="dl"/><g id="dm"/><g id="dn"/><g id="do"/><g id="dp"/><g id="dq"/><g id="dr"/><g id="ds"/><g id="dt"/><g id="du"/><g id="dv"/><g id="dw"/><g id="dx"/><g id="dy"/><g id="e`"/><g id="ea"/><g id="eb"/><g id="ec"/><g id="ed"/><g id="ee"/><g id="ef"/><g id="eg"/><g id="eh"/><g id="ei"/><g id="ej"/><g id="ek"/><g id="el"/><g id="em"/><g id="en"/><g id="eo"/><g id="ep"/><g id="eq"/><g id="er"/><g id="es"/><g id="et"/><g id="eu"/><g id="ev"/><g id="ew"/><g id="ex"/><g id="ey"/><g id="f`"/><g id="fa"/><g id="fb"/><g id="fc"/><g id="fd"/><g id="fe"/><g id="ff"/><g id="fg"/><g id="fh"/><g id="fi"/><g id="fj"/><g id="fk"/><g id="fl"/><g id="fm"/><g id="fn"/><g id="fo"/><g id="fp"/><g id="fq"/><g id="fr"/><g id="fs"/><g id="ft"/><g id="fu"/><g id="fv"/><g id="fw"/><g id="fx"/><g id="fy"/><g id="g`"/><g id="ga"/><g id="gb"/><g id="gc"/><g id="gd"/><g id="ge"/><g id="gf"/><g id="gg"/><g id="gh"/><g id="gi"/><g id="gj"/><g id="gk"/><g id="gl"/><g id="gm"/><g id="gn"/><g id="go"/><g id="gp"/><g id="gq"/><g id="gr"/><g id="gs"/><g id="gt"/><g id="gu"/><g id="gv"/><g id="gw"/><g id="gx"/><g id="gy"/><g id="h`"/><g id="ha"/><g id="hb"/><g id="hc"/><g id="hd"/><g id="he"/><g id="hf"/><g id="hg"/><g id="hh"/><g id="hi"/><g id="hj"><g><path d="M265.09,403.6l-3.99-127.03c-.2-6.49-5.52-11.65-12.02-11.65h-5.14c-6.49,0-11.81,5.16-12.02,11.65l-3.99,127.03c-.21,6.79,5.23,12.4,12.02,12.4h13.11c6.79,0,12.23-5.62,12.02-12.4Z"/><ellipse cx="293.93" cy="274.36" rx="42.67" ry="42.49"/><ellipse cx="185.19" cy="255.48" rx="42.67" ry="42.49"/><path d="M317.63,146.89c-3.73,0-7.36,.38-10.89,1.06-3.6-11.53-14.27-19.95-27.03-19.95-15.71,0-28.44,12.68-28.44,28.33,0,10.49,5.79,19.54,14.3,24.44-3.08,6.97-4.82,14.67-4.82,22.77,0,31.29,25.47,56.66,56.89,56.66s56.89-25.37,56.89-56.66-25.47-56.66-56.89-56.66Z"/><path d="M289.19,184.66c0-31.29-25.47-56.66-56.89-56.66-21.16,0-39.59,11.53-49.39,28.6-.93-.06-1.82-.28-2.76-.28-23.56,0-42.67,19.02-42.67,42.49,0,19.35,13.07,35.49,30.83,40.63-1.52,3.47-2.39,7.28-2.39,11.31,0,15.65,12.74,28.33,28.44,28.33,7.15,0,13.61-2.72,18.61-7.06,7.81,9.98,19.85,16.51,33.53,16.51,23.56,0,42.67-19.02,42.67-42.49,0-10.84-4.2-20.61-10.9-28.12,6.83-9.35,10.9-20.81,10.9-33.26Z"/></g><use width="232" height="72" transform="translate(140 90)" xlink:href="#a"/></g><g id="hk"/><g id="hl"/><g id="hm"/><g id="hn"/><g id="ho"/><g id="hp"/><g id="hq"/><g id="hr"/><g id="hs"/><g id="ht"/><g id="hu"/><g id="hv"/><g id="hw"/><g id="hx"/><g id="hy"/><g id="i`"/><g id="ia"/><g id="ib"/><g id="ic"/></svg>