<?xml version="1.0" encoding="UTF-8"?><svg xmlns="http://www.w3.org/2000/svg" xmlns:xlink="http://www.w3.org/1999/xlink" viewBox="0 0 512 512"><defs><style>.ie,.if,.ig,.ih{fill:none;}.if{stroke-miterlimit:10;stroke-width:17.13px;}.if,.ig,.ih{stroke:#000;stroke-linecap:round;}.ig{stroke-width:9px;}.ig,.ih{stroke-linejoin:round;}.ii{clip-path:url(#hl);}.ih{stroke-width:12px;}</style><symbol id="a" viewBox="0 0 252 100"><path d="M246,28.63h-8c-10.92,0-20.85-11.66-25.97-21.39-.87-1.66-3.18-1.66-4.06,0-5.13,9.73-15.05,21.39-25.97,21.39s-20.85-11.66-25.97-21.39c-.87-1.66-3.18-1.66-4.06,0-5.13,9.73-15.05,21.39-25.97,21.39s-20.85-11.66-25.97-21.39c-.87-1.66-3.18-1.66-4.06,0-5.13,9.73-15.05,21.39-25.97,21.39s-20.85-11.66-25.97-21.39c-.87-1.66-3.18-1.66-4.06,0-5.13,9.73-15.05,21.39-25.97,21.39H6v49.06c0,9,7.15,16.3,15.96,16.3H230.04c8.82,0,15.96-7.3,15.96-16.3V28.63Z" style="fill:none; stroke:#000; stroke-linecap:round; stroke-linejoin:round; stroke-width:12px;"/></symbol><clipPath id="hl"><path d="M372,357c-22.09,0-40-18.15-40-40.54,0-13.77,6.79-25.91,17.14-33.24v-97.06c0-12.79,10.23-23.16,22.86-23.16H119.24v194h252.76Zm2.86-136.94h20m-20-22.82h20m-20,45.65h20" style="fill:none;"/></clipPath></defs><g id="b"/><g id="c"/><g id="d"/><g id="e"/><g id="f"/><g id="g"/><g id="h"/><g id="i"/><g id="j"/><g id="k"/><g id="l"/><g id="m"/><g id="n"/><g id="o"/><g id="p"/><g id="q"/><g id="r"/><g id="s"/><g id="t"/><g id="u"/><g id="v"/><g id="w"/><g id="x"/><g id="y"/><g id="a`"/><g id="aa"/><g id="ab"/><g id="ac"/><g id="ad"/><g id="ae"/><g id="af"/><g id="ag"/><g id="ah"/><g id="ai"/><g id="aj"/><g id="ak"/><g id="al"/><g id="am"/><g id="an"/><g id="ao"/><g id="ap"/><g id="aq"/><g id="ar"/><g id="as"/><g id="at"/><g id="au"/><g id="av"/><g id="aw"/><g id="ax"/><g id="ay"/><g id="b`"/><g id="ba"/><g id="bb"/><g id="bc"/><g id="bd"/><g id="be"/><g id="bf"/><g id="bg"/><g id="bh"/><g id="bi"/><g id="bj"/><g id="bk"/><g id="bl"/><g id="bm"/><g id="bn"/><g id="bo"/><g id="bp"/><g id="bq"/><g id="br"/><g id="bs"/><g id="bt"/><g id="bu"/><g id="bv"/><g id="bw"/><g id="bx"/><g id="by"/><g id="c`"/><g id="ca"/><g id="cb"/><g id="cc"/><g id="cd"/><g id="ce"/><g id="cf"/><g id="cg"/><g id="ch"/><g id="ci"/><g id="cj"/><g id="ck"/><g id="cl"/><g id="cm"/><g id="cn"/><g id="co"/><g id="cp"/><g id="cq"/><g id="cr"/><g id="cs"/><g id="ct"/><g id="cu"/><g id="cv"/><g id="cw"/><g id="cx"/><g id="cy"/><g id="d`"/><g id="da"/><g id="db"/><g id="dc"/><g id="dd"/><g id="de"/><g id="df"/><g id="dg"/><g id="dh"/><g id="di"/><g id="dj"/><g id="dk"/><g id="dl"/><g id="dm"/><g id="dn"/><g id="do"/><g id="dp"/><g id="dq"/><g id="dr"/><g id="ds"/><g id="dt"/><g id="du"/><g id="dv"/><g id="dw"/><g id="dx"/><g id="dy"/><g id="e`"/><g id="ea"/><g id="eb"/><g id="ec"/><g id="ed"/><g id="ee"/><g id="ef"/><g id="eg"/><g id="eh"/><g id="ei"/><g id="ej"/><g id="ek"/><g id="el"/><g id="em"/><g id="en"/><g id="eo"/><g id="ep"/><g id="eq"/><g id="er"/><g id="es"/><g id="et"/><g id="eu"/><g id="ev"/><g id="ew"/><g id="ex"/><g id="ey"/><g id="f`"/><g id="fa"/><g id="fb"/><g id="fc"/><g id="fd"/><g id="fe"/><g id="ff"/><g id="fg"/><g id="fh"/><g id="fi"/><g id="fj"/><g id="fk"/><g id="fl"/><g id="fm"/><g id="fn"/><g id="fo"/><g id="fp"/><g id="fq"/><g id="fr"/><g id="fs"/><g id="ft"/><g id="fu"/><g id="fv"/><g id="fw"/><g id="fx"/><g id="fy"/><g id="g`"/><g id="ga"/><g id="gb"/><g id="gc"/><g id="gd"/><g id="ge"/><g id="gf"/><g id="gg"/><g id="gh"/><g id="gi"/><g id="gj"/><g id="gk"/><g id="gl"/><g id="gm"/><g id="gn"/><g id="go"/><g id="gp"/><g id="gq"/><g id="gr"/><g id="gs"/><g id="gt"/><g id="gu"/><g id="gv"/><g id="gw"/><g id="gx"/><g id="gy"/><g id="h`"/><g id="ha"/><g id="hb"/><g id="hc"/><g id="hd"/><g id="he"/><g id="hf"/><g id="hg"/><g id="hh"/><g id="hi"/><g id="hj"/><g id="hk"><g style="clip-path:url(#hl);"><use width="252" height="100" transform="translate(130 238)" xlink:href="#a"/></g><g><g><ellipse cx="372" cy="317.06" rx="25.71" ry="25.68"/><path d="M372,231.47v85.59" style="fill:none; stroke:#000; stroke-linecap:round; stroke-miterlimit:10; stroke-width:17.13px;"/></g><path d="M412,316.46c0,22.39-17.91,40.54-40,40.54s-40-18.15-40-40.54c0-13.77,6.79-25.91,17.14-33.24v-97.06c0-12.79,10.23-23.16,22.86-23.16s22.86,10.37,22.86,23.16v97.06c10.35,7.33,17.14,19.47,17.14,33.24Zm-37.14-96.4h20m-20-22.82h20m-20,45.65h20" style="fill:none; stroke:#000; stroke-linecap:round; stroke-linejoin:round; stroke-width:9px;"/></g></g><g id="hm"/><g id="hn"/><g id="ho"/><g id="hp"/><g id="hq"/><g id="hr"/><g id="hs"/><g id="ht"/><g id="hu"/><g id="hv"/><g id="hw"/><g id="hx"/><g id="hy"/><g id="i`"/><g id="ia"/><g id="ib"/><g id="ic"/><g id="id"/></svg>