<?xml version="1.0" encoding="UTF-8"?><svg xmlns="http://www.w3.org/2000/svg" xmlns:xlink="http://www.w3.org/1999/xlink" viewBox="0 0 512 512"><defs><style>.if{stroke-linejoin:round;stroke-width:9px;}.if,.ig{fill:none;stroke:#000;stroke-linecap:round;}.ig{stroke-miterlimit:10;stroke-width:24px;}</style><symbol id="a" viewBox="0 0 121 281"><g><use width="72" height="168" transform="translate(24.5 88.5)" xlink:href="#c"/><use width="121" height="281" xlink:href="#b"/></g></symbol><symbol id="b" viewBox="0 0 121 281"><path d="M116.5,219.66c0,31.39-25.07,56.84-56,56.84S4.5,251.05,4.5,219.66c0-19.3,9.5-36.33,24-46.61V36.98c0-17.94,14.33-32.48,32-32.48s32,14.54,32,32.48V173.06c14.5,10.27,24,27.3,24,46.61ZM64.5,84.5h28m-28-32h28m-28,64h28" style="fill:none; stroke:#000; stroke-linecap:round; stroke-linejoin:round; stroke-width:9px;"/></symbol><symbol id="c" viewBox="0 0 72 168"><g><circle cx="36" cy="132" r="36"/><path d="M36,12v120" style="fill:none; stroke:#000; stroke-linecap:round; stroke-miterlimit:10; stroke-width:24px;"/></g></symbol></defs><g id="d"/><g id="e"/><g id="f"/><g id="g"/><g id="h"/><g id="i"/><g id="j"/><g id="k"/><g id="l"/><g id="m"/><g id="n"/><g id="o"/><g id="p"/><g id="q"/><g id="r"/><g id="s"/><g id="t"/><g id="u"/><g id="v"/><g id="w"/><g id="x"/><g id="y"/><g id="a`"/><g id="aa"/><g id="ab"/><g id="ac"/><g id="ad"/><g id="ae"/><g id="af"/><g id="ag"/><g id="ah"/><g id="ai"/><g id="aj"/><g id="ak"/><g id="al"/><g id="am"/><g id="an"/><g id="ao"/><g id="ap"/><g id="aq"/><g id="ar"/><g id="as"/><g id="at"/><g id="au"/><g id="av"/><g id="aw"/><g id="ax"/><g id="ay"/><g id="b`"/><g id="ba"/><g id="bb"/><g id="bc"/><g id="bd"/><g id="be"/><g id="bf"/><g id="bg"/><g id="bh"/><g id="bi"/><g id="bj"/><g id="bk"/><g id="bl"/><g id="bm"/><g id="bn"/><g id="bo"/><g id="bp"/><g id="bq"/><g id="br"/><g id="bs"/><g id="bt"/><g id="bu"/><g id="bv"/><g id="bw"/><g id="bx"/><g id="by"/><g id="c`"/><g id="ca"/><g id="cb"/><g id="cc"/><g id="cd"/><g id="ce"/><g id="cf"/><g id="cg"/><g id="ch"/><g id="ci"/><g id="cj"/><g id="ck"/><g id="cl"/><g id="cm"/><g id="cn"/><g id="co"/><g id="cp"/><g id="cq"/><g id="cr"/><g id="cs"/><g id="ct"/><g id="cu"/><g id="cv"/><g id="cw"/><g id="cx"/><g id="cy"/><g id="d`"/><g id="da"/><g id="db"/><g id="dc"/><g id="dd"/><g id="de"/><g id="df"/><g id="dg"/><g id="dh"/><g id="di"/><g id="dj"/><g id="dk"/><g id="dl"/><g id="dm"/><g id="dn"/><g id="do"/><g id="dp"/><g id="dq"/><g id="dr"/><g id="ds"/><g id="dt"/><g id="du"/><g id="dv"/><g id="dw"/><g id="dx"/><g id="dy"/><g id="e`"/><g id="ea"/><g id="eb"/><g id="ec"/><g id="ed"/><g id="ee"/><g id="ef"/><g id="eg"/><g id="eh"/><g id="ei"/><g id="ej"/><g id="ek"/><g id="el"/><g id="em"/><g id="en"/><g id="eo"/><g id="ep"/><g id="eq"/><g id="er"/><g id="es"/><g id="et"/><g id="eu"/><g id="ev"/><g id="ew"/><g id="ex"/><g id="ey"/><g id="f`"/><g id="fa"/><g id="fb"/><g id="fc"/><g id="fd"/><g id="fe"/><g id="ff"/><g id="fg"/><g id="fh"/><g id="fi"/><g id="fj"/><g id="fk"><use width="121" height="281" transform="translate(195.5 115.5)" xlink:href="#a"/><g><path d="M372.5,271.01c-1.15,0-2.3,.42-3.18,1.26l-19.32,18.39-19.32-18.4c-1.76-1.67-4.61-1.67-6.36,0-1.76,1.67-1.76,4.39,0,6.06l22.5,21.43c1.76,1.67,4.61,1.67,6.36,0l22.5-21.43c1.76-1.67,1.76-4.39,0-6.06-.87-.83-2.02-1.25-3.18-1.25Z"/><path d="M372.5,244.01c-1.15,0-2.3,.42-3.18,1.26l-19.32,18.39-19.32-18.4c-1.76-1.67-4.61-1.67-6.36,0-1.76,1.67-1.76,4.39,0,6.06l22.5,21.43c1.76,1.67,4.61,1.67,6.36,0l22.5-21.43c1.76-1.67,1.76-4.39,0-6.06-.87-.83-2.02-1.25-3.18-1.25Z"/><path d="M372.5,217.01c-1.15,0-2.3,.42-3.18,1.26l-19.32,18.39-19.32-18.4c-1.76-1.67-4.61-1.67-6.36,0-1.76,1.67-1.76,4.39,0,6.06l22.5,21.43c1.76,1.67,4.61,1.67,6.36,0l22.5-21.43c1.76-1.67,1.76-4.39,0-6.06-.87-.83-2.02-1.25-3.18-1.25Z"/></g></g><g id="fl"/><g id="fm"/><g id="fn"/><g id="fo"/><g id="fp"/><g id="fq"/><g id="fr"/><g id="fs"/><g id="ft"/><g id="fu"/><g id="fv"/><g id="fw"/><g id="fx"/><g id="fy"/><g id="g`"/><g id="ga"/><g id="gb"/><g id="gc"/><g id="gd"/><g id="ge"/><g id="gf"/><g id="gg"/><g id="gh"/><g id="gi"/><g id="gj"/><g id="gk"/><g id="gl"/><g id="gm"/><g id="gn"/><g id="go"/><g id="gp"/><g id="gq"/><g id="gr"/><g id="gs"/><g id="gt"/><g id="gu"/><g id="gv"/><g id="gw"/><g id="gx"/><g id="gy"/><g id="h`"/><g id="ha"/><g id="hb"/><g id="hc"/><g id="hd"/><g id="he"/><g id="hf"/><g id="hg"/><g id="hh"/><g id="hi"/><g id="hj"/><g id="hk"/><g id="hl"/><g id="hm"/><g id="hn"/><g id="ho"/><g id="hp"/><g id="hq"/><g id="hr"/><g id="hs"/><g id="ht"/><g id="hu"/><g id="hv"/><g id="hw"/><g id="hx"/><g id="hy"/><g id="i`"/><g id="ia"/><g id="ib"/><g id="ic"/><g id="id"/><g id="ie"/></svg>