<?xml version="1.0" encoding="UTF-8"?><svg xmlns="http://www.w3.org/2000/svg" xmlns:xlink="http://www.w3.org/1999/xlink" viewBox="0 0 512 512"><defs><style>.ie,.if,.ig,.ih{fill:none;}.if{stroke-width:12px;}.if,.ig{stroke-miterlimit:10;}.if,.ig,.ih{stroke:#000;}.ig{stroke-width:15px;}.ig,.ih{stroke-linecap:round;}.ih{stroke-linejoin:round;stroke-width:18px;}.ii{clip-path:url(#hd);}</style><symbol id="a" viewBox="0 0 291.56 290.63"><g><ellipse cx="145.78" cy="145.31" rx="64.53" ry="64.31" style="fill:none; stroke:#000; stroke-miterlimit:10; stroke-width:12px;"/><path d="M145.78,45.52V7.5m0,275.63v-38.02M216.59,74.75l26.97-26.88M48,242.76l26.97-26.88m0-141.13l-26.97-26.88M243.56,242.76l-26.97-26.88M45.65,145.31H7.5m276.56,0h-38.15" style="fill:none; stroke:#000; stroke-linecap:round; stroke-miterlimit:10; stroke-width:15px;"/></g></symbol><clipPath id="hd"><rect y="12" width="512" height="282" style="fill:none;"/></clipPath></defs><g id="b"/><g id="c"/><g id="d"/><g id="e"/><g id="f"/><g id="g"/><g id="h"/><g id="i"/><g id="j"/><g id="k"/><g id="l"/><g id="m"/><g id="n"/><g id="o"/><g id="p"/><g id="q"/><g id="r"/><g id="s"/><g id="t"/><g id="u"/><g id="v"/><g id="w"/><g id="x"/><g id="y"/><g id="a`"/><g id="aa"/><g id="ab"/><g id="ac"/><g id="ad"/><g id="ae"/><g id="af"/><g id="ag"/><g id="ah"/><g id="ai"/><g id="aj"/><g id="ak"/><g id="al"/><g id="am"/><g id="an"/><g id="ao"/><g id="ap"/><g id="aq"/><g id="ar"/><g id="as"/><g id="at"/><g id="au"/><g id="av"/><g id="aw"/><g id="ax"/><g id="ay"/><g id="b`"/><g id="ba"/><g id="bb"/><g id="bc"/><g id="bd"/><g id="be"/><g id="bf"/><g id="bg"/><g id="bh"/><g id="bi"/><g id="bj"/><g id="bk"/><g id="bl"/><g id="bm"/><g id="bn"/><g id="bo"/><g id="bp"/><g id="bq"/><g id="br"/><g id="bs"/><g id="bt"/><g id="bu"/><g id="bv"/><g id="bw"/><g id="bx"/><g id="by"/><g id="c`"/><g id="ca"/><g id="cb"/><g id="cc"/><g id="cd"/><g id="ce"/><g id="cf"/><g id="cg"/><g id="ch"/><g id="ci"/><g id="cj"/><g id="ck"/><g id="cl"/><g id="cm"/><g id="cn"/><g id="co"/><g id="cp"/><g id="cq"/><g id="cr"/><g id="cs"/><g id="ct"/><g id="cu"/><g id="cv"/><g id="cw"/><g id="cx"/><g id="cy"/><g id="d`"/><g id="da"/><g id="db"/><g id="dc"/><g id="dd"/><g id="de"/><g id="df"/><g id="dg"/><g id="dh"/><g id="di"/><g id="dj"/><g id="dk"/><g id="dl"/><g id="dm"/><g id="dn"/><g id="do"/><g id="dp"/><g id="dq"/><g id="dr"/><g id="ds"/><g id="dt"/><g id="du"/><g id="dv"/><g id="dw"/><g id="dx"/><g id="dy"/><g id="e`"/><g id="ea"/><g id="eb"/><g id="ec"/><g id="ed"/><g id="ee"/><g id="ef"/><g id="eg"/><g id="eh"/><g id="ei"/><g id="ej"/><g id="ek"/><g id="el"/><g id="em"/><g id="en"/><g id="eo"/><g id="ep"/><g id="eq"/><g id="er"/><g id="es"/><g id="et"/><g id="eu"/><g id="ev"/><g id="ew"/><g id="ex"/><g id="ey"/><g id="f`"/><g id="fa"/><g id="fb"/><g id="fc"/><g id="fd"/><g id="fe"/><g id="ff"/><g id="fg"/><g id="fh"/><g id="fi"/><g id="fj"/><g id="fk"/><g id="fl"/><g id="fm"/><g id="fn"/><g id="fo"/><g id="fp"/><g id="fq"/><g id="fr"/><g id="fs"/><g id="ft"/><g id="fu"/><g id="fv"/><g id="fw"/><g id="fx"/><g id="fy"/><g id="g`"/><g id="ga"/><g id="gb"/><g id="gc"/><g id="gd"/><g id="ge"/><g id="gf"/><g id="gg"/><g id="gh"/><g id="gi"/><g id="gj"/><g id="gk"/><g id="gl"/><g id="gm"/><g id="gn"/><g id="go"/><g id="gp"/><g id="gq"/><g id="gr"/><g id="gs"/><g id="gt"/><g id="gu"/><g id="gv"/><g id="gw"/><g id="gx"/><g id="gy"/><g id="h`"/><g id="ha"/><g id="hb"/><g id="hc"><g style="clip-path:url(#hd);"><use width="291.56" height="290.63" transform="translate(110.28 168.62)" xlink:href="#a"/></g><line x1="128" y1="320" x2="384" y2="320" style="fill:none; stroke:#000; stroke-linecap:round; stroke-linejoin:round; stroke-width:18px;"/><path d="M185.26,438.38h-13.46v-32.04h-12.67v-9h2.16c3.7,0,6.62-.79,8.78-2.38,2.02-1.49,3.34-3.91,3.96-7.27l.14-.57h11.09v51.26Z"/><path d="M233.5,435.29c-3.94,2.93-9.29,4.39-16.05,4.39s-12.05-1.46-15.98-4.39c-3.94-2.93-5.9-6.94-5.9-12.02,0-3.17,.88-5.82,2.63-7.96,1.75-2.14,4.21-3.59,7.38-4.36v-.22c-2.35-.81-4.21-2.2-5.58-4.14-1.37-1.95-2.05-4.19-2.05-6.73,0-4.37,1.71-7.79,5.15-10.26,3.43-2.47,8.22-3.71,14.36-3.71s11.02,1.24,14.47,3.71c3.46,2.47,5.18,5.89,5.18,10.26,0,2.59-.68,4.86-2.05,6.8s-3.23,3.3-5.58,4.07v.22c3.17,.82,5.62,2.28,7.34,4.39,1.73,2.11,2.59,4.75,2.59,7.92,0,5.09-1.97,9.09-5.91,12.02Zm-15.98-5.26c2.83,0,5.07-.64,6.7-1.91,1.63-1.27,2.45-3.04,2.45-5.29s-.8-4.02-2.41-5.29c-1.61-1.27-3.85-1.91-6.73-1.91s-5.21,.64-6.84,1.91c-1.63,1.27-2.45,3.04-2.45,5.29s.83,4.02,2.48,5.29c1.66,1.27,3.92,1.91,6.8,1.91Zm0-22.68c2.5,0,4.45-.55,5.87-1.66,1.42-1.1,2.12-2.64,2.12-4.61s-.7-3.39-2.09-4.43c-1.39-1.03-3.36-1.55-5.91-1.55-5.38,0-8.06,1.99-8.06,5.97,0,1.97,.71,3.51,2.12,4.61,1.41,1.11,3.39,1.66,5.94,1.66Z"/><path d="M266.26,423.34h-20.52v-9.94h20.52v9.94Z"/><path d="M314.86,438.38h-40.61c0-4.56,.98-8.38,2.96-11.45,1.96-2.98,5.57-6.27,10.8-9.87l7.92-5.61c2.02-1.39,3.44-2.71,4.29-3.96,.84-1.25,1.26-2.66,1.26-4.25,0-2.06-.62-3.68-1.87-4.86-1.25-1.18-2.95-1.76-5.11-1.76-4.89,0-7.34,2.86-7.34,8.57v1.08h-12.17v-1.59c0-5.9,1.73-10.51,5.18-13.82,3.46-3.31,8.35-4.97,14.69-4.97s10.85,1.46,14.4,4.39c3.6,2.98,5.4,7.03,5.4,12.17,0,3.31-.85,6.29-2.55,8.93-1.7,2.64-4.43,5.16-8.17,7.56l-8.86,5.61c-1.68,1.11-2.59,2.04-2.74,2.81h22.54v11.02Z"/><path d="M348.41,438.38h-13.46v-32.04h-12.67v-9h2.16c3.7,0,6.62-.79,8.78-2.38,2.02-1.49,3.34-3.91,3.96-7.27l.14-.57h11.09v51.26Z"/></g><g id="he"/><g id="hf"/><g id="hg"/><g id="hh"/><g id="hi"/><g id="hj"/><g id="hk"/><g id="hl"/><g id="hm"/><g id="hn"/><g id="ho"/><g id="hp"/><g id="hq"/><g id="hr"/><g id="hs"/><g id="ht"/><g id="hu"/><g id="hv"/><g id="hw"/><g id="hx"/><g id="hy"/><g id="i`"/><g id="ia"/><g id="ib"/><g id="ic"/><g id="id"/></svg>