<?xml version="1.0" encoding="UTF-8"?><svg xmlns="http://www.w3.org/2000/svg" xmlns:xlink="http://www.w3.org/1999/xlink" viewBox="0 0 512 512"><defs><style>.id{fill:none;stroke:#000;stroke-linecap:round;stroke-linejoin:round;stroke-width:15px;}</style><symbol id="a" viewBox="0 0 203 203"><path d="M185,125.45c-52.79,0-95.58-42.22-95.58-94.3,0-8.18,1.17-16.08,3.15-23.65C44.74,12.66,7.5,52.63,7.5,101.2c0,52.08,42.79,94.3,95.58,94.3,44.49,0,81.77-30.04,92.42-70.65-3.45,.37-6.95,.6-10.5,.6Z" style="fill:none; stroke:#000; stroke-linecap:round; stroke-linejoin:round; stroke-width:15px;"/></symbol></defs><g id="b"/><g id="c"/><g id="d"/><g id="e"/><g id="f"/><g id="g"/><g id="h"/><g id="i"/><g id="j"/><g id="k"/><g id="l"/><g id="m"/><g id="n"/><g id="o"/><g id="p"/><g id="q"/><g id="r"/><g id="s"/><g id="t"/><g id="u"/><g id="v"/><g id="w"/><g id="x"/><g id="y"/><g id="a`"/><g id="aa"/><g id="ab"/><g id="ac"/><g id="ad"/><g id="ae"/><g id="af"/><g id="ag"/><g id="ah"/><g id="ai"/><g id="aj"/><g id="ak"/><g id="al"/><g id="am"/><g id="an"/><g id="ao"/><g id="ap"/><g id="aq"/><g id="ar"/><g id="as"/><g id="at"/><g id="au"/><g id="av"/><g id="aw"/><g id="ax"/><g id="ay"/><g id="b`"/><g id="ba"/><g id="bb"/><g id="bc"/><g id="bd"/><g id="be"/><g id="bf"/><g id="bg"/><g id="bh"/><g id="bi"/><g id="bj"/><g id="bk"/><g id="bl"/><g id="bm"/><g id="bn"/><g id="bo"/><g id="bp"/><g id="bq"/><g id="br"/><g id="bs"/><g id="bt"/><g id="bu"/><g id="bv"/><g id="bw"/><g id="bx"/><g id="by"/><g id="c`"/><g id="ca"/><g id="cb"/><g id="cc"/><g id="cd"/><g id="ce"/><g id="cf"/><g id="cg"/><g id="ch"/><g id="ci"/><g id="cj"/><g id="ck"/><g id="cl"/><g id="cm"/><g id="cn"/><g id="co"/><g id="cp"/><g id="cq"/><g id="cr"/><g id="cs"/><g id="ct"/><g id="cu"/><g id="cv"/><g id="cw"/><g id="cx"/><g id="cy"/><g id="d`"/><g id="da"/><g id="db"/><g id="dc"/><g id="dd"/><g id="de"/><g id="df"/><g id="dg"/><g id="dh"/><g id="di"/><g id="dj"/><g id="dk"/><g id="dl"/><g id="dm"/><g id="dn"/><g id="do"/><g id="dp"/><g id="dq"/><g id="dr"/><g id="ds"/><g id="dt"/><g id="du"/><g id="dv"/><g id="dw"/><g id="dx"/><g id="dy"/><g id="e`"/><g id="ea"/><g id="eb"/><g id="ec"/><g id="ed"/><g id="ee"/><g id="ef"/><g id="eg"/><g id="eh"/><g id="ei"/><g id="ej"/><g id="ek"/><g id="el"/><g id="em"/><g id="en"/><g id="eo"/><g id="ep"/><g id="eq"/><g id="er"/><g id="es"/><g id="et"/><g id="eu"/><g id="ev"/><g id="ew"/><g id="ex"/><g id="ey"/><g id="f`"/><g id="fa"/><g id="fb"/><g id="fc"/><g id="fd"/><g id="fe"/><g id="ff"/><g id="fg"/><g id="fh"/><g id="fi"/><g id="fj"/><g id="fk"/><g id="fl"/><g id="fm"/><g id="fn"/><g id="fo"/><g id="fp"/><g id="fq"/><g id="fr"/><g id="fs"/><g id="ft"/><g id="fu"/><g id="fv"/><g id="fw"/><g id="fx"/><g id="fy"/><g id="g`"/><g id="ga"/><g id="gb"/><g id="gc"/><g id="gd"/><g id="ge"/><g id="gf"/><g id="gg"/><g id="gh"/><g id="gi"/><g id="gj"/><g id="gk"/><g id="gl"/><g id="gm"/><g id="gn"/><g id="go"/><g id="gp"/><g id="gq"/><g id="gr"/><g id="gs"/><g id="gt"/><g id="gu"/><g id="gv"/><g id="gw"/><g id="gx"/><g id="gy"/><g id="h`"/><g id="ha"/><g id="hb"/><g id="hc"/><g id="hd"/><g id="he"><path d="M233.79,432.27c-4.03,4.85-9.46,7.27-16.27,7.27s-12.24-2.42-16.27-7.27c-4.03-4.85-6.05-11.4-6.05-19.66s2.02-14.64,6.05-19.44c3.93-4.8,9.36-7.2,16.27-7.2s12.24,2.4,16.27,7.2c3.98,4.85,5.98,11.33,5.98,19.44s-1.99,14.81-5.98,19.66Zm-16.27-3.17c6.24,0,9.36-5.45,9.36-16.35s-3.12-16.34-9.36-16.34-9.43,5.45-9.43,16.34,3.14,16.35,9.43,16.35Z"/><path d="M266.26,423.34h-20.52v-9.94h20.52v9.94Z"/><path d="M304.71,410.73c3.46,.62,6.14,2.05,8.06,4.29s2.88,5,2.88,8.32c0,4.75-1.8,8.69-5.4,11.81-3.65,3.07-8.71,4.61-15.19,4.61s-11.99-1.68-15.66-5.04-5.63-7.99-5.87-13.89h12.31c.29,5.86,3.19,8.79,8.71,8.79,2.45,0,4.38-.6,5.79-1.8s2.12-2.83,2.12-4.9-.74-3.72-2.23-4.82c-1.49-1.1-3.6-1.66-6.34-1.66h-3.6v-8.93h3.82c2.26,0,4-.5,5.22-1.51,1.22-1.01,1.84-2.45,1.84-4.32s-.61-3.32-1.84-4.36c-1.22-1.03-2.96-1.55-5.22-1.55s-3.89,.55-5.04,1.65c-1.15,1.11-1.82,2.91-2.02,5.4h-11.95c.48-11.28,6.96-16.92,19.44-16.92,5.9,0,10.51,1.3,13.82,3.89,3.31,2.59,4.97,5.9,4.97,9.93,0,2.69-.76,5.02-2.27,6.98s-3.63,3.31-6.37,4.03Z"/><path d="M282.83,162.84l24.92-6.43c.61-.16,1.26,.02,1.71,.46l18.37,18.03c1.3,1.28,3.46,.03,3-1.73l-6.43-24.92c-.16-.61,.02-1.26,.46-1.71l18.03-18.37c1.28-1.3,.03-3.46-1.73-3l-24.92,6.43c-.61,.16-1.26-.02-1.71-.46l-18.37-18.03c-1.3-1.28-3.46-.03-3,1.73l6.43,24.92c.16,.61-.02,1.26-.46,1.71l-18.03,18.37c-1.28,1.3-.03,3.46,1.73,3Z"/><path d="M285.4,193.44l12.02,12.25c.29,.3,.41,.73,.31,1.14l-4.28,16.62c-.3,1.18,1.13,2.01,2,1.16l12.25-12.02c.3-.29,.73-.41,1.14-.31l16.62,4.28c1.18,.3,2.01-1.14,1.16-2l-12.02-12.25c-.29-.3-.41-.73-.31-1.14l4.28-16.62c.3-1.18-1.13-2.01-2-1.16l-12.25,12.02c-.3,.29-.73,.41-1.14,.31l-16.62-4.28c-1.18-.3-2.01,1.14-1.16,2Z"/><path d="M337.32,223.73l24.8,6.9c.61,.17,1.08,.64,1.25,1.25l6.9,24.8c.49,1.76,2.98,1.76,3.47,0l6.9-24.8c.17-.61,.64-1.08,1.25-1.25l24.8-6.9c1.76-.49,1.76-2.98,0-3.47l-24.8-6.9c-.61-.17-1.08-.64-1.25-1.25l-6.9-24.8c-.49-1.76-2.98-1.76-3.47,0l-6.9,24.8c-.17,.61-.64,1.08-1.25,1.25l-24.8,6.9c-1.76,.49-1.76,2.98,0,3.47Z"/><use width="203" height="203" transform="translate(154.5 134.5)" xlink:href="#a"/></g><g id="hf"/><g id="hg"/><g id="hh"/><g id="hi"/><g id="hj"/><g id="hk"/><g id="hl"/><g id="hm"/><g id="hn"/><g id="ho"/><g id="hp"/><g id="hq"/><g id="hr"/><g id="hs"/><g id="ht"/><g id="hu"/><g id="hv"/><g id="hw"/><g id="hx"/><g id="hy"/><g id="i`"/><g id="ia"/><g id="ib"/><g id="ic"/></svg>