<?xml version="1.0" encoding="UTF-8"?><svg xmlns="http://www.w3.org/2000/svg" xmlns:xlink="http://www.w3.org/1999/xlink" viewBox="0 0 512 512"><defs><style>.id{fill:none;stroke:#000;stroke-linecap:round;stroke-miterlimit:10;stroke-width:18px;}</style><symbol id="a" viewBox="0 0 342 234"><g><path d="M264.16,21.29c7.28-7.57,17.51-12.29,28.84-12.29,22.09,0,40,17.91,40,40s-17.91,40-40,40H9" style="fill:none; stroke:#000; stroke-linecap:round; stroke-miterlimit:10; stroke-width:18px;"/><path d="M148.16,212.71c7.28,7.57,17.51,12.29,28.84,12.29,22.09,0,40-17.91,40-40s-17.91-40-40-40H9" style="fill:none; stroke:#000; stroke-linecap:round; stroke-miterlimit:10; stroke-width:18px;"/></g></symbol></defs><g id="b"/><g id="c"/><g id="d"/><g id="e"/><g id="f"/><g id="g"/><g id="h"/><g id="i"/><g id="j"/><g id="k"/><g id="l"/><g id="m"/><g id="n"/><g id="o"/><g id="p"/><g id="q"/><g id="r"/><g id="s"/><g id="t"/><g id="u"/><g id="v"/><g id="w"/><g id="x"/><g id="y"/><g id="a`"/><g id="aa"/><g id="ab"/><g id="ac"/><g id="ad"/><g id="ae"/><g id="af"/><g id="ag"/><g id="ah"/><g id="ai"/><g id="aj"/><g id="ak"/><g id="al"/><g id="am"/><g id="an"/><g id="ao"/><g id="ap"/><g id="aq"/><g id="ar"/><g id="as"/><g id="at"/><g id="au"/><g id="av"/><g id="aw"/><g id="ax"/><g id="ay"/><g id="b`"/><g id="ba"/><g id="bb"/><g id="bc"/><g id="bd"/><g id="be"/><g id="bf"/><g id="bg"/><g id="bh"/><g id="bi"/><g id="bj"/><g id="bk"/><g id="bl"/><g id="bm"/><g id="bn"/><g id="bo"/><g id="bp"/><g id="bq"/><g id="br"/><g id="bs"/><g id="bt"/><g id="bu"/><g id="bv"/><g id="bw"/><g id="bx"/><g id="by"/><g id="c`"/><g id="ca"/><g id="cb"/><g id="cc"/><g id="cd"/><g id="ce"/><g id="cf"/><g id="cg"/><g id="ch"/><g id="ci"/><g id="cj"/><g id="ck"/><g id="cl"/><g id="cm"/><g id="cn"/><g id="co"/><g id="cp"/><g id="cq"/><g id="cr"/><g id="cs"/><g id="ct"/><g id="cu"/><g id="cv"/><g id="cw"/><g id="cx"/><g id="cy"/><g id="d`"/><g id="da"/><g id="db"/><g id="dc"/><g id="dd"/><g id="de"/><g id="df"/><g id="dg"/><g id="dh"/><g id="di"/><g id="dj"/><g id="dk"/><g id="dl"/><g id="dm"/><g id="dn"/><g id="do"/><g id="dp"/><g id="dq"/><g id="dr"/><g id="ds"/><g id="dt"/><g id="du"/><g id="dv"/><g id="dw"/><g id="dx"/><g id="dy"/><g id="e`"/><g id="ea"/><g id="eb"/><g id="ec"/><g id="ed"/><g id="ee"/><g id="ef"/><g id="eg"/><g id="eh"/><g id="ei"/><g id="ej"/><g id="ek"/><g id="el"/><g id="em"/><g id="en"/><g id="eo"/><g id="ep"/><g id="eq"/><g id="er"/><g id="es"/><g id="et"/><g id="eu"/><g id="ev"/><g id="ew"/><g id="ex"/><g id="ey"/><g id="f`"/><g id="fa"/><g id="fb"/><g id="fc"/><g id="fd"/><g id="fe"/><g id="ff"/><g id="fg"/><g id="fh"/><g id="fi"/><g id="fj"/><g id="fk"/><g id="fl"/><g id="fm"/><g id="fn"/><g id="fo"/><g id="fp"/><g id="fq"/><g id="fr"/><g id="fs"/><g id="ft"/><g id="fu"/><g id="fv"/><g id="fw"/><g id="fx"/><g id="fy"/><g id="g`"/><g id="ga"/><g id="gb"/><g id="gc"><use width="342" height="234" transform="translate(85 139)" xlink:href="#a"/><path d="M383.8,344c-8.02,0-14.58-1.84-19.68-5.52-5.1-3.68-8.1-8.91-9.03-15.68l17.56-1.38c.59,2.63,1.86,4.65,3.8,6.07,1.94,1.41,4.35,2.12,7.25,2.12,3.55,0,6.36-1,8.43-3.01,2.07-2,3.11-4.65,3.11-7.94s-1.04-5.84-3.11-7.84c-2.07-2-4.88-3.01-8.43-3.01-3.95,0-7.2,1.41-9.76,4.24l-16.57-1.48,6.41-38.56h44.19v14.69h-30.87l-2.27,12.03,.29,.2c3.68-2.69,8.42-4.04,14.2-4.04,7.1,0,12.79,2.1,17.06,6.31,4.34,4.21,6.51,9.9,6.51,17.06,0,7.89-2.6,14.14-7.79,18.74-5.26,4.67-12.36,7-21.3,7Z"/></g><g id="gd"/><g id="ge"/><g id="gf"/><g id="gg"/><g id="gh"/><g id="gi"/><g id="gj"/><g id="gk"/><g id="gl"/><g id="gm"/><g id="gn"/><g id="go"/><g id="gp"/><g id="gq"/><g id="gr"/><g id="gs"/><g id="gt"/><g id="gu"/><g id="gv"/><g id="gw"/><g id="gx"/><g id="gy"/><g id="h`"/><g id="ha"/><g id="hb"/><g id="hc"/><g id="hd"/><g id="he"/><g id="hf"/><g id="hg"/><g id="hh"/><g id="hi"/><g id="hj"/><g id="hk"/><g id="hl"/><g id="hm"/><g id="hn"/><g id="ho"/><g id="hp"/><g id="hq"/><g id="hr"/><g id="hs"/><g id="ht"/><g id="hu"/><g id="hv"/><g id="hw"/><g id="hx"/><g id="hy"/><g id="i`"/><g id="ia"/><g id="ib"/><g id="ic"/></svg>