<svg xmlns="http://www.w3.org/2000/svg" xmlns:xlink="http://www.w3.org/1999/xlink" viewBox="0 0 64 64"><defs><clipPath id="a"><polygon points="21.17 46.81 18 64 42 64 44.75 46.81 21.17 46.81" fill="none"/></clipPath></defs><title>weather-icons</title><g clip-path="url(#a)"><path d="M32.29,47.2l.29.82a.29.29,0,0,0,.41.17l.79-.37a.3.3,0,0,1,.4.4l-.37.79a.29.29,0,0,0,.17.41l.82.29a.31.31,0,0,1,0,.58l-.82.29a.29.29,0,0,0-.17.41l.37.79a.3.3,0,0,1-.4.4L33,51.81a.29.29,0,0,0-.41.17l-.29.82a.31.31,0,0,1-.58,0L31.42,52a.29.29,0,0,0-.41-.17l-.79.37a.3.3,0,0,1-.4-.4l.37-.79a.29.29,0,0,0-.17-.41l-.82-.29a.31.31,0,0,1,0-.58l.82-.29a.29.29,0,0,0,.17-.41l-.37-.79a.3.3,0,0,1,.4-.4l.79.37a.29.29,0,0,0,.41-.17l.29-.82A.31.31,0,0,1,32.29,47.2Z" fill="#72b8d4"/><path d="M39.29,47.2l.29.82a.29.29,0,0,0,.41.17l.79-.37a.3.3,0,0,1,.4.4l-.37.79a.29.29,0,0,0,.17.41l.82.29a.31.31,0,0,1,0,.58l-.82.29a.29.29,0,0,0-.17.41l.37.79a.3.3,0,0,1-.4.4L40,51.81a.29.29,0,0,0-.41.17l-.29.82a.31.31,0,0,1-.58,0L38.42,52a.29.29,0,0,0-.41-.17l-.79.37a.3.3,0,0,1-.4-.4l.37-.79a.29.29,0,0,0-.17-.41l-.82-.29a.31.31,0,0,1,0-.58l.82-.29a.29.29,0,0,0,.17-.41l-.37-.79a.3.3,0,0,1,.4-.4l.79.37a.29.29,0,0,0,.41-.17l.29-.82A.31.31,0,0,1,39.29,47.2Z" fill="#72b8d4"/><path d="M25.29,47.2l.29.82a.29.29,0,0,0,.41.17l.79-.37a.3.3,0,0,1,.4.4l-.37.79a.29.29,0,0,0,.17.41l.82.29a.31.31,0,0,1,0,.58l-.82.29a.29.29,0,0,0-.17.41l.37.79a.3.3,0,0,1-.4.4L26,51.81a.29.29,0,0,0-.41.17l-.29.82a.31.31,0,0,1-.58,0L24.42,52a.29.29,0,0,0-.41-.17l-.79.37a.3.3,0,0,1-.4-.4l.37-.79a.29.29,0,0,0-.17-.41l-.82-.29a.31.31,0,0,1,0-.58l.82-.29a.29.29,0,0,0,.17-.41l-.37-.79a.3.3,0,0,1,.4-.4l.79.37a.29.29,0,0,0,.41-.17l.29-.82A.31.31,0,0,1,25.29,47.2Z" fill="#72b8d4"/></g><path d="M46.5,31.5l-.32,0a10.49,10.49,0,0,0-19.11-8,7,7,0,0,0-10.57,6,7.21,7.21,0,0,0,.1,1.14A7.5,7.5,0,0,0,18,45.5a4.19,4.19,0,0,0,.5,0v0h28a7,7,0,0,0,0-14Z" fill="#efefef" stroke="#efefef" stroke-miterlimit="10" stroke-width="3"/></svg>