<svg xmlns="http://www.w3.org/2000/svg" xmlns:xlink="http://www.w3.org/1999/xlink" viewBox="0 0 64 64">
	<defs>
		<clipPath id="a">
			<polygon points="7.5 7.5 54.5 7.5 7.5 54.5 7.5 7.5" fill="none"/>
		</clipPath>
		<linearGradient id="b" x1="22.56" y1="21.96" x2="39.2" y2="50.8" gradientUnits="userSpaceOnUse">
			<stop offset="0" stop-color="#fff"/>
			<stop offset="0.45" stop-color="#fff"/>
			<stop offset="1" stop-color="#e6effc"/>
		</linearGradient>
		<linearGradient id="c" x1="22.14" y1="36" x2="27.53" y2="45.32" gradientUnits="userSpaceOnUse">
			<stop offset="0" stop-color="#fde68a"/>
			<stop offset="0.45" stop-color="#fde68a"/>
			<stop offset="1" stop-color="#fde171"/>
		</linearGradient>
		<linearGradient id="d" x1="34.27" y1="28.99" x2="39.66" y2="38.32" xlink:href="#c"/>
		<linearGradient id="e" x1="43.47" y1="23.68" x2="48.86" y2="33" xlink:href="#c"/>
		<linearGradient id="f" x1="32.14" y1="36" x2="37.53" y2="45.32" xlink:href="#c"/>
		<linearGradient id="g" x1="44.27" y1="28.99" x2="49.66" y2="38.32" xlink:href="#c"/>
		<linearGradient id="h" x1="53.47" y1="23.68" x2="58.86" y2="33" xlink:href="#c"/>
	</defs>
	<g clip-path="url(#a)">
		<path d="M46.5,31.5l-.32,0a10.49,10.49,0,0,0-19.11-8,7,7,0,0,0-10.57,6,7.21,7.21,0,0,0,.1,1.14A7.5,7.5,0,0,0,18,45.5a4.19,4.19,0,0,0,.5,0v0h28a7,7,0,0,0,0-14Z" stroke="#f3f7fe" stroke-miterlimit="10" stroke-width="0.5" fill="url(#b)"/>
	</g>
	<line x1="24.89" y1="45.11" x2="28.08" y2="41.92" fill="none" stroke-linecap="round" stroke-miterlimit="10" stroke-width="3" stroke="url(#c)"/>
	<line x1="33.03" y1="36.97" x2="40.45" y2="29.55" fill="none" stroke-linecap="round" stroke-miterlimit="10" stroke-width="3" stroke-dasharray="7 7" stroke="url(#d)"/>
	<line x1="42.92" y1="27.08" x2="46.11" y2="23.89" fill="none" stroke-linecap="round" stroke-miterlimit="10" stroke-width="3" stroke="url(#e)"/>
	<line x1="34.89" y1="45.11" x2="38.08" y2="41.92" fill="none" stroke-linecap="round" stroke-miterlimit="10" stroke-width="3" stroke="url(#f)"/>
	<line x1="43.03" y1="36.97" x2="50.45" y2="29.55" fill="none" stroke-linecap="round" stroke-miterlimit="10" stroke-width="3" stroke-dasharray="7 7" stroke="url(#g)"/>
	<line x1="52.92" y1="27.08" x2="56.11" y2="23.89" fill="none" stroke-linecap="round" stroke-miterlimit="10" stroke-width="3" stroke="url(#h)"/>
</svg>
