<svg xmlns="http://www.w3.org/2000/svg" viewBox="0 0 64 64">
	<path d="M27.91,30.06a3.88,3.88,0,0,1-5.53,0,3.95,3.95,0,0,1,0-5.57,3.85,3.85,0,0,1,2.8-1.13,3.88,3.88,0,0,1,3.91,3.92A3.84,3.84,0,0,1,27.91,30.06Zm-4-1.54a1.63,1.63,0,0,0,1.22.5,1.65,1.65,0,0,0,1.21-.5,1.61,1.61,0,0,0,.52-1.2,1.71,1.71,0,0,0-.51-1.24,1.71,1.71,0,0,0-2.44,0,1.71,1.71,0,0,0-.51,1.24A1.64,1.64,0,0,0,23.94,28.52Z" fill="#374151"/>
	<path d="M42.58,23.76a.83.83,0,0,1,.2.63v1.18a.83.83,0,0,1-.2.63.91.91,0,0,1-.64.18H34.59V30.8h6.17a1,1,0,0,1,.65.18.84.84,0,0,1,.19.64v1.17a.89.89,0,0,1-.18.64.93.93,0,0,1-.66.18H34.59V39.8a.91.91,0,0,1-.18.64.88.88,0,0,1-.63.18H32.41a.94.94,0,0,1-.65-.18.86.86,0,0,1-.19-.64V24.39a.83.83,0,0,1,.19-.63.94.94,0,0,1,.65-.18h9.53A.91.91,0,0,1,42.58,23.76Z" fill="#374151"/>
</svg>
