<svg xmlns="http://www.w3.org/2000/svg" xmlns:xlink="http://www.w3.org/1999/xlink" viewBox="0 0 64 64">
	<defs>
		<clipPath id="a">
			<rect y="7.5" width="64" height="32" fill="none"/>
		</clipPath>
		<linearGradient id="b" x1="26.75" y1="29.91" x2="37.25" y2="48.09" gradientUnits="userSpaceOnUse">
			<stop offset="0" stop-color="#fbbf24"/>
			<stop offset="0.45" stop-color="#fbbf24"/>
			<stop offset="1" stop-color="#f59e0b"/>
		</linearGradient>
		<linearGradient id="c" x1="17.94" y1="41.73" x2="26.94" y2="57.32" gradientUnits="userSpaceOnUse">
			<stop offset="0" stop-color="#d4d7dd"/>
			<stop offset="0.45" stop-color="#d4d7dd"/>
			<stop offset="1" stop-color="#bec1c6"/>
		</linearGradient>
		<linearGradient id="d" x1="28.81" y1="35.45" x2="37.81" y2="51.04" xlink:href="#c"/>
		<linearGradient id="e" x1="37.06" y1="30.68" x2="46.06" y2="46.27" xlink:href="#c"/>
		<linearGradient id="f" x1="17.94" y1="48.73" x2="26.94" y2="64.32" xlink:href="#c"/>
		<linearGradient id="g" x1="28.81" y1="42.45" x2="37.81" y2="58.04" xlink:href="#c"/>
		<linearGradient id="h" x1="37.06" y1="37.68" x2="46.06" y2="53.27" xlink:href="#c"/>
	</defs>
	<g clip-path="url(#a)">
		<circle cx="32" cy="39" r="10.5" stroke="#f8af18" stroke-miterlimit="10" stroke-width="0.5" fill="url(#b)"/>
		<path d="M32,22.71V16.5m0,45V55.29M43.52,27.48l4.39-4.39M16.09,54.91l4.39-4.39m0-23-4.39-4.39M47.91,54.91l-4.39-4.39M15.71,39H9.5m45,0H48.29" fill="none" stroke="#fbbf24" stroke-linecap="round" stroke-miterlimit="10" stroke-width="3"/>
	</g>
	<line x1="17" y1="44" x2="21.5" y2="44" fill="none" stroke-linecap="round" stroke-miterlimit="10" stroke-width="3" stroke="url(#c)"/>
	<line x1="28.5" y1="44" x2="39" y2="44" fill="none" stroke-linecap="round" stroke-miterlimit="10" stroke-width="3" stroke-dasharray="7 7" stroke="url(#d)"/>
	<line x1="42.5" y1="44" x2="47" y2="44" fill="none" stroke-linecap="round" stroke-miterlimit="10" stroke-width="3" stroke="url(#e)"/>
	<line x1="17" y1="51" x2="21.5" y2="51" fill="none" stroke-linecap="round" stroke-miterlimit="10" stroke-width="3" stroke="url(#f)"/>
	<line x1="28.5" y1="51" x2="39" y2="51" fill="none" stroke-linecap="round" stroke-miterlimit="10" stroke-width="3" stroke-dasharray="7 7" stroke="url(#g)"/>
	<line x1="42.5" y1="51" x2="47" y2="51" fill="none" stroke-linecap="round" stroke-miterlimit="10" stroke-width="3" stroke="url(#h)"/>
</svg>
