<svg xmlns="http://www.w3.org/2000/svg" xmlns:xlink="http://www.w3.org/1999/xlink" viewBox="0 0 512 512">
    <defs>
        <linearGradient id="a" x1="99.45" y1="30.68" x2="232.64" y2="261.37" gradientUnits="userSpaceOnUse">
            <stop offset="0" stop-color="#f3f7fe"/>
            <stop offset="0.45" stop-color="#f3f7fe"/>
            <stop offset="1" stop-color="#deeafb"/>
        </linearGradient>
        <linearGradient id="b" x1="52.74" y1="9.62" x2="133.36" y2="149.27" gradientUnits="userSpaceOnUse">
            <stop offset="0" stop-color="#9ca3af"/>
            <stop offset="0.45" stop-color="#9ca3af"/>
            <stop offset="1" stop-color="#6b7280"/>
        </linearGradient>
        <linearGradient id="c" x1="34.67" y1="18.56" x2="119.21" y2="164.99" gradientUnits="userSpaceOnUse">
            <stop offset="0" stop-color="#86c3db"/>
            <stop offset="0.45" stop-color="#86c3db"/>
            <stop offset="1" stop-color="#5eafcf"/>
        </linearGradient>
        <linearGradient id="d" x1="74" y1="165.21" x2="98" y2="206.79" gradientUnits="userSpaceOnUse">
            <stop offset="0" stop-color="#b8bdc6"/>
            <stop offset="0.45" stop-color="#b8bdc6"/>
            <stop offset="1" stop-color="#a5aab2"/>
        </linearGradient>
        <linearGradient id="e" x1="20" y1="90.82" x2="56" y2="153.18" xlink:href="#d"/>
        <linearGradient id="f" x1="94" y1="8.42" x2="142" y2="91.58" xlink:href="#d"/>
        <symbol id="h" viewBox="0 0 172 172">
            <path d="M160.62,107.4c-47.17,0-85.41-37.73-85.41-84.26A83.31,83.31,0,0,1,78,2C35.27,6.61,2,42.33,2,85.73,2,132.27,40.24,170,87.41,170A85.16,85.16,0,0,0,170,106.87,88,88,0,0,1,160.62,107.4Z" stroke="#72b9d5" stroke-linecap="round" stroke-linejoin="round" stroke-width="4" fill="url(#c)"/>
        </symbol>
        <symbol id="j" viewBox="0 0 200.26 126.12">
            <path d="M.5,93.18a32.44,32.44,0,0,0,32.44,32.44H162.69v-.12c.77,0,1.53.12,2.31.12a34.75,34.75,0,0,0,6.49-68.89A32.38,32.38,0,0,0,123,23.62,48.58,48.58,0,0,0,34.4,60.81c-.49,0-1-.07-1.46-.07A32.44,32.44,0,0,0,.5,93.18Z" stroke="#848b98" stroke-miterlimit="10" fill="url(#b)"/>
        </symbol>
        <symbol id="k" viewBox="0 0 350 222">
            <path d="M291,107c-.85,0-1.68.09-2.53.13A83.9,83.9,0,0,0,135.6,42.92,55.91,55.91,0,0,0,51,91a56.56,56.56,0,0,0,.8,9.08A60,60,0,0,0,63,219c1.35,0,2.67-.11,4-.2v.2H291a56,56,0,0,0,0-112Z" stroke="#e6effc" stroke-miterlimit="10" stroke-width="6" fill="url(#a)"/>
        </symbol>
        <symbol id="i" viewBox="0 0 398 222">
            <use width="200.26" height="126.12" transform="translate(198 27)" xlink:href="#j"/>
            <use width="350" height="222" xlink:href="#k"/>
        </symbol>
        <symbol id="g" viewBox="0 0 398.84 246">
            <use width="172" height="172" xlink:href="#h"/>
            <use width="398" height="222" transform="translate(0.84 24)" xlink:href="#i"/>
        </symbol>
        <symbol id="l" viewBox="0 0 168 212">
            <circle cx="86" cy="186" r="24" stroke="#afb4bc" stroke-miterlimit="10" stroke-width="4" fill="url(#d)"/>
            <circle cx="38" cy="122" r="36" stroke="#afb4bc" stroke-miterlimit="10" stroke-width="4" fill="url(#e)"/>
            <circle cx="118" cy="50" r="48" stroke="#afb4bc" stroke-miterlimit="10" stroke-width="4" fill="url(#f)"/>
        </symbol>
    </defs>
    <use width="398.84" height="246" transform="translate(68 121)" xlink:href="#g"/>
    <use width="168" height="212" transform="translate(172 232)" xlink:href="#l"/>
</svg>
