<svg xmlns="http://www.w3.org/2000/svg" xmlns:xlink="http://www.w3.org/1999/xlink" viewBox="0 0 64 64">
	<defs>
		<linearGradient id="a" x1="25.67" y1="21.03" x2="38.33" y2="42.97" gradientUnits="userSpaceOnUse">
			<stop offset="0" stop-color="#f783ac"/>
			<stop offset="0.45" stop-color="#f783ac"/>
			<stop offset="1" stop-color="#e64980"/>
		</linearGradient>
		<linearGradient id="b" x1="25.72" y1="32" x2="38.28" y2="32" gradientUnits="userSpaceOnUse">
			<stop offset="0" stop-color="#fbbf24"/>
			<stop offset="0.45" stop-color="#fbbf24"/>
			<stop offset="1" stop-color="#f59e0b"/>
		</linearGradient>
		<linearGradient id="c" x1="31.25" y1="14.7" x2="32.75" y2="17.3" xlink:href="#b"/>
		<linearGradient id="d" x1="36" y1="19.27" x2="38" y2="22.73" xlink:href="#b"/>
		<linearGradient id="e" x1="26" y1="19.27" x2="28" y2="22.73" xlink:href="#b"/>
		<linearGradient id="f" x1="18.25" y1="20.7" x2="19.75" y2="23.3" xlink:href="#b"/>
		<linearGradient id="g" x1="44.25" y1="20.7" x2="45.75" y2="23.3" xlink:href="#b"/>
		<linearGradient id="h" x1="39.5" y1="16.13" x2="40.5" y2="17.87" xlink:href="#b"/>
		<linearGradient id="i" x1="23.5" y1="16.13" x2="24.5" y2="17.87" xlink:href="#b"/>
	</defs>
	<path d="M40.94,30.32a9.46,9.46,0,0,0-2.22-.73,9.27,9.27,0,0,0,1.26-2c1.68-3.56.88-7.48-1.78-8.74s-6.2.61-7.88,4.17a9.46,9.46,0,0,0-.73,2.22,9.27,9.27,0,0,0-2-1.26c-3.56-1.68-7.47-.88-8.74,1.78s.61,6.2,4.17,7.88a9.46,9.46,0,0,0,2.22.73,9.27,9.27,0,0,0-1.26,2c-1.68,3.56-.88,7.48,1.78,8.74s6.2-.61,7.88-4.17a9.46,9.46,0,0,0,.73-2.22,9.27,9.27,0,0,0,2,1.26c3.56,1.68,7.47.89,8.74-1.78S44.5,32,40.94,30.32Zm-9,1.88-.22-.09c0-.07.08-.13.12-.21l.09-.22.21.12.22.09-.12.21-.09.22Z" stroke="#f06595" stroke-miterlimit="10" stroke-width="0.25" fill="url(#a)"/>
	<path d="M38.28,32.52c0-.73-4-.89-4-.89s3.61-.51,3.32-1.33c0-.11-.18-.16-.38-.17.15-.14.22-.27.18-.38-.29-.82-3.4,1.09-3.4,1.09s3-2.65,2.51-3.23-2.8,2.12-2.8,2.12,1.94-3.31,1.1-3.7-2.15,3.19-2.15,3.19.59-3.52-.15-3.5-.89,4-.89,4-.51-3.61-1.33-3.32c-.1,0-.16.18-.17.39-.14-.16-.27-.23-.38-.19-.82.29,1.09,3.4,1.09,3.4s-2.65-3-3.23-2.51,2.12,2.8,2.12,2.8-3.31-1.94-3.7-1.1,3.19,2.15,3.19,2.15-3.52-.59-3.5.15,4,.89,4,.89-3.61.51-3.32,1.33c0,.1.18.16.39.17-.16.14-.23.27-.19.38.29.82,3.4-1.09,3.4-1.09s-3,2.65-2.51,3.23,2.8-2.11,2.8-2.11-1.94,3.3-1.1,3.69,2.15-3.19,2.15-3.19-.59,3.52.15,3.5.89-4,.89-4,.51,3.61,1.33,3.32c.11,0,.16-.18.17-.38.14.15.27.22.38.18.82-.29-1.09-3.4-1.09-3.4s2.65,3,3.23,2.51-2.11-2.8-2.11-2.8,3.3,1.94,3.69,1.1-3.19-2.15-3.19-2.15S38.3,33.26,38.28,32.52Z" stroke="#f8af18" stroke-miterlimit="10" stroke-width="0.25" fill="url(#b)"/>
	<circle cx="32" cy="16" r="1.5" stroke="#f8af18" stroke-miterlimit="10" stroke-width="0.25" fill="url(#c)"/>
	<circle cx="37" cy="21" r="2" stroke="#f8af18" stroke-miterlimit="10" stroke-width="0.25" fill="url(#d)"/>
	<circle cx="27" cy="21" r="2" stroke="#f8af18" stroke-miterlimit="10" stroke-width="0.25" fill="url(#e)"/>
	<circle cx="19" cy="22" r="1.5" stroke="#f8af18" stroke-miterlimit="10" stroke-width="0.25" fill="url(#f)"/>
	<circle cx="45" cy="22" r="1.5" stroke="#f8af18" stroke-miterlimit="10" stroke-width="0.25" fill="url(#g)"/>
	<circle cx="40" cy="17" r="1" stroke="#f8af18" stroke-miterlimit="10" stroke-width="0.25" fill="url(#h)"/>
	<circle cx="24" cy="17" r="1" stroke="#f8af18" stroke-miterlimit="10" stroke-width="0.25" fill="url(#i)"/>
</svg>
