<svg xmlns="http://www.w3.org/2000/svg" xmlns:xlink="http://www.w3.org/1999/xlink" viewBox="0 0 64 64">
	<defs>
		<linearGradient id="a" x1="13.58" y1="15.57" x2="24.15" y2="33.87" gradientUnits="userSpaceOnUse">
			<stop offset="0" stop-color="#86c3db"/>
			<stop offset="0.45" stop-color="#86c3db"/>
			<stop offset="1" stop-color="#5eafcf"/>
		</linearGradient>
		<linearGradient id="b" x1="22.56" y1="21.96" x2="39.2" y2="50.8" gradientUnits="userSpaceOnUse">
			<stop offset="0" stop-color="#f3f7fe"/>
			<stop offset="0.45" stop-color="#f3f7fe"/>
			<stop offset="1" stop-color="#deeafb"/>
		</linearGradient>
		<linearGradient id="c" x1="17.94" y1="55.73" x2="26.94" y2="71.32" gradientUnits="userSpaceOnUse">
			<stop offset="0" stop-color="#d4d7dd"/>
			<stop offset="0.45" stop-color="#d4d7dd"/>
			<stop offset="1" stop-color="#bec1c6"/>
		</linearGradient>
		<linearGradient id="d" x1="28.81" y1="49.45" x2="37.81" y2="65.04" xlink:href="#c"/>
		<linearGradient id="e" x1="37.06" y1="44.68" x2="46.06" y2="60.27" xlink:href="#c"/>
		<linearGradient id="f" x1="17.94" y1="49.73" x2="26.94" y2="65.32" xlink:href="#c"/>
		<linearGradient id="g" x1="28.81" y1="43.45" x2="37.81" y2="59.04" xlink:href="#c"/>
		<linearGradient id="h" x1="37.06" y1="38.68" x2="46.06" y2="54.27" xlink:href="#c"/>
	</defs>
	<path d="M29.33,26.68A10.61,10.61,0,0,1,18.65,16.14,10.5,10.5,0,0,1,19,13.5,10.54,10.54,0,1,0,30.5,26.61,11.48,11.48,0,0,1,29.33,26.68Z" stroke="#72b9d5" stroke-linecap="round" stroke-linejoin="round" stroke-width="0.5" fill="url(#a)"/>
	<path d="M46.5,31.5l-.32,0a10.49,10.49,0,0,0-19.11-8,7,7,0,0,0-10.57,6,7.21,7.21,0,0,0,.1,1.14A7.5,7.5,0,0,0,18,45.5a4.19,4.19,0,0,0,.5,0v0h28a7,7,0,0,0,0-14Z" stroke="#e6effc" stroke-miterlimit="10" stroke-width="0.5" fill="url(#b)"/>
	<line x1="17" y1="58" x2="21.5" y2="58" fill="none" stroke-linecap="round" stroke-miterlimit="10" stroke-width="3" stroke="url(#c)"/>
	<line x1="28.5" y1="58" x2="39" y2="58" fill="none" stroke-linecap="round" stroke-miterlimit="10" stroke-width="3" stroke-dasharray="7 7" stroke="url(#d)"/>
	<line x1="42.5" y1="58" x2="47" y2="58" fill="none" stroke-linecap="round" stroke-miterlimit="10" stroke-width="3" stroke="url(#e)"/>
	<line x1="17" y1="52" x2="21.5" y2="52" fill="none" stroke-linecap="round" stroke-miterlimit="10" stroke-width="3" stroke="url(#f)"/>
	<line x1="28.5" y1="52" x2="39" y2="52" fill="none" stroke-linecap="round" stroke-miterlimit="10" stroke-width="3" stroke-dasharray="7 7" stroke="url(#g)"/>
	<line x1="42.5" y1="52" x2="47" y2="52" fill="none" stroke-linecap="round" stroke-miterlimit="10" stroke-width="3" stroke="url(#h)"/>
</svg>
