<svg xmlns="http://www.w3.org/2000/svg" xmlns:xlink="http://www.w3.org/1999/xlink" viewBox="0 0 64 64">
	<defs>
		<linearGradient id="a" x1="16.5" y1="19.67" x2="21.5" y2="28.33" gradientUnits="userSpaceOnUse">
			<stop offset="0" stop-color="#fbbf24"/>
			<stop offset="0.45" stop-color="#fbbf24"/>
			<stop offset="1" stop-color="#f59e0b"/>
		</linearGradient>
		<linearGradient id="b" x1="22.56" y1="21.96" x2="39.2" y2="50.8" gradientUnits="userSpaceOnUse">
			<stop offset="0" stop-color="#f3f7fe"/>
			<stop offset="0.45" stop-color="#f3f7fe"/>
			<stop offset="1" stop-color="#deeafb"/>
		</linearGradient>
		<linearGradient id="c" x1="22.53" y1="42.95" x2="25.47" y2="48.05" gradientUnits="userSpaceOnUse">
			<stop offset="0" stop-color="#4286ee"/>
			<stop offset="0.45" stop-color="#4286ee"/>
			<stop offset="1" stop-color="#0950bc"/>
		</linearGradient>
		<linearGradient id="d" x1="29.53" y1="42.95" x2="32.47" y2="48.05" xlink:href="#c"/>
		<linearGradient id="e" x1="36.53" y1="42.95" x2="39.47" y2="48.05" xlink:href="#c"/>
	</defs>
	<circle cx="19" cy="24" r="5" stroke="#f8af18" stroke-miterlimit="10" stroke-width="0.5" fill="url(#a)"/>
	<path d="M19,15.67V12.5m0,23V32.33m5.89-14.22,2.24-2.24M10.87,32.13l2.24-2.24m0-11.78-2.24-2.24M27.13,32.13l-2.24-2.24M7.5,24h3.17M30.5,24H27.33" fill="none" stroke="#fbbf24" stroke-linecap="round" stroke-miterlimit="10" stroke-width="2"/>
	<path d="M46.5,31.5l-.32,0a10.49,10.49,0,0,0-19.11-8,7,7,0,0,0-10.57,6,7.21,7.21,0,0,0,.1,1.14A7.5,7.5,0,0,0,18,45.5a4.19,4.19,0,0,0,.5,0v0h28a7,7,0,0,0,0-14Z" stroke="#e6effc" stroke-miterlimit="10" stroke-width="0.5" fill="url(#b)"/>
	<line x1="24.39" y1="43.03" x2="23.61" y2="47.97" fill="none" stroke-linecap="round" stroke-miterlimit="10" stroke-width="2" stroke="url(#c)"/>
	<line x1="31.39" y1="43.03" x2="30.61" y2="47.97" fill="none" stroke-linecap="round" stroke-miterlimit="10" stroke-width="2" stroke="url(#d)"/>
	<line x1="38.39" y1="43.03" x2="37.61" y2="47.97" fill="none" stroke-linecap="round" stroke-miterlimit="10" stroke-width="2" stroke="url(#e)"/>
</svg>
