<svg xmlns="http://www.w3.org/2000/svg" viewBox="0 0 64 64">
	<defs>
		<linearGradient id="a" x1="23.29" y1="23.36" x2="38.11" y2="49.02" gradientUnits="userSpaceOnUse">
			<stop offset="0" stop-color="#f87171"/>
			<stop offset="0.45" stop-color="#f87171"/>
			<stop offset="1" stop-color="#dc2626"/>
		</linearGradient>
		<linearGradient id="b" x1="24.62" y1="26.06" x2="37.18" y2="47.82" gradientUnits="userSpaceOnUse">
			<stop offset="0" stop-color="#fbbf24"/>
			<stop offset="0.45" stop-color="#fbbf24"/>
			<stop offset="1" stop-color="#f59e0b"/>
		</linearGradient>
		<linearGradient id="c" x1="18" y1="34.25" x2="46" y2="34.25" gradientUnits="userSpaceOnUse">
			<stop offset="0" stop-color="#51cf66"/>
			<stop offset="0.45" stop-color="#51cf66"/>
			<stop offset="1" stop-color="#37b24d"/>
		</linearGradient>
		<linearGradient id="d" x1="39.75" y1="32.41" x2="49.01" y2="48.46" gradientUnits="userSpaceOnUse">
			<stop offset="0" stop-color="#f3f7fe"/>
			<stop offset="0.45" stop-color="#f3f7fe"/>
			<stop offset="1" stop-color="#deeafb"/>
		</linearGradient>
	</defs>
	<path d="M13.5,41A18.25,18.25,0,0,1,32,23,18.25,18.25,0,0,1,50.5,41" fill="none" stroke-miterlimit="10" stroke-width="3" stroke="url(#a)"/>
	<path d="M16.5,41A15.26,15.26,0,0,1,32,26,15.26,15.26,0,0,1,47.5,41" fill="none" stroke-miterlimit="10" stroke-width="3" stroke="url(#b)"/>
	<path d="M19.5,41A12.26,12.26,0,0,1,32,29,12.26,12.26,0,0,1,44.5,41" fill="none" stroke-miterlimit="10" stroke-width="3" stroke="url(#c)"/>
	<path d="M53.09,37.72h-.17a5.86,5.86,0,0,0-10.67-4.46,3.9,3.9,0,0,0-5.9,3.34,4.23,4.23,0,0,0,0,.63,4.17,4.17,0,0,0,.79,8.26h15.9a3.89,3.89,0,1,0,0-7.78Z" stroke="#e6effc" stroke-miterlimit="10" stroke-width="0.5" fill="url(#d)"/>
</svg>
