<svg xmlns="http://www.w3.org/2000/svg" xmlns:xlink="http://www.w3.org/1999/xlink" viewBox="0 0 64 64">
	<defs>
		<linearGradient id="a" x1="22.56" y1="21.96" x2="39.2" y2="50.8" gradientUnits="userSpaceOnUse">
			<stop offset="0" stop-color="#f3f7fe"/>
			<stop offset="0.45" stop-color="#f3f7fe"/>
			<stop offset="1" stop-color="#deeafb"/>
		</linearGradient>
		<linearGradient id="b" x1="22.66" y1="42.68" x2="25.34" y2="47.32" gradientUnits="userSpaceOnUse">
			<stop offset="0" stop-color="#86c3db"/>
			<stop offset="0.45" stop-color="#86c3db"/>
			<stop offset="1" stop-color="#5eafcf"/>
		</linearGradient>
		<linearGradient id="c" x1="29.66" y1="42.68" x2="32.34" y2="47.32" xlink:href="#b"/>
		<linearGradient id="d" x1="36.66" y1="42.68" x2="39.34" y2="47.32" xlink:href="#b"/>
	</defs>
	<path d="M46.5,31.5l-.32,0a10.49,10.49,0,0,0-19.11-8,7,7,0,0,0-10.57,6,7.21,7.21,0,0,0,.1,1.14A7.5,7.5,0,0,0,18,45.5a4.19,4.19,0,0,0,.5,0v0h28a7,7,0,0,0,0-14Z" stroke="#e6effc" stroke-miterlimit="10" stroke-width="0.5" fill="url(#a)"/>
	<path d="M26.45,45.82l-.73-.41a1.59,1.59,0,0,0,0-.81l.73-.42a.49.49,0,0,0,.18-.68.51.51,0,0,0-.69-.18l-.72.41a1.66,1.66,0,0,0-.71-.41V42.5a.51.51,0,0,0-1,0v.83a1.74,1.74,0,0,0-.71.4l-.72-.41a.51.51,0,0,0-.69.18.49.49,0,0,0,.18.68l.73.41a1.59,1.59,0,0,0,0,.81l-.73.42a.49.49,0,0,0-.18.68.5.5,0,0,0,.44.25.47.47,0,0,0,.25-.07l.72-.41a2,2,0,0,0,.33.25,1.5,1.5,0,0,0,.38.15v.83a.51.51,0,0,0,1,0v-.83a1.74,1.74,0,0,0,.71-.4l.72.41a.47.47,0,0,0,.25.07.5.5,0,0,0,.44-.25A.49.49,0,0,0,26.45,45.82Zm-2.83-.17a.75.75,0,0,1,.38-1.4.75.75,0,0,1,.38.1.75.75,0,0,1,.28,1A.77.77,0,0,1,23.62,45.65Z" fill="url(#b)"/>
	<path d="M33.45,45.82l-.73-.41a1.59,1.59,0,0,0,0-.81l.73-.42a.49.49,0,0,0,.18-.68.51.51,0,0,0-.69-.18l-.72.41a1.66,1.66,0,0,0-.71-.41V42.5a.51.51,0,0,0-1,0v.83a1.74,1.74,0,0,0-.71.4l-.72-.41a.51.51,0,0,0-.69.18.49.49,0,0,0,.18.68l.73.41a1.59,1.59,0,0,0,0,.81l-.73.42a.49.49,0,0,0-.18.68.5.5,0,0,0,.44.25.47.47,0,0,0,.25-.07l.72-.41a2,2,0,0,0,.33.25,1.5,1.5,0,0,0,.38.15v.83a.51.51,0,0,0,1,0v-.83a1.74,1.74,0,0,0,.71-.4l.72.41a.47.47,0,0,0,.25.07.5.5,0,0,0,.44-.25A.49.49,0,0,0,33.45,45.82Zm-2.83-.17a.75.75,0,0,1,.38-1.4.75.75,0,0,1,.38.1.75.75,0,0,1,.28,1A.77.77,0,0,1,30.62,45.65Z" fill="url(#c)"/>
	<path d="M40.45,45.82l-.73-.41a1.59,1.59,0,0,0,0-.81l.73-.42a.49.49,0,0,0,.18-.68.51.51,0,0,0-.69-.18l-.72.41a1.66,1.66,0,0,0-.71-.41V42.5a.51.51,0,0,0-1,0v.83a1.74,1.74,0,0,0-.71.4l-.72-.41a.51.51,0,0,0-.69.18.49.49,0,0,0,.18.68l.73.41a1.59,1.59,0,0,0,0,.81l-.73.42a.49.49,0,0,0-.18.68.5.5,0,0,0,.44.25.47.47,0,0,0,.25-.07l.72-.41a2,2,0,0,0,.33.25,1.5,1.5,0,0,0,.38.15v.83a.51.51,0,0,0,1,0v-.83a1.74,1.74,0,0,0,.71-.4l.72.41a.47.47,0,0,0,.25.07.5.5,0,0,0,.44-.25A.49.49,0,0,0,40.45,45.82Zm-2.83-.17a.75.75,0,0,1,.38-1.4.75.75,0,0,1,.38.1.75.75,0,0,1,.28,1A.77.77,0,0,1,37.62,45.65Z" fill="url(#d)"/>
</svg>
