<svg xmlns="http://www.w3.org/2000/svg" viewBox="0 0 64 64">
	<defs>
		<linearGradient id="a" x1="23.49" y1="17.26" x2="40.51" y2="46.74" gradientUnits="userSpaceOnUse">
			<stop offset="0" stop-color="#fcd966"/>
			<stop offset="0.45" stop-color="#fcd966"/>
			<stop offset="1" stop-color="#fccd34"/>
		</linearGradient>
	</defs>
	<path d="M13.21,32.94l13.44,3.74a1,1,0,0,1,.67.67l3.74,13.44a1,1,0,0,0,1.88,0l3.74-13.44a1,1,0,0,1,.67-.67l13.44-3.74a1,1,0,0,0,0-1.88L37.35,27.32a1,1,0,0,1-.67-.67L32.94,13.21a1,1,0,0,0-1.88,0L27.32,26.65a1,1,0,0,1-.67.67L13.21,31.06A1,1,0,0,0,13.21,32.94Z" stroke="#fcd34d" stroke-linecap="round" stroke-linejoin="round" stroke-width="0.5" fill="url(#a)"/>
</svg>
