<svg xmlns="http://www.w3.org/2000/svg" xmlns:xlink="http://www.w3.org/1999/xlink" viewBox="0 0 512 512">
    <defs>
        <linearGradient id="a" x1="54.52" y1="2.17" x2="89.18" y2="62.19" gradientUnits="userSpaceOnUse">
            <stop offset="0" stop-color="#d4d7dd"/>
            <stop offset="0.45" stop-color="#d4d7dd"/>
            <stop offset="1" stop-color="#bec1c6"/>
        </linearGradient>
        <linearGradient id="b" x1="31.42" y1="37.6" x2="68.27" y2="101.43" xlink:href="#a"/>
        <linearGradient id="c" x1="-2350.61" y1="4798.1" x2="-2230.48" y2="5006.17" gradientTransform="translate(5344.26 -1582.19) rotate(45)" xlink:href="#a"/>
        <linearGradient id="d" x1="-2241.95" y1="6227.59" x2="-2160.68" y2="6368.35" gradientTransform="matrix(0.71, 0.71, 0.71, -0.71, -2558, 6175.57)" gradientUnits="userSpaceOnUse">
            <stop offset="0" stop-color="#f87171"/>
            <stop offset="0.45" stop-color="#f87171"/>
            <stop offset="1" stop-color="#dc2626"/>
        </linearGradient>
        <symbol id="e" viewBox="0 0 138 96">
            <path d="M105.23,10.78a15.55,15.55,0,1,1,11.21,26.33H6" fill="none" stroke-linecap="round" stroke-miterlimit="10" stroke-width="12" stroke="url(#a)"/>
            <path d="M60.67,85.22A15.55,15.55,0,1,0,71.89,58.89H6.56" fill="none" stroke-linecap="round" stroke-miterlimit="10" stroke-width="12" stroke="url(#b)"/>
        </symbol>
    </defs>
    <path d="M219.94,359.94A24,24,0,1,1,186,326l1.76-1.76L343,169" fill="none" stroke-linecap="round" stroke-linejoin="round" stroke-width="12" stroke="url(#c)"/>
    <path d="M442.79,239.91c-37.49,37.49-105.87,29.89-152.73-17s-54.46-115.24-17-152.73L278,83.35c6.84,18.48,23.23,34.58,41.72,41l11.55,4,2.34,7.28c6.37,19.83,24,37.43,43.8,43.8l7.28,2.34,4,11.55c6.41,18.49,22.51,34.88,41,41.72Z" stroke="#ef4444" stroke-miterlimit="10" stroke-width="4" fill="url(#d)"/>
    <path d="M384.65,181.77c-33.18,42.62-94.59,41.17-94.59,41.17s-1.45-61.41,41.17-94.59" fill="none" stroke="#ef4444" stroke-linecap="round" stroke-linejoin="round" stroke-width="2"/>
    <use width="138" height="96" transform="translate(62.5 201)" xlink:href="#e"/>
</svg>
