<svg xmlns="http://www.w3.org/2000/svg" viewBox="0 0 64 64">
	<defs>
		<clipPath id="a">
			<path d="M33.5,48.5v-9a6,6,0,0,1,6-6h17V7.5H7.5v49h28V53A6,6,0,0,1,33.5,48.5Z" fill="none"/>
		</clipPath>
		<linearGradient id="b" x1="26.75" y1="22.91" x2="37.25" y2="41.09" gradientUnits="userSpaceOnUse">
			<stop offset="0" stop-color="#fbbf24"/>
			<stop offset="0.45" stop-color="#fbbf24"/>
			<stop offset="1" stop-color="#f59e0b"/>
		</linearGradient>
	</defs>
	<g clip-path="url(#a)">
		<circle cx="32" cy="32" r="10.5" stroke="#f8af18" stroke-miterlimit="10" stroke-width="0.5" fill="url(#b)"/>
		<path d="M32,15.71V9.5m0,45V48.29M43.52,20.48l4.39-4.39M16.09,47.91l4.39-4.39m0-23-4.39-4.39M47.91,47.91l-4.39-4.39M15.71,32H9.5m45,0H48.29" fill="none" stroke="#fbbf24" stroke-linecap="round" stroke-miterlimit="10" stroke-width="3"/>
	</g>
	<path d="M41.69,46.56A1.87,1.87,0,0,0,43,47c1.17,0,1.76-.52,1.76-1.56V39.57a.66.66,0,0,1,.12-.45.64.64,0,0,1,.44-.12h1.12a.46.46,0,0,1,.57.57v5.77A3.5,3.5,0,0,1,46,48a4.17,4.17,0,0,1-3,1,4.14,4.14,0,0,1-3-1,3.5,3.5,0,0,1-1-2.68V39.57a.46.46,0,0,1,.57-.57h1.12a.6.6,0,0,1,.43.12.66.66,0,0,1,.12.45V45.4A1.47,1.47,0,0,0,41.69,46.56Z" fill="#374151"/>
	<path d="M57.44,39.56l-3.17,9a.72.72,0,0,1-.25.38.81.81,0,0,1-.45.1H52.44a.89.89,0,0,1-.45-.09.63.63,0,0,1-.24-.36l-3.19-9c-.14-.37,0-.56.37-.56h1a1.6,1.6,0,0,1,.73.11.67.67,0,0,1,.3.41l1.63,5.25c.06.23.13.48.19.77s.1.5.13.67l0,.25h.11a9.3,9.3,0,0,1,.35-1.67l1.6-5.27a.61.61,0,0,1,.3-.41,1.51,1.51,0,0,1,.71-.11h1C57.46,39,57.58,39.19,57.44,39.56Z" fill="#374151"/>
</svg>
