<svg xmlns="http://www.w3.org/2000/svg" xmlns:xlink="http://www.w3.org/1999/xlink" viewBox="0 0 64 64">
	<defs>
		<linearGradient id="a" x1="27.56" y1="17.64" x2="38.27" y2="36.19" gradientUnits="userSpaceOnUse">
			<stop offset="0" stop-color="#d4d7dd"/>
			<stop offset="0.45" stop-color="#d4d7dd"/>
			<stop offset="1" stop-color="#bec1c6"/>
		</linearGradient>
		<linearGradient id="b" x1="19.96" y1="29.03" x2="31.37" y2="48.8" xlink:href="#a"/>
	</defs>
	<path d="M43.64,20a5,5,0,1,1,3.61,8.46H11.75" fill="none" stroke-linecap="round" stroke-miterlimit="10" stroke-width="3" stroke="url(#a)"/>
	<path d="M29.14,44a5,5,0,1,0,3.61-8.46h-21" fill="none" stroke-linecap="round" stroke-miterlimit="10" stroke-width="3" stroke="url(#b)"/>
	<path d="M52.69,34.82a.52.52,0,0,1,.11.39v.53a1.94,1.94,0,0,1-.15.72L48.86,44.9a.64.64,0,0,1-.29.37,1.65,1.65,0,0,1-.66.09h-.82c-.33,0-.42-.17-.26-.51l3.81-8.39H45.81A.43.43,0,0,1,45.3,36v-.74a.52.52,0,0,1,.12-.39.51.51,0,0,1,.39-.11h6.48A.53.53,0,0,1,52.69,34.82Z" fill="#374151"/>
</svg>
