<svg xmlns="http://www.w3.org/2000/svg" xmlns:xlink="http://www.w3.org/1999/xlink" viewBox="0 0 512 512">
    <defs>
        <linearGradient id="a" x1="90.04" y1="155.61" x2="205.96" y2="356.39" gradientUnits="userSpaceOnUse">
            <stop offset="0" stop-color="#d4d7dd"/>
            <stop offset="0.45" stop-color="#d4d7dd"/>
            <stop offset="1" stop-color="#bec1c6"/>
        </linearGradient>
        <linearGradient id="b" x1="183.62" y1="151.24" x2="221.92" y2="217.58" gradientUnits="userSpaceOnUse">
            <stop offset="0" stop-color="#f87171"/>
            <stop offset="0.45" stop-color="#f87171"/>
            <stop offset="1" stop-color="#dc2626"/>
        </linearGradient>
        <linearGradient id="c" x1="234.24" y1="200.2" x2="262.24" y2="248.7" xlink:href="#b"/>
        <linearGradient id="d" x1="270.86" y1="252.44" x2="291.62" y2="288.39" xlink:href="#b"/>
    </defs>
    <line x1="148" y1="376" x2="148" y2="136" fill="none" stroke-linecap="round" stroke-linejoin="round" stroke-width="24" stroke="url(#a)"/>
    <path d="M239.69,154.68l-22.8-18a6.39,6.39,0,0,0-9.49,1.82l-41,71.07a6.38,6.38,0,0,0,3.17,9.12l27,10.75a6.39,6.39,0,0,0,7.89-2.74l36.84-63.81A6.39,6.39,0,0,0,239.69,154.68Z" stroke="#ef4444" stroke-miterlimit="10" stroke-width="2" fill="url(#b)"/>
    <path d="M285.18,210.62l-17.37-23.29a6.38,6.38,0,0,0-9.63-.69L213,231.83a6.38,6.38,0,0,0,.7,9.63L237,258.82a6.38,6.38,0,0,0,8.33-.6L284.57,219A6.39,6.39,0,0,0,285.18,210.62Z" stroke="#ef4444" stroke-miterlimit="10" stroke-width="2" fill="url(#c)"/>
    <path d="M310.54,271.16l-10.74-27a6.38,6.38,0,0,0-9.12-3.17l-39.63,22.88a6.37,6.37,0,0,0-1.81,9.48l18,22.8a6.37,6.37,0,0,0,8.2,1.57l32.36-18.68A6.38,6.38,0,0,0,310.54,271.16Z" stroke="#ef4444" stroke-miterlimit="10" stroke-width="2" fill="url(#d)"/>
</svg>
