<svg xmlns="http://www.w3.org/2000/svg" xmlns:xlink="http://www.w3.org/1999/xlink" viewBox="0 0 64 64">
	<defs>
		<linearGradient id="a" x1="27.56" y1="17.64" x2="38.27" y2="36.19" gradientUnits="userSpaceOnUse">
			<stop offset="0" stop-color="#d4d7dd"/>
			<stop offset="0.45" stop-color="#d4d7dd"/>
			<stop offset="1" stop-color="#bec1c6"/>
		</linearGradient>
		<linearGradient id="b" x1="19.96" y1="29.03" x2="31.37" y2="48.8" xlink:href="#a"/>
	</defs>
	<path d="M43.64,20a5,5,0,1,1,3.61,8.46H11.75" fill="none" stroke-linecap="round" stroke-miterlimit="10" stroke-width="3" stroke="url(#a)"/>
	<path d="M29.14,44a5,5,0,1,0,3.61-8.46h-21" fill="none" stroke-linecap="round" stroke-miterlimit="10" stroke-width="3" stroke="url(#b)"/>
	<path d="M46.08,35.46a4.08,4.08,0,0,1,2.92-1,4.08,4.08,0,0,1,2.92,1,3.44,3.44,0,0,1,1,2.64V42a3.49,3.49,0,0,1-1,2.66,4.12,4.12,0,0,1-2.92,1,4.12,4.12,0,0,1-2.92-1A3.46,3.46,0,0,1,45,42V38.1A3.41,3.41,0,0,1,46.08,35.46Zm4.46,1.26a2.66,2.66,0,0,0-3.08,0,1.78,1.78,0,0,0-.54,1.38V42a1.78,1.78,0,0,0,.54,1.38,2.67,2.67,0,0,0,3.08,0A1.78,1.78,0,0,0,51.08,42V38.1A1.78,1.78,0,0,0,50.54,36.72Z" fill="#374151"/>
</svg>
