<svg xmlns="http://www.w3.org/2000/svg" xmlns:xlink="http://www.w3.org/1999/xlink" viewBox="0 0 512 512">
    <defs>
        <linearGradient id="a" x1="54.52" y1="2.17" x2="89.18" y2="62.19" gradientUnits="userSpaceOnUse">
            <stop offset="0" stop-color="#d4d7dd"/>
            <stop offset="0.45" stop-color="#d4d7dd"/>
            <stop offset="1" stop-color="#bec1c6"/>
        </linearGradient>
        <linearGradient id="b" x1="31.42" y1="37.6" x2="68.27" y2="101.43" xlink:href="#a"/>
        <linearGradient id="c" x1="218.14" y1="607.75" x2="288.89" y2="730.3" gradientTransform="translate(184.65 -461.14) rotate(6)" gradientUnits="userSpaceOnUse">
            <stop offset="0" stop-color="#875b34"/>
            <stop offset="0.45" stop-color="#875b34"/>
            <stop offset="1" stop-color="#624226"/>
        </linearGradient>
        <linearGradient id="d" x1="226.85" y1="568.96" x2="288.17" y2="675.18" gradientTransform="translate(184.65 -461.14) rotate(6)" gradientUnits="userSpaceOnUse">
            <stop offset="0" stop-color="#51cf66"/>
            <stop offset="0.45" stop-color="#51cf66"/>
            <stop offset="1" stop-color="#37b24d"/>
        </linearGradient>
        <linearGradient id="e" x1="135.11" y1="283.16" x2="209.96" y2="412.81" gradientUnits="userSpaceOnUse">
            <stop offset="0" stop-color="#3392d6"/>
            <stop offset="0.45" stop-color="#3392d6"/>
            <stop offset="1" stop-color="#2477b2"/>
        </linearGradient>
        <linearGradient id="f" x1="266.83" y1="293.59" x2="339.63" y2="419.69" gradientUnits="userSpaceOnUse">
            <stop offset="0" stop-color="#fbbf24"/>
            <stop offset="0.45" stop-color="#fbbf24"/>
            <stop offset="1" stop-color="#f59e0b"/>
        </linearGradient>
        <symbol id="g" viewBox="0 0 138 96">
            <path d="M105.23,10.78a15.55,15.55,0,1,1,11.21,26.33H6" fill="none" stroke-linecap="round" stroke-miterlimit="10" stroke-width="12" stroke="url(#a)"/>
            <path d="M60.67,85.22A15.55,15.55,0,1,0,71.89,58.89H6.56" fill="none" stroke-linecap="round" stroke-miterlimit="10" stroke-width="12" stroke="url(#b)"/>
        </symbol>
    </defs>
    <path d="M378.26,162.69c.67-6.91-.19-12.55-1.95-12.74l-1.39-.14c-1.76-.19-3.77,5.15-4.55,12.05L355.08,297c-.82,7.22,0,13.35,1.86,13.54l3.55.37c1.83.2,3.93-5.63,4.63-12.85Z" stroke="#744e2d" stroke-linecap="round" stroke-linejoin="round" stroke-width="4" fill="url(#c)"/>
    <path d="M427.78,167.4c2.47-23.51-15.78-44.69-40.75-47.32-16.83-1.76-32.38,5.36-41.52,17.37-.74-.13-1.43-.36-2.18-.44-18.73-2-35.42,10.73-37.27,28.36-1.53,14.53,7.58,27.75,21.3,33.1a20.24,20.24,0,0,0-2.79,8.29c-1.23,11.75,7.89,22.35,20.38,23.66a23.39,23.39,0,0,0,15.35-3.75,34.7,34.7,0,0,0,25.36,15.2c18.73,2,35.42-10.73,37.27-28.36a30.8,30.8,0,0,0-6.45-22A40.91,40.91,0,0,0,427.78,167.4Z" stroke="#40c057" stroke-linecap="round" stroke-miterlimit="10" stroke-width="4" fill="url(#d)"/>
    <path d="M245.68,309.62c-13.79,0-26.33-14.73-32.8-27a2.88,2.88,0,0,0-5.13,0c-6.47,12.29-19,27-32.8,27s-26.33-14.73-32.81-27a2.87,2.87,0,0,0-5.12,0c-6.48,12.29-19,27-32.81,27H94.11v62a20.38,20.38,0,0,0,20.16,20.59H245.68Z" stroke="#2885c7" stroke-linecap="round" stroke-linejoin="round" stroke-width="4" fill="url(#e)"/>
    <path d="M402.31,369.75v-66.3c0-12.38-8.87-22.42-19.81-22.42H319.92c-49.21,0-94.23,31.35-116.4,81.08L190.1,392.18H382.49C393.44,392.18,402.31,382.14,402.31,369.75Z" stroke="#f8af18" stroke-miterlimit="10" stroke-width="4" fill="url(#f)"/>
    <use width="138" height="96" transform="translate(99 146)" xlink:href="#g"/>
</svg>
