<svg xmlns="http://www.w3.org/2000/svg" xmlns:xlink="http://www.w3.org/1999/xlink" viewBox="0 0 512 512">
    <defs>
        <linearGradient id="a" x1="138.48" y1="5.12" x2="224.17" y2="153.53" gradientUnits="userSpaceOnUse">
            <stop offset="0" stop-color="#d4d7dd"/>
            <stop offset="0.45" stop-color="#d4d7dd"/>
            <stop offset="1" stop-color="#bec1c6"/>
        </linearGradient>
        <linearGradient id="b" x1="77.66" y1="96.23" x2="168.99" y2="254.41" xlink:href="#a"/>
        <symbol id="c" viewBox="0 0 348 240">
            <path d="M267.16,24.29A40,40,0,1,1,296,92H12" fill="none" stroke-linecap="round" stroke-miterlimit="10" stroke-width="24" stroke="url(#a)"/>
            <path d="M151.16,215.71A40,40,0,1,0,180,148H12" fill="none" stroke-linecap="round" stroke-miterlimit="10" stroke-width="24" stroke="url(#b)"/>
        </symbol>
    </defs>
    <use width="348" height="240" transform="translate(82 136)" xlink:href="#c"/>
    <path d="M367.48,344.41H348.57v-45h-17.8V286.77h3q7.79,0,12.34-3.34,4.25-3.14,5.56-10.21l.2-.81h15.58Z" fill="#374251"/>
    <path d="M437.23,343.59h-55.7q0-9.37,4.05-15.7,4-6.12,14.81-13.53l10.87-7.71a22.19,22.19,0,0,0,5.87-5.43,10.19,10.19,0,0,0,1.73-5.82,8.72,8.72,0,0,0-2.57-6.67,9.82,9.82,0,0,0-7-2.42q-10.08,0-10.07,11.75v1.48h-16.7v-2.17q0-12.15,7.11-19t20.15-6.82q12.45,0,19.76,6t7.4,16.69a22.19,22.19,0,0,1-3.5,12.25q-3.51,5.43-11.21,10.37l-12.15,7.7c-2.31,1.51-3.56,2.8-3.75,3.85h30.91Z" fill="#374251"/>
</svg>
