<svg xmlns="http://www.w3.org/2000/svg" xmlns:xlink="http://www.w3.org/1999/xlink" viewBox="0 0 64 64">
	<defs>
		<linearGradient id="a" x1="39.16" y1="13.39" x2="46.16" y2="25.51" gradientTransform="translate(-1.39 11.73) rotate(-6)" gradientUnits="userSpaceOnUse">
			<stop offset="0" stop-color="#875b34"/>
			<stop offset="0.45" stop-color="#875b34"/>
			<stop offset="1" stop-color="#624226"/>
		</linearGradient>
		<linearGradient id="b" x1="40.02" y1="9.55" x2="46.09" y2="20.06" gradientTransform="translate(-1.39 11.73) rotate(-6)" gradientUnits="userSpaceOnUse">
			<stop offset="0" stop-color="#51cf66"/>
			<stop offset="0.45" stop-color="#51cf66"/>
			<stop offset="1" stop-color="#37b24d"/>
		</linearGradient>
		<linearGradient id="c" x1="21.06" y1="31.71" x2="28.46" y2="44.54" gradientUnits="userSpaceOnUse">
			<stop offset="0" stop-color="#3392d6"/>
			<stop offset="0.45" stop-color="#3392d6"/>
			<stop offset="1" stop-color="#2477b2"/>
		</linearGradient>
		<linearGradient id="d" x1="34.09" y1="32.74" x2="41.3" y2="45.22" gradientUnits="userSpaceOnUse">
			<stop offset="0" stop-color="#fbbf24"/>
			<stop offset="0.45" stop-color="#fbbf24"/>
			<stop offset="1" stop-color="#f59e0b"/>
		</linearGradient>
		<linearGradient id="e" x1="28.92" y1="13.85" x2="21.9" y2="26" gradientTransform="matrix(-1, 0, 0, 1, 50, 0)" gradientUnits="userSpaceOnUse">
			<stop offset="0" stop-color="#d4d7dd"/>
			<stop offset="0.45" stop-color="#d4d7dd"/>
			<stop offset="1" stop-color="#bec1c6"/>
		</linearGradient>
		<linearGradient id="f" x1="23.93" y1="22.24" x2="20.44" y2="28.28" xlink:href="#e"/>
	</defs>
	<path d="M42.78,19.79c-.08-.68-.27-1.21-.45-1.19h-.14c-.17,0-.26.58-.19,1.26l1.3,13.4c.07.71.28,1.29.46,1.27l.35,0c.18,0,.27-.62.18-1.34Z" stroke="#744e2d" stroke-linecap="round" stroke-linejoin="round" stroke-width="0.5" fill="url(#a)"/>
	<path d="M47.67,19.23a4.36,4.36,0,0,0-4.92-3.74A4.54,4.54,0,0,0,39.09,18h-.22a3.27,3.27,0,0,0-3,3.51,3.18,3.18,0,0,0,2.74,2.76,2.06,2.06,0,0,0-.1.86A2.18,2.18,0,0,0,41,27a2.3,2.3,0,0,0,1.41-.68,3.4,3.4,0,0,0,2.77.95,3.27,3.27,0,0,0,3-3.51,3,3,0,0,0-1.08-2A4,4,0,0,0,47.67,19.23Z" stroke="#40c057" stroke-linecap="round" stroke-miterlimit="10" stroke-width="0.5" fill="url(#b)"/>
	<path d="M32,34.33c-1.36,0-2.61-1.46-3.25-2.67a.28.28,0,0,0-.5,0c-.64,1.21-1.89,2.67-3.25,2.67s-2.61-1.46-3.25-2.67a.28.28,0,0,0-.5,0c-.64,1.21-1.89,2.67-3.25,2.67H17v6.13a2,2,0,0,0,2,2H32Z" stroke="#2885c7" stroke-linecap="round" stroke-linejoin="round" stroke-width="0.5" fill="url(#c)"/>
	<path d="M47.5,40.28V33.72a2.1,2.1,0,0,0-2-2.22H39.35c-4.87,0-9.33,3.1-11.52,8l-1.33,3h19A2.1,2.1,0,0,0,47.5,40.28Z" stroke="#f8af18" stroke-miterlimit="10" stroke-width="0.5" fill="url(#d)"/>
	<path d="M19.82,17.68a2.22,2.22,0,1,0-1.6,3.76H34" fill="none" stroke-linecap="round" stroke-miterlimit="10" stroke-width="2" stroke="url(#e)"/>
	<path d="M26.27,28.32a2.22,2.22,0,1,1-1.6-3.76H34" fill="none" stroke-linecap="round" stroke-miterlimit="10" stroke-width="2" stroke="url(#f)"/>
</svg>
