<svg xmlns="http://www.w3.org/2000/svg" xmlns:xlink="http://www.w3.org/1999/xlink" viewBox="0 0 512 512">
    <defs>
        <linearGradient id="a" x1="99.45" y1="30.68" x2="232.64" y2="261.37" gradientUnits="userSpaceOnUse">
            <stop offset="0" stop-color="#f3f7fe"/>
            <stop offset="0.45" stop-color="#f3f7fe"/>
            <stop offset="1" stop-color="#deeafb"/>
        </linearGradient>
        <linearGradient id="b" x1="1391.92" y1="-1146.86" x2="1401.38" y2="-1122.22" gradientTransform="translate(-1193.48 1353.56) rotate(-9)" gradientUnits="userSpaceOnUse">
            <stop offset="0" stop-color="#0b65ed"/>
            <stop offset="0.45" stop-color="#0a5ad4"/>
            <stop offset="1" stop-color="#0950bc"/>
        </linearGradient>
        <linearGradient id="c" x1="1434.72" y1="-1059.09" x2="1444.18" y2="-1034.44" xlink:href="#b"/>
        <linearGradient id="d" x1="1497.85" y1="-1099.71" x2="1507.31" y2="-1075.07" xlink:href="#b"/>
        <symbol id="e" viewBox="0 0 350 222">
            <path d="M291,107c-.85,0-1.68.09-2.53.13A83.9,83.9,0,0,0,135.6,42.92,55.91,55.91,0,0,0,51,91a56.56,56.56,0,0,0,.8,9.08A60,60,0,0,0,63,219c1.35,0,2.67-.11,4-.2v.2H291a56,56,0,0,0,0-112Z" stroke="#e6effc" stroke-miterlimit="10" stroke-width="6" fill="url(#a)"/>
        </symbol>
        <symbol id="f" viewBox="0 0 129 109">
            <path d="M8.5,28.5a8,8,0,0,1-8-8V8.5a8,8,0,0,1,16,0v12A8,8,0,0,1,8.5,28.5Z" stroke="#0a5ad4" stroke-miterlimit="10" fill="url(#b)"/>
            <path d="M64.5,108.5a8,8,0,0,1-8-8v-12a8,8,0,0,1,16,0v12A8,8,0,0,1,64.5,108.5Z" stroke="#0a5ad4" stroke-miterlimit="10" fill="url(#c)"/>
            <path d="M120.5,58.5a8,8,0,0,1-8-8v-12a8,8,0,0,1,16,0v12A8,8,0,0,1,120.5,58.5Z" stroke="#0a5ad4" stroke-miterlimit="10" fill="url(#d)"/>
        </symbol>
    </defs>
    <use width="350" height="222" transform="translate(81 145)" xlink:href="#e"/>
    <use width="129" height="109" transform="translate(191.5 347.5)" xlink:href="#f"/>
</svg>
