<svg xmlns="http://www.w3.org/2000/svg" xmlns:xlink="http://www.w3.org/1999/xlink" viewBox="0 0 512 512">
    <defs>
        <linearGradient id="a" x1="17.25" y1="43.11" x2="89.25" y2="167.82" gradientUnits="userSpaceOnUse">
            <stop offset="0" stop-color="#d4d7dd"/>
            <stop offset="0.45" stop-color="#d4d7dd"/>
            <stop offset="1" stop-color="#bec1c6"/>
        </linearGradient>
        <linearGradient id="b" x1="107.25" y1="-8.85" x2="179.25" y2="115.86" xlink:href="#a"/>
        <linearGradient id="c" x1="174.75" y1="-47.82" x2="246.75" y2="76.89" xlink:href="#a"/>
        <linearGradient id="d" y1="-4.89" x2="89.25" y2="119.82" xlink:href="#a"/>
        <linearGradient id="e" x1="107.25" y1="-56.85" x2="179.25" y2="67.86" xlink:href="#a"/>
        <linearGradient id="f" x1="174.75" y1="-95.82" x2="246.75" y2="28.89" xlink:href="#a"/>
        <linearGradient id="g" x1="149.99" y1="119.24" x2="234.01" y2="264.76" gradientUnits="userSpaceOnUse">
            <stop offset="0" stop-color="#fbbf24"/>
            <stop offset="0.45" stop-color="#fbbf24"/>
            <stop offset="1" stop-color="#f59e0b"/>
        </linearGradient>
        <clipPath id="h">
            <rect width="512" height="306" fill="none"/>
        </clipPath>
        <symbol id="i" viewBox="0 0 384 384">
            <circle cx="192" cy="192" r="84" stroke="#f8af18" stroke-miterlimit="10" stroke-width="6" fill="url(#g)"/>
            <path d="M192,61.66V12m0,360V322.34M284.17,99.83l35.11-35.11M64.72,319.28l35.11-35.11m0-184.34L64.72,64.72M319.28,319.28l-35.11-35.11M61.66,192H12m360,0H322.34" fill="none" stroke="#fbbf24" stroke-linecap="round" stroke-miterlimit="10" stroke-width="24"/>
        </symbol>
        <symbol id="j" viewBox="0 0 264 72">
            <line x1="12" y1="60" x2="42" y2="60" fill="none" stroke-linecap="round" stroke-miterlimit="10" stroke-width="24" stroke="url(#a)"/>
            <line x1="102" y1="60" x2="192" y2="60" fill="none" stroke-linecap="round" stroke-miterlimit="10" stroke-width="24" stroke-dasharray="60 60" stroke="url(#b)"/>
            <line x1="222" y1="60" x2="252" y2="60" fill="none" stroke-linecap="round" stroke-miterlimit="10" stroke-width="24" stroke="url(#c)"/>
            <line x1="12" y1="12" x2="42" y2="12" fill="none" stroke-linecap="round" stroke-miterlimit="10" stroke-width="24" stroke="url(#d)"/>
            <line x1="102" y1="12" x2="192" y2="12" fill="none" stroke-linecap="round" stroke-miterlimit="10" stroke-width="24" stroke-dasharray="60 60" stroke="url(#e)"/>
            <line x1="222" y1="12" x2="252" y2="12" fill="none" stroke-linecap="round" stroke-miterlimit="10" stroke-width="24" stroke="url(#f)"/>
        </symbol>
    </defs>
    <g clip-path="url(#h)">
        <use width="384" height="384" transform="translate(64 100)" xlink:href="#i"/>
    </g>
    <use width="264" height="72" transform="translate(124 336)" xlink:href="#j"/>
</svg>
