<svg xmlns="http://www.w3.org/2000/svg" viewBox="0 0 512 512">
    <path d="M293.51,213a7.67,7.67,0,0,1-5.31-2.09L256,180.24,223.8,210.91a7.76,7.76,0,0,1-10.6,0,6.9,6.9,0,0,1,0-10.1l37.5-35.72a7.76,7.76,0,0,1,10.6,0l37.5,35.72a6.9,6.9,0,0,1,0,10.1A7.66,7.66,0,0,1,293.51,213Z" fill="#e34647"/>
    <path d="M293.51,258a7.67,7.67,0,0,1-5.31-2.09L256,225.24,223.8,255.91a7.76,7.76,0,0,1-10.6,0,6.9,6.9,0,0,1,0-10.1l37.5-35.72a7.76,7.76,0,0,1,10.6,0l37.5,35.72a6.9,6.9,0,0,1,0,10.1A7.66,7.66,0,0,1,293.51,258Z" fill="#e34647"/>
    <path d="M293.51,303a7.67,7.67,0,0,1-5.31-2.09L256,270.24,223.8,300.91a7.76,7.76,0,0,1-10.6,0,6.9,6.9,0,0,1,0-10.1l37.5-35.72a7.76,7.76,0,0,1,10.6,0l37.5,35.72a6.9,6.9,0,0,1,0,10.1A7.66,7.66,0,0,1,293.51,303Z" fill="#e34647"/>
    <path d="M293.51,348a7.67,7.67,0,0,1-5.31-2.09L256,315.24,223.8,345.91a7.76,7.76,0,0,1-10.6,0,6.9,6.9,0,0,1,0-10.1l37.5-35.72a7.76,7.76,0,0,1,10.6,0l37.5,35.72a6.9,6.9,0,0,1,0,10.1A7.66,7.66,0,0,1,293.51,348Z" fill="#e34647"/>
</svg>
