<svg xmlns="http://www.w3.org/2000/svg" xmlns:xlink="http://www.w3.org/1999/xlink" viewBox="0 0 512 512">
    <defs>
        <linearGradient id="a" x1="99.45" y1="30.68" x2="232.64" y2="261.37" gradientUnits="userSpaceOnUse">
            <stop offset="0" stop-color="#f3f7fe"/>
            <stop offset="0.45" stop-color="#f3f7fe"/>
            <stop offset="1" stop-color="#deeafb"/>
        </linearGradient>
        <linearGradient id="b" x1="52.74" y1="9.62" x2="133.36" y2="149.27" gradientUnits="userSpaceOnUse">
            <stop offset="0" stop-color="#9ca3af"/>
            <stop offset="0.45" stop-color="#9ca3af"/>
            <stop offset="1" stop-color="#6b7280"/>
        </linearGradient>
        <linearGradient id="c" x1="8.67" y1="17.07" x2="80.88" y2="142.14" gradientUnits="userSpaceOnUse">
            <stop offset="0" stop-color="#f7b23b"/>
            <stop offset="0.45" stop-color="#f7b23b"/>
            <stop offset="1" stop-color="#f59e0b"/>
        </linearGradient>
        <linearGradient id="d" x1="1381.32" y1="-1144.67" x2="1399.47" y2="-1097.39" gradientTransform="translate(-1189.41 1353.24) rotate(-9)" gradientUnits="userSpaceOnUse">
            <stop offset="0" stop-color="#0b65ed"/>
            <stop offset="0.45" stop-color="#0a5ad4"/>
            <stop offset="1" stop-color="#0950bc"/>
        </linearGradient>
        <linearGradient id="e" x1="1428.42" y1="-1084.66" x2="1446.57" y2="-1037.37" gradientTransform="translate(-1189.32 1354.33) rotate(-9)" xlink:href="#d"/>
        <linearGradient id="f" x1="1489.3" y1="-1111.57" x2="1507.45" y2="-1064.28" gradientTransform="translate(-1189.24 1355.43) rotate(-9)" xlink:href="#d"/>
        <linearGradient id="g" x1="78" y1="63.35" x2="118" y2="132.65" gradientUnits="userSpaceOnUse">
            <stop offset="0" stop-color="#fbbf24"/>
            <stop offset="0.45" stop-color="#fbbf24"/>
            <stop offset="1" stop-color="#f59e0b"/>
        </linearGradient>
        <symbol id="i" viewBox="0 0 196 196">
            <circle cx="98" cy="98" r="40" stroke="#f8af18" stroke-miterlimit="10" stroke-width="4" fill="url(#g)"/>
            <path d="M98,31.38V6m0,184V164.62M145.11,50.89,163.05,33M33,163.05l17.94-17.94m0-94.22L33,33m130.1,130.1-17.94-17.94M6,98H31.38M190,98H164.62" fill="none" stroke="#fbbf24" stroke-linecap="round" stroke-miterlimit="10" stroke-width="12"/>
        </symbol>
        <symbol id="k" viewBox="0 0 200.26 126.12">
            <path d="M.5,93.18a32.44,32.44,0,0,0,32.44,32.44H162.69v-.12c.77,0,1.53.12,2.31.12a34.75,34.75,0,0,0,6.49-68.89A32.38,32.38,0,0,0,123,23.62,48.58,48.58,0,0,0,34.4,60.81c-.49,0-1-.07-1.46-.07A32.44,32.44,0,0,0,.5,93.18Z" stroke="#848b98" stroke-miterlimit="10" fill="url(#b)"/>
        </symbol>
        <symbol id="l" viewBox="0 0 350 222">
            <path d="M291,107c-.85,0-1.68.09-2.53.13A83.9,83.9,0,0,0,135.6,42.92,55.91,55.91,0,0,0,51,91a56.56,56.56,0,0,0,.8,9.08A60,60,0,0,0,63,219c1.35,0,2.67-.11,4-.2v.2H291a56,56,0,0,0,0-112Z" stroke="#e6effc" stroke-miterlimit="10" stroke-width="6" fill="url(#a)"/>
        </symbol>
        <symbol id="j" viewBox="0 0 398 222">
            <use width="200.26" height="126.12" transform="translate(198 27)" xlink:href="#k"/>
            <use width="350" height="222" xlink:href="#l"/>
        </symbol>
        <symbol id="h" viewBox="0 0 410.84 258">
            <use width="196" height="196" xlink:href="#i"/>
            <use width="398" height="222" transform="translate(12.84 36)" xlink:href="#j"/>
        </symbol>
        <symbol id="m" viewBox="0 0 129 110">
            <path d="M8.5,56.5a8,8,0,0,1-8-8V8.5a8,8,0,0,1,16,0v40A8,8,0,0,1,8.5,56.5Z" stroke="#0a5ad4" stroke-miterlimit="10" fill="url(#d)"/>
            <path d="M64.5,109.5a8,8,0,0,1-8-8v-40a8,8,0,0,1,16,0v40A8,8,0,0,1,64.5,109.5Z" stroke="#0a5ad4" stroke-miterlimit="10" fill="url(#e)"/>
            <path d="M120.5,74.5a8,8,0,0,1-8-8v-40a8,8,0,0,1,16,0v40A8,8,0,0,1,120.5,74.5Z" stroke="#0a5ad4" stroke-miterlimit="10" fill="url(#f)"/>
        </symbol>
        <symbol id="n" viewBox="0 0 102.66 186.75">
            <polygon points="34.77 2 2.77 98 34.77 98 18.77 178 98.78 66 50.77 66 82.78 2 34.77 2" stroke="#f6a823" stroke-miterlimit="10" stroke-width="4" fill="url(#c)"/>
        </symbol>
    </defs>
    <use width="410.84" height="258" transform="translate(56 109)" xlink:href="#h"/>
    <use width="129" height="110" transform="translate(191.5 343.5)" xlink:href="#m"/>
    <use width="102.66" height="186.74" transform="translate(205.23 291)" xlink:href="#n"/>
</svg>
