<svg xmlns="http://www.w3.org/2000/svg" xmlns:xlink="http://www.w3.org/1999/xlink" viewBox="0 0 512 512">
    <defs>
        <linearGradient id="a" x1="34.67" y1="18.56" x2="119.21" y2="164.99" gradientUnits="userSpaceOnUse">
            <stop offset="0" stop-color="#86c3db"/>
            <stop offset="0.45" stop-color="#86c3db"/>
            <stop offset="1" stop-color="#5eafcf"/>
        </linearGradient>
        <linearGradient id="b" x1="-7.17" y1="36.31" x2="116.44" y2="250.4" gradientUnits="userSpaceOnUse">
            <stop offset="0" stop-color="#515a69" stop-opacity="0.05"/>
            <stop offset="0.45" stop-color="#6b7280" stop-opacity="0.05"/>
            <stop offset="1" stop-color="#384354" stop-opacity="0.1"/>
        </linearGradient>
        <linearGradient id="c" x1="-8.67" y1="33.71" x2="117.94" y2="253" gradientUnits="userSpaceOnUse">
            <stop offset="0" stop-color="#d4d7dd"/>
            <stop offset="0.45" stop-color="#d4d7dd"/>
            <stop offset="1" stop-color="#bec1c6"/>
        </linearGradient>
        <clipPath id="d">
            <path d="M256,392c30.93,0,56-25.45,56-56.84a57,57,0,0,0-24-46.6V152.48A32.24,32.24,0,0,0,256,120V79.74H423.17V392Zm4-192h28m-28-32h28m-28,64h28" fill="none"/>
        </clipPath>
        <symbol id="e" viewBox="0 0 172 172">
            <path d="M160.62,107.4c-47.17,0-85.41-37.73-85.41-84.26A83.31,83.31,0,0,1,78,2C35.27,6.61,2,42.33,2,85.73,2,132.27,40.24,170,87.41,170A85.16,85.16,0,0,0,170,106.87,88,88,0,0,1,160.62,107.4Z" stroke="#72b9d5" stroke-linecap="round" stroke-linejoin="round" stroke-width="4" fill="url(#a)"/>
        </symbol>
        <symbol id="g" viewBox="0 0 72 168">
            <circle cx="36" cy="132" r="36" fill="#ef4444"/>
            <path d="M36,12V132" fill="none" stroke="#ef4444" stroke-linecap="round" stroke-miterlimit="10" stroke-width="24"/>
        </symbol>
        <symbol id="h" viewBox="0 0 118 278">
            <path d="M115,218.16C115,249.55,89.93,275,59,275S3,249.55,3,218.16a57,57,0,0,1,24-46.6V35.48a32,32,0,1,1,64,0V171.56A57,57,0,0,1,115,218.16ZM63,83H91M63,51H91M63,115H91" stroke-linecap="round" stroke-linejoin="round" stroke-width="6" fill="url(#b)" stroke="url(#c)"/>
        </symbol>
        <symbol id="f" viewBox="0 0 118 278">
            <use width="72" height="168" transform="translate(23 87)" xlink:href="#g"/>
            <use width="118" height="278" xlink:href="#h"/>
        </symbol>
    </defs>
    <g clip-path="url(#d)">
        <use width="172" height="172" transform="translate(228 120)" xlink:href="#e"/>
    </g>
    <use width="118" height="278" transform="translate(197 117)" xlink:href="#f"/>
</svg>
