<svg xmlns="http://www.w3.org/2000/svg" xmlns:xlink="http://www.w3.org/1999/xlink" viewBox="0 0 512 512">
    <defs>
        <linearGradient id="a" x1="99.45" y1="30.68" x2="232.64" y2="261.37" gradientUnits="userSpaceOnUse">
            <stop offset="0" stop-color="#f3f7fe"/>
            <stop offset="0.45" stop-color="#f3f7fe"/>
            <stop offset="1" stop-color="#deeafb"/>
        </linearGradient>
        <linearGradient id="b" x1="8.67" y1="17.07" x2="80.88" y2="142.14" gradientUnits="userSpaceOnUse">
            <stop offset="0" stop-color="#f7b23b"/>
            <stop offset="0.45" stop-color="#f7b23b"/>
            <stop offset="1" stop-color="#f59e0b"/>
        </linearGradient>
        <linearGradient id="c" x1="34.67" y1="18.56" x2="119.21" y2="164.99" gradientUnits="userSpaceOnUse">
            <stop offset="0" stop-color="#86c3db"/>
            <stop offset="0.45" stop-color="#86c3db"/>
            <stop offset="1" stop-color="#5eafcf"/>
        </linearGradient>
        <linearGradient id="d" x1="1381.32" y1="-1144.67" x2="1399.47" y2="-1097.39" gradientTransform="translate(-1189.41 1353.24) rotate(-9)" gradientUnits="userSpaceOnUse">
            <stop offset="0" stop-color="#0b65ed"/>
            <stop offset="0.45" stop-color="#0a5ad4"/>
            <stop offset="1" stop-color="#0950bc"/>
        </linearGradient>
        <linearGradient id="e" x1="1428.42" y1="-1084.66" x2="1446.57" y2="-1037.37" gradientTransform="translate(-1189.32 1354.33) rotate(-9)" xlink:href="#d"/>
        <linearGradient id="f" x1="1489.3" y1="-1111.57" x2="1507.45" y2="-1064.28" gradientTransform="translate(-1189.24 1355.43) rotate(-9)" xlink:href="#d"/>
        <symbol id="h" viewBox="0 0 172 172">
            <path d="M160.62,107.4c-47.17,0-85.41-37.73-85.41-84.26A83.31,83.31,0,0,1,78,2C35.27,6.61,2,42.33,2,85.73,2,132.27,40.24,170,87.41,170A85.16,85.16,0,0,0,170,106.87,88,88,0,0,1,160.62,107.4Z" stroke="#72b9d5" stroke-linecap="round" stroke-linejoin="round" stroke-width="4" fill="url(#c)"/>
        </symbol>
        <symbol id="i" viewBox="0 0 350 222">
            <path d="M291,107c-.85,0-1.68.09-2.53.13A83.9,83.9,0,0,0,135.6,42.92,55.91,55.91,0,0,0,51,91a56.56,56.56,0,0,0,.8,9.08A60,60,0,0,0,63,219c1.35,0,2.67-.11,4-.2v.2H291a56,56,0,0,0,0-112Z" stroke="#e6effc" stroke-miterlimit="10" stroke-width="6" fill="url(#a)"/>
        </symbol>
        <symbol id="g" viewBox="0 0 351 246">
            <use width="172" height="172" xlink:href="#h"/>
            <use width="350" height="222" transform="translate(1 24)" xlink:href="#i"/>
        </symbol>
        <symbol id="j" viewBox="0 0 129 110">
            <path d="M8.5,56.5a8,8,0,0,1-8-8V8.5a8,8,0,0,1,16,0v40A8,8,0,0,1,8.5,56.5Z" stroke="#0a5ad4" stroke-miterlimit="10" fill="url(#d)"/>
            <path d="M64.5,109.5a8,8,0,0,1-8-8v-40a8,8,0,0,1,16,0v40A8,8,0,0,1,64.5,109.5Z" stroke="#0a5ad4" stroke-miterlimit="10" fill="url(#e)"/>
            <path d="M120.5,74.5a8,8,0,0,1-8-8v-40a8,8,0,0,1,16,0v40A8,8,0,0,1,120.5,74.5Z" stroke="#0a5ad4" stroke-miterlimit="10" fill="url(#f)"/>
        </symbol>
        <symbol id="k" viewBox="0 0 102.66 186.75">
            <polygon points="34.77 2 2.77 98 34.77 98 18.77 178 98.78 66 50.77 66 82.78 2 34.77 2" stroke="#f6a823" stroke-miterlimit="10" stroke-width="4" fill="url(#b)"/>
        </symbol>
    </defs>
    <use width="351" height="246" transform="translate(80 121)" xlink:href="#g"/>
    <use width="129" height="110" transform="translate(191.5 343.5)" xlink:href="#j"/>
    <use width="102.66" height="186.74" transform="translate(205.23 291)" xlink:href="#k"/>
</svg>
