<svg xmlns="http://www.w3.org/2000/svg" xmlns:xlink="http://www.w3.org/1999/xlink" viewBox="0 0 64 64"><defs><clipPath id="a"><rect y="6" width="64" height="36" fill="none"/></clipPath></defs><title>weather-icons</title><g clip-path="url(#a)"><path d="M32,33.36A8.64,8.64,0,1,1,23.36,42,8.66,8.66,0,0,1,32,33.36m0-3A11.64,11.64,0,1,0,43.64,42,11.64,11.64,0,0,0,32,30.36Z" fill="#f4a71d"/><line x1="32" y1="25.71" x2="32" y2="19.5" fill="none" stroke="#f4a71d" stroke-linecap="round" stroke-miterlimit="10" stroke-width="3"/><line x1="32" y1="64.5" x2="32" y2="58.29" fill="none" stroke="#f4a71d" stroke-linecap="round" stroke-miterlimit="10" stroke-width="3"/><line x1="43.52" y1="30.48" x2="47.91" y2="26.09" fill="none" stroke="#f4a71d" stroke-linecap="round" stroke-miterlimit="10" stroke-width="3"/><line x1="16.09" y1="57.91" x2="20.48" y2="53.52" fill="none" stroke="#f4a71d" stroke-linecap="round" stroke-miterlimit="10" stroke-width="3"/><line x1="20.48" y1="30.48" x2="16.09" y2="26.09" fill="none" stroke="#f4a71d" stroke-linecap="round" stroke-miterlimit="10" stroke-width="3"/><line x1="47.91" y1="57.91" x2="43.52" y2="53.52" fill="none" stroke="#f4a71d" stroke-linecap="round" stroke-miterlimit="10" stroke-width="3"/><line x1="15.71" y1="42" x2="9.5" y2="42" fill="none" stroke="#f4a71d" stroke-linecap="round" stroke-miterlimit="10" stroke-width="3"/><line x1="54.5" y1="42" x2="48.29" y2="42" fill="none" stroke="#f4a71d" stroke-linecap="round" stroke-miterlimit="10" stroke-width="3"/></g><line x1="12.5" y1="45" x2="51.5" y2="45" fill="none" stroke="#2885c7" stroke-linecap="round" stroke-miterlimit="10" stroke-width="2"/><line x1="15.5" y1="49" x2="48.5" y2="49" fill="none" stroke="#2885c7" stroke-linecap="round" stroke-miterlimit="10" stroke-width="2"/></svg>