<svg xmlns="http://www.w3.org/2000/svg" xmlns:xlink="http://www.w3.org/1999/xlink" viewBox="0 0 64 64"><defs><clipPath id="a"><polygon points="12.55 35.21 8.72 31.79 6.72 25.79 7.72 18.79 11.72 13.79 16.72 10.79 22.72 10.79 27.72 11.79 30.72 14.79 33.28 19.15 28.72 23.79 23.72 23.79 18.72 28.79 18.72 31.79 12.55 35.21" fill="none"/></clipPath></defs><title>weather-icons</title><g clip-path="url(#a)"><path d="M31.42,27c-6.34,0-13.34-5-10.14-13.19h0A11.5,11.5,0,1,0,32.69,27,7.48,7.48,0,0,0,31.42,27Zm-10,8.1a9.86,9.86,0,0,1-9.87-9.87,10.11,10.11,0,0,1,7.33-9.54v.05c-1,6.9,3.92,12.69,11.42,13.35h0C28.39,32.82,25.74,34.92,21.44,35.08Z" fill="#72b8d4"/></g><path d="M48.91,31.67a15.89,15.89,0,0,0,.17-2.06,11.45,11.45,0,0,0-20.61-6.85c-.14.18-.27.36-.39.53a8.23,8.23,0,0,0-3.16-.68,8,8,0,0,0-6.9,4,7.81,7.81,0,0,0-1,3.9v.26l-.09,0A8.71,8.71,0,0,0,19.71,47.8h28.1A8.29,8.29,0,0,0,56,39.69,8.1,8.1,0,0,0,48.91,31.67ZM47.72,45.49H19.62a6.39,6.39,0,0,1-6.4-6.4,6.49,6.49,0,0,1,5.2-6.32l1.12-.17-.17-1.1a3.74,3.74,0,0,1-.09-.95,5.11,5.11,0,0,1,.3-1.75,5.69,5.69,0,0,1,5.34-3.88,5.07,5.07,0,0,1,2.9.85l.7.41.33.19.59-1.11a9.16,9.16,0,0,1,17.25,4.27,11.07,11.07,0,0,1-.42,2.82L45.75,34l1.71-.08h.26a5.8,5.8,0,1,1,0,11.6Z" fill="#efefef"/></svg>