<svg xmlns="http://www.w3.org/2000/svg" xmlns:xlink="http://www.w3.org/1999/xlink" viewBox="0 0 64 64"><defs><clipPath id="a"><rect y="5" width="64" height="36" fill="none"/></clipPath></defs><title>weather-icons</title><g clip-path="url(#a)"><path d="M32,28.36A8.64,8.64,0,1,1,23.36,37,8.66,8.66,0,0,1,32,28.36m0-3A11.64,11.64,0,1,0,43.64,37,11.64,11.64,0,0,0,32,25.36Z" fill="#f4a71d"/><line x1="32" y1="20.71" x2="32" y2="14.5" fill="none" stroke="#f4a71d" stroke-linecap="round" stroke-miterlimit="10" stroke-width="3"/><line x1="32" y1="59.5" x2="32" y2="53.29" fill="none" stroke="#f4a71d" stroke-linecap="round" stroke-miterlimit="10" stroke-width="3"/><line x1="43.52" y1="25.48" x2="47.91" y2="21.09" fill="none" stroke="#f4a71d" stroke-linecap="round" stroke-miterlimit="10" stroke-width="3"/><line x1="16.09" y1="52.91" x2="20.48" y2="48.52" fill="none" stroke="#f4a71d" stroke-linecap="round" stroke-miterlimit="10" stroke-width="3"/><line x1="20.48" y1="25.48" x2="16.09" y2="21.09" fill="none" stroke="#f4a71d" stroke-linecap="round" stroke-miterlimit="10" stroke-width="3"/><line x1="47.91" y1="52.91" x2="43.52" y2="48.52" fill="none" stroke="#f4a71d" stroke-linecap="round" stroke-miterlimit="10" stroke-width="3"/><line x1="15.71" y1="37" x2="9.5" y2="37" fill="none" stroke="#f4a71d" stroke-linecap="round" stroke-miterlimit="10" stroke-width="3"/><line x1="54.5" y1="37" x2="48.29" y2="37" fill="none" stroke="#f4a71d" stroke-linecap="round" stroke-miterlimit="10" stroke-width="3"/></g><line x1="32" y1="33.5" x2="32" y2="40.5" fill="none" stroke="#222325" stroke-linecap="round" stroke-miterlimit="10"/><line x1="35" y1="37" x2="32" y2="40.5" fill="none" stroke="#222325" stroke-linecap="round" stroke-miterlimit="10"/><line x1="29" y1="37" x2="32" y2="40.5" fill="none" stroke="#222325" stroke-linecap="round" stroke-miterlimit="10"/><line x1="10.5" y1="45" x2="53.5" y2="45" fill="none" stroke="#8bc24a" stroke-linecap="round" stroke-miterlimit="10" stroke-width="3"/></svg>