<svg xmlns="http://www.w3.org/2000/svg" viewBox="0 0 64 64">
	<g>
		<path d="M32,21A11,11,0,1,1,21,32,11,11,0,0,1,32,21m0-4A15,15,0,1,0,47,32,15,15,0,0,0,32,17Z" fill="#f4a71d"/>
		<line x1="32" y1="11" x2="32" y2="3" fill="none" stroke="#f4a71d" stroke-linecap="round" stroke-miterlimit="10" stroke-width="4"/>
		<line x1="32" y1="61" x2="32" y2="53" fill="none" stroke="#f4a71d" stroke-linecap="round" stroke-miterlimit="10" stroke-width="4"/>
		<line x1="46.85" y1="17.15" x2="52.51" y2="11.49" fill="none" stroke="#f4a71d" stroke-linecap="round" stroke-miterlimit="10" stroke-width="4"/>
		<line x1="11.49" y1="52.51" x2="17.15" y2="46.85" fill="none" stroke="#f4a71d" stroke-linecap="round" stroke-miterlimit="10" stroke-width="4"/>
		<line x1="17.15" y1="17.15" x2="11.49" y2="11.49" fill="none" stroke="#f4a71d" stroke-linecap="round" stroke-miterlimit="10" stroke-width="4"/>
		<line x1="52.51" y1="52.51" x2="46.85" y2="46.85" fill="none" stroke="#f4a71d" stroke-linecap="round" stroke-miterlimit="10" stroke-width="4"/>
		<line x1="11" y1="32" x2="3" y2="32" fill="none" stroke="#f4a71d" stroke-linecap="round" stroke-miterlimit="10" stroke-width="4"/>
		<line x1="61" y1="32" x2="53" y2="32" fill="none" stroke="#f4a71d" stroke-linecap="round" stroke-miterlimit="10" stroke-width="4"/>

		<animateTransform attributeName="transform" type="rotate" from="0 32 32" to="360 32 32" dur="30s" repeatCount="indefinite"/>
	</g>
</svg>
