<svg xmlns="http://www.w3.org/2000/svg" viewBox="0 0 64 64">
	<defs>
		<clipPath id="a">
			<polygon points="35.17 0 34.22 16.69 44.07 20.42 47.97 27.7 47.98 32.45 56.03 39.82 64 39.82 64 0 35.17 0" fill="none"/>
		</clipPath>
	</defs>
	<g clip-path="url(#a)">
		<svg x="32" y="12" height="30" width="30" viewBox="0 0 64 64">
			<g>
				<path d="M32,21A11,11,0,1,1,21,32,11,11,0,0,1,32,21m0-4A15,15,0,1,0,47,32,15,15,0,0,0,32,17Z" fill="#f4a71d"/>
				<line x1="32" y1="11" x2="32" y2="3" fill="none" stroke="#f4a71d" stroke-linecap="round" stroke-miterlimit="10" stroke-width="4"/>
				<line x1="32" y1="61" x2="32" y2="53" fill="none" stroke="#f4a71d" stroke-linecap="round" stroke-miterlimit="10" stroke-width="4"/>
				<line x1="46.85" y1="17.15" x2="52.51" y2="11.49" fill="none" stroke="#f4a71d" stroke-linecap="round" stroke-miterlimit="10" stroke-width="4"/>
				<line x1="11.49" y1="52.51" x2="17.15" y2="46.85" fill="none" stroke="#f4a71d" stroke-linecap="round" stroke-miterlimit="10" stroke-width="4"/>
				<line x1="17.15" y1="17.15" x2="11.49" y2="11.49" fill="none" stroke="#f4a71d" stroke-linecap="round" stroke-miterlimit="10" stroke-width="4"/>
				<line x1="52.51" y1="52.51" x2="46.85" y2="46.85" fill="none" stroke="#f4a71d" stroke-linecap="round" stroke-miterlimit="10" stroke-width="4"/>
				<line x1="11" y1="32" x2="3" y2="32" fill="none" stroke="#f4a71d" stroke-linecap="round" stroke-miterlimit="10" stroke-width="4"/>
				<line x1="61" y1="32" x2="53" y2="32" fill="none" stroke="#f4a71d" stroke-linecap="round" stroke-miterlimit="10" stroke-width="4"/>

				<animateTransform attributeName="transform" type="rotate" from="0 32 32" to="360 32 32" dur="30s" repeatCount="indefinite"/>
			</g>
		</svg>
	</g>
	<g>
		<svg x="0" y="4" height="60" width="60" viewBox="0 0 64 64">
			<path d="M49.8,50.44h-35a10.85,10.85,0,0,1-3.4-21.15V29a9.93,9.93,0,0,1,9.88-9.88,10.06,10.06,0,0,1,3.93.85A14.26,14.26,0,0,1,51.39,27.8a19.93,19.93,0,0,1-.21,2.55,10.1,10.1,0,0,1,8.82,10A10.33,10.33,0,0,1,49.8,50.44ZM21.32,22a7.08,7.08,0,0,0-7,7,5,5,0,0,0,.1,1.17l.22,1.38-1.39.21A8.09,8.09,0,0,0,6.76,39.6a8,8,0,0,0,8,8h35a7.23,7.23,0,1,0,0-14.45h-.32l-2.12.1.64-2a13.68,13.68,0,0,0,.53-3.5A11.4,11.4,0,0,0,27,22.38l-.74,1.38L24.93,23A6.26,6.26,0,0,0,21.32,22Z" fill="#efefef"/>
		</svg>
	</g>
</svg>
