<svg xmlns="http://www.w3.org/2000/svg" viewBox="0 0 64 64">
	<g>
		<path d="M49.8,50.44h-35a10.85,10.85,0,0,1-3.4-21.15V29a9.93,9.93,0,0,1,9.88-9.88,10.06,10.06,0,0,1,3.93.85A14.26,14.26,0,0,1,51.39,27.8a19.93,19.93,0,0,1-.21,2.55,10.1,10.1,0,0,1,8.82,10A10.33,10.33,0,0,1,49.8,50.44ZM21.32,22a7.08,7.08,0,0,0-7,7,5,5,0,0,0,.1,1.17l.22,1.38-1.39.21A8.09,8.09,0,0,0,6.76,39.6a8,8,0,0,0,8,8h35a7.23,7.23,0,1,0,0-14.45h-.32l-2.12.1.64-2a13.68,13.68,0,0,0,.53-3.5A11.4,11.4,0,0,0,27,22.38l-.74,1.38L24.93,23A6.26,6.26,0,0,0,21.32,22Z" fill="#f9f9f9"/>

		<animateTransform attributeName="transform" type="translate" values="-3 0; 3 0; -3 0" dur="30s" repeatCount="indefinite"/>
	</g>
</svg>
