<svg xmlns="http://www.w3.org/2000/svg" xmlns:xlink="http://www.w3.org/1999/xlink" viewBox="0 0 512 512">
    <defs>
        <symbol id="a" viewBox="0 0 362 234">
            <path d="M297,225a56,56,0,0,0,0-112c-.85,0-1.68.09-2.53.13A83.9,83.9,0,0,0,141.6,48.92,55.91,55.91,0,0,0,57,97a56.56,56.56,0,0,0,.8,9.08A60,60,0,0,0,69,225" fill="none" stroke="#e2e8f0" stroke-linecap="round" stroke-linejoin="round" stroke-width="18"/>
        </symbol>
    </defs>
    <use width="362" height="234" transform="translate(75 139)" xlink:href="#a"/>
    <path d="M372.5,271a4.59,4.59,0,0,0-3.18,1.26L350,290.66l-19.32-18.4a4.64,4.64,0,0,0-6.36,0,4.14,4.14,0,0,0,0,6.06l22.5,21.42a4.64,4.64,0,0,0,6.36,0l22.5-21.42a4.14,4.14,0,0,0,0-6.06A4.59,4.59,0,0,0,372.5,271Z" fill="#374151"/>
    <path d="M372.5,244a4.59,4.59,0,0,0-3.18,1.26L350,263.66l-19.32-18.4a4.64,4.64,0,0,0-6.36,0,4.14,4.14,0,0,0,0,6.06l22.5,21.42a4.64,4.64,0,0,0,6.36,0l22.5-21.42a4.14,4.14,0,0,0,0-6.06A4.59,4.59,0,0,0,372.5,244Z" fill="#374151"/>
    <path d="M372.5,217a4.59,4.59,0,0,0-3.18,1.26L350,236.66l-19.32-18.4a4.64,4.64,0,0,0-6.36,0,4.14,4.14,0,0,0,0,6.06l22.5,21.42a4.64,4.64,0,0,0,6.36,0l22.5-21.42a4.14,4.14,0,0,0,0-6.06A4.59,4.59,0,0,0,372.5,217Z" fill="#374151"/>
</svg>
