<svg xmlns="http://www.w3.org/2000/svg" viewBox="0 0 512 512">
    <circle cx="256" cy="256" r="144" fill="none" stroke="#475569" stroke-miterlimit="10" stroke-width="12"/>
    <path d="M259.17,152.09V141.62h4.65v18H259.1l-6.25-10.41v10.41h-4.67v-18h4.67Z" fill="#475569"/>
    <path d="M362.5,257.72V261h9.76v4H357.77V247H372v3.92H362.5v3h8.34v3.84Z" fill="#475569"/>
    <path d="M256.12,373.69a8.45,8.45,0,0,1-5.39-1.56,5.8,5.8,0,0,1-2.1-4.47h4.43c.11,1.63,1.16,2.44,3.16,2.44,1.73,0,2.61-.56,2.61-1.7a1.27,1.27,0,0,0-.47-1,4.57,4.57,0,0,0-1.57-.65l-3.35-.8c-2.94-.68-4.4-2.3-4.4-4.85a4.93,4.93,0,0,1,1.69-3.86,7.5,7.5,0,0,1,5.08-1.51,8,8,0,0,1,5.05,1.43,5.2,5.2,0,0,1,2,4h-4.33c-.19-1.34-1.09-2-2.71-2a2.89,2.89,0,0,0-1.66.42,1.28,1.28,0,0,0-.61,1.11c0,.72.54,1.22,1.63,1.49l3.49.81q4.74,1.13,4.74,5.12a4.88,4.88,0,0,1-1.94,4.12A8.52,8.52,0,0,1,256.12,373.69Z" fill="#475569"/>
    <path d="M156.21,254.91l2-7.91h4.73l-5.24,18h-4.55l-2.4-11.5-2.3,11.5H143.8l-5.23-18h4.77l2,7.91.83,4.28.74-4.28L148.6,247H153l1.75,7.91.7,4.2Z" fill="#475569"/>
    <polygon points="256 172 232 256 280 256 256 172" fill="#ef4444"/>
    <polygon points="232 256 256 340 280 256 232 256" fill="#e2e8f0"/>
</svg>
