<svg xmlns="http://www.w3.org/2000/svg" xmlns:xlink="http://www.w3.org/1999/xlink" viewBox="0 0 512 512">
    <defs>
        <linearGradient id="a" x1="6" y1="169.61" x2="18" y2="190.39" gradientUnits="userSpaceOnUse">
            <stop offset="0" stop-color="#fde68a"/>
            <stop offset="0.45" stop-color="#fde68a"/>
            <stop offset="1" stop-color="#fde171"/>
        </linearGradient>
        <linearGradient id="b" x1="66" y1="169.61" x2="78" y2="190.39" xlink:href="#a"/>
        <linearGradient id="c" x1="38" y1="137.61" x2="50" y2="158.39" xlink:href="#a"/>
        <linearGradient id="d" x1="98" y1="137.61" x2="110" y2="158.39" xlink:href="#a"/>
        <linearGradient id="e" x1="70" y1="101.61" x2="82" y2="122.39" xlink:href="#a"/>
        <linearGradient id="f" x1="130" y1="101.61" x2="142" y2="122.39" xlink:href="#a"/>
        <linearGradient id="g" x1="102" y1="69.61" x2="114" y2="90.39" xlink:href="#a"/>
        <linearGradient id="h" x1="162" y1="69.61" x2="174" y2="90.39" xlink:href="#a"/>
        <linearGradient id="i" x1="134" y1="33.61" x2="146" y2="54.39" xlink:href="#a"/>
        <linearGradient id="j" x1="194" y1="33.61" x2="206" y2="54.39" xlink:href="#a"/>
        <linearGradient id="k" x1="166" y1="1.61" x2="178" y2="22.39" xlink:href="#a"/>
        <linearGradient id="l" x1="226" y1="1.61" x2="238" y2="22.39" xlink:href="#a"/>
        <clipPath id="m">
            <polygon points="0 0 512 0 0 512 0 0" fill="none"/>
        </clipPath>
        <symbol id="n" viewBox="0 0 359 231">
            <path d="M295.5,223.5a56,56,0,0,0,0-112c-.85,0-1.68.09-2.53.13A83.9,83.9,0,0,0,140.1,47.42,55.91,55.91,0,0,0,55.5,95.5a56.56,56.56,0,0,0,.8,9.08A60,60,0,0,0,67.5,223.5" fill="none" stroke="#e2e8f0" stroke-linecap="round" stroke-linejoin="round" stroke-width="15"/>
        </symbol>
        <symbol id="o" viewBox="0 0 244 192">
            <circle cx="12" cy="180" r="12" fill="url(#a)"/>
            <circle cx="72" cy="180" r="12" fill="url(#b)"/>
            <circle cx="44" cy="148" r="12" fill="url(#c)"/>
            <circle cx="104" cy="148" r="12" fill="url(#d)"/>
            <circle cx="76" cy="112" r="12" fill="url(#e)"/>
            <circle cx="136" cy="112" r="12" fill="url(#f)"/>
            <circle cx="108" cy="80" r="12" fill="url(#g)"/>
            <circle cx="168" cy="80" r="12" fill="url(#h)"/>
            <circle cx="140" cy="44" r="12" fill="url(#i)"/>
            <circle cx="200" cy="44" r="12" fill="url(#j)"/>
            <circle cx="172" cy="12" r="12" fill="url(#k)"/>
            <circle cx="232" cy="12" r="12" fill="url(#l)"/>
        </symbol>
    </defs>
    <g clip-path="url(#m)">
        <use width="359" height="231" transform="translate(80.5 140.5)" xlink:href="#n"/>
    </g>
    <use width="244" height="192" transform="translate(192 182)" xlink:href="#o"/>
</svg>
