<svg xmlns="http://www.w3.org/2000/svg" xmlns:xlink="http://www.w3.org/1999/xlink" viewBox="0 0 512 512">
    <defs>
        <clipPath id="a">
            <path d="M351.5,308a56,56,0,0,0-56-56c-.85,0-1.68.09-2.53.13A83.7,83.7,0,0,0,211.5,148V0H447.66V308Z" fill="none"/>
        </clipPath>
        <linearGradient id="b" x1="1381.32" y1="-1144.67" x2="1399.47" y2="-1097.39" gradientTransform="translate(-1189.41 1353.24) rotate(-9)" gradientUnits="userSpaceOnUse">
            <stop offset="0" stop-color="#0b65ed"/>
            <stop offset="0.45" stop-color="#0a5ad4"/>
            <stop offset="1" stop-color="#0950bc"/>
        </linearGradient>
        <linearGradient id="c" x1="1428.42" y1="-1084.66" x2="1446.57" y2="-1037.37" gradientTransform="translate(-1189.32 1354.33) rotate(-9)" xlink:href="#b"/>
        <linearGradient id="d" x1="1489.3" y1="-1111.57" x2="1507.45" y2="-1064.28" gradientTransform="translate(-1189.24 1355.43) rotate(-9)" xlink:href="#b"/>
        <symbol id="f" viewBox="0 0 214.26 140.12">
            <path d="M7.5,100.18a32.44,32.44,0,0,0,32.44,32.44H169.69v-.12c.77.05,1.53.12,2.31.12a34.75,34.75,0,0,0,6.49-68.89A32.38,32.38,0,0,0,130,30.62,48.58,48.58,0,0,0,41.4,67.81c-.49,0-1-.07-1.46-.07A32.44,32.44,0,0,0,7.5,100.18Z" fill="none" stroke="#94a3b8" stroke-linejoin="round" stroke-width="15"/>
        </symbol>
        <symbol id="g" viewBox="0 0 359 231">
            <path d="M295.5,223.5a56,56,0,0,0,0-112c-.85,0-1.68.09-2.53.13A83.9,83.9,0,0,0,140.1,47.42,55.91,55.91,0,0,0,55.5,95.5a56.56,56.56,0,0,0,.8,9.08A60,60,0,0,0,67.5,223.5" fill="none" stroke="#475569" stroke-linecap="round" stroke-linejoin="round" stroke-width="15"/>
        </symbol>
        <symbol id="e" viewBox="0 0 447.66 371.5">
            <g clip-path="url(#a)">
                <use width="214.26" height="140.12" transform="translate(195.51 165.01)" xlink:href="#f"/>
            </g>
            <use width="359" height="231" transform="translate(0 140.5)" xlink:href="#g"/>
        </symbol>
        <symbol id="h" viewBox="0 0 129 110">
            <path d="M8.5,56.5a8,8,0,0,1-8-8V8.5a8,8,0,0,1,16,0v40A8,8,0,0,1,8.5,56.5Z" stroke="#0a5ad4" stroke-miterlimit="10" fill="url(#b)"/>
            <path d="M64.5,109.5a8,8,0,0,1-8-8v-40a8,8,0,0,1,16,0v40A8,8,0,0,1,64.5,109.5Z" stroke="#0a5ad4" stroke-miterlimit="10" fill="url(#c)"/>
            <path d="M120.5,74.5a8,8,0,0,1-8-8v-40a8,8,0,0,1,16,0v40A8,8,0,0,1,120.5,74.5Z" stroke="#0a5ad4" stroke-miterlimit="10" fill="url(#d)"/>
        </symbol>
    </defs>
    <use width="447.66" height="371.5" transform="translate(64.34)" xlink:href="#e"/>
    <use width="129" height="110" transform="translate(191.5 343.5)" xlink:href="#h"/>
</svg>
