<svg xmlns="http://www.w3.org/2000/svg" xmlns:xlink="http://www.w3.org/1999/xlink" viewBox="0 0 512 512">
    <defs>
        <clipPath id="a">
            <path d="M351.5,308a56,56,0,0,0-56-56c-.85,0-1.68.09-2.53.13A83.7,83.7,0,0,0,211.5,148V0H447.66V308Z" fill="none"/>
        </clipPath>
        <clipPath id="b">
            <path d="M276,148a83.84,83.84,0,0,0-71.4,39.92A55.91,55.91,0,0,0,120,236a56.56,56.56,0,0,0,.8,9.08A60,60,0,0,0,72,304H0V0H276Z" fill="none"/>
        </clipPath>
        <symbol id="d" viewBox="0 0 178 178">
            <path d="M163.62,110.4c-47.17,0-85.41-37.73-85.41-84.26A83.31,83.31,0,0,1,81,5C38.27,9.61,5,45.33,5,88.73,5,135.27,43.24,173,90.41,173A85.16,85.16,0,0,0,173,109.87,88,88,0,0,1,163.62,110.4Z" fill="none" stroke="#72b9d5" stroke-linecap="round" stroke-linejoin="round" stroke-width="10"/>
        </symbol>
        <symbol id="f" viewBox="0 0 214.26 140.12">
            <path d="M7.5,100.18a32.44,32.44,0,0,0,32.44,32.44H169.69v-.12c.77.05,1.53.12,2.31.12a34.75,34.75,0,0,0,6.49-68.89A32.38,32.38,0,0,0,130,30.62,48.58,48.58,0,0,0,41.4,67.81c-.49,0-1-.07-1.46-.07A32.44,32.44,0,0,0,7.5,100.18Z" fill="none" stroke="#94a3b8" stroke-linejoin="round" stroke-width="15"/>
        </symbol>
        <symbol id="g" viewBox="0 0 359 231">
            <path d="M295.5,223.5a56,56,0,0,0,0-112c-.85,0-1.68.09-2.53.13A83.9,83.9,0,0,0,140.1,47.42,55.91,55.91,0,0,0,55.5,95.5a56.56,56.56,0,0,0,.8,9.08A60,60,0,0,0,67.5,223.5" fill="none" stroke="#475569" stroke-linecap="round" stroke-linejoin="round" stroke-width="15"/>
        </symbol>
        <symbol id="e" viewBox="0 0 447.66 371.5">
            <g clip-path="url(#a)">
                <use width="214.26" height="140.12" transform="translate(195.51 165.01)" xlink:href="#f"/>
            </g>
            <use width="359" height="231" transform="translate(0 140.5)" xlink:href="#g"/>
        </symbol>
        <symbol id="c" viewBox="0 0 512 371.5">
            <g clip-path="url(#b)">
                <use width="178" height="178" transform="translate(65 118)" xlink:href="#d"/>
            </g>
            <use width="447.66" height="371.5" transform="translate(64.34)" xlink:href="#e"/>
        </symbol>
        <symbol id="h" viewBox="0 0 155.2 138">
            <path d="M41.17,30.54l-5.78-3.3a13.74,13.74,0,0,0,0-6.47l5.79-3.31A4,4,0,0,0,42.66,12a4.08,4.08,0,0,0-5.54-1.46l-5.79,3.3a13.61,13.61,0,0,0-2.64-2,13.84,13.84,0,0,0-3-1.28V4a4.05,4.05,0,0,0-8.1,0v6.6a14.25,14.25,0,0,0-5.69,3.23L6.08,10.54A4.08,4.08,0,0,0,.54,12,4,4,0,0,0,2,17.46l5.78,3.3a13.74,13.74,0,0,0,0,6.47L2,30.54A4,4,0,0,0,.54,36a4.08,4.08,0,0,0,3.52,2,4,4,0,0,0,2-.54l5.79-3.3a13.61,13.61,0,0,0,2.64,2,13.8,13.8,0,0,0,3,1.27V44a4.05,4.05,0,0,0,8.1,0V37.39a14.22,14.22,0,0,0,5.68-3.23l5.79,3.3a4,4,0,0,0,2,.54,4.08,4.08,0,0,0,3.52-2A4,4,0,0,0,41.17,30.54ZM18.56,29.2A6,6,0,0,1,16.34,21a6.1,6.1,0,0,1,5.27-3,6.16,6.16,0,0,1,3,.8A6,6,0,0,1,26.86,27,6.12,6.12,0,0,1,18.56,29.2Z" fill="#86c3db"/>
            <path d="M97.17,120.54l-5.78-3.3a13.74,13.74,0,0,0,0-6.47l5.79-3.31A4,4,0,0,0,98.66,102a4.08,4.08,0,0,0-5.54-1.46l-5.79,3.3a13.61,13.61,0,0,0-2.64-2,13.84,13.84,0,0,0-3-1.28V94a4.05,4.05,0,0,0-8.1,0v6.6a14.25,14.25,0,0,0-5.69,3.23l-5.78-3.29A4.08,4.08,0,0,0,56.54,102,4,4,0,0,0,58,107.46l5.78,3.3a13.74,13.74,0,0,0,0,6.47L58,120.54A4,4,0,0,0,56.54,126a4.08,4.08,0,0,0,3.52,2,4,4,0,0,0,2-.54l5.79-3.3a13.61,13.61,0,0,0,2.64,2,13.8,13.8,0,0,0,3,1.27V134a4.05,4.05,0,0,0,8.1,0v-6.61a14.22,14.22,0,0,0,5.68-3.23l5.79,3.3a4,4,0,0,0,2,.54,4.08,4.08,0,0,0,3.52-2A4,4,0,0,0,97.17,120.54ZM74.56,119.2a6,6,0,0,1-2.22-8.2,6.1,6.1,0,0,1,5.27-3,6.16,6.16,0,0,1,3,.8,6,6,0,0,1,2.22,8.2A6.12,6.12,0,0,1,74.56,119.2Z" fill="#86c3db"/>
            <path d="M153.17,70.54l-5.78-3.3a13.74,13.74,0,0,0,0-6.47l5.79-3.31A4,4,0,0,0,154.66,52a4.08,4.08,0,0,0-5.54-1.46l-5.79,3.3a13.61,13.61,0,0,0-2.64-2,13.84,13.84,0,0,0-3-1.28V44a4.05,4.05,0,0,0-8.1,0v6.6a14.25,14.25,0,0,0-5.69,3.23l-5.78-3.29A4.08,4.08,0,0,0,112.54,52,4,4,0,0,0,114,57.46l5.78,3.3a13.74,13.74,0,0,0,0,6.47L114,70.54A4,4,0,0,0,112.54,76a4.08,4.08,0,0,0,3.52,2,4,4,0,0,0,2-.54l5.79-3.3a13.61,13.61,0,0,0,2.64,2,13.8,13.8,0,0,0,3,1.27V84a4.05,4.05,0,0,0,8.1,0V77.39a14.22,14.22,0,0,0,5.68-3.23l5.79,3.3a4,4,0,0,0,2,.54,4.08,4.08,0,0,0,3.52-2A4,4,0,0,0,153.17,70.54ZM130.56,69.2a6,6,0,0,1-2.22-8.2,6.1,6.1,0,0,1,5.27-3,6.16,6.16,0,0,1,3,.8,6,6,0,0,1,2.22,8.2A6.12,6.12,0,0,1,130.56,69.2Z" fill="#86c3db"/>
        </symbol>
    </defs>
    <use width="512" height="371.5" xlink:href="#c"/>
    <use width="155.2" height="138" transform="translate(178.4 338)" xlink:href="#h"/>
</svg>
