<svg xmlns="http://www.w3.org/2000/svg" viewBox="0 0 512 512">
    <path d="M384,256A128,128,0,0,0,256,128c-169.79,6.74-169.74,249.28,0,256A128,128,0,0,0,384,256Z" fill="none" stroke="#e2e8f0" stroke-linecap="round" stroke-linejoin="round" stroke-width="12" stroke-dasharray="16.87 56.24"/>
    <path d="M381.76,218.05c-17.81-63-80.19-100-143.4-87.71a124.81,124.81,0,0,1,12.71,29.41c19.08,67.52-20.3,139.23-88,160.18a128.2,128.2,0,0,1-13.68,3.39c28.54,48.42,87.34,72.57,144.37,54.91C361.46,357.28,400.84,285.57,381.76,218.05Z" fill="none" stroke="#72b9d5" stroke-linecap="round" stroke-linejoin="round" stroke-width="13.83"/>
</svg>
