<svg xmlns="http://www.w3.org/2000/svg" xmlns:xlink="http://www.w3.org/1999/xlink" viewBox="0 0 512 512">
    <defs>
        <clipPath id="a">
            <path d="M353,308a56,56,0,0,0-56-56c-.85,0-1.68.09-2.53.13A83.7,83.7,0,0,0,213,148V0H449.16V308Z" fill="none"/>
        </clipPath>
        <clipPath id="b">
            <path d="M276,148a83.84,83.84,0,0,0-71.4,39.92A55.91,55.91,0,0,0,120,236a56.56,56.56,0,0,0,.8,9.08A60,60,0,0,0,72,304H0V0H276Z" fill="none"/>
        </clipPath>
        <symbol id="d" viewBox="0 0 193 193">
            <circle cx="96.5" cy="96.5" r="40" fill="none" stroke="#fbbf24" stroke-miterlimit="10" stroke-width="9"/>
            <path d="M96.5,29.88V4.5m0,184V163.12M143.61,49.39l17.94-17.94M31.45,161.55l17.94-17.94m0-94.22L31.45,31.45m130.1,130.1-17.94-17.94M4.5,96.5H29.88m158.62,0H163.12" fill="none" stroke="#fbbf24" stroke-linecap="round" stroke-miterlimit="10" stroke-width="9"/>
        </symbol>
        <symbol id="f" viewBox="0 0 214.26 140.12">
            <path d="M7.5,100.18a32.44,32.44,0,0,0,32.44,32.44H169.69v-.12c.77.05,1.53.12,2.31.12a34.75,34.75,0,0,0,6.49-68.89A32.38,32.38,0,0,0,130,30.62,48.58,48.58,0,0,0,41.4,67.81c-.49,0-1-.07-1.46-.07A32.44,32.44,0,0,0,7.5,100.18Z" fill="none" stroke="#94a3b8" stroke-linejoin="round" stroke-width="15"/>
        </symbol>
        <symbol id="g" viewBox="0 0 362 234">
            <path d="M297,225a56,56,0,0,0,0-112c-.85,0-1.68.09-2.53.13A83.9,83.9,0,0,0,141.6,48.92,55.91,55.91,0,0,0,57,97a56.56,56.56,0,0,0,.8,9.08A60,60,0,0,0,69,225" fill="none" stroke="#e2e8f0" stroke-linecap="round" stroke-linejoin="round" stroke-width="18"/>
        </symbol>
        <symbol id="e" viewBox="0 0 449.16 373">
            <g clip-path="url(#a)">
                <use width="214.26" height="140.12" transform="translate(197.01 165.01)" xlink:href="#f"/>
            </g>
            <use width="362" height="234" transform="translate(0 139)" xlink:href="#g"/>
        </symbol>
        <symbol id="c" viewBox="0 0 512 373">
            <g clip-path="url(#b)">
                <use width="193" height="193" transform="translate(57.5 110.5)" xlink:href="#d"/>
            </g>
            <use width="449.16" height="373" transform="translate(62.84)" xlink:href="#e"/>
        </symbol>
        <symbol id="h" viewBox="0 0 136 114">
            <path d="M12,0A12,12,0,1,0,24,12,12,12,0,0,0,12,0Z" fill="#86c3db"/>
            <path d="M68,90a12,12,0,1,0,12,12A12,12,0,0,0,68,90Z" fill="#86c3db"/>
            <path d="M124,30a12,12,0,1,0,12,12,12,12,0,0,0-12-12Z" fill="#86c3db"/>
        </symbol>
    </defs>
    <use width="512" height="373" xlink:href="#c"/>
    <use width="136" height="114" transform="translate(188 350)" xlink:href="#h"/>
</svg>
