<svg xmlns="http://www.w3.org/2000/svg" xmlns:xlink="http://www.w3.org/1999/xlink" viewBox="0 0 512 512">
    <defs>
        <symbol id="a" viewBox="0 0 232 72">
            <circle cx="116" cy="12" r="12" fill="#f8af18"/>
            <circle cx="156" cy="52" r="16" fill="#f8af18"/>
            <circle cx="76" cy="52" r="16" fill="#f8af18"/>
            <circle cx="12" cy="60" r="12" fill="#f8af18"/>
            <circle cx="220" cy="60" r="12" fill="#f8af18"/>
            <circle cx="180" cy="20" r="8" fill="#f8af18"/>
            <circle cx="52" cy="20" r="8" fill="#f8af18"/>
        </symbol>
    </defs>
    <path d="M264.5,384c.1-14.88.75-109.5,2.43-131.79,1.84-24.2,11-58.6,16.5-84.72S274.88,128,274.88,128s13.44,13.38-6.11,72c-18.66,55.91-13.92,174-13.48,184Z" fill="#40c057"/>
    <path d="M289.38,280c-16.75,38.57-19,86.43-19.21,104.05h16.9c-1.34-19.68-3.47-76.45,13.66-107.69C321.67,238.09,340,244.46,340,244.46S310.33,231.73,289.38,280Z" fill="#40c057"/>
    <path d="M261.52,384h12.79c1.52-21.15,7.15-87.9,19.7-123,15.05-42,4.32-85.88,4.32-85.88s5.62,43.12-14.37,89C266.94,303.17,262.47,366.15,261.52,384Z" fill="#40c057"/>
    <path d="M242.33,384h16.44c-1.95-11.56-15.84-91.71-30.47-120.91-15.78-31.49-27.47-46.23-56.3-57.37,0,0,35.19,15.09,51.74,83C236.33,340.4,240.88,371.9,242.33,384Z" fill="#40c057"/>
    <path d="M242.64,384c-3.95-18.95-19.78-81.78-58.94-99.41,0,0,21.77,23.38,32.44,49.18C223.27,351,226.94,372,228.6,384Z" fill="#40c057"/>
    <use width="232" height="72" transform="translate(140 132)" xlink:href="#a"/>
</svg>
