<svg xmlns="http://www.w3.org/2000/svg" xmlns:xlink="http://www.w3.org/1999/xlink" viewBox="0 0 512 512">
    <defs>
        <clipPath id="a">
            <polygon points="238 139 244 66 468 66 468 292 388 292 333 286 251 216 238 139" fill="none"/>
        </clipPath>
        <symbol id="b" viewBox="0 0 375 375">
            <circle cx="187.5" cy="187.5" r="84" fill="none" stroke="#fbbf24" stroke-miterlimit="10" stroke-width="15"/>
            <path d="M187.5,57.16V7.5m0,360V317.84M279.67,95.33l35.11-35.11M60.22,314.78l35.11-35.11m0-184.34L60.22,60.22M314.78,314.78l-35.11-35.11M57.16,187.5H7.5m360,0H317.84" fill="none" stroke="#fbbf24" stroke-linecap="round" stroke-miterlimit="10" stroke-width="15"/>
        </symbol>
        <symbol id="c" viewBox="0 0 279 279">
            <path d="M256.75,173.13c-74.12,0-134.21-59.28-134.21-132.42A130.48,130.48,0,0,1,127,7.5C59.79,14.75,7.5,70.87,7.5,139.08c0,73.13,60.09,132.42,134.21,132.42,62.48,0,114.83-42.18,129.79-99.21A135.56,135.56,0,0,1,256.75,173.13Z" fill="none" stroke="#72b9d5" stroke-linecap="round" stroke-linejoin="round" stroke-width="15"/>
        </symbol>
    </defs>
    <g clip-path="url(#a)">
        <use width="375" height="375" transform="translate(74.5 76.5)" xlink:href="#b"/>
    </g>
    <use width="279" height="279" transform="translate(116.5 116.5)" xlink:href="#c"/>
</svg>
