<svg xmlns="http://www.w3.org/2000/svg" xmlns:xlink="http://www.w3.org/1999/xlink" viewBox="0 0 512 512">
    <defs>
        <linearGradient id="a" x1="1381.32" y1="-1144.67" x2="1399.47" y2="-1097.39" gradientTransform="translate(-1189.41 1353.24) rotate(-9)" gradientUnits="userSpaceOnUse">
            <stop offset="0" stop-color="#0b65ed"/>
            <stop offset="0.45" stop-color="#0a5ad4"/>
            <stop offset="1" stop-color="#0950bc"/>
        </linearGradient>
        <linearGradient id="b" x1="1428.42" y1="-1084.66" x2="1446.57" y2="-1037.37" gradientTransform="translate(-1189.32 1354.33) rotate(-9)" xlink:href="#a"/>
        <linearGradient id="c" x1="1489.3" y1="-1111.57" x2="1507.45" y2="-1064.28" gradientTransform="translate(-1189.24 1355.43) rotate(-9)" xlink:href="#a"/>
        <symbol id="d" viewBox="0 0 359 231">
            <path d="M295.5,223.5a56,56,0,0,0,0-112c-.85,0-1.68.09-2.53.13A83.9,83.9,0,0,0,140.1,47.42,55.91,55.91,0,0,0,55.5,95.5a56.56,56.56,0,0,0,.8,9.08A60,60,0,0,0,67.5,223.5" fill="none" stroke="#e2e8f0" stroke-linecap="round" stroke-linejoin="round" stroke-width="15"/>
        </symbol>
        <symbol id="e" viewBox="0 0 129 110">
            <path d="M8.5,56.5a8,8,0,0,1-8-8V8.5a8,8,0,0,1,16,0v40A8,8,0,0,1,8.5,56.5Z" stroke="#0a5ad4" stroke-miterlimit="10" fill="url(#a)"/>
            <path d="M64.5,109.5a8,8,0,0,1-8-8v-40a8,8,0,0,1,16,0v40A8,8,0,0,1,64.5,109.5Z" stroke="#0a5ad4" stroke-miterlimit="10" fill="url(#b)"/>
            <path d="M120.5,74.5a8,8,0,0,1-8-8v-40a8,8,0,0,1,16,0v40A8,8,0,0,1,120.5,74.5Z" stroke="#0a5ad4" stroke-miterlimit="10" fill="url(#c)"/>
        </symbol>
        <symbol id="f" viewBox="0 0 96 176">
            <polygon points="32 0 0 96 32 96 16 176 96 64 48 64 80 0 32 0" fill="#f6a823"/>
        </symbol>
    </defs>
    <use width="359" height="231" transform="translate(76.5 140.5)" xlink:href="#d"/>
    <use width="129" height="110" transform="translate(191.5 343.5)" xlink:href="#e"/>
    <use width="96" height="176" transform="translate(208 293)" xlink:href="#f"/>
</svg>
