<svg xmlns="http://www.w3.org/2000/svg" xmlns:xlink="http://www.w3.org/1999/xlink" viewBox="0 0 512 512">
    <defs>
        <clipPath id="a">
            <rect y="12" width="512" height="282" fill="none"/>
        </clipPath>
        <symbol id="b" viewBox="0 0 291.56 290.63">
            <ellipse cx="145.78" cy="145.31" rx="64.53" ry="64.31" fill="none" stroke="#ff922b" stroke-miterlimit="10" stroke-width="12"/>
            <path d="M145.78,45.52V7.5m0,275.63v-38M216.59,74.75l27-26.89M48,242.76l27-26.88M75,74.75,48,47.86m195.56,194.9-27-26.88M45.65,145.31H7.5m276.56,0H245.92" fill="none" stroke="#ff922b" stroke-linecap="round" stroke-miterlimit="10" stroke-width="15"/>
        </symbol>
    </defs>
    <g clip-path="url(#a)">
        <use width="291.56" height="290.63" transform="translate(110.28 168.62)" xlink:href="#b"/>
    </g>
    <line x1="128" y1="320" x2="384" y2="320" fill="none" stroke="#374151" stroke-linecap="round" stroke-linejoin="round" stroke-width="18"/>
    <path d="M185.26,438.38H171.8v-32H159.12v-9h2.17q5.53,0,8.78-2.37c2-1.49,3.33-3.92,4-7.27l.14-.58h11.09Z" fill="#374251"/>
    <path d="M233.5,435.29q-5.91,4.38-16.05,4.39t-16-4.39a14.17,14.17,0,0,1-5.9-12,12.15,12.15,0,0,1,2.62-8,13.27,13.27,0,0,1,7.39-4.36v-.22A11,11,0,0,1,200,406.6a11.48,11.48,0,0,1-2-6.74,11.94,11.94,0,0,1,5.15-10.25q5.14-3.72,14.37-3.72t14.47,3.72a11.92,11.92,0,0,1,5.18,10.25,11.52,11.52,0,0,1-2,6.81,10.66,10.66,0,0,1-5.58,4.06V411a13.48,13.48,0,0,1,7.34,4.39,12.13,12.13,0,0,1,2.6,7.93A14.18,14.18,0,0,1,233.5,435.29Zm-16-5.26a10.62,10.62,0,0,0,6.69-1.91,7,7,0,0,0,0-10.58,10.61,10.61,0,0,0-6.73-1.91,10.89,10.89,0,0,0-6.84,1.91,6.91,6.91,0,0,0,0,10.58A11,11,0,0,0,217.52,430Zm0-22.68a9.32,9.32,0,0,0,5.86-1.65,5.53,5.53,0,0,0,2.13-4.61,5.19,5.19,0,0,0-2.09-4.43,9.77,9.77,0,0,0-5.9-1.55q-8.07,0-8.07,6a5.53,5.53,0,0,0,2.13,4.61A9.45,9.45,0,0,0,217.52,407.35Z" fill="#374251"/>
    <path d="M266.26,423.34H245.74V413.4h20.52Z" fill="#374251"/>
    <path d="M314.86,438.38H274.25a20.68,20.68,0,0,1,3-11.44q2.94-4.47,10.79-9.87l7.92-5.61a16.34,16.34,0,0,0,4.29-4,7.53,7.53,0,0,0,1.26-4.25,6.38,6.38,0,0,0-1.87-4.86,7.16,7.16,0,0,0-5.12-1.77q-7.34,0-7.34,8.57v1.08H275v-1.58q0-8.85,5.18-13.83t14.69-5q9.07,0,14.4,4.4t5.4,12.17a16.09,16.09,0,0,1-2.55,8.92,26.79,26.79,0,0,1-8.17,7.57l-8.86,5.61c-1.68,1.1-2.59,2-2.74,2.81h22.54Z" fill="#374251"/>
    <path d="M348.41,438.38H335v-32H322.28v-9h2.16q5.54,0,8.78-2.37c2-1.49,3.33-3.92,4-7.27l.14-.58h11.09Z" fill="#374251"/>
</svg>
