<svg xmlns="http://www.w3.org/2000/svg" viewBox="0 0 512 512">
    <path d="M304,355a24,24,0,0,1-48,0V156" fill="none" stroke="#e2e8f0" stroke-linecap="round" stroke-linejoin="round" stroke-width="12"/>
    <path d="M251.71,141.07C187.43,142.87,136,185.13,136,237l12.74-5.85c17.9-8.23,40.88-8,58.49.52l7.8,3.78C210.15,188.23,242.7,150.52,251.71,141.07Z" fill="#ef4444"/>
    <path d="M260.29,141.07c9,9.45,41.56,47.16,36.68,94.38l7.8-3.78c17.61-8.54,40.59-8.75,58.49-.52L376,237C376,185.13,324.57,142.87,260.29,141.07Z" fill="#ef4444"/>
    <path d="M256,145.3c-8.48,9.06-39.83,45.9-34.91,90.23l3.94-2c18.53-9.51,43.41-9.51,61.94,0l3.94,2C295.83,191.2,264.48,154.36,256,145.3Z" fill="#ef4444"/>
</svg>
