<svg xmlns="http://www.w3.org/2000/svg" xmlns:xlink="http://www.w3.org/1999/xlink" viewBox="0 0 512 512">
    <defs>
        <symbol id="a" viewBox="0 0 342 234">
            <path d="M264.16,21.29A40,40,0,1,1,293,89H9" fill="none" stroke="#e2e8f0" stroke-linecap="round" stroke-miterlimit="10" stroke-width="18"/>
            <path d="M148.16,212.71A40,40,0,1,0,177,145H9" fill="none" stroke="#e2e8f0" stroke-linecap="round" stroke-miterlimit="10" stroke-width="18"/>
        </symbol>
    </defs>
    <use width="342" height="234" transform="translate(85 139)" xlink:href="#a"/>
    <path d="M379,344H360.1V299H342.3V286.36h3q7.79,0,12.34-3.34,4.24-3.13,5.56-10.21l.2-.81H379Z" fill="#374251"/>
    <path d="M425.7,344H406.79V299H389V286.36h3q7.78,0,12.34-3.34,4.25-3.13,5.56-10.21l.2-.81H425.7Z" fill="#374251"/>
</svg>
