<svg xmlns="http://www.w3.org/2000/svg" xmlns:xlink="http://www.w3.org/1999/xlink" viewBox="0 0 512 512"><defs><symbol id="b" viewBox="0 0 178 178"><path fill="none" stroke="#72b9d5" stroke-linecap="round" stroke-linejoin="round" stroke-width="10" d="M163.6 110.4a84.8 84.8 0 01-85.4-84.3A83.3 83.3 0 0181 5 84.7 84.7 0 005 88.7 84.8 84.8 0 0090.4 173a85.2 85.2 0 0082.6-63.1 88 88 0 01-9.4.5Z"/></symbol><symbol id="c" viewBox="0 0 359 231"><path fill="none" stroke="#e2e8f0" stroke-linecap="round" stroke-linejoin="round" stroke-width="15" d="M295.5 223.5a56 56 0 000-112l-2.5.1a83.9 83.9 0 00-153-64.2 56 56 0 00-84.6 48.1 56.6 56.6 0 00.8 9 60 60 0 0011.2 119"/></symbol><symbol id="j" viewBox="0 0 435.5 371.5"><g clip-path="url(#a)"><use xlink:href="#b" width="178" height="178" transform="translate(77 118)"><animateTransform additive="sum" attributeName="transform" dur="6s" repeatCount="indefinite" type="rotate" values="-15 86 86; 9 86 86; -15 86 86"/></use></g><use xlink:href="#c" width="359" height="231" transform="translate(76.5 140.5)"/></symbol><symbol id="k" overflow="visible" viewBox="0 0 136 24"><path fill="#86c3db" d="M12 0a12 12 0 1012 12A12 12 0 0012 0Z" opacity="0"><animateTransform id="d" additive="sum" attributeName="transform" begin="0s; d.end+.42s" dur=".58s" keyTimes="0; .71; 1" type="translate" values="0 -46; 0 86; -18 74"/><animate id="e" attributeName="opacity" begin="0s; e.end+.42s" dur=".58s" keyTimes="0; .14; .71; 1" values="0; 1; 1; 0"/></path><path fill="#86c3db" d="M68 0a12 12 0 1012 12A12 12 0 0068 0Z" opacity="0"><animateTransform id="f" additive="sum" attributeName="transform" begin=".67s; f.end+.42s" dur=".58s" keyTimes="0; .71; 1" type="translate" values="0 -46; 0 86; 0 74"/><animate id="g" attributeName="opacity" begin=".67s; g.end+.42s" dur=".58s" keyTimes="0; .14; .71; 1" values="0; 1; 1; 0"/></path><path fill="#86c3db" d="M124 0a12 12 0 1012 12 12 12 0 00-12-12Z" opacity="0"><animateTransform id="h" additive="sum" attributeName="transform" begin=".33s; h.end+.42s" dur=".58s" keyTimes="0; .71; 1" type="translate" values="0 -46; 0 86; 18 74"/><animate id="i" attributeName="opacity" begin=".33s; i.end+.42s" dur=".58s" keyTimes="0; .14; .71; 1" values="0; 1; 1; 0"/></path></symbol><clipPath id="a"><path fill="none" d="M288 148a83.8 83.8 0 00-71.4 40 56 56 0 00-84.6 48 56.6 56.6 0 00.8 9A60 60 0 0084 304H0V0h288Z"/></clipPath></defs><use xlink:href="#j" width="435.5" height="371.5"/><use xlink:href="#k" width="136" height="24" transform="translate(188 350)"/></svg>