<svg xmlns="http://www.w3.org/2000/svg" viewBox="0 0 64 64"><defs><clipPath id="a"><path fill="none" d="m12 35-5.28-4.21-2-6 1-7 4-5 5-3h6l5 1 3 3L33 20l-6 4h-6l-3 3v4l-4 2-2 2z"/></clipPath></defs><g clip-path="url(#a)"><g><path fill="none" stroke="#72b9d5" stroke-linecap="round" stroke-linejoin="round" stroke-width="2" d="M29.33 26.68a10.61 10.61 0 0 1-10.68-10.54A10.5 10.5 0 0 1 19 13.5a10.54 10.54 0 1 0 11.5 13.11 11.48 11.48 0 0 1-1.17.07z"/><animateTransform attributeName="transform" dur="10s" repeatCount="indefinite" type="rotate" values="-10 19.22 24.293;10 19.22 24.293;-10 19.22 24.293"/></g></g><path fill="none" stroke="#e5e7eb" stroke-linecap="round" stroke-linejoin="round" stroke-width="3" d="M43.67 45.5h2.83a7 7 0 0 0 0-14h-.32a10.49 10.49 0 0 0-19.11-8 7 7 0 0 0-10.57 6 7.21 7.21 0 0 0 .1 1.14A7.5 7.5 0 0 0 18 45.5a4.19 4.19 0 0 0 .5 0v0"/><g><circle cx="31" cy="45" r="1.25" fill="none" stroke="#72b8d4" stroke-miterlimit="10"/><path fill="none" stroke="#72b8d4" stroke-linecap="round" stroke-miterlimit="10" d="m33.17 46.25-1.09-.63m-2.16-1.24-1.09-.63M31 42.5v1.25m0 3.75v-1.25m-1.08-.63-1.09.63m4.34-2.5-1.09.63"/><animateTransform additive="sum" attributeName="transform" dur="4s" repeatCount="indefinite" type="translate" values="-1 -6; 1 12"/><animateTransform additive="sum" attributeName="transform" dur="9s" repeatCount="indefinite" type="rotate" values="0 31 45; 360 31 45"/><animate attributeName="opacity" dur="4s" repeatCount="indefinite" values="0;1;1;1;0"/></g><g><circle cx="24" cy="45" r="1.25" fill="none" stroke="#72b8d4" stroke-miterlimit="10"/><path fill="none" stroke="#72b8d4" stroke-linecap="round" stroke-miterlimit="10" d="m26.17 46.25-1.09-.63m-2.16-1.24-1.09-.63M24 42.5v1.25m0 3.75v-1.25m-1.08-.63-1.09.63m4.34-2.5-1.09.63"/><animateTransform additive="sum" attributeName="transform" begin="-2s" dur="4s" repeatCount="indefinite" type="translate" values="1 -6; -1 12"/><animateTransform additive="sum" attributeName="transform" dur="9s" repeatCount="indefinite" type="rotate" values="0 24 45; 360 24 45"/><animate attributeName="opacity" begin="-2s" dur="4s" repeatCount="indefinite" values="0;1;1;1;0"/></g><g><circle cx="38" cy="45" r="1.25" fill="none" stroke="#72b8d4" stroke-miterlimit="10"/><path fill="none" stroke="#72b8d4" stroke-linecap="round" stroke-miterlimit="10" d="m40.17 46.25-1.09-.63m-2.16-1.24-1.09-.63M38 42.5v1.25m0 3.75v-1.25m-1.08-.63-1.09.63m4.34-2.5-1.09.63"/><animateTransform additive="sum" attributeName="transform" begin="-1s" dur="4s" repeatCount="indefinite" type="translate" values="1 -6; -1 12"/><animateTransform additive="sum" attributeName="transform" dur="9s" repeatCount="indefinite" type="rotate" values="0 38 45; 360 38 45"/><animate attributeName="opacity" begin="-1s" dur="4s" repeatCount="indefinite" values="0;1;1;1;0"/></g></svg>