<svg xmlns="http://www.w3.org/2000/svg" viewBox="0 0 64 64"><path fill="none" stroke="#e5e7eb" stroke-dasharray="35 22" stroke-linecap="round" stroke-miterlimit="10" stroke-width="3" d="M43.64 20a5 5 0 1 1 3.61 8.46h-35.5"><animate attributeName="stroke-dashoffset" dur="1.2s" repeatCount="indefinite" values="-57; 57"/></path><path fill="none" stroke="#e5e7eb" stroke-dasharray="24 15" stroke-linecap="round" stroke-miterlimit="10" stroke-width="3" d="M29.14 44a5 5 0 1 0 3.61-8.46h-21"><animate attributeName="stroke-dashoffset" begin="-.3s" dur="1.2s" repeatCount="indefinite" values="-39; 39"/></path><path fill="#374151" d="M46.28 34.82a.57.57 0 0 1 .11.39v9.64a.43.43 0 0 1-.51.51H45a.52.52 0 0 1-.4-.12.51.51 0 0 1-.11-.39V37l-2.1 1.17a.65.65 0 0 1-.47.12.6.6 0 0 1-.3-.31l-.37-.67a.53.53 0 0 1-.07-.4c0-.1.14-.19.31-.29l2.92-1.68a1.37 1.37 0 0 1 .72-.21h.72a.55.55 0 0 1 .43.09zm3.1.64a4.84 4.84 0 0 1 5.84 0 3.44 3.44 0 0 1 1 2.64V42a3.49 3.49 0 0 1-1 2.66 4.88 4.88 0 0 1-5.84 0A3.42 3.42 0 0 1 48.33 42v-3.9a3.38 3.38 0 0 1 1.05-2.64zm4.46 1.26a2.66 2.66 0 0 0-3.08 0 1.78 1.78 0 0 0-.55 1.38V42a1.78 1.78 0 0 0 .55 1.38 2.67 2.67 0 0 0 3.08 0 1.78 1.78 0 0 0 .54-1.38v-3.9a1.78 1.78 0 0 0-.54-1.38z"/></svg>