<svg xmlns="http://www.w3.org/2000/svg" viewBox="0 0 64 64"><path d="M44.69,43v.58A1.26,1.26,0,0,0,44.69,43Z" fill="none"/><path d="M26.1,44.54l14.65-8.79-2-3.63L33,21.62a1.18,1.18,0,0,0-2.08,0l-5.73,10.5L19.41,42.78a1.18,1.18,0,0,0,.21,1.41,1.14,1.14,0,0,0,.84.35Zm10.4-8.29a.75.75,0,1,1,.75-.75A.76.76,0,0,1,36.5,36.25Zm-2.14-3.57,2.57-1.54a.51.51,0,0,1,.69.17l.19.32a.52.52,0,0,1-.17.69l-2.57,1.54a.51.51,0,0,1-.69-.17l-.19-.32A.52.52,0,0,1,34.36,32.68Zm-7.15,3.47,2.23-2a1,1,0,0,1,1.41.07l2,2.23a1,1,0,0,1-.07,1.41l-2.23,2a1,1,0,0,1-1.41-.07l-2-2.23A1,1,0,0,1,27.21,36.15ZM25,39.25a.75.75,0,1,1-.75.75A.76.76,0,0,1,25,39.25Z" fill="none"/><path d="M32,44.54H43.54a1.14,1.14,0,0,0,.84-.35,1.16,1.16,0,0,0,.32-.57V43a2.77,2.77,0,0,0-.1-.26l-3.84-7L26.1,44.54Z"/><rect x="34" y="31.81" width="4" height="1.37" rx="0.5" transform="translate(-11.6 23.18) rotate(-31)"/><circle cx="36.5" cy="35.5" r="0.75"/><circle cx="25" cy="40" r="0.75"/><rect x="27.5" y="34.5" width="5" height="5" rx="1" transform="translate(-17.05 29.58) rotate(-42)"/><path d="M41,30.91,34.64,19.24a3,3,0,0,0-5.28,0L23,30.91,16.42,43a3,3,0,0,0,2.64,4.44H44.94A3,3,0,0,0,47.58,43ZM19.41,42.78l5.82-10.66L31,21.62a1.18,1.18,0,0,1,2.08,0l5.73,10.5,2,3.63,3.84,7a2.77,2.77,0,0,1,.1.26,1.26,1.26,0,0,1,0,.58,1.16,1.16,0,0,1-.32.57,1.14,1.14,0,0,1-.84.35H20.46a1.14,1.14,0,0,1-.84-.35A1.18,1.18,0,0,1,19.41,42.78Z"/></svg>