<svg xmlns="http://www.w3.org/2000/svg" viewBox="0 0 64 64"><circle cx="32" cy="32" r="10.5"/><path d="M32,56a1.5,1.5,0,0,1-1.5-1.5V48.29a1.5,1.5,0,1,1,3,0V54.5A1.5,1.5,0,0,1,32,56ZM16.09,49.41A1.51,1.51,0,0,1,15,49a1.49,1.49,0,0,1,0-2.12l4.39-4.39a1.5,1.5,0,1,1,2.12,2.12L17.15,49A1.51,1.51,0,0,1,16.09,49.41Zm31.82,0A1.51,1.51,0,0,1,46.85,49l-4.39-4.39a1.5,1.5,0,1,1,2.12-2.12L49,46.85A1.49,1.49,0,0,1,49,49,1.51,1.51,0,0,1,47.91,49.41ZM54.5,33.5H48.29a1.5,1.5,0,1,1,0-3H54.5a1.5,1.5,0,0,1,0,3Zm-38.79,0H9.5a1.5,1.5,0,0,1,0-3h6.21a1.5,1.5,0,0,1,0,3ZM43.52,22a1.51,1.51,0,0,1-1.06-.44,1.49,1.49,0,0,1,0-2.12L46.85,15A1.5,1.5,0,0,1,49,17.15l-4.39,4.39A1.51,1.51,0,0,1,43.52,22Zm-23,0a1.51,1.51,0,0,1-1.06-.44L15,17.15A1.5,1.5,0,0,1,17.15,15l4.39,4.39a1.49,1.49,0,0,1,0,2.12A1.51,1.51,0,0,1,20.48,22ZM32,17.21a1.5,1.5,0,0,1-1.5-1.5V9.5a1.5,1.5,0,0,1,3,0v6.21A1.5,1.5,0,0,1,32,17.21Z"/></svg>