<svg xmlns="http://www.w3.org/2000/svg" viewBox="0 0 64 64"><path d="M21.5,32a10.48,10.48,0,0,0,2.15,6.35l14.7-14.7A10.49,10.49,0,0,0,21.5,32Z"/><path d="M42.46,19.42a1.41,1.41,0,0,0-.24.36l5-5a1.41,1.41,0,0,0-.36.24Z"/><path d="M19.42,42.46,15,46.85a1.41,1.41,0,0,0-.24.36l5-5A1.41,1.41,0,0,0,19.42,42.46Z"/><path d="M9.5,30.5a1.5,1.5,0,0,0,0,3h6.21a1.5,1.5,0,0,0,0-3Z"/><path d="M20.48,22a1.51,1.51,0,0,0,1.06-.44,1.49,1.49,0,0,0,0-2.12L17.15,15A1.5,1.5,0,0,0,15,17.15l4.39,4.39A1.51,1.51,0,0,0,20.48,22Z"/><path d="M32,8a1.5,1.5,0,0,0-1.5,1.5v6.21a1.5,1.5,0,0,0,3,0V9.5A1.5,1.5,0,0,0,32,8Z"/><path d="M23.83,46.17a1.53,1.53,0,0,0,1.06.44A1.49,1.49,0,0,0,26,46.17L29.14,43A1.51,1.51,0,1,0,27,40.86l-3.18,3.19A1.51,1.51,0,0,0,23.83,46.17Z"/><path d="M36.92,31l-5,4.95A1.51,1.51,0,0,0,34.09,38l4.95-5A1.5,1.5,0,1,0,36.92,31Z"/><path d="M41.86,28.14a1.51,1.51,0,0,0,2.13,0L47.17,25a1.5,1.5,0,0,0-2.12-2.12L41.86,26A1.52,1.52,0,0,0,41.86,28.14Z"/><path d="M34.89,46.61A1.49,1.49,0,0,0,36,46.17L39.14,43A1.51,1.51,0,1,0,37,40.86l-3.18,3.19a1.51,1.51,0,0,0,0,2.12A1.53,1.53,0,0,0,34.89,46.61Z"/><path d="M46.92,31l-5,4.95A1.51,1.51,0,0,0,44.09,38l4.95-5A1.5,1.5,0,1,0,46.92,31Z"/><path d="M55.05,22.83,51.86,26A1.51,1.51,0,0,0,54,28.14L57.17,25a1.5,1.5,0,0,0-2.12-2.12Z"/></svg>