<svg xmlns="http://www.w3.org/2000/svg" viewBox="0 0 64 64"><path d="M47.25,30H11.75a1.5,1.5,0,0,1,0-3h35.5a3.5,3.5,0,0,0,0-7,3.43,3.43,0,0,0-2.52,1.08A1.5,1.5,0,0,1,42.56,19a6.44,6.44,0,0,1,4.69-2,6.5,6.5,0,0,1,0,13Z"/><path d="M32.75,47a6.44,6.44,0,0,1-4.69-2,1.5,1.5,0,0,1,2.17-2.08A3.43,3.43,0,0,0,32.75,44a3.5,3.5,0,0,0,0-7h-21a1.5,1.5,0,0,1,0-3h21a6.5,6.5,0,0,1,0,13Z"/><path d="M30.5,40.5h-9a1,1,0,0,1,0-2h9a1,1,0,0,1,0,2Z"/><path d="M20.5,25.5h-9a1,1,0,0,1,0-2h9a1,1,0,0,1,0,2Z"/><path d="M36.5,33h-9a1,1,0,0,1,0-2h9a1,1,0,0,1,0,2Z"/></svg>