<svg xmlns="http://www.w3.org/2000/svg" viewBox="0 0 64 64"><path d="M23.94,26.08a1.71,1.71,0,0,0-.51,1.24,1.73,1.73,0,0,0,2.94,1.2,1.61,1.61,0,0,0,.52-1.2,1.71,1.71,0,0,0-.51-1.24,1.71,1.71,0,0,0-2.44,0Z" fill="none"/><path d="M22.36,24.51a3.92,3.92,0,1,0,5.55,5.55,3.84,3.84,0,0,0,1.16-2.76,3.88,3.88,0,0,0-3.91-3.92A3.85,3.85,0,0,0,22.36,24.51Zm4.53,2.81a1.61,1.61,0,0,1-.52,1.2,1.65,1.65,0,0,1-1.21.5,1.72,1.72,0,0,1-1.73-1.7,1.71,1.71,0,0,1,.51-1.24,1.71,1.71,0,0,1,2.44,0A1.71,1.71,0,0,1,26.89,27.32Z"/><path d="M41.94,26.38a.91.91,0,0,0,.64-.18.83.83,0,0,0,.2-.63V24.39a.83.83,0,0,0-.2-.63.91.91,0,0,0-.64-.18H32.41a.94.94,0,0,0-.65.18.83.83,0,0,0-.19.63V39.8a.86.86,0,0,0,.19.64.94.94,0,0,0,.65.18h1.37a.88.88,0,0,0,.63-.18.91.91,0,0,0,.18-.64V33.61h6.17a.93.93,0,0,0,.66-.18.89.89,0,0,0,.18-.64V31.62a.84.84,0,0,0-.19-.64,1,1,0,0,0-.65-.18H34.59V26.38Z"/></svg>