<svg xmlns="http://www.w3.org/2000/svg" viewBox="0 0 64 64"><path d="M37,15.14a.23.23,0,0,0-.38.21l.81,3.12a.2.2,0,0,1-.06.21L35.14,21a.23.23,0,0,0,.21.38l3.12-.81a.2.2,0,0,1,.21.06L41,22.86a.23.23,0,0,0,.38-.21l-.81-3.12a.2.2,0,0,1,.06-.21L42.86,17a.23.23,0,0,0-.21-.38l-3.12.81a.2.2,0,0,1-.21-.06Z"/><path d="M47.08,27.76l-.86-3.1a.23.23,0,0,0-.44,0l-.86,3.1a.22.22,0,0,1-.16.16l-3.1.86a.23.23,0,0,0,0,.44l3.1.86a.22.22,0,0,1,.16.16l.86,3.1a.23.23,0,0,0,.44,0l.86-3.1a.22.22,0,0,1,.16-.16l3.1-.86a.23.23,0,0,0,0-.44l-3.1-.86A.22.22,0,0,1,47.08,27.76Z"/><path d="M40.16,24.67a.59.59,0,0,0,.22-.05L41.72,24a.5.5,0,0,0-.44-.9l-1.35.67a.51.51,0,0,0-.22.67A.5.5,0,0,0,40.16,24.67Z"/><path d="M37.67,24.86,35.41,26a.5.5,0,0,0-.23.67.51.51,0,0,0,.45.27.42.42,0,0,0,.22-.05l2.27-1.13a.5.5,0,0,0,.22-.67A.49.49,0,0,0,37.67,24.86Z"/><path d="M33.59,28a.5.5,0,0,0,.23-.67.52.52,0,0,0-.68-.22L32,27.69c.16.29.34.58.52.86Z"/><path d="M46.61,21.68a.2.2,0,0,1-.06-.21l.81-3.12a.23.23,0,0,0-.38-.21l-2.3,2.25a.2.2,0,0,1-.21.06l-3.12-.81a.23.23,0,0,0-.21.38l2.25,2.3a.2.2,0,0,1,.06.21l-.81,3.12a.23.23,0,0,0,.38.21l2.3-2.25a.2.2,0,0,1,.21-.06l3.12.81a.23.23,0,0,0,.21-.38Z"/><path d="M15.5,32a16.79,16.79,0,0,0,33,4.15c-.61.06-1.22.1-1.84.1a16.8,16.8,0,0,1-14.14-7.65c-.18-.28-.36-.57-.52-.86A16.18,16.18,0,0,1,30.43,15.5,16.64,16.64,0,0,0,15.5,32Z"/></svg>