<svg xmlns="http://www.w3.org/2000/svg" xmlns:xlink="http://www.w3.org/1999/xlink" viewBox="0 0 64 64"><defs><clipPath id="a"><polygon points="64 2.79 30 23 32 29 37 33 64 21 64 2.79" fill="none"/></clipPath></defs><path d="M35.35,21.36l3.12-.81a.2.2,0,0,1,.21.06L41,22.86a.23.23,0,0,0,.38-.21l-.81-3.12a.2.2,0,0,1,.06-.21L42.86,17a.23.23,0,0,0-.21-.38l-3.12.81a.2.2,0,0,1-.21-.06L37,15.14a.23.23,0,0,0-.38.21l.81,3.12a.2.2,0,0,1-.06.21L35.14,21A.23.23,0,0,0,35.35,21.36Z"/><path d="M41.66,29.22l3.1.86a.22.22,0,0,1,.16.16l.86,3.1a.23.23,0,0,0,.44,0l.86-3.1a.22.22,0,0,1,.16-.16l3.1-.86a.23.23,0,0,0,0-.44l-3.1-.86a.22.22,0,0,1-.16-.16l-.86-3.1a.23.23,0,0,0-.44,0l-.86,3.1a.22.22,0,0,1-.16.16l-3.1.86A.23.23,0,0,0,41.66,29.22Z"/><g clip-path="url(#a)"><path d="M40.16,24.67a.5.5,0,0,1-.45-.28.51.51,0,0,1,.22-.67l1.35-.67a.5.5,0,0,1,.44.9l-1.34.67A.59.59,0,0,1,40.16,24.67Z"/><path d="M31.1,29.2a.5.5,0,0,1-.22-.95l2.26-1.13a.52.52,0,0,1,.68.22.5.5,0,0,1-.23.67l-2.26,1.14A.59.59,0,0,1,31.1,29.2Zm4.53-2.27a.51.51,0,0,1-.45-.27.5.5,0,0,1,.23-.67l2.26-1.13a.49.49,0,0,1,.67.22.5.5,0,0,1-.22.67l-2.27,1.13A.42.42,0,0,1,35.63,26.93Z"/><path d="M27.5,31a.5.5,0,0,1-.22-.95l1.34-.67a.5.5,0,0,1,.67.23.51.51,0,0,1-.22.67L27.72,31A.54.54,0,0,1,27.5,31Z"/><path d="M41.14,20l2.25,2.3a.2.2,0,0,1,.06.21l-.81,3.12a.23.23,0,0,0,.38.21l2.3-2.25a.2.2,0,0,1,.21-.06l3.12.81a.23.23,0,0,0,.21-.38l-2.25-2.3a.2.2,0,0,1-.06-.21l.81-3.12a.23.23,0,0,0-.38-.21l-2.3,2.25a.2.2,0,0,1-.21.06l-3.12-.81A.23.23,0,0,0,41.14,20Z"/></g><path d="M46.66,36.2A16.66,16.66,0,0,1,29.88,19.65a16.29,16.29,0,0,1,.55-4.15A16.56,16.56,0,1,0,48.5,36.1C47.89,36.16,47.28,36.2,46.66,36.2Z"/></svg>