<svg xmlns="http://www.w3.org/2000/svg" viewBox="0 0 64 64"><path d="M21.5,56.5H17a1.5,1.5,0,0,0,0,3h4.5a1.5,1.5,0,0,0,0-3Z"/><path d="M35.5,56.5h-7a1.5,1.5,0,0,0,0,3h7a1.5,1.5,0,0,0,0-3Z"/><path d="M47,56.5H42.5a1.5,1.5,0,0,0,0,3H47a1.5,1.5,0,0,0,0-3Z"/><path d="M21.5,50.5H17a1.5,1.5,0,0,0,0,3h4.5a1.5,1.5,0,0,0,0-3Z"/><path d="M35.5,50.5h-7a1.5,1.5,0,0,0,0,3h7a1.5,1.5,0,0,0,0-3Z"/><path d="M47,50.5H42.5a1.5,1.5,0,0,0,0,3H47a1.5,1.5,0,0,0,0-3Z"/><path d="M18.65,45l.48,0v0h26.7a6.74,6.74,0,0,0,0-13.48h-.31A10.05,10.05,0,0,0,35.81,19a10,10,0,0,0-8.51,4.8,6.56,6.56,0,0,0-3.4-.95,6.71,6.71,0,0,0-6.68,6.74,6.62,6.62,0,0,0,.1,1.1A7.22,7.22,0,0,0,18.65,45Z"/></svg>