<svg xmlns="http://www.w3.org/2000/svg" viewBox="0 0 64 64"><path d="M21.5,39c0,.17,0,.33,0,.5H42.47c0-.17,0-.33,0-.5a10.5,10.5,0,0,0-21,0Z"/><path d="M54.5,37.5H48.29a1.5,1.5,0,0,0-1.5,1.5,1.64,1.64,0,0,0,.09.5h9A1.64,1.64,0,0,0,56,39,1.5,1.5,0,0,0,54.5,37.5Z"/><path d="M49,22a1.49,1.49,0,0,0-2.12,0l-4.39,4.39a1.49,1.49,0,0,0,0,2.12,1.5,1.5,0,0,0,2.12,0L49,24.15A1.49,1.49,0,0,0,49,22Z"/><path d="M17.21,39a1.5,1.5,0,0,0-1.5-1.5H9.5A1.5,1.5,0,0,0,8,39a1.64,1.64,0,0,0,.09.5h9A1.64,1.64,0,0,0,17.21,39Z"/><path d="M33.5,22.71V16.5a1.5,1.5,0,0,0-3,0v6.21a1.5,1.5,0,0,0,3,0Z"/><path d="M17.15,22A1.5,1.5,0,0,0,15,24.15l4.39,4.39a1.5,1.5,0,0,0,2.12,0,1.49,1.49,0,0,0,0-2.12Z"/><path d="M21.5,42.5H17a1.5,1.5,0,0,0,0,3h4.5a1.5,1.5,0,0,0,0-3Z"/><path d="M35.5,45.5a1.5,1.5,0,0,0,0-3h-7a1.5,1.5,0,0,0,0,3Z"/><path d="M41,44a1.5,1.5,0,0,0,1.5,1.5H47a1.5,1.5,0,0,0,0-3H42.5A1.5,1.5,0,0,0,41,44Z"/><path d="M23,51a1.5,1.5,0,0,0-1.5-1.5H17a1.5,1.5,0,0,0,0,3h4.5A1.5,1.5,0,0,0,23,51Z"/><path d="M27,51a1.5,1.5,0,0,0,1.5,1.5h7a1.5,1.5,0,0,0,0-3h-7A1.5,1.5,0,0,0,27,51Z"/><path d="M41,51a1.5,1.5,0,0,0,1.5,1.5H47a1.5,1.5,0,0,0,0-3H42.5A1.5,1.5,0,0,0,41,51Z"/></svg>