<svg xmlns="http://www.w3.org/2000/svg" viewBox="0 0 64 64"><path d="M32,17c-6.09,9-10,14.62-10,20.09a10,10,0,0,0,20,0C42,31.62,38.09,26,32,17ZM25.5,33.35V32.11a2.51,2.51,0,0,1,.74-1.92,3,3,0,0,1,2.12-.69,3,3,0,0,1,2.12.69,2.51,2.51,0,0,1,.74,1.92v1.24a2.48,2.48,0,0,1-.74,1.9,3.05,3.05,0,0,1-2.12.68,3,3,0,0,1-2.12-.68A2.48,2.48,0,0,1,25.5,33.35ZM29,41.69a1.37,1.37,0,0,1-.44.44,1.87,1.87,0,0,1-.72.09h-.67c-.2,0-.33-.06-.38-.18s0-.25.09-.42l8.2-11.35a1,1,0,0,1,.41-.41,2,2,0,0,1,.67-.08h.76q.29,0,.36.18a.42.42,0,0,1-.08.4Zm9.52-1.77a2.48,2.48,0,0,1-.74,1.9,3,3,0,0,1-2.12.68,3.05,3.05,0,0,1-2.12-.68,2.48,2.48,0,0,1-.74-1.9V38.68a2.51,2.51,0,0,1,.74-1.92,3,3,0,0,1,2.12-.69,3,3,0,0,1,2.12.69,2.51,2.51,0,0,1,.74,1.92Z"/><path d="M35.64,37.7c-.79,0-1.19.35-1.19,1.07v1c0,.73.4,1.09,1.19,1.09s1.19-.36,1.19-1.09v-1C36.83,38.05,36.43,37.7,35.64,37.7Z"/><path d="M29.55,33.25v-1c0-.71-.4-1.07-1.19-1.07s-1.19.36-1.19,1.07v1c0,.71.4,1.07,1.19,1.07S29.55,34,29.55,33.25Z"/><path d="M30.48,35.25a2.48,2.48,0,0,0,.74-1.9V32.11a2.51,2.51,0,0,0-.74-1.92,3,3,0,0,0-2.12-.69,3,3,0,0,0-2.12.69,2.51,2.51,0,0,0-.74,1.92v1.24a2.48,2.48,0,0,0,.74,1.9,3,3,0,0,0,2.12.68A3.05,3.05,0,0,0,30.48,35.25Zm-3.31-2v-1c0-.71.4-1.07,1.19-1.07s1.19.36,1.19,1.07v1c0,.71-.4,1.07-1.19,1.07S27.17,34,27.17,33.25Z" fill="#fff"/><path d="M35.64,36.07a3,3,0,0,0-2.12.69,2.51,2.51,0,0,0-.74,1.92v1.24a2.48,2.48,0,0,0,.74,1.9,3.05,3.05,0,0,0,2.12.68,3,3,0,0,0,2.12-.68,2.48,2.48,0,0,0,.74-1.9V38.68a2.51,2.51,0,0,0-.74-1.92A3,3,0,0,0,35.64,36.07Zm1.19,3.73c0,.73-.4,1.09-1.19,1.09s-1.19-.36-1.19-1.09v-1c0-.72.4-1.07,1.19-1.07s1.19.35,1.19,1.07Z" fill="#fff"/><path d="M37.26,30q-.07-.18-.36-.18h-.76a2,2,0,0,0-.67.08,1,1,0,0,0-.41.41l-8.2,11.35c-.11.17-.15.31-.09.42s.18.18.38.18h.67a1.87,1.87,0,0,0,.72-.09,1.37,1.37,0,0,0,.44-.44l8.2-11.33A.42.42,0,0,0,37.26,30Z" fill="#fff"/></svg>