<svg xmlns="http://www.w3.org/2000/svg" viewBox="0 0 64 64"><path d="M39,50.89a1.5,1.5,0,0,1-1.34-2.17l.48-1a32.86,32.86,0,0,0,2.45-6.68A12.49,12.49,0,0,1,19.5,32c0-.14,0-.28,0-.43A35.32,35.32,0,0,1,23.18,14.9l.48-1a1.5,1.5,0,0,1,2.69,1.34l-.48,1a32.86,32.86,0,0,0-2.45,6.68A12.49,12.49,0,0,1,44.5,32c0,.14,0,.28,0,.43A35.32,35.32,0,0,1,40.82,49.1l-.48,1A1.51,1.51,0,0,1,39,50.89ZM22.61,33.44a9.5,9.5,0,0,0,18.88-1q0-.84-.09-1.68a.91.91,0,0,1,0-.17,9.5,9.5,0,0,0-18.88,1q0,.84.09,1.68A1,1,0,0,1,22.61,33.44Z"/></svg>