<svg xmlns="http://www.w3.org/2000/svg" viewBox="0 0 64 64"><path d="M32,41.5a9.51,9.51,0,0,0,9.49-9.09q0-.84-.09-1.68a.91.91,0,0,1,0-.17,9.5,9.5,0,0,0-18.88,1q0,.84.09,1.68a1,1,0,0,1,0,.17A9.51,9.51,0,0,0,32,41.5Z" fill="none"/><path d="M32,44.5a12.44,12.44,0,0,0,8.58-3.42,32.86,32.86,0,0,1-2.45,6.68l-.48,1A1.5,1.5,0,0,0,39,50.89a1.51,1.51,0,0,0,1.35-.83l.48-1a35.32,35.32,0,0,0,3.67-16.67c0-.15,0-.29,0-.43a12.49,12.49,0,0,0-21.08-9.08,32.86,32.86,0,0,1,2.45-6.68l.48-1a1.5,1.5,0,0,0-2.69-1.34l-.48,1a35.32,35.32,0,0,0-3.67,16.67c0,.15,0,.29,0,.43A12.52,12.52,0,0,0,32,44.5ZM22.6,33.27q-.06-.84-.09-1.68a9.5,9.5,0,0,1,18.88-1,.91.91,0,0,0,0,.17q.06.84.09,1.68a9.5,9.5,0,0,1-18.88,1A1,1,0,0,0,22.6,33.27Z"/></svg>