<svg xmlns="http://www.w3.org/2000/svg" xmlns:xlink="http://www.w3.org/1999/xlink" viewBox="0 0 64 64"><defs><clipPath id="a"><rect y="7.5" width="64" height="32" fill="none"/></clipPath></defs><g clip-path="url(#a)"><path d="M46.66,36.2A16.66,16.66,0,0,1,29.88,19.65a16.29,16.29,0,0,1,.55-4.15A16.56,16.56,0,1,0,48.5,36.1C47.89,36.16,47.28,36.2,46.66,36.2Z"/></g><path d="M32,48a1,1,0,0,1-.67-.26L26.62,43.5H16a1,1,0,0,1,0-2H27a1,1,0,0,1,.67.26L32,45.65l4.33-3.89A1,1,0,0,1,37,41.5H48a1,1,0,0,1,0,2H37.38l-4.71,4.24A1,1,0,0,1,32,48Z"/></svg>