<svg xmlns="http://www.w3.org/2000/svg" viewBox="0 0 64 64"><path d="M15.85,35.43a.51.51,0,0,0-.37.6,17.87,17.87,0,0,0,.61,2,.49.49,0,0,0,.47.32l.17,0a.5.5,0,0,0,.29-.65,17,17,0,0,1-.57-1.84A.5.5,0,0,0,15.85,35.43Z"/><path d="M16.1,27.54a.48.48,0,0,0-.6.36,17.12,17.12,0,0,0-.38,2,.52.52,0,0,0,.44.56h.06a.5.5,0,0,0,.5-.44,15.13,15.13,0,0,1,.35-1.9A.5.5,0,0,0,16.1,27.54Z"/><path d="M26,16.09a15.75,15.75,0,0,0-1.87.85.49.49,0,0,0-.21.67.5.5,0,0,0,.44.27.46.46,0,0,0,.23-.06A14.56,14.56,0,0,1,26.34,17a.5.5,0,0,0,.29-.65A.51.51,0,0,0,26,16.09Z"/><path d="M18.84,22.89A16,16,0,0,1,20,21.37a.5.5,0,0,0,0-.7.5.5,0,0,0-.71,0A18,18,0,0,0,18,22.32a.51.51,0,0,0,.13.7.49.49,0,0,0,.69-.13Z"/><path d="M29.52,15.12a17.2,17.2,0,0,1,1.73,4A17.76,17.76,0,0,1,17.46,41.29,16.83,16.83,0,0,0,37,48.74,17.83,17.83,0,0,0,49,27,16.78,16.78,0,0,0,29.52,15.12Z"/></svg>