<svg xmlns="http://www.w3.org/2000/svg" viewBox="0 0 64 64"><path d="M46,22.35a.5.5,0,1,0-.82.56,15.55,15.55,0,0,1,1,1.66.5.5,0,1,0,.89-.47A16.36,16.36,0,0,0,46,22.35Z"/><path d="M41.1,18.84a.46.46,0,0,0,.28.08.48.48,0,0,0,.41-.21.51.51,0,0,0-.12-.7A18.24,18.24,0,0,0,39.91,17a.5.5,0,0,0-.46.88A16.57,16.57,0,0,1,41.1,18.84Z"/><path d="M49,32A17.36,17.36,0,0,0,48.88,30a.5.5,0,0,0-1,.12A15.39,15.39,0,0,1,48,32v.07a.47.47,0,0,0,.5.46A.52.52,0,0,0,49,32Z"/><path d="M46.14,39.49a.5.5,0,0,0,.21.67A.5.5,0,0,0,47,40a19.55,19.55,0,0,0,.85-1.87.51.51,0,0,0-.29-.65.5.5,0,0,0-.65.29A14.63,14.63,0,0,1,46.14,39.49Z"/><path d="M31.52,15.5a.5.5,0,0,0,.5.5,15.35,15.35,0,0,1,1.92.12H34a.5.5,0,0,0,.49-.44.51.51,0,0,0-.43-.56A17.62,17.62,0,0,0,32,15,.5.5,0,0,0,31.52,15.5Z"/><path d="M16,39.12a17.68,17.68,0,0,0,23.43,8.72,13.45,13.45,0,0,0,5.94-4.23A17.37,17.37,0,0,1,32.32,14.29a17.44,17.44,0,0,0-7.11,1.58A17.68,17.68,0,0,0,16,39.12Z"/></svg>