<svg xmlns="http://www.w3.org/2000/svg" viewBox="0 0 64 64"><path d="M33.94,48.89a.5.5,0,0,1-.06-1,15.11,15.11,0,0,0,1.9-.34.51.51,0,0,1,.61.37.5.5,0,0,1-.37.6,17.83,17.83,0,0,1-2,.36ZM28,48.51h-.12a17.13,17.13,0,0,1-2-.62.5.5,0,1,1,.35-.93,18,18,0,0,0,1.85.58.5.5,0,0,1-.12,1Zm13.32-2.4a.47.47,0,0,1-.41-.22A.5.5,0,0,1,41,45.2,15.71,15.71,0,0,0,42.57,44a.51.51,0,0,1,.71.05.49.49,0,0,1-.05.7A16,16,0,0,1,41.61,46,.49.49,0,0,1,41.33,46.11ZM21,44.82a.5.5,0,0,1-.33-.12,15.37,15.37,0,0,1-1.45-1.46.5.5,0,0,1,0-.7.51.51,0,0,1,.71,0A14.66,14.66,0,0,0,21.36,44a.5.5,0,0,1,0,.71A.49.49,0,0,1,21,44.82Zm25.55-4.6a.53.53,0,0,1-.23-.06.5.5,0,0,1-.21-.67,14.63,14.63,0,0,0,.8-1.76.5.5,0,0,1,.65-.29.51.51,0,0,1,.29.65A19.55,19.55,0,0,1,47,40,.52.52,0,0,1,46.58,40.22Zm-30-1.9a.49.49,0,0,1-.47-.32,16.64,16.64,0,0,1-.61-2,.51.51,0,0,1,.37-.6.5.5,0,0,1,.6.37c.16.62.35,1.24.57,1.84a.5.5,0,0,1-.29.65ZM48.5,32.53a.47.47,0,0,1-.5-.46V32a15.39,15.39,0,0,0-.12-1.93.5.5,0,0,1,1-.12A17.36,17.36,0,0,1,49,32,.52.52,0,0,1,48.5,32.53ZM15.62,30.48h-.06a.5.5,0,0,1-.43-.56,15.9,15.9,0,0,1,.37-2,.49.49,0,0,1,.6-.36.5.5,0,0,1,.37.6,15.83,15.83,0,0,0-.35,1.9A.51.51,0,0,1,15.62,30.48Zm31-5.65a.5.5,0,0,1-.45-.26,15.55,15.55,0,0,0-1-1.66.5.5,0,1,1,.82-.56,16.36,16.36,0,0,1,1.07,1.75.49.49,0,0,1-.44.73ZM18.43,23.11a.51.51,0,0,1-.41-.79,18,18,0,0,1,1.27-1.61.5.5,0,0,1,.71,0,.5.5,0,0,1,0,.7,16,16,0,0,0-1.2,1.52A.49.49,0,0,1,18.43,23.11Zm23-4.19a.46.46,0,0,1-.28-.08,16.57,16.57,0,0,0-1.65-1,.5.5,0,0,1,.46-.88A18.24,18.24,0,0,1,41.67,18a.51.51,0,0,1,.12.7A.48.48,0,0,1,41.38,18.92Zm-17-1a.49.49,0,0,1-.44-.27.5.5,0,0,1,.21-.68A19.46,19.46,0,0,1,26,16.09a.5.5,0,0,1,.35.94,15.3,15.3,0,0,0-1.76.79A.46.46,0,0,1,24.35,17.88ZM34,16.12h-.06A15.35,15.35,0,0,0,32,16a.5.5,0,0,1,0-1,17.32,17.32,0,0,1,2,.12.5.5,0,0,1-.06,1Z"/></svg>