<svg xmlns="http://www.w3.org/2000/svg" viewBox="0 0 64 64"><path d="M26,16.09a15.75,15.75,0,0,0-1.87.85.49.49,0,0,0-.21.67.5.5,0,0,0,.44.27.46.46,0,0,0,.23-.06A14.56,14.56,0,0,1,26.34,17a.5.5,0,0,0-.35-.94Z"/><path d="M32,16a15.35,15.35,0,0,1,1.92.12H34a.5.5,0,0,0,.49-.44.51.51,0,0,0-.43-.56A17.62,17.62,0,0,0,32,15a.5.5,0,0,0,0,1Z"/><path d="M16.09,38a.49.49,0,0,0,.47.32l.17,0a.5.5,0,0,0,.29-.65,17,17,0,0,1-.57-1.84.5.5,0,0,0-.6-.37.51.51,0,0,0-.37.6A17.87,17.87,0,0,0,16.09,38Z"/><path d="M15.56,30.48h.06a.5.5,0,0,0,.5-.44,15.13,15.13,0,0,1,.35-1.9.5.5,0,0,0-.37-.6.48.48,0,0,0-.6.36,17.12,17.12,0,0,0-.38,2A.52.52,0,0,0,15.56,30.48Z"/><path d="M20,20.67a.5.5,0,0,0-.71,0A18,18,0,0,0,18,22.32a.51.51,0,0,0,.13.7.49.49,0,0,0,.69-.13A16,16,0,0,1,20,21.37.5.5,0,0,0,20,20.67Z"/><path d="M20.7,44.7a.5.5,0,0,0,.33.12.47.47,0,0,0,.37-.16.5.5,0,0,0,0-.71A16,16,0,0,1,20,42.58a.51.51,0,0,0-.71,0,.5.5,0,0,0,0,.7A16.66,16.66,0,0,0,20.7,44.7Z"/><path d="M48,39.12A17.51,17.51,0,0,0,39.12,16a18.38,18.38,0,0,0-2.38-.86l.08.06h0C48.36,27.3,39.45,47.3,22.75,46.82l-.1,0A18.21,18.21,0,0,0,24.88,48,17.51,17.51,0,0,0,48,39.12Z"/></svg>