<svg xmlns="http://www.w3.org/2000/svg" xmlns:xlink="http://www.w3.org/1999/xlink" viewBox="0 0 64 64"><defs><clipPath id="a"><path d="M0,7.5v32H25.85L30,35.77a3,3,0,0,1,4,0l4.14,3.73H64V7.5Z" fill="none"/></clipPath></defs><path d="M48,43.5H37a1,1,0,0,1-.67-.26L32,39.35l-4.33,3.89a1,1,0,0,1-.67.26H16a1,1,0,0,1,0-2H26.62l4.71-4.24a1,1,0,0,1,1.34,0l4.71,4.24H48a1,1,0,0,1,0,2Z"/><g clip-path="url(#a)"><path d="M46.66,36.2A16.66,16.66,0,0,1,29.88,19.65a16.29,16.29,0,0,1,.55-4.15A16.56,16.56,0,1,0,48.5,36.1C47.89,36.16,47.28,36.2,46.66,36.2Z"/></g></svg>