<svg xmlns="http://www.w3.org/2000/svg" viewBox="0 0 64 64"><path d="M43.2,28.9a10,10,0,0,1-.31-1.2c-.09-.43-.14-.76-.17-1l0-.36h-.15a7.73,7.73,0,0,1-.46,2.54l-1.62,4.45H44.8Z" fill="none"/><path d="M17,28c.15.38.36.86.64,1.43a11.62,11.62,0,0,0,.85,1.5l5.14,7.6a.75.75,0,0,0,.69.35h1.2a.59.59,0,0,0,.72-.71V24.64a.83.83,0,0,0-.16-.56.82.82,0,0,0-.56-.15H24.43a.82.82,0,0,0-.56.15.83.83,0,0,0-.15.56v6.51a16.11,16.11,0,0,0,.11,1.94c.08.67.15,1.21.23,1.63s.12.64.12.67h-.13s-.09-.21-.24-.6-.36-.86-.63-1.41a13,13,0,0,0-.89-1.56l-5.1-7.56a.81.81,0,0,0-.7-.33H15.3a.85.85,0,0,0-.57.15.78.78,0,0,0-.17.56V38.12a.76.76,0,0,0,.17.56.85.85,0,0,0,.57.15h1.11a.79.79,0,0,0,.55-.15.77.77,0,0,0,.16-.56V31.53A18,18,0,0,0,17,29.65c-.08-.67-.16-1.21-.23-1.64s-.12-.65-.12-.66h.13S16.86,27.56,17,28Z"/><path d="M28.76,40.09h1.17a1,1,0,0,0,.54-.12,1.06,1.06,0,0,0,.32-.46l5.59-15a.5.5,0,0,0,0-.44c-.06-.09-.21-.14-.45-.14h-1.2a.94.94,0,0,0-.53.12,1.16,1.16,0,0,0-.33.46l-5.58,15a.43.43,0,0,0,0,.44C28.36,40,28.52,40.09,28.76,40.09Z"/><path d="M36.48,38.83h1a2.4,2.4,0,0,0,.91-.12.78.78,0,0,0,.39-.51l1-2.7h5.79l1,2.7a.78.78,0,0,0,.39.51,2.4,2.4,0,0,0,.91.12h1.09c.49,0,.65-.23.49-.69L44.13,24.47a.9.9,0,0,0-.32-.45,1.06,1.06,0,0,0-.57-.11H42.13a1,1,0,0,0-.55.11,1.07,1.07,0,0,0-.33.47L36,38.14Q35.74,38.83,36.48,38.83Zm5.61-9.95a7.73,7.73,0,0,0,.46-2.54h.15l0,.36c0,.24.08.57.17,1a10,10,0,0,0,.31,1.2l1.6,4.43H40.47Z"/></svg>