<svg xmlns="http://www.w3.org/2000/svg" viewBox="0 0 64 64"><path d="M55.6,28.89a3.52,3.52,0,0,0,.06-.66,4.06,4.06,0,0,0-6.13-3.48,6.07,6.07,0,0,0-4-2.77,12,12,0,0,1,2.33,7.13c0,.21,0,.43,0,.64a8.75,8.75,0,0,1,6.66,7.75h.32a4.34,4.34,0,0,0,.81-8.61Z"/><path d="M24.61,47a1,1,0,0,0,1-.85l.78-4.93a1,1,0,1,0-2-.31l-.78,4.93A1,1,0,0,0,24.45,47Z"/><path d="M29.4,49.88l-.78,4.93A1,1,0,0,0,29.45,56h.16a1,1,0,0,0,1-.85l.78-4.93a1,1,0,1,0-2-.31Z"/><path d="M35.81,19a10,10,0,0,0-8.51,4.8,6.56,6.56,0,0,0-3.4-.95,6.71,6.71,0,0,0-6.68,6.74,6.62,6.62,0,0,0,.1,1.1A7.22,7.22,0,0,0,18.65,45l.48,0v0h2.6l.7-4.44A3,3,0,0,1,25.38,38a2.81,2.81,0,0,1,.5,0,3,3,0,0,1,2.47,3.43L27.8,45h6.56l.07-.44a3,3,0,0,1,3-2.53,2.59,2.59,0,0,1,.48,0,3,3,0,0,1,2,1.2A2.93,2.93,0,0,1,40.38,45h5.45a6.74,6.74,0,0,0,0-13.48h-.31A10.05,10.05,0,0,0,35.81,19Z"/><path d="M36.45,51h.16a1,1,0,0,0,1-.85l.78-4.93a1,1,0,1,0-2-.31l-.78,4.93A1,1,0,0,0,36.45,51Z"/></svg>