<svg xmlns="http://www.w3.org/2000/svg" viewBox="0 0 64 64"><path d="M25.62,42.65a.77.77,0,0,0,1-.27.75.75,0,0,0-.28-1,.75.75,0,0,0-.38-.1.75.75,0,0,0-.38,1.4Z" fill="none"/><path d="M30.38,51.35a.75.75,0,0,0-.38-.1.75.75,0,0,0-.38,1.4.77.77,0,0,0,1-.27A.75.75,0,0,0,30.38,51.35Z" fill="none"/><path d="M37.62,46.65a.77.77,0,0,0,1-.27.75.75,0,0,0-.28-1,.75.75,0,0,0-.38-.1.75.75,0,0,0-.38,1.4Z" fill="none"/><path d="M14,24a5,5,0,0,0,1.46,3.53,8.73,8.73,0,0,1,7.45-6.62A5,5,0,0,0,14,24Z"/><path d="M11.58,15.16a1,1,0,0,0-1.42,1.42l2.24,2.24a1,1,0,0,0,.71.29,1,1,0,0,0,.71-.29,1,1,0,0,0,0-1.42Z"/><path d="M26.42,15.16,24.18,17.4a1,1,0,0,0,0,1.42,1,1,0,0,0,.71.29,1,1,0,0,0,.71-.29l2.24-2.24a1,1,0,1,0-1.42-1.42Z"/><path d="M6.5,24a1,1,0,0,0,1,1h3.17a1,1,0,1,0,0-2H7.5A1,1,0,0,0,6.5,24Z"/><path d="M14.09,29.79a1,1,0,0,0-.27-.61,1,1,0,0,0-1.42,0l-2.24,2.24a1,1,0,0,0,0,1.42,1,1,0,0,0,.63.28A9.16,9.16,0,0,1,14.09,29.79Z"/><path d="M20,15.67V12.5a1,1,0,0,0-2,0v3.17a1,1,0,0,0,2,0Z"/><path d="M55.6,28.89a3.52,3.52,0,0,0,.06-.66,4.06,4.06,0,0,0-6.13-3.48,6.07,6.07,0,0,0-4-2.77,12,12,0,0,1,2.33,7.13c0,.21,0,.43,0,.64a8.75,8.75,0,0,1,6.66,7.75h.32a4.34,4.34,0,0,0,.81-8.61Z"/><path d="M23.37,43.5a.5.5,0,0,0,.44.25.47.47,0,0,0,.25-.07l.72-.41a2,2,0,0,0,.33.25,1.5,1.5,0,0,0,.38.15v.83a.51.51,0,0,0,1,0v-.83a1.74,1.74,0,0,0,.71-.4l.72.41a.47.47,0,0,0,.25.07.5.5,0,0,0,.44-.25.49.49,0,0,0-.18-.68l-.73-.41a1.59,1.59,0,0,0,0-.81l.73-.42a.49.49,0,0,0,.18-.68.51.51,0,0,0-.69-.18l-.72.41a1.66,1.66,0,0,0-.71-.41V39.5a.51.51,0,0,0-1,0v.83a1.74,1.74,0,0,0-.71.4l-.72-.41a.51.51,0,0,0-.69.18.49.49,0,0,0,.18.68l.73.41a1.59,1.59,0,0,0,0,.81l-.73.42A.49.49,0,0,0,23.37,43.5Zm2-1.88a.76.76,0,0,1,.66-.37.75.75,0,0,1,.38.1.75.75,0,0,1,.28,1,.77.77,0,0,1-1,.27A.75.75,0,0,1,25.34,41.62Z"/><path d="M32.63,50.5a.51.51,0,0,0-.69-.18l-.72.41a1.66,1.66,0,0,0-.71-.41V49.5a.51.51,0,0,0-1,0v.83a1.74,1.74,0,0,0-.71.4l-.72-.41a.51.51,0,0,0-.69.18.49.49,0,0,0,.18.68l.73.41a1.59,1.59,0,0,0,0,.81l-.73.42a.49.49,0,0,0-.18.68.5.5,0,0,0,.44.25.47.47,0,0,0,.25-.07l.72-.41a2,2,0,0,0,.33.25,1.5,1.5,0,0,0,.38.15v.83a.51.51,0,0,0,1,0v-.83a1.74,1.74,0,0,0,.71-.4l.72.41a.47.47,0,0,0,.25.07.5.5,0,0,0,.44-.25.49.49,0,0,0-.18-.68l-.73-.41a1.59,1.59,0,0,0,0-.81l.73-.42A.49.49,0,0,0,32.63,50.5Zm-2,1.88a.77.77,0,0,1-1,.27.75.75,0,0,1,.38-1.4.75.75,0,0,1,.38.1A.75.75,0,0,1,30.66,52.38Z"/><path d="M35.81,19a10,10,0,0,0-8.51,4.8,6.56,6.56,0,0,0-3.4-.95,6.71,6.71,0,0,0-6.68,6.74,6.62,6.62,0,0,0,.1,1.1A7.22,7.22,0,0,0,18.65,45l.48,0v0h3.72a2,2,0,0,1-1-2.26,1.91,1.91,0,0,1,.37-.74,1.91,1.91,0,0,1-.37-.74,1.94,1.94,0,0,1,.21-1.52,2,2,0,0,1,1.73-1,1.73,1.73,0,0,1,.32,0,2,2,0,0,1,3.74,0,1.73,1.73,0,0,1,.32,0,2,2,0,0,1,1.74,1,2,2,0,0,1,.2,1.52,1.91,1.91,0,0,1-.37.74,1.91,1.91,0,0,1,.37.74,1.94,1.94,0,0,1-.21,1.52,1.89,1.89,0,0,1-.77.74h4.67a2,2,0,0,1,2-2.25,1.73,1.73,0,0,1,.32,0,2,2,0,0,1,3.74,0,1.73,1.73,0,0,1,.32,0,2,2,0,0,1,1.74,1A2.05,2.05,0,0,1,42.18,45h3.65a6.74,6.74,0,0,0,0-13.48h-.31A10.05,10.05,0,0,0,35.81,19Z"/><path d="M40.45,46.82l-.73-.41a1.59,1.59,0,0,0,0-.81l.73-.42a.49.49,0,0,0,.18-.68.51.51,0,0,0-.69-.18l-.72.41a1.66,1.66,0,0,0-.71-.41V43.5a.51.51,0,0,0-1,0v.83a1.74,1.74,0,0,0-.71.4l-.72-.41a.51.51,0,0,0-.69.18.49.49,0,0,0,.18.68l.73.41a1.59,1.59,0,0,0,0,.81l-.73.42a.49.49,0,0,0-.18.68.5.5,0,0,0,.44.25.47.47,0,0,0,.25-.07l.72-.41a2,2,0,0,0,.33.25,1.5,1.5,0,0,0,.38.15v.83a.51.51,0,0,0,1,0v-.83a1.74,1.74,0,0,0,.71-.4l.72.41a.47.47,0,0,0,.25.07.5.5,0,0,0,.44-.25A.49.49,0,0,0,40.45,46.82Zm-3.11-1.2a.76.76,0,0,1,.66-.37.75.75,0,0,1,.38.1.75.75,0,0,1,.28,1,.77.77,0,0,1-1,.27A.75.75,0,0,1,37.34,45.62Z"/></svg>