<svg xmlns="http://www.w3.org/2000/svg" viewBox="0 0 64 64"><path d="M9.5,24a10.4,10.4,0,0,0,2.86,7.15,9,9,0,0,1,2.87-1.89,8.75,8.75,0,0,1,5-7.56,10.36,10.36,0,0,1-1.6-5.53A10.5,10.5,0,0,1,19,13.5,10.59,10.59,0,0,0,9.5,24Z"/><path d="M55.6,28.89a3.52,3.52,0,0,0,.06-.66,4.06,4.06,0,0,0-6.13-3.48,6.07,6.07,0,0,0-4-2.77,12,12,0,0,1,2.33,7.13c0,.21,0,.43,0,.64a8.75,8.75,0,0,1,6.66,7.75h.32a4.34,4.34,0,0,0,.81-8.61Z"/><path d="M35.81,19a10,10,0,0,0-8.51,4.8,6.56,6.56,0,0,0-3.4-.95,6.71,6.71,0,0,0-6.68,6.74,6.62,6.62,0,0,0,.1,1.1A7.22,7.22,0,0,0,18.65,45l.48,0v0h5.58a2.41,2.41,0,0,1-.21-.24A2.94,2.94,0,0,1,24,42.52l.16-1A3,3,0,0,1,27.07,39a3,3,0,0,1,3,3.48l-.16,1A3,3,0,0,1,29.15,45H45.83a6.74,6.74,0,0,0,0-13.48h-.31A10.05,10.05,0,0,0,35.81,19Z"/><path d="M26.92,44a1,1,0,0,0,1-.84l.16-1a1,1,0,0,0-2-.31l-.16,1A1,1,0,0,0,26.77,44Z"/><path d="M29.09,51.85l-.16,1A1,1,0,0,0,29.77,54h.15a1,1,0,0,0,1-.84l.16-1a1,1,0,0,0-2-.31Z"/><path d="M36.23,46a1,1,0,0,0-1.14.83l-.16,1A1,1,0,0,0,35.77,49h.15a1,1,0,0,0,1-.84l.16-1A1,1,0,0,0,36.23,46Z"/></svg>