<svg xmlns="http://www.w3.org/2000/svg" viewBox="0 0 64 64"><path d="M38.66,44.38a.75.75,0,0,0-.28-1,.75.75,0,0,0-.38-.1.75.75,0,0,0-.38,1.4A.77.77,0,0,0,38.66,44.38Z" fill="none"/><path d="M23,48.25a.75.75,0,0,0-.38,1.4.77.77,0,0,0,1-.27.75.75,0,0,0-.28-1A.75.75,0,0,0,23,48.25Z" fill="none"/><path d="M14,24a5,5,0,0,0,1.46,3.53,8.73,8.73,0,0,1,7.45-6.62A5,5,0,0,0,14,24Z"/><path d="M11.58,15.16a1,1,0,0,0-1.42,1.42l2.24,2.24a1,1,0,0,0,.71.29,1,1,0,0,0,.71-.29,1,1,0,0,0,0-1.42Z"/><path d="M20,15.67V12.5a1,1,0,0,0-2,0v3.17a1,1,0,0,0,2,0Z"/><path d="M6.5,24a1,1,0,0,0,1,1h3.17a1,1,0,1,0,0-2H7.5A1,1,0,0,0,6.5,24Z"/><path d="M14.09,29.79a1,1,0,0,0-.27-.61,1,1,0,0,0-1.42,0l-2.24,2.24a1,1,0,0,0,0,1.42,1,1,0,0,0,.63.28A9.16,9.16,0,0,1,14.09,29.79Z"/><path d="M26.42,15.16,24.18,17.4a1,1,0,0,0,0,1.42,1,1,0,0,0,.71.29,1,1,0,0,0,.71-.29l2.24-2.24a1,1,0,1,0-1.42-1.42Z"/><path d="M26.92,44a1,1,0,0,0,1-.84l.16-1a1,1,0,0,0-2-.31l-.16,1A1,1,0,0,0,26.77,44Z"/><path d="M28.09,51.85l-.16,1A1,1,0,0,0,28.77,54h.15a1,1,0,0,0,1-.84l.16-1a1,1,0,0,0-2-.31Z"/><path d="M34.23,46a1,1,0,0,0-1.14.83l-.16,1A1,1,0,0,0,33.77,49h.15a1,1,0,0,0,1-.84l.16-1A1,1,0,0,0,34.23,46Z"/><path d="M45.83,31.52h-.31A10.05,10.05,0,0,0,35.81,19a10,10,0,0,0-8.51,4.8,6.56,6.56,0,0,0-3.4-.95,6.71,6.71,0,0,0-6.68,6.74,6.62,6.62,0,0,0,.1,1.1A7.22,7.22,0,0,0,18.65,45l.48,0v0h6.32a2.17,2.17,0,0,1-.55-.54,2.51,2.51,0,0,1-.45-1.86l.16-1a2.48,2.48,0,0,1,2.46-2.12,2.85,2.85,0,0,1,.41,0,2.46,2.46,0,0,1,1.62,1,2.51,2.51,0,0,1,.45,1.86l-.16,1a2.46,2.46,0,0,1-1,1.62h5.41a2,2,0,0,1,0-.26,1.91,1.91,0,0,1,.37-.74,1.91,1.91,0,0,1-.37-.74,1.94,1.94,0,0,1,.21-1.52,2,2,0,0,1,1.73-1,1.73,1.73,0,0,1,.32,0,2,2,0,0,1,3.74,0,1.73,1.73,0,0,1,.32,0,2,2,0,0,1,1.74,1,2,2,0,0,1,.2,1.52,1.91,1.91,0,0,1-.37.74,1.91,1.91,0,0,1,.37.74,2,2,0,0,1,0,.26h3.65a6.74,6.74,0,0,0,0-13.48Z"/><path d="M38.51,46.5v-.83a1.74,1.74,0,0,0,.71-.4l.72.41a.47.47,0,0,0,.25.07.5.5,0,0,0,.44-.25.49.49,0,0,0-.18-.68l-.73-.41a1.59,1.59,0,0,0,0-.81l.73-.42a.49.49,0,0,0,.18-.68.51.51,0,0,0-.69-.18l-.72.41a1.66,1.66,0,0,0-.71-.41V41.5a.51.51,0,0,0-1,0v.83a1.74,1.74,0,0,0-.71.4l-.72-.41a.51.51,0,0,0-.69.18.49.49,0,0,0,.18.68l.73.41a1.59,1.59,0,0,0,0,.81l-.73.42a.49.49,0,0,0-.18.68.5.5,0,0,0,.44.25.47.47,0,0,0,.25-.07l.72-.41a2,2,0,0,0,.33.25,1.5,1.5,0,0,0,.38.15v.83a.51.51,0,0,0,1,0Zm-.89-1.85a.75.75,0,0,1,.38-1.4.75.75,0,0,1,.38.1.75.75,0,0,1,.28,1A.77.77,0,0,1,37.62,44.65Z"/><path d="M23.51,46.5a.51.51,0,0,0-1,0v.83a1.74,1.74,0,0,0-.71.4l-.72-.41a.51.51,0,0,0-.69.18.49.49,0,0,0,.18.68l.73.41a1.59,1.59,0,0,0,0,.81l-.73.42a.49.49,0,0,0-.18.68.5.5,0,0,0,.44.25.47.47,0,0,0,.25-.07l.72-.41a2,2,0,0,0,.33.25,1.5,1.5,0,0,0,.38.15v.83a.51.51,0,0,0,1,0v-.83a1.74,1.74,0,0,0,.71-.4l.72.41a.47.47,0,0,0,.25.07.5.5,0,0,0,.44-.25.49.49,0,0,0-.18-.68l-.73-.41a1.59,1.59,0,0,0,0-.81l.73-.42a.49.49,0,0,0,.18-.68.51.51,0,0,0-.69-.18l-.72.41a1.66,1.66,0,0,0-.71-.41Zm.15,2.88a.77.77,0,0,1-1,.27.75.75,0,0,1,.38-1.4.75.75,0,0,1,.38.1A.75.75,0,0,1,23.66,49.38Z"/></svg>