<svg xmlns="http://www.w3.org/2000/svg" viewBox="0 0 64 64"><path d="M14,24a5,5,0,0,0,1.46,3.53,8.73,8.73,0,0,1,7.45-6.62A5,5,0,0,0,14,24Z"/><path d="M11.58,15.16a1,1,0,0,0-1.42,1.42l2.24,2.24a1,1,0,0,0,.71.29,1,1,0,0,0,.71-.29,1,1,0,0,0,0-1.42Z"/><path d="M20,15.67V12.5a1,1,0,0,0-2,0v3.17a1,1,0,0,0,2,0Z"/><path d="M6.5,24a1,1,0,0,0,1,1h3.17a1,1,0,1,0,0-2H7.5A1,1,0,0,0,6.5,24Z"/><path d="M26.42,15.16,24.18,17.4a1,1,0,0,0,0,1.42,1,1,0,0,0,.71.29,1,1,0,0,0,.71-.29l2.24-2.24a1,1,0,1,0-1.42-1.42Z"/><path d="M14.09,29.79a1,1,0,0,0-.27-.61,1,1,0,0,0-1.42,0l-2.24,2.24a1,1,0,0,0,0,1.42,1,1,0,0,0,.63.28A9.16,9.16,0,0,1,14.09,29.79Z"/><path d="M45.83,31.52h-.31A10.05,10.05,0,0,0,35.81,19a10,10,0,0,0-8.51,4.8,6.56,6.56,0,0,0-3.4-.95,6.71,6.71,0,0,0-6.68,6.74,6.62,6.62,0,0,0,.1,1.1A7.22,7.22,0,0,0,18.65,45l.48,0v0h26.7a6.74,6.74,0,0,0,0-13.48Z"/><path d="M21.5,56.5H17a1.5,1.5,0,0,0,0,3h4.5a1.5,1.5,0,0,0,0-3Z"/><path d="M35.5,56.5h-7a1.5,1.5,0,0,0,0,3h7a1.5,1.5,0,0,0,0-3Z"/><path d="M47,56.5H42.5a1.5,1.5,0,0,0,0,3H47a1.5,1.5,0,0,0,0-3Z"/><path d="M21.5,50.5H17a1.5,1.5,0,0,0,0,3h4.5a1.5,1.5,0,0,0,0-3Z"/><path d="M35.5,50.5h-7a1.5,1.5,0,0,0,0,3h7a1.5,1.5,0,0,0,0-3Z"/><path d="M47,50.5H42.5a1.5,1.5,0,0,0,0,3H47a1.5,1.5,0,0,0,0-3Z"/></svg>