<svg xmlns="http://www.w3.org/2000/svg" viewBox="0 0 64 64"><path d="M32,37.07a5.21,5.21,0,0,1-1.86-.35l-.46,14.73A1.5,1.5,0,0,0,31.18,53h1.64a1.5,1.5,0,0,0,1.5-1.55l-.4-12.68a5.4,5.4,0,0,1-1-1.79A5.16,5.16,0,0,1,32,37.07Z"/><path d="M37.26,32.52A5.32,5.32,0,0,1,32.89,37a5.4,5.4,0,0,0,1,1.79,5.32,5.32,0,0,0,8.93-5.52,7.48,7.48,0,0,1-2,.27A7.08,7.08,0,0,1,37.26,32.52Z"/><path d="M27.81,35a3.51,3.51,0,0,1-2.33.89,3.55,3.55,0,0,1-3.55-3.55,3.49,3.49,0,0,1,.29-1.41,5.42,5.42,0,0,1-2.12-1.19A5.24,5.24,0,0,0,19,32.93a5.34,5.34,0,0,0,9.74,3A5.12,5.12,0,0,1,27.81,35Z"/><path d="M37,20a2,2,0,0,1-2-2,2.05,2.05,0,0,1,.2-.86,3.68,3.68,0,0,0-1.45.8A7.05,7.05,0,0,1,36,28.24a5.24,5.24,0,0,1,1.36,3.51,6.29,6.29,0,0,1-.07.77,7.08,7.08,0,0,0,3.63,1,7.48,7.48,0,0,0,2-.27A7.07,7.07,0,0,0,44.7,20.47a1.46,1.46,0,0,1-.77-.42,7,7,0,0,0-3-.69,7.56,7.56,0,0,0-1.36.13A3.61,3.61,0,0,0,39,18.41,2,2,0,0,1,37,20Z"/><path d="M32.89,37a5.32,5.32,0,0,0,4.37-4.46,6.29,6.29,0,0,0,.07-.77A5.24,5.24,0,0,0,36,28.24a7.05,7.05,0,0,0-2.22-10.3A7.13,7.13,0,0,0,30.22,17a6.62,6.62,0,0,0-1.41.16A2,2,0,0,1,29,18a2,2,0,0,1-3.72,1,6.73,6.73,0,0,0-1.23,1.57c-.12,0-.23,0-.35,0a5.32,5.32,0,0,0-5.33,5.31,5.24,5.24,0,0,0,1.73,3.89,5.42,5.42,0,0,0,2.12,1.19,3.49,3.49,0,0,0-.29,1.41,3.55,3.55,0,0,0,3.55,3.55A3.51,3.51,0,0,0,27.81,35a5.12,5.12,0,0,0,.93.93A5.36,5.36,0,0,0,32,37.07,5.16,5.16,0,0,0,32.89,37Z"/><circle cx="32" cy="13" r="1.5"/><path d="M37,16a2,2,0,0,0-1.8,1.14A2.05,2.05,0,0,0,35,18a2,2,0,0,0,4,.41A1.9,1.9,0,0,0,39,18,2,2,0,0,0,37,16Z"/><path d="M27,20a2,2,0,0,0,2-2,2,2,0,0,0-.19-.84A2,2,0,0,0,25,18a2,2,0,0,0,.28,1A2,2,0,0,0,27,20Z"/><circle cx="19" cy="19" r="1.5"/><path d="M44.7,20.47a1.53,1.53,0,0,0,.3,0A1.5,1.5,0,1,0,43.5,19a1.5,1.5,0,0,0,1.2,1.47Z"/><circle cx="40" cy="14" r="1"/><circle cx="24" cy="14" r="1"/></svg>