<svg xmlns="http://www.w3.org/2000/svg" viewBox="0 0 64 64"><path d="M34.29,31.63s3.61-.51,3.32-1.33c0-.11-.18-.16-.38-.17.15-.14.22-.27.18-.38-.29-.82-3.4,1.09-3.4,1.09s3-2.65,2.51-3.23-2.8,2.12-2.8,2.12,1.94-3.31,1.1-3.7-2.15,3.19-2.15,3.19.59-3.52-.15-3.5-.89,4-.89,4-.51-3.61-1.33-3.32c-.1,0-.16.18-.17.39-.14-.16-.27-.23-.38-.19-.82.29,1.09,3.4,1.09,3.4s-2.65-3-3.23-2.51,2.12,2.8,2.12,2.8-3.31-1.94-3.7-1.1,3.19,2.15,3.19,2.15-3.52-.59-3.5.15,4,.89,4,.89-3.61.51-3.32,1.33c0,.1.18.16.39.17-.16.14-.23.27-.19.38.29.82,3.4-1.09,3.4-1.09s-3,2.65-2.51,3.23,2.8-2.11,2.8-2.11-1.94,3.3-1.1,3.69,2.15-3.19,2.15-3.19-.59,3.52.15,3.5.89-4,.89-4,.51,3.61,1.33,3.32c.11,0,.16-.18.17-.38.14.15.27.22.38.18.82-.29-1.09-3.4-1.09-3.4s2.65,3,3.23,2.51-2.11-2.8-2.11-2.8,3.3,1.94,3.69,1.1-3.19-2.15-3.19-2.15,3.52.59,3.5-.15S34.29,31.63,34.29,31.63Z" fill="none"/><path d="M30.32,23.06a9.46,9.46,0,0,0-.73,2.22,9.27,9.27,0,0,0-2-1.26c-3.56-1.68-7.47-.88-8.74,1.78s.61,6.2,4.17,7.88a9.46,9.46,0,0,0,2.22.73,9.27,9.27,0,0,0-1.26,2c-1.68,3.56-.88,7.48,1.78,8.74s6.2-.61,7.88-4.17a9.46,9.46,0,0,0,.73-2.22,9.27,9.27,0,0,0,2,1.26c3.56,1.68,7.47.89,8.74-1.78s-.61-6.2-4.17-7.88a9.46,9.46,0,0,0-2.22-.73,9.27,9.27,0,0,0,1.26-2c1.68-3.56.88-7.48-1.78-8.74S32,19.5,30.32,23.06Zm4.46,9.61S38.37,34,38,34.82s-3.69-1.1-3.69-1.1,2.69,2.35,2.11,2.8S33.16,34,33.16,34s1.91,3.11,1.09,3.4c-.11,0-.24,0-.38-.18,0,.2-.06.34-.17.38-.82.29-1.33-3.32-1.33-3.32s-.16,4-.89,4-.15-3.5-.15-3.5S30,38.37,29.18,38s1.1-3.69,1.1-3.69-2.35,2.69-2.8,2.11S30,33.16,30,33.16s-3.11,1.91-3.4,1.09c0-.11,0-.24.19-.38-.21,0-.35-.07-.39-.17-.29-.82,3.32-1.33,3.32-1.33s-4-.16-4-.89,3.5-.15,3.5-.15S25.63,30,26,29.18s3.7,1.1,3.7,1.1-2.7-2.35-2.12-2.8S30.84,30,30.84,30s-1.91-3.11-1.09-3.4c.11,0,.24,0,.38.19,0-.21.07-.35.17-.39.82-.29,1.33,3.32,1.33,3.32s.16-4,.89-4,.15,3.5.15,3.5S34,25.63,34.82,26s-1.1,3.7-1.1,3.7,2.35-2.7,2.8-2.12S34,30.84,34,30.84s3.11-1.91,3.4-1.09c0,.11,0,.24-.18.38.2,0,.34.06.38.17.29.82-3.32,1.33-3.32,1.33s4,.16,4,.89S34.78,32.67,34.78,32.67ZM39,21a2,2,0,1,1-2-2A2,2,0,0,1,39,21Z"/><circle cx="32" cy="16" r="1.5"/><circle cx="37" cy="21" r="2"/><circle cx="27" cy="21" r="2"/><circle cx="19" cy="22" r="1.5"/><circle cx="45" cy="22" r="1.5"/><circle cx="40" cy="17" r="1"/><circle cx="24" cy="17" r="1"/></svg>