<svg xmlns="http://www.w3.org/2000/svg" viewBox="0 0 64 64"><path d="M38.38,45.35a.75.75,0,0,0-.38-.1.75.75,0,0,0-.38,1.4.77.77,0,0,0,1-.27A.75.75,0,0,0,38.38,45.35Z" fill="none"/><path d="M30.38,51.35a.75.75,0,0,0-.38-.1.75.75,0,0,0-.38,1.4.77.77,0,0,0,1-.27A.75.75,0,0,0,30.38,51.35Z" fill="none"/><path d="M26.66,42.38a.75.75,0,0,0-.28-1,.75.75,0,0,0-.38-.1.75.75,0,0,0-.38,1.4A.77.77,0,0,0,26.66,42.38Z" fill="none"/><path d="M26,45a.5.5,0,0,0,.51-.5v-.83a1.74,1.74,0,0,0,.71-.4l.72.41a.47.47,0,0,0,.25.07.5.5,0,0,0,.44-.25.49.49,0,0,0-.18-.68l-.73-.41a1.59,1.59,0,0,0,0-.81l.73-.42a.49.49,0,0,0,.18-.68.51.51,0,0,0-.69-.18l-.72.41a1.66,1.66,0,0,0-.71-.41V39.5a.51.51,0,0,0-1,0v.83a1.74,1.74,0,0,0-.71.4l-.72-.41a.51.51,0,0,0-.69.18.49.49,0,0,0,.18.68l.73.41a1.59,1.59,0,0,0,0,.81l-.73.42a.49.49,0,0,0-.18.68.5.5,0,0,0,.44.25.47.47,0,0,0,.25-.07l.72-.41a2,2,0,0,0,.33.25,1.5,1.5,0,0,0,.38.15v.83A.5.5,0,0,0,26,45Zm-.66-3.38a.76.76,0,0,1,.66-.37.75.75,0,0,1,.38.1.75.75,0,0,1,.28,1,.77.77,0,0,1-1,.27A.75.75,0,0,1,25.34,41.62Z"/><path d="M32.63,50.5a.51.51,0,0,0-.69-.18l-.72.41a1.66,1.66,0,0,0-.71-.41V49.5a.51.51,0,0,0-1,0v.83a1.74,1.74,0,0,0-.71.4l-.72-.41a.51.51,0,0,0-.69.18.49.49,0,0,0,.18.68l.73.41a1.59,1.59,0,0,0,0,.81l-.73.42a.49.49,0,0,0-.18.68.5.5,0,0,0,.44.25.47.47,0,0,0,.25-.07l.72-.41a2,2,0,0,0,.33.25,1.5,1.5,0,0,0,.38.15v.83a.51.51,0,0,0,1,0v-.83a1.74,1.74,0,0,0,.71-.4l.72.41a.47.47,0,0,0,.25.07.5.5,0,0,0,.44-.25.49.49,0,0,0-.18-.68l-.73-.41a1.59,1.59,0,0,0,0-.81l.73-.42A.49.49,0,0,0,32.63,50.5Zm-2,1.88a.77.77,0,0,1-1,.27.75.75,0,0,1,.38-1.4.75.75,0,0,1,.38.1A.75.75,0,0,1,30.66,52.38Z"/><path d="M18.65,45l.48,0v0h3.72a2,2,0,0,1-1-2.26,1.91,1.91,0,0,1,.37-.74,1.91,1.91,0,0,1-.37-.74,1.94,1.94,0,0,1,.21-1.52,2,2,0,0,1,1.73-1,1.73,1.73,0,0,1,.32,0,2,2,0,0,1,3.74,0,1.73,1.73,0,0,1,.32,0,2,2,0,0,1,1.74,1,2,2,0,0,1,.2,1.52,1.91,1.91,0,0,1-.37.74,1.91,1.91,0,0,1,.37.74,1.94,1.94,0,0,1-.21,1.52,1.89,1.89,0,0,1-.77.74h4.67a2,2,0,0,1,2-2.25,1.73,1.73,0,0,1,.32,0,2,2,0,0,1,3.74,0,1.73,1.73,0,0,1,.32,0,2,2,0,0,1,1.74,1A2.05,2.05,0,0,1,42.18,45h3.65a6.74,6.74,0,0,0,0-13.48h-.31A10.05,10.05,0,0,0,35.81,19a10,10,0,0,0-8.51,4.8,6.56,6.56,0,0,0-3.4-.95,6.71,6.71,0,0,0-6.68,6.74,6.62,6.62,0,0,0,.1,1.1A7.22,7.22,0,0,0,18.65,45Z"/><path d="M40.63,44.5a.51.51,0,0,0-.69-.18l-.72.41a1.66,1.66,0,0,0-.71-.41V43.5a.51.51,0,0,0-1,0v.83a1.74,1.74,0,0,0-.71.4l-.72-.41a.51.51,0,0,0-.69.18.49.49,0,0,0,.18.68l.73.41a1.59,1.59,0,0,0,0,.81l-.73.42a.49.49,0,0,0-.18.68.5.5,0,0,0,.44.25.47.47,0,0,0,.25-.07l.72-.41a2,2,0,0,0,.33.25,1.5,1.5,0,0,0,.38.15v.83a.51.51,0,0,0,1,0v-.83a1.74,1.74,0,0,0,.71-.4l.72.41a.47.47,0,0,0,.25.07.5.5,0,0,0,.44-.25.49.49,0,0,0-.18-.68l-.73-.41a1.59,1.59,0,0,0,0-.81l.73-.42A.49.49,0,0,0,40.63,44.5Zm-2,1.88a.77.77,0,0,1-1,.27.75.75,0,0,1,.38-1.4.75.75,0,0,1,.38.1A.75.75,0,0,1,38.66,46.38Z"/></svg>