<svg xmlns="http://www.w3.org/2000/svg" viewBox="0 0 64 64"><path d="M40.5,34.1a.47.47,0,0,1-.25-.07.49.49,0,0,1-.18-.68l3-5.2a.5.5,0,1,1,.86.5l-3,5.2A.5.5,0,0,1,40.5,34.1Z"/><path d="M23.5,34.6a.5.5,0,0,1-.43-.25l-3-5.2a.5.5,0,0,1,.86-.5l3,5.2a.49.49,0,0,1-.18.68A.47.47,0,0,1,23.5,34.6Z"/><path d="M33.45,12.05l-2.6,1.5-2.5-4.33-5.2,3,2.5,4.33-2.6,1.5a1,1,0,0,0-.36,1.36l.5.87a1,1,0,0,0,1.36.37l10.4-6a1,1,0,0,0,.36-1.36l-.5-.87A1,1,0,0,0,33.45,12.05Z"/><path d="M36,28.31a7.5,7.5,0,1,0-8.08,0,10.5,10.5,0,1,0,8.08,0ZM30,21a1,1,0,1,1,1-1A1,1,0,0,1,30,21Zm2,20a1,1,0,1,1,1-1A1,1,0,0,1,32,41Zm0-3a1,1,0,1,1,1-1A1,1,0,0,1,32,38Zm0-3a1,1,0,1,1,1-1A1,1,0,0,1,32,35Zm0-11a1,1,0,1,1,1-1A1,1,0,0,1,32,24Zm2-3a1,1,0,1,1,1-1A1,1,0,0,1,34,21Z"/></svg>