<svg xmlns="http://www.w3.org/2000/svg" viewBox="0 0 64 64"><path d="M42.37,33.57A10.08,10.08,0,0,0,42.5,32,10.5,10.5,0,0,0,32,21.5,14.66,14.66,0,0,0,42.37,33.57Z"/><path d="M56,32a1.5,1.5,0,0,0-1.5-1.5H48.29a1.5,1.5,0,1,0,0,3H54.5A1.5,1.5,0,0,0,56,32Z"/><path d="M44.58,21.54,49,17.15A1.5,1.5,0,0,0,46.85,15l-4.39,4.39a1.49,1.49,0,0,0,0,2.12,1.5,1.5,0,0,0,2.12,0Z"/><path d="M32.11,17.2a1.5,1.5,0,0,0,1.39-1.49V9.5a1.5,1.5,0,0,0-3,0v4A2,2,0,0,1,32,14.2,2,2,0,0,1,32.37,16C32.26,16.41,32.18,16.8,32.11,17.2Z"/><path d="M46.66,36.2A16.66,16.66,0,0,1,29.88,19.65a16.29,16.29,0,0,1,.55-4.15A16.56,16.56,0,1,0,48.5,36.1C47.89,36.16,47.28,36.2,46.66,36.2Z"/></svg>