<svg xmlns="http://www.w3.org/2000/svg" viewBox="0 0 64 64"><path d="M32.28,48.5A16.72,16.72,0,0,0,48.5,36.1c-.61.06-1.22.1-1.84.1A16.66,16.66,0,0,1,29.88,19.65a16.29,16.29,0,0,1,.55-4.15,16.54,16.54,0,0,0,1.85,33Z"/><path d="M42.86,17a.23.23,0,0,0-.21-.38l-3.12.81a.2.2,0,0,1-.21-.06L37,15.14a.23.23,0,0,0-.38.21l.81,3.12a.2.2,0,0,1-.06.21L35.14,21a.23.23,0,0,0,.21.38l3.12-.81a.2.2,0,0,1,.21.06L41,22.86a.23.23,0,0,0,.38-.21l-.81-3.12a.2.2,0,0,1,.06-.21Z"/><path d="M36.68,29.58l1.53-1.51a.18.18,0,0,1,.14,0l2.08.54a.15.15,0,0,0,.15-.25l-1.51-1.53a.18.18,0,0,1,0-.14l.54-2.08a.15.15,0,0,0-.25-.15l-1.53,1.51a.18.18,0,0,1-.14,0l-2.08-.54a.15.15,0,0,0-.15.25l1.51,1.53a.18.18,0,0,1,0,.14l-.54,2.08A.15.15,0,0,0,36.68,29.58Z"/><path d="M50.34,28.78l-3.1-.86a.22.22,0,0,1-.16-.16l-.86-3.1a.23.23,0,0,0-.44,0l-.86,3.1a.22.22,0,0,1-.16.16l-3.1.86a.23.23,0,0,0,0,.44l3.1.86a.22.22,0,0,1,.16.16l.86,3.1a.23.23,0,0,0,.44,0l.86-3.1a.22.22,0,0,1,.16-.16l3.1-.86A.23.23,0,0,0,50.34,28.78Z"/></svg>