<svg xmlns="http://www.w3.org/2000/svg" viewBox="0 0 64 64"><path d="M48.5,33.79h.79V32.5h-1a1,1,0,0,1,.25.64Z" fill="none"/><path d="M49.5,38.73a.46.46,0,0,1-.21-.4V34.79H48.5v4.55a2.57,2.57,0,1,1-2,0v-6.2a1,1,0,0,1,.82-1,.57.57,0,0,1,0-.18.5.5,0,0,1,.5-.5h1.5V30.21h-1.5a.5.5,0,0,1-.5-.5.5.5,0,0,1,.5-.5h1.5v-.6a1.79,1.79,0,1,0-3.58,0v9.72a.46.46,0,0,1-.21.4A3.59,3.59,0,0,0,44,41.65a3.5,3.5,0,1,0,7,0A3.59,3.59,0,0,0,49.5,38.73Z" fill="none"/><path d="M47.5,42.71a1,1,0,0,1-1-1V39.34a2.57,2.57,0,1,0,2,0v2.37A1,1,0,0,1,47.5,42.71Z"/><path d="M46.5,33.14v8.57a1,1,0,1,0,2,0V34.79h-.71a.5.5,0,0,1-.5-.5.5.5,0,0,1,.5-.5h.71v-.65a1,1,0,0,0-.25-.64h-.46a.49.49,0,0,1-.47-.32A1,1,0,0,0,46.5,33.14Z"/><path d="M43.21,37.42v-5c-.17-.25-.33-.5-.46-.74a.28.28,0,0,0-.5,0c-.64,1.21-1.89,2.67-3.25,2.67s-2.61-1.46-3.25-2.67a.28.28,0,0,0-.5,0c-.64,1.21-1.89,2.67-3.25,2.67s-2.61-1.46-3.25-2.67a.28.28,0,0,0-.5,0c-.64,1.21-1.89,2.67-3.25,2.67s-2.61-1.46-3.25-2.67a.28.28,0,0,0-.5,0c-.64,1.21-1.89,2.67-3.25,2.67H17v6.13a2,2,0,0,0,2,2H41.57a6,6,0,0,1-.07-.85A6.11,6.11,0,0,1,43.21,37.42Z"/><path d="M50.29,38.08V28.61a2.79,2.79,0,1,0-5.58,0v9.47A4.6,4.6,0,0,0,43,41.65a4.5,4.5,0,1,0,9,0A4.6,4.6,0,0,0,50.29,38.08ZM47.5,45.21A3.53,3.53,0,0,1,44,41.65a3.59,3.59,0,0,1,1.5-2.92.46.46,0,0,0,.21-.4V28.61a1.79,1.79,0,1,1,3.58,0v.6h-1.5a.5.5,0,0,0-.5.5.5.5,0,0,0,.5.5h1.5V31.5h-1.5a.5.5,0,0,0-.5.5.57.57,0,0,0,0,.18.49.49,0,0,0,.47.32h1.5v1.29h-1.5a.5.5,0,0,0-.5.5.5.5,0,0,0,.5.5h1.5v3.54a.46.46,0,0,0,.21.4A3.59,3.59,0,0,1,51,41.65,3.53,3.53,0,0,1,47.5,45.21Z"/></svg>