<svg xmlns="http://www.w3.org/2000/svg" viewBox="0 0 64 64"><path d="M35.71,36.48a.52.52,0,0,1-.21-.41V29.5h-2v8.28a4.5,4.5,0,1,1-3,0V27a1.5,1.5,0,0,1,3,0v1.5h2v-3h-3a.5.5,0,0,1,0-1h3v-3h-3a.5.5,0,0,1,0-1h3V19.06a3.5,3.5,0,1,0-7,0v17a.52.52,0,0,1-.21.41A6.64,6.64,0,0,0,25.5,41.9a6.5,6.5,0,1,0,13,0A6.64,6.64,0,0,0,35.71,36.48Z" fill="none"/><path d="M41,34.42a.89.89,0,0,0,.63-.26.88.88,0,0,0,0-1.25.83.83,0,0,0-.63-.27.86.86,0,0,0-.63.27.89.89,0,0,0-.26.63.85.85,0,0,0,.26.62A.89.89,0,0,0,41,34.42Z" fill="none"/><path d="M32,43.5A1.5,1.5,0,0,1,30.5,42V37.78a4.5,4.5,0,1,0,3,0V42A1.5,1.5,0,0,1,32,43.5Z"/><path d="M32,25.5A1.5,1.5,0,0,0,30.5,27V42a1.5,1.5,0,0,0,3,0V29.5h-1a.5.5,0,0,1,0-1h1V27A1.5,1.5,0,0,0,32,25.5Z"/><path d="M32,14.5a4.53,4.53,0,0,0-4.5,4.56V35.82a7.64,7.64,0,0,0-3,6.08,7.5,7.5,0,1,0,15,0,7.64,7.64,0,0,0-3-6.08V19.06A4.53,4.53,0,0,0,32,14.5Zm6.5,27.4a6.5,6.5,0,1,1-13,0,6.64,6.64,0,0,1,2.79-5.42.52.52,0,0,0,.21-.41v-17a3.5,3.5,0,1,1,7,0V20.5h-3a.5.5,0,0,0,0,1h3v3h-3a.5.5,0,0,0,0,1h3v3h-3a.5.5,0,0,0,0,1h3v6.57a.52.52,0,0,0,.21.41A6.64,6.64,0,0,1,38.5,41.9Z"/><path d="M41,35.56A2,2,0,0,0,42.44,35a2,2,0,1,0-2.85,0A1.94,1.94,0,0,0,41,35.56Zm-.63-2.65a.86.86,0,0,1,.63-.27.83.83,0,0,1,.63.27.88.88,0,0,1,0,1.25.89.89,0,0,1-1.26,0,.85.85,0,0,1-.26-.62A.89.89,0,0,1,40.39,32.91Z"/><path d="M46.14,33.33a2.13,2.13,0,0,1,1.46-.45A1.79,1.79,0,0,1,49.49,34a.49.49,0,0,0,.19.28.46.46,0,0,0,.34,0l.67-.23A.37.37,0,0,0,51,33.5c-.48-1.38-1.6-2.06-3.35-2.06a3.68,3.68,0,0,0-2.61.85,3.07,3.07,0,0,0-.92,2.35v2.7A3.09,3.09,0,0,0,45,39.71a3.68,3.68,0,0,0,2.61.85c1.76,0,2.88-.69,3.37-2.07a.38.38,0,0,0-.28-.54L50,37.71a.5.5,0,0,0-.33,0,.53.53,0,0,0-.21.29,1.78,1.78,0,0,1-1.89,1.15,2.08,2.08,0,0,1-1.46-.46,1.62,1.62,0,0,1-.52-1.3V34.63A1.61,1.61,0,0,1,46.14,33.33Z"/></svg>