<svg xmlns="http://www.w3.org/2000/svg" viewBox="0 0 64 64"><circle cx="32" cy="42" r="4.5"/><path d="M32,43.5A1.5,1.5,0,0,1,30.5,42V33a1.5,1.5,0,0,1,3,0v9A1.5,1.5,0,0,1,32,43.5Z"/><path d="M32,49.5a7.56,7.56,0,0,1-7.5-7.6,7.64,7.64,0,0,1,3-6.08V19.06a4.5,4.5,0,1,1,9,0V35.82a7.64,7.64,0,0,1,3,6.08A7.56,7.56,0,0,1,32,49.5Zm0-34a3.54,3.54,0,0,0-3.5,3.56v17a.52.52,0,0,1-.21.41A6.64,6.64,0,0,0,25.5,41.9a6.5,6.5,0,1,0,13,0,6.64,6.64,0,0,0-2.79-5.42.52.52,0,0,1-.21-.41V29.5h-3a.5.5,0,0,1,0-1h3v-3h-3a.5.5,0,0,1,0-1h3v-3h-3a.5.5,0,0,1,0-1h3V19.06A3.54,3.54,0,0,0,32,15.5Z"/><path d="M44,39l-.19,0h0l-.08,0h0a1,1,0,0,1-.48-.3h0l-3-3.45a1,1,0,0,1-.25-.66,1,1,0,0,1,.34-.75,1,1,0,0,1,1.41.1L43,35.33V26a1,1,0,0,1,2,0v9.33l1.25-1.43a1,1,0,1,1,1.5,1.31l-3,3.44a1,1,0,0,1-.41.29A1,1,0,0,1,44,39Z"/></svg>