<svg xmlns="http://www.w3.org/2000/svg" viewBox="0 0 64 64"><path d="M32,49.5a7.56,7.56,0,0,1-7.5-7.6,7.64,7.64,0,0,1,3-6.08V19.06a4.5,4.5,0,1,1,9,0V35.82a7.64,7.64,0,0,1,3,6.08A7.56,7.56,0,0,1,32,49.5Zm0-34a3.54,3.54,0,0,0-3.5,3.56v17a.52.52,0,0,1-.21.41A6.64,6.64,0,0,0,25.5,41.9a6.5,6.5,0,1,0,13,0,6.64,6.64,0,0,0-2.79-5.42.52.52,0,0,1-.21-.41V29.5h-3a.5.5,0,0,1,0-1h3v-3h-3a.5.5,0,0,1,0-1h3v-3h-3a.5.5,0,0,1,0-1h3V19.06A3.54,3.54,0,0,0,32,15.5Z"/><path d="M42.44,35A2,2,0,1,1,43,33.53,2,2,0,0,1,42.44,35Zm-2-.79a.89.89,0,0,0,1.26,0,.88.88,0,0,0,0-1.25.83.83,0,0,0-.63-.27.86.86,0,0,0-.63.27.89.89,0,0,0-.26.63A.85.85,0,0,0,40.39,34.16Z"/><path d="M45,32.29a3.68,3.68,0,0,1,2.61-.85c1.75,0,2.87.68,3.35,2.06a.37.37,0,0,1-.26.54l-.67.23a.46.46,0,0,1-.34,0,.49.49,0,0,1-.19-.28,1.79,1.79,0,0,0-1.89-1.13,2.13,2.13,0,0,0-1.46.45,1.61,1.61,0,0,0-.52,1.3v2.73a1.62,1.62,0,0,0,.52,1.3,2.08,2.08,0,0,0,1.46.46A1.78,1.78,0,0,0,49.49,38a.53.53,0,0,1,.21-.29.5.5,0,0,1,.33,0l.66.24a.38.38,0,0,1,.28.54c-.49,1.38-1.61,2.07-3.37,2.07A3.68,3.68,0,0,1,45,39.71a3.09,3.09,0,0,1-.92-2.37v-2.7A3.07,3.07,0,0,1,45,32.29Z"/></svg>