<svg xmlns="http://www.w3.org/2000/svg" viewBox="0 0 64 64"><path d="M32,49.5a7.56,7.56,0,0,1-7.5-7.6,7.64,7.64,0,0,1,3-6.08V19.06a4.5,4.5,0,1,1,9,0V35.82a7.64,7.64,0,0,1,3,6.08A7.56,7.56,0,0,1,32,49.5Zm0-34a3.54,3.54,0,0,0-3.5,3.56v17a.52.52,0,0,1-.21.41A6.64,6.64,0,0,0,25.5,41.9a6.5,6.5,0,1,0,13,0,6.64,6.64,0,0,0-2.79-5.42.52.52,0,0,1-.21-.41V29.5h-3a.5.5,0,0,1,0-1h3v-3h-3a.5.5,0,0,1,0-1h3v-3h-3a.5.5,0,0,1,0-1h3V19.06A3.54,3.54,0,0,0,32,15.5Z"/><path d="M42.72,34.92a2.18,2.18,0,1,1-1.53-3.72,2.17,2.17,0,0,1,1.53,3.72Zm-2.21-.86a.91.91,0,0,0,.68.28.93.93,0,0,0,.68-.28.89.89,0,0,0,.28-.67.93.93,0,0,0-.28-.68.87.87,0,0,0-.68-.29.89.89,0,0,0-.68.29.93.93,0,0,0-.28.68A.89.89,0,0,0,40.51,34.06Z"/><path d="M50.89,31.41a.47.47,0,0,1,.11.35v.66a.46.46,0,0,1-.11.35.5.5,0,0,1-.36.1H46.44v2.46h3.44a.55.55,0,0,1,.36.1.5.5,0,0,1,.11.36v.65a.5.5,0,0,1-.11.36.51.51,0,0,1-.36.1H46.44v3.44a.38.38,0,0,1-.45.46h-.76a.55.55,0,0,1-.36-.1.46.46,0,0,1-.11-.36V31.76a.43.43,0,0,1,.11-.35.5.5,0,0,1,.36-.1h5.3A.5.5,0,0,1,50.89,31.41Z"/></svg>