<svg xmlns="http://www.w3.org/2000/svg" xmlns:xlink="http://www.w3.org/1999/xlink" viewBox="0 0 64 64"><defs><clipPath id="a"><path d="M47.5,45.71a4,4,0,0,1-4-4.06,4.07,4.07,0,0,1,1.71-3.32V28.61H13.12v17.1Z" fill="none"/></clipPath></defs><g clip-path="url(#a)"><path d="M47,34.33H46c-1.36,0-2.61-1.46-3.25-2.67a.28.28,0,0,0-.5,0c-.64,1.21-1.89,2.67-3.25,2.67s-2.61-1.46-3.25-2.67a.28.28,0,0,0-.5,0c-.64,1.21-1.89,2.67-3.25,2.67s-2.61-1.46-3.25-2.67a.28.28,0,0,0-.5,0c-.64,1.21-1.89,2.67-3.25,2.67s-2.61-1.46-3.25-2.67a.28.28,0,0,0-.5,0c-.64,1.21-1.89,2.67-3.25,2.67H17v6.13a2,2,0,0,0,2,2H45a2,2,0,0,0,2-2Z"/></g><circle cx="47.5" cy="41.71" r="2.57"/><path d="M47.5,42.71a1,1,0,0,1-1-1V33.14a1,1,0,0,1,2,0v8.57A1,1,0,0,1,47.5,42.71Z"/><path d="M47.5,46.21A4.53,4.53,0,0,1,43,41.65a4.6,4.6,0,0,1,1.71-3.57V28.61a2.79,2.79,0,1,1,5.58,0v9.47A4.6,4.6,0,0,1,52,41.65,4.53,4.53,0,0,1,47.5,46.21Zm0-19.42a1.8,1.8,0,0,0-1.79,1.82v9.72a.46.46,0,0,1-.21.4A3.59,3.59,0,0,0,44,41.65a3.5,3.5,0,1,0,7,0,3.59,3.59,0,0,0-1.5-2.92.46.46,0,0,1-.21-.4V34.79h-1.5a.5.5,0,0,1-.5-.5.5.5,0,0,1,.5-.5h1.5V32.5h-1.5a.5.5,0,1,1,0-1h1.5V30.21h-1.5a.5.5,0,0,1-.5-.5.5.5,0,0,1,.5-.5h1.5v-.6A1.8,1.8,0,0,0,47.5,26.79Z"/></svg>