<svg xmlns="http://www.w3.org/2000/svg" viewBox="0 0 64 64"><path d="M41.19,34.34a.93.93,0,0,0,.68-.28.89.89,0,0,0,.28-.67.93.93,0,0,0-.28-.68.87.87,0,0,0-.68-.29.89.89,0,0,0-.68.29.93.93,0,0,0-.28.68.89.89,0,0,0,.28.67A.91.91,0,0,0,41.19,34.34Z" fill="none"/><path d="M35.71,36.48a.52.52,0,0,1-.21-.41V29.5h-2v8.28a4.5,4.5,0,1,1-3,0V27a1.5,1.5,0,0,1,3,0v1.5h2v-3h-3a.5.5,0,0,1,0-1h3v-3h-3a.5.5,0,0,1,0-1h3V19.06a3.5,3.5,0,1,0-7,0v17a.52.52,0,0,1-.21.41A6.64,6.64,0,0,0,25.5,41.9a6.5,6.5,0,1,0,13,0A6.64,6.64,0,0,0,35.71,36.48Z" fill="none"/><path d="M32,43.5A1.5,1.5,0,0,1,30.5,42V37.78a4.5,4.5,0,1,0,3,0V42A1.5,1.5,0,0,1,32,43.5Z"/><path d="M32,25.5A1.5,1.5,0,0,0,30.5,27V42a1.5,1.5,0,0,0,3,0V29.5h-1a.5.5,0,0,1,0-1h1V27A1.5,1.5,0,0,0,32,25.5Z"/><path d="M32,14.5a4.53,4.53,0,0,0-4.5,4.56V35.82a7.64,7.64,0,0,0-3,6.08,7.5,7.5,0,1,0,15,0,7.64,7.64,0,0,0-3-6.08V19.06A4.53,4.53,0,0,0,32,14.5Zm6.5,27.4a6.5,6.5,0,1,1-13,0,6.64,6.64,0,0,1,2.79-5.42.52.52,0,0,0,.21-.41v-17a3.5,3.5,0,1,1,7,0V20.5h-3a.5.5,0,0,0,0,1h3v3h-3a.5.5,0,0,0,0,1h3v3h-3a.5.5,0,0,0,0,1h3v6.57a.52.52,0,0,0,.21.41A6.64,6.64,0,0,1,38.5,41.9Z"/><path d="M41.19,35.57a2.1,2.1,0,0,0,1.53-.65,2.13,2.13,0,0,0,.65-1.54,2.19,2.19,0,0,0-3.73-1.55,2.2,2.2,0,0,0,0,3.1A2.11,2.11,0,0,0,41.19,35.57Zm-.68-2.86a.89.89,0,0,1,.68-.29.87.87,0,0,1,.68.29.93.93,0,0,1,.28.68.89.89,0,0,1-.28.67.93.93,0,0,1-.68.28.91.91,0,0,1-.68-.28.89.89,0,0,1-.28-.67A.93.93,0,0,1,40.51,32.71Z"/><path d="M50.53,32.87a.5.5,0,0,0,.36-.1.46.46,0,0,0,.11-.35v-.66a.47.47,0,0,0-.11-.35.5.5,0,0,0-.36-.1h-5.3a.5.5,0,0,0-.36.1.43.43,0,0,0-.11.35v8.58a.46.46,0,0,0,.11.36.55.55,0,0,0,.36.1H46a.38.38,0,0,0,.45-.46V36.9h3.44a.51.51,0,0,0,.36-.1.5.5,0,0,0,.11-.36v-.65a.5.5,0,0,0-.11-.36.55.55,0,0,0-.36-.1H46.44V32.87Z"/></svg>