<svg xmlns="http://www.w3.org/2000/svg" xmlns:xlink="http://www.w3.org/1999/xlink" viewBox="0 0 64 64"><defs><clipPath id="a"><path d="M41,51a9.06,9.06,0,0,1-9-9.1,9.16,9.16,0,0,1,3-6.78V19.06A6,6,0,0,1,41,13H19.89V51Z" fill="none"/></clipPath><clipPath id="b"><path d="M41,48.94a7,7,0,0,1-7-7.1A7.12,7.12,0,0,1,37,36V15H21V48.94Z" fill="none"/></clipPath></defs><g clip-path="url(#a)"><g clip-path="url(#b)"><path d="M32,17c-6.09,9-10,14.62-10,20.09a10,10,0,0,0,20,0C42,31.62,38.09,26,32,17Z"/></g></g><circle cx="41" cy="42" r="4.5"/><path d="M41,43.5A1.5,1.5,0,0,1,39.5,42V27a1.5,1.5,0,0,1,3,0V42A1.5,1.5,0,0,1,41,43.5Z"/><path d="M41,49.5a7.56,7.56,0,0,1-7.5-7.6,7.64,7.64,0,0,1,3-6.08V19.06a4.5,4.5,0,1,1,9,0V35.82a7.64,7.64,0,0,1,3,6.08A7.56,7.56,0,0,1,41,49.5Zm0-34a3.54,3.54,0,0,0-3.5,3.56v17a.52.52,0,0,1-.21.41A6.64,6.64,0,0,0,34.5,41.9a6.5,6.5,0,1,0,13,0,6.64,6.64,0,0,0-2.79-5.42.52.52,0,0,1-.21-.41V29.5h-3a.5.5,0,0,1,0-1h3v-3h-3a.5.5,0,0,1,0-1h3v-3h-3a.5.5,0,0,1,0-1h3V19.06A3.54,3.54,0,0,0,41,15.5Z"/></svg>