<svg xmlns="http://www.w3.org/2000/svg" viewBox="0 0 64 64"><path d="M14,24a5,5,0,0,0,1.46,3.53,8.73,8.73,0,0,1,7.45-6.62A5,5,0,0,0,14,24Z"/><path d="M6.5,24a1,1,0,0,0,1,1h3.17a1,1,0,1,0,0-2H7.5A1,1,0,0,0,6.5,24Z"/><path d="M14.09,29.79a1,1,0,0,0-.27-.61,1,1,0,0,0-1.42,0l-2.24,2.24a1,1,0,0,0,.63,1.7A9.16,9.16,0,0,1,14.09,29.79Z"/><path d="M26.42,15.16,24.18,17.4a1,1,0,0,0,0,1.42,1,1,0,0,0,.71.29,1,1,0,0,0,.71-.29l2.24-2.24a1,1,0,1,0-1.42-1.42Z"/><path d="M11.58,15.16a1,1,0,0,0-1.42,1.42l2.24,2.24a1,1,0,0,0,.71.29,1,1,0,0,0,.71-.29,1,1,0,0,0,0-1.42Z"/><path d="M20,15.67V12.5a1,1,0,0,0-2,0v3.17a1,1,0,0,0,2,0Z"/><path d="M55.6,28.89a3.52,3.52,0,0,0,.06-.66,4.06,4.06,0,0,0-6.13-3.48,6.07,6.07,0,0,0-4-2.77,12,12,0,0,1,2.33,7.13c0,.21,0,.43,0,.64a8.75,8.75,0,0,1,6.66,7.75h.32a4.34,4.34,0,0,0,.81-8.61Z"/><path d="M35.81,19a10,10,0,0,0-8.51,4.8,6.56,6.56,0,0,0-3.4-.95,6.71,6.71,0,0,0-6.68,6.74,6.62,6.62,0,0,0,.1,1.1A7.22,7.22,0,0,0,18.65,45l.48,0v0h4.1l.69-4.36a2.49,2.49,0,0,1,2.47-2.11l.4,0,.23.06,1.08-3.25A2,2,0,0,1,30,34h6a2,2,0,0,1,1.7,1,2,2,0,0,1,.09,1.94L35.24,42h.7a2.51,2.51,0,0,1,1.45-.47l.4,0a2.5,2.5,0,0,1,1.62,1,.25.25,0,0,1,0,.07,1.87,1.87,0,0,1,.33.45,2,2,0,0,1,0,1.78l0,.14h6.06a6.74,6.74,0,0,0,0-13.48h-.31A10.05,10.05,0,0,0,35.81,19Z"/><path d="M25.61,47a1,1,0,0,0,1-.85l.78-4.93a1,1,0,1,0-2-.31l-.78,4.93A1,1,0,0,0,25.45,47Z"/><path d="M34.86,44H32l4-8H30l-1.33,4a2.46,2.46,0,0,1,.19,1.42l-.78,4.94a2.49,2.49,0,0,1-1,1.64H30L28,58l6.15-8.62a2.68,2.68,0,0,1,0-.8Z"/><path d="M36.45,50h.16a1,1,0,0,0,1-.85l.78-4.93a1,1,0,1,0-2-.31l-.78,4.93A1,1,0,0,0,36.45,50Z"/></svg>