<svg xmlns="http://www.w3.org/2000/svg" viewBox="0 0 64 64"><path d="M19,42.5H45a2,2,0,0,0,2-2V34.33H46c-1.36,0-2.61-1.46-3.25-2.67a.28.28,0,0,0-.5,0c-.64,1.21-1.89,2.67-3.25,2.67s-2.61-1.46-3.25-2.67a.28.28,0,0,0-.5,0c-.64,1.21-1.89,2.67-3.25,2.67s-2.61-1.46-3.25-2.67a.28.28,0,0,0-.5,0c-.64,1.21-1.89,2.67-3.25,2.67s-2.61-1.46-3.25-2.67a.28.28,0,0,0-.5,0c-.64,1.21-1.89,2.67-3.25,2.67H17v6.13A2,2,0,0,0,19,42.5Z"/><path d="M32,28.5a1,1,0,0,0,1-1V21.17l1.25,1.43a1,1,0,1,0,1.5-1.31l-3-3.44a1,1,0,0,0-.41-.29,1.11,1.11,0,0,0-.51,0h0l-.14,0h0a1,1,0,0,0-.43.29h0l-3,3.45A1,1,0,0,0,28,22a1,1,0,0,0,.34.75,1,1,0,0,0,1.41-.1L31,21.17V27.5A1,1,0,0,0,32,28.5Z"/></svg>