<svg xmlns="http://www.w3.org/2000/svg" viewBox="0 0 64 64"><path d="M25.53,47.27a2.59,2.59,0,0,1,1.82-.6,2.56,2.56,0,0,1,1.8.6,2.14,2.14,0,0,1,.65,1.64v2.16a2.17,2.17,0,0,1-.65,1.66,2.54,2.54,0,0,1-1.8.6,2.55,2.55,0,0,1-1.82-.61,2.15,2.15,0,0,1-.65-1.65V48.91A2.14,2.14,0,0,1,25.53,47.27Zm2.55,1a1.31,1.31,0,0,0-1.48,0,.81.81,0,0,0-.26.65V51.1a.84.84,0,0,0,.26.66,1.31,1.31,0,0,0,1.48,0,.84.84,0,0,0,.26-.66V48.89A.81.81,0,0,0,28.08,48.24Z"/><path d="M33.33,50.25a.39.39,0,0,1,.08.29v.55a.39.39,0,0,1-.08.29.42.42,0,0,1-.29.08H31a.41.41,0,0,1-.28-.08.39.39,0,0,1-.08-.29v-.55a.39.39,0,0,1,.08-.29.41.41,0,0,1,.28-.08h2A.42.42,0,0,1,33.33,50.25Z"/><path d="M38.25,49.85a1.56,1.56,0,0,1,.87,1.5,1.84,1.84,0,0,1-.6,1.45,2.67,2.67,0,0,1-1.79.53,2.4,2.4,0,0,1-2.53-1.51.33.33,0,0,1,.23-.47l.67-.24a.34.34,0,0,1,.29,0,.46.46,0,0,1,.18.25,1,1,0,0,0,.38.51,1.43,1.43,0,0,0,.74.16c.6,0,.9-.24.9-.7s-.25-.71-.76-.71h-.71a.44.44,0,0,1-.29-.07.42.42,0,0,1-.08-.29v-.56a.41.41,0,0,1,.08-.28.39.39,0,0,1,.29-.08h.53a.9.9,0,0,0,.57-.17.58.58,0,0,0,.23-.49c0-.45-.27-.67-.8-.67a1.12,1.12,0,0,0-.68.16,1,1,0,0,0-.35.51.49.49,0,0,1-.18.24.41.41,0,0,1-.29,0l-.68-.24a.33.33,0,0,1-.22-.47,2.2,2.2,0,0,1,.88-1.13,2.89,2.89,0,0,1,1.6-.38,2.43,2.43,0,0,1,1.62.49,1.7,1.7,0,0,1,.57,1.35A1.48,1.48,0,0,1,38.25,49.85Z"/><path d="M42.66,29.06A12,12,0,0,1,30.86,14,12,12,0,1,0,44,29,11.9,11.9,0,0,1,42.66,29.06Z"/></svg>