<svg xmlns="http://www.w3.org/2000/svg" viewBox="0 0 64 64"><path d="M26.68,49c0-.66-.35-1-1.05-1s-1.06.26-1.06.78a.69.69,0,0,0,.25.58,1.3,1.3,0,0,0,.81.19,3.12,3.12,0,0,0,1.05-.14Z" fill="none"/><path d="M25.62,52a1,1,0,0,1-1.05-.58.6.6,0,0,0-.19-.25.35.35,0,0,0-.28,0l-.66.24a.4.4,0,0,0-.24.18.34.34,0,0,0,0,.29,2.3,2.3,0,0,0,2.41,1.44,2.59,2.59,0,0,0,1.86-.63,2.36,2.36,0,0,0,.65-1.76V49.06a2.36,2.36,0,0,0-.65-1.76,2.55,2.55,0,0,0-1.86-.63,2.82,2.82,0,0,0-1.85.56,1.93,1.93,0,0,0-.66,1.55,2,2,0,0,0,.59,1.56,2.72,2.72,0,0,0,1.83.52,5.43,5.43,0,0,0,1.14-.1v.18A.93.93,0,0,1,25.62,52Zm0-2.45a1.3,1.3,0,0,1-.81-.19.69.69,0,0,1-.25-.58c0-.52.36-.78,1.06-.78s1.05.34,1.05,1v.41A3.12,3.12,0,0,1,25.63,49.54Z"/><path d="M29.38,50.17a.3.3,0,0,0-.37.37v.55a.3.3,0,0,0,.37.37h2a.3.3,0,0,0,.37-.37v-.55a.3.3,0,0,0-.37-.37Z"/><path d="M33.76,53.11a.39.39,0,0,0,.29.09h.73a.37.37,0,0,0,.29-.09.41.41,0,0,0,.08-.28V47.17a.39.39,0,0,0-.08-.28.37.37,0,0,0-.29-.09h-.51a1,1,0,0,0-.52.15l-1.63.94c-.13.08-.21.15-.23.21a.37.37,0,0,0,.05.29l.31.57c.13.24.31.28.56.14l.87-.5v4.23A.41.41,0,0,0,33.76,53.11Z"/><path d="M37.7,51.66a.38.38,0,0,1,.15-.12l.19-.08.23-.08.21-.07a5.73,5.73,0,0,0,1.89-1.07,2.09,2.09,0,0,0,.51-1.51,2,2,0,0,0-.61-1.46,2.29,2.29,0,0,0-1.66-.6,2.36,2.36,0,0,0-2.43,1.51.32.32,0,0,0,.23.47l.69.25a.4.4,0,0,0,.28,0,.54.54,0,0,0,.19-.25,1,1,0,0,1,1-.66.78.78,0,0,1,.6.23.74.74,0,0,1,.22.55,1,1,0,0,1-.39.79,5.32,5.32,0,0,1-1.12.56,4.49,4.49,0,0,0-.64.29,4.33,4.33,0,0,0-.53.37,1.46,1.46,0,0,0-.42.57,2,2,0,0,0-.14.77v.69a.41.41,0,0,0,.08.28.35.35,0,0,0,.28.09h3.9a.39.39,0,0,0,.29-.09.41.41,0,0,0,.08-.28v-.59a.3.3,0,0,0-.37-.37H37.65V51.8A.24.24,0,0,1,37.7,51.66Z"/><path d="M39.7,30a7.7,7.7,0,1,0-11.82,6.5h8.24A7.69,7.69,0,0,0,39.7,30Z"/><path d="M41.51,22.61l3.22-3.22a1.5,1.5,0,1,0-2.12-2.12l-3.22,3.22a1.49,1.49,0,0,0,0,2.12,1.45,1.45,0,0,0,1.06.44A1.47,1.47,0,0,0,41.51,22.61Z"/><path d="M33.5,18.05V13.5a1.5,1.5,0,0,0-3,0v4.55a1.5,1.5,0,0,0,3,0Z"/><path d="M48.5,28.5H44a1.5,1.5,0,0,0,0,3H48.5a1.5,1.5,0,0,0,0-3Z"/><path d="M23.55,23.05a1.45,1.45,0,0,0,1.06-.44,1.49,1.49,0,0,0,0-2.12l-3.22-3.22a1.5,1.5,0,1,0-2.12,2.12l3.22,3.22A1.47,1.47,0,0,0,23.55,23.05Z"/><path d="M14,30a1.5,1.5,0,0,0,1.5,1.5h4.55a1.5,1.5,0,0,0,0-3H15.5A1.5,1.5,0,0,0,14,30Z"/><path d="M42.5,39.5a.5.5,0,0,0,0-1h-21a.5.5,0,0,0,0,1Z"/></svg>