<svg xmlns="http://www.w3.org/2000/svg" viewBox="0 0 64 64"><path d="M28.66,51a.6.6,0,0,0-.14-.13l-.16-.1-.23-.08-.23-.06-.28-.07-.3-.07a.93.93,0,0,0-.62.88c0,.46.35.69,1.06.69a1.28,1.28,0,0,0,.77-.18.58.58,0,0,0,.23-.51.66.66,0,0,0,0-.21A.77.77,0,0,0,28.66,51Z" fill="none"/><path d="M27.73,49.29l.38.1a.89.89,0,0,0,.55-.82.55.55,0,0,0-.24-.49,1.09,1.09,0,0,0-.65-.17c-.58,0-.86.22-.86.66a.54.54,0,0,0,.2.45A1.92,1.92,0,0,0,27.73,49.29Z" fill="none"/><path d="M24.27,47.17c0-.14,0-.23-.08-.28a.37.37,0,0,0-.29-.09h-.51a1,1,0,0,0-.52.15l-1.63.94a.6.6,0,0,0-.23.21.37.37,0,0,0,0,.29l.31.57a.36.36,0,0,0,.56.14l.88-.5v4.23a.36.36,0,0,0,.08.28.37.37,0,0,0,.29.09h.72a.37.37,0,0,0,.29-.09.36.36,0,0,0,.08-.28Z"/><path d="M29.35,49.81a1.59,1.59,0,0,0,.73-1.38,1.53,1.53,0,0,0-.6-1.3,2.75,2.75,0,0,0-1.73-.46,2.65,2.65,0,0,0-1.7.49,1.68,1.68,0,0,0-.62,1.38A1.71,1.71,0,0,0,26.16,50a1.68,1.68,0,0,0-.93,1.51c0,1.19.84,1.79,2.52,1.79a2.92,2.92,0,0,0,1.92-.52,1.76,1.76,0,0,0,.62-1.43A1.66,1.66,0,0,0,29.35,49.81Zm-1.58-1.9a1.09,1.09,0,0,1,.65.17.55.55,0,0,1,.24.49.89.89,0,0,1-.55.82l-.38-.1a1.92,1.92,0,0,1-.62-.27.54.54,0,0,1-.2-.45C26.91,48.13,27.19,47.91,27.77,47.91Zm.76,4a1.28,1.28,0,0,1-.77.18c-.71,0-1.06-.23-1.06-.69a.93.93,0,0,1,.62-.88l.3.07.28.07.23.06.23.08.16.1a.6.6,0,0,1,.14.13.77.77,0,0,1,.07.16.66.66,0,0,1,0,.21A.58.58,0,0,1,28.53,51.91Z"/><path d="M33.45,50.17h-2a.41.41,0,0,0-.28.08.39.39,0,0,0-.08.29v.55a.39.39,0,0,0,.08.29.41.41,0,0,0,.28.08h2a.42.42,0,0,0,.29-.08.39.39,0,0,0,.08-.29v-.55a.39.39,0,0,0-.08-.29A.42.42,0,0,0,33.45,50.17Z"/><path d="M36.13,51.66a.38.38,0,0,1,.15-.12l.19-.08.23-.08.21-.07a5.73,5.73,0,0,0,1.89-1.07,2.09,2.09,0,0,0,.51-1.51,2,2,0,0,0-.61-1.46,2.29,2.29,0,0,0-1.66-.6,2.36,2.36,0,0,0-2.43,1.51.32.32,0,0,0,.23.47l.69.25a.4.4,0,0,0,.28,0,.54.54,0,0,0,.19-.25A1,1,0,0,1,37,48a.78.78,0,0,1,.6.23.74.74,0,0,1,.22.55,1,1,0,0,1-.4.79,4.92,4.92,0,0,1-1.11.56,4.49,4.49,0,0,0-.64.29,4.33,4.33,0,0,0-.53.37,1.46,1.46,0,0,0-.42.57,2,2,0,0,0-.14.77v.69a.41.41,0,0,0,.08.28.35.35,0,0,0,.28.09h3.9a.39.39,0,0,0,.29-.09.41.41,0,0,0,.08-.28v-.59a.3.3,0,0,0-.37-.37H36.08V51.8A.24.24,0,0,1,36.13,51.66Z"/><path d="M43,47.17c0-.14,0-.23-.08-.28a.37.37,0,0,0-.29-.09h-.51a1,1,0,0,0-.52.15L40,47.89a.6.6,0,0,0-.23.21.37.37,0,0,0,0,.29l.31.57a.36.36,0,0,0,.56.14l.87-.5v4.23a.32.32,0,0,0,.37.37h.73a.37.37,0,0,0,.29-.09.36.36,0,0,0,.08-.28Z"/><path d="M32,31.3a7.7,7.7,0,0,0-7.28,5.2H39.28A7.7,7.7,0,0,0,32,31.3Z"/><path d="M42.61,26.27l-3.22,3.22a1.49,1.49,0,0,0,0,2.12,1.45,1.45,0,0,0,1.06.44,1.47,1.47,0,0,0,1.06-.44l3.22-3.22a1.5,1.5,0,1,0-2.12-2.12Z"/><path d="M33.5,27.05V22.5a1.5,1.5,0,0,0-3,0v4.55a1.5,1.5,0,0,0,3,0Z"/><path d="M23.55,32.05a1.45,1.45,0,0,0,1.06-.44,1.49,1.49,0,0,0,0-2.12l-3.22-3.22a1.5,1.5,0,1,0-2.12,2.12l3.22,3.22A1.47,1.47,0,0,0,23.55,32.05Z"/><path d="M43,39a.5.5,0,0,0-.5-.5h-21a.5.5,0,0,0,0,1h21A.5.5,0,0,0,43,39Z"/></svg>