<svg xmlns="http://www.w3.org/2000/svg" viewBox="0 0 64 64"><path d="M36.68,50.46a3.12,3.12,0,0,0-1,.14V51c0,.66.35,1,1,1s1-.26,1-.78a.69.69,0,0,0-.24-.58A1.3,1.3,0,0,0,36.68,50.46Z" fill="none"/><path d="M28.88,49.85a1.49,1.49,0,0,0,.68-1.34A1.67,1.67,0,0,0,29,47.16a2.38,2.38,0,0,0-1.61-.49,2.89,2.89,0,0,0-1.6.38,2.15,2.15,0,0,0-.88,1.13.32.32,0,0,0,.22.47l.68.24a.41.41,0,0,0,.29,0,.49.49,0,0,0,.18-.24,1,1,0,0,1,.35-.51,1.12,1.12,0,0,1,.68-.16c.53,0,.79.22.79.67a.57.57,0,0,1-.22.49.9.9,0,0,1-.57.17h-.53a.39.39,0,0,0-.29.08.41.41,0,0,0-.08.28v.56a.42.42,0,0,0,.08.29.44.44,0,0,0,.29.07h.71c.51,0,.76.24.76.71s-.3.7-.9.7a1.43,1.43,0,0,1-.74-.16,1,1,0,0,1-.38-.51.46.46,0,0,0-.18-.25.34.34,0,0,0-.29,0l-.67.24a.32.32,0,0,0-.23.47,2.39,2.39,0,0,0,2.53,1.51,2.67,2.67,0,0,0,1.79-.53,1.84,1.84,0,0,0,.6-1.45A1.55,1.55,0,0,0,28.88,49.85Z"/><path d="M32.93,50.17h-2a.42.42,0,0,0-.29.08.39.39,0,0,0-.08.29v.55a.39.39,0,0,0,.08.29.42.42,0,0,0,.29.08h2a.41.41,0,0,0,.28-.08.39.39,0,0,0,.08-.29v-.55a.39.39,0,0,0-.08-.29A.41.41,0,0,0,32.93,50.17Z"/><path d="M36.77,49.14a5.3,5.3,0,0,0-1.14.1v-.19a.93.93,0,0,1,1.06-1,1,1,0,0,1,1.05.58.53.53,0,0,0,.19.25.35.35,0,0,0,.28,0l.65-.24a.46.46,0,0,0,.25-.18.31.31,0,0,0,0-.29,2.28,2.28,0,0,0-2.4-1.44,2.57,2.57,0,0,0-1.86.63,2.32,2.32,0,0,0-.65,1.76v1.88a2.32,2.32,0,0,0,.65,1.76,2.55,2.55,0,0,0,1.86.63,2.79,2.79,0,0,0,1.84-.56,1.91,1.91,0,0,0,.67-1.55C39.19,49.83,38.38,49.14,36.77,49.14ZM36.68,52c-.7,0-1-.34-1-1V50.6a3.12,3.12,0,0,1,1-.14,1.3,1.3,0,0,1,.81.19.69.69,0,0,1,.24.58Q37.73,52,36.68,52Z"/><path d="M30.46,17a12,12,0,0,1,.4-3A12,12,0,1,0,44,29a11.9,11.9,0,0,1-1.34.08A12.12,12.12,0,0,1,30.46,17Z"/><path d="M40.86,11a.23.23,0,0,0-.21-.38l-3.12.81a.2.2,0,0,1-.21-.06L35,9.14a.23.23,0,0,0-.38.21l.81,3.12a.2.2,0,0,1-.06.21L33.14,15a.23.23,0,0,0,.21.38l3.12-.81a.2.2,0,0,1,.21.06L39,16.86a.23.23,0,0,0,.38-.21l-.81-3.12a.2.2,0,0,1,.06-.21Z"/><path d="M34.68,23.58l1.53-1.51a.18.18,0,0,1,.14,0l2.08.54a.15.15,0,0,0,.15-.25l-1.51-1.53a.18.18,0,0,1,0-.14l.54-2.08a.15.15,0,0,0-.25-.15l-1.53,1.51a.18.18,0,0,1-.14,0l-2.08-.54a.15.15,0,0,0-.15.25l1.51,1.53a.18.18,0,0,1,0,.14l-.54,2.08A.15.15,0,0,0,34.68,23.58Z"/><path d="M48.34,22.78l-3.1-.86a.22.22,0,0,1-.16-.16l-.86-3.1a.23.23,0,0,0-.44,0l-.86,3.1a.22.22,0,0,1-.16.16l-3.1.86a.23.23,0,0,0,0,.44l3.1.86a.22.22,0,0,1,.16.16l.86,3.1a.23.23,0,0,0,.44,0l.86-3.1a.22.22,0,0,1,.16-.16l3.1-.86A.23.23,0,0,0,48.34,22.78Z"/></svg>