<svg xmlns="http://www.w3.org/2000/svg" viewBox="0 0 64 64"><circle cx="32" cy="26" r="7.7"/><path d="M22.49,33.39l-3.22,3.22a1.51,1.51,0,0,0,0,2.12,1.53,1.53,0,0,0,1.06.44,1.49,1.49,0,0,0,1.06-.44l3.22-3.22a1.5,1.5,0,0,0-2.12-2.12Z"/><path d="M21.55,26a1.5,1.5,0,0,0-1.5-1.5H15.5a1.5,1.5,0,0,0,0,3h4.55A1.5,1.5,0,0,0,21.55,26Z"/><path d="M19.27,13.27a1.51,1.51,0,0,0,0,2.12l3.22,3.22a1.47,1.47,0,0,0,1.06.44,1.45,1.45,0,0,0,1.06-.44,1.49,1.49,0,0,0,0-2.12l-3.22-3.22A1.51,1.51,0,0,0,19.27,13.27Z"/><path d="M41.51,33.39a1.5,1.5,0,0,0-2.12,2.12l3.22,3.22a1.49,1.49,0,0,0,1.06.44,1.53,1.53,0,0,0,1.06-.44,1.51,1.51,0,0,0,0-2.12Z"/><path d="M48.5,24.5H44a1.5,1.5,0,0,0,0,3H48.5a1.5,1.5,0,0,0,0-3Z"/><path d="M41.51,18.61l3.22-3.22a1.5,1.5,0,1,0-2.12-2.12l-3.22,3.22a1.49,1.49,0,0,0,0,2.12,1.45,1.45,0,0,0,1.06.44A1.47,1.47,0,0,0,41.51,18.61Z"/><path d="M32,44a1.5,1.5,0,0,0,1.5-1.5V38a1.5,1.5,0,0,0-3,0V42.5A1.5,1.5,0,0,0,32,44Z"/><path d="M32,15.55a1.5,1.5,0,0,0,1.5-1.5V9.5a1.5,1.5,0,0,0-3,0v4.55A1.5,1.5,0,0,0,32,15.55Z"/><path d="M24.13,46.8h-.52a1,1,0,0,0-.52.15l-1.63.94a.6.6,0,0,0-.23.21.37.37,0,0,0,.05.29l.31.57a.36.36,0,0,0,.56.14l.88-.5v4.23a.36.36,0,0,0,.08.28.37.37,0,0,0,.29.09h.73a.31.31,0,0,0,.36-.37V47.17c0-.14,0-.23-.08-.28A.36.36,0,0,0,24.13,46.8Z"/><path d="M27,51.66a.52.52,0,0,1,.16-.12l.19-.08a1.18,1.18,0,0,1,.23-.08l.2-.07a5.73,5.73,0,0,0,1.89-1.07,2.05,2.05,0,0,0,.52-1.51,2,2,0,0,0-.62-1.46,2.27,2.27,0,0,0-1.66-.6,2.35,2.35,0,0,0-2.42,1.51.32.32,0,0,0,.22.47l.7.25a.37.37,0,0,0,.27,0,.44.44,0,0,0,.19-.25,1,1,0,0,1,1-.66.77.77,0,0,1,.59.23.74.74,0,0,1,.22.55,1,1,0,0,1-.39.79,4.83,4.83,0,0,1-1.12.56,5.07,5.07,0,0,0-.64.29,4.3,4.3,0,0,0-.52.37,1.59,1.59,0,0,0-.43.57,2,2,0,0,0-.14.77v.69a.41.41,0,0,0,.08.28.36.36,0,0,0,.28.09h3.9a.37.37,0,0,0,.29-.09.41.41,0,0,0,.08-.28v-.59A.44.44,0,0,0,30,52a.42.42,0,0,0-.29-.08H27V51.8A.23.23,0,0,1,27,51.66Z"/><path d="M33.25,50.17h-2a.3.3,0,0,0-.37.37v.55a.3.3,0,0,0,.37.37h2a.3.3,0,0,0,.37-.37v-.55a.3.3,0,0,0-.37-.37Z"/><path d="M36.65,46.8h-.51a1,1,0,0,0-.52.15L34,47.89a.6.6,0,0,0-.23.21.37.37,0,0,0,.05.29l.31.57a.36.36,0,0,0,.56.14l.87-.5v4.23a.32.32,0,0,0,.37.37h.73a.37.37,0,0,0,.29-.09.36.36,0,0,0,.08-.28V47.17c0-.14,0-.23-.08-.28A.37.37,0,0,0,36.65,46.8Z"/><path d="M40.52,49.08h-.83l.09-.94h2.37a.42.42,0,0,0,.29-.08.44.44,0,0,0,.08-.29v-.6a.39.39,0,0,0-.08-.28.37.37,0,0,0-.29-.09H39a.61.61,0,0,0-.43.12.54.54,0,0,0-.15.41L38.15,50a.41.41,0,0,0,.06.33.41.41,0,0,0,.31.1h1.89a.93.93,0,0,1,.61.2.72.72,0,0,1,.23.56.78.78,0,0,1-.84.85,1.31,1.31,0,0,1-.71-.16.89.89,0,0,1-.38-.48.59.59,0,0,0-.18-.25.39.39,0,0,0-.29,0l-.7.25a.36.36,0,0,0-.23.17.36.36,0,0,0,0,.29,2.39,2.39,0,0,0,2.52,1.49,2.35,2.35,0,0,0,1.71-.62,2.1,2.1,0,0,0,.62-1.54,2.06,2.06,0,0,0-.57-1.5A2.25,2.25,0,0,0,40.52,49.08Z"/></svg>