<svg xmlns="http://www.w3.org/2000/svg" viewBox="0 0 64 64"><path d="M44.91,27.07l.91-.52a1,1,0,0,0-1-1.73l-.91.52c.19.28.37.56.54.85S44.76,26.78,44.91,27.07Z"/><path d="M18.92,41.12a3.94,3.94,0,0,0,.4,3,4,4,0,0,0,3.47,2,3.87,3.87,0,0,0,2-.54,1,1,0,0,0,.37-1.36,1,1,0,0,0-1.37-.37,2,2,0,0,1-2.73-.73,2,2,0,0,1-.2-1.52,2,2,0,0,1,.93-1.21l13.88-8a9.69,9.69,0,0,0-1-1.74l-13.88,8A4,4,0,0,0,18.92,41.12Z"/><path d="M36.37,35.32l.05,1,1.26.85a8.87,8.87,0,0,1,3.71,6.3l.17,1.75c5.5-3.18,6.9-11.13,3.35-18.11-.15-.29-.29-.59-.46-.88s-.35-.57-.54-.85C39.65,18.78,32.06,16,26.56,19.2l1.43,1a8.89,8.89,0,0,1,3.6,6.36l.11,1.53.8.52a8.28,8.28,0,0,1,2.16,2.06,9.69,9.69,0,0,1,1,1.74A8.29,8.29,0,0,1,36.37,35.32Z"/><path d="M8,30.44H23.78a3.22,3.22,0,0,0,0-6.44,3.17,3.17,0,0,0-2.32,1,1,1,0,0,0,0,1.41,1,1,0,0,0,1.42,0,1.17,1.17,0,0,1,.88-.38,1.22,1.22,0,0,1,0,2.44H8a1,1,0,1,0,0,2Z"/><path d="M17.33,33.56a1.22,1.22,0,1,1,0,2.44,1.19,1.19,0,0,1-.88-.38A1,1,0,0,0,15,37a3.18,3.18,0,0,0,2.32,1,3.22,3.22,0,1,0,0-6.44H8a1,1,0,0,0,0,2Z"/></svg>