<svg xmlns="http://www.w3.org/2000/svg" viewBox="0 0 64 64"><path d="M23.78,30.44H8a1,1,0,1,1,0-2H23.78a1.22,1.22,0,0,0,0-2.44,1.17,1.17,0,0,0-.88.38,1,1,0,0,1-1.42,0,1,1,0,0,1,0-1.41,3.17,3.17,0,0,1,2.32-1,3.22,3.22,0,0,1,0,6.44Z"/><path d="M17.33,38A3.18,3.18,0,0,1,15,37a1,1,0,0,1,1.44-1.39,1.19,1.19,0,0,0,.88.38,1.22,1.22,0,1,0,0-2.44H8a1,1,0,0,1,0-2h9.33a3.22,3.22,0,1,1,0,6.44Z"/><path d="M22.79,46.16a4,4,0,0,1-3.47-2,4,4,0,0,1,1.46-5.46l24-13.88a1,1,0,0,1,1,1.73l-24,13.88a2,2,0,0,0-.93,1.21,2,2,0,0,0,.2,1.52,2,2,0,0,0,2.73.73,1,1,0,0,1,1.37.37,1,1,0,0,1-.37,1.36A3.87,3.87,0,0,1,22.79,46.16Z"/><path d="M55.12,37.55c-5.74,3.31-13.75.18-17.9-7s-2.84-15.67,2.9-19l.16,1.75A8.92,8.92,0,0,0,44,19.61l1.27.86,0,1a8.9,8.9,0,0,0,3.87,6.71l.81.51.11,1.53a8.86,8.86,0,0,0,3.6,6.36Z"/></svg>