<svg xmlns="http://www.w3.org/2000/svg" viewBox="0 0 64 64"><path d="M22.79,46.16a4,4,0,0,1-3.47-2,4,4,0,0,1,1.46-5.46l24-13.88a1,1,0,0,1,1,1.73l-24,13.88a2,2,0,0,0-.93,1.21,2,2,0,0,0,.2,1.52,2,2,0,0,0,2.73.73,1,1,0,0,1,1.37.37,1,1,0,0,1-.37,1.36A3.87,3.87,0,0,1,22.79,46.16Z"/><path d="M41.56,45.18c5.74-3.32,7-11.82,2.89-19s-12.15-10.31-17.89-7l1.43,1a8.89,8.89,0,0,1,3.6,6.36l.11,1.53.8.52a8.83,8.83,0,0,1,3.87,6.7l.05,1,1.26.85a8.87,8.87,0,0,1,3.71,6.3Z"/><path d="M23.78,30.44H8a1,1,0,1,1,0-2H23.78a1.22,1.22,0,0,0,0-2.44,1.17,1.17,0,0,0-.88.38,1,1,0,0,1-1.42,0,1,1,0,0,1,0-1.41,3.17,3.17,0,0,1,2.32-1,3.22,3.22,0,0,1,0,6.44Z"/><path d="M17.33,38A3.18,3.18,0,0,1,15,37a1,1,0,0,1,1.44-1.39,1.19,1.19,0,0,0,.88.38,1.22,1.22,0,1,0,0-2.44H8a1,1,0,0,1,0-2h9.33a3.22,3.22,0,1,1,0,6.44Z"/></svg>