<svg xmlns="http://www.w3.org/2000/svg" viewBox="0 0 64 64"><path d="M45.5,47.54V40.46a.5.5,0,0,0-.1-.36.46.46,0,0,0-.35-.1h-.63a1.24,1.24,0,0,0-.64.18l-2,1.18a.64.64,0,0,0-.29.27.45.45,0,0,0,.07.35l.38.71a.42.42,0,0,0,.68.18l1.07-.62v5.29a.5.5,0,0,0,.1.36.46.46,0,0,0,.35.1h.89a.46.46,0,0,0,.35-.1A.5.5,0,0,0,45.5,47.54Z" fill="none"/><path d="M42.5,32A10.5,10.5,0,1,0,32,42.5V41a9,9,0,0,1,9-9Z"/><path d="M9.5,33.5h6.21a1.5,1.5,0,0,0,0-3H9.5a1.5,1.5,0,0,0,0,3Z"/><path d="M54.5,30.5H48.29a1.5,1.5,0,0,0-1.5,1.5H56A1.5,1.5,0,0,0,54.5,30.5Z"/><path d="M30.5,48.29V54.5A1.5,1.5,0,0,0,32,56V46.79A1.5,1.5,0,0,0,30.5,48.29Z"/><path d="M15,46.85A1.49,1.49,0,0,0,15,49a1.5,1.5,0,0,0,2.12,0l4.39-4.39a1.5,1.5,0,1,0-2.12-2.12Z"/><path d="M49,15a1.49,1.49,0,0,0-2.12,0l-4.39,4.39a1.49,1.49,0,0,0,0,2.12,1.5,1.5,0,0,0,2.12,0L49,17.15A1.49,1.49,0,0,0,49,15Z"/><path d="M21.54,19.42,17.15,15A1.5,1.5,0,0,0,15,17.15l4.39,4.39a1.5,1.5,0,0,0,2.12,0A1.49,1.49,0,0,0,21.54,19.42Z"/><path d="M30.5,9.5v6.21a1.5,1.5,0,0,0,3,0V9.5a1.5,1.5,0,0,0-3,0Z"/><path d="M47,35H41a6,6,0,0,0-6,6v6a6,6,0,0,0,6,6h6a6,6,0,0,0,6-6V41A6,6,0,0,0,47,35Zm-2,13h-.89a.46.46,0,0,1-.35-.1.5.5,0,0,1-.1-.36V42.25l-1.07.62a.42.42,0,0,1-.68-.18L41.58,42a.45.45,0,0,1-.07-.35.64.64,0,0,1,.29-.27l2-1.18a1.24,1.24,0,0,1,.64-.18h.63a.46.46,0,0,1,.35.1.5.5,0,0,1,.1.36v7.08a.5.5,0,0,1-.1.36A.46.46,0,0,1,45.05,48Z"/></svg>