<svg xmlns="http://www.w3.org/2000/svg" viewBox="0 0 64 64"><path d="M41,42.88v2.24a2.84,2.84,0,0,0,.77,2.12A3,3,0,0,0,44,48a3.29,3.29,0,0,0,2.2-.68,2.26,2.26,0,0,0,.8-1.85C47,43.8,46,43,44.11,43a6.56,6.56,0,0,0-1.37.13v-.23A1.11,1.11,0,0,1,44,41.61a1.23,1.23,0,0,1,1.26.69.67.67,0,0,0,.22.31.42.42,0,0,0,.34,0l.77-.29a.53.53,0,0,0,.3-.21.37.37,0,0,0,0-.35A2.73,2.73,0,0,0,44,40a3,3,0,0,0-2.22.76A2.81,2.81,0,0,0,41,42.88Zm3,1.67a1.63,1.63,0,0,1,1,.23.84.84,0,0,1,.29.7q0,.93-1.26.93t-1.26-1.2v-.49A3.7,3.7,0,0,1,44,44.55Z" fill="none"/><path d="M41,32h1.5A10.5,10.5,0,1,0,32,42.5V41A9,9,0,0,1,41,32Z"/><path d="M21.54,19.42,17.15,15A1.5,1.5,0,0,0,15,17.15l4.39,4.39a1.5,1.5,0,0,0,2.12,0A1.49,1.49,0,0,0,21.54,19.42Z"/><path d="M30.5,48.29V54.5A1.5,1.5,0,0,0,32,56V46.79A1.5,1.5,0,0,0,30.5,48.29Z"/><path d="M30.5,9.5v6.21a1.5,1.5,0,0,0,3,0V9.5a1.5,1.5,0,0,0-3,0Z"/><path d="M54.5,30.5H48.29a1.5,1.5,0,0,0-1.5,1.5H56A1.5,1.5,0,0,0,54.5,30.5Z"/><path d="M9.5,33.5h6.21a1.5,1.5,0,0,0,0-3H9.5a1.5,1.5,0,0,0,0,3Z"/><path d="M49,15a1.49,1.49,0,0,0-2.12,0l-4.39,4.39a1.49,1.49,0,0,0,0,2.12,1.5,1.5,0,0,0,2.12,0L49,17.15A1.49,1.49,0,0,0,49,15Z"/><path d="M15,46.85A1.49,1.49,0,0,0,15,49a1.5,1.5,0,0,0,2.12,0l4.39-4.39a1.5,1.5,0,1,0-2.12-2.12Z"/><path d="M42.74,45.21q0,1.2,1.26,1.2t1.26-.93a.84.84,0,0,0-.29-.7,1.63,1.63,0,0,0-1-.23,3.7,3.7,0,0,0-1.26.17Z"/><path d="M41,53h6a6,6,0,0,0,6-6V41a6,6,0,0,0-6-6H41a6,6,0,0,0-6,6v6A6,6,0,0,0,41,53Zm5.87-11.27a.37.37,0,0,1,0,.35.53.53,0,0,1-.3.21l-.77.29a.42.42,0,0,1-.34,0,.67.67,0,0,1-.22-.31A1.23,1.23,0,0,0,44,41.61a1.11,1.11,0,0,0-1.27,1.25v.23A6.56,6.56,0,0,1,44.11,43C46,43,47,43.8,47,45.47a2.26,2.26,0,0,1-.8,1.85A3.29,3.29,0,0,1,44,48a3,3,0,0,1-2.23-.76A2.84,2.84,0,0,1,41,45.12V42.88a2.81,2.81,0,0,1,.78-2.12A3,3,0,0,1,44,40,2.73,2.73,0,0,1,46.87,41.73Z"/></svg>