<svg xmlns="http://www.w3.org/2000/svg" xmlns:xlink="http://www.w3.org/1999/xlink" viewBox="0 0 64 64"><defs><clipPath id="a"><path d="M8,8H56V32H41a9,9,0,0,0-9,9V56H8Z" fill="none"/></clipPath></defs><g clip-path="url(#a)"><circle cx="32" cy="32" r="10.5"/><path d="M32,56a1.5,1.5,0,0,1-1.5-1.5V48.29a1.5,1.5,0,1,1,3,0V54.5A1.5,1.5,0,0,1,32,56Zm15.91-6.59A1.51,1.51,0,0,1,46.85,49l-4.39-4.39a1.5,1.5,0,1,1,2.12-2.12L49,46.85A1.49,1.49,0,0,1,49,49,1.51,1.51,0,0,1,47.91,49.41Zm-31.82,0A1.51,1.51,0,0,1,15,49a1.49,1.49,0,0,1,0-2.12l4.39-4.39a1.5,1.5,0,1,1,2.12,2.12L17.15,49A1.51,1.51,0,0,1,16.09,49.41ZM54.5,33.5H48.29a1.5,1.5,0,1,1,0-3H54.5a1.5,1.5,0,0,1,0,3Zm-38.79,0H9.5a1.5,1.5,0,0,1,0-3h6.21a1.5,1.5,0,0,1,0,3ZM43.52,22a1.51,1.51,0,0,1-1.06-.44,1.49,1.49,0,0,1,0-2.12L46.85,15A1.5,1.5,0,0,1,49,17.15l-4.39,4.39A1.51,1.51,0,0,1,43.52,22Zm-23,0a1.51,1.51,0,0,1-1.06-.44L15,17.15A1.5,1.5,0,0,1,17.15,15l4.39,4.39a1.49,1.49,0,0,1,0,2.12A1.51,1.51,0,0,1,20.48,22ZM32,17.21a1.5,1.5,0,0,1-1.5-1.5V9.5a1.5,1.5,0,0,1,3,0v6.21A1.5,1.5,0,0,1,32,17.21Z"/></g><rect x="35" y="35" width="18" height="18" rx="6"/><path d="M43.89,45a3.21,3.21,0,0,1-2.18-.63A2.38,2.38,0,0,1,41,42.53a2.25,2.25,0,0,1,.8-1.85A3.29,3.29,0,0,1,44,40a3,3,0,0,1,2.23.76A2.84,2.84,0,0,1,47,42.88v2.24a2.81,2.81,0,0,1-.78,2.12A3,3,0,0,1,44,48a2.75,2.75,0,0,1-2.88-1.73.4.4,0,0,1,0-.35.53.53,0,0,1,.29-.21l.78-.29a.42.42,0,0,1,.34,0,.75.75,0,0,1,.22.31,1.21,1.21,0,0,0,1.26.69,1.11,1.11,0,0,0,1.27-1.25v-.23A6.78,6.78,0,0,1,43.89,45ZM44,41.59q-1.26,0-1.26.93a.84.84,0,0,0,.29.7,1.63,1.63,0,0,0,1,.23,3.43,3.43,0,0,0,1.26-.18v-.48Q45.26,41.59,44,41.59Z" fill="#fff"/></svg>