<svg xmlns="http://www.w3.org/2000/svg" viewBox="0 0 64 64"><path d="M41.64,40.64l-.33,3.22a.52.52,0,0,0,.08.4.47.47,0,0,0,.38.12h2.31a1.08,1.08,0,0,1,.75.25.85.85,0,0,1,.29.69,1,1,0,0,1-.28.77,1,1,0,0,1-.75.27,1.69,1.69,0,0,1-.88-.2,1.23,1.23,0,0,1-.47-.59.49.49,0,0,0-.22-.3.45.45,0,0,0-.35,0l-.85.3a.5.5,0,0,0-.29.21.52.52,0,0,0,0,.37c.45,1.21,1.48,1.82,3.1,1.82a2.83,2.83,0,0,0,2.09-.76A2.57,2.57,0,0,0,47,45.35a2.51,2.51,0,0,0-.7-1.84,2.77,2.77,0,0,0-2.07-.72h-1l.11-1.16h2.91a.47.47,0,0,0,.35-.1.46.46,0,0,0,.1-.35v-.73a.37.37,0,0,0-.45-.45H42.36a.75.75,0,0,0-.53.14A.7.7,0,0,0,41.64,40.64Z" fill="none"/><path d="M41,32h1.5A10.5,10.5,0,1,0,32,42.5V41A9,9,0,0,1,41,32Z"/><path d="M30.5,48.29V54.5A1.5,1.5,0,0,0,32,56V46.79A1.5,1.5,0,0,0,30.5,48.29Z"/><path d="M49,15a1.49,1.49,0,0,0-2.12,0l-4.39,4.39a1.49,1.49,0,0,0,0,2.12,1.5,1.5,0,0,0,2.12,0L49,17.15A1.49,1.49,0,0,0,49,15Z"/><path d="M54.5,30.5H48.29a1.5,1.5,0,0,0-1.5,1.5H56A1.5,1.5,0,0,0,54.5,30.5Z"/><path d="M15,46.85A1.49,1.49,0,0,0,15,49a1.5,1.5,0,0,0,2.12,0l4.39-4.39a1.5,1.5,0,1,0-2.12-2.12Z"/><path d="M9.5,33.5h6.21a1.5,1.5,0,0,0,0-3H9.5a1.5,1.5,0,0,0,0,3Z"/><path d="M30.5,9.5v6.21a1.5,1.5,0,0,0,3,0V9.5a1.5,1.5,0,0,0-3,0Z"/><path d="M21.54,19.42,17.15,15A1.5,1.5,0,0,0,15,17.15l4.39,4.39a1.5,1.5,0,0,0,2.12,0A1.49,1.49,0,0,0,21.54,19.42Z"/><path d="M41,53h6a6,6,0,0,0,6-6V41a6,6,0,0,0-6-6H41a6,6,0,0,0-6,6v6A6,6,0,0,0,41,53Zm5.23-13a.37.37,0,0,1,.45.45v.73a.46.46,0,0,1-.1.35.47.47,0,0,1-.35.1H43.32l-.11,1.16h1a2.77,2.77,0,0,1,2.07.72,2.51,2.51,0,0,1,.7,1.84,2.57,2.57,0,0,1-.77,1.89,2.83,2.83,0,0,1-2.09.76c-1.62,0-2.65-.61-3.1-1.82a.52.52,0,0,1,0-.37.5.5,0,0,1,.29-.21l.85-.3a.45.45,0,0,1,.35,0,.49.49,0,0,1,.22.3,1.23,1.23,0,0,0,.47.59,1.69,1.69,0,0,0,.88.2,1,1,0,0,0,.75-.27,1,1,0,0,0,.28-.77.85.85,0,0,0-.29-.69,1.08,1.08,0,0,0-.75-.25H41.77a.47.47,0,0,1-.38-.12.52.52,0,0,1-.08-.4l.33-3.22a.7.7,0,0,1,.19-.5.75.75,0,0,1,.53-.14Z"/></svg>