<svg xmlns="http://www.w3.org/2000/svg" viewBox="0 0 64 64"><path d="M46.27,47.36A2.17,2.17,0,0,0,47,45.62a1.86,1.86,0,0,0-1.06-1.8,1.76,1.76,0,0,0,.82-1.6,2,2,0,0,0-.7-1.62,2.88,2.88,0,0,0-2-.6,3.66,3.66,0,0,0-2,.45,2.64,2.64,0,0,0-1.06,1.37.38.38,0,0,0,.27.56l.82.29a.52.52,0,0,0,.35,0,.55.55,0,0,0,.22-.29,1.24,1.24,0,0,1,.42-.62,1.48,1.48,0,0,1,.83-.18c.64,0,1,.27,1,.8a.68.68,0,0,1-.27.59,1.15,1.15,0,0,1-.69.2h-.64a.51.51,0,0,0-.35.09.49.49,0,0,0-.1.35v.67a.43.43,0,0,0,.1.34.51.51,0,0,0,.35.09h.86c.61,0,.91.29.91.85s-.36.84-1.09.84a1.61,1.61,0,0,1-.89-.19,1.18,1.18,0,0,1-.46-.61.58.58,0,0,0-.22-.3.4.4,0,0,0-.35,0l-.82.29a.39.39,0,0,0-.27.56A2.9,2.9,0,0,0,44.11,48,3.18,3.18,0,0,0,46.27,47.36Z" fill="none"/><path d="M42.5,32A10.5,10.5,0,1,0,32,42.5V41a9,9,0,0,1,9-9Z"/><path d="M30.5,48.29V54.5A1.5,1.5,0,0,0,32,56V46.79A1.5,1.5,0,0,0,30.5,48.29Z"/><path d="M9.5,33.5h6.21a1.5,1.5,0,0,0,0-3H9.5a1.5,1.5,0,0,0,0,3Z"/><path d="M15,46.85A1.49,1.49,0,0,0,15,49a1.5,1.5,0,0,0,2.12,0l4.39-4.39a1.5,1.5,0,1,0-2.12-2.12Z"/><path d="M30.5,9.5v6.21a1.5,1.5,0,0,0,3,0V9.5a1.5,1.5,0,0,0-3,0Z"/><path d="M49,15a1.49,1.49,0,0,0-2.12,0l-4.39,4.39a1.49,1.49,0,0,0,0,2.12,1.5,1.5,0,0,0,2.12,0L49,17.15A1.49,1.49,0,0,0,49,15Z"/><path d="M21.54,19.42,17.15,15A1.5,1.5,0,0,0,15,17.15l4.39,4.39a1.5,1.5,0,0,0,2.12,0A1.49,1.49,0,0,0,21.54,19.42Z"/><path d="M54.5,30.5H48.29a1.5,1.5,0,0,0-1.5,1.5H56A1.5,1.5,0,0,0,54.5,30.5Z"/><path d="M47,35H41a6,6,0,0,0-6,6v6a6,6,0,0,0,6,6h6a6,6,0,0,0,6-6V41A6,6,0,0,0,47,35ZM41,46.18a.39.39,0,0,1,.27-.56l.82-.29a.4.4,0,0,1,.35,0,.58.58,0,0,1,.22.3,1.18,1.18,0,0,0,.46.61,1.61,1.61,0,0,0,.89.19c.73,0,1.09-.28,1.09-.84s-.3-.85-.91-.85h-.86a.51.51,0,0,1-.35-.09.43.43,0,0,1-.1-.34v-.67a.49.49,0,0,1,.1-.35.51.51,0,0,1,.35-.09H44a1.15,1.15,0,0,0,.69-.2.68.68,0,0,0,.27-.59c0-.53-.32-.8-1-.8a1.48,1.48,0,0,0-.83.18,1.24,1.24,0,0,0-.42.62.55.55,0,0,1-.22.29.52.52,0,0,1-.35,0l-.82-.29a.38.38,0,0,1-.27-.56,2.64,2.64,0,0,1,1.06-1.37,3.66,3.66,0,0,1,2-.45,2.88,2.88,0,0,1,2,.6,2,2,0,0,1,.7,1.62,1.76,1.76,0,0,1-.82,1.6A1.86,1.86,0,0,1,47,45.62a2.17,2.17,0,0,1-.73,1.74,3.18,3.18,0,0,1-2.16.64A2.9,2.9,0,0,1,41,46.18Z"/></svg>