<svg xmlns="http://www.w3.org/2000/svg" xmlns:xlink="http://www.w3.org/1999/xlink" viewBox="0 0 64 64"><defs><clipPath id="a"><path d="M8,8H56V32H41a9,9,0,0,0-9,9V56H8Z" fill="none"/></clipPath></defs><g clip-path="url(#a)"><circle cx="32" cy="32" r="10.5"/><path d="M32,56a1.5,1.5,0,0,1-1.5-1.5V48.29a1.5,1.5,0,1,1,3,0V54.5A1.5,1.5,0,0,1,32,56Zm15.91-6.59A1.51,1.51,0,0,1,46.85,49l-4.39-4.39a1.5,1.5,0,1,1,2.12-2.12L49,46.85A1.49,1.49,0,0,1,49,49,1.51,1.51,0,0,1,47.91,49.41Zm-31.82,0A1.51,1.51,0,0,1,15,49a1.49,1.49,0,0,1,0-2.12l4.39-4.39a1.5,1.5,0,1,1,2.12,2.12L17.15,49A1.51,1.51,0,0,1,16.09,49.41ZM54.5,33.5H48.29a1.5,1.5,0,1,1,0-3H54.5a1.5,1.5,0,0,1,0,3Zm-38.79,0H9.5a1.5,1.5,0,0,1,0-3h6.21a1.5,1.5,0,0,1,0,3ZM43.52,22a1.51,1.51,0,0,1-1.06-.44,1.49,1.49,0,0,1,0-2.12L46.85,15A1.5,1.5,0,0,1,49,17.15l-4.39,4.39A1.51,1.51,0,0,1,43.52,22Zm-23,0a1.51,1.51,0,0,1-1.06-.44L15,17.15A1.5,1.5,0,0,1,17.15,15l4.39,4.39a1.49,1.49,0,0,1,0,2.12A1.51,1.51,0,0,1,20.48,22ZM32,17.21a1.5,1.5,0,0,1-1.5-1.5V9.5a1.5,1.5,0,0,1,3,0v6.21A1.5,1.5,0,0,1,32,17.21Z"/></g><rect x="35" y="35" width="18" height="18" rx="6"/><path d="M44.13,40a2.93,2.93,0,0,1,2.09.73,2.38,2.38,0,0,1,.78,1.8,2.53,2.53,0,0,1-.65,1.85A7,7,0,0,1,44,45.68l-.27.09-.28.1-.24.1a.54.54,0,0,0-.2.14.28.28,0,0,0-.06.18v.09h3.45a.51.51,0,0,1,.37.1.46.46,0,0,1,.1.35v.72a.47.47,0,0,1-.1.35.51.51,0,0,1-.37.1H41.45a.46.46,0,0,1-.35-.1.47.47,0,0,1-.1-.35v-.84a2.33,2.33,0,0,1,.18-1,1.79,1.79,0,0,1,.53-.7,4.36,4.36,0,0,1,.67-.45,7.23,7.23,0,0,1,.8-.36,6.56,6.56,0,0,0,1.41-.68,1.22,1.22,0,0,0,.5-1,.9.9,0,0,0-.28-.68,1.05,1.05,0,0,0-.75-.28,1.26,1.26,0,0,0-1.24.81.78.78,0,0,1-.24.31.54.54,0,0,1-.35,0l-.88-.31c-.3-.11-.4-.3-.28-.58A3,3,0,0,1,44.13,40Z" fill="#fff"/></svg>