<svg xmlns="http://www.w3.org/2000/svg" viewBox="0 0 64 64"><path d="M46.26,47.37A2.12,2.12,0,0,0,47,45.65a2,2,0,0,0-1.12-1.88,1.91,1.91,0,0,0,.86-1.65,1.87,1.87,0,0,0-.7-1.57A3.26,3.26,0,0,0,44,40a3,3,0,0,0-2,.6,2,2,0,0,0-.74,1.65A2,2,0,0,0,42.11,44,2,2,0,0,0,41,45.85C41,47.28,42,48,44,48A3.45,3.45,0,0,0,46.26,47.37ZM44,41.49a1.31,1.31,0,0,1,.77.2.68.68,0,0,1,.28.59,1,1,0,0,1-.65,1L44,43.15a2.3,2.3,0,0,1-.73-.32.64.64,0,0,1-.24-.55C43,41.76,43.33,41.49,44,41.49Zm-1.26,4.19a1.09,1.09,0,0,1,.73-1l.35.08.33.08.28.07a1.58,1.58,0,0,1,.26.1l.19.12a.53.53,0,0,1,.17.16.48.48,0,0,1,.09.19.62.62,0,0,1,0,.25.72.72,0,0,1-.28.62,1.54,1.54,0,0,1-.92.21C43.16,46.51,42.75,46.23,42.75,45.68Z" fill="none"/><path d="M42.5,32A10.5,10.5,0,1,0,32,42.5V41a9,9,0,0,1,9-9Z"/><path d="M54.5,30.5H48.29a1.5,1.5,0,0,0-1.5,1.5H56A1.5,1.5,0,0,0,54.5,30.5Z"/><path d="M30.5,48.29V54.5A1.5,1.5,0,0,0,32,56V46.79A1.5,1.5,0,0,0,30.5,48.29Z"/><path d="M15,46.85A1.49,1.49,0,0,0,15,49a1.5,1.5,0,0,0,2.12,0l4.39-4.39a1.5,1.5,0,1,0-2.12-2.12Z"/><path d="M30.5,9.5v6.21a1.5,1.5,0,0,0,3,0V9.5a1.5,1.5,0,0,0-3,0Z"/><path d="M21.54,19.42,17.15,15A1.5,1.5,0,0,0,15,17.15l4.39,4.39a1.5,1.5,0,0,0,2.12,0A1.49,1.49,0,0,0,21.54,19.42Z"/><path d="M9.5,33.5h6.21a1.5,1.5,0,0,0,0-3H9.5a1.5,1.5,0,0,0,0,3Z"/><path d="M49,15a1.49,1.49,0,0,0-2.12,0l-4.39,4.39a1.49,1.49,0,0,0,0,2.12,1.5,1.5,0,0,0,2.12,0L49,17.15A1.49,1.49,0,0,0,49,15Z"/><path d="M44.91,46.3a.72.72,0,0,0,.28-.62.62.62,0,0,0,0-.25.48.48,0,0,0-.09-.19.53.53,0,0,0-.17-.16L44.7,45a1.58,1.58,0,0,0-.26-.1l-.28-.07-.33-.08-.35-.08a1.09,1.09,0,0,0-.73,1c0,.55.41.83,1.24.83A1.54,1.54,0,0,0,44.91,46.3Z"/><path d="M43,42.28a.64.64,0,0,0,.24.55,2.3,2.3,0,0,0,.73.32l.45.11a1,1,0,0,0,.65-1,.68.68,0,0,0-.28-.59,1.31,1.31,0,0,0-.77-.2C43.33,41.49,43,41.76,43,42.28Z"/><path d="M47,35H41a6,6,0,0,0-6,6v6a6,6,0,0,0,6,6h6a6,6,0,0,0,6-6V41A6,6,0,0,0,47,35ZM41,45.85A2,2,0,0,1,42.11,44a2,2,0,0,1-.87-1.78A2,2,0,0,1,42,40.6a3,3,0,0,1,2-.6,3.26,3.26,0,0,1,2.06.55,1.87,1.87,0,0,1,.7,1.57,1.91,1.91,0,0,1-.86,1.65A2,2,0,0,1,47,45.65a2.12,2.12,0,0,1-.74,1.72A3.45,3.45,0,0,1,44,48C42,48,41,47.28,41,45.85Z"/></svg>