<svg xmlns="http://www.w3.org/2000/svg" viewBox="0 0 64 64"><path d="M46.85,41.66A1.51,1.51,0,0,0,47,41v-.55a.5.5,0,0,0-.1-.36.53.53,0,0,0-.37-.1H41.46a.48.48,0,0,0-.36.1.5.5,0,0,0-.1.36v.76a.49.49,0,0,0,.1.35.53.53,0,0,0,.36.1h3.36L42,47.54c-.13.31-.05.46.23.46h.92a1.88,1.88,0,0,0,.6-.07.61.61,0,0,0,.27-.34Z" fill="none"/><path d="M42.5,32A10.5,10.5,0,1,0,32,42.5V41a9,9,0,0,1,9-9Z"/><path d="M54.5,30.5H48.29a1.5,1.5,0,0,0-1.5,1.5H56A1.5,1.5,0,0,0,54.5,30.5Z"/><path d="M9.5,33.5h6.21a1.5,1.5,0,0,0,0-3H9.5a1.5,1.5,0,0,0,0,3Z"/><path d="M30.5,9.5v6.21a1.5,1.5,0,0,0,3,0V9.5a1.5,1.5,0,0,0-3,0Z"/><path d="M30.5,48.29V54.5A1.5,1.5,0,0,0,32,56V46.79A1.5,1.5,0,0,0,30.5,48.29Z"/><path d="M49,15a1.49,1.49,0,0,0-2.12,0l-4.39,4.39a1.49,1.49,0,0,0,0,2.12,1.5,1.5,0,0,0,2.12,0L49,17.15A1.49,1.49,0,0,0,49,15Z"/><path d="M21.54,19.42,17.15,15A1.5,1.5,0,0,0,15,17.15l4.39,4.39a1.5,1.5,0,0,0,2.12,0A1.49,1.49,0,0,0,21.54,19.42Z"/><path d="M15,46.85A1.49,1.49,0,0,0,15,49a1.5,1.5,0,0,0,2.12,0l4.39-4.39a1.5,1.5,0,1,0-2.12-2.12Z"/><path d="M47,35H41a6,6,0,0,0-6,6v6a6,6,0,0,0,6,6h6a6,6,0,0,0,6-6V41A6,6,0,0,0,47,35ZM43.78,47.93a1.88,1.88,0,0,1-.6.07h-.92c-.28,0-.36-.15-.23-.46l2.79-5.87H41.46a.53.53,0,0,1-.36-.1.49.49,0,0,1-.1-.35v-.76a.5.5,0,0,1,.1-.36.48.48,0,0,1,.36-.1h5.07a.53.53,0,0,1,.37.1.5.5,0,0,1,.1.36V41a1.51,1.51,0,0,1-.15.65l-2.8,5.93A.61.61,0,0,1,43.78,47.93Z"/></svg>