<svg xmlns="http://www.w3.org/2000/svg" viewBox="0 0 64 64"><path d="M53.75,23.5a6.51,6.51,0,0,0-6.5-6.5,6.44,6.44,0,0,0-4.69,2,1.5,1.5,0,0,0,2.17,2.08A3.43,3.43,0,0,1,47.25,20a3.5,3.5,0,0,1,0,7H11.75a1.5,1.5,0,0,0,0,3h35.5A6.51,6.51,0,0,0,53.75,23.5Z"/><path d="M39.25,40.5a6.51,6.51,0,0,0-6.5-6.5h-21a1.5,1.5,0,0,0,0,3h21a3.5,3.5,0,0,1,0,7,3.43,3.43,0,0,1-2.52-1.08A1.5,1.5,0,0,0,28.06,45a6.44,6.44,0,0,0,4.69,2A6.51,6.51,0,0,0,39.25,40.5Z"/><path d="M49.38,45.24a.55.55,0,0,0,.4.12h.85a.52.52,0,0,0,.4-.12.51.51,0,0,0,.11-.39V35.21a.42.42,0,0,0-.51-.5h-.71a1.34,1.34,0,0,0-.72.21L46.27,36.6a.67.67,0,0,0-.31.29.58.58,0,0,0,.07.4l.38.67a.57.57,0,0,0,.3.31.62.62,0,0,0,.46-.12L49.27,37v7.87A.55.55,0,0,0,49.38,45.24Z"/></svg>