<svg xmlns="http://www.w3.org/2000/svg" viewBox="0 0 64 64"><polygon points="50.06 41.22 50.06 37.2 46.8 41.22 50.06 41.22" fill="none"/><path d="M47.25,17a6.44,6.44,0,0,0-4.69,2,1.5,1.5,0,0,0,2.17,2.08A3.43,3.43,0,0,1,47.25,20a3.5,3.5,0,0,1,0,7H11.75a1.5,1.5,0,0,0,0,3h35.5a6.5,6.5,0,0,0,0-13Z"/><path d="M32.75,44a3.43,3.43,0,0,1-2.52-1.08A1.5,1.5,0,0,0,28.06,45a6.44,6.44,0,0,0,4.69,2,6.5,6.5,0,0,0,0-13h-21a1.5,1.5,0,0,0,0,3h21a3.5,3.5,0,0,1,0,7Z"/><path d="M51.7,34.78a.6.6,0,0,0-.4-.1h-.82a.88.88,0,0,0-.72.36l-5,6.17a1,1,0,0,0-.18.62v.54a.55.55,0,0,0,.11.4.6.6,0,0,0,.4.11h5v2a.51.51,0,0,0,.11.39.55.55,0,0,0,.4.12h.73a.43.43,0,0,0,.51-.51v-2h1a.56.56,0,0,0,.4-.11.6.6,0,0,0,.11-.4v-.65a.57.57,0,0,0-.11-.39.55.55,0,0,0-.4-.12h-1v-6A.59.59,0,0,0,51.7,34.78Zm-1.64,6.43H46.8l3.26-4Z"/></svg>