<svg xmlns="http://www.w3.org/2000/svg" viewBox="0 0 64 64"><path d="M47.25,30H11.75a1.5,1.5,0,0,1,0-3h35.5a3.5,3.5,0,0,0,0-7,3.43,3.43,0,0,0-2.52,1.08A1.5,1.5,0,0,1,42.56,19a6.44,6.44,0,0,1,4.69-2,6.5,6.5,0,0,1,0,13Z"/><path d="M32.75,47a6.44,6.44,0,0,1-4.69-2,1.5,1.5,0,0,1,2.17-2.08A3.43,3.43,0,0,0,32.75,44a3.5,3.5,0,0,0,0-7h-21a1.5,1.5,0,0,1,0-3h21a6.5,6.5,0,0,1,0,13Z"/><path d="M48.79,41.34q-3.88,0-3.88-3.42A3.15,3.15,0,0,1,46,35.4a4.41,4.41,0,0,1,3-.92,4.06,4.06,0,0,1,3,1,3.85,3.85,0,0,1,1,2.87v3.28a3.84,3.84,0,0,1-1,2.88,4.05,4.05,0,0,1-3,1,3.74,3.74,0,0,1-3.89-2.37.65.65,0,0,1,0-.41.73.73,0,0,1,.35-.25l.8-.28a.49.49,0,0,1,.4,0,.69.69,0,0,1,.25.35,2,2,0,0,0,2.11,1.24,1.9,1.9,0,0,0,2.16-2.14v-.63A8.91,8.91,0,0,1,48.79,41.34Zm1.75-4.56a2.2,2.2,0,0,0-1.6-.55,2.66,2.66,0,0,0-1.61.43,1.5,1.5,0,0,0-.55,1.26,1.56,1.56,0,0,0,.5,1.25,2.65,2.65,0,0,0,1.64.41,5.11,5.11,0,0,0,2.18-.35v-.85A2.12,2.12,0,0,0,50.54,36.78Z"/></svg>