<svg xmlns="http://www.w3.org/2000/svg" viewBox="0 0 64 64"><path d="M47.25,17a6.44,6.44,0,0,0-4.69,2,1.5,1.5,0,0,0,2.17,2.08A3.43,3.43,0,0,1,47.25,20a3.5,3.5,0,0,1,0,7H11.75a1.5,1.5,0,0,0,0,3h35.5a6.5,6.5,0,0,0,0-13Z"/><path d="M32.75,44a3.43,3.43,0,0,1-2.52-1.08A1.5,1.5,0,0,0,28.06,45a6.44,6.44,0,0,0,4.69,2,6.5,6.5,0,0,0,0-13h-21a1.5,1.5,0,0,0,0,3h21a3.5,3.5,0,0,1,0,7Z"/><path d="M49.13,43.82a2.15,2.15,0,0,1-2.26-1.31.62.62,0,0,0-.24-.36.54.54,0,0,0-.4,0l-.83.28a.46.46,0,0,0-.32.66c.59,1.64,2,2.45,4.07,2.45a3.69,3.69,0,0,0,2.75-1,3.42,3.42,0,0,0,1-2.52A3.32,3.32,0,0,0,52,39.62a3.62,3.62,0,0,0-2.71-.95H47.46l.22-2.21H52a.42.42,0,0,0,.51-.51v-.74a.57.57,0,0,0-.11-.39.55.55,0,0,0-.4-.11H46.74a1,1,0,0,0-.61.15,1,1,0,0,0-.22.58l-.45,4.36a.6.6,0,0,0,.09.46.55.55,0,0,0,.45.14h3.17a1.82,1.82,0,0,1,1.28.45A1.53,1.53,0,0,1,50.93,42a1.71,1.71,0,0,1-.49,1.31A1.8,1.8,0,0,1,49.13,43.82Z"/></svg>