<svg xmlns="http://www.w3.org/2000/svg" viewBox="0 0 64 64"><path d="M47.46,36.72a1.78,1.78,0,0,0-.54,1.38V42a1.78,1.78,0,0,0,.54,1.38,2.67,2.67,0,0,0,3.08,0A1.78,1.78,0,0,0,51.08,42V38.1a1.78,1.78,0,0,0-.54-1.38,2.66,2.66,0,0,0-3.08,0Z" fill="none"/><path d="M47.25,17a6.44,6.44,0,0,0-4.69,2,1.5,1.5,0,0,0,2.17,2.08A3.43,3.43,0,0,1,47.25,20a3.5,3.5,0,0,1,0,7H11.75a1.5,1.5,0,0,0,0,3h35.5a6.5,6.5,0,0,0,0-13Z"/><path d="M39.25,40.5a6.51,6.51,0,0,0-6.5-6.5h-21a1.5,1.5,0,0,0,0,3h21a3.5,3.5,0,0,1,0,7,3.43,3.43,0,0,1-2.52-1.08A1.5,1.5,0,0,0,28.06,45a6.44,6.44,0,0,0,4.69,2A6.51,6.51,0,0,0,39.25,40.5Z"/><path d="M46.08,35.46a3.41,3.41,0,0,0-1,2.64V42a3.46,3.46,0,0,0,1,2.66,4.12,4.12,0,0,0,2.92,1,4.12,4.12,0,0,0,2.92-1A3.49,3.49,0,0,0,53,42V38.1a3.44,3.44,0,0,0-1-2.64,4.08,4.08,0,0,0-2.92-1A4.08,4.08,0,0,0,46.08,35.46Zm5,2.64V42a1.78,1.78,0,0,1-.54,1.38,2.67,2.67,0,0,1-3.08,0A1.78,1.78,0,0,1,46.92,42V38.1a1.78,1.78,0,0,1,.54-1.38,2.66,2.66,0,0,1,3.08,0A1.78,1.78,0,0,1,51.08,38.1Z"/></svg>