<svg xmlns="http://www.w3.org/2000/svg" viewBox="0 0 64 64"><path d="M47.25,30H11.75a1.5,1.5,0,0,1,0-3h35.5a3.5,3.5,0,0,0,0-7,3.43,3.43,0,0,0-2.52,1.08A1.5,1.5,0,0,1,42.56,19a6.44,6.44,0,0,1,4.69-2,6.5,6.5,0,0,1,0,13Z"/><path d="M32.75,47a6.44,6.44,0,0,1-4.69-2,1.5,1.5,0,0,1,2.17-2.08A3.43,3.43,0,0,0,32.75,44a3.5,3.5,0,0,0,0-7h-21a1.5,1.5,0,0,1,0-3h21a6.5,6.5,0,0,1,0,13Z"/><path d="M53.25,41.33a.57.57,0,0,1,.11.39v.65a.6.6,0,0,1-.11.4.56.56,0,0,1-.4.11h-1v2a.43.43,0,0,1-.51.51h-.73a.55.55,0,0,1-.4-.12.51.51,0,0,1-.11-.39v-2h-5a.6.6,0,0,1-.4-.11.55.55,0,0,1-.11-.4v-.54a1,1,0,0,1,.18-.62l5-6.17a.88.88,0,0,1,.72-.36h.82a.6.6,0,0,1,.4.1.59.59,0,0,1,.11.41v6h1A.55.55,0,0,1,53.25,41.33Zm-6.45-.12h3.26v-4Z"/></svg>