<svg xmlns="http://www.w3.org/2000/svg" viewBox="0 0 64 64"><path d="M47.25,30H11.75a1.5,1.5,0,0,1,0-3h35.5a3.5,3.5,0,0,0,0-7,3.43,3.43,0,0,0-2.52,1.08A1.5,1.5,0,0,1,42.56,19a6.44,6.44,0,0,1,4.69-2,6.5,6.5,0,0,1,0,13Z"/><path d="M32.75,47a6.44,6.44,0,0,1-4.69-2,1.5,1.5,0,0,1,2.17-2.08A3.43,3.43,0,0,0,32.75,44a3.5,3.5,0,0,0,0-7h-21a1.5,1.5,0,0,1,0-3h21a6.5,6.5,0,0,1,0,13Z"/><path d="M51,34.82a.52.52,0,0,1,.11.39v9.64a.51.51,0,0,1-.11.39.52.52,0,0,1-.4.12h-.85a.43.43,0,0,1-.51-.51V37l-2.1,1.17a.62.62,0,0,1-.46.12.57.57,0,0,1-.3-.31L46,37.29a.58.58,0,0,1-.07-.4.67.67,0,0,1,.31-.29l2.93-1.68a1.34,1.34,0,0,1,.72-.21h.71A.52.52,0,0,1,51,34.82Z"/></svg>