<svg xmlns="http://www.w3.org/2000/svg" viewBox="0 0 64 64"><path d="M47.25,17a6.44,6.44,0,0,0-4.69,2,1.5,1.5,0,0,0,2.17,2.08A3.43,3.43,0,0,1,47.25,20a3.5,3.5,0,0,1,0,7H11.75a1.5,1.5,0,0,0,0,3h35.5a6.5,6.5,0,0,0,0-13Z"/><path d="M39.25,40.5a6.51,6.51,0,0,0-6.5-6.5h-21a1.5,1.5,0,0,0,0,3h21a3.5,3.5,0,0,1,0,7,3.43,3.43,0,0,1-2.52-1.08A1.5,1.5,0,0,0,28.06,45a6.44,6.44,0,0,0,4.69,2A6.51,6.51,0,0,0,39.25,40.5Z"/><path d="M47.18,43.12a.34.34,0,0,1,.09-.19l.13-.16a1,1,0,0,1,.18-.15l.19-.11a.92.92,0,0,1,.23-.12l.22-.09.23-.09.22-.08A10.49,10.49,0,0,0,52,40.31a3.29,3.29,0,0,0,.9-2.48,3.23,3.23,0,0,0-1-2.37,3.64,3.64,0,0,0-2.65-1,3.87,3.87,0,0,0-4,2.48c-.12.3,0,.51.33.64l.81.3a.54.54,0,0,0,.41,0,.64.64,0,0,0,.25-.35,2.09,2.09,0,0,1,2.07-1.34,1.74,1.74,0,0,1,1.26.49,1.66,1.66,0,0,1,.48,1.2,1.84,1.84,0,0,1-.79,1.55,8.51,8.51,0,0,1-1.94.93c-.46.19-.83.35-1.11.5a5.73,5.73,0,0,0-.9.61,2.32,2.32,0,0,0-.71.93,3.33,3.33,0,0,0-.23,1.28v1.13a.43.43,0,0,0,.51.51h6.46a.53.53,0,0,0,.4-.12.51.51,0,0,0,.11-.39v-.74a.55.55,0,0,0-.11-.4.58.58,0,0,0-.4-.11h-5v-.27A.76.76,0,0,1,47.18,43.12Z"/></svg>