<svg xmlns="http://www.w3.org/2000/svg" viewBox="0 0 64 64"><path d="M52.3,36.23a2.28,2.28,0,0,0-1.54.49,1.78,1.78,0,0,0-.55,1.38V42a1.78,1.78,0,0,0,.55,1.38,2.67,2.67,0,0,0,3.08,0A1.78,1.78,0,0,0,54.38,42V38.1a1.78,1.78,0,0,0-.54-1.38A2.28,2.28,0,0,0,52.3,36.23Z" fill="none"/><path d="M53.75,23.5a6.51,6.51,0,0,0-6.5-6.5,6.44,6.44,0,0,0-4.69,2,1.5,1.5,0,0,0,2.17,2.08A3.43,3.43,0,0,1,47.25,20a3.5,3.5,0,0,1,0,7H11.75a1.5,1.5,0,0,0,0,3h35.5A6.51,6.51,0,0,0,53.75,23.5Z"/><path d="M32.75,44a3.43,3.43,0,0,1-2.52-1.08A1.5,1.5,0,0,0,28.06,45a6.44,6.44,0,0,0,4.69,2,6.5,6.5,0,0,0,0-13h-21a1.5,1.5,0,0,0,0,3h21a3.5,3.5,0,0,1,0,7Z"/><path d="M44.63,45.24a.52.52,0,0,0,.4.12h.85a.43.43,0,0,0,.51-.51V35.21a.57.57,0,0,0-.11-.39.55.55,0,0,0-.4-.11h-.72a1.37,1.37,0,0,0-.72.21L41.52,36.6c-.17.1-.28.19-.31.29a.53.53,0,0,0,.07.4l.37.67a.6.6,0,0,0,.3.31.65.65,0,0,0,.47-.12L44.52,37v7.87A.51.51,0,0,0,44.63,45.24Z"/><path d="M52.3,34.48a4.08,4.08,0,0,0-2.92,1,3.38,3.38,0,0,0-1.05,2.64V42a3.42,3.42,0,0,0,1.05,2.66,4.88,4.88,0,0,0,5.84,0,3.49,3.49,0,0,0,1-2.66V38.1a3.44,3.44,0,0,0-1-2.64A4.08,4.08,0,0,0,52.3,34.48ZM54.38,42a1.78,1.78,0,0,1-.54,1.38,2.67,2.67,0,0,1-3.08,0A1.78,1.78,0,0,1,50.21,42V38.1a1.78,1.78,0,0,1,.55-1.38,2.67,2.67,0,0,1,3.08,0,1.78,1.78,0,0,1,.54,1.38Z"/></svg>