<?xml version="1.0" encoding="UTF-8"?><svg xmlns="http://www.w3.org/2000/svg" xmlns:xlink="http://www.w3.org/1999/xlink" viewBox="0 0 512 512"><defs><style>.ie,.if,.ig{fill:none;}.if{stroke-width:12px;}.if,.ig{stroke:#000;stroke-miterlimit:10;}.ig{stroke-width:24px;}.ih{clip-path:url(#fc);}</style><symbol id="a" viewBox="0 0 197.48 128.47"><path d="M161.29,62.08c-.46,0-.91,.05-1.36,.07,.86-3.48,1.36-7.1,1.36-10.85,0-25.01-20.28-45.29-45.29-45.29-16.28,0-30.52,8.62-38.5,21.52-4.52-2.69-9.78-4.27-15.42-4.27-16.68,0-30.2,13.52-30.2,30.2,0,1.67,.17,3.3,.43,4.9-14.98,2.83-26.31,15.97-26.31,31.77,0,17.87,14.48,32.35,32.35,32.35,.73,0,1.44-.06,2.16-.11v.11h120.78c16.68,0,30.2-13.52,30.2-30.2s-13.52-30.2-30.2-30.2Z" style="fill:none; stroke:#000; stroke-miterlimit:10; stroke-width:12px;"/></symbol><clipPath id="fc"><path d="M368.44,0V225.59h-16.5c-16.28,0-30.52,8.62-38.5,21.52-4.52-2.69-9.78-4.27-15.42-4.27-16.68,0-30.2,13.52-30.2,30.2,0,1.67,.17,3.3,.43,4.9-14.98,2.83-26.31,15.97-26.31,31.77v9.8H0V0H368.44Z" style="fill:none;"/></clipPath></defs><g id="b"/><g id="c"/><g id="d"/><g id="e"/><g id="f"/><g id="g"/><g id="h"/><g id="i"/><g id="j"/><g id="k"/><g id="l"/><g id="m"/><g id="n"/><g id="o"/><g id="p"/><g id="q"/><g id="r"/><g id="s"/><g id="t"/><g id="u"/><g id="v"/><g id="w"/><g id="x"/><g id="y"/><g id="a`"/><g id="aa"/><g id="ab"/><g id="ac"/><g id="ad"/><g id="ae"/><g id="af"/><g id="ag"/><g id="ah"/><g id="ai"/><g id="aj"/><g id="ak"/><g id="al"/><g id="am"/><g id="an"/><g id="ao"/><g id="ap"/><g id="aq"/><g id="ar"/><g id="as"/><g id="at"/><g id="au"/><g id="av"/><g id="aw"/><g id="ax"/><g id="ay"/><g id="b`"/><g id="ba"/><g id="bb"/><g id="bc"/><g id="bd"/><g id="be"/><g id="bf"/><g id="bg"/><g id="bh"/><g id="bi"/><g id="bj"/><g id="bk"/><g id="bl"/><g id="bm"/><g id="bn"/><g id="bo"/><g id="bp"/><g id="bq"/><g id="br"/><g id="bs"/><g id="bt"/><g id="bu"/><g id="bv"/><g id="bw"/><g id="bx"/><g id="by"/><g id="c`"/><g id="ca"/><g id="cb"/><g id="cc"/><g id="cd"/><g id="ce"/><g id="cf"/><g id="cg"/><g id="ch"/><g id="ci"/><g id="cj"/><g id="ck"/><g id="cl"/><g id="cm"/><g id="cn"/><g id="co"/><g id="cp"/><g id="cq"/><g id="cr"/><g id="cs"/><g id="ct"/><g id="cu"/><g id="cv"/><g id="cw"/><g id="cx"/><g id="cy"/><g id="d`"/><g id="da"/><g id="db"/><g id="dc"/><g id="dd"/><g id="de"/><g id="df"/><g id="dg"/><g id="dh"/><g id="di"/><g id="dj"/><g id="dk"/><g id="dl"/><g id="dm"/><g id="dn"/><g id="do"/><g id="dp"/><g id="dq"/><g id="dr"/><g id="ds"/><g id="dt"/><g id="du"/><g id="dv"/><g id="dw"/><g id="dx"/><g id="dy"/><g id="e`"/><g id="ea"/><g id="eb"/><g id="ec"/><g id="ed"/><g id="ee"/><g id="ef"/><g id="eg"/><g id="eh"/><g id="ei"/><g id="ej"/><g id="ek"/><g id="el"/><g id="em"/><g id="en"/><g id="eo"/><g id="ep"/><g id="eq"/><g id="er"/><g id="es"/><g id="et"/><g id="eu"/><g id="ev"/><g id="ew"/><g id="ex"/><g id="ey"/><g id="f`"/><g id="fa"/><g id="fb"><g style="clip-path:url(#fc);"><path d="M82,310c0-79.53,66.26-144,148-144s148,64.47,148,144" style="fill:none; stroke:#000; stroke-miterlimit:10; stroke-width:24px;"/><path d="M130,310c0-53.02,44.77-96,100-96s100,42.98,100,96" style="fill:none; stroke:#000; stroke-miterlimit:10; stroke-width:24px;"/></g><use width="197.48" height="128.47" transform="translate(235.94 219.59)" xlink:href="#a"/></g><g id="fd"/><g id="fe"/><g id="ff"/><g id="fg"/><g id="fh"/><g id="fi"/><g id="fj"/><g id="fk"/><g id="fl"/><g id="fm"/><g id="fn"/><g id="fo"/><g id="fp"/><g id="fq"/><g id="fr"/><g id="fs"/><g id="ft"/><g id="fu"/><g id="fv"/><g id="fw"/><g id="fx"/><g id="fy"/><g id="g`"/><g id="ga"/><g id="gb"/><g id="gc"/><g id="gd"/><g id="ge"/><g id="gf"/><g id="gg"/><g id="gh"/><g id="gi"/><g id="gj"/><g id="gk"/><g id="gl"/><g id="gm"/><g id="gn"/><g id="go"/><g id="gp"/><g id="gq"/><g id="gr"/><g id="gs"/><g id="gt"/><g id="gu"/><g id="gv"/><g id="gw"/><g id="gx"/><g id="gy"/><g id="h`"/><g id="ha"/><g id="hb"/><g id="hc"/><g id="hd"/><g id="he"/><g id="hf"/><g id="hg"/><g id="hh"/><g id="hi"/><g id="hj"/><g id="hk"/><g id="hl"/><g id="hm"/><g id="hn"/><g id="ho"/><g id="hp"/><g id="hq"/><g id="hr"/><g id="hs"/><g id="ht"/><g id="hu"/><g id="hv"/><g id="hw"/><g id="hx"/><g id="hy"/><g id="i`"/><g id="ia"/><g id="ib"/><g id="ic"/><g id="id"/></svg>