<?xml version="1.0" encoding="UTF-8"?><svg xmlns="http://www.w3.org/2000/svg" xmlns:xlink="http://www.w3.org/1999/xlink" viewBox="0 0 512 512"><defs><style>.id{fill:#374251;}.ie{fill:none;stroke:#000;stroke-linecap:round;stroke-linejoin:round;stroke-width:15px;}</style><symbol id="a" viewBox="0 0 203 203"><path d="M185,125.45c-52.79,0-95.58-42.22-95.58-94.3,0-8.18,1.17-16.08,3.15-23.65C44.74,12.66,7.5,52.63,7.5,101.2c0,52.08,42.79,94.3,95.58,94.3,44.49,0,81.77-30.04,92.42-70.65-3.45,.37-6.95,.6-10.5,.6Z" style="fill:none; stroke:#000; stroke-linecap:round; stroke-linejoin:round; stroke-width:15px;"/></symbol></defs><g id="b"/><g id="c"/><g id="d"/><g id="e"/><g id="f"/><g id="g"/><g id="h"/><g id="i"/><g id="j"/><g id="k"/><g id="l"/><g id="m"/><g id="n"/><g id="o"/><g id="p"/><g id="q"/><g id="r"/><g id="s"/><g id="t"/><g id="u"/><g id="v"/><g id="w"/><g id="x"/><g id="y"/><g id="a`"/><g id="aa"/><g id="ab"/><g id="ac"/><g id="ad"/><g id="ae"/><g id="af"/><g id="ag"/><g id="ah"/><g id="ai"/><g id="aj"/><g id="ak"/><g id="al"/><g id="am"/><g id="an"/><g id="ao"/><g id="ap"/><g id="aq"/><g id="ar"/><g id="as"/><g id="at"/><g id="au"/><g id="av"/><g id="aw"/><g id="ax"/><g id="ay"/><g id="b`"/><g id="ba"/><g id="bb"/><g id="bc"/><g id="bd"/><g id="be"/><g id="bf"/><g id="bg"/><g id="bh"/><g id="bi"/><g id="bj"/><g id="bk"/><g id="bl"/><g id="bm"/><g id="bn"/><g id="bo"/><g id="bp"/><g id="bq"/><g id="br"/><g id="bs"/><g id="bt"/><g id="bu"/><g id="bv"/><g id="bw"/><g id="bx"/><g id="by"/><g id="c`"/><g id="ca"/><g id="cb"/><g id="cc"/><g id="cd"/><g id="ce"/><g id="cf"/><g id="cg"/><g id="ch"/><g id="ci"/><g id="cj"/><g id="ck"/><g id="cl"/><g id="cm"/><g id="cn"/><g id="co"/><g id="cp"/><g id="cq"/><g id="cr"/><g id="cs"/><g id="ct"/><g id="cu"/><g id="cv"/><g id="cw"/><g id="cx"/><g id="cy"/><g id="d`"/><g id="da"/><g id="db"/><g id="dc"/><g id="dd"/><g id="de"/><g id="df"/><g id="dg"/><g id="dh"/><g id="di"/><g id="dj"/><g id="dk"/><g id="dl"/><g id="dm"/><g id="dn"/><g id="do"/><g id="dp"/><g id="dq"/><g id="dr"/><g id="ds"/><g id="dt"/><g id="du"/><g id="dv"/><g id="dw"/><g id="dx"/><g id="dy"/><g id="e`"/><g id="ea"/><g id="eb"/><g id="ec"/><g id="ed"/><g id="ee"/><g id="ef"/><g id="eg"/><g id="eh"/><g id="ei"/><g id="ej"/><g id="ek"/><g id="el"/><g id="em"/><g id="en"/><g id="eo"/><g id="ep"/><g id="eq"/><g id="er"/><g id="es"/><g id="et"/><g id="eu"/><g id="ev"/><g id="ew"/><g id="ex"/><g id="ey"/><g id="f`"/><g id="fa"/><g id="fb"/><g id="fc"/><g id="fd"/><g id="fe"/><g id="ff"/><g id="fg"/><g id="fh"/><g id="fi"/><g id="fj"/><g id="fk"/><g id="fl"/><g id="fm"/><g id="fn"/><g id="fo"/><g id="fp"/><g id="fq"/><g id="fr"/><g id="fs"/><g id="ft"/><g id="fu"/><g id="fv"/><g id="fw"/><g id="fx"/><g id="fy"/><g id="g`"/><g id="ga"/><g id="gb"/><g id="gc"/><g id="gd"/><g id="ge"/><g id="gf"/><g id="gg"/><g id="gh"/><g id="gi"/><g id="gj"/><g id="gk"/><g id="gl"/><g id="gm"/><g id="gn"/><g id="go"/><g id="gp"/><g id="gq"/><g id="gr"/><g id="gs"/><g id="gt"/><g id="gu"/><g id="gv"/><g id="gw"/><g id="gx"/><g id="gy"/><g id="h`"/><g id="ha"/><g id="hb"/><g id="hc"/><g id="hd"/><g id="he"/><g id="hf"><path d="M227.6,410.73c3.46,.62,6.14,2.05,8.06,4.29s2.88,5,2.88,8.32c0,4.75-1.8,8.69-5.4,11.81-3.65,3.07-8.71,4.61-15.19,4.61s-11.99-1.68-15.66-5.04-5.63-7.99-5.87-13.89h12.31c.29,5.86,3.19,8.79,8.71,8.79,2.45,0,4.38-.6,5.8-1.8,1.41-1.2,2.12-2.83,2.12-4.9s-.74-3.72-2.23-4.82c-1.49-1.1-3.6-1.66-6.34-1.66h-3.6v-8.93h3.81c2.26,0,4-.5,5.22-1.51,1.22-1.01,1.84-2.45,1.84-4.32s-.61-3.32-1.84-4.36c-1.23-1.03-2.96-1.55-5.22-1.55s-3.89,.55-5.04,1.65c-1.15,1.11-1.82,2.91-2.02,5.4h-11.95c.48-11.28,6.96-16.92,19.44-16.92,5.9,0,10.51,1.3,13.82,3.89,3.31,2.59,4.97,5.9,4.97,9.93,0,2.69-.76,5.02-2.27,6.98s-3.64,3.31-6.37,4.03Z"/><path d="M266.26,423.34h-20.52v-9.94h20.52v9.94Z" style="fill:#374251;"/><path d="M297.94,402.96c5.47,0,9.89,1.61,13.25,4.82,3.41,3.26,5.11,7.58,5.11,12.96s-1.92,10.2-5.76,13.75c-3.84,3.5-8.88,5.25-15.12,5.25s-11.42-1.92-15.41-5.76c-4.75-4.51-7.13-11.4-7.13-20.66,0-8.73,1.91-15.49,5.72-20.27,3.82-4.77,9.35-7.16,16.6-7.16,5.04,0,9.23,1.14,12.56,3.42s5.58,5.51,6.73,9.68l-12.46,.72c-1.06-2.73-3.36-4.1-6.91-4.1-2.98,0-5.22,1-6.73,2.99s-2.44,5.24-2.77,9.75c2.88-3.6,6.98-5.4,12.31-5.4Zm-9.5,23.61c1.73,1.88,3.94,2.81,6.62,2.81s4.75-.82,6.19-2.45c1.44-1.68,2.16-3.67,2.16-5.98,0-2.45-.79-4.44-2.38-5.98s-3.62-2.3-6.12-2.3-4.51,.76-6.05,2.27c-1.54,1.51-2.38,3.56-2.52,6.16,.14,2.16,.84,3.98,2.09,5.47Z"/><use width="203" height="203" transform="translate(154.5 134.5)" xlink:href="#a"/></g><g id="hg"/><g id="hh"/><g id="hi"/><g id="hj"/><g id="hk"/><g id="hl"/><g id="hm"/><g id="hn"/><g id="ho"/><g id="hp"/><g id="hq"/><g id="hr"/><g id="hs"/><g id="ht"/><g id="hu"/><g id="hv"/><g id="hw"/><g id="hx"/><g id="hy"/><g id="i`"/><g id="ia"/><g id="ib"/><g id="ic"/></svg>