<?xml version="1.0" encoding="UTF-8"?><svg xmlns="http://www.w3.org/2000/svg" xmlns:xlink="http://www.w3.org/1999/xlink" viewBox="0 0 512 512"><defs><style>.ie,.if,.ig{fill:none;}.if{stroke-linecap:round;}.if,.ig{stroke:#000;stroke-miterlimit:10;stroke-width:15px;}.ih{clip-path:url(#gq);}</style><symbol id="a" viewBox="0 0 375 375"><g><circle cx="187.5" cy="187.5" r="84" style="fill:none; stroke:#000; stroke-miterlimit:10; stroke-width:15px;"/><path d="M187.5,57.16V7.5m0,360v-49.66m92.17-222.51l35.11-35.11M60.22,314.78l35.11-35.11m0-184.34L60.22,60.22m254.56,254.56l-35.11-35.11M57.16,187.5H7.5m360,0h-49.66" style="fill:none; stroke:#000; stroke-linecap:round; stroke-miterlimit:10; stroke-width:15px;"/></g></symbol><clipPath id="gq"><path d="M64,64H448V256h-120.01c-39.76,0-71.99,32.23-71.99,71.99v120.01H64V64Z" style="fill:none;"/></clipPath></defs><g id="b"/><g id="c"/><g id="d"/><g id="e"/><g id="f"/><g id="g"/><g id="h"/><g id="i"/><g id="j"/><g id="k"/><g id="l"/><g id="m"/><g id="n"/><g id="o"/><g id="p"/><g id="q"/><g id="r"/><g id="s"/><g id="t"/><g id="u"/><g id="v"/><g id="w"/><g id="x"/><g id="y"/><g id="a`"/><g id="aa"/><g id="ab"/><g id="ac"/><g id="ad"/><g id="ae"/><g id="af"/><g id="ag"/><g id="ah"/><g id="ai"/><g id="aj"/><g id="ak"/><g id="al"/><g id="am"/><g id="an"/><g id="ao"/><g id="ap"/><g id="aq"/><g id="ar"/><g id="as"/><g id="at"/><g id="au"/><g id="av"/><g id="aw"/><g id="ax"/><g id="ay"/><g id="b`"/><g id="ba"/><g id="bb"/><g id="bc"/><g id="bd"/><g id="be"/><g id="bf"/><g id="bg"/><g id="bh"/><g id="bi"/><g id="bj"/><g id="bk"/><g id="bl"/><g id="bm"/><g id="bn"/><g id="bo"/><g id="bp"/><g id="bq"/><g id="br"/><g id="bs"/><g id="bt"/><g id="bu"/><g id="bv"/><g id="bw"/><g id="bx"/><g id="by"/><g id="c`"/><g id="ca"/><g id="cb"/><g id="cc"/><g id="cd"/><g id="ce"/><g id="cf"/><g id="cg"/><g id="ch"/><g id="ci"/><g id="cj"/><g id="ck"/><g id="cl"/><g id="cm"/><g id="cn"/><g id="co"/><g id="cp"/><g id="cq"/><g id="cr"/><g id="cs"/><g id="ct"/><g id="cu"/><g id="cv"/><g id="cw"/><g id="cx"/><g id="cy"/><g id="d`"/><g id="da"/><g id="db"/><g id="dc"/><g id="dd"/><g id="de"/><g id="df"/><g id="dg"/><g id="dh"/><g id="di"/><g id="dj"/><g id="dk"/><g id="dl"/><g id="dm"/><g id="dn"/><g id="do"/><g id="dp"/><g id="dq"/><g id="dr"/><g id="ds"/><g id="dt"/><g id="du"/><g id="dv"/><g id="dw"/><g id="dx"/><g id="dy"/><g id="e`"/><g id="ea"/><g id="eb"/><g id="ec"/><g id="ed"/><g id="ee"/><g id="ef"/><g id="eg"/><g id="eh"/><g id="ei"/><g id="ej"/><g id="ek"/><g id="el"/><g id="em"/><g id="en"/><g id="eo"/><g id="ep"/><g id="eq"/><g id="er"/><g id="es"/><g id="et"/><g id="eu"/><g id="ev"/><g id="ew"/><g id="ex"/><g id="ey"/><g id="f`"/><g id="fa"/><g id="fb"/><g id="fc"/><g id="fd"/><g id="fe"/><g id="ff"/><g id="fg"/><g id="fh"/><g id="fi"/><g id="fj"/><g id="fk"/><g id="fl"/><g id="fm"/><g id="fn"/><g id="fo"/><g id="fp"/><g id="fq"/><g id="fr"/><g id="fs"/><g id="ft"/><g id="fu"/><g id="fv"/><g id="fw"/><g id="fx"/><g id="fy"/><g id="g`"/><g id="ga"/><g id="gb"/><g id="gc"/><g id="gd"/><g id="ge"/><g id="gf"/><g id="gg"/><g id="gh"/><g id="gi"/><g id="gj"/><g id="gk"/><g id="gl"/><g id="gm"/><g id="gn"/><g id="go"/><g id="gp"><g style="clip-path:url(#gq);"><use width="375" height="375" transform="translate(68.5 68.5)" xlink:href="#a"/><path d="M254,338v-10.02c0-40.86,33.12-73.98,73.98-73.98h10.02" style="fill:none; stroke:#000; stroke-miterlimit:10; stroke-width:15px;"/></g><path d="M376,280h-48c-26.4,0-48,21.6-48,48v48c0,26.4,21.6,48,48,48h48c26.4,0,48-21.6,48-48v-48c0-26.4-21.6-48-48-48Zm-3.06,101.84c-4.88,4.11-11.65,6.16-20.31,6.16s-16.03-2.25-20.94-6.74c-4.91-4.49-7.52-10.68-7.85-18.58h16.46c.39,7.83,4.27,11.74,11.65,11.74,3.27,0,5.86-.8,7.75-2.4,1.89-1.6,2.84-3.79,2.84-6.55s-1-4.97-2.98-6.45c-1.99-1.47-4.81-2.21-8.47-2.21h-4.81v-11.94h5.1c3.02,0,5.34-.67,6.98-2.02,1.64-1.35,2.46-3.27,2.46-5.78s-.82-4.44-2.46-5.82c-1.64-1.38-3.96-2.07-6.98-2.07s-5.2,.74-6.74,2.21c-1.54,1.48-2.44,3.88-2.69,7.22h-15.98c.64-15.08,9.3-22.62,25.99-22.62,7.89,0,14.05,1.73,18.48,5.2,4.43,3.47,6.64,7.89,6.64,13.28,0,3.6-1.01,6.71-3.03,9.34-2.02,2.63-4.86,4.43-8.52,5.39,4.62,.83,8.21,2.74,10.78,5.73,2.57,2.98,3.85,6.69,3.85,11.12,0,6.35-2.4,11.61-7.22,15.79Z"/></g><g id="gr"/><g id="gs"/><g id="gt"/><g id="gu"/><g id="gv"/><g id="gw"/><g id="gx"/><g id="gy"/><g id="h`"/><g id="ha"/><g id="hb"/><g id="hc"/><g id="hd"/><g id="he"/><g id="hf"/><g id="hg"/><g id="hh"/><g id="hi"/><g id="hj"/><g id="hk"/><g id="hl"/><g id="hm"/><g id="hn"/><g id="ho"/><g id="hp"/><g id="hq"/><g id="hr"/><g id="hs"/><g id="ht"/><g id="hu"/><g id="hv"/><g id="hw"/><g id="hx"/><g id="hy"/><g id="i`"/><g id="ia"/><g id="ib"/><g id="ic"/><g id="id"/></svg>