<svg xmlns="http://www.w3.org/2000/svg" xmlns:xlink="http://www.w3.org/1999/xlink" viewBox="0 0 64 64"><defs><clipPath id="a"><path d="M41,51a9.06,9.06,0,0,1-9-9.1,9.16,9.16,0,0,1,3-6.78V19.06A6,6,0,0,1,41,13H19.89V51Z" fill="none"/></clipPath><clipPath id="b"><path d="M41,48.94a7,7,0,0,1-7-7.1A7.12,7.12,0,0,1,37,36V15H21V48.94Z" fill="none"/></clipPath></defs><g clip-path="url(#a)"><g clip-path="url(#b)"><path d="M32,17c-6.09,9-10,14.62-10,20.09a10,10,0,0,0,20,0C42,31.62,38.09,26,32,17Z"/></g></g><circle cx="41" cy="42" r="4.5"/><path d="M41,27V42" fill="none" stroke="#000" stroke-linecap="round" stroke-miterlimit="10" stroke-width="3"/><path d="M48,41.9a7,7,0,1,1-14,0,7.12,7.12,0,0,1,3-5.83v-17a4,4,0,1,1,8,0v17A7.12,7.12,0,0,1,48,41.9ZM41.5,25H45m-3.5-4H45m-3.5,8H45" fill="none" stroke="#000" stroke-linecap="round" stroke-linejoin="round"/></svg>