<svg xmlns="http://www.w3.org/2000/svg" viewBox="0 0 64 64"><path d="M24.22,46.89a.39.39,0,0,1,.08.28v5.66a.41.41,0,0,1-.08.28.37.37,0,0,1-.29.09H23.2a.39.39,0,0,1-.29-.09.41.41,0,0,1-.08-.28V48.6l-.87.5c-.25.14-.43.1-.56-.14l-.31-.57A.37.37,0,0,1,21,48.1c0-.06.1-.13.23-.21L22.9,47a1,1,0,0,1,.52-.15h.51A.37.37,0,0,1,24.22,46.89Z"/><path d="M29.72,46.89a.39.39,0,0,1,.08.28v.6a.3.3,0,0,1-.37.37H27.06l-.09.94h.83a2.27,2.27,0,0,1,1.69.59,2.23,2.23,0,0,1-.06,3,2.31,2.31,0,0,1-1.7.62,2.37,2.37,0,0,1-2.52-1.49.43.43,0,0,1,0-.29.42.42,0,0,1,.24-.17l.7-.25a.36.36,0,0,1,.28,0,.46.46,0,0,1,.18.25,1,1,0,0,0,.39.48,1.31,1.31,0,0,0,.71.16.78.78,0,0,0,.84-.85.72.72,0,0,0-.23-.56.94.94,0,0,0-.62-.2H25.8a.41.41,0,0,1-.31-.1.45.45,0,0,1-.07-.33l.27-2.62a.58.58,0,0,1,.16-.41.61.61,0,0,1,.43-.12h3.15A.39.39,0,0,1,29.72,46.89Z"/><path d="M33.47,50.25a.39.39,0,0,1,.08.29v.55a.39.39,0,0,1-.08.29.42.42,0,0,1-.29.08h-2a.41.41,0,0,1-.28-.08.39.39,0,0,1-.08-.29v-.55a.39.39,0,0,1,.08-.29.41.41,0,0,1,.28-.08h2A.42.42,0,0,1,33.47,50.25Z"/><path d="M36.87,46.89c.06,0,.08.14.08.28v5.66a.31.31,0,0,1-.36.37h-.73a.37.37,0,0,1-.29-.09.36.36,0,0,1-.08-.28V48.6l-.88.5a.36.36,0,0,1-.56-.14l-.31-.57a.37.37,0,0,1-.05-.29.6.6,0,0,1,.23-.21L35.55,47a1,1,0,0,1,.52-.15h.52A.36.36,0,0,1,36.87,46.89Z"/><path d="M38.73,47.16a2.65,2.65,0,0,1,1.7-.49,2.8,2.8,0,0,1,1.74.46,1.55,1.55,0,0,1,.59,1.3A1.59,1.59,0,0,1,42,49.81,1.67,1.67,0,0,1,43,51.38a1.77,1.77,0,0,1-.63,1.43,2.92,2.92,0,0,1-1.92.52c-1.68,0-2.52-.6-2.52-1.79A1.68,1.68,0,0,1,38.84,50a1.71,1.71,0,0,1-.73-1.49A1.68,1.68,0,0,1,38.73,47.16Zm2.68,4a.77.77,0,0,0-.07-.16.6.6,0,0,0-.14-.13L41,50.8l-.22-.08-.24-.06-.28-.07-.3-.07a.93.93,0,0,0-.62.88c0,.46.35.69,1.06.69a1.26,1.26,0,0,0,.77-.18.59.59,0,0,0,.24-.51A.65.65,0,0,0,41.41,51.19Zm-.31-3.11a1.09,1.09,0,0,0-.65-.17c-.57,0-.86.22-.86.66a.54.54,0,0,0,.2.45,1.92,1.92,0,0,0,.62.27l.38.1a.89.89,0,0,0,.55-.82A.55.55,0,0,0,41.1,48.08Z"/><circle cx="32" cy="26" r="7.7"/><path d="M32,14.05V9.5m0,33V38m8.45-20.4,3.22-3.22M20.33,37.67l3.22-3.22m0-16.9-3.22-3.22M43.67,37.67l-3.22-3.22M20.05,26H15.5m33,0H44" fill="none" stroke="#000" stroke-linecap="round" stroke-miterlimit="10" stroke-width="3"/></svg>