<svg xmlns="http://www.w3.org/2000/svg" viewBox="0 0 64 64"><path d="M24.28,44.76a3,3,0,0,1-3-5.2l.27-.15L45.32,25.69" fill="none" stroke="#000" stroke-linecap="round" stroke-linejoin="round" stroke-width="2"/><path d="M41.56,45.18c5.74-3.32,7-11.82,2.89-19s-12.15-10.31-17.89-7l1.43,1a8.89,8.89,0,0,1,3.6,6.36l.11,1.53.8.52a8.83,8.83,0,0,1,3.87,6.7l.05,1,1.26.85a8.87,8.87,0,0,1,3.71,6.3Z"/><path d="M22.18,25.68a2.22,2.22,0,1,1,1.6,3.76H8" fill="none" stroke="#000" stroke-linecap="round" stroke-linejoin="round" stroke-width="2"/><path d="M15.73,36.32a2.22,2.22,0,1,0,1.6-3.76H8" fill="none" stroke="#000" stroke-linecap="round" stroke-linejoin="round" stroke-width="2"/></svg>