<svg xmlns="http://www.w3.org/2000/svg" xmlns:xlink="http://www.w3.org/1999/xlink" viewBox="0 0 64 64"><defs><clipPath id="a"><path d="M26.5,44.5a2,2,0,0,1-1.83-2.81l1.33-3C28.53,33,33.65,29.5,39.35,29.5H16v15Z" fill="none"/></clipPath></defs><g clip-path="url(#a)"><path d="M32,34.33c-1.36,0-2.61-1.46-3.25-2.67a.28.28,0,0,0-.5,0c-.64,1.21-1.89,2.67-3.25,2.67s-2.61-1.46-3.25-2.67a.28.28,0,0,0-.5,0c-.64,1.21-1.89,2.67-3.25,2.67H17v6.13a2,2,0,0,0,2,2H32Z"/></g><path d="M45.12,19.79c.07-.68,0-1.24-.19-1.26l-.14,0c-.17,0-.37.51-.45,1.2L42.83,33.08c-.09.71,0,1.32.18,1.34l.35,0c.18,0,.39-.55.46-1.27Z"/><path d="M50,20.26a4.38,4.38,0,0,0-4-4.69,4.55,4.55,0,0,0-4.11,1.72l-.22,0A3.28,3.28,0,0,0,38,20.05a3.22,3.22,0,0,0,2.11,3.28,2.09,2.09,0,0,0-.27.82,2.18,2.18,0,0,0,2,2.34,2.3,2.3,0,0,0,1.52-.37,3.45,3.45,0,0,0,2.51,1.51,3.29,3.29,0,0,0,3.69-2.81,3.06,3.06,0,0,0-.64-2.18A4.08,4.08,0,0,0,50,20.26Z"/><path d="M47.5,40.28V33.72a2.1,2.1,0,0,0-2-2.22H39.35c-4.87,0-9.33,3.1-11.52,8l-1.33,3h19A2.1,2.1,0,0,0,47.5,40.28Z"/><path d="M30.18,17.68a2.22,2.22,0,1,1,1.6,3.76H16" fill="none" stroke="#000" stroke-linecap="round" stroke-linejoin="round" stroke-width="2"/><path d="M23.73,28.32a2.22,2.22,0,1,0,1.6-3.76H16" fill="none" stroke="#000" stroke-linecap="round" stroke-linejoin="round" stroke-width="2"/></svg>