<svg xmlns="http://www.w3.org/2000/svg" xmlns:xlink="http://www.w3.org/1999/xlink" viewBox="0 0 64 64"><defs><linearGradient id="a" x1="22.56" y1="21.96" x2="39.2" y2="50.8" gradientUnits="userSpaceOnUse"><stop offset="0" stop-color="#f3f7fe"/><stop offset="0.45" stop-color="#f3f7fe"/><stop offset="1" stop-color="#deeafb"/></linearGradient><linearGradient id="b" x1="25.31" y1="40.3" x2="26.69" y2="42.7" gradientUnits="userSpaceOnUse"><stop offset="0" stop-color="#4286ee"/><stop offset="0.45" stop-color="#4286ee"/><stop offset="1" stop-color="#0950bc"/></linearGradient><linearGradient id="c" x1="29.31" y1="51.3" x2="30.69" y2="53.7" xlink:href="#b"/><linearGradient id="d" x1="35.31" y1="46.3" x2="36.69" y2="48.7" xlink:href="#b"/></defs><path d="M46.5,31.5l-.32,0a10.49,10.49,0,0,0-19.11-8,7,7,0,0,0-10.57,6,7.21,7.21,0,0,0,.1,1.14A7.5,7.5,0,0,0,18,45.5a4.19,4.19,0,0,0,.5,0v0h28a7,7,0,0,0,0-14Z" stroke="#e6effc" stroke-miterlimit="10" stroke-width="0.5" fill="url(#a)"/><line x1="26.08" y1="41.01" x2="25.92" y2="41.99" fill="none" stroke-linecap="round" stroke-miterlimit="10" stroke-width="2" stroke="url(#b)"/><line x1="30.08" y1="52.01" x2="29.92" y2="52.99" fill="none" stroke-linecap="round" stroke-miterlimit="10" stroke-width="2" stroke="url(#c)"/><line x1="36.08" y1="47.01" x2="35.92" y2="47.99" fill="none" stroke-linecap="round" stroke-miterlimit="10" stroke-width="2" stroke="url(#d)"/></svg>