<?xml version="1.0" encoding="UTF-8"?><svg id="a" xmlns="http://www.w3.org/2000/svg" xmlns:xlink="http://www.w3.org/1999/xlink" viewBox="0 0 512 512"><defs><style>.c{fill:none;}.d{fill:#fff;}.e{clip-path:url(#b);}</style><clipPath id="b"><path d="M357.02,338.64l-46.67-86.05-45.99-84.79c-3.61-6.67-13.13-6.67-16.74,0l-45.99,84.79-46.67,86.05c-3.47,6.39,1.13,14.19,8.37,14.19h185.3c7.24,0,11.84-7.79,8.37-14.19Z" style="fill:none;"/></clipPath></defs><path d="M381.02,340.15l-52.79-97.34-51.07-94.17c-9.14-16.84-33.18-16.84-42.32,0l-51.07,94.17-52.79,97.34c-8.76,16.15,2.86,35.85,21.16,35.85h207.73c18.3,0,29.92-19.7,21.16-35.85Z"/><g style="clip-path:url(#b);"><rect x="135.61" y="130.51" width="240.78" height="242.17" style="fill:#fff;"/><polygon points="356.32 263.71 358.2 360.9 195.81 360.57 356.32 263.71"/><path d="M303.83,252.58l-25.78,15.58c-.48,.29-1.1,.13-1.39-.35l-4.62-7.74c-.29-.48-.13-1.11,.35-1.4l25.78-15.58c.48-.29,1.1-.13,1.39,.35l4.62,7.74c.29,.48,.13,1.11-.35,1.4Z"/><ellipse cx="292.12" cy="279.85" rx="6.02" ry="6.05"/><ellipse cx="199.82" cy="316.18" rx="6.02" ry="6.05"/><path d="M266.8,294.8l-26.85,24.32c-.82,.74-2.08,.68-2.82-.15l-24.18-27.01c-.74-.82-.67-2.1,.15-2.84l26.85-24.32c.82-.74,2.08-.68,2.82,.15l24.18,27.01c.74,.82,.67,2.1-.15,2.84Z"/></g></svg>