<?xml version="1.0" encoding="UTF-8"?><svg id="a" xmlns="http://www.w3.org/2000/svg" viewBox="0 0 512 512"><path d="M343.5,304.68h-9v-17c0-43.29-35.21-78.5-78.5-78.5s-78.5,35.21-78.5,78.5v17h-9v-17c0-48.25,39.25-87.5,87.5-87.5s87.5,39.25,87.5,87.5v17Z"/><path d="M336.07,367.82H175.93c-11.46,0-20.43-7.01-20.43-15.95v-34.37c0-8.94,8.98-15.95,20.43-15.95h160.13c11.46,0,20.43,7.01,20.43,15.95v34.37c0,8.94-8.98,15.95-20.43,15.95Zm-160.13-57.27c-6.74,0-11.43,3.66-11.43,6.95v34.37c0,3.29,4.7,6.95,11.43,6.95h160.13c6.74,0,11.43-3.66,11.43-6.95v-34.37c0-3.29-4.7-6.95-11.43-6.95H175.93Z"/><path d="M256,197.18c-14.61,0-26.5-11.89-26.5-26.5s11.89-26.5,26.5-26.5,26.5,11.89,26.5,26.5-11.89,26.5-26.5,26.5Zm0-44c-9.65,0-17.5,7.85-17.5,17.5s7.85,17.5,17.5,17.5,17.5-7.85,17.5-17.5-7.85-17.5-17.5-17.5Z"/></svg>