<?xml version="1.0" encoding="UTF-8"?><svg id="a" xmlns="http://www.w3.org/2000/svg" viewBox="0 0 512 512"><path d="M256,406c-82.71,0-150-67.29-150-150S173.29,106,256,106s150,67.29,150,150-67.29,150-150,150Zm0-288c-76.09,0-138,61.91-138,138s61.91,138,138,138,138-61.91,138-138-61.91-138-138-138Z"/><path d="M332,327c-.77,0-1.54-.29-2.12-.88l-24-24c-1.17-1.17-1.17-3.07,0-4.24,1.17-1.17,3.07-1.17,4.24,0l24,24c1.17,1.17,1.17,3.07,0,4.24-.59,.59-1.35,.88-2.12,.88Zm-152,0c-.77,0-1.54-.29-2.12-.88-1.17-1.17-1.17-3.07,0-4.24l24-24c1.17-1.17,3.07-1.17,4.24,0,1.17,1.17,1.17,3.07,0,4.24l-24,24c-.59,.59-1.35,.88-2.12,.88Zm184-68h-48c-1.66,0-3-1.34-3-3s1.34-3,3-3h48c1.66,0,3,1.34,3,3s-1.34,3-3,3Zm-164,0h-48c-1.66,0-3-1.34-3-3s1.34-3,3-3h48c1.66,0,3,1.34,3,3s-1.34,3-3,3Zm108-44c-.77,0-1.54-.29-2.12-.88-1.17-1.17-1.17-3.07,0-4.24l24-24c1.17-1.17,3.07-1.17,4.24,0,1.17,1.17,1.17,3.07,0,4.24l-24,24c-.59,.59-1.35,.88-2.12,.88Zm-104,0c-.77,0-1.54-.29-2.12-.88l-24-24c-1.17-1.17-1.17-3.07,0-4.24,1.17-1.17,3.07-1.17,4.24,0l24,24c1.17,1.17,1.17,3.07,0,4.24-.59,.59-1.35,.88-2.12,.88Zm52-12c-1.66,0-3-1.34-3-3v-48c0-1.66,1.34-3,3-3s3,1.34,3,3v48c0,1.66-1.34,3-3,3Z"/><circle cx="256" cy="256" r="24"/><path d="M256,290c-3.31,0-6-2.69-6-6v-120c0-3.31,2.69-6,6-6s6,2.69,6,6v120c0,3.31-2.69,6-6,6Z"/></svg>