<?xml version="1.0" encoding="UTF-8"?><svg id="a" xmlns="http://www.w3.org/2000/svg" viewBox="0 0 512 512"><path d="M256,406c-82.71,0-150-67.29-150-150S173.29,106,256,106s150,67.29,150,150-67.29,150-150,150Zm0-288c-76.09,0-138,61.91-138,138s61.91,138,138,138,138-61.91,138-138-61.91-138-138-138Z"/><path d="M259.17,152.09v-10.47h4.65v18h-4.73l-6.24-10.42v10.42h-4.68v-18h4.68l6.32,10.47Z"/><path d="M362.5,257.72v3.29h9.76v4h-14.49v-18h14.23v3.92h-9.51v2.96h8.34v3.84h-8.34Z"/><path d="M256.12,373.69c-2.28,0-4.08-.52-5.39-1.57-1.31-1.05-2.01-2.53-2.11-4.46h4.43c.11,1.63,1.16,2.44,3.16,2.44,1.74,0,2.61-.56,2.61-1.7,0-.45-.16-.79-.47-1.04-.31-.25-.83-.47-1.57-.66l-3.35-.79c-2.94-.69-4.4-2.31-4.4-4.86,0-1.56,.57-2.85,1.7-3.85,1.13-1.01,2.82-1.51,5.07-1.51s3.84,.48,5.05,1.42c1.21,.95,1.87,2.29,1.96,4.03h-4.33c-.19-1.34-1.09-2.01-2.71-2.01-.7,0-1.26,.14-1.66,.42-.41,.28-.61,.65-.61,1.11,0,.72,.54,1.21,1.63,1.48l3.49,.81c3.16,.75,4.74,2.46,4.74,5.12,0,1.76-.64,3.13-1.94,4.12-1.29,.99-3.06,1.48-5.31,1.48Z"/><path d="M156.21,254.91l2-7.91h4.73l-5.23,18h-4.55l-2.4-11.5-2.3,11.5h-4.65l-5.23-18h4.78l2,7.91,.83,4.27,.73-4.27,1.69-7.91h4.35l1.74,7.91,.71,4.2,.81-4.2Z"/><g><polygon points="256 172 232 256 280 256 256 172"/><polygon points="232 256 256 340 280 256 232 256"/></g></svg>