<?xml version="1.0" encoding="UTF-8"?><svg id="a" xmlns="http://www.w3.org/2000/svg" viewBox="0 0 512 512"><path d="M359.85,383.5H152.15c-11.23,0-21.37-5.78-27.13-15.46-5.8-9.75-6.04-21.52-.63-31.49l103.85-191.49c5.62-10.37,16-16.57,27.76-16.57s22.14,6.19,27.76,16.57l103.85,191.49c5.41,9.97,5.17,21.74-.63,31.49-5.76,9.68-15.91,15.46-27.13,15.46Zm-103.85-240c-6.17,0-11.62,3.26-14.58,8.72l-103.85,191.49c-2.86,5.28-2.74,11.51,.33,16.66,3.03,5.09,8.36,8.13,14.24,8.13h207.7c5.89,0,11.21-3.04,14.24-8.13,3.07-5.16,3.19-11.39,.33-16.66l-103.85-191.49c-2.96-5.46-8.41-8.72-14.58-8.72Z"/><path d="M242.95,216.56c1-.87,2.82-1.3,5.45-1.3h15.4c2.63,0,4.47,.43,5.54,1.3,1.06,.86,1.53,2.42,1.41,4.69l-3,71.88c-.12,2.27-.66,3.8-1.6,4.61-.94,.81-2.72,1.21-5.35,1.21h-9.39c-2.63,0-4.41-.4-5.36-1.21-.94-.81-1.47-2.34-1.59-4.61l-2.82-71.88c-.12-2.27,.32-3.83,1.31-4.69Z"/><path d="M272.05,324.21c0,4.64-1,7.82-3,9.54-2.01,1.73-5.69,2.6-11.08,2.6h-3.94c-5.39,0-9.07-.87-11.08-2.6-2-1.72-3-4.91-3-9.54v-2.91c0-4.64,1-7.82,3-9.55,2.01-1.73,5.69-2.59,11.08-2.59h3.94c5.39,0,9.07,.86,11.08,2.59,2.01,1.73,3,4.91,3,9.55v2.91Z"/></svg>