<?xml version="1.0" encoding="UTF-8"?><svg id="c" xmlns="http://www.w3.org/2000/svg" xmlns:xlink="http://www.w3.org/1999/xlink" viewBox="0 0 512 512"><defs><style>.e{fill:none;}.f{clip-path:url(#d);}</style><symbol id="a" viewBox="0 0 244 192"><g><circle cx="12" cy="180" r="12"/><circle cx="72" cy="180" r="12"/><circle cx="44" cy="148" r="12"/><circle cx="104" cy="148" r="12"/><circle cx="76" cy="112" r="12"/><circle cx="136" cy="112" r="12"/><circle cx="108" cy="80" r="12"/><circle cx="168" cy="80" r="12"/><circle cx="140" cy="44" r="12"/><circle cx="200" cy="44" r="12"/><circle cx="172" cy="12" r="12"/><circle cx="232" cy="12" r="12"/></g></symbol><symbol id="b" viewBox="0 0 279 279"><path d="M141.71,279C63.57,279,0,216.23,0,139.08,0,67.58,54.24,7.81,126.16,.04c2.45-.26,4.88,.69,6.49,2.56,1.61,1.87,2.2,4.41,1.57,6.8-2.77,10.58-4.18,21.11-4.18,31.31,0,68.88,56.84,124.92,126.71,124.92,4.43,0,8.99-.26,13.94-.79,2.45-.26,4.88,.69,6.49,2.56,1.61,1.87,2.2,4.41,1.57,6.8-16.19,61.71-72.54,104.8-137.04,104.8ZM117.28,16.52C58.28,27.82,15,78.78,15,139.08c0,68.88,56.84,124.92,126.71,124.92,54.07,0,101.73-33.81,119.4-83.44-1.47,.05-2.92,.07-4.35,.07-78.14,0-141.71-62.77-141.71-139.92,0-7.94,.75-16.04,2.24-24.19Z"/></symbol><clipPath id="d"><polygon points="0 0 512 0 0 512 0 0" style="fill:none;"/></clipPath></defs><g style="clip-path:url(#d);"><use width="279" height="279" transform="translate(116.5 116.5)" xlink:href="#b"/></g><use width="244" height="192" transform="translate(192 182)" xlink:href="#a"/></svg>