<?xml version="1.0" encoding="UTF-8"?><svg id="e" xmlns="http://www.w3.org/2000/svg" xmlns:xlink="http://www.w3.org/1999/xlink" viewBox="0 0 512 512"><defs><style>.f{fill:none;}.g{clip-path:url(#d);}</style><symbol id="a" viewBox="0 0 214.26 140.12"><path d="M172,140.12c-.53,0-1.02-.02-1.49-.05-.27,.03-.55,.05-.83,.05H39.94C17.92,140.12,0,122.2,0,100.18c0-19.54,14.1-35.84,32.65-39.27-.14-1.6-.22-3.18-.22-4.75C32.44,25.19,57.63,0,88.59,0c17.28,0,33.23,7.79,43.84,21.13,4.49-1.71,9.27-2.59,14.09-2.59,21.92,0,39.77,17.75,39.94,39.63,16.45,5.97,27.8,21.72,27.8,39.7,0,23.3-18.96,42.25-42.25,42.25Zm-2.32-15.12c.17,0,.33,0,.5,.02l.46,.03c.45,.03,.91,.07,1.37,.07,15.03,0,27.25-12.23,27.25-27.25,0-13.08-9.32-24.33-22.16-26.76-4-.76-6.67-4.56-6.01-8.58,.25-1.51,.37-2.83,.37-4.05,0-13.75-11.19-24.94-24.94-24.94-4.45,0-8.85,1.22-12.72,3.53-3.52,2.1-8.06,.99-10.22-2.5-7.58-12.25-20.66-19.57-34.98-19.57-22.69,0-41.16,18.46-41.16,41.16,0,3.19,.42,6.51,1.25,9.86,.57,2.3,.02,4.72-1.48,6.55s-3.77,2.84-6.13,2.74c-.24-.01-.47-.03-.71-.04-.14,0-.28-.02-.42-.02-13.75,0-24.94,11.19-24.94,24.94s11.19,24.94,24.94,24.94H168.37c.43-.08,.87-.12,1.32-.12Z"/></symbol><symbol id="b" viewBox="0 0 359 231"><path d="M295.5,231c-4.14,0-7.5-3.36-7.5-7.5s3.36-7.5,7.5-7.5c26.74,0,48.5-21.76,48.5-48.5s-21.76-48.5-48.5-48.5c-.37,0-.73,.03-1.09,.05-.37,.02-.73,.05-1.1,.07-2.35,.11-4.63-.91-6.13-2.74-1.5-1.83-2.05-4.26-1.48-6.55,1.53-6.22,2.31-12.39,2.31-18.33,0-42.18-34.32-76.5-76.5-76.5-26.63,0-50.94,13.59-65.03,36.36-2.15,3.48-6.7,4.59-10.22,2.5-7.53-4.49-16.09-6.86-24.76-6.86-26.74,0-48.5,21.76-48.5,48.5,0,2.4,.23,4.98,.7,7.87,.66,4.02-2.01,7.82-6.01,8.58-24.74,4.68-42.69,26.35-42.69,51.55,0,28.95,23.55,52.5,52.5,52.5,4.14,0,7.5,3.36,7.5,7.5s-3.36,7.5-7.5,7.5C30.28,231,0,200.72,0,163.5c0-30.04,19.85-56.19,48.1-64.63-.07-1.14-.1-2.26-.1-3.37,0-35.01,28.49-63.5,63.5-63.5,9,0,17.91,1.94,26.11,5.67C154.83,13.96,181.97,0,211.5,0c50.45,0,91.5,41.05,91.5,91.5,0,4.21-.32,8.51-.96,12.83,31.95,3.29,56.96,30.36,56.96,63.17,0,35.01-28.49,63.5-63.5,63.5Z"/></symbol><clipPath id="d"><path d="M369.5,299c0-34.63-23.91-63.78-56.09-71.81,.06-1.4,.09-2.8,.09-4.19,0-56.24-45.76-102-102-102V0h225.53V299h-67.53Z" style="fill:none;"/></clipPath><symbol id="c" viewBox="0 0 437.03 362.5"><g><use width="359" height="231" transform="translate(0 131.5)" xlink:href="#b"/><g style="clip-path:url(#d);"><use width="214.26" height="140.12" transform="translate(195.51 156.01)" xlink:href="#a"/></g></g></symbol></defs><use width="437.03" height="362.5" transform="translate(64.34 9)" xlink:href="#c"/><g><path d="M200,376c-4.42,0-8-3.58-8-8v-12c0-4.42,3.58-8,8-8s8,3.58,8,8v12c0,4.42-3.58,8-8,8Z"/><path d="M312,406c-4.42,0-8-3.58-8-8v-12c0-4.42,3.58-8,8-8s8,3.58,8,8v12c0,4.42-3.58,8-8,8Z"/><path d="M256,456c-4.42,0-8-3.58-8-8v-12c0-4.42,3.58-8,8-8s8,3.58,8,8v12c0,4.42-3.58,8-8,8Z"/></g></svg>