<?xml version="1.0" encoding="UTF-8"?><svg id="a" xmlns="http://www.w3.org/2000/svg" viewBox="0 0 512 512"><path d="M174.5,388c-6.63,0-12-5.37-12-12V136c0-6.63,5.37-12,12-12s12,5.37,12,12v240c0,6.63-5.37,12-12,12Z"/><path d="M331.44,137h-114.88c-3.35,0-6.06,2.71-6.06,6.06v83.88c0,3.35,2.71,6.06,6.06,6.06h114.88c3.35,0,6.06-2.71,6.06-6.06v-83.88c0-3.35-2.71-6.06-6.06-6.06Zm-30.98,61.94c0,3.35-2.71,6.06-6.06,6.06h-40.79c-3.35,0-6.06-2.71-6.06-6.06v-27.88c0-3.35,2.71-6.06,6.06-6.06h40.79c3.35,0,6.06,2.71,6.06,6.06v27.88Z"/></svg>