<?xml version="1.0" encoding="UTF-8"?><svg id="b" xmlns="http://www.w3.org/2000/svg" xmlns:xlink="http://www.w3.org/1999/xlink" viewBox="0 0 512 512"><defs><style></style><symbol id="a" viewBox="0 0 99.46 70.94"><g><path d="M19.39,0C13.76,0,9.12,1.82,5.47,5.47,1.82,9.12,0,13.73,0,19.29s1.82,10.27,5.47,13.92c3.65,3.71,8.29,5.57,13.92,5.57s10.27-1.86,13.92-5.57c3.65-3.65,5.47-8.29,5.47-13.92s-1.82-10.18-5.47-13.82C29.66,1.82,25.02,0,19.39,0Zm6.34,25.73c-1.66,1.67-3.78,2.5-6.34,2.5s-4.58-.83-6.24-2.5c-1.6-1.6-2.4-3.74-2.4-6.43s.8-4.66,2.4-6.29c1.6-1.63,3.68-2.45,6.24-2.45s4.66,.82,6.29,2.45,2.45,3.73,2.45,6.29c0,2.69-.8,4.83-2.4,6.43Z"/><polygon points="99.46 17.86 99.46 2.59 47.42 2.59 47.42 70.94 65.38 70.94 65.38 44.74 94.27 44.74 94.27 30.05 65.38 30.05 65.38 17.86 99.46 17.86"/></g></symbol></defs><use width="99.46" height="70.94" transform="translate(181.49 202.35) scale(1.5 1.51)" xlink:href="#a"/></svg>