<?xml version="1.0" encoding="UTF-8"?><svg id="b" xmlns="http://www.w3.org/2000/svg" xmlns:xlink="http://www.w3.org/1999/xlink" viewBox="0 0 512 512"><defs><style>.d{fill:none;}.e{clip-path:url(#c);}</style><symbol id="a" viewBox="0 0 279 279"><path d="M141.71,279C63.57,279,0,216.23,0,139.08,0,67.58,54.24,7.81,126.16,.04c2.45-.26,4.88,.69,6.49,2.56,1.61,1.87,2.2,4.41,1.57,6.8-2.77,10.58-4.18,21.11-4.18,31.31,0,68.88,56.84,124.92,126.71,124.92,4.43,0,8.99-.26,13.94-.79,2.45-.26,4.88,.69,6.49,2.56,1.61,1.87,2.2,4.41,1.57,6.8-16.19,61.71-72.54,104.8-137.04,104.8ZM117.28,16.52C58.28,27.82,15,78.78,15,139.08c0,68.88,56.84,124.92,126.71,124.92,54.07,0,101.73-33.81,119.4-83.44-1.47,.05-2.92,.07-4.35,.07-78.14,0-141.71-62.77-141.71-139.92,0-7.94,.75-16.04,2.24-24.19Z"/></symbol><clipPath id="c"><polygon points="512 27.47 240 189.12 256 237.12 296 269.12 512 173.12 512 27.47" style="fill:none;"/></clipPath></defs><g style="clip-path:url(#c);"><g><g><path d="M364.63,178.8c-.73,0-1.44-.41-1.79-1.11-.49-.99-.09-2.19,.89-2.68l5.37-2.68c.99-.49,2.19-.09,2.68,.89,.49,.99,.09,2.19-.89,2.68l-5.37,2.68c-.29,.14-.59,.21-.89,.21Z"/><path d="M274.62,223.81c-.73,0-1.44-.41-1.79-1.11-.49-.99-.09-2.19,.89-2.68l11.25-5.63c.99-.49,2.19-.09,2.68,.89,.49,.99,.09,2.19-.89,2.68l-11.25,5.63c-.29,.14-.59,.21-.89,.21Zm22.5-11.25c-.73,0-1.44-.41-1.79-1.11-.49-.99-.09-2.19,.89-2.68l11.25-5.63c.99-.49,2.19-.09,2.68,.89,.49,.99,.09,2.19-.89,2.68l-11.25,5.63c-.29,.14-.59,.21-.89,.21Zm22.5-11.25c-.73,0-1.44-.41-1.79-1.11-.49-.99-.09-2.19,.89-2.68l11.25-5.63c.99-.49,2.19-.09,2.68,.89,.49,.99,.09,2.19-.89,2.68l-11.25,5.63c-.29,.14-.59,.21-.89,.21Zm22.5-11.25c-.73,0-1.44-.41-1.79-1.11-.49-.99-.09-2.19,.89-2.68l11.25-5.63c.99-.49,2.19-.09,2.68,.89,.49,.99,.09,2.19-.89,2.68l-11.25,5.63c-.29,.14-.59,.21-.89,.21Z"/><path d="M258,232.12c-.73,0-1.44-.41-1.79-1.11-.49-.99-.09-2.19,.89-2.68l5.37-2.68c.99-.49,2.19-.09,2.68,.89,.49,.99,.09,2.19-.89,2.68l-5.37,2.68c-.29,.14-.59,.21-.89,.21Z"/></g><path d="M367.1,146.28l18.03,18.37c.44,.45,.62,1.1,.46,1.71l-6.43,24.92c-.46,1.77,1.7,3.01,3,1.73l18.37-18.03c.45-.44,1.1-.62,1.71-.46l24.92,6.43c1.77,.46,3.01-1.7,1.73-3l-18.03-18.37c-.44-.45-.62-1.1-.46-1.71l6.43-24.92c.46-1.77-1.7-3.01-3-1.73l-18.37,18.03c-.45,.44-1.1,.62-1.71,.46l-24.92-6.43c-1.77-.46-3.01,1.7-1.73,3Z"/></g></g><path d="M282.83,162.84l24.92-6.43c.61-.16,1.26,.02,1.71,.46l18.37,18.03c1.3,1.28,3.46,.03,3-1.73l-6.43-24.92c-.16-.61,.02-1.26,.46-1.71l18.03-18.37c1.28-1.3,.03-3.46-1.73-3l-24.92,6.43c-.61,.16-1.26-.02-1.71-.46l-18.37-18.03c-1.3-1.28-3.46-.03-3,1.73l6.43,24.92c.16,.61-.02,1.26-.46,1.71l-18.03,18.37c-1.28,1.3-.03,3.46,1.73,3Z"/><path d="M337.32,223.73l24.8,6.9c.61,.17,1.08,.64,1.25,1.25l6.9,24.8c.49,1.76,2.98,1.76,3.47,0l6.9-24.8c.17-.61,.64-1.08,1.25-1.25l24.8-6.9c1.76-.49,1.76-2.98,0-3.47l-24.8-6.9c-.61-.17-1.08-.64-1.25-1.25l-6.9-24.8c-.49-1.76-2.98-1.76-3.47,0l-6.9,24.8c-.17,.61-.64,1.08-1.25,1.25l-24.8,6.9c-1.76,.49-1.76,2.98,0,3.47Z"/><use width="279" height="279" transform="translate(116.5 116.5)" xlink:href="#a"/></svg>