<?xml version="1.0" encoding="UTF-8"?><svg id="a" xmlns="http://www.w3.org/2000/svg" viewBox="0 0 512 512"><path d="M324.81,302h-9v-88c0-32.81-26.8-59.5-59.74-59.5s-59.74,26.69-59.74,59.5v47.08l-26.14-15.03c-5.53-3.18-12.61-1.29-15.8,4.21-1.54,2.65-1.95,5.75-1.16,8.71,.8,2.97,2.71,5.46,5.38,6.99l35.26,20.24,2.45,1.25v14.55h-9v-9.15l-33.2-19.09c-4.76-2.74-8.17-7.17-9.59-12.47-1.42-5.29-.68-10.81,2.06-15.55,5.67-9.78,18.26-13.14,28.08-7.5l12.65,7.28v-31.52c0-37.77,30.84-68.5,68.74-68.5s68.74,30.73,68.74,68.5v88Z"/><path d="M316.34,366.5h-120.55c-9.1,0-16.5-7.4-16.5-16.5v-36.01c0-9.1,7.4-16.5,16.5-16.5h120.55c9.1,0,16.5,7.4,16.5,16.5v36.01c0,9.1-7.4,16.5-16.5,16.5Zm-120.55-60c-4.13,0-7.5,3.36-7.5,7.5v36.01c0,4.13,3.36,7.5,7.5,7.5h120.55c4.13,0,7.5-3.36,7.5-7.5v-36.01c0-4.13-3.36-7.5-7.5-7.5h-120.55Z"/></svg>