<?xml version="1.0" encoding="UTF-8"?><svg id="a" xmlns="http://www.w3.org/2000/svg" viewBox="0 0 512 512"><path d="M311.94,404.13c-1.35,0-2.72-.3-4.01-.95-4.45-2.22-6.26-7.62-4.04-12.07l3.83-7.7c10.25-20.58,17.68-42.33,22.19-64.67-17.81,20.94-44.33,34.25-73.91,34.25-53.49,0-97-43.51-97-97,0-1.12,.02-2.24,.06-3.35-1.29-45.69,8.67-91.06,29.11-132.09l3.83-7.7c2.22-4.45,7.62-6.26,12.07-4.04,4.45,2.22,6.26,7.62,4.04,12.07l-3.83,7.7c-10.25,20.58-17.68,42.33-22.19,64.67,17.81-20.94,44.33-34.25,73.91-34.25,53.49,0,97,43.51,97,97,0,1.12-.02,2.24-.06,3.35,1.29,45.69-8.67,91.06-29.11,132.09l-3.83,7.7c-1.57,3.16-4.76,4.99-8.06,4.99Zm-134.26-137.73c5.11,38.66,38.28,68.6,78.32,68.6,42.46,0,77.21-33.68,78.93-75.72-.14-4.55-.4-9.11-.77-13.66h.16c-5.11-38.68-38.28-68.61-78.32-68.61-42.46,0-77.21,33.68-78.93,75.72,.14,4.55,.4,9.11,.77,13.66h-.16Z"/></svg>