<?xml version="1.0" encoding="UTF-8"?><svg id="b" xmlns="http://www.w3.org/2000/svg" xmlns:xlink="http://www.w3.org/1999/xlink" viewBox="0 0 512 512"><defs><style></style><symbol id="a" viewBox="0 0 175 260.88"><path d="M87.5,260.88C39.25,260.88,0,221.97,0,174.13,0,129.25,30.78,83.78,77.38,14.95L87.5,0l10.12,14.95c46.6,68.83,77.38,114.31,77.38,159.18,0,47.83-39.25,86.75-87.5,86.75Zm0-234.12C43.75,91.4,15,134.54,15,174.13s32.52,71.75,72.5,71.75,72.5-32.19,72.5-71.75S131.25,91.4,87.5,26.76Z"/></symbol></defs><use width="175" height="260.88" transform="translate(168.4 123.18)" xlink:href="#a"/><path d="M218.78,250.47c3.19-2.98,7.75-4.47,13.69-4.47s10.49,1.49,13.68,4.47,4.78,7.12,4.78,12.4v8.04c0,5.21-1.59,9.28-4.78,12.22-3.19,2.94-7.75,4.42-13.68,4.42s-10.5-1.47-13.69-4.42-4.78-7.01-4.78-12.22v-8.04c0-5.28,1.59-9.42,4.78-12.4Zm71.21-1.53c.3,.76,.11,1.62-.55,2.61l-52.96,73.24c-1.11,1.5-2.06,2.45-2.84,2.83s-2.32,.56-4.62,.56h-4.34c-1.33,0-2.17-.38-2.5-1.13s-.14-1.66,.61-2.72l52.96-73.35c.97-1.43,1.86-2.32,2.67-2.65,.82-.34,2.26-.52,4.34-.52h4.89c1.26,0,2.04,.38,2.34,1.13Zm-57.52,7.59c-5.12,0-7.68,2.3-7.68,6.9v6.79c0,4.6,2.56,6.9,7.68,6.9s7.67-2.3,7.67-6.9v-6.79c0-4.6-2.55-6.9-7.67-6.9Zm33.38,36.39c3.19-2.98,7.75-4.47,13.69-4.47s10.49,1.49,13.68,4.47c3.19,2.99,4.78,7.12,4.78,12.4v8.04c0,5.21-1.59,9.28-4.78,12.23-3.19,2.94-7.75,4.42-13.68,4.42s-10.5-1.47-13.69-4.42c-3.19-2.95-4.78-7.02-4.78-12.23v-8.04c0-5.28,1.59-9.41,4.78-12.4Zm13.69,6.06c-5.12,0-7.68,2.3-7.68,6.91v6.67c0,4.68,2.56,7.02,7.68,7.02s7.67-2.34,7.67-7.02v-6.67c0-4.61-2.55-6.91-7.67-6.91Z"/></svg>