<?xml version="1.0" encoding="UTF-8"?><svg id="b" xmlns="http://www.w3.org/2000/svg" xmlns:xlink="http://www.w3.org/1999/xlink" viewBox="0 0 512 512"><defs><style>.d{fill:none;}.e{clip-path:url(#c);}</style><symbol id="a" viewBox="0 0 279 279"><path d="M141.71,279C63.57,279,0,216.23,0,139.08,0,67.58,54.24,7.81,126.16,.04c2.45-.26,4.88,.69,6.49,2.56,1.61,1.87,2.2,4.41,1.57,6.8-2.77,10.58-4.18,21.11-4.18,31.31,0,68.88,56.84,124.92,126.71,124.92,4.43,0,8.99-.26,13.94-.79,2.45-.26,4.88,.69,6.49,2.56,1.61,1.87,2.2,4.41,1.57,6.8-16.19,61.71-72.54,104.8-137.04,104.8ZM117.28,16.52C58.28,27.82,15,78.78,15,139.08c0,68.88,56.84,124.92,126.71,124.92,54.07,0,101.73-33.81,119.4-83.44-1.47,.05-2.92,.07-4.35,.07-78.14,0-141.71-62.77-141.71-139.92,0-7.94,.75-16.04,2.24-24.19Z"/></symbol><clipPath id="c"><path d="M512,306h-208l-35.86-31.38c-6.95-6.08-17.32-6.08-24.27,0l-35.86,31.38H0V0H512V306Z" style="fill:none;"/></clipPath></defs><path d="M384,341h-88c-2.22,0-4.37-.82-6.02-2.31l-33.98-30.58-33.98,30.58c-1.65,1.49-3.8,2.31-6.02,2.31h-88c-4.97,0-9-4.03-9-9s4.03-9,9-9h84.55l37.43-33.69c3.42-3.08,8.62-3.08,12.04,0l37.43,33.69h84.55c4.97,0,9,4.03,9,9s-4.03,9-9,9Z"/><g style="clip-path:url(#c);"><use width="279" height="279" transform="translate(116.5 116.5)" xlink:href="#a"/></g></svg>