<?xml version="1.0" encoding="UTF-8"?><svg id="a" xmlns="http://www.w3.org/2000/svg" viewBox="0 0 512 512"><path d="M254.36,389.93c-.1,0-.2,0-.3,0-5.91-.29-11.75-.87-17.38-1.72-3.28-.5-5.53-3.55-5.03-6.83,.5-3.28,3.56-5.53,6.83-5.03,5.23,.79,10.67,1.33,16.17,1.6,3.31,.16,5.86,2.98,5.7,6.29-.16,3.21-2.81,5.71-5.99,5.71Zm54.6-11.36c-2.28,0-4.46-1.31-5.46-3.52-1.37-3.02-.04-6.57,2.98-7.95,4.86-2.21,9.62-4.77,14.16-7.61,2.81-1.76,6.51-.91,8.27,1.9,1.76,2.81,.91,6.51-1.9,8.27-4.98,3.12-10.22,5.93-15.55,8.36-.81,.37-1.65,.54-2.48,.54Zm-123.78-9.45c-1.11,0-2.23-.31-3.23-.95-4.97-3.18-9.75-6.73-14.2-10.56-2.51-2.16-2.8-5.95-.64-8.46,2.16-2.51,5.95-2.8,8.46-.64,4.02,3.46,8.34,6.67,12.84,9.55,2.79,1.79,3.61,5.5,1.82,8.29-1.14,1.79-3.08,2.77-5.06,2.77Zm178.37-37.68c-1.12,0-2.25-.31-3.25-.96-2.78-1.8-3.58-5.51-1.78-8.3,2.9-4.49,5.53-9.21,7.81-14.03,1.42-2.99,5-4.27,7.99-2.85,2.99,1.42,4.27,5,2.85,7.99-2.51,5.29-5.4,10.48-8.58,15.41-1.15,1.78-3.08,2.74-5.04,2.74Zm-224.53-17.53c-2.34,0-4.57-1.38-5.53-3.68-2.26-5.37-4.2-10.98-5.76-16.66-.88-3.19,1-6.5,4.19-7.38,3.2-.88,6.5,1,7.38,4.19,1.43,5.19,3.19,10.3,5.25,15.2,1.28,3.05-.15,6.57-3.21,7.86-.76,.32-1.55,.47-2.32,.47Zm244.98-51.59h-.01c-3.31,0-5.99-2.7-5.99-6.01v-.28c0-5.38-.35-10.77-1.04-16.05-.43-3.29,1.88-6.3,5.17-6.73,3.28-.43,6.3,1.88,6.73,5.17,.76,5.79,1.15,11.72,1.15,17.6v.32c0,3.31-2.69,5.99-6,5.99Zm-253.88-20.08c-.29,0-.58-.02-.87-.06-3.28-.48-5.55-3.53-5.07-6.8,.85-5.82,2.07-11.62,3.63-17.24,.89-3.19,4.2-5.06,7.39-4.18,3.19,.89,5.06,4.19,4.18,7.39-1.43,5.14-2.54,10.44-3.32,15.76-.44,2.98-3,5.13-5.93,5.13Zm233.6-49.42c-1.97,0-3.9-.97-5.05-2.75-2.89-4.49-6.11-8.84-9.57-12.91-2.14-2.53-1.83-6.31,.7-8.46,2.53-2.14,6.31-1.83,8.46,.7,3.8,4.48,7.33,9.25,10.51,14.18,1.79,2.79,.99,6.5-1.8,8.29-1,.65-2.13,.96-3.24,.96Zm-203.81-16.24c-1.41,0-2.82-.49-3.96-1.49-2.49-2.19-2.74-5.98-.55-8.47,3.89-4.43,8.13-8.61,12.6-12.44,2.52-2.15,6.31-1.86,8.46,.66,2.15,2.52,1.86,6.31-.66,8.46-4.04,3.46-7.87,7.24-11.39,11.24-1.19,1.35-2.84,2.04-4.51,2.04Zm149.33-31.01c-.84,0-1.68-.18-2.49-.55-4.86-2.22-9.91-4.14-15.01-5.7-3.17-.97-4.95-4.32-3.98-7.49,.97-3.17,4.32-4.95,7.49-3.98,5.61,1.71,11.16,3.82,16.5,6.27,3.01,1.38,4.34,4.94,2.96,7.95-1.01,2.2-3.18,3.5-5.46,3.5Zm-87.84-6.46c-2.65,0-5.07-1.77-5.79-4.45-.86-3.2,1.04-6.49,4.24-7.35,5.53-1.48,11.31-2.68,17.17-3.55,3.28-.49,6.33,1.77,6.82,5.05,.49,3.28-1.77,6.33-5.05,6.82-5.41,.81-10.74,1.91-15.84,3.28-.52,.14-1.04,.21-1.56,.21Z"/><path d="M255.01,388.97c-52.02,0-101.4-29.45-123.54-79.19-30.17-67.77,1.48-147.93,70.57-178.69h0c17.9-7.97,35.25-11.82,54.6-12.11,2.76-.03,5.24,1.56,6.35,4.06,1.11,2.5,.63,5.43-1.23,7.44-33.26,35.86-42.12,87.41-22.56,131.33,19.3,43.35,62.77,71.13,111.06,71.13,.55,0,1.09,0,1.64-.01,2.66-.03,5.09,1.47,6.25,3.86,1.16,2.39,.83,5.23-.84,7.29-13.46,16.62-25.02,23.56-45.84,32.82-18.38,8.19-37.6,12.06-56.47,12.06Zm-47.41-245.37h0c-62.19,27.69-90.73,99.74-63.63,160.62,19.88,44.64,64.25,71.06,111.02,71.07,17.01,0,34.33-3.49,50.92-10.88,14.24-6.34,22.98-11.06,31.02-18.42-48.26-4.65-90.53-34.34-110.24-78.61-19.58-43.98-13.63-94.77,14.62-133.56-11.51,1.58-22.49,4.78-33.71,9.77Z"/></svg>