<?xml version="1.0" encoding="UTF-8"?><svg id="a" xmlns="http://www.w3.org/2000/svg" viewBox="0 0 512 512"><path d="M254.37,389.93c-.1,0-.2,0-.3,0-5.91-.29-11.75-.87-17.38-1.72-3.28-.5-5.53-3.55-5.03-6.83,.5-3.28,3.55-5.53,6.83-5.03,5.23,.79,10.67,1.33,16.17,1.6,3.31,.16,5.86,2.98,5.7,6.29-.16,3.21-2.81,5.71-5.99,5.71Zm54.59-11.36c-2.28,0-4.46-1.31-5.46-3.52-1.37-3.02-.04-6.57,2.98-7.95,4.86-2.21,9.62-4.77,14.16-7.61,2.81-1.76,6.51-.91,8.27,1.9,1.76,2.81,.91,6.51-1.9,8.27-4.98,3.12-10.21,5.93-15.55,8.36-.81,.37-1.65,.54-2.48,.54Zm-123.78-9.45c-1.11,0-2.23-.31-3.23-.95-4.97-3.18-9.75-6.73-14.2-10.56-2.51-2.16-2.8-5.95-.64-8.46,2.16-2.51,5.95-2.8,8.46-.64,4.02,3.46,8.34,6.67,12.84,9.55,2.79,1.79,3.61,5.5,1.82,8.29-1.15,1.79-3.08,2.77-5.06,2.77Zm178.37-37.68c-1.12,0-2.25-.31-3.25-.96-2.78-1.8-3.58-5.51-1.78-8.3,2.9-4.49,5.53-9.21,7.82-14.03,1.42-2.99,5-4.27,7.99-2.85,2.99,1.42,4.27,5,2.85,7.99-2.51,5.29-5.4,10.48-8.58,15.41-1.15,1.77-3.08,2.74-5.04,2.74Zm-224.52-17.53c-2.34,0-4.57-1.38-5.53-3.68-2.26-5.37-4.2-10.98-5.76-16.66-.88-3.19,1-6.5,4.19-7.38,3.2-.88,6.5,1,7.38,4.19,1.43,5.19,3.19,10.3,5.25,15.2,1.28,3.05-.15,6.57-3.21,7.86-.76,.32-1.55,.47-2.32,.47Zm244.98-51.59c-3.31,0-6-2.69-6-6v-.34c0-5.34-.35-10.73-1.04-16.01-.43-3.29,1.88-6.3,5.17-6.73,3.29-.44,6.3,1.88,6.73,5.17,.76,5.79,1.15,11.71,1.15,17.6v.31c0,3.31-2.69,6-6,6Zm-253.88-20.08c-.29,0-.58-.02-.88-.06-3.28-.48-5.55-3.53-5.07-6.8,.85-5.82,2.07-11.62,3.63-17.24,.89-3.19,4.2-5.06,7.39-4.18,3.19,.89,5.06,4.19,4.18,7.39-1.43,5.14-2.54,10.44-3.32,15.76-.44,2.98-3,5.13-5.93,5.13Zm233.6-49.42c-1.97,0-3.9-.97-5.05-2.75-2.89-4.49-6.11-8.83-9.57-12.91-2.14-2.53-1.83-6.31,.7-8.46,2.53-2.14,6.31-1.83,8.46,.7,3.8,4.48,7.33,9.25,10.5,14.18,1.79,2.79,.99,6.5-1.8,8.29-1,.65-2.13,.96-3.24,.96Zm-203.81-16.24c-1.41,0-2.82-.49-3.96-1.49-2.49-2.19-2.74-5.98-.55-8.47,3.89-4.43,8.13-8.61,12.6-12.44,2.52-2.15,6.31-1.86,8.46,.66,2.15,2.52,1.86,6.31-.66,8.46-4.04,3.46-7.87,7.24-11.39,11.24-1.19,1.35-2.84,2.04-4.51,2.04Zm149.33-31.01c-.84,0-1.68-.18-2.49-.55-4.86-2.22-9.91-4.14-15.01-5.7-3.17-.97-4.95-4.32-3.98-7.49s4.32-4.95,7.49-3.98c5.61,1.71,11.16,3.82,16.5,6.27,3.01,1.38,4.34,4.94,2.96,7.95-1.01,2.2-3.18,3.5-5.46,3.5Zm-87.84-6.46c-2.65,0-5.07-1.77-5.79-4.45-.86-3.2,1.04-6.49,4.24-7.35,5.53-1.48,11.31-2.68,17.17-3.55,3.28-.49,6.33,1.77,6.82,5.05s-1.77,6.33-5.05,6.82c-5.41,.81-10.74,1.91-15.84,3.28-.52,.14-1.04,.21-1.56,.21Z"/><path d="M253.24,389.65c-51.35,0-100.44-29.65-122.64-79.51-30.06-67.52,.41-146.9,67.93-176.96,5.92-2.63,12.05-4.85,18.24-6.6,3.22-.91,6.61,.64,8.04,3.65,1.43,3.02,.47,6.63-2.26,8.54l-.08,.05c-36.43,38.58-45.65,92.58-24.04,141.11,21.61,48.54,67.91,77.84,120.99,76.55l.11-.02c3.25-.71,6.54,1.01,7.8,4.08,1.26,3.08,.13,6.61-2.68,8.39-5.43,3.42-11.18,6.49-17.08,9.12-17.66,7.86-36.13,11.58-54.32,11.58Zm-56.52-240.38c-55.42,29.3-79.48,97.2-53.61,155.3,19.93,44.76,64.01,71.39,110.11,71.39,13.74,0,27.66-2.36,41.17-7.32-47.81-7.05-88.08-37.35-108.47-83.14s-15.96-95.99,10.8-136.24Zm4.6-9.84h0Z"/></svg>