<?xml version="1.0" encoding="UTF-8"?><svg id="i" xmlns="http://www.w3.org/2000/svg" xmlns:xlink="http://www.w3.org/1999/xlink" viewBox="0 0 512 512"><defs><style>.j{fill:none;}.k{clip-path:url(#e);}.l{clip-path:url(#g);}</style><symbol id="a" viewBox="0 0 359 231"><path d="M295.5,231c-4.14,0-7.5-3.36-7.5-7.5s3.36-7.5,7.5-7.5c26.74,0,48.5-21.76,48.5-48.5s-21.76-48.5-48.5-48.5c-.37,0-.73,.03-1.09,.05-.37,.02-.73,.05-1.1,.07-2.36,.1-4.63-.91-6.13-2.74-1.5-1.83-2.05-4.26-1.48-6.55,1.53-6.22,2.31-12.39,2.31-18.33,0-42.18-34.32-76.5-76.5-76.5-26.63,0-50.94,13.59-65.03,36.36-2.15,3.48-6.7,4.59-10.22,2.5-7.53-4.49-16.09-6.86-24.76-6.86-26.74,0-48.5,21.76-48.5,48.5,0,2.4,.23,4.98,.7,7.87,.66,4.02-2.01,7.82-6.01,8.58-24.74,4.68-42.69,26.35-42.69,51.55,0,28.95,23.55,52.5,52.5,52.5,4.14,0,7.5,3.36,7.5,7.5s-3.36,7.5-7.5,7.5C30.28,231,0,200.72,0,163.5c0-30.04,19.85-56.19,48.1-64.63-.07-1.14-.1-2.26-.1-3.37,0-35.01,28.49-63.5,63.5-63.5,9,0,17.91,1.94,26.11,5.67C154.83,13.96,181.97,0,211.5,0c50.45,0,91.5,41.05,91.5,91.5,0,4.21-.32,8.51-.96,12.83,31.95,3.28,56.96,30.36,56.96,63.17,0,35.01-28.49,63.5-63.5,63.5Z"/></symbol><symbol id="b" viewBox="0 0 214.26 140.12"><path d="M172,140.12c-.53,0-1.02-.02-1.49-.05-.27,.03-.55,.05-.83,.05H39.94C17.92,140.12,0,122.2,0,100.18c0-19.54,14.1-35.84,32.65-39.27-.14-1.6-.22-3.18-.22-4.75C32.44,25.19,57.63,0,88.59,0c17.28,0,33.23,7.79,43.84,21.13,4.49-1.71,9.27-2.59,14.09-2.59,21.92,0,39.77,17.75,39.94,39.63,16.45,5.97,27.8,21.72,27.8,39.7,0,23.3-18.96,42.25-42.25,42.25Zm-2.32-15.12c.17,0,.33,0,.5,.02l.46,.03c.45,.03,.91,.07,1.37,.07,15.03,0,27.25-12.23,27.25-27.25,0-13.08-9.32-24.33-22.16-26.76-4-.76-6.67-4.56-6.01-8.58,.25-1.51,.37-2.83,.37-4.05,0-13.75-11.19-24.94-24.94-24.94-4.45,0-8.85,1.22-12.72,3.53-3.52,2.1-8.06,.99-10.22-2.5-7.58-12.25-20.66-19.57-34.98-19.57-22.69,0-41.16,18.46-41.16,41.16,0,3.19,.42,6.51,1.25,9.86,.57,2.3,.02,4.72-1.48,6.55s-3.77,2.84-6.13,2.74c-.24-.01-.47-.03-.71-.04-.14,0-.28-.02-.42-.02-13.75,0-24.94,11.19-24.94,24.94s11.19,24.94,24.94,24.94H168.37c.43-.08,.87-.12,1.32-.12Z"/></symbol><symbol id="c" viewBox="0 0 258 66"><g><g><path d="M39,66H9c-4.97,0-9-4.03-9-9s4.03-9,9-9h30c4.97,0,9,4.03,9,9s-4.03,9-9,9Z"/><path d="M159,66h-60c-4.97,0-9-4.03-9-9s4.03-9,9-9h60c4.97,0,9,4.03,9,9s-4.03,9-9,9Z"/><path d="M249,66h-30c-4.97,0-9-4.03-9-9s4.03-9,9-9h30c4.97,0,9,4.03,9,9s-4.03,9-9,9Z"/></g><g><path d="M39,18H9C4.03,18,0,13.97,0,9S4.03,0,9,0h30c4.97,0,9,4.03,9,9s-4.03,9-9,9Z"/><path d="M159,18h-60c-4.97,0-9-4.03-9-9S94.03,0,99,0h60c4.97,0,9,4.03,9,9s-4.03,9-9,9Z"/><path d="M249,18h-30c-4.97,0-9-4.03-9-9s4.03-9,9-9h30c4.97,0,9,4.03,9,9s-4.03,9-9,9Z"/></g></g></symbol><clipPath id="e"><path d="M369.5,299c0-34.63-23.91-63.78-56.09-71.81,.06-1.4,.09-2.8,.09-4.19,0-56.24-45.76-102-102-102V0h225.53V299h-67.53Z" style="fill:none;"/></clipPath><symbol id="d" viewBox="0 0 437.03 362.5"><g><use width="359" height="231" transform="translate(0 131.5)" xlink:href="#a"/><g style="clip-path:url(#e);"><use width="214.26" height="140.12" transform="translate(195.51 156.01)" xlink:href="#b"/></g></g></symbol><clipPath id="g"><path d="M0,0V286H54.5c3.19-28.52,21.38-53.43,47.73-65.07,3.1-39.63,36.35-70.93,76.76-70.93,7.37,0,14.64,1.05,21.69,3.14,17.88-20.18,42.51-32.5,69.31-34.76V0H0Z" style="fill:none;"/></clipPath><symbol id="f" viewBox="0 0 502.37 362.5"><g><use width="437.03" height="362.5" transform="translate(65.34)" xlink:href="#d"/><g style="clip-path:url(#g);"><use width="199" height="199" transform="translate(37.5 78.5)" xlink:href="#h"/></g></g></symbol><symbol id="h" viewBox="0 0 199 199"><g><path d="M99.5,147c-26.19,0-47.5-21.31-47.5-47.5s21.31-47.5,47.5-47.5,47.5,21.31,47.5,47.5-21.31,47.5-47.5,47.5Zm0-80c-17.92,0-32.5,14.58-32.5,32.5s14.58,32.5,32.5,32.5,32.5-14.58,32.5-32.5-14.58-32.5-32.5-32.5Z"/><path d="M99.5,199c-4.14,0-7.5-3.36-7.5-7.5v-25.38c0-4.14,3.36-7.5,7.5-7.5s7.5,3.36,7.5,7.5v25.38c0,4.14-3.36,7.5-7.5,7.5Zm65.05-26.95c-1.92,0-3.84-.73-5.3-2.2l-17.95-17.95c-2.93-2.93-2.93-7.68,0-10.61,2.93-2.93,7.68-2.93,10.61,0l17.95,17.95c2.93,2.93,2.93,7.68,0,10.61-1.46,1.46-3.38,2.2-5.3,2.2Zm-130.11,0c-1.92,0-3.84-.73-5.3-2.2-2.93-2.93-2.93-7.68,0-10.61l17.95-17.95c2.93-2.93,7.68-2.93,10.61,0,2.93,2.93,2.93,7.68,0,10.61l-17.95,17.95c-1.46,1.46-3.38,2.2-5.3,2.2ZM191.5,107h-25.38c-4.14,0-7.5-3.36-7.5-7.5s3.36-7.5,7.5-7.5h25.38c4.14,0,7.5,3.36,7.5,7.5s-3.36,7.5-7.5,7.5Zm-158.62,0H7.5c-4.14,0-7.5-3.36-7.5-7.5s3.36-7.5,7.5-7.5h25.38c4.14,0,7.5,3.36,7.5,7.5s-3.36,7.5-7.5,7.5Zm19.51-47.11c-1.92,0-3.84-.73-5.3-2.2l-17.95-17.95c-2.93-2.93-2.93-7.68,0-10.61,2.93-2.93,7.68-2.93,10.61,0l17.95,17.95c2.93,2.93,2.93,7.68,0,10.61-1.46,1.46-3.38,2.2-5.3,2.2Zm94.22,0c-1.92,0-3.84-.73-5.3-2.2-2.93-2.93-2.93-7.68,0-10.61l17.95-17.95c2.93-2.93,7.68-2.93,10.61,0,2.93,2.93,2.93,7.68,0,10.61l-17.95,17.95c-1.46,1.46-3.38,2.2-5.3,2.2Zm-47.11-19.51c-4.14,0-7.5-3.36-7.5-7.5V7.5c0-4.14,3.36-7.5,7.5-7.5s7.5,3.36,7.5,7.5v25.38c0,4.14-3.36,7.5-7.5,7.5Z"/></g></symbol></defs><use width="502.37" height="362.5" transform="translate(-1 9)" xlink:href="#f"/><use width="258" height="66" transform="translate(127 405)" xlink:href="#c"/></svg>