<?xml version="1.0" encoding="UTF-8"?><svg id="i" xmlns="http://www.w3.org/2000/svg" xmlns:xlink="http://www.w3.org/1999/xlink" viewBox="0 0 512 512"><defs><style>.j{fill:none;}.k{clip-path:url(#e);}.l{clip-path:url(#g);}</style><symbol id="a" viewBox="0 0 359 231"><path d="M295.5,231c-4.14,0-7.5-3.36-7.5-7.5s3.36-7.5,7.5-7.5c26.74,0,48.5-21.76,48.5-48.5s-21.76-48.5-48.5-48.5c-.37,0-.73,.03-1.09,.05-.37,.02-.73,.05-1.1,.07-2.36,.1-4.63-.91-6.13-2.74-1.5-1.83-2.05-4.26-1.48-6.55,1.53-6.22,2.31-12.39,2.31-18.33,0-42.18-34.32-76.5-76.5-76.5-26.63,0-50.94,13.59-65.03,36.36-2.15,3.48-6.7,4.59-10.22,2.5-7.53-4.49-16.09-6.86-24.76-6.86-26.74,0-48.5,21.76-48.5,48.5,0,2.4,.23,4.98,.7,7.87,.66,4.02-2.01,7.82-6.01,8.58-24.74,4.68-42.69,26.35-42.69,51.55,0,28.95,23.55,52.5,52.5,52.5,4.14,0,7.5,3.36,7.5,7.5s-3.36,7.5-7.5,7.5C30.28,231,0,200.72,0,163.5c0-30.04,19.85-56.19,48.1-64.63-.07-1.14-.1-2.26-.1-3.37,0-35.01,28.49-63.5,63.5-63.5,9,0,17.91,1.94,26.11,5.67C154.83,13.96,181.97,0,211.5,0c50.45,0,91.5,41.05,91.5,91.5,0,4.21-.32,8.51-.96,12.83,31.95,3.28,56.96,30.36,56.96,63.17,0,35.01-28.49,63.5-63.5,63.5Z"/></symbol><symbol id="b" viewBox="0 0 214.26 140.12"><path d="M172,140.12c-.53,0-1.02-.02-1.49-.05-.27,.03-.55,.05-.83,.05H39.94C17.92,140.12,0,122.2,0,100.18c0-19.54,14.1-35.84,32.65-39.27-.14-1.6-.22-3.18-.22-4.75C32.44,25.19,57.63,0,88.59,0c17.28,0,33.23,7.79,43.84,21.13,4.49-1.71,9.27-2.59,14.09-2.59,21.92,0,39.77,17.75,39.94,39.63,16.45,5.97,27.8,21.72,27.8,39.7,0,23.3-18.96,42.25-42.25,42.25Zm-2.32-15.12c.17,0,.33,0,.5,.02l.46,.03c.45,.03,.91,.07,1.37,.07,15.03,0,27.25-12.23,27.25-27.25,0-13.08-9.32-24.33-22.16-26.76-4-.76-6.67-4.56-6.01-8.58,.25-1.51,.37-2.83,.37-4.05,0-13.75-11.19-24.94-24.94-24.94-4.45,0-8.85,1.22-12.72,3.53-3.52,2.1-8.06,.99-10.22-2.5-7.58-12.25-20.66-19.57-34.98-19.57-22.69,0-41.16,18.46-41.16,41.16,0,3.19,.42,6.51,1.25,9.86,.57,2.3,.02,4.72-1.48,6.55s-3.77,2.84-6.13,2.74c-.24-.01-.47-.03-.71-.04-.14,0-.28-.02-.42-.02-13.75,0-24.94,11.19-24.94,24.94s11.19,24.94,24.94,24.94H168.37c.43-.08,.87-.12,1.32-.12Z"/></symbol><symbol id="c" viewBox="0 0 183 183"><path d="M92.91,183C41.68,183,0,141.83,0,91.23,0,44.34,35.56,5.13,82.72,.04c2.45-.27,4.88,.69,6.49,2.56,1.61,1.87,2.2,4.41,1.57,6.8-1.71,6.51-2.57,12.98-2.57,19.23,0,42.33,34.95,76.77,77.91,76.77,2.72,0,5.53-.16,8.58-.49,2.45-.26,4.88,.69,6.49,2.56,1.61,1.87,2.2,4.41,1.57,6.8-10.61,40.47-47.56,68.73-89.85,68.73ZM74.04,16.75C39.74,25.1,15,55.5,15,91.23c0,42.33,34.95,76.77,77.91,76.77,31.89,0,60.15-19.12,71.99-47.61-50.67-.65-91.69-41.56-91.69-91.76,0-3.91,.28-7.88,.83-11.88Z"/></symbol><clipPath id="e"><path d="M369.5,299c0-34.63-23.91-63.78-56.09-71.81,.06-1.4,.09-2.8,.09-4.19,0-56.24-45.76-102-102-102V0h225.53V299h-67.53Z" style="fill:none;"/></clipPath><symbol id="d" viewBox="0 0 437.03 362.5"><g><use width="359" height="231" transform="translate(0 131.5)" xlink:href="#a"/><g style="clip-path:url(#e);"><use width="214.26" height="140.12" transform="translate(195.51 156.01)" xlink:href="#b"/></g></g></symbol><clipPath id="g"><path d="M0,0V286H54.5c3.19-28.52,21.38-53.43,47.73-65.07,3.1-39.63,36.35-70.93,76.76-70.93,7.37,0,14.64,1.05,21.69,3.14,17.88-20.18,42.51-32.5,69.31-34.76V0H0Z" style="fill:none;"/></clipPath><symbol id="f" viewBox="0 0 502.37 362.5"><g><use width="437.03" height="362.5" transform="translate(65.34)" xlink:href="#d"/><g style="clip-path:url(#g);"><use width="183" height="183" transform="translate(55.5 86.5)" xlink:href="#c"/></g></g></symbol><symbol id="h" viewBox="0 0 173 217"><g><path d="M88.5,217c-15.71,0-28.5-12.79-28.5-28.5s12.79-28.5,28.5-28.5,28.5,12.79,28.5,28.5-12.79,28.5-28.5,28.5Zm0-48c-10.75,0-19.5,8.75-19.5,19.5s8.75,19.5,19.5,19.5,19.5-8.75,19.5-19.5-8.75-19.5-19.5-19.5Z"/><path d="M40.5,165C18.17,165,0,146.83,0,124.5s18.17-40.5,40.5-40.5,40.5,18.17,40.5,40.5-18.17,40.5-40.5,40.5Zm0-72c-17.37,0-31.5,14.13-31.5,31.5s14.13,31.5,31.5,31.5,31.5-14.13,31.5-31.5-14.13-31.5-31.5-31.5Z"/><path d="M120.5,105c-28.95,0-52.5-23.55-52.5-52.5S91.55,0,120.5,0s52.5,23.55,52.5,52.5-23.55,52.5-52.5,52.5Zm0-96c-23.99,0-43.5,19.51-43.5,43.5s19.51,43.5,43.5,43.5,43.5-19.51,43.5-43.5S144.49,9,120.5,9Z"/></g></symbol></defs><use width="502.37" height="362.5" transform="translate(-1 9)" xlink:href="#f"/><use width="173" height="217" transform="translate(169.5 229.5)" xlink:href="#h"/></svg>