<?xml version="1.0" encoding="UTF-8"?><svg id="b" xmlns="http://www.w3.org/2000/svg" xmlns:xlink="http://www.w3.org/1999/xlink" viewBox="0 0 512 512"><defs><style></style><symbol id="a" viewBox="0 0 232 72"><g><circle cx="116" cy="12" r="12"/><circle cx="156" cy="52" r="16"/><circle cx="76" cy="52" r="16"/><circle cx="12" cy="60" r="12"/><circle cx="220" cy="60" r="12"/><circle cx="180" cy="20" r="8"/><circle cx="52" cy="20" r="8"/></g></symbol></defs><g><path d="M265.09,403.6l-3.99-127.03c-.2-6.49-5.52-11.65-12.02-11.65h-5.14c-6.49,0-11.81,5.16-12.02,11.65l-3.99,127.03c-.21,6.79,5.23,12.4,12.02,12.4h13.11c6.79,0,12.23-5.62,12.02-12.4Z"/><ellipse cx="293.93" cy="274.36" rx="42.67" ry="42.49"/><ellipse cx="185.19" cy="255.48" rx="42.67" ry="42.49"/><path d="M317.63,146.89c-3.73,0-7.36,.38-10.89,1.06-3.6-11.53-14.27-19.95-27.03-19.95-15.71,0-28.44,12.68-28.44,28.33,0,10.49,5.79,19.54,14.3,24.44-3.08,6.97-4.82,14.67-4.82,22.77,0,31.29,25.47,56.66,56.89,56.66s56.89-25.37,56.89-56.66-25.47-56.66-56.89-56.66Z"/><path d="M289.19,184.66c0-31.29-25.47-56.66-56.89-56.66-21.16,0-39.59,11.53-49.39,28.6-.93-.06-1.82-.28-2.76-.28-23.56,0-42.67,19.02-42.67,42.49,0,19.35,13.07,35.49,30.83,40.63-1.52,3.47-2.39,7.28-2.39,11.31,0,15.65,12.74,28.33,28.44,28.33,7.15,0,13.61-2.72,18.61-7.06,7.81,9.98,19.85,16.51,33.53,16.51,23.56,0,42.67-19.02,42.67-42.49,0-10.84-4.2-20.61-10.9-28.12,6.83-9.35,10.9-20.81,10.9-33.26Z"/></g><use width="232" height="72" transform="translate(140 90)" xlink:href="#a"/></svg>