<?xml version="1.0" encoding="UTF-8"?><svg id="g" xmlns="http://www.w3.org/2000/svg" xmlns:xlink="http://www.w3.org/1999/xlink" viewBox="0 0 512 512"><defs><style>.h{fill:none;}.i{clip-path:url(#c);}</style><symbol id="a" viewBox="0 0 359 231"><path d="M295.5,231c-4.14,0-7.5-3.36-7.5-7.5s3.36-7.5,7.5-7.5c26.74,0,48.5-21.76,48.5-48.5s-21.76-48.5-48.5-48.5c-.37,0-.73,.03-1.09,.05-.37,.02-.73,.05-1.1,.07-2.36,.1-4.63-.91-6.13-2.74-1.5-1.83-2.05-4.26-1.48-6.55,1.53-6.22,2.31-12.39,2.31-18.33,0-42.18-34.32-76.5-76.5-76.5-26.63,0-50.94,13.59-65.03,36.36-2.15,3.48-6.7,4.59-10.22,2.5-7.53-4.49-16.09-6.86-24.76-6.86-26.74,0-48.5,21.76-48.5,48.5,0,2.4,.23,4.98,.7,7.87,.66,4.02-2.01,7.82-6.01,8.58-24.74,4.68-42.69,26.35-42.69,51.55,0,28.95,23.55,52.5,52.5,52.5,4.14,0,7.5,3.36,7.5,7.5s-3.36,7.5-7.5,7.5C30.28,231,0,200.72,0,163.5c0-30.04,19.85-56.19,48.1-64.63-.07-1.14-.1-2.26-.1-3.37,0-35.01,28.49-63.5,63.5-63.5,9,0,17.91,1.94,26.11,5.67C154.83,13.96,181.97,0,211.5,0c50.45,0,91.5,41.05,91.5,91.5,0,4.21-.32,8.51-.96,12.83,31.95,3.28,56.96,30.36,56.96,63.17,0,35.01-28.49,63.5-63.5,63.5Z"/></symbol><clipPath id="c"><path d="M0,0V286H54.5c3.19-28.52,21.38-53.43,47.73-65.07,3.1-39.63,36.35-70.93,76.76-70.93,7.37,0,14.64,1.05,21.69,3.14,17.88-20.18,42.51-32.5,69.31-34.76V0H0Z" style="fill:none;"/></clipPath><symbol id="b" viewBox="0 0 426.5 362.5"><g><g style="clip-path:url(#c);"><use width="199" height="199" transform="translate(37.5 78.5)" xlink:href="#f"/></g><use width="359" height="231" transform="translate(67.5 131.5)" xlink:href="#a"/></g></symbol><symbol id="d" viewBox="0 0 155.2 138"><g><g><path d="M21.6,98c-4.42,0-8-3.58-8-8v-12c0-4.42,3.58-8,8-8s8,3.58,8,8v12c0,4.42-3.58,8-8,8Z"/><path d="M77.6,48c-4.42,0-8-3.58-8-8v-12c0-4.42,3.58-8,8-8s8,3.58,8,8v12c0,4.42-3.58,8-8,8Z"/><path d="M133.6,138c-4.42,0-8-3.58-8-8v-12c0-4.42,3.58-8,8-8s8,3.58,8,8v12c0,4.42-3.58,8-8,8Z"/></g><use width="155.2" height="138" xlink:href="#e"/></g></symbol><symbol id="e" viewBox="0 0 155.2 138"><g><path d="M41.17,30.54l-5.78-3.29c.52-2.16,.49-4.37-.01-6.48l5.79-3.3c1.94-1.1,2.6-3.55,1.48-5.46-1.12-1.91-3.59-2.57-5.54-1.46l-5.79,3.3c-.79-.74-1.66-1.4-2.64-1.96-.98-.56-2-.97-3.04-1.28V4c0-2.21-1.81-4-4.05-4s-4.05,1.79-4.05,4v6.6c-2.1,.62-4.06,1.71-5.69,3.23l-5.78-3.29c-1.94-1.11-4.42-.45-5.54,1.46-1.12,1.91-.46,4.36,1.48,5.46l5.78,3.29c-.52,2.16-.49,4.37,.01,6.48l-5.79,3.3c-1.94,1.1-2.6,3.55-1.48,5.46,.75,1.28,2.11,2,3.51,2,.69,0,1.38-.17,2.02-.54l5.79-3.3c.79,.74,1.66,1.4,2.64,1.96,.98,.56,2,.97,3.04,1.27v6.61c0,2.21,1.81,4,4.05,4s4.05-1.79,4.05-4v-6.61c2.1-.62,4.05-1.7,5.68-3.22l5.79,3.3c.64,.36,1.33,.54,2.02,.54,1.4,0,2.76-.72,3.51-2,1.12-1.91,.46-4.36-1.48-5.46Zm-22.61-1.34c-2.9-1.65-3.9-5.33-2.23-8.2,1.13-1.92,3.17-3,5.28-3,1.03,0,2.07,.26,3.03,.8,2.9,1.65,3.9,5.33,2.23,8.2-1.68,2.87-5.4,3.85-8.3,2.2Z"/><path d="M97.17,120.54l-5.78-3.29c.52-2.16,.49-4.37-.01-6.48l5.79-3.3c1.94-1.1,2.6-3.55,1.48-5.46-1.12-1.91-3.59-2.57-5.54-1.46l-5.79,3.3c-.79-.74-1.66-1.4-2.64-1.96-.98-.56-2-.97-3.04-1.28v-6.6c0-2.21-1.81-4-4.05-4s-4.05,1.79-4.05,4v6.6c-2.1,.62-4.06,1.71-5.69,3.23l-5.78-3.29c-1.94-1.11-4.42-.45-5.54,1.46-1.12,1.91-.46,4.36,1.48,5.46l5.78,3.29c-.52,2.16-.49,4.37,.01,6.48l-5.79,3.3c-1.94,1.1-2.6,3.55-1.48,5.46,.75,1.28,2.11,2,3.51,2,.69,0,1.38-.17,2.02-.54l5.79-3.3c.79,.74,1.66,1.4,2.64,1.96,.98,.56,2,.97,3.04,1.27v6.61c0,2.21,1.81,4,4.05,4s4.05-1.79,4.05-4v-6.61c2.1-.62,4.05-1.7,5.68-3.22l5.79,3.3c.64,.36,1.33,.54,2.02,.54,1.4,0,2.76-.72,3.51-2,1.12-1.91,.46-4.36-1.48-5.46Zm-22.61-1.34c-2.9-1.65-3.9-5.33-2.23-8.2,1.13-1.92,3.17-3,5.28-3,1.03,0,2.07,.26,3.03,.8,2.9,1.65,3.9,5.33,2.23,8.2-1.68,2.87-5.4,3.85-8.3,2.2Z"/><path d="M153.17,70.54l-5.78-3.29c.52-2.16,.49-4.37-.01-6.48l5.79-3.3c1.94-1.1,2.6-3.55,1.48-5.46-1.12-1.91-3.59-2.57-5.54-1.46l-5.79,3.3c-.79-.74-1.66-1.4-2.64-1.96-.98-.56-2-.97-3.04-1.28v-6.6c0-2.21-1.81-4-4.05-4s-4.05,1.79-4.05,4v6.6c-2.1,.62-4.06,1.71-5.69,3.23l-5.78-3.29c-1.94-1.11-4.42-.45-5.54,1.46-1.12,1.91-.46,4.36,1.48,5.46l5.78,3.29c-.52,2.16-.49,4.37,.01,6.48l-5.79,3.3c-1.94,1.1-2.6,3.55-1.48,5.46,.75,1.28,2.11,2,3.51,2,.69,0,1.38-.17,2.02-.54l5.79-3.3c.79,.74,1.66,1.4,2.64,1.96,.98,.56,2,.97,3.04,1.27v6.61c0,2.21,1.81,4,4.05,4s4.05-1.79,4.05-4v-6.61c2.1-.62,4.05-1.7,5.68-3.22l5.79,3.3c.64,.36,1.33,.54,2.02,.54,1.4,0,2.76-.72,3.51-2,1.12-1.91,.46-4.36-1.48-5.46Zm-22.61-1.34c-2.9-1.65-3.9-5.33-2.23-8.2,1.13-1.92,3.17-3,5.28-3,1.03,0,2.07,.26,3.03,.8,2.9,1.65,3.9,5.33,2.23,8.2-1.68,2.87-5.4,3.85-8.3,2.2Z"/></g></symbol><symbol id="f" viewBox="0 0 199 199"><g><path d="M99.5,147c-26.19,0-47.5-21.31-47.5-47.5s21.31-47.5,47.5-47.5,47.5,21.31,47.5,47.5-21.31,47.5-47.5,47.5Zm0-80c-17.92,0-32.5,14.58-32.5,32.5s14.58,32.5,32.5,32.5,32.5-14.58,32.5-32.5-14.58-32.5-32.5-32.5Z"/><path d="M99.5,199c-4.14,0-7.5-3.36-7.5-7.5v-25.38c0-4.14,3.36-7.5,7.5-7.5s7.5,3.36,7.5,7.5v25.38c0,4.14-3.36,7.5-7.5,7.5Zm65.05-26.95c-1.92,0-3.84-.73-5.3-2.2l-17.95-17.95c-2.93-2.93-2.93-7.68,0-10.61,2.93-2.93,7.68-2.93,10.61,0l17.95,17.95c2.93,2.93,2.93,7.68,0,10.61-1.46,1.46-3.38,2.2-5.3,2.2Zm-130.11,0c-1.92,0-3.84-.73-5.3-2.2-2.93-2.93-2.93-7.68,0-10.61l17.95-17.95c2.93-2.93,7.68-2.93,10.61,0,2.93,2.93,2.93,7.68,0,10.61l-17.95,17.95c-1.46,1.46-3.38,2.2-5.3,2.2ZM191.5,107h-25.38c-4.14,0-7.5-3.36-7.5-7.5s3.36-7.5,7.5-7.5h25.38c4.14,0,7.5,3.36,7.5,7.5s-3.36,7.5-7.5,7.5Zm-158.62,0H7.5c-4.14,0-7.5-3.36-7.5-7.5s3.36-7.5,7.5-7.5h25.38c4.14,0,7.5,3.36,7.5,7.5s-3.36,7.5-7.5,7.5Zm19.51-47.11c-1.92,0-3.84-.73-5.3-2.2l-17.95-17.95c-2.93-2.93-2.93-7.68,0-10.61,2.93-2.93,7.68-2.93,10.61,0l17.95,17.95c2.93,2.93,2.93,7.68,0,10.61-1.46,1.46-3.38,2.2-5.3,2.2Zm94.22,0c-1.92,0-3.84-.73-5.3-2.2-2.93-2.93-2.93-7.68,0-10.61l17.95-17.95c2.93-2.93,7.68-2.93,10.61,0,2.93,2.93,2.93,7.68,0,10.61l-17.95,17.95c-1.46,1.46-3.38,2.2-5.3,2.2Zm-47.11-19.51c-4.14,0-7.5-3.36-7.5-7.5V7.5c0-4.14,3.36-7.5,7.5-7.5s7.5,3.36,7.5,7.5v25.38c0,4.14-3.36,7.5-7.5,7.5Z"/></g></symbol></defs><use width="426.5" height="362.5" transform="translate(9 9)" xlink:href="#b"/><use width="155.2" height="138" transform="translate(178.4 338)" xlink:href="#d"/></svg>