<?xml version="1.0" encoding="UTF-8"?><svg id="b" xmlns="http://www.w3.org/2000/svg" xmlns:xlink="http://www.w3.org/1999/xlink" viewBox="0 0 512 512"><defs><style></style><symbol id="a" viewBox="0 0 232 72"><g><circle cx="116" cy="12" r="12"/><circle cx="156" cy="52" r="16"/><circle cx="76" cy="52" r="16"/><circle cx="12" cy="60" r="12"/><circle cx="220" cy="60" r="12"/><circle cx="180" cy="20" r="8"/><circle cx="52" cy="20" r="8"/></g></symbol></defs><path d="M327.5,258.55c-5.86-2.77-11.83-4.66-17.72-5.79,3.83-4.61,7.25-9.86,10.02-15.72,13.48-28.51,7.11-59.8-14.22-69.88-21.33-10.09-49.56,4.84-63.04,33.34-2.77,5.86-4.66,11.84-5.79,17.73-4.61-3.83-9.86-7.25-15.72-10.02-28.5-13.48-59.79-7.11-69.88,14.22-10.09,21.33,4.84,49.56,33.34,63.04,5.86,2.77,11.83,4.66,17.72,5.79-3.83,4.61-7.25,9.86-10.02,15.72-13.48,28.51-7.11,59.8,14.22,69.88,21.33,10.09,49.56-4.84,63.04-33.34,2.77-5.86,4.66-11.83,5.79-17.72,4.61,3.83,9.86,7.25,15.72,10.02,28.51,13.48,59.79,7.11,69.88-14.22,10.09-21.33-4.84-49.56-33.34-63.04Zm-49.3,18.77s28.74,10.59,25.58,17.27c-3.16,6.68-29.58-8.81-29.58-8.81,0,0,21.58,18.76,16.94,22.41-4.65,3.65-25.83-20.14-25.83-20.14,0,0,15.22,24.93,8.69,27.26-.88,.31-1.91-.27-3.04-1.51-.09,1.68-.52,2.78-1.39,3.1-6.53,2.33-10.58-26.59-10.58-26.59,0,0-1.28,31.83-7.18,31.96-5.91,.13-1.13-28.06-1.13-28.06,0,0-10.59,28.74-17.27,25.58-6.68-3.16,8.81-29.58,8.81-29.58,0,0-18.76,21.58-22.41,16.94-3.65-4.65,20.15-25.83,20.15-25.83,0,0-24.93,15.22-27.27,8.69-.31-.88,.27-1.91,1.51-3.04-1.68-.09-2.78-.52-3.1-1.39-2.34-6.53,26.59-10.58,26.59-10.58,0,0-31.83-1.28-31.96-7.18-.13-5.9,28.06-1.12,28.06-1.12,0,0-28.74-10.6-25.58-17.28,3.16-6.68,29.58,8.81,29.58,8.81,0,0-21.58-18.76-16.94-22.41,4.65-3.65,25.83,20.14,25.83,20.14,0,0-15.22-24.93-8.69-27.26,.88-.31,1.91,.27,3.04,1.51,.09-1.68,.52-2.78,1.39-3.09,6.53-2.34,10.58,26.59,10.58,26.59,0,0,1.28-31.83,7.18-31.96,5.9-.13,1.13,28.06,1.13,28.06,0,0,10.59-28.74,17.27-25.58,6.68,3.16-8.81,29.58-8.81,29.58,0,0,18.76-21.58,22.41-16.94,3.65,4.65-20.15,25.83-20.15,25.83,0,0,24.93-15.22,27.27-8.69,.31,.87-.27,1.91-1.51,3.04,1.68,.09,2.78,.52,3.09,1.39,2.34,6.53-26.59,10.59-26.59,10.59,0,0,31.83,1.28,31.96,7.18,.13,5.9-28.06,1.13-28.06,1.13Z"/><use width="232" height="72" transform="translate(140 132)" xlink:href="#a"/></svg>