<?xml version="1.0" encoding="UTF-8"?><svg id="e" xmlns="http://www.w3.org/2000/svg" xmlns:xlink="http://www.w3.org/1999/xlink" viewBox="0 0 512 512"><defs><style>.f{fill:none;}.g{clip-path:url(#d);}</style><symbol id="a" viewBox="0 0 359 231"><path d="M295.5,231c-4.14,0-7.5-3.36-7.5-7.5s3.36-7.5,7.5-7.5c26.74,0,48.5-21.76,48.5-48.5s-21.76-48.5-48.5-48.5c-.37,0-.73,.03-1.09,.05-.37,.02-.73,.05-1.1,.07-2.36,.1-4.63-.91-6.13-2.74-1.5-1.83-2.05-4.26-1.48-6.55,1.53-6.22,2.31-12.39,2.31-18.33,0-42.18-34.32-76.5-76.5-76.5-26.63,0-50.94,13.59-65.03,36.36-2.15,3.48-6.7,4.59-10.22,2.5-7.53-4.49-16.09-6.86-24.76-6.86-26.74,0-48.5,21.76-48.5,48.5,0,2.4,.23,4.98,.7,7.87,.66,4.02-2.01,7.82-6.01,8.58-24.74,4.68-42.69,26.35-42.69,51.55,0,28.95,23.55,52.5,52.5,52.5,4.14,0,7.5,3.36,7.5,7.5s-3.36,7.5-7.5,7.5C30.28,231,0,200.72,0,163.5c0-30.04,19.85-56.19,48.1-64.63-.07-1.14-.1-2.26-.1-3.37,0-35.01,28.49-63.5,63.5-63.5,9,0,17.91,1.94,26.11,5.67C154.83,13.96,181.97,0,211.5,0c50.45,0,91.5,41.05,91.5,91.5,0,4.21-.32,8.51-.96,12.83,31.95,3.28,56.96,30.36,56.96,63.17,0,35.01-28.49,63.5-63.5,63.5Z"/></symbol><symbol id="b" viewBox="0 0 183 183"><path d="M92.91,183C41.68,183,0,141.83,0,91.23,0,44.34,35.56,5.13,82.72,.04c2.45-.27,4.88,.69,6.49,2.56,1.61,1.87,2.2,4.41,1.57,6.8-1.71,6.51-2.57,12.98-2.57,19.23,0,42.33,34.95,76.77,77.91,76.77,2.72,0,5.53-.16,8.58-.49,2.45-.26,4.88,.69,6.49,2.56,1.61,1.87,2.2,4.41,1.57,6.8-10.61,40.47-47.56,68.73-89.85,68.73ZM74.04,16.75C39.74,25.1,15,55.5,15,91.23c0,42.33,34.95,76.77,77.91,76.77,31.89,0,60.15-19.12,71.99-47.61-50.67-.65-91.69-41.56-91.69-91.76,0-3.91,.28-7.88,.83-11.88Z"/></symbol><clipPath id="d"><path d="M0,0V286H54.5c3.19-28.52,21.38-53.43,47.73-65.07,3.1-39.63,36.35-70.93,76.76-70.93,7.37,0,14.64,1.05,21.69,3.14,17.88-20.18,42.51-32.5,69.31-34.76V0H0Z" style="fill:none;"/></clipPath><symbol id="c" viewBox="0 0 426.5 362.5"><g><use width="359" height="231" transform="translate(67.5 131.5)" xlink:href="#a"/><g style="clip-path:url(#d);"><use width="183" height="183" transform="translate(55.5 86.5)" xlink:href="#b"/></g></g></symbol></defs><use width="426.5" height="362.5" transform="translate(9 9)" xlink:href="#c"/><g><path d="M200,376c-4.42,0-8-3.58-8-8v-12c0-4.42,3.58-8,8-8s8,3.58,8,8v12c0,4.42-3.58,8-8,8Z"/><path d="M312,406c-4.42,0-8-3.58-8-8v-12c0-4.42,3.58-8,8-8s8,3.58,8,8v12c0,4.42-3.58,8-8,8Z"/><path d="M256,456c-4.42,0-8-3.58-8-8v-12c0-4.42,3.58-8,8-8s8,3.58,8,8v12c0,4.42-3.58,8-8,8Z"/></g></svg>