<?xml version="1.0" encoding="UTF-8"?><svg id="a" xmlns="http://www.w3.org/2000/svg" viewBox="0 0 512 512"><path d="M293.51,212.98c-1.92,0-3.84-.7-5.3-2.09l-32.2-30.65-32.2,30.67c-2.93,2.79-7.68,2.79-10.61,0-2.93-2.79-2.93-7.31,0-10.1l37.5-35.71c2.93-2.79,7.68-2.79,10.61,0l37.5,35.71c2.93,2.79,2.93,7.31,0,10.1-1.45,1.38-3.37,2.08-5.3,2.08Z"/><path d="M293.51,257.98c-1.92,0-3.84-.7-5.3-2.09l-32.2-30.65-32.2,30.67c-2.93,2.79-7.68,2.79-10.61,0-2.93-2.79-2.93-7.31,0-10.1l37.5-35.71c2.93-2.79,7.68-2.79,10.61,0l37.5,35.71c2.93,2.79,2.93,7.31,0,10.1-1.45,1.38-3.37,2.08-5.3,2.08Z"/><path d="M293.51,302.98c-1.92,0-3.84-.7-5.3-2.09l-32.2-30.65-32.2,30.67c-2.93,2.79-7.68,2.79-10.61,0-2.93-2.79-2.93-7.31,0-10.1l37.5-35.71c2.93-2.79,7.68-2.79,10.61,0l37.5,35.71c2.93,2.79,2.93,7.31,0,10.1-1.45,1.38-3.37,2.08-5.3,2.08Z"/><path d="M293.51,347.98c-1.92,0-3.84-.7-5.3-2.09l-32.2-30.65-32.2,30.67c-2.93,2.79-7.68,2.79-10.61,0-2.93-2.79-2.93-7.31,0-10.1l37.5-35.71c2.93-2.79,7.68-2.79,10.61,0l37.5,35.71c2.93,2.79,2.93,7.31,0,10.1-1.45,1.38-3.37,2.08-5.3,2.08Z"/></svg>