<?xml version="1.0" encoding="UTF-8"?><svg id="b" xmlns="http://www.w3.org/2000/svg" xmlns:xlink="http://www.w3.org/1999/xlink" viewBox="0 0 512 512"><defs><style></style><symbol id="a" viewBox="0 0 232 72"><g><circle cx="116" cy="12" r="12"/><circle cx="156" cy="52" r="16"/><circle cx="76" cy="52" r="16"/><circle cx="12" cy="60" r="12"/><circle cx="220" cy="60" r="12"/><circle cx="180" cy="20" r="8"/><circle cx="52" cy="20" r="8"/></g></symbol></defs><g><path d="M264.5,384c.09-14.88,.74-109.5,2.43-131.79,1.83-24.21,11-58.6,16.5-84.72,5.5-26.12-8.55-39.49-8.55-39.49,0,0,13.44,13.38-6.11,71.98-18.65,55.91-13.92,173.95-13.47,184.02h9.21Z"/><path d="M289.38,279.95c-16.75,38.57-18.99,86.43-19.21,104.05h16.9c-1.35-19.68-3.47-76.45,13.65-107.69,20.95-38.21,39.27-31.85,39.27-31.85,0,0-29.67-12.74-50.62,35.49Z"/><path d="M261.52,384h12.79c1.52-21.15,7.15-87.9,19.7-122.99,15.04-42.05,4.32-85.88,4.32-85.88,0,0,5.62,43.12-14.37,88.99-17.02,39.06-21.49,102.04-22.44,119.88Z"/><path d="M242.33,384h16.44c-1.95-11.56-15.85-91.71-30.47-120.91-15.78-31.49-27.47-46.23-56.3-57.37,0,0,35.19,15.09,51.74,82.99,12.6,51.69,17.14,83.19,18.6,95.29Z"/><path d="M242.64,384c-3.95-18.95-19.78-81.78-58.95-99.41,0,0,21.77,23.38,32.44,49.17,7.13,17.24,10.81,38.2,12.47,50.23h14.04Z"/></g><use width="232" height="72" transform="translate(140 132)" xlink:href="#a"/></svg>