<?xml version="1.0" encoding="UTF-8"?><svg id="e" xmlns="http://www.w3.org/2000/svg" xmlns:xlink="http://www.w3.org/1999/xlink" viewBox="0 0 512 512"><defs><style>.f{fill:none;}.g{clip-path:url(#c);}</style><symbol id="a" viewBox="0 0 359 231"><path d="M295.5,231c-4.14,0-7.5-3.36-7.5-7.5s3.36-7.5,7.5-7.5c26.74,0,48.5-21.76,48.5-48.5s-21.76-48.5-48.5-48.5c-.37,0-.73,.03-1.09,.05-.37,.02-.73,.05-1.1,.07-2.36,.1-4.63-.91-6.13-2.74-1.5-1.83-2.05-4.26-1.48-6.55,1.53-6.22,2.31-12.39,2.31-18.33,0-42.18-34.32-76.5-76.5-76.5-26.63,0-50.94,13.59-65.03,36.36-2.15,3.48-6.7,4.59-10.22,2.5-7.53-4.49-16.09-6.86-24.76-6.86-26.74,0-48.5,21.76-48.5,48.5,0,2.4,.23,4.98,.7,7.87,.66,4.02-2.01,7.82-6.01,8.58-24.74,4.68-42.69,26.35-42.69,51.55,0,28.95,23.55,52.5,52.5,52.5,4.14,0,7.5,3.36,7.5,7.5s-3.36,7.5-7.5,7.5C30.28,231,0,200.72,0,163.5c0-30.04,19.85-56.19,48.1-64.63-.07-1.14-.1-2.26-.1-3.37,0-35.01,28.49-63.5,63.5-63.5,9,0,17.91,1.94,26.11,5.67C154.83,13.96,181.97,0,211.5,0c50.45,0,91.5,41.05,91.5,91.5,0,4.21-.32,8.51-.96,12.83,31.95,3.28,56.96,30.36,56.96,63.17,0,35.01-28.49,63.5-63.5,63.5Z"/></symbol><clipPath id="c"><path d="M0,0V286H54.5c3.19-28.52,21.38-53.43,47.73-65.07,3.1-39.63,36.35-70.93,76.76-70.93,7.37,0,14.64,1.05,21.69,3.14,17.88-20.18,42.51-32.5,69.31-34.76V0H0Z" style="fill:none;"/></clipPath><symbol id="b" viewBox="0 0 426.5 362.5"><g><g style="clip-path:url(#c);"><use width="199" height="199" transform="translate(37.5 78.5)" xlink:href="#d"/></g><use width="359" height="231" transform="translate(67.5 131.5)" xlink:href="#a"/></g></symbol><symbol id="d" viewBox="0 0 199 199"><g><path d="M99.5,147c-26.19,0-47.5-21.31-47.5-47.5s21.31-47.5,47.5-47.5,47.5,21.31,47.5,47.5-21.31,47.5-47.5,47.5Zm0-80c-17.92,0-32.5,14.58-32.5,32.5s14.58,32.5,32.5,32.5,32.5-14.58,32.5-32.5-14.58-32.5-32.5-32.5Z"/><path d="M99.5,199c-4.14,0-7.5-3.36-7.5-7.5v-25.38c0-4.14,3.36-7.5,7.5-7.5s7.5,3.36,7.5,7.5v25.38c0,4.14-3.36,7.5-7.5,7.5Zm65.05-26.95c-1.92,0-3.84-.73-5.3-2.2l-17.95-17.95c-2.93-2.93-2.93-7.68,0-10.61,2.93-2.93,7.68-2.93,10.61,0l17.95,17.95c2.93,2.93,2.93,7.68,0,10.61-1.46,1.46-3.38,2.2-5.3,2.2Zm-130.11,0c-1.92,0-3.84-.73-5.3-2.2-2.93-2.93-2.93-7.68,0-10.61l17.95-17.95c2.93-2.93,7.68-2.93,10.61,0,2.93,2.93,2.93,7.68,0,10.61l-17.95,17.95c-1.46,1.46-3.38,2.2-5.3,2.2ZM191.5,107h-25.38c-4.14,0-7.5-3.36-7.5-7.5s3.36-7.5,7.5-7.5h25.38c4.14,0,7.5,3.36,7.5,7.5s-3.36,7.5-7.5,7.5Zm-158.62,0H7.5c-4.14,0-7.5-3.36-7.5-7.5s3.36-7.5,7.5-7.5h25.38c4.14,0,7.5,3.36,7.5,7.5s-3.36,7.5-7.5,7.5Zm19.51-47.11c-1.92,0-3.84-.73-5.3-2.2l-17.95-17.95c-2.93-2.93-2.93-7.68,0-10.61,2.93-2.93,7.68-2.93,10.61,0l17.95,17.95c2.93,2.93,2.93,7.68,0,10.61-1.46,1.46-3.38,2.2-5.3,2.2Zm94.22,0c-1.92,0-3.84-.73-5.3-2.2-2.93-2.93-2.93-7.68,0-10.61l17.95-17.95c2.93-2.93,7.68-2.93,10.61,0,2.93,2.93,2.93,7.68,0,10.61l-17.95,17.95c-1.46,1.46-3.38,2.2-5.3,2.2Zm-47.11-19.51c-4.14,0-7.5-3.36-7.5-7.5V7.5c0-4.14,3.36-7.5,7.5-7.5s7.5,3.36,7.5,7.5v25.38c0,4.14-3.36,7.5-7.5,7.5Z"/></g></symbol></defs><use width="426.5" height="362.5" transform="translate(9 9)" xlink:href="#b"/></svg>