<?xml version="1.0" encoding="UTF-8"?><svg id="b" xmlns="http://www.w3.org/2000/svg" xmlns:xlink="http://www.w3.org/1999/xlink" viewBox="0 0 512 512"><defs><style>.d,.e{fill:none;}.e{stroke:#000;stroke-miterlimit:10;stroke-width:24px;}.f{clip-path:url(#c);}</style><symbol id="a" viewBox="0 0 197.48 128.47"><path d="M161.29,128.47H34.51v-.19C15.16,126.34,0,109.96,0,90.11c0-16.55,10.61-31.02,25.88-36.26,0-.14,0-.27,0-.41,0-19.96,16.24-36.2,36.2-36.2,4.61,0,9.17,.89,13.44,2.61C85.2,7.33,99.97,0,116,0c28.28,0,51.29,23.01,51.29,51.29,0,1.73-.1,3.47-.29,5.23,17.25,2.75,30.48,17.73,30.48,35.74,0,19.96-16.24,36.19-36.2,36.19Zm-114.78-12h114.78c13.34,0,24.2-10.85,24.2-24.19s-10.85-24.2-24.2-24.2c-.16,0-.31,.01-.46,.03-.21,.01-.42,.03-.63,.04l-8.02,.36,1.92-7.79c.79-3.2,1.19-6.37,1.19-9.42,0-21.67-17.63-39.29-39.29-39.29-13.68,0-26.16,6.98-33.4,18.68l-3.1,5.02-5.07-3.02c-3.75-2.24-8.02-3.42-12.35-3.42-13.34,0-24.2,10.85-24.2,24.2,0,1.19,.12,2.47,.35,3.93l.94,5.78-5.75,1.09c-12.42,2.35-21.43,13.23-21.43,25.87,0,14.53,11.82,26.35,26.35,26.35,.45,0,.89-.04,1.34-.07l6.82-.45v.52Z"/></symbol><clipPath id="c"><path d="M368.44,0V225.59h-16.5c-16.28,0-30.52,8.62-38.5,21.52-4.52-2.69-9.78-4.27-15.42-4.27-16.68,0-30.2,13.52-30.2,30.2,0,1.67,.17,3.3,.43,4.9-14.98,2.83-26.31,15.97-26.31,31.77v9.8H0V0H368.44Z" style="fill:none;"/></clipPath></defs><g style="clip-path:url(#c);"><path d="M82,310c0-79.53,66.26-144,148-144s148,64.47,148,144" style="fill:none; stroke:#000; stroke-miterlimit:10; stroke-width:24px;"/><path d="M130,310c0-53.02,44.77-96,100-96s100,42.98,100,96" style="fill:none; stroke:#000; stroke-miterlimit:10; stroke-width:24px;"/></g><use width="197.48" height="128.47" transform="translate(235.94 219.59)" xlink:href="#a"/></svg>