<?xml version="1.0" encoding="UTF-8"?><svg id="b" xmlns="http://www.w3.org/2000/svg" xmlns:xlink="http://www.w3.org/1999/xlink" viewBox="0 0 512 512"><defs><style>.d{fill:none;}.e{clip-path:url(#c);}</style><symbol id="a" viewBox="0 0 175 260.88"><path d="M87.5,260.88C39.25,260.88,0,221.97,0,174.13,0,129.25,30.78,83.78,77.38,14.95L87.5,0l10.12,14.95c46.6,68.83,77.38,114.31,77.38,159.18,0,47.83-39.25,86.75-87.5,86.75Zm0-234.12C43.75,91.4,15,134.54,15,174.13s32.52,71.75,72.5,71.75,72.5-32.19,72.5-71.75S131.25,91.4,87.5,26.76Z"/></symbol><clipPath id="c"><path d="M168,252h176v128H168V252Z" style="fill:none;"/></clipPath></defs><g><path d="M260.21,145.71c-1.49,0-2.96-.44-4.21-1.29-2.46,1.67-5.79,1.77-8.41,0-3.43-2.32-4.33-6.98-2.01-10.42l10.42-15.39,10.42,15.39c2.32,3.43,1.42,8.09-2.01,10.42-1.29,.87-2.75,1.29-4.2,1.29Z"/><path d="M256,379.5c-2.77,0-5.56-.13-8.3-.39-4.12-.38-7.16-4.04-6.77-8.16,.38-4.12,4.05-7.15,8.16-6.77,4.51,.42,9.14,.43,13.65,.02,4.12-.37,7.77,2.66,8.15,6.79,.38,4.12-2.66,7.77-6.79,8.15-2.68,.24-5.4,.37-8.1,.37Zm41.47-11.45c-2.55,0-5.03-1.3-6.44-3.64-2.13-3.55-.99-8.16,2.56-10.29,3.89-2.34,7.58-5.06,10.97-8.08,3.09-2.76,7.83-2.49,10.59,.6,2.76,3.09,2.49,7.83-.6,10.59-4.08,3.65-8.54,6.93-13.23,9.75-1.21,.73-2.54,1.07-3.86,1.07Zm-83.09-.09c-1.32,0-2.66-.35-3.87-1.08-4.69-2.83-9.13-6.12-13.21-9.78-3.08-2.77-3.34-7.51-.57-10.59,2.77-3.08,7.51-3.34,10.59-.57,3.38,3.03,7.06,5.76,10.95,8.1,3.55,2.14,4.68,6.75,2.54,10.3-1.41,2.33-3.89,3.62-6.43,3.62Zm115.84-38.05c-.94,0-1.9-.18-2.83-.56-3.84-1.56-5.68-5.94-4.12-9.78,1.71-4.19,3.02-8.57,3.89-13.01,.8-4.06,4.74-6.71,8.81-5.91,4.06,.8,6.71,4.74,5.91,8.81-1.06,5.38-2.65,10.69-4.72,15.77-1.19,2.91-3.99,4.67-6.95,4.67Zm-148.5-.17c-2.97,0-5.77-1.77-6.96-4.69-2.06-5.09-3.63-10.4-4.68-15.79-.79-4.07,1.87-8,5.93-8.79,4.07-.79,8,1.87,8.79,5.93,.86,4.44,2.16,8.82,3.86,13.02,1.55,3.84-.3,8.21-4.14,9.76-.92,.37-1.87,.55-2.81,.55Zm152.06-50.07c-3.47,0-6.59-2.43-7.33-5.96-.92-4.39-2.18-8.98-3.74-13.66-1.31-3.93,.81-8.18,4.73-9.49,3.93-1.31,8.18,.81,9.49,4.73,1.75,5.23,3.16,10.39,4.2,15.34,.85,4.05-1.75,8.03-5.8,8.88-.52,.11-1.04,.16-1.55,.16Zm-155.52-.19c-.51,0-1.04-.05-1.56-.16-4.05-.86-6.64-4.84-5.79-8.89,1.05-4.95,2.47-10.11,4.22-15.33,1.32-3.93,5.57-6.04,9.5-4.72,3.93,1.32,6.04,5.57,4.72,9.5-1.57,4.68-2.84,9.28-3.76,13.66-.75,3.53-3.86,5.95-7.33,5.95Zm136.94-47.28c-2.68,0-5.27-1.44-6.62-3.97-2.17-4.06-4.59-8.4-7.21-12.88-2.09-3.58-.88-8.17,2.7-10.26,3.58-2.09,8.17-.88,10.26,2.7,2.71,4.65,5.23,9.15,7.49,13.38,1.95,3.65,.57,8.2-3.09,10.15-1.12,.6-2.33,.88-3.52,.88Zm-118.31-.17c-1.19,0-2.4-.28-3.53-.89-3.65-1.95-5.03-6.5-3.08-10.15,2.25-4.22,4.77-8.72,7.49-13.38,2.09-3.58,6.68-4.78,10.26-2.7,3.58,2.09,4.78,6.68,2.7,10.26-2.62,4.49-5.05,8.83-7.21,12.88-1.35,2.53-3.94,3.97-6.62,3.97Zm91.89-43.62c-2.45,0-4.85-1.2-6.29-3.41-2.53-3.88-5.22-7.97-8.24-12.5-2.29-3.45-1.36-8.1,2.09-10.4,3.45-2.29,8.1-1.36,10.4,2.09,3.05,4.58,5.77,8.71,8.32,12.62,2.26,3.47,1.28,8.12-2.19,10.38-1.26,.82-2.68,1.22-4.09,1.22Zm-65.45-.16c-1.4,0-2.83-.39-4.09-1.22-3.47-2.26-4.45-6.91-2.19-10.38,2.55-3.9,5.27-8.03,8.32-12.62,2.29-3.45,6.95-4.38,10.4-2.09,3.45,2.29,4.38,6.95,2.09,10.4-3.03,4.55-5.72,8.64-8.24,12.5-1.44,2.21-3.84,3.4-6.29,3.4Z"/></g><path d="M384,375h-32c-1.66,0-3-1.34-3-3s1.34-3,3-3h29v-58h-13c-1.66,0-3-1.34-3-3s1.34-3,3-3h13v-50h-21c-1.66,0-3-1.34-3-3s1.34-3,3-3h21v-58h-13c-1.66,0-3-1.34-3-3s1.34-3,3-3h13v-50h-29c-1.66,0-3-1.34-3-3s1.34-3,3-3h32c1.66,0,3,1.34,3,3v240c0,1.66-1.34,3-3,3Z"/><g style="clip-path:url(#c);"><use width="175" height="260.88" transform="translate(168.61 119.2)" xlink:href="#a"/></g></svg>