<?xml version="1.0" encoding="UTF-8"?><svg id="b" xmlns="http://www.w3.org/2000/svg" xmlns:xlink="http://www.w3.org/1999/xlink" viewBox="0 0 512 512"><defs><style>.d{fill:none;}.e{clip-path:url(#c);}</style><symbol id="a" viewBox="0 0 175 260.88"><path d="M87.5,260.88C39.25,260.88,0,221.97,0,174.13,0,129.25,30.78,83.78,77.38,14.95L87.5,0l10.12,14.95c46.6,68.83,77.38,114.31,77.38,159.18,0,47.83-39.25,86.75-87.5,86.75Zm0-234.12C43.75,91.4,15,134.54,15,174.13s32.52,71.75,72.5,71.75,72.5-32.19,72.5-71.75S131.25,91.4,87.5,26.76Z"/></symbol><clipPath id="c"><path d="M302,137c-48.7,71.97-80,116.99-80,160.75s35.79,79.25,80,79.25v135H0V0H302V137Z" style="fill:none;"/></clipPath></defs><use width="175" height="260.88" transform="translate(214.5 123.62)" xlink:href="#a"/><g style="clip-path:url(#c);"><use width="175" height="260.88" transform="translate(122.5 123.62)" xlink:href="#a"/></g></svg>