<?xml version="1.0" encoding="UTF-8"?><svg id="b" xmlns="http://www.w3.org/2000/svg" xmlns:xlink="http://www.w3.org/1999/xlink" viewBox="0 0 512 512"><defs><style></style><symbol id="a" viewBox="0 0 173 217"><g><path d="M88.5,217c-15.71,0-28.5-12.79-28.5-28.5s12.79-28.5,28.5-28.5,28.5,12.79,28.5,28.5-12.79,28.5-28.5,28.5Zm0-48c-10.75,0-19.5,8.75-19.5,19.5s8.75,19.5,19.5,19.5,19.5-8.75,19.5-19.5-8.75-19.5-19.5-19.5Z"/><path d="M40.5,165C18.17,165,0,146.83,0,124.5s18.17-40.5,40.5-40.5,40.5,18.17,40.5,40.5-18.17,40.5-40.5,40.5Zm0-72c-17.37,0-31.5,14.13-31.5,31.5s14.13,31.5,31.5,31.5,31.5-14.13,31.5-31.5-14.13-31.5-31.5-31.5Z"/><path d="M120.5,105c-28.95,0-52.5-23.55-52.5-52.5S91.55,0,120.5,0s52.5,23.55,52.5,52.5-23.55,52.5-52.5,52.5Zm0-96c-23.99,0-43.5,19.51-43.5,43.5s19.51,43.5,43.5,43.5,43.5-19.51,43.5-43.5S144.49,9,120.5,9Z"/></g></symbol></defs><use width="173" height="217" transform="translate(169.5 147.5)" xlink:href="#a"/></svg>