<?xml version="1.0" encoding="UTF-8"?><svg id="a" xmlns="http://www.w3.org/2000/svg" viewBox="0 0 512 512"><path d="M256,407.5c-17.38,0-31.51-14.13-31.51-31.5v-34.2c-5.12-1.83-9.82-4-14.26-6.57-4.43-2.56-8.74-5.59-12.84-9.04l-29.61,17.08c-4.78,2.77-10.23,4.23-15.73,4.23-11.23,0-21.7-6.04-27.31-15.76-4.21-7.28-5.33-15.76-3.15-23.89,2.18-8.13,7.39-14.93,14.69-19.14l29.65-17.11c-1.81-10.37-1.83-21-.07-31.27l-29.58-17.07c-7.29-4.21-12.51-11-14.69-19.14-2.18-8.13-1.05-16.61,3.16-23.9,4.21-7.29,11-12.5,19.13-14.68,8.13-2.18,16.62-1.06,23.92,3.16l29.58,17.07c8.02-6.66,17.24-11.96,27.13-15.58v-34.21c0-17.37,14.14-31.5,31.51-31.5s31.51,14.13,31.51,31.5v34.16c5.05,1.83,9.82,4.04,14.26,6.6,4.43,2.56,8.74,5.59,12.84,9.04l29.61-17.08c15.05-8.69,34.36-3.51,43.04,11.53,4.21,7.28,5.33,15.76,3.15,23.89-2.18,8.13-7.39,14.93-14.69,19.14l-29.65,17.11c1.81,10.37,1.83,21,.07,31.27l29.58,17.07c7.29,4.21,12.51,11,14.69,19.14,2.18,8.13,1.05,16.61-3.16,23.9-5.61,9.72-16.08,15.75-27.31,15.75-5.51,0-10.95-1.46-15.74-4.23l-29.63-17.1c-8,6.64-17.21,11.93-27.08,15.55v34.27c0,17.37-14.14,31.5-31.51,31.5Zm-57.68-98.01c1.87,0,3.72,.7,5.15,2.05,4.49,4.24,9.28,7.84,14.25,10.71,4.92,2.84,10.29,5.11,16.41,6.94,3.18,.95,5.36,3.87,5.36,7.19v39.63c0,9.1,7.41,16.5,16.51,16.5s16.51-7.4,16.51-16.5v-39.68c0-3.32,2.18-6.24,5.36-7.19,11.48-3.43,22.08-9.51,30.65-17.6,2.41-2.27,6.03-2.7,8.89-1.04l34.31,19.79c2.52,1.46,5.36,2.22,8.24,2.22,5.89,0,11.38-3.16,14.32-8.26,2.21-3.82,2.79-8.26,1.65-12.51-1.14-4.26-3.87-7.82-7.69-10.02h0l-34.26-19.77c-2.87-1.66-4.32-5-3.55-8.23,2.73-11.48,2.7-23.72-.07-35.38-.77-3.23,.67-6.58,3.55-8.23l34.34-19.81c3.82-2.2,6.55-5.76,7.69-10.02,1.14-4.25,.55-8.7-1.65-12.51-4.55-7.88-14.67-10.59-22.56-6.04l-34.3,19.79c-2.87,1.66-6.49,1.23-8.9-1.04-4.49-4.24-9.28-7.84-14.25-10.71-4.97-2.87-10.49-5.22-16.41-6.99-3.18-.95-5.36-3.87-5.36-7.19v-39.58c0-9.1-7.41-16.5-16.51-16.5s-16.51,7.4-16.51,16.5v39.62c0,3.32-2.18,6.24-5.36,7.19-11.5,3.43-22.11,9.53-30.7,17.63-2.41,2.27-6.03,2.7-8.9,1.04l-34.26-19.77c-3.83-2.21-8.28-2.8-12.53-1.66-4.26,1.14-7.82,3.87-10.02,7.69-2.21,3.82-2.79,8.26-1.65,12.51,1.14,4.26,3.87,7.82,7.69,10.02l34.26,19.77c2.87,1.66,4.32,5,3.55,8.23-2.73,11.48-2.7,23.72,.07,35.38,.77,3.23-.67,6.58-3.55,8.23l-34.34,19.81c-3.82,2.2-6.55,5.76-7.69,10.02-1.14,4.25-.55,8.7,1.65,12.51,2.94,5.1,8.43,8.26,14.32,8.26,2.87,0,5.72-.77,8.23-2.22l34.31-19.8c1.17-.67,2.46-1,3.75-1Zm57.59-10.01c-7.37,0-14.83-1.87-21.66-5.79h-.01c-10.05-5.81-17.25-15.19-20.26-26.43-3.01-11.24-1.48-22.96,4.33-33.01,7.75-13.41,22.22-21.74,37.75-21.74,7.58,0,15.08,2.01,21.69,5.81,10.06,5.81,17.26,15.19,20.27,26.43,3.01,11.24,1.48,22.96-4.33,33.01-8.05,13.93-22.71,21.72-37.78,21.72Zm-14.18-18.79c13.64,7.84,31.12,3.16,38.97-10.43,3.8-6.58,4.8-14.25,2.83-21.62-1.98-7.37-6.69-13.51-13.27-17.32-4.32-2.49-9.24-3.81-14.2-3.81-10.2,0-19.69,5.46-24.77,14.24-3.8,6.58-4.8,14.25-2.83,21.62,1.97,7.36,6.69,13.51,13.27,17.31Z"/></svg>