<?xml version="1.0" encoding="UTF-8"?><svg id="b" xmlns="http://www.w3.org/2000/svg" xmlns:xlink="http://www.w3.org/1999/xlink" viewBox="0 0 512 512"><defs><style></style><symbol id="a" viewBox="0 0 279 279"><path d="M141.71,279C63.57,279,0,216.23,0,139.08,0,67.58,54.24,7.81,126.16,.04c2.45-.26,4.88,.69,6.49,2.56,1.61,1.87,2.2,4.41,1.57,6.8-2.77,10.58-4.18,21.11-4.18,31.31,0,68.88,56.84,124.92,126.71,124.92,4.43,0,8.99-.26,13.94-.79,2.45-.26,4.88,.69,6.49,2.56,1.61,1.87,2.2,4.41,1.57,6.8-16.19,61.71-72.54,104.8-137.04,104.8ZM117.28,16.52C58.28,27.82,15,78.78,15,139.08c0,68.88,56.84,124.92,126.71,124.92,54.07,0,101.73-33.81,119.4-83.44-1.47,.05-2.92,.07-4.35,.07-78.14,0-141.71-62.77-141.71-139.92,0-7.94,.75-16.04,2.24-24.19Z"/></symbol></defs><path d="M282.83,162.84l24.92-6.43c.61-.16,1.26,.02,1.71,.46l18.37,18.03c1.3,1.28,3.46,.03,3-1.73l-6.43-24.92c-.16-.61,.02-1.26,.46-1.71l18.03-18.37c1.28-1.3,.03-3.46-1.73-3l-24.92,6.43c-.61,.16-1.26-.02-1.71-.46l-18.37-18.03c-1.3-1.28-3.46-.03-3,1.73l6.43,24.92c.16,.61-.02,1.26-.46,1.71l-18.03,18.37c-1.28,1.3-.03,3.46,1.73,3Z"/><path d="M285.4,193.44l12.02,12.25c.29,.3,.41,.73,.31,1.14l-4.28,16.62c-.3,1.18,1.13,2.01,2,1.16l12.25-12.02c.3-.29,.73-.41,1.14-.31l16.62,4.28c1.18,.3,2.01-1.14,1.16-2l-12.02-12.25c-.29-.3-.41-.73-.31-1.14l4.28-16.62c.3-1.18-1.13-2.01-2-1.16l-12.25,12.02c-.3,.29-.73,.41-1.14,.31l-16.62-4.28c-1.18-.3-2.01,1.14-1.16,2Z"/><path d="M337.32,223.73l24.8,6.9c.61,.17,1.08,.64,1.25,1.25l6.9,24.8c.49,1.76,2.98,1.76,3.47,0l6.9-24.8c.17-.61,.64-1.08,1.25-1.25l24.8-6.9c1.76-.49,1.76-2.98,0-3.47l-24.8-6.9c-.61-.17-1.08-.64-1.25-1.25l-6.9-24.8c-.49-1.76-2.98-1.76-3.47,0l-6.9,24.8c-.17,.61-.64,1.08-1.25,1.25l-24.8,6.9c-1.76,.49-1.76,2.98,0,3.47Z"/><use width="279" height="279" transform="translate(116.5 116.5)" xlink:href="#a"/></svg>