<?xml version="1.0" encoding="UTF-8"?><svg id="b" xmlns="http://www.w3.org/2000/svg" xmlns:xlink="http://www.w3.org/1999/xlink" viewBox="0 0 512 512"><defs><style>.d{fill:none;}.e{clip-path:url(#c);}</style><symbol id="a" viewBox="0 0 375 375"><g><path d="M187.5,279c-50.45,0-91.5-41.05-91.5-91.5s41.05-91.5,91.5-91.5,91.5,41.05,91.5,91.5-41.05,91.5-91.5,91.5Zm0-168c-42.18,0-76.5,34.32-76.5,76.5s34.32,76.5,76.5,76.5,76.5-34.32,76.5-76.5-34.32-76.5-76.5-76.5Z"/><path d="M187.5,375c-4.14,0-7.5-3.36-7.5-7.5v-49.66c0-4.14,3.36-7.5,7.5-7.5s7.5,3.36,7.5,7.5v49.66c0,4.14-3.36,7.5-7.5,7.5Zm-127.28-52.72c-1.92,0-3.84-.73-5.3-2.2-2.93-2.93-2.93-7.68,0-10.61l35.11-35.11c2.93-2.93,7.68-2.93,10.61,0s2.93,7.68,0,10.61l-35.11,35.11c-1.46,1.46-3.38,2.2-5.3,2.2Zm254.56,0c-1.92,0-3.84-.73-5.3-2.2l-35.11-35.11c-2.93-2.93-2.93-7.68,0-10.61,2.93-2.93,7.68-2.93,10.61,0l35.11,35.11c2.93,2.93,2.93,7.68,0,10.61-1.46,1.46-3.38,2.2-5.3,2.2ZM7.5,195c-4.14,0-7.5-3.36-7.5-7.5s3.36-7.5,7.5-7.5H57.16c4.14,0,7.5,3.36,7.5,7.5s-3.36,7.5-7.5,7.5H7.5Zm310.34,0c-4.14,0-7.5-3.36-7.5-7.5s3.36-7.5,7.5-7.5h49.66c4.14,0,7.5,3.36,7.5,7.5s-3.36,7.5-7.5,7.5h-49.66ZM95.33,102.83c-1.92,0-3.84-.73-5.3-2.2l-35.11-35.11c-2.93-2.93-2.93-7.68,0-10.61,2.93-2.93,7.68-2.93,10.61,0l35.11,35.11c2.93,2.93,2.93,7.68,0,10.61-1.46,1.46-3.38,2.2-5.3,2.2Zm184.34,0c-1.92,0-3.84-.73-5.3-2.2-2.93-2.93-2.93-7.68,0-10.61l35.11-35.11c2.93-2.93,7.68-2.93,10.61,0,2.93,2.93,2.93,7.68,0,10.61l-35.11,35.11c-1.46,1.46-3.38,2.2-5.3,2.2Zm-92.17-38.18c-4.14,0-7.5-3.36-7.5-7.5V7.5c0-4.14,3.36-7.5,7.5-7.5s7.5,3.36,7.5,7.5V57.16c0,4.14-3.36,7.5-7.5,7.5Z"/></g></symbol><clipPath id="c"><path d="M512,306h-208l-35.86-31.38c-6.95-6.08-17.32-6.08-24.27,0l-35.86,31.38H0V0H512V306Z" style="fill:none;"/></clipPath></defs><g style="clip-path:url(#c);"><use width="375" height="375" transform="translate(68.5 104.5)" xlink:href="#a"/></g><path d="M384,341h-88c-2.22,0-4.37-.82-6.02-2.31l-33.98-30.58-33.98,30.58c-1.65,1.49-3.8,2.31-6.02,2.31h-88c-4.97,0-9-4.03-9-9s4.03-9,9-9h84.55l37.43-33.69c3.42-3.08,8.62-3.08,12.04,0l37.43,33.69h84.55c4.97,0,9,4.03,9,9s-4.03,9-9,9Z"/></svg>