<?xml version="1.0" encoding="UTF-8"?><svg id="c" xmlns="http://www.w3.org/2000/svg" xmlns:xlink="http://www.w3.org/1999/xlink" viewBox="0 0 512 512"><defs><style>.e{fill:none;}.f{clip-path:url(#d);}</style><symbol id="a" viewBox="0 0 279 279"><path d="M141.71,279C63.57,279,0,216.23,0,139.08,0,67.58,54.24,7.81,126.16,.04c2.45-.26,4.88,.69,6.49,2.56,1.61,1.87,2.2,4.41,1.57,6.8-2.77,10.58-4.18,21.11-4.18,31.31,0,68.88,56.84,124.92,126.71,124.92,4.43,0,8.99-.26,13.94-.79,2.45-.26,4.88,.69,6.49,2.56,1.61,1.87,2.2,4.41,1.57,6.8-16.19,61.71-72.54,104.8-137.04,104.8ZM117.28,16.52C58.28,27.82,15,78.78,15,139.08c0,68.88,56.84,124.92,126.71,124.92,54.07,0,101.73-33.81,119.4-83.44-1.47,.05-2.92,.07-4.35,.07-78.14,0-141.71-62.77-141.71-139.92,0-7.94,.75-16.04,2.24-24.19Z"/></symbol><symbol id="b" viewBox="0 0 375 375"><g><path d="M187.5,279c-50.45,0-91.5-41.05-91.5-91.5s41.05-91.5,91.5-91.5,91.5,41.05,91.5,91.5-41.05,91.5-91.5,91.5Zm0-168c-42.18,0-76.5,34.32-76.5,76.5s34.32,76.5,76.5,76.5,76.5-34.32,76.5-76.5-34.32-76.5-76.5-76.5Z"/><path d="M187.5,375c-4.14,0-7.5-3.36-7.5-7.5v-49.66c0-4.14,3.36-7.5,7.5-7.5s7.5,3.36,7.5,7.5v49.66c0,4.14-3.36,7.5-7.5,7.5Zm-127.28-52.72c-1.92,0-3.84-.73-5.3-2.2-2.93-2.93-2.93-7.68,0-10.61l35.11-35.11c2.93-2.93,7.68-2.93,10.61,0s2.93,7.68,0,10.61l-35.11,35.11c-1.46,1.46-3.38,2.2-5.3,2.2Zm254.56,0c-1.92,0-3.84-.73-5.3-2.2l-35.11-35.11c-2.93-2.93-2.93-7.68,0-10.61,2.93-2.93,7.68-2.93,10.61,0l35.11,35.11c2.93,2.93,2.93,7.68,0,10.61-1.46,1.46-3.38,2.2-5.3,2.2ZM7.5,195c-4.14,0-7.5-3.36-7.5-7.5s3.36-7.5,7.5-7.5H57.16c4.14,0,7.5,3.36,7.5,7.5s-3.36,7.5-7.5,7.5H7.5Zm310.34,0c-4.14,0-7.5-3.36-7.5-7.5s3.36-7.5,7.5-7.5h49.66c4.14,0,7.5,3.36,7.5,7.5s-3.36,7.5-7.5,7.5h-49.66ZM95.33,102.83c-1.92,0-3.84-.73-5.3-2.2l-35.11-35.11c-2.93-2.93-2.93-7.68,0-10.61,2.93-2.93,7.68-2.93,10.61,0l35.11,35.11c2.93,2.93,2.93,7.68,0,10.61-1.46,1.46-3.38,2.2-5.3,2.2Zm184.34,0c-1.92,0-3.84-.73-5.3-2.2-2.93-2.93-2.93-7.68,0-10.61l35.11-35.11c2.93-2.93,7.68-2.93,10.61,0,2.93,2.93,2.93,7.68,0,10.61l-35.11,35.11c-1.46,1.46-3.38,2.2-5.3,2.2Zm-92.17-38.18c-4.14,0-7.5-3.36-7.5-7.5V7.5c0-4.14,3.36-7.5,7.5-7.5s7.5,3.36,7.5,7.5V57.16c0,4.14-3.36,7.5-7.5,7.5Z"/></g></symbol><clipPath id="d"><polygon points="238 139 244 66 468 66 468 292 388 292 333 286 251 216 238 139" style="fill:none;"/></clipPath></defs><g style="clip-path:url(#d);"><use width="375" height="375" transform="translate(74.5 76.5)" xlink:href="#b"/></g><use width="279" height="279" transform="translate(116.5 116.5)" xlink:href="#a"/></svg>