<?xml version="1.0" encoding="UTF-8"?><svg id="a" xmlns="http://www.w3.org/2000/svg" viewBox="0 0 512 512"><path d="M256,419.5c-6.95,0-12.88-4.5-14.74-11.2l-29.89-107.46c-.03-.1-.11-.18-.21-.21l-107.46-29.89c-6.7-1.86-11.2-7.79-11.2-14.74s4.5-12.88,11.2-14.74l107.46-29.89c.1-.03,.18-.11,.21-.21l29.89-107.46c1.86-6.7,7.79-11.2,14.74-11.2s12.88,4.5,14.74,11.2l29.89,107.46c.03,.1,.11,.18,.21,.21l107.46,29.89c6.7,1.86,11.2,7.79,11.2,14.74s-4.5,12.88-11.2,14.74l-107.46,29.89c-.1,.03-.18,.11-.21,.21l-29.89,107.46c-1.86,6.7-7.79,11.2-14.74,11.2ZM107.55,256.23s.07,.03,.17,.06h0l107.46,29.89c5.14,1.43,9.21,5.51,10.64,10.64l29.89,107.46c.03,.12,.07,.18,.08,.19,.08,.04,.35,.04,.45-.02-.01,0,.02-.05,.05-.17l29.89-107.46c1.43-5.14,5.51-9.21,10.64-10.64l107.46-29.89c.12-.03,.18-.07,.19-.08,.04-.08,.04-.35-.02-.45,0,.01-.05-.02-.17-.06l-107.46-29.89c-5.14-1.43-9.21-5.51-10.64-10.64l-29.89-107.46c-.03-.12-.07-.18-.08-.19-.08-.04-.35-.04-.45,.02,.01-.01-.02,.06-.06,.17l-29.89,107.46c-1.43,5.14-5.51,9.21-10.64,10.64l-107.46,29.89c-.12,.03-.18,.07-.19,.08-.04,.08-.04,.35,.02,.45h0Z"/></svg>