<?xml version="1.0" encoding="UTF-8"?><svg id="c" xmlns="http://www.w3.org/2000/svg" xmlns:xlink="http://www.w3.org/1999/xlink" viewBox="0 0 512 512"><defs><style></style><symbol id="a" viewBox="0 0 359 231"><path d="M295.5,231c-4.14,0-7.5-3.36-7.5-7.5s3.36-7.5,7.5-7.5c26.74,0,48.5-21.76,48.5-48.5s-21.76-48.5-48.5-48.5c-.37,0-.73,.03-1.09,.05-.37,.02-.73,.05-1.1,.07-2.36,.1-4.63-.91-6.13-2.74-1.5-1.83-2.05-4.26-1.48-6.55,1.53-6.22,2.31-12.39,2.31-18.33,0-42.18-34.32-76.5-76.5-76.5-26.63,0-50.94,13.59-65.03,36.36-2.15,3.48-6.7,4.59-10.22,2.5-7.53-4.49-16.09-6.86-24.76-6.86-26.74,0-48.5,21.76-48.5,48.5,0,2.4,.23,4.98,.7,7.87,.66,4.02-2.01,7.82-6.01,8.58-24.74,4.68-42.69,26.35-42.69,51.55,0,28.95,23.55,52.5,52.5,52.5,4.14,0,7.5,3.36,7.5,7.5s-3.36,7.5-7.5,7.5C30.28,231,0,200.72,0,163.5c0-30.04,19.85-56.19,48.1-64.63-.07-1.14-.1-2.26-.1-3.37,0-35.01,28.49-63.5,63.5-63.5,9,0,17.91,1.94,26.11,5.67C154.83,13.96,181.97,0,211.5,0c50.45,0,91.5,41.05,91.5,91.5,0,4.21-.32,8.51-.96,12.83,31.95,3.28,56.96,30.36,56.96,63.17,0,35.01-28.49,63.5-63.5,63.5Z"/></symbol><symbol id="b" viewBox="0 0 173 217"><g><path d="M88.5,217c-15.71,0-28.5-12.79-28.5-28.5s12.79-28.5,28.5-28.5,28.5,12.79,28.5,28.5-12.79,28.5-28.5,28.5Zm0-48c-10.75,0-19.5,8.75-19.5,19.5s8.75,19.5,19.5,19.5,19.5-8.75,19.5-19.5-8.75-19.5-19.5-19.5Z"/><path d="M40.5,165C18.17,165,0,146.83,0,124.5s18.17-40.5,40.5-40.5,40.5,18.17,40.5,40.5-18.17,40.5-40.5,40.5Zm0-72c-17.37,0-31.5,14.13-31.5,31.5s14.13,31.5,31.5,31.5,31.5-14.13,31.5-31.5-14.13-31.5-31.5-31.5Z"/><path d="M120.5,105c-28.95,0-52.5-23.55-52.5-52.5S91.55,0,120.5,0s52.5,23.55,52.5,52.5-23.55,52.5-52.5,52.5Zm0-96c-23.99,0-43.5,19.51-43.5,43.5s19.51,43.5,43.5,43.5,43.5-19.51,43.5-43.5S144.49,9,120.5,9Z"/></g></symbol></defs><use width="359" height="231" transform="translate(76.5 140.5)" xlink:href="#a"/><use width="173" height="217" transform="translate(169.5 229.5)" xlink:href="#b"/></svg>