<?xml version="1.0" encoding="UTF-8"?><svg id="a" xmlns="http://www.w3.org/2000/svg" xmlns:xlink="http://www.w3.org/1999/xlink" viewBox="0 0 512 512"><defs><style>.c{fill:none;}.d{clip-path:url(#b);}</style><clipPath id="b"><polygon points="118.96 428.7 390 428.7 390 305.33 336.88 305.33 325 312 311 303 313 289 325 282 390 282 390 81.59 118.96 81.59 118.96 282 187 282 200 290 200 305 187 312 171.81 303 118.96 303 118.96 428.7" style="fill:none;"/></clipPath></defs><path d="M325,315c-9.93,0-18-8.07-18-18s8.07-18,18-18,18,8.07,18,18-8.07,18-18,18Zm0-30c-6.62,0-12,5.38-12,12s5.38,12,12,12,12-5.38,12-12-5.38-12-12-12Z"/><path d="M187,315c-9.93,0-18-8.07-18-18s8.07-18,18-18,18,8.07,18,18-8.07,18-18,18Zm0-30c-6.62,0-12,5.38-12,12s5.38,12,12,12,12-5.38,12-12-5.38-12-12-12Z"/><g style="clip-path:url(#b);"><path d="M256,418.5c-48.8,0-88.5-39.7-88.5-88.5s39.7-88.5,88.5-88.5,88.5,39.7,88.5,88.5-39.7,88.5-88.5,88.5Zm0-168c-43.84,0-79.5,35.66-79.5,79.5s35.66,79.5,79.5,79.5,79.5-35.66,79.5-79.5-35.66-79.5-79.5-79.5Z"/><path d="M256,266.5c-35.57,0-64.5-28.93-64.5-64.5s28.93-64.5,64.5-64.5,64.5,28.93,64.5,64.5-28.93,64.5-64.5,64.5Zm0-120c-30.6,0-55.5,24.9-55.5,55.5s24.9,55.5,55.5,55.5,55.5-24.9,55.5-55.5-24.9-55.5-55.5-55.5Z"/><path d="M259,231c0,1.66-1.34,3-3,3s-3-1.34-3-3,1.34-3,3-3,3,1.34,3,3Zm-12-5c-1.66,0-3,1.34-3,3s1.34,3,3,3,3-1.34,3-3-1.34-3-3-3Zm-8-6c-1.66,0-3,1.34-3,3s1.34,3,3,3,3-1.34,3-3-1.34-3-3-3Zm26,6c-1.66,0-3,1.34-3,3s1.34,3,3,3,3-1.34,3-3-1.34-3-3-3Zm8-6c-1.66,0-3,1.34-3,3s1.34,3,3,3,3-1.34,3-3-1.34-3-3-3Z"/><path d="M280.01,186c0,4.42-3.58,8-8.01,8s-8.01-3.58-8.01-8,3.58-8,8.01-8,8.01,3.58,8.01,8Zm-40.01-8c-4.42,0-8.01,3.58-8.01,8s3.58,8,8.01,8,8.01-3.58,8.01-8-3.58-8-8.01-8Z"/><path d="M280,266h-65.15c-3.79,0-6.85-3.2-6.85-7.14v-9.72c0-4.11,3.33-7.37,7.27-7.12h81.46c3.94-.25,7.27,3.01,7.27,7.12v9.72c0,3.94-3.07,7.14-6.85,7.14h-17.15Z"/><path d="M297.01,144.35l-2.74-10.2c-.96-3.58-4.64-5.71-8.23-4.75l-24.15,6.46c-.15,.04-.31-.05-.35-.2l-9.25-34.46c-.58-2.14-2.78-3.42-4.92-2.84l-38.6,10.33c-2.15,.57-3.42,2.78-2.84,4.93l9.25,34.46c.04,.15-.05,.31-.2,.35l-24.14,6.46c-3.58,.96-5.71,4.64-4.75,8.23l2.73,10.19c.96,3.59,4.65,5.72,8.24,4.76l95.21-25.48c3.58-.96,5.71-4.64,4.75-8.22Zm-80.34,1.54l-1.03-3.86,42.5-11.37,1.03,3.86-42.5,11.37Z"/><ellipse cx="256" cy="205.16" rx="8" ry="7.99"/><path d="M264,324c0,4.42-3.58,8-8,8s-8-3.58-8-8,3.58-8,8-8,8,3.58,8,8Zm-8,16c-4.42,0-8,3.58-8,8s3.58,8,8,8,8-3.58,8-8-3.58-8-8-8Zm0-48c-4.42,0-8,3.58-8,8s3.58,8,8,8,8-3.58,8-8-3.58-8-8-8Z"/></g></svg>