<?xml version="1.0" encoding="UTF-8"?><svg id="b" xmlns="http://www.w3.org/2000/svg" xmlns:xlink="http://www.w3.org/1999/xlink" viewBox="0 0 512 512"><defs><style>.d{fill:none;}.e{clip-path:url(#c);}</style><symbol id="a" viewBox="0 0 291.56 290.62"><g><path d="M145.78,215.62c-38.89,0-70.53-31.54-70.53-70.31s31.64-70.31,70.53-70.31,70.53,31.54,70.53,70.31-31.64,70.31-70.53,70.31Zm0-128.62c-32.27,0-58.53,26.16-58.53,58.31s26.26,58.31,58.53,58.31,58.53-26.16,58.53-58.31-26.26-58.31-58.53-58.31Z"/><path d="M145.78,290.62c-4.14,0-7.5-3.36-7.5-7.5v-38.02c0-4.14,3.36-7.5,7.5-7.5s7.5,3.36,7.5,7.5v38.02c0,4.14-3.36,7.5-7.5,7.5Zm-97.78-40.36c-1.92,0-3.85-.74-5.31-2.21-2.92-2.93-2.92-7.68,.02-10.61l26.97-26.88c2.93-2.92,7.68-2.92,10.61,.02,2.92,2.93,2.92,7.68-.02,10.61l-26.97,26.88c-1.46,1.46-3.38,2.19-5.29,2.19Zm195.56,0c-1.92,0-3.83-.73-5.29-2.19l-26.97-26.88c-2.93-2.92-2.94-7.67-.02-10.61,2.92-2.93,7.67-2.94,10.61-.02l26.97,26.88c2.93,2.92,2.94,7.67,.02,10.61-1.47,1.47-3.39,2.21-5.31,2.21Zm40.5-97.45h-38.15c-4.14,0-7.5-3.36-7.5-7.5s3.36-7.5,7.5-7.5h38.15c4.14,0,7.5,3.36,7.5,7.5s-3.36,7.5-7.5,7.5Zm-238.42,0H7.5c-4.14,0-7.5-3.36-7.5-7.5s3.36-7.5,7.5-7.5H45.65c4.14,0,7.5,3.36,7.5,7.5s-3.36,7.5-7.5,7.5ZM216.59,82.25c-1.92,0-3.85-.74-5.31-2.21-2.92-2.93-2.92-7.68,.02-10.61l26.97-26.88c2.93-2.92,7.68-2.92,10.61,.02s2.92,7.68-.02,10.61l-26.97,26.88c-1.46,1.46-3.38,2.19-5.29,2.19Zm-141.61,0c-1.92,0-3.83-.73-5.29-2.19l-26.97-26.88c-2.93-2.92-2.94-7.67-.02-10.61s7.67-2.94,10.61-.02l26.97,26.88c2.93,2.92,2.94,7.67,.02,10.61-1.47,1.47-3.39,2.21-5.31,2.21Zm70.81-29.23c-4.14,0-7.5-3.36-7.5-7.5V7.5c0-4.14,3.36-7.5,7.5-7.5s7.5,3.36,7.5,7.5V45.52c0,4.14-3.36,7.5-7.5,7.5Z"/></g></symbol><clipPath id="c"><rect y="12" width="512" height="282" style="fill:none;"/></clipPath></defs><g style="clip-path:url(#c);"><use width="291.56" height="290.62" transform="translate(110.28 168.62)" xlink:href="#a"/></g><path d="M384,329H128c-4.97,0-9-4.03-9-9s4.03-9,9-9H384c4.97,0,9,4.03,9,9s-4.03,9-9,9Z"/><path d="M185.26,438.38h-13.46v-32.04h-12.67v-9h2.16c3.7,0,6.62-.79,8.78-2.38,2.02-1.49,3.34-3.91,3.96-7.27l.14-.57h11.09v51.26Z"/><path d="M233.5,435.29c-3.94,2.93-9.29,4.39-16.05,4.39s-12.05-1.46-15.98-4.39c-3.94-2.93-5.9-6.94-5.9-12.02,0-3.17,.88-5.82,2.63-7.96,1.75-2.14,4.21-3.59,7.38-4.36v-.22c-2.35-.81-4.21-2.2-5.58-4.14-1.37-1.95-2.05-4.19-2.05-6.73,0-4.37,1.71-7.79,5.15-10.26,3.43-2.47,8.22-3.71,14.36-3.71s11.02,1.24,14.47,3.71c3.46,2.47,5.18,5.89,5.18,10.26,0,2.59-.68,4.86-2.05,6.8s-3.23,3.3-5.58,4.07v.22c3.17,.82,5.62,2.28,7.34,4.39,1.73,2.11,2.59,4.75,2.59,7.92,0,5.09-1.97,9.09-5.91,12.02Zm-15.98-5.26c2.83,0,5.07-.64,6.7-1.91,1.63-1.27,2.45-3.04,2.45-5.29s-.8-4.02-2.41-5.29c-1.61-1.27-3.85-1.91-6.73-1.91s-5.21,.64-6.84,1.91c-1.63,1.27-2.45,3.04-2.45,5.29s.83,4.02,2.48,5.29c1.66,1.27,3.92,1.91,6.8,1.91Zm0-22.68c2.5,0,4.45-.55,5.87-1.66,1.42-1.1,2.12-2.64,2.12-4.61s-.7-3.39-2.09-4.43c-1.39-1.03-3.36-1.55-5.91-1.55-5.38,0-8.06,1.99-8.06,5.97,0,1.97,.71,3.51,2.12,4.61,1.41,1.11,3.39,1.66,5.94,1.66Z"/><path d="M266.26,423.34h-20.52v-9.94h20.52v9.94Z"/><path d="M314.86,438.38h-40.61c0-4.56,.98-8.38,2.96-11.45,1.96-2.98,5.57-6.27,10.8-9.87l7.92-5.61c2.02-1.39,3.44-2.71,4.29-3.96,.84-1.25,1.26-2.66,1.26-4.25,0-2.06-.62-3.68-1.87-4.86-1.25-1.18-2.95-1.76-5.11-1.76-4.89,0-7.34,2.86-7.34,8.57v1.08h-12.17v-1.59c0-5.9,1.73-10.51,5.18-13.82,3.46-3.31,8.35-4.97,14.69-4.97s10.85,1.46,14.4,4.39c3.6,2.98,5.4,7.03,5.4,12.17,0,3.31-.85,6.29-2.55,8.93-1.7,2.64-4.43,5.16-8.17,7.56l-8.86,5.61c-1.68,1.11-2.59,2.04-2.74,2.81h22.54v11.02Z"/><path d="M348.41,438.38h-13.46v-32.04h-12.67v-9h2.16c3.7,0,6.62-.79,8.78-2.38,2.02-1.49,3.34-3.91,3.96-7.27l.14-.57h11.09v51.26Z"/></svg>