<?xml version="1.0" encoding="UTF-8"?><svg id="b" xmlns="http://www.w3.org/2000/svg" xmlns:xlink="http://www.w3.org/1999/xlink" viewBox="0 0 512 512"><defs><style></style><symbol id="a" viewBox="0 0 203 203"><path d="M103.08,203C46.24,203,0,157.33,0,101.2,0,49.18,39.45,5.69,91.77,.04c2.45-.27,4.88,.69,6.49,2.56,1.61,1.87,2.2,4.41,1.57,6.8-1.93,7.35-2.91,14.67-2.91,21.75,0,47.86,39.51,86.8,88.08,86.8,3.08,0,6.25-.18,9.7-.55,2.46-.27,4.88,.69,6.49,2.56,1.61,1.87,2.2,4.41,1.57,6.8-11.78,44.89-52.76,76.24-99.68,76.24ZM83.03,16.69C43.59,25.67,15,60.35,15,101.2c0,47.86,39.51,86.8,88.08,86.8,36.51,0,68.81-22.17,81.88-55.05-56.82-.02-103.04-45.68-103.04-101.8,0-4.76,.37-9.6,1.11-14.46Z"/></symbol></defs><path d="M233.79,432.27c-4.03,4.85-9.46,7.27-16.27,7.27s-12.24-2.42-16.27-7.27c-4.03-4.85-6.05-11.4-6.05-19.66s2.02-14.64,6.05-19.44c3.93-4.8,9.36-7.2,16.27-7.2s12.24,2.4,16.27,7.2c3.98,4.85,5.98,11.33,5.98,19.44s-1.99,14.81-5.98,19.66Zm-16.27-3.17c6.24,0,9.36-5.45,9.36-16.35s-3.12-16.34-9.36-16.34-9.43,5.45-9.43,16.34,3.14,16.35,9.43,16.35Z"/><path d="M266.26,423.34h-20.52v-9.94h20.52v9.94Z"/><path d="M304.71,410.73c3.46,.62,6.14,2.05,8.06,4.29s2.88,5,2.88,8.32c0,4.75-1.8,8.69-5.4,11.81-3.65,3.07-8.71,4.61-15.19,4.61s-11.99-1.68-15.66-5.04-5.63-7.99-5.87-13.89h12.31c.29,5.86,3.19,8.79,8.71,8.79,2.45,0,4.38-.6,5.79-1.8s2.12-2.83,2.12-4.9-.74-3.72-2.23-4.82c-1.49-1.1-3.6-1.66-6.34-1.66h-3.6v-8.93h3.82c2.26,0,4-.5,5.22-1.51,1.22-1.01,1.84-2.45,1.84-4.32s-.61-3.32-1.84-4.36c-1.22-1.03-2.96-1.55-5.22-1.55s-3.89,.55-5.04,1.65c-1.15,1.11-1.82,2.91-2.02,5.4h-11.95c.48-11.28,6.96-16.92,19.44-16.92,5.9,0,10.51,1.3,13.82,3.89,3.31,2.59,4.97,5.9,4.97,9.93,0,2.69-.76,5.02-2.27,6.98s-3.63,3.31-6.37,4.03Z"/><path d="M282.83,162.84l24.92-6.43c.61-.16,1.26,.02,1.71,.46l18.37,18.03c1.3,1.28,3.46,.03,3-1.73l-6.43-24.92c-.16-.61,.02-1.26,.46-1.71l18.03-18.37c1.28-1.3,.03-3.46-1.73-3l-24.92,6.43c-.61,.16-1.26-.02-1.71-.46l-18.37-18.03c-1.3-1.28-3.46-.03-3,1.73l6.43,24.92c.16,.61-.02,1.26-.46,1.71l-18.03,18.37c-1.28,1.3-.03,3.46,1.73,3Z"/><path d="M285.4,193.44l12.02,12.25c.29,.3,.41,.73,.31,1.14l-4.28,16.62c-.3,1.18,1.13,2.01,2,1.16l12.25-12.02c.3-.29,.73-.41,1.14-.31l16.62,4.28c1.18,.3,2.01-1.14,1.16-2l-12.02-12.25c-.29-.3-.41-.73-.31-1.14l4.28-16.62c.3-1.18-1.13-2.01-2-1.16l-12.25,12.02c-.3,.29-.73,.41-1.14,.31l-16.62-4.28c-1.18-.3-2.01,1.14-1.16,2Z"/><path d="M337.32,223.73l24.8,6.9c.61,.17,1.08,.64,1.25,1.25l6.9,24.8c.49,1.76,2.98,1.76,3.47,0l6.9-24.8c.17-.61,.64-1.08,1.25-1.25l24.8-6.9c1.76-.49,1.76-2.98,0-3.47l-24.8-6.9c-.61-.17-1.08-.64-1.25-1.25l-6.9-24.8c-.49-1.76-2.98-1.76-3.47,0l-6.9,24.8c-.17,.61-.64,1.08-1.25,1.25l-24.8,6.9c-1.76,.49-1.76,2.98,0,3.47Z"/><use width="203" height="203" transform="translate(154.5 134.5)" xlink:href="#a"/></svg>