<?xml version="1.0" encoding="UTF-8"?><svg id="a" xmlns="http://www.w3.org/2000/svg" viewBox="0 0 512 512"><path d="M376,169H136c-4.97,0-9-4.03-9-9s4.03-9,9-9h240c4.97,0,9,4.03,9,9s-4.03,9-9,9Z"/><path d="M360,217H152c-4.97,0-9-4.03-9-9s4.03-9,9-9h208c4.97,0,9,4.03,9,9s-4.03,9-9,9Z"/><path d="M340,265H172c-4.97,0-9-4.03-9-9s4.03-9,9-9h168c4.97,0,9,4.03,9,9s-4.03,9-9,9Z"/><path d="M320,313H192c-4.97,0-9-4.03-9-9s4.03-9,9-9h128c4.97,0,9,4.03,9,9s-4.03,9-9,9Z"/><path d="M288,361h-64c-4.97,0-9-4.03-9-9s4.03-9,9-9h64c4.97,0,9,4.03,9,9s-4.03,9-9,9Z"/></svg>