<?xml version="1.0" encoding="UTF-8"?><svg id="b" xmlns="http://www.w3.org/2000/svg" xmlns:xlink="http://www.w3.org/1999/xlink" viewBox="0 0 512 512"><defs><style>.d{fill:none;}.e{clip-path:url(#c);}</style><symbol id="a" viewBox="0 0 252 100"><path d="M230.04,100H21.96c-12.11,0-21.96-10.01-21.96-22.3V28.63c0-3.31,2.69-6,6-6H14c7.61,0,16.05-9.43,20.66-18.19C36.11,1.7,38.92,0,42,0c3.08,0,5.89,1.7,7.34,4.45,4.62,8.76,13.05,18.19,20.66,18.19s16.05-9.43,20.66-18.19C92.11,1.7,94.92,0,98,0c3.08,0,5.89,1.7,7.34,4.45,4.62,8.76,13.05,18.19,20.66,18.19s16.05-9.43,20.66-18.19C148.11,1.7,150.92,0,154,0c3.08,0,5.89,1.7,7.34,4.45,4.62,8.76,13.05,18.19,20.66,18.19s16.05-9.43,20.66-18.19C204.11,1.7,206.92,0,210,0c3.08,0,5.89,1.7,7.34,4.45,4.62,8.76,13.05,18.19,20.66,18.19h8c3.31,0,6,2.69,6,6v49.06c0,12.3-9.85,22.3-21.96,22.3ZM12,34.63v43.06c0,5.68,4.47,10.3,9.96,10.3H230.04c5.49,0,9.96-4.62,9.96-10.3V34.63h-2c-11.41,0-21.4-9.07-28-19.05-6.6,9.98-16.59,19.05-28,19.05s-21.4-9.07-28-19.05c-6.6,9.98-16.59,19.05-28,19.05s-21.4-9.07-28-19.05c-6.6,9.98-16.59,19.05-28,19.05s-21.4-9.07-28-19.05c-6.6,9.98-16.59,19.05-28,19.05h-2Z"/></symbol><clipPath id="c"><path d="M372,357c-22.09,0-40-18.15-40-40.54,0-13.77,6.79-25.91,17.14-33.24v-97.06c0-12.79,10.23-23.16,22.86-23.16H119.24v194h252.76Zm2.86-136.94h20m-20-22.82h20m-20,45.65h20" style="fill:none;"/></clipPath></defs><g style="clip-path:url(#c);"><use width="252" height="100" transform="translate(130 238)" xlink:href="#a"/></g><g><g><ellipse cx="372" cy="317.06" rx="25.71" ry="25.68"/><path d="M372,325.62c-4.73,0-8.57-3.83-8.57-8.56v-85.59c0-4.73,3.83-8.56,8.57-8.56s8.57,3.83,8.57,8.56v85.59c0,4.73-3.83,8.56-8.57,8.56Z"/></g><path d="M372,361.5c-24.54,0-44.5-20.2-44.5-45.04,0-13.88,6.37-26.97,17.14-35.49v-94.81c0-15.25,12.27-27.66,27.36-27.66s27.36,12.41,27.36,27.66v94.81c10.78,8.52,17.14,21.61,17.14,35.49,0,24.83-19.96,45.04-44.5,45.04Zm0-194c-10.12,0-18.36,8.37-18.36,18.66v97.06c0,1.46-.71,2.83-1.9,3.67-9.54,6.75-15.24,17.81-15.24,29.57,0,19.87,15.93,36.04,35.5,36.04s35.5-16.17,35.5-36.04c0-11.76-5.7-22.81-15.24-29.57-1.19-.84-1.9-2.21-1.9-3.67v-35.84h-15.5c-2.49,0-4.5-2.01-4.5-4.5s2.01-4.5,4.5-4.5h15.5v-13.82h-15.5c-2.49,0-4.5-2.01-4.5-4.5s2.01-4.5,4.5-4.5h15.5v-13.82h-15.5c-2.49,0-4.5-2.01-4.5-4.5s2.01-4.5,4.5-4.5h15.5v-6.57c0-10.29-8.24-18.66-18.36-18.66Z"/></g></svg>