<?xml version="1.0" encoding="UTF-8"?><svg id="e" xmlns="http://www.w3.org/2000/svg" xmlns:xlink="http://www.w3.org/1999/xlink" viewBox="0 0 512 512"><defs><style>.g{fill:none;}.h{clip-path:url(#f);}</style><symbol id="a" viewBox="0 0 183 183"><path d="M92.91,183C41.68,183,0,141.83,0,91.23,0,44.34,35.56,5.13,82.72,.04c2.45-.27,4.88,.69,6.49,2.56,1.61,1.87,2.2,4.41,1.57,6.8-1.71,6.51-2.57,12.98-2.57,19.23,0,42.33,34.95,76.77,77.91,76.77,2.72,0,5.53-.16,8.58-.49,2.45-.26,4.88,.69,6.49,2.56,1.61,1.87,2.2,4.41,1.57,6.8-10.61,40.47-47.56,68.73-89.85,68.73ZM74.04,16.75C39.74,25.1,15,55.5,15,91.23c0,42.33,34.95,76.77,77.91,76.77,31.89,0,60.15-19.12,71.99-47.61-50.67-.65-91.69-41.56-91.69-91.76,0-3.91,.28-7.88,.83-11.88Z"/></symbol><symbol id="b" viewBox="0 0 121 281"><g><use width="72" height="168" transform="translate(24.5 88.5)" xlink:href="#d"/><use width="121" height="281" xlink:href="#c"/></g></symbol><symbol id="c" viewBox="0 0 121 281"><path d="M60.5,281c-33.36,0-60.5-27.52-60.5-61.34,0-19.2,8.93-37.29,24-48.88V36.98C24,16.59,40.37,0,60.5,0s36.5,16.59,36.5,36.98V170.79c15.07,11.58,24,29.68,24,48.88,0,33.82-27.14,61.34-60.5,61.34Zm0-272c-15.16,0-27.5,12.55-27.5,27.98V173.06c0,1.46-.71,2.83-1.9,3.67-13.84,9.81-22.1,25.86-22.1,42.93,0,28.86,23.1,52.34,51.5,52.34s51.5-23.48,51.5-52.34c0-17.08-8.26-33.13-22.1-42.93-1.19-.84-1.9-2.21-1.9-3.67v-52.06h-23.5c-2.49,0-4.5-2.01-4.5-4.5s2.01-4.5,4.5-4.5h23.5v-23h-23.5c-2.49,0-4.5-2.01-4.5-4.5s2.01-4.5,4.5-4.5h23.5v-23h-23.5c-2.49,0-4.5-2.01-4.5-4.5s2.01-4.5,4.5-4.5h23.5v-11.02c0-15.43-12.34-27.98-27.5-27.98Z"/></symbol><symbol id="d" viewBox="0 0 72 168"><g><circle cx="36" cy="132" r="36"/><path d="M36,144c-6.63,0-12-5.37-12-12V12c0-6.63,5.37-12,12-12s12,5.37,12,12v120c0,6.63-5.37,12-12,12Z"/></g></symbol><clipPath id="f"><path d="M256,392c30.93,0,56-25.45,56-56.84,0-19.3-9.5-36.33-24-46.61V152.48c0-17.94-14.33-32.48-32-32.48v-40.26h167.17V392h-167.17Zm4-192h28m-28-32h28m-28,64h28" style="fill:none;"/></clipPath></defs><g style="clip-path:url(#f);"><use width="183" height="183" transform="translate(222.5 114.5)" xlink:href="#a"/></g><use width="121" height="281" transform="translate(195.5 115.5)" xlink:href="#b"/></svg>