<?xml version="1.0" encoding="UTF-8"?><svg id="d" xmlns="http://www.w3.org/2000/svg" xmlns:xlink="http://www.w3.org/1999/xlink" viewBox="0 0 512 512"><defs><style>.f{fill:none;}.g{clip-path:url(#e);}</style><symbol id="a" viewBox="0 0 121 281"><g><use width="72" height="168" transform="translate(24.5 88.5)" xlink:href="#c"/><use width="121" height="281" xlink:href="#b"/></g></symbol><symbol id="b" viewBox="0 0 121 281"><path d="M60.5,281c-33.36,0-60.5-27.52-60.5-61.34,0-19.2,8.93-37.29,24-48.88V36.98C24,16.59,40.37,0,60.5,0s36.5,16.59,36.5,36.98V170.79c15.07,11.58,24,29.68,24,48.88,0,33.82-27.14,61.34-60.5,61.34Zm0-272c-15.16,0-27.5,12.55-27.5,27.98V173.06c0,1.46-.71,2.83-1.9,3.67-13.84,9.81-22.1,25.86-22.1,42.93,0,28.86,23.1,52.34,51.5,52.34s51.5-23.48,51.5-52.34c0-17.08-8.26-33.13-22.1-42.93-1.19-.84-1.9-2.21-1.9-3.67v-52.06h-23.5c-2.49,0-4.5-2.01-4.5-4.5s2.01-4.5,4.5-4.5h23.5v-23h-23.5c-2.49,0-4.5-2.01-4.5-4.5s2.01-4.5,4.5-4.5h23.5v-23h-23.5c-2.49,0-4.5-2.01-4.5-4.5s2.01-4.5,4.5-4.5h23.5v-11.02c0-15.43-12.34-27.98-27.5-27.98Z"/></symbol><symbol id="c" viewBox="0 0 72 168"><g><circle cx="36" cy="132" r="36"/><path d="M36,144c-6.63,0-12-5.37-12-12V12c0-6.63,5.37-12,12-12s12,5.37,12,12v120c0,6.63-5.37,12-12,12Z"/></g></symbol><clipPath id="e"><path d="M256,392c30.93,0,56-25.45,56-56.84,0-19.3-9.5-36.33-24-46.61V152.48c0-17.94-14.33-32.48-32-32.48v-40.26h167.17V392h-167.17Zm4-192h28m-28-32h28m-28,64h28" style="fill:none;"/></clipPath></defs><g style="clip-path:url(#e);"><path d="M314,312.5c-13.24,0-24.01-10.77-24.01-24v-21.88c-3.06-1.18-5.91-2.54-8.63-4.11-2.71-1.56-5.35-3.37-7.89-5.41l-18.95,10.94c-3.64,2.11-7.79,3.22-11.99,3.22-8.56,0-16.53-4.6-20.81-12.01-3.21-5.54-4.06-12.01-2.4-18.2,1.66-6.2,5.63-11.38,11.19-14.58l18.99-10.95c-.94-6.33-.95-12.77-.04-19.05l-18.94-10.93c-5.56-3.21-9.53-8.38-11.19-14.58-1.66-6.19-.8-12.66,2.41-18.21,3.2-5.55,8.38-9.52,14.57-11.18,6.2-1.66,12.67-.81,18.22,2.41l18.94,10.93c4.99-3.93,10.58-7.14,16.53-9.49v-21.91c0-13.23,10.77-24,24.01-24s24.01,10.77,24.01,24v21.86c3.03,1.18,5.92,2.57,8.63,4.13,2.71,1.56,5.35,3.37,7.89,5.41l18.95-10.94c11.47-6.62,26.18-2.68,32.79,8.78,3.21,5.54,4.06,12.01,2.4,18.2-1.66,6.2-5.63,11.38-11.19,14.58l-18.99,10.95c.94,6.33,.95,12.77,.04,19.05l18.94,10.93c5.56,3.21,9.53,8.38,11.19,14.58,1.66,6.19,.8,12.66-2.41,18.21-4.27,7.4-12.25,12-20.8,12-4.2,0-8.34-1.12-11.99-3.23l-18.97-10.95c-4.98,3.92-10.56,7.12-16.5,9.47v21.95c0,13.23-10.77,24-24.01,24Zm-39.65-72.07c1.87,0,3.72,.7,5.15,2.05,2.95,2.79,6.1,5.16,9.36,7.04,3.22,1.86,6.75,3.35,10.78,4.55,3.18,.95,5.36,3.87,5.36,7.19v27.25c0,4.96,4.04,9,9.01,9s9.01-4.04,9.01-9v-27.28c0-3.32,2.18-6.24,5.35-7.19,7.55-2.25,14.51-6.25,20.14-11.56,2.41-2.27,6.03-2.7,8.89-1.04l23.58,13.61c1.38,.8,2.93,1.21,4.49,1.21,3.22,0,6.21-1.73,7.82-4.51,1.21-2.08,1.52-4.5,.9-6.82-.62-2.32-2.11-4.27-4.2-5.47h0l-23.55-13.59c-2.87-1.66-4.32-5-3.55-8.23,1.79-7.54,1.78-15.57-.05-23.24-.77-3.23,.67-6.58,3.55-8.23l23.61-13.62c2.08-1.2,3.58-3.14,4.2-5.47,.62-2.32,.3-4.74-.9-6.82-2.49-4.3-8-5.78-12.31-3.3l-23.58,13.61c-2.87,1.66-6.49,1.23-8.9-1.04-2.95-2.79-6.1-5.16-9.36-7.04-3.26-1.88-6.88-3.42-10.78-4.59-3.18-.95-5.36-3.87-5.36-7.19v-27.21c0-4.96-4.04-9-9.01-9s-9.01,4.04-9.01,9v27.24c0,3.32-2.18,6.24-5.36,7.19-7.55,2.25-14.53,6.26-20.17,11.58-2.41,2.28-6.03,2.7-8.9,1.04l-23.55-13.59c-2.09-1.21-4.52-1.53-6.84-.91-2.32,.62-4.26,2.11-5.47,4.2-1.21,2.08-1.53,4.51-.9,6.82,.62,2.32,2.11,4.27,4.2,5.47l23.55,13.59c2.87,1.66,4.32,5,3.55,8.23-1.79,7.54-1.78,15.57,.05,23.24,.77,3.23-.67,6.58-3.55,8.23l-23.61,13.62c-2.08,1.2-3.58,3.14-4.2,5.47-.62,2.32-.3,4.74,.9,6.82,1.61,2.78,4.6,4.51,7.82,4.51,1.56,0,3.11-.42,4.48-1.21l23.59-13.61c1.17-.67,2.46-1,3.75-1Zm39.59-2.2c-5.46,0-10.99-1.38-16.06-4.29h-.01c-7.45-4.31-12.79-11.27-15.02-19.59-2.23-8.33-1.09-17.02,3.21-24.47,5.75-9.94,16.47-16.12,27.99-16.12,5.62,0,11.18,1.49,16.08,4.31,7.46,4.31,12.79,11.26,15.03,19.59,2.23,8.33,1.09,17.02-3.21,24.47-5.96,10.32-16.84,16.11-28,16.11Zm-8.57-17.29c8.26,4.74,18.83,1.91,23.59-6.32,2.3-3.98,2.91-8.62,1.71-13.08-1.2-4.46-4.05-8.18-8.03-10.48-2.62-1.51-5.59-2.3-8.59-2.3-6.18,0-11.92,3.3-15,8.62-2.3,3.98-2.91,8.62-1.71,13.08,1.2,4.46,4.05,8.18,8.03,10.48h0Z"/></g><use width="121" height="281" transform="translate(195.5 115.5)" xlink:href="#a"/></svg>