<?xml version="1.0" encoding="UTF-8"?><svg id="b" xmlns="http://www.w3.org/2000/svg" xmlns:xlink="http://www.w3.org/1999/xlink" viewBox="0 0 512 512"><defs><style></style><symbol id="a" viewBox="0 0 252 100"><path d="M230.04,100H21.96c-12.11,0-21.96-10.01-21.96-22.3V28.63c0-3.31,2.69-6,6-6H14c7.61,0,16.05-9.43,20.66-18.19C36.11,1.7,38.92,0,42,0c3.08,0,5.89,1.7,7.34,4.45,4.62,8.76,13.05,18.19,20.66,18.19s16.05-9.43,20.66-18.19C92.11,1.7,94.92,0,98,0c3.08,0,5.89,1.7,7.34,4.45,4.62,8.76,13.05,18.19,20.66,18.19s16.05-9.43,20.66-18.19C148.11,1.7,150.92,0,154,0c3.08,0,5.89,1.7,7.34,4.45,4.62,8.76,13.05,18.19,20.66,18.19s16.05-9.43,20.66-18.19C204.11,1.7,206.92,0,210,0c3.08,0,5.89,1.7,7.34,4.45,4.62,8.76,13.05,18.19,20.66,18.19h8c3.31,0,6,2.69,6,6v49.06c0,12.3-9.85,22.3-21.96,22.3ZM12,34.63v43.06c0,5.68,4.47,10.3,9.96,10.3H230.04c5.49,0,9.96-4.62,9.96-10.3V34.63h-2c-11.41,0-21.4-9.07-28-19.05-6.6,9.98-16.59,19.05-28,19.05s-21.4-9.07-28-19.05c-6.6,9.98-16.59,19.05-28,19.05s-21.4-9.07-28-19.05c-6.6,9.98-16.59,19.05-28,19.05s-21.4-9.07-28-19.05c-6.6,9.98-16.59,19.05-28,19.05h-2Z"/></symbol></defs><use width="252" height="100" transform="translate(130 238)" xlink:href="#a"/><path d="M256,224c-3.31,0-6-2.69-6-6v-55.97l-13.47,15.48c-2.18,2.5-5.97,2.76-8.47,.59-1.36-1.19-2.06-2.85-2.06-4.52,0-1.4,.48-2.8,1.47-3.94l24-27.58h0v-.02h.02v-.02h0c.71-.81,1.61-1.39,2.59-1.72h0c.31-.11,.63-.18,.96-.24h.02c.96-.15,1.97-.07,2.93,.27h.02s.06,.03,.09,.04h.03c.95,.37,1.76,.96,2.4,1.69l23.98,27.56c2.18,2.5,1.91,6.29-.59,8.46-2.5,2.18-6.29,1.91-8.47-.59l-13.47-15.48v55.97c0,3.31-2.69,6-6,6Z"/></svg>