<?xml version="1.0" encoding="UTF-8"?><svg id="c" xmlns="http://www.w3.org/2000/svg" xmlns:xlink="http://www.w3.org/1999/xlink" viewBox="0 0 512 512"><defs><style>.e{fill:none;}.f{clip-path:url(#d);}</style><symbol id="a" viewBox="0 0 197.48 128.47"><path d="M161.29,128.47H34.51v-.19C15.16,126.34,0,109.96,0,90.11c0-16.55,10.61-31.02,25.88-36.26,0-.14,0-.27,0-.41,0-19.96,16.24-36.2,36.2-36.2,4.61,0,9.17,.89,13.44,2.61C85.2,7.33,99.97,0,116,0c28.28,0,51.29,23.01,51.29,51.29,0,1.73-.1,3.47-.29,5.23,17.25,2.75,30.48,17.73,30.48,35.74,0,19.96-16.24,36.19-36.2,36.19Zm-114.78-12h114.78c13.34,0,24.2-10.85,24.2-24.19s-10.85-24.2-24.2-24.2c-.16,0-.31,.01-.46,.03-.21,.01-.42,.03-.63,.04l-8.02,.36,1.92-7.79c.79-3.2,1.19-6.37,1.19-9.42,0-21.67-17.63-39.29-39.29-39.29-13.68,0-26.16,6.98-33.4,18.68l-3.1,5.02-5.07-3.02c-3.75-2.24-8.02-3.42-12.35-3.42-13.34,0-24.2,10.85-24.2,24.2,0,1.19,.12,2.47,.35,3.93l.94,5.78-5.75,1.09c-12.42,2.35-21.43,13.23-21.43,25.87,0,14.53,11.82,26.35,26.35,26.35,.45,0,.89-.04,1.34-.07l6.82-.45v.52Z"/></symbol><symbol id="b" viewBox="0 0 203 203"><path d="M103.08,203C46.24,203,0,157.33,0,101.2,0,49.18,39.45,5.69,91.77,.04c2.45-.27,4.88,.69,6.49,2.56,1.61,1.87,2.2,4.41,1.57,6.8-1.93,7.35-2.91,14.67-2.91,21.75,0,47.86,39.51,86.8,88.08,86.8,3.08,0,6.25-.18,9.7-.55,2.46-.27,4.88,.69,6.49,2.56,1.61,1.87,2.2,4.41,1.57,6.8-11.78,44.89-52.76,76.24-99.68,76.24ZM83.03,16.69C43.59,25.67,15,60.35,15,101.2c0,47.86,39.51,86.8,88.08,86.8,36.51,0,68.81-22.17,81.88-55.05-56.82-.02-103.04-45.68-103.04-101.8,0-4.76,.37-9.6,1.11-14.46Z"/></symbol><clipPath id="d"><path d="M326.62,238.92c-16.33,0-30.6,8.59-38.61,21.44-4.53-2.68-9.8-4.25-15.46-4.25-16.72,0-30.28,13.47-30.28,30.08,0,1.67,.17,3.29,.43,4.88-15.02,2.82-26.39,15.9-26.39,31.65l2.67,11.29H0V0H326.62V238.92Z" style="fill:none;"/></clipPath></defs><g style="clip-path:url(#d);"><use width="203" height="203" transform="translate(154.5 134.5)" xlink:href="#b"/></g><path d="M220.22,438.38h-40.61c0-4.56,.98-8.38,2.95-11.45,1.97-2.98,5.57-6.27,10.8-9.87l7.92-5.61c2.02-1.39,3.44-2.71,4.28-3.96,.84-1.25,1.26-2.66,1.26-4.25,0-2.06-.62-3.68-1.87-4.86-1.25-1.18-2.95-1.76-5.11-1.76-4.89,0-7.34,2.86-7.34,8.57v1.08h-12.17v-1.59c0-5.9,1.73-10.51,5.18-13.82,3.46-3.31,8.35-4.97,14.69-4.97s10.85,1.46,14.4,4.39c3.6,2.98,5.4,7.03,5.4,12.17,0,3.31-.85,6.29-2.55,8.93-1.71,2.64-4.43,5.16-8.17,7.56l-8.86,5.61c-1.68,1.11-2.59,2.04-2.74,2.81h22.54v11.02Z"/><path d="M253.77,438.38h-13.46v-32.04h-12.67v-9h2.16c3.7,0,6.62-.79,8.78-2.38,2.02-1.49,3.34-3.91,3.96-7.27l.14-.57h11.09v51.26Z"/><path d="M283.79,423.34h-20.52v-9.94h20.52v9.94Z"/><path d="M328.43,432.27c-4.03,4.85-9.46,7.27-16.27,7.27s-12.24-2.42-16.27-7.27c-4.03-4.85-6.05-11.4-6.05-19.66s2.02-14.64,6.05-19.44c3.94-4.8,9.36-7.2,16.27-7.2s12.24,2.4,16.27,7.2c3.98,4.85,5.98,11.33,5.98,19.44s-1.99,14.81-5.98,19.66Zm-16.27-3.17c6.24,0,9.36-5.45,9.36-16.35s-3.12-16.34-9.36-16.34-9.43,5.45-9.43,16.34,3.14,16.35,9.43,16.35Z"/><use width="197.48" height="128.47" transform="translate(210.31 232.95)" xlink:href="#a"/></svg>