<?xml version="1.0" encoding="UTF-8"?><svg id="b" xmlns="http://www.w3.org/2000/svg" xmlns:xlink="http://www.w3.org/1999/xlink" viewBox="0 0 512 512"><defs><style>.c{fill:#374251;}</style><symbol id="a" viewBox="0 0 203 203"><path d="M103.08,203C46.24,203,0,157.33,0,101.2,0,49.18,39.45,5.69,91.77,.04c2.45-.27,4.88,.69,6.49,2.56,1.61,1.87,2.2,4.41,1.57,6.8-1.93,7.35-2.91,14.67-2.91,21.75,0,47.86,39.51,86.8,88.08,86.8,3.08,0,6.25-.18,9.7-.55,2.46-.27,4.88,.69,6.49,2.56,1.61,1.87,2.2,4.41,1.57,6.8-11.78,44.89-52.76,76.24-99.68,76.24ZM83.03,16.69C43.59,25.67,15,60.35,15,101.2c0,47.86,39.51,86.8,88.08,86.8,36.51,0,68.81-22.17,81.88-55.05-56.82-.02-103.04-45.68-103.04-101.8,0-4.76,.37-9.6,1.11-14.46Z"/></symbol></defs><path d="M227.6,410.73c3.46,.62,6.14,2.05,8.06,4.29s2.88,5,2.88,8.32c0,4.75-1.8,8.69-5.4,11.81-3.65,3.07-8.71,4.61-15.19,4.61s-11.99-1.68-15.66-5.04-5.63-7.99-5.87-13.89h12.31c.29,5.86,3.19,8.79,8.71,8.79,2.45,0,4.38-.6,5.8-1.8,1.41-1.2,2.12-2.83,2.12-4.9s-.74-3.72-2.23-4.82c-1.49-1.1-3.6-1.66-6.34-1.66h-3.6v-8.93h3.81c2.26,0,4-.5,5.22-1.51,1.22-1.01,1.84-2.45,1.84-4.32s-.61-3.32-1.84-4.36c-1.23-1.03-2.96-1.55-5.22-1.55s-3.89,.55-5.04,1.65c-1.15,1.11-1.82,2.91-2.02,5.4h-11.95c.48-11.28,6.96-16.92,19.44-16.92,5.9,0,10.51,1.3,13.82,3.89,3.31,2.59,4.97,5.9,4.97,9.93,0,2.69-.76,5.02-2.27,6.98s-3.64,3.31-6.37,4.03Z"/><path d="M266.26,423.34h-20.52v-9.94h20.52v9.94Z" style="fill:#374251;"/><path d="M297.94,402.96c5.47,0,9.89,1.61,13.25,4.82,3.41,3.26,5.11,7.58,5.11,12.96s-1.92,10.2-5.76,13.75c-3.84,3.5-8.88,5.25-15.12,5.25s-11.42-1.92-15.41-5.76c-4.75-4.51-7.13-11.4-7.13-20.66,0-8.73,1.91-15.49,5.72-20.27,3.82-4.77,9.35-7.16,16.6-7.16,5.04,0,9.23,1.14,12.56,3.42s5.58,5.51,6.73,9.68l-12.46,.72c-1.06-2.73-3.36-4.1-6.91-4.1-2.98,0-5.22,1-6.73,2.99s-2.44,5.24-2.77,9.75c2.88-3.6,6.98-5.4,12.31-5.4Zm-9.5,23.61c1.73,1.88,3.94,2.81,6.62,2.81s4.75-.82,6.19-2.45c1.44-1.68,2.16-3.67,2.16-5.98,0-2.45-.79-4.44-2.38-5.98s-3.62-2.3-6.12-2.3-4.51,.76-6.05,2.27c-1.54,1.51-2.38,3.56-2.52,6.16,.14,2.16,.84,3.98,2.09,5.47Z"/><use width="203" height="203" transform="translate(154.5 134.5)" xlink:href="#a"/></svg>