<?xml version="1.0" encoding="UTF-8"?><svg id="e" xmlns="http://www.w3.org/2000/svg" xmlns:xlink="http://www.w3.org/1999/xlink" viewBox="0 0 512 512"><defs><style></style><symbol id="a" viewBox="0 0 109.06 73.15"><g><path d="M19.39,0C13.76,0,9.12,1.82,5.47,5.47,1.82,9.12,0,13.73,0,19.29s1.82,10.27,5.47,13.92c3.65,3.71,8.29,5.57,13.92,5.57s10.27-1.86,13.92-5.57c3.65-3.65,5.47-8.29,5.47-13.92s-1.82-10.18-5.47-13.82C29.66,1.82,25.02,0,19.39,0Zm6.34,25.73c-1.66,1.67-3.78,2.5-6.34,2.5s-4.58-.83-6.24-2.5c-1.6-1.6-2.4-3.74-2.4-6.43s.8-4.66,2.4-6.29c1.6-1.63,3.68-2.45,6.24-2.45s4.66,.82,6.29,2.45,2.45,3.73,2.45,6.29c0,2.69-.8,4.83-2.4,6.43Z"/><path d="M78.82,58.46c-4.93,0-8.75-1.87-11.47-5.62s-4.08-9.07-4.08-15.98,1.36-11.84,4.08-15.55c2.72-3.71,6.54-5.57,11.47-5.57,3.52,0,6.38,.96,8.59,2.88,2.21,1.92,3.6,4.67,4.18,8.26h17.47c-.9-8-4.06-14.34-9.5-19.01-5.44-4.61-12.51-6.91-21.22-6.91-9.66,0-17.57,3.26-23.71,9.79-6.21,6.46-9.31,15.2-9.31,26.21s3.07,19.71,9.22,26.3c6.14,6.59,14.05,9.89,23.71,9.89,8.77,0,15.97-2.37,21.6-7.1,5.5-4.67,8.58-11.2,9.22-19.58h-17.47c-1.09,8-5.34,12-12.77,12Z"/></g></symbol><symbol id="b" viewBox="0 0 121 281"><g><use width="72" height="168" transform="translate(24.5 88.5)" xlink:href="#d"/><use width="121" height="281" xlink:href="#c"/></g></symbol><symbol id="c" viewBox="0 0 121 281"><path d="M60.5,281c-33.36,0-60.5-27.52-60.5-61.34,0-19.2,8.93-37.29,24-48.88V36.98C24,16.59,40.37,0,60.5,0s36.5,16.59,36.5,36.98V170.79c15.07,11.58,24,29.68,24,48.88,0,33.82-27.14,61.34-60.5,61.34Zm0-272c-15.16,0-27.5,12.55-27.5,27.98V173.06c0,1.46-.71,2.83-1.9,3.67-13.84,9.81-22.1,25.86-22.1,42.93,0,28.86,23.1,52.34,51.5,52.34s51.5-23.48,51.5-52.34c0-17.08-8.26-33.13-22.1-42.93-1.19-.84-1.9-2.21-1.9-3.67v-52.06h-23.5c-2.49,0-4.5-2.01-4.5-4.5s2.01-4.5,4.5-4.5h23.5v-23h-23.5c-2.49,0-4.5-2.01-4.5-4.5s2.01-4.5,4.5-4.5h23.5v-23h-23.5c-2.49,0-4.5-2.01-4.5-4.5s2.01-4.5,4.5-4.5h23.5v-11.02c0-15.43-12.34-27.98-27.5-27.98Z"/></symbol><symbol id="d" viewBox="0 0 72 168"><g><circle cx="36" cy="132" r="36"/><path d="M36,144c-6.63,0-12-5.37-12-12V12c0-6.63,5.37-12,12-12s12,5.37,12,12v120c0,6.63-5.37,12-12,12Z"/></g></symbol></defs><use width="109.06" height="73.15" transform="translate(314 250)" xlink:href="#a"/><use width="121" height="281" transform="translate(195.5 115.5)" xlink:href="#b"/></svg>