<?xml version="1.0" encoding="UTF-8"?><svg id="b" xmlns="http://www.w3.org/2000/svg" xmlns:xlink="http://www.w3.org/1999/xlink" viewBox="0 0 512 512"><defs><style>.d{fill:none;}.e{clip-path:url(#c);}</style><symbol id="a" viewBox="0 0 291 291"><g><path d="M145.5,215.9c-38.82,0-70.4-31.58-70.4-70.4s31.58-70.4,70.4-70.4,70.4,31.58,70.4,70.4-31.58,70.4-70.4,70.4Zm0-128.8c-32.2,0-58.4,26.2-58.4,58.4s26.2,58.4,58.4,58.4,58.4-26.2,58.4-58.4-26.2-58.4-58.4-58.4Z"/><path d="M145.5,291c-4.14,0-7.5-3.36-7.5-7.5v-38.07c0-4.14,3.36-7.5,7.5-7.5s7.5,3.36,7.5,7.5v38.07c0,4.14-3.36,7.5-7.5,7.5Zm97.58-40.42c-1.92,0-3.84-.73-5.3-2.2l-26.92-26.92c-2.93-2.93-2.93-7.68,0-10.61,2.93-2.93,7.68-2.93,10.61,0l26.92,26.92c2.93,2.93,2.93,7.68,0,10.61-1.46,1.46-3.38,2.2-5.3,2.2Zm-195.16,0c-1.92,0-3.84-.73-5.3-2.2-2.93-2.93-2.93-7.68,0-10.61l26.92-26.92c2.93-2.93,7.68-2.93,10.61,0,2.93,2.93,2.93,7.68,0,10.61l-26.92,26.92c-1.46,1.46-3.38,2.2-5.3,2.2Zm235.58-97.58h-38.07c-4.14,0-7.5-3.36-7.5-7.5s3.36-7.5,7.5-7.5h38.07c4.14,0,7.5,3.36,7.5,7.5s-3.36,7.5-7.5,7.5Zm-237.93,0H7.5c-4.14,0-7.5-3.36-7.5-7.5s3.36-7.5,7.5-7.5H45.57c4.14,0,7.5,3.36,7.5,7.5s-3.36,7.5-7.5,7.5ZM216.16,82.34c-1.92,0-3.84-.73-5.3-2.2-2.93-2.93-2.93-7.68,0-10.61l26.92-26.92c2.93-2.93,7.68-2.93,10.61,0,2.93,2.93,2.93,7.68,0,10.61l-26.92,26.92c-1.46,1.46-3.38,2.2-5.3,2.2Zm-141.32,0c-1.92,0-3.84-.73-5.3-2.2l-26.92-26.92c-2.93-2.93-2.93-7.68,0-10.61,2.93-2.93,7.68-2.93,10.61,0l26.92,26.92c2.93,2.93,2.93,7.68,0,10.61-1.46,1.46-3.38,2.2-5.3,2.2Zm70.66-29.27c-4.14,0-7.5-3.36-7.5-7.5V7.5c0-4.14,3.36-7.5,7.5-7.5s7.5,3.36,7.5,7.5V45.57c0,4.14-3.36,7.5-7.5,7.5Z"/></g></symbol><clipPath id="c"><rect y="12" width="512" height="282" style="fill:none;"/></clipPath></defs><g style="clip-path:url(#c);"><use width="291" height="291" transform="translate(110.44 110.63)" xlink:href="#a"/></g><path d="M384,329H128c-4.97,0-9-4.03-9-9s4.03-9,9-9H384c4.97,0,9,4.03,9,9s-4.03,9-9,9Z"/><path d="M214.46,391.95c4.8,4.51,7.2,11.38,7.2,20.59,0,8.74-1.91,15.49-5.72,20.27s-9.37,7.16-16.67,7.16c-5.04,0-9.23-1.14-12.56-3.42-3.34-2.28-5.56-5.48-6.66-9.61l12.38-.79c1.05,2.73,3.36,4.1,6.91,4.1,2.93,0,5.17-.99,6.73-2.98s2.51-5.22,2.85-9.69c-2.98,3.55-7.11,5.33-12.39,5.33s-9.82-1.61-13.18-4.82c-3.41-3.26-5.11-7.56-5.11-12.89,0-5.62,1.92-10.2,5.76-13.75,3.79-3.5,8.81-5.26,15.05-5.26s11.42,1.92,15.41,5.76Zm-14.9,21.31c2.49,0,4.51-.77,6.05-2.3,1.54-1.54,2.38-3.6,2.52-6.19-.14-2.21-.84-4.01-2.09-5.4-1.63-1.87-3.84-2.81-6.62-2.81s-4.69,.78-6.16,2.34c-1.46,1.56-2.2,3.57-2.2,6.01s.78,4.52,2.34,6.05,3.61,2.3,6.16,2.3Z"/><path d="M248.73,423.34h-20.52v-9.94h20.52v9.94Z"/><path d="M279.9,438.38h-13.46v-32.04h-12.67v-9h2.16c3.7,0,6.62-.79,8.79-2.38,2.02-1.49,3.34-3.91,3.96-7.27l.14-.57h11.09v51.26Z"/><path d="M332.39,438.38h-40.61c0-4.56,.98-8.38,2.95-11.45,1.97-2.98,5.57-6.27,10.8-9.87l7.92-5.61c2.02-1.39,3.44-2.71,4.29-3.96,.84-1.25,1.26-2.66,1.26-4.25,0-2.06-.63-3.68-1.87-4.86-1.25-1.18-2.95-1.76-5.11-1.76-4.9,0-7.34,2.86-7.34,8.57v1.08h-12.17v-1.59c0-5.9,1.73-10.51,5.18-13.82,3.46-3.31,8.35-4.97,14.69-4.97s10.85,1.46,14.4,4.39c3.6,2.98,5.4,7.03,5.4,12.17,0,3.31-.85,6.29-2.56,8.93-1.7,2.64-4.43,5.16-8.17,7.56l-8.86,5.61c-1.68,1.11-2.59,2.04-2.74,2.81h22.54v11.02Z"/></svg>