<?xml version="1.0" encoding="UTF-8"?><svg id="b" xmlns="http://www.w3.org/2000/svg" xmlns:xlink="http://www.w3.org/1999/xlink" viewBox="0 0 512 512"><defs><style></style><symbol id="a" viewBox="0 0 252 100"><path d="M230.04,100H21.96c-12.11,0-21.96-10.01-21.96-22.3V28.63c0-3.31,2.69-6,6-6H14c7.61,0,16.05-9.43,20.66-18.19C36.11,1.7,38.92,0,42,0c3.08,0,5.89,1.7,7.34,4.45,4.62,8.76,13.05,18.19,20.66,18.19s16.05-9.43,20.66-18.19C92.11,1.7,94.92,0,98,0c3.08,0,5.89,1.7,7.34,4.45,4.62,8.76,13.05,18.19,20.66,18.19s16.05-9.43,20.66-18.19C148.11,1.7,150.92,0,154,0c3.08,0,5.89,1.7,7.34,4.45,4.62,8.76,13.05,18.19,20.66,18.19s16.05-9.43,20.66-18.19C204.11,1.7,206.92,0,210,0c3.08,0,5.89,1.7,7.34,4.45,4.62,8.76,13.05,18.19,20.66,18.19h8c3.31,0,6,2.69,6,6v49.06c0,12.3-9.85,22.3-21.96,22.3ZM12,34.63v43.06c0,5.68,4.47,10.3,9.96,10.3H230.04c5.49,0,9.96-4.62,9.96-10.3V34.63h-2c-11.41,0-21.4-9.07-28-19.05-6.6,9.98-16.59,19.05-28,19.05s-21.4-9.07-28-19.05c-6.6,9.98-16.59,19.05-28,19.05s-21.4-9.07-28-19.05c-6.6,9.98-16.59,19.05-28,19.05s-21.4-9.07-28-19.05c-6.6,9.98-16.59,19.05-28,19.05h-2Z"/></symbol></defs><path d="M256,224c-.34,0-.69-.03-1.02-.09h-.02c-.21-.04-.42-.09-.62-.15h0c-1.07-.31-2.05-.92-2.82-1.79h0v-.02h-.02v-.02h0l-24-27.59c-.99-1.14-1.47-2.54-1.47-3.94,0-1.67,.7-3.34,2.06-4.52,2.5-2.18,6.29-1.91,8.47,.59l13.47,15.48v-55.97c0-3.31,2.69-6,6-6s6,2.69,6,6v55.97l13.47-15.48c2.18-2.5,5.97-2.76,8.47-.59,2.5,2.18,2.76,5.97,.59,8.46l-23.98,27.56c-.63,.74-1.45,1.32-2.4,1.68h-.03s-.06,.03-.09,.04h-.02c-.66,.24-1.33,.35-2.01,.35Z"/><use width="252" height="100" transform="translate(130 238)" xlink:href="#a"/></svg>