<?xml version="1.0" encoding="UTF-8"?><svg id="g" xmlns="http://www.w3.org/2000/svg" xmlns:xlink="http://www.w3.org/1999/xlink" viewBox="0 0 512 512"><defs><style>.h{fill:none;}.i{clip-path:url(#e);}</style><symbol id="a" viewBox="0 0 359 231"><path d="M295.5,231c-4.14,0-7.5-3.36-7.5-7.5s3.36-7.5,7.5-7.5c26.74,0,48.5-21.76,48.5-48.5s-21.76-48.5-48.5-48.5c-.37,0-.73,.03-1.09,.05-.37,.02-.73,.05-1.1,.07-2.36,.1-4.63-.91-6.13-2.74-1.5-1.83-2.05-4.26-1.48-6.55,1.53-6.22,2.31-12.39,2.31-18.33,0-42.18-34.32-76.5-76.5-76.5-26.63,0-50.94,13.59-65.03,36.36-2.15,3.48-6.7,4.59-10.22,2.5-7.53-4.49-16.09-6.86-24.76-6.86-26.74,0-48.5,21.76-48.5,48.5,0,2.4,.23,4.98,.7,7.87,.66,4.02-2.01,7.82-6.01,8.58-24.74,4.68-42.69,26.35-42.69,51.55,0,28.95,23.55,52.5,52.5,52.5,4.14,0,7.5,3.36,7.5,7.5s-3.36,7.5-7.5,7.5C30.28,231,0,200.72,0,163.5c0-30.04,19.85-56.19,48.1-64.63-.07-1.14-.1-2.26-.1-3.37,0-35.01,28.49-63.5,63.5-63.5,9,0,17.91,1.94,26.11,5.67C154.83,13.96,181.97,0,211.5,0c50.45,0,91.5,41.05,91.5,91.5,0,4.21-.32,8.51-.96,12.83,31.95,3.28,56.96,30.36,56.96,63.17,0,35.01-28.49,63.5-63.5,63.5Z"/></symbol><symbol id="b" viewBox="0 0 214.26 140.12"><path d="M172,140.12c-.53,0-1.02-.02-1.49-.05-.27,.03-.55,.05-.83,.05H39.94C17.92,140.12,0,122.2,0,100.18c0-19.54,14.1-35.84,32.65-39.27-.14-1.6-.22-3.18-.22-4.75C32.44,25.19,57.63,0,88.59,0c17.28,0,33.23,7.79,43.84,21.13,4.49-1.71,9.27-2.59,14.09-2.59,21.92,0,39.77,17.75,39.94,39.63,16.45,5.97,27.8,21.72,27.8,39.7,0,23.3-18.96,42.25-42.25,42.25Zm-2.32-15.12c.17,0,.33,0,.5,.02l.46,.03c.45,.03,.91,.07,1.37,.07,15.03,0,27.25-12.23,27.25-27.25,0-13.08-9.32-24.33-22.16-26.76-4-.76-6.67-4.56-6.01-8.58,.25-1.51,.37-2.83,.37-4.05,0-13.75-11.19-24.94-24.94-24.94-4.45,0-8.85,1.22-12.72,3.53-3.52,2.1-8.06,.99-10.22-2.5-7.58-12.25-20.66-19.57-34.98-19.57-22.69,0-41.16,18.46-41.16,41.16,0,3.19,.42,6.51,1.25,9.86,.57,2.3,.02,4.72-1.48,6.55s-3.77,2.84-6.13,2.74c-.24-.01-.47-.03-.71-.04-.14,0-.28-.02-.42-.02-13.75,0-24.94,11.19-24.94,24.94s11.19,24.94,24.94,24.94H168.37c.43-.08,.87-.12,1.32-.12Z"/></symbol><symbol id="c" viewBox="0 0 96 176"><polygon points="32 0 0 96 32 96 16 176 96 64 48 64 80 0 32 0"/></symbol><clipPath id="e"><path d="M369.5,299c0-34.63-23.91-63.78-56.09-71.81,.06-1.4,.09-2.8,.09-4.19,0-56.24-45.76-102-102-102V0h225.53V299h-67.53Z" style="fill:none;"/></clipPath><symbol id="d" viewBox="0 0 437.03 362.5"><g><use width="359" height="231" transform="translate(0 131.5)" xlink:href="#a"/><g style="clip-path:url(#e);"><use width="214.26" height="140.12" transform="translate(195.51 156.01)" xlink:href="#b"/></g></g></symbol><symbol id="f" viewBox="0 0 155.2 138"><g><path d="M41.17,30.54l-5.78-3.29c.52-2.16,.49-4.37-.01-6.48l5.79-3.3c1.94-1.1,2.6-3.55,1.48-5.46-1.12-1.91-3.59-2.57-5.54-1.46l-5.79,3.3c-.79-.74-1.66-1.4-2.64-1.96-.98-.56-2-.97-3.04-1.28V4c0-2.21-1.81-4-4.05-4s-4.05,1.79-4.05,4v6.6c-2.1,.62-4.06,1.71-5.69,3.23l-5.78-3.29c-1.94-1.11-4.42-.45-5.54,1.46-1.12,1.91-.46,4.36,1.48,5.46l5.78,3.29c-.52,2.16-.49,4.37,.01,6.48l-5.79,3.3c-1.94,1.1-2.6,3.55-1.48,5.46,.75,1.28,2.11,2,3.51,2,.69,0,1.38-.17,2.02-.54l5.79-3.3c.79,.74,1.66,1.4,2.64,1.96,.98,.56,2,.97,3.04,1.27v6.61c0,2.21,1.81,4,4.05,4s4.05-1.79,4.05-4v-6.61c2.1-.62,4.05-1.7,5.68-3.22l5.79,3.3c.64,.36,1.33,.54,2.02,.54,1.4,0,2.76-.72,3.51-2,1.12-1.91,.46-4.36-1.48-5.46Zm-22.61-1.34c-2.9-1.65-3.9-5.33-2.23-8.2,1.13-1.92,3.17-3,5.28-3,1.03,0,2.07,.26,3.03,.8,2.9,1.65,3.9,5.33,2.23,8.2-1.68,2.87-5.4,3.85-8.3,2.2Z"/><path d="M97.17,120.54l-5.78-3.29c.52-2.16,.49-4.37-.01-6.48l5.79-3.3c1.94-1.1,2.6-3.55,1.48-5.46-1.12-1.91-3.59-2.57-5.54-1.46l-5.79,3.3c-.79-.74-1.66-1.4-2.64-1.96-.98-.56-2-.97-3.04-1.28v-6.6c0-2.21-1.81-4-4.05-4s-4.05,1.79-4.05,4v6.6c-2.1,.62-4.06,1.71-5.69,3.23l-5.78-3.29c-1.94-1.11-4.42-.45-5.54,1.46-1.12,1.91-.46,4.36,1.48,5.46l5.78,3.29c-.52,2.16-.49,4.37,.01,6.48l-5.79,3.3c-1.94,1.1-2.6,3.55-1.48,5.46,.75,1.28,2.11,2,3.51,2,.69,0,1.38-.17,2.02-.54l5.79-3.3c.79,.74,1.66,1.4,2.64,1.96,.98,.56,2,.97,3.04,1.27v6.61c0,2.21,1.81,4,4.05,4s4.05-1.79,4.05-4v-6.61c2.1-.62,4.05-1.7,5.68-3.22l5.79,3.3c.64,.36,1.33,.54,2.02,.54,1.4,0,2.76-.72,3.51-2,1.12-1.91,.46-4.36-1.48-5.46Zm-22.61-1.34c-2.9-1.65-3.9-5.33-2.23-8.2,1.13-1.92,3.17-3,5.28-3,1.03,0,2.07,.26,3.03,.8,2.9,1.65,3.9,5.33,2.23,8.2-1.68,2.87-5.4,3.85-8.3,2.2Z"/><path d="M153.17,70.54l-5.78-3.29c.52-2.16,.49-4.37-.01-6.48l5.79-3.3c1.94-1.1,2.6-3.55,1.48-5.46-1.12-1.91-3.59-2.57-5.54-1.46l-5.79,3.3c-.79-.74-1.66-1.4-2.64-1.96-.98-.56-2-.97-3.04-1.28v-6.6c0-2.21-1.81-4-4.05-4s-4.05,1.79-4.05,4v6.6c-2.1,.62-4.06,1.71-5.69,3.23l-5.78-3.29c-1.94-1.11-4.42-.45-5.54,1.46-1.12,1.91-.46,4.36,1.48,5.46l5.78,3.29c-.52,2.16-.49,4.37,.01,6.48l-5.79,3.3c-1.94,1.1-2.6,3.55-1.48,5.46,.75,1.28,2.11,2,3.51,2,.69,0,1.38-.17,2.02-.54l5.79-3.3c.79,.74,1.66,1.4,2.64,1.96,.98,.56,2,.97,3.04,1.27v6.61c0,2.21,1.81,4,4.05,4s4.05-1.79,4.05-4v-6.61c2.1-.62,4.05-1.7,5.68-3.22l5.79,3.3c.64,.36,1.33,.54,2.02,.54,1.4,0,2.76-.72,3.51-2,1.12-1.91,.46-4.36-1.48-5.46Zm-22.61-1.34c-2.9-1.65-3.9-5.33-2.23-8.2,1.13-1.92,3.17-3,5.28-3,1.03,0,2.07,.26,3.03,.8,2.9,1.65,3.9,5.33,2.23,8.2-1.68,2.87-5.4,3.85-8.3,2.2Z"/></g></symbol></defs><use width="437.03" height="362.5" transform="translate(64.34 9)" xlink:href="#d"/><use width="155.2" height="138" transform="translate(178.4 338)" xlink:href="#f"/><use width="96" height="176" transform="translate(208 293)" xlink:href="#c"/></svg>