<?xml version="1.0" encoding="UTF-8"?><svg id="d" xmlns="http://www.w3.org/2000/svg" xmlns:xlink="http://www.w3.org/1999/xlink" viewBox="0 0 512 512"><defs><style></style><symbol id="a" viewBox="0 0 359 231"><path d="M295.5,231c-4.14,0-7.5-3.36-7.5-7.5s3.36-7.5,7.5-7.5c26.74,0,48.5-21.76,48.5-48.5s-21.76-48.5-48.5-48.5c-.37,0-.73,.03-1.09,.05-.37,.02-.73,.05-1.1,.07-2.36,.1-4.63-.91-6.13-2.74-1.5-1.83-2.05-4.26-1.48-6.55,1.53-6.22,2.31-12.39,2.31-18.33,0-42.18-34.32-76.5-76.5-76.5-26.63,0-50.94,13.59-65.03,36.36-2.15,3.48-6.7,4.59-10.22,2.5-7.53-4.49-16.09-6.86-24.76-6.86-26.74,0-48.5,21.76-48.5,48.5,0,2.4,.23,4.98,.7,7.87,.66,4.02-2.01,7.82-6.01,8.58-24.74,4.68-42.69,26.35-42.69,51.55,0,28.95,23.55,52.5,52.5,52.5,4.14,0,7.5,3.36,7.5,7.5s-3.36,7.5-7.5,7.5C30.28,231,0,200.72,0,163.5c0-30.04,19.85-56.19,48.1-64.63-.07-1.14-.1-2.26-.1-3.37,0-35.01,28.49-63.5,63.5-63.5,9,0,17.91,1.94,26.11,5.67C154.83,13.96,181.97,0,211.5,0c50.45,0,91.5,41.05,91.5,91.5,0,4.21-.32,8.51-.96,12.83,31.95,3.28,56.96,30.36,56.96,63.17,0,35.01-28.49,63.5-63.5,63.5Z"/></symbol><symbol id="b" viewBox="0 0 96 176"><polygon points="32 0 0 96 32 96 16 176 96 64 48 64 80 0 32 0"/></symbol><symbol id="c" viewBox="0 0 128 109"><g><path d="M8,56c-4.42,0-8-3.58-8-8V8C0,3.58,3.58,0,8,0s8,3.58,8,8V48c0,4.42-3.58,8-8,8Z"/><path d="M64,109c-4.42,0-8-3.58-8-8V61c0-4.42,3.58-8,8-8s8,3.58,8,8v40c0,4.42-3.58,8-8,8Z"/><path d="M120,74c-4.42,0-8-3.58-8-8V26c0-4.42,3.58-8,8-8s8,3.58,8,8v40c0,4.42-3.58,8-8,8Z"/></g></symbol></defs><use width="359" height="231" transform="translate(76.5 140.5)" xlink:href="#a"/><use width="128" height="109" transform="translate(192 344)" xlink:href="#c"/><use width="96" height="176" transform="translate(208 293)" xlink:href="#b"/></svg>