<?xml version="1.0" encoding="UTF-8"?><svg id="b" xmlns="http://www.w3.org/2000/svg" xmlns:xlink="http://www.w3.org/1999/xlink" viewBox="0 0 512 512"><defs><style></style><symbol id="a" viewBox="0 0 291 291"><g><path d="M145.5,215.9c-38.82,0-70.4-31.58-70.4-70.4s31.58-70.4,70.4-70.4,70.4,31.58,70.4,70.4-31.58,70.4-70.4,70.4Zm0-128.8c-32.2,0-58.4,26.2-58.4,58.4s26.2,58.4,58.4,58.4,58.4-26.2,58.4-58.4-26.2-58.4-58.4-58.4Z"/><path d="M145.5,291c-4.14,0-7.5-3.36-7.5-7.5v-38.07c0-4.14,3.36-7.5,7.5-7.5s7.5,3.36,7.5,7.5v38.07c0,4.14-3.36,7.5-7.5,7.5Zm97.58-40.42c-1.92,0-3.84-.73-5.3-2.2l-26.92-26.92c-2.93-2.93-2.93-7.68,0-10.61,2.93-2.93,7.68-2.93,10.61,0l26.92,26.92c2.93,2.93,2.93,7.68,0,10.61-1.46,1.46-3.38,2.2-5.3,2.2Zm-195.16,0c-1.92,0-3.84-.73-5.3-2.2-2.93-2.93-2.93-7.68,0-10.61l26.92-26.92c2.93-2.93,7.68-2.93,10.61,0,2.93,2.93,2.93,7.68,0,10.61l-26.92,26.92c-1.46,1.46-3.38,2.2-5.3,2.2Zm235.58-97.58h-38.07c-4.14,0-7.5-3.36-7.5-7.5s3.36-7.5,7.5-7.5h38.07c4.14,0,7.5,3.36,7.5,7.5s-3.36,7.5-7.5,7.5Zm-237.93,0H7.5c-4.14,0-7.5-3.36-7.5-7.5s3.36-7.5,7.5-7.5H45.57c4.14,0,7.5,3.36,7.5,7.5s-3.36,7.5-7.5,7.5ZM216.16,82.34c-1.92,0-3.84-.73-5.3-2.2-2.93-2.93-2.93-7.68,0-10.61l26.92-26.92c2.93-2.93,7.68-2.93,10.61,0,2.93,2.93,2.93,7.68,0,10.61l-26.92,26.92c-1.46,1.46-3.38,2.2-5.3,2.2Zm-141.32,0c-1.92,0-3.84-.73-5.3-2.2l-26.92-26.92c-2.93-2.93-2.93-7.68,0-10.61,2.93-2.93,7.68-2.93,10.61,0l26.92,26.92c2.93,2.93,2.93,7.68,0,10.61-1.46,1.46-3.38,2.2-5.3,2.2Zm70.66-29.27c-4.14,0-7.5-3.36-7.5-7.5V7.5c0-4.14,3.36-7.5,7.5-7.5s7.5,3.36,7.5,7.5V45.57c0,4.14-3.36,7.5-7.5,7.5Z"/></g></symbol></defs><path d="M185.26,438.38h-13.46v-32.04h-12.67v-9h2.16c3.7,0,6.62-.79,8.78-2.38,2.02-1.49,3.34-3.91,3.96-7.27l.14-.57h11.09v51.26Z"/><path d="M237.75,438.38h-40.61c0-4.56,.98-8.38,2.95-11.45,1.97-2.98,5.57-6.27,10.8-9.87l7.92-5.61c2.02-1.39,3.45-2.71,4.29-3.96,.84-1.25,1.26-2.66,1.26-4.25,0-2.06-.62-3.68-1.87-4.86-1.25-1.18-2.95-1.76-5.11-1.76-4.9,0-7.34,2.86-7.34,8.57v1.08h-12.17v-1.59c0-5.9,1.73-10.51,5.18-13.82s8.35-4.97,14.69-4.97,10.85,1.46,14.4,4.39c3.6,2.98,5.4,7.03,5.4,12.17,0,3.31-.85,6.29-2.56,8.93-1.7,2.64-4.43,5.16-8.17,7.56l-8.86,5.61c-1.68,1.11-2.59,2.04-2.74,2.81h22.54v11.02Z"/><path d="M266.26,423.34h-20.52v-9.94h20.52v9.94Z"/><path d="M297.44,438.38h-13.46v-32.04h-12.67v-9h2.16c3.7,0,6.62-.79,8.79-2.38,2.02-1.49,3.34-3.91,3.96-7.27l.14-.57h11.09v51.26Z"/><path d="M329.47,439.68c-5.86,0-10.64-1.34-14.36-4.03-3.72-2.69-5.92-6.5-6.59-11.45l12.81-1.01c.43,1.92,1.36,3.4,2.77,4.43,1.41,1.03,3.18,1.55,5.29,1.55,2.59,0,4.64-.73,6.16-2.2,1.51-1.46,2.27-3.39,2.27-5.8s-.76-4.26-2.27-5.72-3.56-2.2-6.16-2.2c-2.88,0-5.26,1.04-7.13,3.1l-12.1-1.08,4.68-28.15h32.26v10.73h-22.54l-1.65,8.79,.21,.14c2.69-1.97,6.14-2.95,10.37-2.95,5.18,0,9.33,1.54,12.46,4.61,3.17,3.07,4.75,7.22,4.75,12.45,0,5.76-1.9,10.32-5.69,13.68-3.84,3.41-9.03,5.11-15.55,5.11Z"/><use width="291" height="291" transform="translate(110.38 72.63)" xlink:href="#a"/></svg>