<?xml version="1.0" encoding="UTF-8"?><svg id="b" xmlns="http://www.w3.org/2000/svg" xmlns:xlink="http://www.w3.org/1999/xlink" viewBox="0 0 512 512"><defs><style>.d{fill:none;}.e{clip-path:url(#c);}</style><symbol id="a" viewBox="0 0 375 375"><g><path d="M187.5,279c-50.45,0-91.5-41.05-91.5-91.5s41.05-91.5,91.5-91.5,91.5,41.05,91.5,91.5-41.05,91.5-91.5,91.5Zm0-168c-42.18,0-76.5,34.32-76.5,76.5s34.32,76.5,76.5,76.5,76.5-34.32,76.5-76.5-34.32-76.5-76.5-76.5Z"/><path d="M187.5,375c-4.14,0-7.5-3.36-7.5-7.5v-49.66c0-4.14,3.36-7.5,7.5-7.5s7.5,3.36,7.5,7.5v49.66c0,4.14-3.36,7.5-7.5,7.5Zm-127.28-52.72c-1.92,0-3.84-.73-5.3-2.2-2.93-2.93-2.93-7.68,0-10.61l35.11-35.11c2.93-2.93,7.68-2.93,10.61,0s2.93,7.68,0,10.61l-35.11,35.11c-1.46,1.46-3.38,2.2-5.3,2.2Zm254.56,0c-1.92,0-3.84-.73-5.3-2.2l-35.11-35.11c-2.93-2.93-2.93-7.68,0-10.61,2.93-2.93,7.68-2.93,10.61,0l35.11,35.11c2.93,2.93,2.93,7.68,0,10.61-1.46,1.46-3.38,2.2-5.3,2.2ZM7.5,195c-4.14,0-7.5-3.36-7.5-7.5s3.36-7.5,7.5-7.5H57.16c4.14,0,7.5,3.36,7.5,7.5s-3.36,7.5-7.5,7.5H7.5Zm310.34,0c-4.14,0-7.5-3.36-7.5-7.5s3.36-7.5,7.5-7.5h49.66c4.14,0,7.5,3.36,7.5,7.5s-3.36,7.5-7.5,7.5h-49.66ZM95.33,102.83c-1.92,0-3.84-.73-5.3-2.2l-35.11-35.11c-2.93-2.93-2.93-7.68,0-10.61,2.93-2.93,7.68-2.93,10.61,0l35.11,35.11c2.93,2.93,2.93,7.68,0,10.61-1.46,1.46-3.38,2.2-5.3,2.2Zm184.34,0c-1.92,0-3.84-.73-5.3-2.2-2.93-2.93-2.93-7.68,0-10.61l35.11-35.11c2.93-2.93,7.68-2.93,10.61,0,2.93,2.93,2.93,7.68,0,10.61l-35.11,35.11c-1.46,1.46-3.38,2.2-5.3,2.2Zm-92.17-38.18c-4.14,0-7.5-3.36-7.5-7.5V7.5c0-4.14,3.36-7.5,7.5-7.5s7.5,3.36,7.5,7.5V57.16c0,4.14-3.36,7.5-7.5,7.5Z"/></g></symbol><clipPath id="c"><path d="M64,64H448V256h-120.01c-39.76,0-71.99,32.23-71.99,71.99v120.01H64V64Z" style="fill:none;"/></clipPath></defs><g style="clip-path:url(#c);"><use width="375" height="375" transform="translate(68.5 68.5)" xlink:href="#a"/><path d="M261.5,338h-15v-10.02c0-44.93,36.55-81.48,81.48-81.48h10.02v15h-10.02c-36.66,0-66.48,29.82-66.48,66.48v10.02Z"/></g><path d="M376,280h-48c-26.4,0-48,21.6-48,48v48c0,26.4,21.6,48,48,48h48c26.4,0,48-21.6,48-48v-48c0-26.4-21.6-48-48-48Zm-3.06,101.84c-4.88,4.11-11.65,6.16-20.31,6.16s-16.03-2.25-20.94-6.74c-4.91-4.49-7.52-10.68-7.85-18.58h16.46c.39,7.83,4.27,11.74,11.65,11.74,3.27,0,5.86-.8,7.75-2.4,1.89-1.6,2.84-3.79,2.84-6.55s-1-4.97-2.98-6.45c-1.99-1.47-4.81-2.21-8.47-2.21h-4.81v-11.94h5.1c3.02,0,5.34-.67,6.98-2.02,1.64-1.35,2.46-3.27,2.46-5.78s-.82-4.44-2.46-5.82c-1.64-1.38-3.96-2.07-6.98-2.07s-5.2,.74-6.74,2.21c-1.54,1.48-2.44,3.88-2.69,7.22h-15.98c.64-15.08,9.3-22.62,25.99-22.62,7.89,0,14.05,1.73,18.48,5.2,4.43,3.47,6.64,7.89,6.64,13.28,0,3.6-1.01,6.71-3.03,9.34-2.02,2.63-4.86,4.43-8.52,5.39,4.62,.83,8.21,2.74,10.78,5.73,2.57,2.98,3.85,6.69,3.85,11.12,0,6.35-2.4,11.61-7.22,15.79Z"/></svg>