<?xml version="1.0" encoding="UTF-8"?><svg id="b" xmlns="http://www.w3.org/2000/svg" xmlns:xlink="http://www.w3.org/1999/xlink" viewBox="0 0 512 512"><defs><style></style><symbol id="a" viewBox="0 0 138 96"><g><path d="M116.44,43.11H6c-3.31,0-6-2.69-6-6s2.69-6,6-6H116.44c5.27,0,9.56-4.29,9.56-9.56s-4.29-9.56-9.56-9.56c-2.62,0-5.07,1.04-6.89,2.94-2.3,2.39-6.09,2.47-8.48,.17-2.39-2.3-2.46-6.09-.17-8.48,4.1-4.27,9.62-6.62,15.54-6.62,11.89,0,21.56,9.67,21.56,21.56s-9.67,21.56-21.56,21.56Z"/><path d="M71.89,96c-5.92,0-11.44-2.35-15.54-6.62-2.3-2.39-2.22-6.19,.17-8.48,2.39-2.3,6.19-2.22,8.48,.17,1.82,1.89,4.27,2.94,6.89,2.94,5.27,0,9.56-4.29,9.56-9.56s-4.29-9.56-9.56-9.56H6.56c-3.31,0-6-2.69-6-6s2.69-6,6-6H71.89c11.89,0,21.56,9.67,21.56,21.56s-9.67,21.56-21.56,21.56Z"/></g></symbol></defs><path d="M202.97,372.97c-8.01,0-15.55-3.12-21.21-8.79-5.67-5.67-8.79-13.2-8.79-21.21s3.12-15.55,8.79-21.21l119-119c2.34-2.34,6.14-2.34,8.49,0s2.34,6.14,0,8.49l-119,119c-7.02,7.02-7.02,18.44,0,25.46,3.4,3.4,7.92,5.27,12.73,5.27s9.33-1.87,12.73-5.27c2.34-2.34,6.14-2.34,8.49,0s2.34,6.14,0,8.49c-5.67,5.67-13.2,8.79-21.21,8.79Z"/><g><path d="M327.88,127.18l-8.2-2.84c-18.49-6.41-34.88-22.51-41.73-40.99l-4.87-13.15c-36.68,36.68-30.19,102.92,13.99,149.66,.31-13.06,3.96-62.74,40.8-92.68Z"/><path d="M332.21,131.41c-34.88,27.9-38.72,76.09-39.12,88.48,12.4-.41,60.62-4.28,88.49-39.11l-4.22-1.36c-19.83-6.37-37.42-23.96-43.8-43.8l-1.36-4.22Z"/><path d="M429.65,235.04c-18.47-6.84-34.57-23.23-40.99-41.73l-2.84-8.19c-29.93,36.84-79.61,40.49-92.68,40.8,46.74,44.18,112.98,50.67,149.66,13.99l-13.15-4.87Z"/></g><use width="138" height="96" transform="translate(62.5 201)" xlink:href="#a"/></svg>