<?xml version="1.0" encoding="UTF-8"?><svg id="b" xmlns="http://www.w3.org/2000/svg" xmlns:xlink="http://www.w3.org/1999/xlink" viewBox="0 0 512 512"><defs><style>.d{fill:none;}.e{clip-path:url(#c);}</style><symbol id="a" viewBox="0 0 375 375"><g><path d="M187.5,279c-50.45,0-91.5-41.05-91.5-91.5s41.05-91.5,91.5-91.5,91.5,41.05,91.5,91.5-41.05,91.5-91.5,91.5Zm0-168c-42.18,0-76.5,34.32-76.5,76.5s34.32,76.5,76.5,76.5,76.5-34.32,76.5-76.5-34.32-76.5-76.5-76.5Z"/><path d="M187.5,375c-4.14,0-7.5-3.36-7.5-7.5v-49.66c0-4.14,3.36-7.5,7.5-7.5s7.5,3.36,7.5,7.5v49.66c0,4.14-3.36,7.5-7.5,7.5Zm-127.28-52.72c-1.92,0-3.84-.73-5.3-2.2-2.93-2.93-2.93-7.68,0-10.61l35.11-35.11c2.93-2.93,7.68-2.93,10.61,0s2.93,7.68,0,10.61l-35.11,35.11c-1.46,1.46-3.38,2.2-5.3,2.2Zm254.56,0c-1.92,0-3.84-.73-5.3-2.2l-35.11-35.11c-2.93-2.93-2.93-7.68,0-10.61,2.93-2.93,7.68-2.93,10.61,0l35.11,35.11c2.93,2.93,2.93,7.68,0,10.61-1.46,1.46-3.38,2.2-5.3,2.2ZM7.5,195c-4.14,0-7.5-3.36-7.5-7.5s3.36-7.5,7.5-7.5H57.16c4.14,0,7.5,3.36,7.5,7.5s-3.36,7.5-7.5,7.5H7.5Zm310.34,0c-4.14,0-7.5-3.36-7.5-7.5s3.36-7.5,7.5-7.5h49.66c4.14,0,7.5,3.36,7.5,7.5s-3.36,7.5-7.5,7.5h-49.66ZM95.33,102.83c-1.92,0-3.84-.73-5.3-2.2l-35.11-35.11c-2.93-2.93-2.93-7.68,0-10.61,2.93-2.93,7.68-2.93,10.61,0l35.11,35.11c2.93,2.93,2.93,7.68,0,10.61-1.46,1.46-3.38,2.2-5.3,2.2Zm184.34,0c-1.92,0-3.84-.73-5.3-2.2-2.93-2.93-2.93-7.68,0-10.61l35.11-35.11c2.93-2.93,7.68-2.93,10.61,0,2.93,2.93,2.93,7.68,0,10.61l-35.11,35.11c-1.46,1.46-3.38,2.2-5.3,2.2Zm-92.17-38.18c-4.14,0-7.5-3.36-7.5-7.5V7.5c0-4.14,3.36-7.5,7.5-7.5s7.5,3.36,7.5,7.5V57.16c0,4.14-3.36,7.5-7.5,7.5Z"/></g></symbol><clipPath id="c"><path d="M64,64H448V256h-120.01c-39.76,0-71.99,32.23-71.99,71.99v120.01H64V64Z" style="fill:none;"/></clipPath></defs><g style="clip-path:url(#c);"><use width="375" height="375" transform="translate(68.5 68.5)" xlink:href="#a"/><path d="M261.5,338h-15v-10.02c0-44.93,36.55-81.48,81.48-81.48h10.02v15h-10.02c-36.66,0-66.48,29.82-66.48,66.48v10.02Z"/></g><g><path d="M344.1,342.51c1.89,1.48,4.55,2.22,7.95,2.22s5.96-.74,7.86-2.22c1.89-1.48,2.84-3.53,2.84-6.17s-.93-4.55-2.8-5.93c-1.86-1.38-4.5-2.07-7.9-2.07-7.2,0-10.8,2.67-10.8,8,0,2.64,.95,4.69,2.84,6.17Z"/><path d="M361.06,358.36c-2.16-1.7-5.16-2.55-9.01-2.55s-6.97,.85-9.16,2.55c-2.19,1.7-3.28,4.06-3.28,7.08s1.11,5.38,3.33,7.08c2.22,1.7,5.25,2.55,9.11,2.55s6.78-.85,8.96-2.55c2.18-1.7,3.28-4.06,3.28-7.08s-1.08-5.38-3.23-7.08Z"/><path d="M376,280h-48c-26.4,0-48,21.6-48,48v48c0,26.4,21.6,48,48,48h48c26.4,0,48-21.6,48-48v-48c0-26.4-21.6-48-48-48Zm-2.55,102.12c-5.27,3.92-12.43,5.88-21.49,5.88s-16.13-1.96-21.4-5.88c-5.27-3.92-7.9-9.28-7.9-16.1,0-4.24,1.17-7.79,3.52-10.65,2.34-2.86,5.64-4.8,9.88-5.83v-.29c-3.15-1.09-5.64-2.94-7.47-5.54-1.83-2.6-2.75-5.6-2.75-9.01,0-5.85,2.3-10.42,6.89-13.73,4.59-3.31,11-4.97,19.23-4.97s14.75,1.66,19.37,4.97c4.63,3.31,6.94,7.89,6.94,13.73,0,3.47-.92,6.5-2.75,9.11-1.83,2.6-4.32,4.42-7.47,5.45v.29c4.24,1.09,7.52,3.05,9.83,5.88,2.31,2.83,3.47,6.36,3.47,10.6,0,6.81-2.64,12.18-7.9,16.1Z"/></g></svg>