<?xml version="1.0" encoding="UTF-8"?><svg id="a" xmlns="http://www.w3.org/2000/svg" viewBox="0 0 512 512"><path d="M280,385c-16.54,0-30-13.46-30-30V156c0-3.31,2.69-6,6-6s6,2.69,6,6v199c0,9.93,8.07,18,18,18s18-8.07,18-18c0-3.31,2.69-6,6-6s6,2.69,6,6c0,16.54-13.46,30-30,30Z"/><g><path d="M251.71,141.07c-64.29,1.81-115.71,44.06-115.71,95.93l12.74-5.85c17.9-8.23,40.87-8.02,58.49,.52l7.81,3.79c-4.88-47.22,27.66-84.93,36.68-94.39Z"/><path d="M260.29,141.07c9.02,9.45,41.56,47.17,36.68,94.39l7.81-3.79c17.61-8.54,40.59-8.75,58.49-.52l12.74,5.85c0-51.87-51.43-94.13-115.71-95.93Z"/><path d="M256,145.3c-8.48,9.06-39.83,45.89-34.91,90.23l3.94-2.02c18.53-9.52,43.41-9.52,61.94,0l3.94,2.02c4.92-44.33-26.43-81.16-34.91-90.23Z"/></g></svg>