<?xml version="1.0" encoding="UTF-8"?><svg id="b" xmlns="http://www.w3.org/2000/svg" xmlns:xlink="http://www.w3.org/1999/xlink" viewBox="0 0 512 512"><defs><style>.d{fill:none;}.e{clip-path:url(#c);}</style><symbol id="a" viewBox="0 0 375 375"><g><path d="M187.5,279c-50.45,0-91.5-41.05-91.5-91.5s41.05-91.5,91.5-91.5,91.5,41.05,91.5,91.5-41.05,91.5-91.5,91.5Zm0-168c-42.18,0-76.5,34.32-76.5,76.5s34.32,76.5,76.5,76.5,76.5-34.32,76.5-76.5-34.32-76.5-76.5-76.5Z"/><path d="M187.5,375c-4.14,0-7.5-3.36-7.5-7.5v-49.66c0-4.14,3.36-7.5,7.5-7.5s7.5,3.36,7.5,7.5v49.66c0,4.14-3.36,7.5-7.5,7.5Zm-127.28-52.72c-1.92,0-3.84-.73-5.3-2.2-2.93-2.93-2.93-7.68,0-10.61l35.11-35.11c2.93-2.93,7.68-2.93,10.61,0s2.93,7.68,0,10.61l-35.11,35.11c-1.46,1.46-3.38,2.2-5.3,2.2Zm254.56,0c-1.92,0-3.84-.73-5.3-2.2l-35.11-35.11c-2.93-2.93-2.93-7.68,0-10.61,2.93-2.93,7.68-2.93,10.61,0l35.11,35.11c2.93,2.93,2.93,7.68,0,10.61-1.46,1.46-3.38,2.2-5.3,2.2ZM7.5,195c-4.14,0-7.5-3.36-7.5-7.5s3.36-7.5,7.5-7.5H57.16c4.14,0,7.5,3.36,7.5,7.5s-3.36,7.5-7.5,7.5H7.5Zm310.34,0c-4.14,0-7.5-3.36-7.5-7.5s3.36-7.5,7.5-7.5h49.66c4.14,0,7.5,3.36,7.5,7.5s-3.36,7.5-7.5,7.5h-49.66ZM95.33,102.83c-1.92,0-3.84-.73-5.3-2.2l-35.11-35.11c-2.93-2.93-2.93-7.68,0-10.61,2.93-2.93,7.68-2.93,10.61,0l35.11,35.11c2.93,2.93,2.93,7.68,0,10.61-1.46,1.46-3.38,2.2-5.3,2.2Zm184.34,0c-1.92,0-3.84-.73-5.3-2.2-2.93-2.93-2.93-7.68,0-10.61l35.11-35.11c2.93-2.93,7.68-2.93,10.61,0,2.93,2.93,2.93,7.68,0,10.61l-35.11,35.11c-1.46,1.46-3.38,2.2-5.3,2.2Zm-92.17-38.18c-4.14,0-7.5-3.36-7.5-7.5V7.5c0-4.14,3.36-7.5,7.5-7.5s7.5,3.36,7.5,7.5V57.16c0,4.14-3.36,7.5-7.5,7.5Z"/></g></symbol><clipPath id="c"><path d="M64,64H448V256h-120.01c-39.76,0-71.99,32.23-71.99,71.99v120.01H64V64Z" style="fill:none;"/></clipPath></defs><g style="clip-path:url(#c);"><use width="375" height="375" transform="translate(68.5 68.5)" xlink:href="#a"/><path d="M261.5,338h-15v-10.02c0-44.93,36.55-81.48,81.48-81.48h10.02v15h-10.02c-36.66,0-66.48,29.82-66.48,66.48v10.02Z"/></g><g><polygon points="335.56 358.45 354.52 358.45 354.52 335.66 354.22 335.66 335.56 358.45"/><path d="M376,280h-48c-26.4,0-48,21.6-48,48v48c0,26.4,21.6,48,48,48h48c26.4,0,48-21.6,48-48v-48c0-26.4-21.6-48-48-48Zm6.66,92.47l-10.59-.3v15.83h-17.55v-15.83l-33.18,.3v-16.34l32.47-40.13h18.35v42.45l10.49-.2v14.22Z"/></g></svg>