<?xml version="1.0" encoding="UTF-8"?><svg id="b" xmlns="http://www.w3.org/2000/svg" xmlns:xlink="http://www.w3.org/1999/xlink" viewBox="0 0 512 512"><defs><style></style><symbol id="a" viewBox="0 0 138 96"><g><path d="M116.44,43.11H6c-3.31,0-6-2.69-6-6s2.69-6,6-6H116.44c5.27,0,9.56-4.29,9.56-9.56s-4.29-9.56-9.56-9.56c-2.62,0-5.07,1.04-6.89,2.94-2.3,2.39-6.09,2.47-8.48,.17-2.39-2.3-2.46-6.09-.17-8.48,4.1-4.27,9.62-6.62,15.54-6.62,11.89,0,21.56,9.67,21.56,21.56s-9.67,21.56-21.56,21.56Z"/><path d="M71.89,96c-5.92,0-11.44-2.35-15.54-6.62-2.3-2.39-2.22-6.19,.17-8.48,2.39-2.3,6.19-2.22,8.48,.17,1.82,1.89,4.27,2.94,6.89,2.94,5.27,0,9.56-4.29,9.56-9.56s-4.29-9.56-9.56-9.56H6.56c-3.31,0-6-2.69-6-6s2.69-6,6-6H71.89c11.89,0,21.56,9.67,21.56,21.56s-9.67,21.56-21.56,21.56Z"/></g></symbol></defs><path d="M202.97,372.96c-7.68,0-15.36-2.92-21.21-8.77-11.7-11.7-11.7-30.73,0-42.43l140-140c2.34-2.34,6.14-2.34,8.49,0s2.34,6.14,0,8.49l-140,140c-7.02,7.02-7.02,18.44,0,25.46,7.02,7.02,18.44,7.02,25.46,0,2.34-2.34,6.14-2.34,8.49,0s2.34,6.14,0,8.49c-5.85,5.85-13.53,8.77-21.21,8.77Z"/><g><path d="M334.24,171.7c-46.74-44.18-112.98-50.66-149.65-13.99l13.15,4.87c18.47,6.84,34.57,23.23,40.99,41.73l2.84,8.2c29.94-36.84,79.61-40.5,92.68-40.81Z"/><path d="M340.3,177.76c-.31,13.06-3.96,62.74-40.8,92.68l8.2,2.84c18.49,6.41,34.88,22.51,41.73,40.99l4.87,13.15c36.68-36.68,30.19-102.92-13.99-149.66Z"/><path d="M295.16,266.21c34.83-27.87,38.71-76.08,39.11-88.48-12.4,.41-60.62,4.28-88.48,39.11l4.22,1.36c19.83,6.37,37.42,23.96,43.8,43.8l1.36,4.22Z"/></g><use width="138" height="96" transform="translate(62.5 201)" xlink:href="#a"/></svg>