<?xml version="1.0" encoding="UTF-8"?><svg id="b" xmlns="http://www.w3.org/2000/svg" xmlns:xlink="http://www.w3.org/1999/xlink" viewBox="0 0 512 512"><defs><style>.d{fill:none;}.e{clip-path:url(#c);}</style><symbol id="a" viewBox="0 0 138 96"><g><path d="M116.44,43.11H6c-3.31,0-6-2.69-6-6s2.69-6,6-6H116.44c5.27,0,9.56-4.29,9.56-9.56s-4.29-9.56-9.56-9.56c-2.62,0-5.07,1.04-6.89,2.94-2.3,2.39-6.09,2.47-8.48,.17-2.39-2.3-2.46-6.09-.17-8.48,4.1-4.27,9.62-6.62,15.54-6.62,11.89,0,21.56,9.67,21.56,21.56s-9.67,21.56-21.56,21.56Z"/><path d="M71.89,96c-5.92,0-11.44-2.35-15.54-6.62-2.3-2.39-2.22-6.19,.17-8.48,2.39-2.3,6.19-2.22,8.48,.17,1.82,1.89,4.27,2.94,6.89,2.94,5.27,0,9.56-4.29,9.56-9.56s-4.29-9.56-9.56-9.56H6.56c-3.31,0-6-2.69-6-6s2.69-6,6-6H71.89c11.89,0,21.56,9.67,21.56,21.56s-9.67,21.56-21.56,21.56Z"/></g></symbol><clipPath id="c"><polygon points="245.68 256.95 74.85 256.95 74.85 396.5 185.68 396.5 212.91 343.55 245.65 306.78 245.68 256.95" style="fill:none;"/></clipPath></defs><g style="clip-path:url(#c);"><path d="M245.68,396.68H114.27c-13.6,0-24.66-11.26-24.66-25.09v-61.97c0-2.49,2.01-4.5,4.5-4.5h10.11c10.95,0,22.37-12.36,28.83-24.62,1.29-2.45,3.8-3.97,6.54-3.97s5.25,1.52,6.54,3.97c6.46,12.25,17.87,24.62,28.82,24.62s22.37-12.36,28.83-24.62c1.29-2.45,3.8-3.97,6.54-3.97s5.25,1.52,6.54,3.97c6.46,12.25,17.87,24.62,28.83,24.62,2.49,0,4.5,2.01,4.5,4.5v82.57c0,2.49-2.01,4.5-4.5,4.5Zm-147.08-82.57v57.47c0,8.87,7.03,16.09,15.66,16.09h126.91v-73.99c-5.94-1.12-11.98-4.4-17.7-9.66-4.87-4.49-9.48-10.36-13.17-16.76-3.69,6.4-8.3,12.27-13.17,16.76-7.17,6.6-14.85,10.09-22.2,10.09s-15.02-3.49-22.19-10.09c-4.87-4.49-9.48-10.36-13.17-16.76-3.69,6.4-8.3,12.27-13.17,16.76-7.17,6.6-14.85,10.09-22.2,10.09h-5.61Z"/></g><g><path d="M353.42,158.32c-.83-5.78-2.88-10.19-4.63-9.96l-1.39,.18c-1.75,.23-2.57,5.03-1.85,10.82l14.05,113.48c.75,6.06,2.89,10.88,4.72,10.63l3.53-.47c1.83-.24,2.63-5.45,1.76-11.5l-16.2-113.2Z"/><path d="M402.92,153.22c-3.13-23.43-25.84-39.73-50.73-36.41-16.77,2.24-30.21,12.82-36.27,26.64-.74,.05-1.47-.02-2.22,.08-18.67,2.49-31.9,18.76-29.56,36.33,1.93,14.49,13.9,25.2,28.49,27.16-.86,2.76-1.16,5.7-.76,8.72,1.56,11.71,12.92,19.87,25.37,18.2,5.67-.76,10.52-3.48,14.04-7.26,7.18,6.64,17.38,10.26,28.22,8.81,18.67-2.49,31.9-18.76,29.56-36.33-1.08-8.11-5.39-14.99-11.45-19.9,4.48-7.72,6.56-16.74,5.31-26.05Z"/></g><path d="M382.49,396.68H183.17l16.24-36.41c11.21-25.15,28.37-46.25,49.6-61.05,21.32-14.85,45.84-22.7,70.92-22.7h62.57c13.41,0,24.31,12.08,24.31,26.92v66.3c0,14.85-10.91,26.93-24.32,26.93Zm-185.45-9h185.45c8.45,0,15.32-8.04,15.32-17.93v-66.3c0-9.88-6.87-17.92-15.31-17.92h-62.57c-23.22,0-45.97,7.29-65.77,21.09-19.89,13.85-35.98,33.68-46.53,57.33l-10.59,23.75Z"/><use width="138" height="96" transform="translate(237 146) rotate(-180) scale(1 -1)" xlink:href="#a"/></svg>