<?xml version="1.0" encoding="UTF-8"?><svg id="b" xmlns="http://www.w3.org/2000/svg" xmlns:xlink="http://www.w3.org/1999/xlink" viewBox="0 0 512 512"><defs><style></style><symbol id="a" viewBox="0 0 342 234"><g><path d="M293,98H9c-4.97,0-9-4.03-9-9s4.03-9,9-9H293c17.09,0,31-13.91,31-31s-13.91-31-31-31c-8.51,0-16.45,3.38-22.35,9.52-3.44,3.58-9.14,3.7-12.73,.25-3.58-3.44-3.7-9.14-.25-12.73,9.33-9.7,21.87-15.05,35.33-15.05,27.02,0,49,21.98,49,49s-21.98,49-49,49Z"/><path d="M177,234c-13.46,0-26-5.34-35.33-15.05-3.44-3.58-3.33-9.28,.25-12.73,3.58-3.44,9.28-3.33,12.73,.25,5.9,6.14,13.84,9.52,22.35,9.52,17.09,0,31-13.91,31-31s-13.91-31-31-31H9c-4.97,0-9-4.03-9-9s4.03-9,9-9H177c27.02,0,49,21.98,49,49s-21.98,49-49,49Z"/></g></symbol></defs><use width="342" height="234" transform="translate(85 139)" xlink:href="#a"/><path d="M411.85,344h-55.7c0-6.26,1.35-11.49,4.05-15.7,2.7-4.08,7.64-8.59,14.82-13.53l10.86-7.7c2.76-1.91,4.72-3.72,5.88-5.43s1.73-3.66,1.73-5.83c0-2.83-.86-5.05-2.57-6.67-1.71-1.61-4.05-2.42-7.01-2.42-6.72,0-10.08,3.92-10.08,11.75v1.48h-16.69v-2.17c0-8.1,2.37-14.42,7.11-18.96,4.74-4.54,11.46-6.82,20.15-6.82s14.88,2.01,19.75,6.02c4.94,4.09,7.41,9.65,7.41,16.69,0,4.54-1.17,8.63-3.51,12.25-2.34,3.62-6.07,7.08-11.21,10.37l-12.15,7.7c-2.31,1.52-3.56,2.8-3.75,3.85h30.91v15.11Z"/></svg>