<?xml version="1.0" encoding="UTF-8"?><svg id="b" xmlns="http://www.w3.org/2000/svg" xmlns:xlink="http://www.w3.org/1999/xlink" viewBox="0 0 512 512"><defs><style>.d{fill:none;}.e{clip-path:url(#c);}</style><symbol id="a" viewBox="0 0 138 96"><g><path d="M116.44,43.11H6c-3.31,0-6-2.69-6-6s2.69-6,6-6H116.44c5.27,0,9.56-4.29,9.56-9.56s-4.29-9.56-9.56-9.56c-2.62,0-5.07,1.04-6.89,2.94-2.3,2.39-6.09,2.47-8.48,.17-2.39-2.3-2.46-6.09-.17-8.48,4.1-4.27,9.62-6.62,15.54-6.62,11.89,0,21.56,9.67,21.56,21.56s-9.67,21.56-21.56,21.56Z"/><path d="M71.89,96c-5.92,0-11.44-2.35-15.54-6.62-2.3-2.39-2.22-6.19,.17-8.48,2.39-2.3,6.19-2.22,8.48,.17,1.82,1.89,4.27,2.94,6.89,2.94,5.27,0,9.56-4.29,9.56-9.56s-4.29-9.56-9.56-9.56H6.56c-3.31,0-6-2.69-6-6s2.69-6,6-6H71.89c11.89,0,21.56,9.67,21.56,21.56s-9.67,21.56-21.56,21.56Z"/></g></symbol><clipPath id="c"><polygon points="245.68 256.95 74.85 256.95 74.85 396.5 185.68 396.5 212.91 343.55 245.65 306.78 245.68 256.95" style="fill:none;"/></clipPath></defs><g style="clip-path:url(#c);"><path d="M245.68,396.68H114.27c-13.6,0-24.66-11.26-24.66-25.09v-61.97c0-2.49,2.01-4.5,4.5-4.5h10.11c10.95,0,22.37-12.36,28.82-24.62,1.29-2.45,3.8-3.97,6.54-3.97s5.25,1.52,6.54,3.97c6.46,12.25,17.87,24.62,28.82,24.62s22.37-12.36,28.83-24.62c1.29-2.45,3.8-3.97,6.54-3.97s5.25,1.52,6.54,3.97c6.46,12.25,17.87,24.62,28.83,24.62,2.49,0,4.5,2.01,4.5,4.5v82.57c0,2.49-2.01,4.5-4.5,4.5Zm-147.08-82.57v57.47c0,8.87,7.03,16.09,15.66,16.09h126.91v-73.99c-5.94-1.12-11.98-4.4-17.7-9.66-4.87-4.49-9.48-10.36-13.17-16.76-3.69,6.4-8.3,12.27-13.17,16.76-7.17,6.6-14.85,10.09-22.2,10.09s-15.02-3.49-22.2-10.09c-4.87-4.49-9.48-10.36-13.17-16.76-3.69,6.4-8.3,12.27-13.17,16.76-7.17,6.6-14.85,10.09-22.2,10.09h-5.61Z"/></g><g><path d="M378.48,160.55c.55-5.72-.42-10.41-2.17-10.59l-1.39-.15c-1.76-.18-3.67,4.2-4.33,9.91l-12.83,111.7c-.69,5.97,.27,11.06,2.1,11.26l3.55,.37c1.84,.19,3.83-4.6,4.4-10.57l10.67-111.92Z"/><path d="M427.78,167.4c2.47-23.51-15.77-44.69-40.75-47.32-16.82-1.77-32.38,5.36-41.52,17.36-.74-.12-1.42-.36-2.17-.44-18.73-1.97-35.42,10.73-37.27,28.36-1.53,14.54,7.58,27.76,21.3,33.1-1.48,2.48-2.47,5.27-2.79,8.29-1.24,11.75,7.89,22.35,20.38,23.66,5.69,.6,11.04-.91,15.35-3.75,5.42,8.15,14.48,14.06,25.36,15.2,18.73,1.97,35.42-10.73,37.27-28.36,.86-8.14-1.71-15.84-6.45-22.04,6.16-6.45,10.31-14.73,11.29-24.07Z"/></g><path d="M382.49,396.68H183.17l16.24-36.41c10.06-22.57,25.11-42.12,43.5-56.53,22.72-17.8,49.35-27.21,77.02-27.21h62.57c13.41,0,24.31,12.08,24.31,26.92v66.3c0,14.85-10.91,26.93-24.32,26.93Zm-185.45-9h185.45c8.45,0,15.32-8.04,15.32-17.93v-66.3c0-9.88-6.87-17.92-15.31-17.92h-62.57c-25.64,0-50.35,8.75-71.47,25.3-17.24,13.51-31.36,31.88-40.83,53.11l-10.59,23.75Z"/><use width="138" height="96" transform="translate(99 146)" xlink:href="#a"/></svg>