<?xml version="1.0" encoding="UTF-8"?><svg id="b" xmlns="http://www.w3.org/2000/svg" xmlns:xlink="http://www.w3.org/1999/xlink" viewBox="0 0 512 512"><defs><style></style><symbol id="a" viewBox="0 0 342 234"><g><path d="M293,98H9c-4.97,0-9-4.03-9-9s4.03-9,9-9H293c17.09,0,31-13.91,31-31s-13.91-31-31-31c-8.51,0-16.45,3.38-22.35,9.52-3.44,3.58-9.14,3.7-12.73,.25-3.58-3.44-3.7-9.14-.25-12.73,9.33-9.7,21.87-15.05,35.33-15.05,27.02,0,49,21.98,49,49s-21.98,49-49,49Z"/><path d="M177,234c-13.46,0-26-5.34-35.33-15.05-3.44-3.58-3.33-9.28,.25-12.73,3.58-3.44,9.28-3.33,12.73,.25,5.9,6.14,13.84,9.52,22.35,9.52,17.09,0,31-13.91,31-31s-13.91-31-31-31H9c-4.97,0-9-4.03-9-9s4.03-9,9-9H177c27.02,0,49,21.98,49,49s-21.98,49-49,49Z"/></g></symbol></defs><use width="342" height="234" transform="translate(85 139)" xlink:href="#a"/><path d="M397.52,305.21c4.62,.83,8.21,2.74,10.78,5.73,2.57,2.98,3.85,6.69,3.85,11.12,0,6.35-2.4,11.61-7.22,15.79-4.88,4.11-11.65,6.16-20.31,6.16s-16.03-2.25-20.94-6.74c-4.91-4.49-7.52-10.68-7.85-18.58h16.46c.39,7.83,4.27,11.74,11.65,11.74,3.27,0,5.86-.8,7.75-2.4,1.89-1.6,2.84-3.79,2.84-6.55s-1-4.97-2.98-6.45c-1.99-1.47-4.81-2.21-8.47-2.21h-4.81v-11.94h5.1c3.02,0,5.34-.67,6.98-2.02,1.64-1.35,2.46-3.27,2.46-5.78s-.82-4.44-2.46-5.82c-1.64-1.38-3.96-2.07-6.98-2.07s-5.2,.74-6.74,2.21c-1.54,1.48-2.44,3.88-2.69,7.22h-15.98c.64-15.08,9.3-22.62,25.99-22.62,7.89,0,14.05,1.73,18.48,5.2,4.43,3.47,6.64,7.89,6.64,13.28,0,3.6-1.01,6.71-3.03,9.34-2.02,2.63-4.86,4.43-8.52,5.39Z"/></svg>