<?xml version="1.0" encoding="UTF-8"?><svg id="b" xmlns="http://www.w3.org/2000/svg" xmlns:xlink="http://www.w3.org/1999/xlink" viewBox="0 0 512 512"><defs><style></style><symbol id="a" viewBox="0 0 342 234"><g><path d="M293,98H9c-4.97,0-9-4.03-9-9s4.03-9,9-9H293c17.09,0,31-13.91,31-31s-13.91-31-31-31c-8.51,0-16.45,3.38-22.35,9.52-3.44,3.58-9.14,3.7-12.73,.25-3.58-3.44-3.7-9.14-.25-12.73,9.33-9.7,21.87-15.05,35.33-15.05,27.02,0,49,21.98,49,49s-21.98,49-49,49Z"/><path d="M177,234c-13.46,0-26-5.34-35.33-15.05-3.44-3.58-3.33-9.28,.25-12.73,3.58-3.44,9.28-3.33,12.73,.25,5.9,6.14,13.84,9.52,22.35,9.52,17.09,0,31-13.91,31-31s-13.91-31-31-31H9c-4.97,0-9-4.03-9-9s4.03-9,9-9H177c27.02,0,49,21.98,49,49s-21.98,49-49,49Z"/></g></symbol></defs><use width="342" height="234" transform="translate(85 139)" xlink:href="#a"/><path d="M249.55,180.67l-5.77-3.36c.52-2.2,.49-4.46-.01-6.61l5.79-3.37c1.94-1.13,2.6-3.62,1.48-5.58-1.12-1.95-3.59-2.62-5.53-1.49l-5.78,3.37c-.79-.75-1.66-1.43-2.64-2-.98-.57-2-.99-3.04-1.31v-6.73c0-2.25-1.81-4.08-4.05-4.08s-4.05,1.83-4.05,4.08v6.74c-2.1,.63-4.05,1.74-5.68,3.29l-5.77-3.36c-1.94-1.13-4.41-.46-5.53,1.49-1.12,1.95-.45,4.45,1.48,5.58l5.77,3.36c-.52,2.2-.49,4.46,.01,6.61l-5.79,3.37c-1.94,1.13-2.6,3.62-1.48,5.58,.75,1.31,2.11,2.04,3.51,2.04,.69,0,1.38-.18,2.02-.55l5.78-3.37c.79,.75,1.66,1.43,2.64,2,.98,.57,2,.98,3.04,1.3v6.74c0,2.25,1.81,4.08,4.05,4.08s4.05-1.83,4.05-4.08v-6.75c2.09-.63,4.04-1.74,5.67-3.29l5.78,3.37c.64,.37,1.33,.55,2.02,.55,1.4,0,2.76-.73,3.51-2.04,1.12-1.95,.45-4.45-1.48-5.58Zm-22.58-1.37c-2.9-1.69-3.9-5.44-2.22-8.36,1.12-1.96,3.17-3.06,5.27-3.06,1.03,0,2.07,.26,3.02,.82,2.9,1.69,3.9,5.44,2.22,8.36-1.67,2.92-5.39,3.92-8.29,2.24Z"/><path d="M393.55,282.67l-5.77-3.36c.52-2.2,.49-4.46-.01-6.61l5.79-3.37c1.94-1.13,2.6-3.62,1.48-5.58-1.12-1.95-3.59-2.62-5.53-1.49l-5.78,3.37c-.79-.75-1.66-1.43-2.64-2-.98-.57-2-.99-3.04-1.31v-6.73c0-2.25-1.81-4.08-4.05-4.08s-4.05,1.83-4.05,4.08v6.74c-2.1,.63-4.05,1.74-5.68,3.29l-5.77-3.36c-1.94-1.13-4.41-.46-5.53,1.49-1.12,1.95-.45,4.45,1.48,5.58l5.77,3.36c-.52,2.2-.49,4.46,.01,6.61l-5.79,3.37c-1.94,1.13-2.6,3.62-1.48,5.58,.75,1.31,2.11,2.04,3.51,2.04,.69,0,1.38-.18,2.02-.55l5.78-3.37c.79,.75,1.66,1.43,2.64,2,.98,.57,2,.98,3.04,1.3v6.74c0,2.25,1.81,4.08,4.05,4.08s4.05-1.83,4.05-4.08v-6.75c2.09-.63,4.04-1.74,5.67-3.29l5.78,3.37c.64,.37,1.33,.55,2.02,.55,1.4,0,2.76-.73,3.51-2.04,1.12-1.95,.45-4.45-1.48-5.58Zm-22.58-1.37c-2.9-1.69-3.9-5.44-2.22-8.36,1.12-1.96,3.17-3.06,5.27-3.06,1.03,0,2.07,.26,3.02,.82,2.9,1.69,3.9,5.44,2.22,8.36-1.67,2.92-5.39,3.92-8.29,2.24Z"/><path d="M163.55,340.67l-5.77-3.36c.52-2.2,.49-4.46-.01-6.61l5.79-3.37c1.94-1.13,2.6-3.62,1.48-5.58-1.12-1.95-3.59-2.62-5.53-1.49l-5.78,3.37c-.79-.75-1.66-1.43-2.64-2-.98-.57-2-.99-3.04-1.31v-6.73c0-2.25-1.81-4.08-4.05-4.08s-4.05,1.83-4.05,4.08v6.74c-2.1,.63-4.05,1.74-5.68,3.29l-5.77-3.36c-1.94-1.13-4.41-.46-5.53,1.49-1.12,1.95-.45,4.45,1.48,5.58l5.77,3.36c-.52,2.2-.49,4.46,.01,6.61l-5.79,3.37c-1.94,1.13-2.6,3.62-1.48,5.58,.75,1.31,2.11,2.04,3.51,2.04,.69,0,1.38-.18,2.02-.55l5.78-3.37c.79,.75,1.66,1.43,2.64,2,.98,.57,2,.98,3.04,1.3v6.74c0,2.25,1.81,4.08,4.05,4.08s4.05-1.83,4.05-4.08v-6.75c2.09-.63,4.04-1.74,5.67-3.29l5.78,3.37c.64,.37,1.33,.55,2.02,.55,1.4,0,2.76-.73,3.51-2.04,1.12-1.95,.45-4.45-1.48-5.58Zm-22.58-1.37c-2.9-1.69-3.9-5.44-2.22-8.36,1.12-1.96,3.17-3.06,5.27-3.06,1.03,0,2.07,.26,3.02,.82,2.9,1.69,3.9,5.44,2.22,8.36-1.67,2.92-5.39,3.92-8.29,2.24Z"/></svg>