<?xml version="1.0" encoding="UTF-8"?><svg id="b" xmlns="http://www.w3.org/2000/svg" xmlns:xlink="http://www.w3.org/1999/xlink" viewBox="0 0 512 512"><defs><style></style><symbol id="a" viewBox="0 0 342 234"><g><path d="M293,98H9c-4.97,0-9-4.03-9-9s4.03-9,9-9H293c17.09,0,31-13.91,31-31s-13.91-31-31-31c-8.51,0-16.45,3.38-22.35,9.52-3.44,3.58-9.14,3.7-12.73,.25-3.58-3.44-3.7-9.14-.25-12.73,9.33-9.7,21.87-15.05,35.33-15.05,27.02,0,49,21.98,49,49s-21.98,49-49,49Z"/><path d="M177,234c-13.46,0-26-5.34-35.33-15.05-3.44-3.58-3.33-9.28,.25-12.73,3.58-3.44,9.28-3.33,12.73,.25,5.9,6.14,13.84,9.52,22.35,9.52,17.09,0,31-13.91,31-31s-13.91-31-31-31H9c-4.97,0-9-4.03-9-9s4.03-9,9-9H177c27.02,0,49,21.98,49,49s-21.98,49-49,49Z"/></g></symbol></defs><use width="342" height="234" transform="translate(85 139)" xlink:href="#a"/><path d="M403.42,279.71c6.42,6.04,9.64,15.23,9.64,27.57,0,11.7-2.56,20.74-7.66,27.13-5.11,6.39-12.55,9.59-22.31,9.59-6.75,0-12.35-1.53-16.82-4.58-4.47-3.05-7.44-7.34-8.91-12.87l16.58-1.06c1.41,3.66,4.5,5.49,9.25,5.49,3.92,0,6.92-1.33,9.01-4,2.09-2.66,3.36-6.99,3.81-12.96-3.98,4.76-9.51,7.13-16.58,7.13s-13.14-2.15-17.64-6.46c-4.56-4.37-6.84-10.12-6.84-17.25,0-7.52,2.57-13.65,7.71-18.41,5.08-4.69,11.79-7.04,20.15-7.04s15.29,2.57,20.63,7.71Zm-19.95,28.53c3.34,0,6.04-1.03,8.1-3.08,2.06-2.06,3.18-4.82,3.37-8.29-.19-2.96-1.13-5.37-2.79-7.23-2.19-2.51-5.14-3.76-8.87-3.76s-6.28,1.05-8.24,3.13c-1.96,2.09-2.94,4.77-2.94,8.05s1.04,6.04,3.13,8.1c2.09,2.06,4.83,3.08,8.24,3.08Z"/></svg>