<?xml version="1.0" encoding="UTF-8"?><svg id="b" xmlns="http://www.w3.org/2000/svg" xmlns:xlink="http://www.w3.org/1999/xlink" viewBox="0 0 512 512"><defs><style></style><symbol id="a" viewBox="0 0 342 234"><g><path d="M293,98H9c-4.97,0-9-4.03-9-9s4.03-9,9-9H293c17.09,0,31-13.91,31-31s-13.91-31-31-31c-8.51,0-16.45,3.38-22.35,9.52-3.44,3.58-9.14,3.7-12.73,.25-3.58-3.44-3.7-9.14-.25-12.73,9.33-9.7,21.87-15.05,35.33-15.05,27.02,0,49,21.98,49,49s-21.98,49-49,49Z"/><path d="M177,234c-13.46,0-26-5.34-35.33-15.05-3.44-3.58-3.33-9.28,.25-12.73,3.58-3.44,9.28-3.33,12.73,.25,5.9,6.14,13.84,9.52,22.35,9.52,17.09,0,31-13.91,31-31s-13.91-31-31-31H9c-4.97,0-9-4.03-9-9s4.03-9,9-9H177c27.02,0,49,21.98,49,49s-21.98,49-49,49Z"/></g></symbol></defs><use width="342" height="234" transform="translate(85 139)" xlink:href="#a"/><path d="M405.45,338.12c-5.27,3.92-12.43,5.88-21.49,5.88s-16.13-1.96-21.4-5.88c-5.27-3.92-7.9-9.28-7.9-16.1,0-4.24,1.17-7.79,3.52-10.65,2.34-2.86,5.64-4.8,9.88-5.83v-.29c-3.15-1.09-5.64-2.94-7.47-5.54-1.83-2.6-2.75-5.6-2.75-9.01,0-5.85,2.3-10.42,6.89-13.73,4.59-3.31,11-4.97,19.23-4.97s14.75,1.66,19.37,4.97c4.63,3.31,6.94,7.89,6.94,13.73,0,3.47-.92,6.5-2.75,9.11-1.83,2.6-4.32,4.42-7.47,5.45v.29c4.24,1.09,7.52,3.05,9.83,5.88,2.31,2.83,3.47,6.36,3.47,10.6,0,6.81-2.64,12.18-7.9,16.1Zm-21.4-7.04c3.79,0,6.78-.85,8.96-2.55,2.18-1.7,3.28-4.06,3.28-7.08s-1.08-5.38-3.23-7.08c-2.16-1.7-5.16-2.55-9.01-2.55s-6.97,.85-9.16,2.55c-2.19,1.7-3.28,4.07-3.28,7.08s1.11,5.38,3.33,7.08c2.22,1.7,5.25,2.55,9.11,2.55Zm0-30.36c3.34,0,5.96-.74,7.86-2.22,1.89-1.48,2.84-3.53,2.84-6.17s-.93-4.55-2.8-5.93c-1.86-1.38-4.5-2.07-7.9-2.07-7.2,0-10.79,2.67-10.79,8,0,2.64,.95,4.69,2.84,6.17,1.89,1.48,4.55,2.22,7.95,2.22Z"/></svg>