<?xml version="1.0" encoding="UTF-8"?><svg id="b" xmlns="http://www.w3.org/2000/svg" xmlns:xlink="http://www.w3.org/1999/xlink" viewBox="0 0 512 512"><defs><style></style><symbol id="a" viewBox="0 0 342 234"><g><path d="M293,98H9c-4.97,0-9-4.03-9-9s4.03-9,9-9H293c17.09,0,31-13.91,31-31s-13.91-31-31-31c-8.51,0-16.45,3.38-22.35,9.52-3.44,3.58-9.14,3.7-12.73,.25-3.58-3.44-3.7-9.14-.25-12.73,9.33-9.7,21.87-15.05,35.33-15.05,27.02,0,49,21.98,49,49s-21.98,49-49,49Z"/><path d="M177,234c-13.46,0-26-5.34-35.33-15.05-3.44-3.58-3.33-9.28,.25-12.73,3.58-3.44,9.28-3.33,12.73,.25,5.9,6.14,13.84,9.52,22.35,9.52,17.09,0,31-13.91,31-31s-13.91-31-31-31H9c-4.97,0-9-4.03-9-9s4.03-9,9-9H177c27.02,0,49,21.98,49,49s-21.98,49-49,49Z"/></g></symbol></defs><use width="342" height="234" transform="translate(85 139)" xlink:href="#a"/><path d="M383.8,344c-8.02,0-14.58-1.84-19.68-5.52-5.1-3.68-8.1-8.91-9.03-15.68l17.56-1.38c.59,2.63,1.86,4.65,3.8,6.07,1.94,1.41,4.35,2.12,7.25,2.12,3.55,0,6.36-1,8.43-3.01,2.07-2,3.11-4.65,3.11-7.94s-1.04-5.84-3.11-7.84c-2.07-2-4.88-3.01-8.43-3.01-3.95,0-7.2,1.41-9.76,4.24l-16.57-1.48,6.41-38.56h44.19v14.69h-30.87l-2.27,12.03,.29,.2c3.68-2.69,8.42-4.04,14.2-4.04,7.1,0,12.79,2.1,17.06,6.31,4.34,4.21,6.51,9.9,6.51,17.06,0,7.89-2.6,14.14-7.79,18.74-5.26,4.67-12.36,7-21.3,7Z"/></svg>