<?xml version="1.0" encoding="UTF-8"?><svg id="b" xmlns="http://www.w3.org/2000/svg" xmlns:xlink="http://www.w3.org/1999/xlink" viewBox="0 0 512 512"><defs><style></style><symbol id="a" viewBox="0 0 342 234"><g><path d="M293,98H9c-4.97,0-9-4.03-9-9s4.03-9,9-9H293c17.09,0,31-13.91,31-31s-13.91-31-31-31c-8.51,0-16.45,3.38-22.35,9.52-3.44,3.58-9.14,3.7-12.73,.25-3.58-3.44-3.7-9.14-.25-12.73,9.33-9.7,21.87-15.05,35.33-15.05,27.02,0,49,21.98,49,49s-21.98,49-49,49Z"/><path d="M177,234c-13.46,0-26-5.34-35.33-15.05-3.44-3.58-3.33-9.28,.25-12.73,3.58-3.44,9.28-3.33,12.73,.25,5.9,6.14,13.84,9.52,22.35,9.52,17.09,0,31-13.91,31-31s-13.91-31-31-31H9c-4.97,0-9-4.03-9-9s4.03-9,9-9H177c27.02,0,49,21.98,49,49s-21.98,49-49,49Z"/></g></symbol></defs><use width="342" height="234" transform="translate(85 139)" xlink:href="#a"/><path d="M388.48,294.81c7.32,0,13.22,2.15,17.71,6.45,4.56,4.37,6.83,10.14,6.83,17.33s-2.57,13.64-7.7,18.38c-5.13,4.68-11.87,7.03-20.21,7.03s-15.27-2.57-20.6-7.7c-6.35-6.03-9.53-15.24-9.53-27.63,0-11.68,2.55-20.71,7.65-27.1,5.1-6.38,12.5-9.58,22.19-9.58,6.74,0,12.34,1.53,16.8,4.57,4.46,3.05,7.46,7.36,9,12.95l-16.65,.96c-1.41-3.66-4.49-5.49-9.24-5.49-3.98,0-6.98,1.33-9,3.99-2.02,2.66-3.26,7.01-3.71,13.04,3.85-4.81,9.34-7.22,16.46-7.22Zm-12.71,31.57c2.31,2.5,5.26,3.75,8.86,3.75s6.35-1.09,8.28-3.27c1.93-2.25,2.89-4.91,2.89-7.99,0-3.27-1.06-5.93-3.18-7.99-2.12-2.05-4.84-3.08-8.18-3.08s-6.03,1.01-8.09,3.03c-2.05,2.02-3.18,4.76-3.37,8.23,.19,2.89,1.12,5.33,2.79,7.31Z"/></svg>