<?xml version="1.0" encoding="UTF-8"?><svg id="a" xmlns="http://www.w3.org/2000/svg" viewBox="0 0 512 512"><path d="M148,388c-6.63,0-12-5.37-12-12V136c0-6.63,5.37-12,12-12s12,5.37,12,12v240c0,6.63-5.37,12-12,12Z"/><path d="M239.69,154.68l-22.8-18c-3.05-2.41-7.54-1.55-9.49,1.82l-41.03,71.07c-1.95,3.37-.45,7.68,3.17,9.12l26.99,10.74c2.95,1.17,6.31,0,7.89-2.74l36.84-63.81c1.59-2.75,.92-6.24-1.57-8.2Z"/><path d="M285.18,210.62l-17.36-23.29c-2.33-3.12-6.88-3.45-9.63-.7l-45.19,45.19c-2.75,2.75-2.42,7.31,.7,9.63l23.29,17.36c2.54,1.9,6.09,1.64,8.33-.6l39.26-39.26c2.24-2.24,2.5-5.79,.6-8.33Z"/><path d="M310.54,271.16l-10.74-26.99c-1.44-3.62-5.75-5.11-9.12-3.17l-39.62,22.88c-3.37,1.95-4.23,6.43-1.82,9.49l18,22.8c1.96,2.49,5.46,3.16,8.2,1.57l32.36-18.69c2.75-1.58,3.91-4.94,2.74-7.89Z"/></svg>