<?xml version="1.0" encoding="UTF-8"?><svg id="a" xmlns="http://www.w3.org/2000/svg" viewBox="0 0 512 512"><path d="M148,388c-6.63,0-12-5.37-12-12V136c0-6.63,5.37-12,12-12s12,5.37,12,12v240c0,6.63-5.37,12-12,12Z"/><path d="M191.41,137.06l28.74,4.19c3.14,.46,5.46,3.15,5.46,6.32v73.68c0,3.17-2.33,5.86-5.46,6.32l-28.74,4.19c-3.85,.56-7.31-2.43-7.31-6.32v-82.06c0-3.89,3.45-6.88,7.31-6.32Z"/><path d="M260.6,146.14l28.74,4.19c3.14,.46,5.46,3.15,5.46,6.32v55.53c0,3.17-2.33,5.86-5.46,6.32l-28.74,4.19c-3.85,.56-7.31-2.43-7.31-6.32v-63.91c0-3.89,3.45-6.88,7.31-6.32Z"/><path d="M329.79,155.22l28.74,4.19c3.14,.46,5.46,3.15,5.46,6.32v37.37c0,3.17-2.33,5.86-5.46,6.32l-28.74,4.19c-3.85,.56-7.31-2.43-7.31-6.32v-45.75c0-3.89,3.45-6.88,7.31-6.32Z"/></svg>