<svg xmlns="http://www.w3.org/2000/svg" viewBox="0 0 64 64">
	<defs>
		<style>.cls-1{fill:#f4a71d;}.cls-2{fill:none;stroke:#f4a71d;stroke-linecap:round;stroke-miterlimit:10;stroke-width:3px;}</style>
	</defs>
	<g id="sun">
		<path class="cls-1" d="M32,22.59A9.41,9.41,0,1,1,22.59,32,9.42,9.42,0,0,1,32,22.59m0-3A12.41,12.41,0,1,0,44.41,32,12.4,12.4,0,0,0,32,19.59Z"/>
		<line class="cls-2" x1="32" y1="14.62" x2="32" y2="8"/>
		<line class="cls-2" x1="32" y1="56" x2="32" y2="49.38"/>
		<line class="cls-2" x1="44.29" y1="19.71" x2="48.97" y2="15.03"/>
		<line class="cls-2" x1="15.03" y1="48.97" x2="19.71" y2="44.29"/>
		<line class="cls-2" x1="19.71" y1="19.71" x2="15.03" y2="15.03"/>
		<line class="cls-2" x1="48.97" y1="48.97" x2="44.29" y2="44.29"/>
		<line class="cls-2" x1="14.62" y1="32" x2="8" y2="32"/>
		<line class="cls-2" x1="56" y1="32" x2="49.38" y2="32"/>

		<animateTransform attributeName="transform" type="rotate" from="0 32 32" to="360 32 32" dur="45s" repeatCount="indefinite"/>
	</g>
</svg>
