<svg xmlns="http://www.w3.org/2000/svg" viewBox="0 0 64 64">
	<defs>
		<style>.cls-1{fill:#efefef;}</style>
	</defs>
	<path id="cloud" class="cls-1" d="M47.26,47.8h-30a9.29,9.29,0,0,1-2.91-18.12V29.4a8.51,8.51,0,0,1,8.47-8.47,8.76,8.76,0,0,1,3.37.73,12.22,12.22,0,0,1,22.4,6.74,18,18,0,0,1-.18,2.19A8.65,8.65,0,0,1,56,39.15,8.84,8.84,0,0,1,47.26,47.8ZM22.85,23.39a6.08,6.08,0,0,0-6,6,3.78,3.78,0,0,0,.1,1l.18,1.18-1.19.18a6.92,6.92,0,0,0-5.55,6.74,6.81,6.81,0,0,0,6.83,6.83h30a6.19,6.19,0,0,0,0-12.38h-.28l-1.82.09.55-1.73a11.67,11.67,0,0,0,.45-3,9.77,9.77,0,0,0-18.4-4.55L27,24.94l-1.1-.64A5.4,5.4,0,0,0,22.85,23.39Z"/>
	<animateTransform attributeName="transform" type="translate" values="-8 0; 8 0; -8 0" dur="5s" repeatCount="indefinite"/>
</svg>
