<svg xmlns="http://www.w3.org/2000/svg" viewBox="0 0 64 64"><defs><clipPath id="a"><path fill="none" d="M10.55 34.21l-3.83-3.42-2-6 1-7 4-5 5-3h6l5 1 3 3 2.56 4.36-4.56 4.64h-5l-5 5v3l-6.17 3.42z"/></clipPath><clipPath id="b"><path fill="none" d="M42 64l2.85-17h-23.8L17 64"/></clipPath></defs><g clip-path="url(#a)"><g><path fill="none" stroke="#72b9d5" stroke-linecap="round" stroke-linejoin="round" stroke-width="2" d="M29.33 27.13A10.6 10.6 0 0118.65 16.6 10.44 10.44 0 0119 14a10.54 10.54 0 1011.5 13.07 11.46 11.46 0 01-1.17.06z"/><animateTransform attributeName="transform" dur="10s" repeatCount="indefinite" type="rotate" values="-10 19.22 24.293;10 19.22 24.293;-10 19.22 24.293"/></g></g><path fill="none" stroke="#efefef" stroke-linejoin="round" stroke-width="3" d="M46.5 31.5h-.32a10.49 10.49 0 00-19.11-8 7 7 0 00-10.57 6 7.21 7.21 0 00.1 1.14A7.5 7.5 0 0018 45.5a4.19 4.19 0 00.5 0v0h28a7 7 0 000-14z"/><g clip-path="url(#b)"><g><path fill="none" stroke="#2885c7" stroke-linecap="round" stroke-miterlimit="10" stroke-width="2" d="M24.52 49.05l-1.04 5.9"/><animateTransform attributeName="transform" dur="0.5s" repeatCount="indefinite" type="translate" values="2 -10; -2 10"/><animate attributeName="opacity" dur="0.5s" repeatCount="indefinite" values="1;1;0"/></g><g><path fill="none" stroke="#2885c7" stroke-linecap="round" stroke-miterlimit="10" stroke-width="2" d="M31.52 49.05l-1.04 5.9"/><animateTransform attributeName="transform" begin="-0.3s" dur="0.5s" repeatCount="indefinite" type="translate" values="2 -10; -2 10"/><animate attributeName="opacity" begin="-0.3s" dur="0.5s" repeatCount="indefinite" values="1;1;0"/></g><g><path fill="none" stroke="#2885c7" stroke-linecap="round" stroke-miterlimit="10" stroke-width="2" d="M38.52 49.05l-1.04 5.9"/><animateTransform attributeName="transform" begin="-0.1s" dur="0.5s" repeatCount="indefinite" type="translate" values="2 -10; -2 10"/><animate attributeName="opacity" begin="-0.1s" dur="0.5s" repeatCount="indefinite" values="1;1;0"/></g></g></svg>