<svg xmlns="http://www.w3.org/2000/svg" viewBox="0 0 64 64"><defs><clipPath id="a"><path fill="none" d="M12.55 35.21l-3.83-3.42-2-6 1-7 4-5 5-3h6l5 1 3 3 2.56 4.36-4.56 4.64h-5l-5 5v3l-6.17 3.42z"/></clipPath></defs><g clip-path="url(#a)"><g><path fill="#f4a71d" d="M21.22 21.34a3.95 3.95 0 11-3.95 3.95 4 4 0 013.95-3.95m0-2a5.95 5.95 0 106 5.95 6 6 0 00-6-5.95z"/><path fill="none" stroke="#f4a71d" stroke-linecap="round" stroke-miterlimit="10" stroke-width="2" d="M21.22 16.97v-3.18M21.22 36.79v-3.17M27.11 19.4l2.24-2.24M13.09 33.42l2.24-2.24M15.33 19.4l-2.24-2.24M29.35 33.42l-2.24-2.24M12.89 25.29H9.72M32.72 25.29h-3.17"/><animateTransform attributeName="transform" dur="45s" from="0 21.22 25.293" repeatCount="indefinite" to="360 21.22 25.293" type="rotate"/></g></g><path fill="#efefef" d="M48.91 31.67a15.89 15.89 0 00.17-2.06 11.45 11.45 0 00-20.61-6.85c-.14.18-.27.36-.39.53a8.23 8.23 0 00-3.16-.68 8 8 0 00-6.9 4 7.81 7.81 0 00-1 3.9v.26h-.09a8.71 8.71 0 002.78 17.03h28.1A8.29 8.29 0 0056 39.69a8.1 8.1 0 00-7.09-8.02zm-1.19 13.82H19.63a6.39 6.39 0 01-6.41-6.4 6.49 6.49 0 015.2-6.32l1.12-.17-.17-1.1a3.74 3.74 0 01-.09-.95 5.11 5.11 0 01.3-1.75 5.69 5.69 0 015.34-3.88 5.07 5.07 0 012.9.85l.7.41.33.19.59-1.11a9.16 9.16 0 0117.25 4.27 11.07 11.07 0 01-.42 2.82L45.75 34l1.71-.08h.26a5.8 5.8 0 110 11.6z"/></svg>