<svg xmlns="http://www.w3.org/2000/svg" viewBox="0 0 64 64">
	<defs>
		<style>.cls-1{fill:#efefef;}</style>
	</defs>
	<path class="cls-1" d="M48.14,17a6.57,6.57,0,0,0-4.84,1.92A1.87,1.87,0,1,0,46,21.57a2.81,2.81,0,1,1,2,4.8H11.38a1.88,1.88,0,1,0,0,3.75H47.94a6.56,6.56,0,0,0,3.28-12.24A6.47,6.47,0,0,0,48.14,17ZM11.37,33.88a1.88,1.88,0,0,0,0,3.75H32.94a2.81,2.81,0,1,1-2,4.8,1.87,1.87,0,1,0-2.65,2.65,6.56,6.56,0,1,0,4.64-11.2Z"/>
	<animateTransform attributeName="transform" type="translate" values="-8 5; 0 -5; 8 0; -8 5" dur="2s" repeatCount="indefinite"/>
</svg>
