<svg xmlns="http://www.w3.org/2000/svg" viewBox="0 0 64 64">
	<g>
		<path d="M48.86,34.78c-10.48,0-22-8.29-16.77-21.78h0a18.83,18.83,0,0,0-19,19A19.06,19.06,0,0,0,51,34.87,11.24,11.24,0,0,0,48.86,34.78Zm-16.5,13.4A16.3,16.3,0,0,1,16.05,31.86,16.7,16.7,0,0,1,28.17,16.1v.09c-1.64,11.39,6.47,21,18.87,22.05h0C43.85,44.44,39.47,47.9,32.36,48.18Z" fill="#72b8d4"/>
		<animateTransform attributeName="transform" type="rotate" values="-5 32 32;15 32 32;-5 32 32" dur="10s" repeatCount="indefinite"/>
	</g>
</svg>
