<svg xmlns="http://www.w3.org/2000/svg" viewBox="0 0 64 64">
	<g>
		<path d="M46.3,46.81H18.21a8.74,8.74,0,0,1-8.71-8.7,8.84,8.84,0,0,1,6-8.29v-.25a7.89,7.89,0,0,1,11.1-7.26,11.46,11.46,0,0,1,21,6.32,15.89,15.89,0,0,1-.17,2.05,8.1,8.1,0,0,1,7.09,8A8.3,8.3,0,0,1,46.3,46.81ZM23.42,23.93a5.69,5.69,0,0,0-5.64,5.64,3.7,3.7,0,0,0,.09.94L18,31.62l-1.11.17a6.48,6.48,0,0,0-5.21,6.32,6.39,6.39,0,0,0,6.4,6.4h28.1a5.81,5.81,0,0,0,0-11.61H46L44.25,33l.52-1.62a11,11,0,0,0,.42-2.82,9.16,9.16,0,0,0-17.25-4.27l-.59,1.11-1-.6A5.07,5.07,0,0,0,23.42,23.93Z" fill="#efefef"/>
		<animateTransform attributeName="transform" type="translate" values="-3 0; 3 0; -3 0" dur="7s" repeatCount="indefinite"/>
	</g>
</svg>
