<svg xmlns="http://www.w3.org/2000/svg" viewBox="0 0 64 64">
	<defs>
		<clipPath id="a">
			<rect y="6" width="64" height="36" fill="none"/>
		</clipPath>
	</defs>
	<g clip-path="url(#a)">
		<g>
			<path d="M32,26.36A8.64,8.64,0,1,1,23.36,35,8.66,8.66,0,0,1,32,26.36m0-3A11.64,11.64,0,1,0,43.64,35,11.64,11.64,0,0,0,32,23.36Z" fill="#f4a71d"/>
			<line x1="32" y1="18.71" x2="32" y2="12.5" fill="none" stroke="#f4a71d" stroke-linecap="round" stroke-miterlimit="10" stroke-width="3"/>
			<line x1="32" y1="57.5" x2="32" y2="51.29" fill="none" stroke="#f4a71d" stroke-linecap="round" stroke-miterlimit="10" stroke-width="3"/>
			<line x1="43.52" y1="23.48" x2="47.91" y2="19.09" fill="none" stroke="#f4a71d" stroke-linecap="round" stroke-miterlimit="10" stroke-width="3"/>
			<line x1="16.09" y1="50.91" x2="20.48" y2="46.52" fill="none" stroke="#f4a71d" stroke-linecap="round" stroke-miterlimit="10" stroke-width="3"/>
			<line x1="20.48" y1="23.48" x2="16.09" y2="19.09" fill="none" stroke="#f4a71d" stroke-linecap="round" stroke-miterlimit="10" stroke-width="3"/>
			<line x1="47.91" y1="50.91" x2="43.52" y2="46.52" fill="none" stroke="#f4a71d" stroke-linecap="round" stroke-miterlimit="10" stroke-width="3"/>
			<line x1="15.71" y1="35" x2="9.5" y2="35" fill="none" stroke="#f4a71d" stroke-linecap="round" stroke-miterlimit="10" stroke-width="3"/>
			<line x1="54.5" y1="35" x2="48.29" y2="35" fill="none" stroke="#f4a71d" stroke-linecap="round" stroke-miterlimit="10" stroke-width="3"/>

			<animateTransform attributeName="transform" type="rotate" from="0 32 35" to="360 32 35" dur="45s" repeatCount="indefinite"/>
		</g>
	</g>
	<line x1="12.5" y1="45" x2="51.5" y2="45" fill="none" stroke="#2885c7" stroke-linecap="round" stroke-miterlimit="10" stroke-width="2"/>
	<line x1="15.5" y1="49" x2="48.5" y2="49" fill="none" stroke="#2885c7" stroke-linecap="round" stroke-miterlimit="10" stroke-width="2"/>
</svg>
