<svg xmlns="http://www.w3.org/2000/svg" xmlns:xlink="http://www.w3.org/1999/xlink" viewBox="0 0 512 512">
    <defs>
        <clipPath id="a">
            <path d="M357,338.64l-46.66-86-46-84.8a9.51,9.51,0,0,0-16.74,0l-46,84.8-46.66,86a9.59,9.59,0,0,0,8.37,14.19h185.3A9.59,9.59,0,0,0,357,338.64Z" fill="none"/>
        </clipPath>
        <linearGradient id="b" x1="173.47" y1="108.66" x2="338.53" y2="394.54" gradientUnits="userSpaceOnUse">
            <stop offset="0" stop-color="#86c3db"/>
            <stop offset="0.45" stop-color="#86c3db"/>
            <stop offset="1" stop-color="#5eafcf"/>
        </linearGradient>
        <linearGradient id="c" x1="275.16" y1="310.57" x2="317.71" y2="384.28" gradientUnits="userSpaceOnUse">
            <stop offset="0" stop-color="#f3f7fe"/>
            <stop offset="0.45" stop-color="#f3f7fe"/>
            <stop offset="1" stop-color="#deeafb"/>
        </linearGradient>
        <linearGradient id="d" x1="1539.31" y1="-9777.4" x2="1560.75" y2="-9740.27" gradientTransform="matrix(0.86, -0.52, 0.18, 0.29, 681.78, 3920.38)" xlink:href="#c"/>
        <linearGradient id="e" x1="289.09" y1="274.61" x2="295.14" y2="285.09" xlink:href="#c"/>
        <linearGradient id="f" x1="196.8" y1="310.94" x2="202.84" y2="321.41" xlink:href="#c"/>
        <linearGradient id="g" x1="2269.95" y1="-3457.9" x2="2296.63" y2="-3411.69" gradientTransform="translate(841.46 4372.33) rotate(-42)" xlink:href="#c"/>
    </defs>
    <path d="M381,340.15l-52.79-97.34-51.07-94.18a24,24,0,0,0-42.32,0l-51.07,94.18L131,340.15C122.22,356.3,133.84,376,152.14,376H359.86C378.16,376,389.78,356.3,381,340.15Z" fill="#ef4444"/>
    <g clip-path="url(#a)">
        <rect x="135.61" y="130.51" width="240.78" height="242.17" fill="url(#b)"/>
        <polygon points="356.32 263.71 358.2 360.9 195.81 360.57 356.32 263.71" stroke="#e6effc" stroke-miterlimit="10" stroke-width="4" fill="url(#c)"/>
        <path d="M303.83,252.58,278,268.17a1,1,0,0,1-1.38-.35L272,260.08a1,1,0,0,1,.35-1.4l25.78-15.58a1,1,0,0,1,1.39.35l4.62,7.74A1,1,0,0,1,303.83,252.58Z" stroke="#e6effc" stroke-miterlimit="10" stroke-width="2" opacity="0.5" fill="url(#d)"/>
        <ellipse cx="292.12" cy="279.85" rx="6.02" ry="6.05" stroke="#e6effc" stroke-miterlimit="10" stroke-width="2" fill="url(#e)"/>
        <ellipse cx="199.82" cy="316.18" rx="6.02" ry="6.05" stroke="#e6effc" stroke-miterlimit="10" stroke-width="2" fill="url(#f)"/>
        <path d="M266.8,294.8,240,319.11a2,2,0,0,1-2.82-.14L213,292a2,2,0,0,1,.15-2.84L240,264.8a2,2,0,0,1,2.82.15L267,292A2,2,0,0,1,266.8,294.8Z" stroke="#e6effc" stroke-miterlimit="10" stroke-width="2" fill="url(#g)"/>
    </g>
</svg>
