<svg xmlns="http://www.w3.org/2000/svg" xmlns:xlink="http://www.w3.org/1999/xlink" viewBox="0 0 512 512">
    <defs>
        <symbol id="a" viewBox="0 0 359 231">
            <path d="M295.5,223.5a56,56,0,0,0,0-112c-.85,0-1.68.09-2.53.13A83.9,83.9,0,0,0,140.1,47.42,55.91,55.91,0,0,0,55.5,95.5a56.56,56.56,0,0,0,.8,9.08A60,60,0,0,0,67.5,223.5" fill="none" stroke="#e2e8f0" stroke-linecap="round" stroke-linejoin="round" stroke-width="15"/>
        </symbol>
    </defs>
    <use width="359" height="231" transform="translate(76.5 140.5)" xlink:href="#a"/>
    <path d="M372.5,247a4.59,4.59,0,0,1-3.18-1.26L350,227.34l-19.32,18.4a4.64,4.64,0,0,1-6.36,0,4.14,4.14,0,0,1,0-6.06l22.5-21.42a4.64,4.64,0,0,1,6.36,0l22.5,21.42a4.14,4.14,0,0,1,0,6.06A4.59,4.59,0,0,1,372.5,247Z" fill="#374151"/>
    <path d="M372.5,274a4.59,4.59,0,0,1-3.18-1.26L350,254.34l-19.32,18.4a4.64,4.64,0,0,1-6.36,0,4.14,4.14,0,0,1,0-6.06l22.5-21.42a4.64,4.64,0,0,1,6.36,0l22.5,21.42a4.14,4.14,0,0,1,0,6.06A4.59,4.59,0,0,1,372.5,274Z" fill="#374151"/>
    <path d="M372.5,301a4.59,4.59,0,0,1-3.18-1.26L350,281.34l-19.32,18.4a4.64,4.64,0,0,1-6.36,0,4.14,4.14,0,0,1,0-6.06l22.5-21.42a4.64,4.64,0,0,1,6.36,0l22.5,21.42a4.14,4.14,0,0,1,0,6.06A4.59,4.59,0,0,1,372.5,301Z" fill="#374151"/>
</svg>
