<svg xmlns="http://www.w3.org/2000/svg" viewBox="0 0 512 512">
    <path d="M381,340.13,328.24,242.8l-51.07-94.16a24.05,24.05,0,0,0-42.34,0L183.76,242.8,131,340.13c-8.77,16.16,2.86,35.87,21.17,35.87h207.7C378.16,376,389.79,356.29,381,340.13Z" fill="none" stroke="#ef4444" stroke-miterlimit="10" stroke-width="15"/>
    <path d="M243,216.56q1.5-1.31,5.45-1.3h15.39c2.63,0,4.47.43,5.54,1.3s1.53,2.43,1.41,4.69l-3,71.88c-.13,2.27-.67,3.8-1.6,4.61s-2.72,1.21-5.35,1.21H251.4c-2.62,0-4.41-.4-5.35-1.21s-1.47-2.34-1.6-4.61l-2.81-71.88C241.52,219,242,217.42,243,216.56Z" fill="#ef4444"/>
    <path d="M272.05,324.21q0,7-3,9.54c-2,1.73-5.69,2.6-11.08,2.6H254c-5.39,0-9.07-.87-11.08-2.6s-3-4.9-3-9.54V321.3q0-7,3-9.56c2-1.73,5.69-2.59,11.08-2.59H258c5.39,0,9.07.86,11.08,2.59s3,4.91,3,9.56Z" fill="#ef4444"/>
</svg>
