<svg xmlns="http://www.w3.org/2000/svg" viewBox="0 0 64 64">
	<defs>
		<clipPath id="a">
			<polygon points="7.5 7.5 54.5 7.5 7.5 54.5 7.5 7.5" fill="none"/>
		</clipPath>
	</defs>
	<g clip-path="url(#a)">
		<path d="M42.5,32A10.5,10.5,0,1,1,32,21.5,10.5,10.5,0,0,1,42.5,32ZM32,15.71V9.5m0,45V48.29M43.52,20.48l4.39-4.39M16.09,47.91l4.39-4.39m0-23-4.39-4.39M47.91,47.91l-4.39-4.39M15.71,32H9.5m45,0H48.29" fill="none" stroke="#f59e0b" stroke-linecap="round" stroke-miterlimit="10" stroke-width="3"/>
	</g>
	<line x1="24.89" y1="45.11" x2="28.08" y2="41.92" fill="none" stroke="#fde68a" stroke-linecap="round" stroke-miterlimit="10" stroke-width="3"/>
	<line x1="33.03" y1="36.97" x2="40.45" y2="29.55" fill="none" stroke="#fde68a" stroke-linecap="round" stroke-miterlimit="10" stroke-width="3" stroke-dasharray="7 7"/>
	<line x1="42.92" y1="27.08" x2="46.11" y2="23.89" fill="none" stroke="#fde68a" stroke-linecap="round" stroke-miterlimit="10" stroke-width="3"/>
	<line x1="34.89" y1="45.11" x2="38.08" y2="41.92" fill="none" stroke="#fde68a" stroke-linecap="round" stroke-miterlimit="10" stroke-width="3"/>
	<line x1="43.03" y1="36.97" x2="50.45" y2="29.55" fill="none" stroke="#fde68a" stroke-linecap="round" stroke-miterlimit="10" stroke-width="3" stroke-dasharray="7 7"/>
	<line x1="52.92" y1="27.08" x2="56.11" y2="23.89" fill="none" stroke="#fde68a" stroke-linecap="round" stroke-miterlimit="10" stroke-width="3"/>
</svg>
