<svg xmlns="http://www.w3.org/2000/svg" xmlns:xlink="http://www.w3.org/1999/xlink" viewBox="0 0 512 512">
    <defs>
        <linearGradient id="a" x1="90.04" y1="155.61" x2="205.96" y2="356.39" gradientUnits="userSpaceOnUse">
            <stop offset="0" stop-color="#d4d7dd"/>
            <stop offset="0.45" stop-color="#d4d7dd"/>
            <stop offset="1" stop-color="#bec1c6"/>
        </linearGradient>
        <linearGradient id="b" x1="223.47" y1="116.97" x2="289.7" y2="231.68" gradientUnits="userSpaceOnUse">
            <stop offset="0" stop-color="#f87171"/>
            <stop offset="0.45" stop-color="#f87171"/>
            <stop offset="1" stop-color="#dc2626"/>
        </linearGradient>
        <linearGradient id="c" x1="223.47" y1="226.97" x2="289.7" y2="341.68" xlink:href="#b"/>
    </defs>
    <line x1="148" y1="376" x2="148" y2="136" fill="none" stroke-linecap="round" stroke-linejoin="round" stroke-width="24" stroke="url(#a)"/>
    <path d="M191.41,137.06a6.38,6.38,0,0,0-7.3,6.32v82.06a6.38,6.38,0,0,0,7.3,6.32l167.13-40.34A6.39,6.39,0,0,0,364,185.1v-1.37a6.39,6.39,0,0,0-5.46-6.32Z" stroke="#ef4444" stroke-miterlimit="10" stroke-width="2" fill="url(#b)"/>
    <path d="M191.41,247.06a6.38,6.38,0,0,0-7.3,6.32v82.06a6.38,6.38,0,0,0,7.3,6.32l167.13-40.34A6.39,6.39,0,0,0,364,295.1v-1.37a6.39,6.39,0,0,0-5.46-6.32Z" stroke="#ef4444" stroke-miterlimit="10" stroke-width="2" fill="url(#c)"/>
</svg>
