<svg xmlns="http://www.w3.org/2000/svg" viewBox="0 0 64 64">
	<defs>
		<clipPath id="a">
			<polygon points="64 2.79 30 23 32 29 37 33 64 21 64 2.79" fill="none"/>
		</clipPath>
	</defs>
	<path d="M42.56,21.13,41.26,19a.55.55,0,0,1-.06-.5l.8-2.36a.59.59,0,0,0-.87-.7L39,16.74a.55.55,0,0,1-.5.06L36.14,16a.59.59,0,0,0-.7.87L36.74,19a.55.55,0,0,1,.06.5L36,21.86a.59.59,0,0,0,.87.7L39,21.26a.55.55,0,0,1,.5-.06l2.36.8A.59.59,0,0,0,42.56,21.13Z" fill="#fcd34d" opacity="0.8"/>
	<path d="M49.73,27.18l-2.49-.07a.62.62,0,0,1-.46-.22l-1.53-2a.6.6,0,0,0-1.07.35l-.07,2.49a.62.62,0,0,1-.22.46l-2,1.53a.6.6,0,0,0,.35,1.07l2.49.07a.62.62,0,0,1,.46.22l1.53,2a.6.6,0,0,0,1.07-.35l.07-2.49a.62.62,0,0,1,.22-.46l2-1.53A.6.6,0,0,0,49.73,27.18Z" fill="#fcd34d" opacity="0.8"/>
	<g clip-path="url(#a)">
		<path d="M49,23.19l-1.78-1.74A.6.6,0,0,1,47,21l.2-2.49a.6.6,0,0,0-1-.46l-1.74,1.78A.6.6,0,0,1,44,20l-2.49-.2a.6.6,0,0,0-.46,1l1.78,1.74A.6.6,0,0,1,43,23l-.2,2.49a.6.6,0,0,0,1,.46l1.74-1.78A.6.6,0,0,1,46,24l2.49.2A.6.6,0,0,0,49,23.19Z" fill="#fcd34d"/>
		<line x1="41.5" y1="23.5" x2="40.16" y2="24.17" fill="none" stroke="#fcd34d" stroke-linecap="round" stroke-miterlimit="10"/>
		<line x1="37.9" y1="25.3" x2="29.97" y2="29.26" fill="none" stroke="#fcd34d" stroke-linecap="round" stroke-miterlimit="10" stroke-dasharray="2.53 2.53"/>
		<line x1="28.84" y1="29.83" x2="27.5" y2="30.5" fill="none" stroke="#fcd34d" stroke-linecap="round" stroke-miterlimit="10"/>
	</g>
	<path d="M46.66,36.2A16.66,16.66,0,0,1,29.88,19.65a16.29,16.29,0,0,1,.55-4.15A16.56,16.56,0,1,0,48.5,36.1C47.89,36.16,47.28,36.2,46.66,36.2Z" fill="none" stroke="#72b9d5" stroke-linecap="round" stroke-linejoin="round" stroke-width="3"/>
</svg>
