<svg xmlns="http://www.w3.org/2000/svg" xmlns:xlink="http://www.w3.org/1999/xlink" viewBox="0 0 512 512">
    <defs>
        <symbol id="a" viewBox="0 0 175 260.88">
            <path d="M87.5,13.38c-48.7,72-80,117-80,160.75s35.79,79.25,80,79.25,80-35.47,80-79.25S136.2,85.35,87.5,13.38Z" fill="none" stroke="#2885c7" stroke-miterlimit="10" stroke-width="15"/>
        </symbol>
    </defs>
    <use width="175" height="260.88" transform="translate(168.4 123.18)" xlink:href="#a"/>
    <path d="M218.78,250.47q4.78-4.47,13.69-4.47t13.68,4.47q4.78,4.47,4.79,12.4v8q0,7.8-4.79,12.22t-13.68,4.41q-8.9,0-13.69-4.41T214,270.91v-8Q214,254.95,218.78,250.47ZM290,248.94a2.79,2.79,0,0,1-.55,2.61l-53,73.24a9.43,9.43,0,0,1-2.84,2.83,12.29,12.29,0,0,1-4.62.56h-4.34c-1.33,0-2.16-.37-2.5-1.13a2.76,2.76,0,0,1,.61-2.72l53-73.35a7,7,0,0,1,2.67-2.66,12.7,12.7,0,0,1,4.34-.51h4.89C288.91,247.81,289.69,248.18,290,248.94Zm-57.52,7.59q-7.68,0-7.68,6.9v6.79q0,6.9,7.68,6.91t7.68-6.91v-6.79Q240.15,256.53,232.47,256.53Zm33.38,36.39q4.78-4.47,13.69-4.47t13.68,4.47q4.78,4.47,4.78,12.4v8q0,7.81-4.78,12.23T279.54,330q-8.91,0-13.69-4.42t-4.79-12.23v-8Q261.06,297.39,265.85,292.92ZM279.54,299q-7.68,0-7.69,6.92v6.67q0,7,7.69,7t7.67-7v-6.67Q287.21,299,279.54,299Z" fill="#374151"/>
</svg>
