<svg xmlns="http://www.w3.org/2000/svg" xmlns:xlink="http://www.w3.org/1999/xlink" viewBox="0 0 512 512">
    <defs>
        <clipPath id="a">
            <path d="M512,306H296.08a21.5,21.5,0,0,0-14.16,5.32L256,334l-25.92-22.68A21.5,21.5,0,0,0,215.92,306H0V0H512Z" fill="none"/>
        </clipPath>
        <symbol id="b" viewBox="0 0 279 279">
            <path d="M256.75,173.13c-74.12,0-134.21-59.28-134.21-132.42A130.48,130.48,0,0,1,127,7.5C59.79,14.75,7.5,70.87,7.5,139.08c0,73.13,60.09,132.42,134.21,132.42,62.48,0,114.83-42.18,129.79-99.21A135.56,135.56,0,0,1,256.75,173.13Z" fill="none" stroke="#72b9d5" stroke-linecap="round" stroke-linejoin="round" stroke-width="15"/>
        </symbol>
    </defs>
    <polyline points="128 332 216 332 256 368 296 332 384 332" fill="none" stroke="#374151" stroke-linecap="round" stroke-linejoin="round" stroke-width="18"/>
    <g clip-path="url(#a)">
        <use width="279" height="279" transform="translate(116.5 116.5)" xlink:href="#b"/>
    </g>
</svg>
