<svg xmlns="http://www.w3.org/2000/svg" viewBox="0 0 512 512">
    <defs>
        <linearGradient id="a" x1="211.43" y1="166.68" x2="330.34" y2="372.62" gradientUnits="userSpaceOnUse">
            <stop offset="0" stop-color="#86c3db"/>
            <stop offset="0.45" stop-color="#86c3db"/>
            <stop offset="1" stop-color="#5eafcf"/>
        </linearGradient>
    </defs>
    <path d="M384,256A128,128,0,0,0,256,128c-169.79,6.74-169.74,249.28,0,256A128,128,0,0,0,384,256Z" fill="none" stroke="#e5e7eb" stroke-linecap="round" stroke-linejoin="round" stroke-width="17.45" stroke-dasharray="16.87 56.24"/>
    <path d="M310.32,127.48a142.25,142.25,0,0,0-19.05-6.9l.71.5h0c92.24,96.74,21,256.67-112.58,252.85l-.82-.18a141.42,141.42,0,0,0,17.86,9.53,140,140,0,1,0,113.88-255.8Z" stroke="#72b9d5" stroke-linecap="round" stroke-linejoin="round" stroke-width="6" fill="url(#a)"/>
</svg>
