<svg xmlns="http://www.w3.org/2000/svg" viewBox="0 0 64 64">
	<defs>
		<clipPath id="a">
			<polygon points="12 35 6.72 30.79 4.72 24.79 5.72 17.79 9.72 12.79 14.72 9.79 20.72 9.79 25.72 10.79 28.72 13.79 33 20 27 24 21 24 18 27 18 31 14 33 12 35" fill="none"/>
		</clipPath>
	</defs>
	<g clip-path="url(#a)">
		<path d="M23.5,24A4.5,4.5,0,1,1,19,19.5,4.49,4.49,0,0,1,23.5,24ZM19,15.67V12.5m0,23V32.33m5.89-14.22,2.24-2.24M10.87,32.13l2.24-2.24m0-11.78-2.24-2.24M27.13,32.13l-2.24-2.24M7.5,24h3.17M30.5,24H27.33" fill="none" stroke="#f59e0b" stroke-linecap="round" stroke-miterlimit="10" stroke-width="2"/>
	</g>
	<path d="M43.67,45.5H46.5a7,7,0,0,0,0-14l-.32,0a10.49,10.49,0,0,0-19.11-8,7,7,0,0,0-10.57,6,7.21,7.21,0,0,0,.1,1.14A7.5,7.5,0,0,0,18,45.5a4.19,4.19,0,0,0,.5,0v0" fill="none" stroke="#e5e7eb" stroke-linecap="round" stroke-linejoin="round" stroke-width="3"/>
	<circle cx="31" cy="45" r="1.25" fill="none" stroke="#72b8d4" stroke-miterlimit="10"/>
	<path d="M33.17,46.25l-1.09-.63m-2.16-1.24-1.09-.63M31,42.5v1.25m0,3.75V46.25m-1.08-.63-1.09.63m4.34-2.5-1.09.63" fill="none" stroke="#72b8d4" stroke-linecap="round" stroke-miterlimit="10"/>
	<circle cx="24" cy="45" r="1.25" fill="none" stroke="#72b8d4" stroke-miterlimit="10"/>
	<path d="M26.17,46.25l-1.09-.63m-2.16-1.24-1.09-.63M24,42.5v1.25m0,3.75V46.25m-1.08-.63-1.09.63m4.34-2.5-1.09.63" fill="none" stroke="#72b8d4" stroke-linecap="round" stroke-miterlimit="10"/>
	<circle cx="38" cy="45" r="1.25" fill="none" stroke="#72b8d4" stroke-miterlimit="10"/>
	<path d="M40.17,46.25l-1.09-.63m-2.16-1.24-1.09-.63M38,42.5v1.25m0,3.75V46.25m-1.08-.63-1.09.63m4.34-2.5-1.09.63" fill="none" stroke="#72b8d4" stroke-linecap="round" stroke-miterlimit="10"/>
</svg>
