<svg xmlns="http://www.w3.org/2000/svg" xmlns:xlink="http://www.w3.org/1999/xlink" viewBox="0 0 512 512">
    <defs>
        <symbol id="a" viewBox="0 0 232 72">
            <circle cx="116" cy="12" r="12" fill="#f8af18"/>
            <circle cx="156" cy="52" r="16" fill="#f8af18"/>
            <circle cx="76" cy="52" r="16" fill="#f8af18"/>
            <circle cx="12" cy="60" r="12" fill="#f8af18"/>
            <circle cx="220" cy="60" r="12" fill="#f8af18"/>
            <circle cx="180" cy="20" r="8" fill="#f8af18"/>
            <circle cx="52" cy="20" r="8" fill="#f8af18"/>
        </symbol>
    </defs>
    <path d="M265.09,403.6l-4-127a12,12,0,0,0-12-11.65H244a12,12,0,0,0-12,11.65l-4,127A12,12,0,0,0,240,416h13.11A12,12,0,0,0,265.09,403.6Z" fill="#744e2d"/>
    <ellipse cx="293.93" cy="274.36" rx="42.67" ry="42.49" fill="#40c057"/>
    <ellipse cx="185.19" cy="255.48" rx="42.67" ry="42.49" fill="#40c057"/>
    <path d="M317.63,146.89A57.45,57.45,0,0,0,306.74,148a28.35,28.35,0,1,0-41.18,32.82,56.17,56.17,0,0,0-4.82,22.77,56.89,56.89,0,1,0,56.89-56.65Z" fill="#40c057"/>
    <path d="M289.19,184.66A56.91,56.91,0,0,0,182.91,156.6c-.93-.06-1.82-.27-2.76-.27a42.36,42.36,0,0,0-11.84,83.12,28.06,28.06,0,0,0-2.38,11.3A28.33,28.33,0,0,0,213,272a42.56,42.56,0,0,0,76.21-26,42.06,42.06,0,0,0-10.91-28.12A56.13,56.13,0,0,0,289.19,184.66Z" fill="#39ad4e"/>
    <use width="232" height="72" transform="translate(140 90)" xlink:href="#a"/>
</svg>
