<svg xmlns="http://www.w3.org/2000/svg" xmlns:xlink="http://www.w3.org/1999/xlink" viewBox="0 0 512 512">
    <defs>
        <linearGradient id="a" x1="310.54" y1="152.47" x2="425.46" y2="351.53" gradientUnits="userSpaceOnUse">
            <stop offset="0" stop-color="#d4d7dd"/>
            <stop offset="0.45" stop-color="#d4d7dd"/>
            <stop offset="1" stop-color="#bec1c6"/>
        </linearGradient>
        <clipPath id="b">
            <path d="M168,252H344V380H168Z" fill="none"/>
        </clipPath>
        <symbol id="c" viewBox="0 0 175 260.88">
            <path d="M87.5,13.38c-48.7,72-80,117-80,160.75s35.79,79.25,80,79.25,80-35.47,80-79.25S136.2,85.35,87.5,13.38Z" fill="none" stroke="#2885c7" stroke-miterlimit="10" stroke-width="15"/>
        </symbol>
    </defs>
    <path d="M256,132c-48.7,72-80,117-80,160.75S211.79,372,256,372s80-35.47,80-79.25S304.7,204,256,132Z" fill="none" stroke="#e2e8f0" stroke-miterlimit="10" stroke-width="15"/>
    <path d="M352,132h32V372H352m8-120h24m-16,56h16M368,188h16" fill="none" stroke-linecap="round" stroke-linejoin="round" stroke-width="6" stroke="url(#a)"/>
    <g clip-path="url(#b)">
        <use width="175" height="260.88" transform="translate(168.61 119.2)" xlink:href="#c"/>
    </g>
</svg>
