<svg xmlns="http://www.w3.org/2000/svg" viewBox="0 0 64 64">
	<path d="M42.56,21.13,41.26,19a.55.55,0,0,1-.06-.5l.8-2.36a.59.59,0,0,0-.87-.7L39,16.74a.55.55,0,0,1-.5.06L36.14,16a.59.59,0,0,0-.7.87L36.74,19a.55.55,0,0,1,.06.5L36,21.86a.59.59,0,0,0,.87.7L39,21.26a.55.55,0,0,1,.5-.06l2.36.8A.59.59,0,0,0,42.56,21.13Z" fill="#fcd34d"/>
	<path d="M49.73,27.18l-2.49-.07a.62.62,0,0,1-.46-.22l-1.53-2a.6.6,0,0,0-1.07.35l-.07,2.49a.62.62,0,0,1-.22.46l-2,1.53a.6.6,0,0,0,.35,1.07l2.49.07a.62.62,0,0,1,.46.22l1.53,2a.6.6,0,0,0,1.07-.35l.07-2.49a.62.62,0,0,1,.22-.46l2-1.53A.6.6,0,0,0,49.73,27.18Z" fill="#fcd34d"/>
	<path d="M40.69,27.65l-1.25-1.1a.4.4,0,0,1-.14-.31l0-1.66a.39.39,0,0,0-.69-.27l-1.1,1.25a.4.4,0,0,1-.31.14l-1.66,0a.39.39,0,0,0-.27.69l1.25,1.1a.4.4,0,0,1,.14.31l0,1.66a.39.39,0,0,0,.69.27l1.1-1.25a.4.4,0,0,1,.31-.14l1.66,0A.39.39,0,0,0,40.69,27.65Z" fill="#fcd34d"/>
	<path d="M46.66,36.2A16.66,16.66,0,0,1,29.88,19.65a16.29,16.29,0,0,1,.55-4.15A16.56,16.56,0,1,0,48.5,36.1C47.89,36.16,47.28,36.2,46.66,36.2Z" fill="none" stroke="#72b9d5" stroke-linecap="round" stroke-linejoin="round" stroke-width="3"/>
</svg>
