<svg xmlns="http://www.w3.org/2000/svg" xmlns:xlink="http://www.w3.org/1999/xlink" viewBox="0 0 512 512">
    <defs>
        <symbol id="a" viewBox="0 0 359 231">
            <path d="M295.5,223.5a56,56,0,0,0,0-112c-.85,0-1.68.09-2.53.13A83.9,83.9,0,0,0,140.1,47.42,55.91,55.91,0,0,0,55.5,95.5a56.56,56.56,0,0,0,.8,9.08A60,60,0,0,0,67.5,223.5" fill="none" stroke="#e2e8f0" stroke-linecap="round" stroke-linejoin="round" stroke-width="15"/>
        </symbol>
        <symbol id="b" viewBox="0 0 173 217">
            <circle cx="88.5" cy="188.5" r="24" fill="none" stroke="#afb4bc" stroke-miterlimit="10" stroke-width="9"/>
            <circle cx="40.5" cy="124.5" r="36" fill="none" stroke="#afb4bc" stroke-miterlimit="10" stroke-width="9"/>
            <circle cx="120.5" cy="52.5" r="48" fill="none" stroke="#afb4bc" stroke-miterlimit="10" stroke-width="9"/>
        </symbol>
    </defs>
    <use width="359" height="231" transform="translate(76.5 140.5)" xlink:href="#a"/>
    <use width="173" height="217" transform="translate(169.5 229.5)" xlink:href="#b"/>
</svg>
