<svg xmlns="http://www.w3.org/2000/svg" xmlns:xlink="http://www.w3.org/1999/xlink" viewBox="0 0 512 512">
    <defs>
        <clipPath id="a">
            <path d="M256,392c30.93,0,56-25.45,56-56.84a57,57,0,0,0-24-46.6V152.48A32.24,32.24,0,0,0,256,120V79.74H423.17V392Zm4-192h28m-28-32h28m-28,64h28" fill="none"/>
        </clipPath>
        <symbol id="b" viewBox="0 0 178 178">
            <path d="M163.62,110.4c-47.17,0-85.41-37.73-85.41-84.26A83.31,83.31,0,0,1,81,5C38.27,9.61,5,45.33,5,88.73,5,135.27,43.24,173,90.41,173A85.16,85.16,0,0,0,173,109.87,88,88,0,0,1,163.62,110.4Z" fill="none" stroke="#72b9d5" stroke-linecap="round" stroke-linejoin="round" stroke-width="10"/>
        </symbol>
        <symbol id="d" viewBox="0 0 72 168">
            <circle cx="36" cy="132" r="36" fill="#ef4444"/>
            <path d="M36,12V132" fill="none" stroke="#ef4444" stroke-linecap="round" stroke-miterlimit="10" stroke-width="24"/>
        </symbol>
        <symbol id="e" viewBox="0 0 118 278">
            <path d="M115,218.16C115,249.55,89.93,275,59,275S3,249.55,3,218.16a57,57,0,0,1,24-46.6V35.48a32,32,0,1,1,64,0V171.56A57,57,0,0,1,115,218.16ZM63,83H91M63,51H91M63,115H91" fill="none" stroke="#cbd5e1" stroke-linecap="round" stroke-linejoin="round" stroke-width="6"/>
        </symbol>
        <symbol id="c" viewBox="0 0 118 278">
            <use width="72" height="168" transform="translate(23 87)" xlink:href="#d"/>
            <use width="118" height="278" xlink:href="#e"/>
        </symbol>
    </defs>
    <g clip-path="url(#a)">
        <use width="178" height="178" transform="translate(225 117)" xlink:href="#b"/>
    </g>
    <use width="118" height="278" transform="translate(197 117)" xlink:href="#c"/>
</svg>
