<svg xmlns="http://www.w3.org/2000/svg" xmlns:xlink="http://www.w3.org/1999/xlink" viewBox="0 0 512 512">
    <defs>
        <clipPath id="a">
            <path d="M256,392c30.93,0,56-25.45,56-56.84a57,57,0,0,0-24-46.6V152.48A32.24,32.24,0,0,0,256,120V79.74H423.17V392Zm4-192h28m-28-32h28m-28,64h28" fill="none"/>
        </clipPath>
        <symbol id="c" viewBox="0 0 72 168">
            <circle cx="36" cy="132" r="36" fill="#ef4444"/>
            <path d="M36,12V132" fill="none" stroke="#ef4444" stroke-linecap="round" stroke-miterlimit="10" stroke-width="24"/>
        </symbol>
        <symbol id="d" viewBox="0 0 118 278">
            <path d="M115,218.16C115,249.55,89.93,275,59,275S3,249.55,3,218.16a57,57,0,0,1,24-46.6V35.48a32,32,0,1,1,64,0V171.56A57,57,0,0,1,115,218.16ZM63,83H91M63,51H91M63,115H91" fill="none" stroke="#cbd5e1" stroke-linecap="round" stroke-linejoin="round" stroke-width="6"/>
        </symbol>
        <symbol id="b" viewBox="0 0 118 278">
            <use width="72" height="168" transform="translate(23 87)" xlink:href="#c"/>
            <use width="118" height="278" xlink:href="#d"/>
        </symbol>
    </defs>
    <g clip-path="url(#a)">
        <path d="M393.74,233l-23.55-13.59a57.8,57.8,0,0,0-.05-26.71L393.74,179a16.5,16.5,0,1,0-16.51-28.58l-23.58,13.61a56,56,0,0,0-23.14-13.36V123.5a16.51,16.51,0,0,0-33,0v27.24a57.83,57.83,0,0,0-23.17,13.31l-23.55-13.59A16.5,16.5,0,1,0,234.26,179l23.55,13.59a57.8,57.8,0,0,0,.05,26.71L234.26,233a16.5,16.5,0,1,0,16.51,28.58l23.58-13.61a55.33,55.33,0,0,0,23.14,13.32V288.5a16.51,16.51,0,0,0,33,0V261.22a57.74,57.74,0,0,0,23.14-13.29l23.58,13.61A16.5,16.5,0,1,0,393.74,233Zm-92.12-5.52a24.76,24.76,0,1,1,33.83-9.06A24.79,24.79,0,0,1,301.62,227.44Z" fill="none" stroke="#72b9d5" stroke-linecap="round" stroke-linejoin="round" stroke-width="9"/>
    </g>
    <use width="118" height="278" transform="translate(197 117)" xlink:href="#b"/>
</svg>
