<svg xmlns="http://www.w3.org/2000/svg" xmlns:xlink="http://www.w3.org/1999/xlink" viewBox="0 0 512 512">
    <defs>
        <linearGradient id="a" x1="54.01" y1="16.93" x2="125.82" y2="141.31" gradientUnits="userSpaceOnUse">
            <stop offset="0" stop-color="#f3f7fe"/>
            <stop offset="0.45" stop-color="#f3f7fe"/>
            <stop offset="1" stop-color="#deeafb"/>
        </linearGradient>
        <linearGradient id="b" x1="38.79" y1="20.77" x2="133.4" y2="184.63" gradientUnits="userSpaceOnUse">
            <stop offset="0" stop-color="#86c3db"/>
            <stop offset="0.45" stop-color="#86c3db"/>
            <stop offset="1" stop-color="#5eafcf"/>
        </linearGradient>
        <symbol id="c" viewBox="0 0 192.48 192.48">
            <path d="M179.74,120.19C127,120.19,84.16,78,84.16,25.89A93.24,93.24,0,0,1,87.31,2.24C39.47,7.4,2.24,47.37,2.24,95.94c0,52.08,42.79,94.3,95.57,94.3,44.5,0,81.78-30,92.43-70.65A98.36,98.36,0,0,1,179.74,120.19Z" stroke="#72b9d5" stroke-linecap="round" stroke-linejoin="round" stroke-width="4.48" fill="url(#b)"/>
        </symbol>
        <symbol id="d" viewBox="0 0 189.48 120.47">
            <path d="M157.29,58.08c-.46,0-.91,0-1.36.07a45.76,45.76,0,0,0,1.36-10.86A45.26,45.26,0,0,0,73.5,23.52,30.15,30.15,0,0,0,27.88,49.45a30.47,30.47,0,0,0,.43,4.9,32.34,32.34,0,0,0,6,64.12c.73,0,1.44-.06,2.16-.11v.11H157.29a30.2,30.2,0,0,0,0-60.39Z" stroke="#e6effc" stroke-miterlimit="10" stroke-width="4" fill="url(#a)"/>
        </symbol>
    </defs>
    <path d="M220.22,438.38H179.61a20.77,20.77,0,0,1,2.95-11.44q3-4.47,10.8-9.87l7.92-5.61a16.27,16.27,0,0,0,4.28-4,7.45,7.45,0,0,0,1.26-4.25,6.34,6.34,0,0,0-1.87-4.86,7.14,7.14,0,0,0-5.11-1.77q-7.34,0-7.34,8.57v1.08H180.33v-1.58q0-8.85,5.18-13.83t14.69-5q9.08,0,14.4,4.4t5.4,12.17a16.09,16.09,0,0,1-2.55,8.92,26.72,26.72,0,0,1-8.18,7.57l-8.85,5.61c-1.68,1.1-2.6,2-2.74,2.81h22.54Z" fill="#374251"/>
    <path d="M253.77,438.38H240.3v-32H227.63v-9h2.16q5.55,0,8.79-2.37c2-1.49,3.33-3.92,4-7.27l.14-.58h11.09Z" fill="#374251"/>
    <path d="M283.79,423.34H263.27V413.4h20.52Z" fill="#374251"/>
    <path d="M328.43,432.27q-6,7.26-16.27,7.27t-16.27-7.27q-6-7.27-6.05-19.66t6.05-19.44q5.89-7.2,16.27-7.2,10.21,0,16.27,7.2t6,19.44Q334.41,425,328.43,432.27Zm-16.27-3.17q9.36,0,9.36-16.35t-9.36-16.34q-9.44,0-9.43,16.34T312.16,429.1Z" fill="#374251"/>
    <use width="192.48" height="192.48" transform="translate(159.76 139.76)" xlink:href="#c"/>
    <use width="189.48" height="120.47" transform="translate(214.32 236.93)" xlink:href="#d"/>
</svg>
