<svg xmlns="http://www.w3.org/2000/svg" xmlns:xlink="http://www.w3.org/1999/xlink" viewBox="0 0 512 512">
    <defs>
        <clipPath id="a">
            <path d="M326.62,238.92A45.39,45.39,0,0,0,288,260.36a30.06,30.06,0,0,0-45.31,30.71,32.27,32.27,0,0,0-26.38,31.64L219,334H0V0H326.62Z" fill="none"/>
        </clipPath>
        <symbol id="b" viewBox="0 0 203 203">
            <path d="M185,125.45c-52.79,0-95.58-42.22-95.58-94.3A92.8,92.8,0,0,1,92.58,7.5C44.74,12.66,7.5,52.63,7.5,101.2c0,52.08,42.79,94.3,95.58,94.3,44.49,0,81.77-30,92.42-70.65A95.81,95.81,0,0,1,185,125.45Z" fill="none" stroke="#72b9d5" stroke-linecap="round" stroke-linejoin="round" stroke-width="15"/>
        </symbol>
        <symbol id="c" viewBox="0 0 197.48 128.47">
            <path d="M161.29,62.08c-.46,0-.91,0-1.36.07a45.76,45.76,0,0,0,1.36-10.86A45.26,45.26,0,0,0,77.5,27.52,30.15,30.15,0,0,0,31.88,53.45a30.47,30.47,0,0,0,.43,4.9,32.34,32.34,0,0,0,6,64.12c.73,0,1.44-.06,2.16-.11v.11H161.29a30.2,30.2,0,0,0,0-60.39Z" fill="none" stroke="#e2e8f0" stroke-miterlimit="10" stroke-width="12"/>
        </symbol>
    </defs>
    <g clip-path="url(#a)">
        <use width="203" height="203" transform="translate(154.5 134.5)" xlink:href="#b"/>
    </g>
    <path d="M220.22,438.38H179.61a20.77,20.77,0,0,1,2.95-11.44q3-4.47,10.8-9.87l7.92-5.61a16.27,16.27,0,0,0,4.28-4,7.45,7.45,0,0,0,1.26-4.25,6.34,6.34,0,0,0-1.87-4.86,7.14,7.14,0,0,0-5.11-1.77q-7.34,0-7.34,8.57v1.08H180.33v-1.58q0-8.85,5.18-13.83t14.69-5q9.08,0,14.4,4.4t5.4,12.17a16.09,16.09,0,0,1-2.55,8.92,26.72,26.72,0,0,1-8.18,7.57l-8.85,5.61c-1.68,1.1-2.6,2-2.74,2.81h22.54Z" fill="#374251"/>
    <path d="M253.77,438.38H240.3v-32H227.63v-9h2.16q5.55,0,8.79-2.37c2-1.49,3.33-3.92,4-7.27l.14-.58h11.09Z" fill="#374251"/>
    <path d="M283.79,423.34H263.27V413.4h20.52Z" fill="#374251"/>
    <path d="M328.43,432.27q-6,7.26-16.27,7.27t-16.27-7.27q-6-7.27-6.05-19.66t6.05-19.44q5.89-7.2,16.27-7.2,10.21,0,16.27,7.2t6,19.44Q334.41,425,328.43,432.27Zm-16.27-3.17q9.36,0,9.36-16.35t-9.36-16.34q-9.44,0-9.43,16.34T312.16,429.1Z" fill="#374251"/>
    <use width="197.48" height="128.47" transform="translate(210.31 232.95)" xlink:href="#c"/>
</svg>
