<svg xmlns="http://www.w3.org/2000/svg" xmlns:xlink="http://www.w3.org/1999/xlink" viewBox="0 0 512 512">
    <defs>
        <linearGradient id="a" x1="149.99" y1="119.24" x2="234.01" y2="264.76" gradientUnits="userSpaceOnUse">
            <stop offset="0" stop-color="#fbbf24"/>
            <stop offset="0.45" stop-color="#fbbf24"/>
            <stop offset="1" stop-color="#f59e0b"/>
        </linearGradient>
        <clipPath id="b">
            <path d="M64,64H448V256H328a72,72,0,0,0-72,72V448H64Z" fill="none"/>
        </clipPath>
        <symbol id="c" viewBox="0 0 384 384">
            <circle cx="192" cy="192" r="84" stroke="#f8af18" stroke-miterlimit="10" stroke-width="6" fill="url(#a)"/>
            <path d="M192,61.66V12m0,360V322.34M284.17,99.83l35.11-35.11M64.72,319.28l35.11-35.11m0-184.34L64.72,64.72M319.28,319.28l-35.11-35.11M61.66,192H12m360,0H322.34" fill="none" stroke="#fbbf24" stroke-linecap="round" stroke-miterlimit="10" stroke-width="24"/>
        </symbol>
    </defs>
    <g clip-path="url(#b)">
        <use width="384" height="384" transform="translate(64 64)" xlink:href="#c"/>
        <path d="M254,338V328a74,74,0,0,1,74-74h10" fill="none" stroke="#f8af18" stroke-miterlimit="10" stroke-width="6"/>
    </g>
    <rect x="280" y="280" width="144" height="144" rx="48" fill="#ff3c00"/>
    <path d="M371.42,323.71q9.65,9.06,9.64,27.57,0,17.54-7.66,27.13T351.08,388q-10.11,0-16.82-4.58a21.87,21.87,0,0,1-8.91-12.87l16.58-1.06q2.11,5.5,9.25,5.5,5.88,0,9-4T364,358q-6,7.14-16.58,7.14-10.89,0-17.64-6.46t-6.84-17.25q0-11.28,7.71-18.41t20.14-7Q363.42,316,371.42,323.71Zm-19.95,28.53a11,11,0,0,0,8.1-3.08,12.24,12.24,0,0,0,3.37-8.29,11.63,11.63,0,0,0-2.79-7.23,11.17,11.17,0,0,0-8.87-3.76c-3.54,0-6.29,1.05-8.24,3.13a11.25,11.25,0,0,0-2.94,8.05,10.86,10.86,0,0,0,3.13,8.1A11.25,11.25,0,0,0,351.47,352.24Z" fill="#fff"/>
</svg>
