<svg xmlns="http://www.w3.org/2000/svg" xmlns:xlink="http://www.w3.org/1999/xlink" viewBox="0 0 512 512">
    <defs>
        <clipPath id="a">
            <path d="M64,64H448V256H328a72,72,0,0,0-72,72V448H64Z" fill="none"/>
        </clipPath>
        <symbol id="b" viewBox="0 0 375 375">
            <circle cx="187.5" cy="187.5" r="84" fill="none" stroke="#fbbf24" stroke-miterlimit="10" stroke-width="15"/>
            <path d="M187.5,57.16V7.5m0,360V317.84M279.67,95.33l35.11-35.11M60.22,314.78l35.11-35.11m0-184.34L60.22,60.22M314.78,314.78l-35.11-35.11M57.16,187.5H7.5m360,0H317.84" fill="none" stroke="#fbbf24" stroke-linecap="round" stroke-miterlimit="10" stroke-width="15"/>
        </symbol>
    </defs>
    <g clip-path="url(#a)">
        <use width="375" height="375" transform="translate(68.5 68.5)" xlink:href="#b"/>
        <path d="M254,338V328a74,74,0,0,1,74-74h10" fill="none" stroke="#fbbf24" stroke-miterlimit="10" stroke-width="15"/>
    </g>
    <rect x="280" y="280" width="144" height="144" rx="48" fill="#ff3c00"/>
    <path d="M334.4,388H315.49V343H297.7V330.36h3q7.78,0,12.34-3.34,4.24-3.13,5.56-10.21l.2-.81H334.4Z" fill="#fff"/>
    <path d="M398.27,378.23Q390.14,388,376.4,388t-21.87-9.77q-8.13-9.78-8.13-26.42,0-16.46,8.13-26.13Q362.47,316,376.4,316q13.74,0,21.87,9.68t8,26.13Q406.3,368.44,398.27,378.23ZM376.4,374Q389,374,389,352T376.4,330q-12.67,0-12.68,22T376.4,374Z" fill="#fff"/>
</svg>
