<svg xmlns="http://www.w3.org/2000/svg" xmlns:xlink="http://www.w3.org/1999/xlink" viewBox="0 0 512 512">
    <defs>
        <symbol id="a" viewBox="0 0 138 96">
            <path d="M105.23,10.78a15.55,15.55,0,1,1,11.21,26.33H6" fill="none" stroke="#e2e8f0" stroke-linecap="round" stroke-miterlimit="10" stroke-width="12"/>
            <path d="M60.67,85.22A15.55,15.55,0,1,0,71.89,58.89H6.56" fill="none" stroke="#e2e8f0" stroke-linecap="round" stroke-miterlimit="10" stroke-width="12"/>
        </symbol>
    </defs>
    <path d="M219.94,359.94A24,24,0,1,1,186,326l1.76-1.76L305,207" fill="none" stroke="#e2e8f0" stroke-linecap="round" stroke-linejoin="round" stroke-width="12"/>
    <path d="M327.88,127.18l-8.2-2.84c-18.49-6.41-34.88-22.51-41.72-41l-4.87-13.14c-36.68,36.67-30.2,102.92,14,149.65C287.38,206.8,291,157.12,327.88,127.18Z" fill="#ef4444"/>
    <path d="M332.21,131.41c-34.87,27.91-38.72,76.09-39.11,88.49,12.4-.41,60.62-4.28,88.49-39.11l-4.22-1.36c-19.83-6.37-37.43-24-43.8-43.8Z" fill="#ef4444"/>
    <path d="M429.65,235c-18.48-6.84-34.58-23.23-41-41.72l-2.84-8.2c-29.94,36.84-79.61,40.5-92.68,40.8,46.73,44.19,113,50.67,149.65,14Z" fill="#ef4444"/>
    <use width="138" height="96" transform="translate(62.5 201)" xlink:href="#a"/>
</svg>
