<svg xmlns="http://www.w3.org/2000/svg" viewBox="0 0 64 64">
	<path d="M42.5,32A10.5,10.5,0,1,1,32,21.5,10.5,10.5,0,0,1,42.5,32ZM32,15.71V9.5m0,45V48.29M43.52,20.48l4.39-4.39M16.09,47.91l4.39-4.39m0-23-4.39-4.39M47.91,47.91l-4.39-4.39M15.71,32H9.5m45,0H48.29" fill="none" stroke="#f59e0b" stroke-linecap="round" stroke-miterlimit="10" stroke-width="3"/>
	<rect x="33.5" y="33.5" width="21" height="21" rx="6" fill="#ffb800" stroke="#fff" stroke-miterlimit="10" stroke-width="2"/>
	<path d="M46.58,40.1a.47.47,0,0,1,.1.35v.73a.46.46,0,0,1-.1.35.47.47,0,0,1-.35.1H43.32l-.11,1.16h1a2.77,2.77,0,0,1,2.07.72,2.51,2.51,0,0,1,.7,1.84,2.57,2.57,0,0,1-.77,1.89,2.83,2.83,0,0,1-2.09.76c-1.62,0-2.65-.61-3.1-1.82a.52.52,0,0,1,0-.37.5.5,0,0,1,.29-.21l.85-.3a.45.45,0,0,1,.35,0,.49.49,0,0,1,.22.3,1.23,1.23,0,0,0,.47.59,1.69,1.69,0,0,0,.88.2,1,1,0,0,0,.75-.27,1,1,0,0,0,.28-.77.85.85,0,0,0-.29-.69,1.08,1.08,0,0,0-.75-.25H41.77a.47.47,0,0,1-.38-.12.52.52,0,0,1-.08-.4l.33-3.22a.7.7,0,0,1,.19-.5.75.75,0,0,1,.53-.14h3.87A.47.47,0,0,1,46.58,40.1Z" fill="#fff"/>
</svg>
