<svg xmlns="http://www.w3.org/2000/svg" xmlns:xlink="http://www.w3.org/1999/xlink" viewBox="0 0 512 512">
    <defs>
        <symbol id="a" viewBox="0 0 138 96">
            <path d="M105.23,10.78a15.55,15.55,0,1,1,11.21,26.33H6" fill="none" stroke="#e2e8f0" stroke-linecap="round" stroke-miterlimit="10" stroke-width="12"/>
            <path d="M60.67,85.22A15.55,15.55,0,1,0,71.89,58.89H6.56" fill="none" stroke="#e2e8f0" stroke-linecap="round" stroke-miterlimit="10" stroke-width="12"/>
        </symbol>
    </defs>
    <path d="M219.94,359.94A24,24,0,1,1,186,326l1.76-1.76L326,186" fill="none" stroke="#e2e8f0" stroke-linecap="round" stroke-linejoin="round" stroke-width="12"/>
    <path d="M334.24,171.7c-46.74-44.18-113-50.67-149.66-14l13.15,4.87c18.48,6.84,34.57,23.23,41,41.73l2.84,8.19C271.5,175.66,321.17,172,334.24,171.7Z" fill="#ef4444"/>
    <path d="M340.3,177.76c-.31,13.06-4,62.74-40.8,92.68l8.19,2.84c18.5,6.42,34.89,22.51,41.73,41l4.87,13.15C391,290.74,384.48,224.5,340.3,177.76Z" fill="#ef4444"/>
    <path d="M295.16,266.21c34.83-27.87,38.71-76.08,39.11-88.48-12.4.4-60.61,4.28-88.48,39.11l4.22,1.35c19.83,6.38,37.42,24,43.8,43.8Z" fill="#ef4444"/>
    <use width="138" height="96" transform="translate(62.5 201)" xlink:href="#a"/>
</svg>
