<svg xmlns="http://www.w3.org/2000/svg" xmlns:xlink="http://www.w3.org/1999/xlink" viewBox="0 0 512 512">
    <defs>
        <clipPath id="a">
            <polygon points="245.68 256.95 74.85 256.95 74.85 396.5 185.68 396.5 212.91 343.55 245.65 306.78 245.68 256.95" fill="none"/>
        </clipPath>
        <symbol id="b" viewBox="0 0 138 96">
            <path d="M105.23,10.78a15.55,15.55,0,1,1,11.21,26.33H6" fill="none" stroke="#e2e8f0" stroke-linecap="round" stroke-miterlimit="10" stroke-width="12"/>
            <path d="M60.67,85.22A15.55,15.55,0,1,0,71.89,58.89H6.56" fill="none" stroke="#e2e8f0" stroke-linecap="round" stroke-miterlimit="10" stroke-width="12"/>
        </symbol>
    </defs>
    <g clip-path="url(#a)">
        <path d="M245.68,309.62c-13.79,0-26.33-14.73-32.8-27a2.88,2.88,0,0,0-5.13,0c-6.47,12.29-19,27-32.8,27s-26.33-14.73-32.81-27a2.87,2.87,0,0,0-5.12,0c-6.48,12.29-19,27-32.81,27H94.11v62a20.38,20.38,0,0,0,20.16,20.59H245.68Z" fill="none" stroke="#2885c7" stroke-linecap="round" stroke-linejoin="round" stroke-width="9"/>
    </g>
    <path d="M353.42,158.32c-.83-5.78-2.88-10.19-4.63-9.95l-1.38.18c-1.75.23-2.57,5-1.86,10.82L359.6,272.86c.75,6.06,2.89,10.88,4.72,10.63l3.53-.47c1.83-.24,2.63-5.45,1.76-11.5Z" fill="#744e2d"/>
    <path d="M402.92,153.22c-3.13-23.43-25.84-39.73-50.74-36.41-16.76,2.24-30.21,12.82-36.27,26.64-.74.06-1.46,0-2.21.09C295,146,281.79,162.29,284.14,179.86c1.93,14.49,13.89,25.2,28.48,27.17a20.33,20.33,0,0,0-.76,8.71c1.56,11.72,12.92,19.87,25.37,18.21a23.39,23.39,0,0,0,14-7.26,34.69,34.69,0,0,0,28.22,8.82c18.67-2.49,31.9-18.76,29.56-36.33a30.82,30.82,0,0,0-11.45-19.9A40.91,40.91,0,0,0,402.92,153.22Z" fill="#40c057"/>
    <path d="M402.31,369.75v-66.3c0-12.38-8.87-22.42-19.81-22.42H319.92c-49.21,0-94.23,31.35-116.4,81.08L190.1,392.18H382.49C393.44,392.18,402.31,382.14,402.31,369.75Z" fill="none" stroke="#f8af18" stroke-miterlimit="10" stroke-width="9"/>
    <use width="138" height="96" transform="matrix(-1, 0, 0, 1, 237, 146)" xlink:href="#b"/>
</svg>
