<svg xmlns="http://www.w3.org/2000/svg" viewBox="0 0 512 512">
    <line x1="148" y1="376" x2="148" y2="136" fill="none" stroke="#cbd5e1" stroke-linecap="round" stroke-linejoin="round" stroke-width="24"/>
    <path d="M239.69,154.68l-22.8-18a6.39,6.39,0,0,0-9.49,1.82l-41,71.07a6.38,6.38,0,0,0,3.17,9.12l27,10.75a6.39,6.39,0,0,0,7.89-2.74l36.84-63.81A6.39,6.39,0,0,0,239.69,154.68Z" fill="#ef4444"/>
    <path d="M285.18,210.62l-17.37-23.29a6.38,6.38,0,0,0-9.63-.69L213,231.83a6.38,6.38,0,0,0,.7,9.63L237,258.82a6.38,6.38,0,0,0,8.33-.6L284.57,219A6.39,6.39,0,0,0,285.18,210.62Z" fill="#ef4444"/>
    <path d="M310.54,271.16l-10.74-27a6.38,6.38,0,0,0-9.12-3.17l-39.63,22.88a6.37,6.37,0,0,0-1.81,9.48l18,22.8a6.37,6.37,0,0,0,8.2,1.57l32.36-18.68A6.38,6.38,0,0,0,310.54,271.16Z" fill="#ef4444"/>
</svg>
