<svg xmlns="http://www.w3.org/2000/svg" xmlns:xlink="http://www.w3.org/1999/xlink" viewBox="0 0 512 512">
    <defs>
        <linearGradient id="a" x1="138.48" y1="5.12" x2="224.17" y2="153.53" gradientUnits="userSpaceOnUse">
            <stop offset="0" stop-color="#d4d7dd"/>
            <stop offset="0.45" stop-color="#d4d7dd"/>
            <stop offset="1" stop-color="#bec1c6"/>
        </linearGradient>
        <linearGradient id="b" x1="77.66" y1="96.23" x2="168.99" y2="254.41" xlink:href="#a"/>
        <symbol id="c" viewBox="0 0 348 240">
            <path d="M267.16,24.29A40,40,0,1,1,296,92H12" fill="none" stroke-linecap="round" stroke-miterlimit="10" stroke-width="24" stroke="url(#a)"/>
            <path d="M151.16,215.71A40,40,0,1,0,180,148H12" fill="none" stroke-linecap="round" stroke-miterlimit="10" stroke-width="24" stroke="url(#b)"/>
        </symbol>
    </defs>
    <use width="348" height="240" transform="translate(82 136)" xlink:href="#c"/>
    <path d="M366.4,344H347.49V299H329.7V286.36h3q7.78,0,12.34-3.34,4.24-3.13,5.56-10.21l.2-.81H366.4Z" fill="#374251"/>
    <path d="M430.27,334.23Q422.14,344,408.4,344t-21.87-9.77q-8.13-9.78-8.13-26.42,0-16.46,8.13-26.13Q394.47,272,408.4,272q13.74,0,21.87,9.68t8,26.13Q438.3,324.44,430.27,334.23ZM408.4,330Q421,330,421,308T408.4,286q-12.67,0-12.68,22T408.4,330Z" fill="#374251"/>
</svg>
