<svg xmlns="http://www.w3.org/2000/svg" xmlns:xlink="http://www.w3.org/1999/xlink" viewBox="0 0 512 512">
    <defs>
        <clipPath id="a">
            <polygon points="245.68 256.95 74.85 256.95 74.85 396.5 185.68 396.5 212.91 343.55 245.65 306.78 245.68 256.95" fill="none"/>
        </clipPath>
        <symbol id="b" viewBox="0 0 138 96">
            <path d="M105.23,10.78a15.55,15.55,0,1,1,11.21,26.33H6" fill="none" stroke="#e2e8f0" stroke-linecap="round" stroke-miterlimit="10" stroke-width="12"/>
            <path d="M60.67,85.22A15.55,15.55,0,1,0,71.89,58.89H6.56" fill="none" stroke="#e2e8f0" stroke-linecap="round" stroke-miterlimit="10" stroke-width="12"/>
        </symbol>
    </defs>
    <g clip-path="url(#a)">
        <path d="M245.68,309.62c-13.79,0-26.33-14.73-32.8-27a2.88,2.88,0,0,0-5.13,0c-6.47,12.29-19,27-32.8,27s-26.33-14.73-32.81-27a2.87,2.87,0,0,0-5.12,0c-6.48,12.29-19,27-32.81,27H94.11v62a20.38,20.38,0,0,0,20.16,20.59H245.68Z" fill="none" stroke="#2885c7" stroke-linecap="round" stroke-linejoin="round" stroke-width="9"/>
    </g>
    <path d="M378.48,160.55c.55-5.72-.41-10.41-2.17-10.6l-1.39-.14c-1.76-.19-3.67,4.2-4.33,9.91L357.76,271.41c-.68,6,.27,11.07,2.11,11.26l3.54.37c1.84.2,3.83-4.59,4.4-10.57Z" fill="#744e2d"/>
    <path d="M427.78,167.4c2.47-23.51-15.78-44.69-40.75-47.32-16.83-1.76-32.38,5.36-41.52,17.37-.74-.13-1.43-.36-2.18-.44-18.73-2-35.42,10.73-37.27,28.36-1.53,14.53,7.58,27.75,21.3,33.1a20.24,20.24,0,0,0-2.79,8.29c-1.23,11.75,7.89,22.35,20.38,23.66a23.39,23.39,0,0,0,15.35-3.75,34.7,34.7,0,0,0,25.36,15.2c18.73,2,35.42-10.73,37.27-28.36a30.8,30.8,0,0,0-6.45-22A40.91,40.91,0,0,0,427.78,167.4Z" fill="#40c057"/>
    <path d="M402.31,369.75v-66.3c0-12.38-8.87-22.42-19.81-22.42H319.92c-27,0-52.82,9.47-74.24,26.25a143.65,143.65,0,0,0-42.16,54.83L190.1,392.18H382.49C393.44,392.18,402.31,382.14,402.31,369.75Z" fill="none" stroke="#f8af18" stroke-miterlimit="10" stroke-width="9"/>
    <use width="138" height="96" transform="translate(99 146)" xlink:href="#b"/>
</svg>
