<svg xmlns="http://www.w3.org/2000/svg" xmlns:xlink="http://www.w3.org/1999/xlink" viewBox="0 0 512 512">
    <defs>
        <symbol id="a" viewBox="0 0 342 234">
            <path d="M264.16,21.29A40,40,0,1,1,293,89H9" fill="none" stroke="#e2e8f0" stroke-linecap="round" stroke-miterlimit="10" stroke-width="18"/>
            <path d="M148.16,212.71A40,40,0,1,0,177,145H9" fill="none" stroke="#e2e8f0" stroke-linecap="round" stroke-miterlimit="10" stroke-width="18"/>
        </symbol>
    </defs>
    <use width="342" height="234" transform="translate(85 139)" xlink:href="#a"/>
    <path d="M403.42,279.71q9.65,9.06,9.64,27.57,0,17.54-7.66,27.13T383.08,344q-10.11,0-16.82-4.58a21.87,21.87,0,0,1-8.91-12.87l16.58-1.06q2.11,5.5,9.25,5.5,5.88,0,9-4T396,314q-6,7.14-16.58,7.14-10.89,0-17.64-6.46t-6.84-17.25q0-11.28,7.71-18.41t20.14-7Q395.42,272,403.42,279.71Zm-19.95,28.53a11,11,0,0,0,8.1-3.08,12.24,12.24,0,0,0,3.37-8.29,11.63,11.63,0,0,0-2.79-7.23,11.17,11.17,0,0,0-8.87-3.76c-3.54,0-6.29,1.05-8.24,3.13a11.25,11.25,0,0,0-2.94,8.05,10.86,10.86,0,0,0,3.13,8.1A11.25,11.25,0,0,0,383.47,308.24Z" fill="#374251"/>
</svg>
