<svg xmlns="http://www.w3.org/2000/svg" xmlns:xlink="http://www.w3.org/1999/xlink" viewBox="0 0 512 512">
    <defs>
        <symbol id="a" viewBox="0 0 342 234">
            <path d="M264.16,21.29A40,40,0,1,1,293,89H9" fill="none" stroke="#e2e8f0" stroke-linecap="round" stroke-miterlimit="10" stroke-width="18"/>
            <path d="M148.16,212.71A40,40,0,1,0,177,145H9" fill="none" stroke="#e2e8f0" stroke-linecap="round" stroke-miterlimit="10" stroke-width="18"/>
        </symbol>
    </defs>
    <use width="342" height="234" transform="translate(85 139)" xlink:href="#a"/>
    <path d="M405.45,338.12Q397.53,344,384,344t-21.4-5.88a19,19,0,0,1-7.9-16.1,16.22,16.22,0,0,1,3.52-10.65,17.7,17.7,0,0,1,9.88-5.83v-.29a14.79,14.79,0,0,1-7.47-5.54,15.26,15.26,0,0,1-2.75-9A16,16,0,0,1,364.72,277q6.9-5,19.23-5t19.37,5a15.94,15.94,0,0,1,6.94,13.73,15.45,15.45,0,0,1-2.74,9.11,14.28,14.28,0,0,1-7.47,5.44v.29a18.15,18.15,0,0,1,9.83,5.88,16.21,16.21,0,0,1,3.47,10.6A19,19,0,0,1,405.45,338.12Zm-21.4-7q5.68,0,9-2.55a8.46,8.46,0,0,0,3.28-7.08,8.54,8.54,0,0,0-3.23-7.09c-2.15-1.7-5.16-2.55-9-2.55s-7,.85-9.16,2.55a8.5,8.5,0,0,0-3.28,7.09,8.42,8.42,0,0,0,3.33,7.08C377.16,330.23,380.19,331.08,384.05,331.08Zm0-30.36q5,0,7.85-2.21a7.39,7.39,0,0,0,2.85-6.17,7,7,0,0,0-2.8-5.93c-1.86-1.38-4.5-2.07-7.9-2.07q-10.8,0-10.8,8a7.39,7.39,0,0,0,2.85,6.17Q378.94,300.72,384.05,300.72Z" fill="#374251"/>
</svg>
