<svg xmlns="http://www.w3.org/2000/svg" viewBox="0 0 512 512">
    <line x1="148" y1="376" x2="148" y2="136" fill="none" stroke="#cbd5e1" stroke-linecap="round" stroke-linejoin="round" stroke-width="24"/>
    <path d="M191.41,137.06l28.75,4.2a6.37,6.37,0,0,1,5.46,6.31v73.68a6.38,6.38,0,0,1-5.46,6.32l-28.75,4.19a6.38,6.38,0,0,1-7.3-6.32V143.38A6.38,6.38,0,0,1,191.41,137.06Z" fill="#ef4444"/>
    <path d="M260.6,146.14l28.75,4.19a6.39,6.39,0,0,1,5.46,6.32v55.53a6.37,6.37,0,0,1-5.46,6.31l-28.75,4.19a6.37,6.37,0,0,1-7.3-6.31V152.46A6.38,6.38,0,0,1,260.6,146.14Z" fill="#ef4444"/>
    <path d="M329.79,155.22l28.75,4.19a6.39,6.39,0,0,1,5.46,6.32V203.1a6.39,6.39,0,0,1-5.46,6.32l-28.75,4.19a6.38,6.38,0,0,1-7.3-6.32V161.54A6.38,6.38,0,0,1,329.79,155.22Z" fill="#ef4444"/>
</svg>
