<svg xmlns="http://www.w3.org/2000/svg" xmlns:xlink="http://www.w3.org/1999/xlink" viewBox="0 0 512 512">
    <defs>
        <symbol id="a" viewBox="0 0 342 234">
            <path d="M264.16,21.29A40,40,0,1,1,293,89H9" fill="none" stroke="#e2e8f0" stroke-linecap="round" stroke-miterlimit="10" stroke-width="18"/>
            <path d="M148.16,212.71A40,40,0,1,0,177,145H9" fill="none" stroke="#e2e8f0" stroke-linecap="round" stroke-miterlimit="10" stroke-width="18"/>
        </symbol>
    </defs>
    <use width="342" height="234" transform="translate(85 139)" xlink:href="#a"/>
    <path d="M366.4,344H347.49V299H329.7V286.36h3q7.78,0,12.34-3.34,4.24-3.13,5.56-10.21l.2-.81H366.4Z" fill="#374251"/>
    <path d="M430.27,334.23Q422.14,344,408.4,344t-21.87-9.77q-8.13-9.78-8.13-26.42,0-16.46,8.13-26.13Q394.47,272,408.4,272q13.74,0,21.87,9.68t8,26.13Q438.3,324.44,430.27,334.23ZM408.4,330Q421,330,421,308T408.4,286q-12.67,0-12.68,22T408.4,330Z" fill="#374251"/>
</svg>
