<svg xmlns="http://www.w3.org/2000/svg" xmlns:xlink="http://www.w3.org/1999/xlink" viewBox="0 0 512 512">
    <defs>
        <symbol id="a" viewBox="0 0 109.06 73.15">
            <path d="M19.39,0A18.71,18.71,0,0,0,0,19.29,18.88,18.88,0,0,0,19.39,38.78a18.66,18.66,0,0,0,13.92-5.57,18.83,18.83,0,0,0,5.48-13.92A18.73,18.73,0,0,0,19.39,0Zm6.34,25.73a8.61,8.61,0,0,1-6.34,2.49,8.5,8.5,0,0,1-6.24-2.49,8.71,8.71,0,0,1-2.4-6.44A8.6,8.6,0,0,1,13.15,13a8.36,8.36,0,0,1,6.24-2.45,8.39,8.39,0,0,1,8.74,8.73A8.71,8.71,0,0,1,25.73,25.73Z" fill="#374151"/>
            <path d="M78.82,58.46a13.37,13.37,0,0,1-11.48-5.61q-4.08-5.62-4.07-16,0-10,4.07-15.55a13.42,13.42,0,0,1,11.48-5.57,12.62,12.62,0,0,1,8.59,2.88,13.25,13.25,0,0,1,4.17,8.26h17.48q-1.35-12-9.51-19T78.34,1Q63.84,1,54.62,10.75T45.31,37q0,16.41,9.22,26.3t23.71,9.89q13.16,0,21.6-7.1,8.25-7,9.22-19.59H91.58Q90,58.46,78.82,58.46Z" fill="#374151"/>
        </symbol>
    </defs>
    <use width="109.06" height="73.15" transform="translate(176.26 202.35) scale(1.46 1.47)" xlink:href="#a"/>
</svg>
