<svg xmlns="http://www.w3.org/2000/svg" xmlns:xlink="http://www.w3.org/1999/xlink" viewBox="0 0 512 512">
    <defs>
        <symbol id="a" viewBox="0 0 359 231">
            <path d="M295.5,223.5a56,56,0,0,0,0-112c-.85,0-1.68.09-2.53.13A83.9,83.9,0,0,0,140.1,47.42,55.91,55.91,0,0,0,55.5,95.5a56.56,56.56,0,0,0,.8,9.08A60,60,0,0,0,67.5,223.5" fill="none" stroke="#e2e8f0" stroke-linecap="round" stroke-linejoin="round" stroke-width="15"/>
        </symbol>
    </defs>
    <use width="359" height="231" transform="translate(76.5 140.5)" xlink:href="#a"/>
    <path d="M200,376a8,8,0,0,1-8-8V356a8,8,0,0,1,16,0v12A8,8,0,0,1,200,376Z" fill="#0a5ad4"/>
    <path d="M256,456a8,8,0,0,1-8-8V436a8,8,0,0,1,16,0v12A8,8,0,0,1,256,456Z" fill="#0a5ad4"/>
    <path d="M312,406a8,8,0,0,1-8-8V386a8,8,0,0,1,16,0v12A8,8,0,0,1,312,406Z" fill="#0a5ad4"/>
</svg>
