<svg xmlns="http://www.w3.org/2000/svg" xmlns:xlink="http://www.w3.org/1999/xlink" viewBox="0 0 512 512">
    <defs>
        <symbol id="a" viewBox="0 0 359 231">
            <path d="M295.5,223.5a56,56,0,0,0,0-112c-.85,0-1.68.09-2.53.13A83.9,83.9,0,0,0,140.1,47.42,55.91,55.91,0,0,0,55.5,95.5a56.56,56.56,0,0,0,.8,9.08A60,60,0,0,0,67.5,223.5" fill="none" stroke="#e2e8f0" stroke-linecap="round" stroke-linejoin="round" stroke-width="15"/>
        </symbol>
        <symbol id="b" viewBox="0 0 136 114">
            <path d="M12,0A12,12,0,1,0,24,12,12,12,0,0,0,12,0Z" fill="#86c3db"/>
            <path d="M68,90a12,12,0,1,0,12,12A12,12,0,0,0,68,90Z" fill="#86c3db"/>
            <path d="M124,30a12,12,0,1,0,12,12,12,12,0,0,0-12-12Z" fill="#86c3db"/>
        </symbol>
    </defs>
    <use width="359" height="231" transform="translate(76.5 140.5)" xlink:href="#a"/>
    <use width="136" height="114" transform="translate(188 350)" xlink:href="#b"/>
</svg>
