<svg xmlns="http://www.w3.org/2000/svg" xmlns:xlink="http://www.w3.org/1999/xlink" viewBox="0 0 512 512">
    <defs>
        <clipPath id="a">
            <path d="M353,308a56,56,0,0,0-56-56c-.85,0-1.68.09-2.53.13A83.7,83.7,0,0,0,213,148V0H449.16V308Z" fill="none"/>
        </clipPath>
        <symbol id="c" viewBox="0 0 214.26 140.12">
            <path d="M7.5,100.18a32.44,32.44,0,0,0,32.44,32.44H169.69v-.12c.77.05,1.53.12,2.31.12a34.75,34.75,0,0,0,6.49-68.89A32.38,32.38,0,0,0,130,30.62,48.58,48.58,0,0,0,41.4,67.81c-.49,0-1-.07-1.46-.07A32.44,32.44,0,0,0,7.5,100.18Z" fill="none" stroke="#94a3b8" stroke-linejoin="round" stroke-width="15"/>
        </symbol>
        <symbol id="d" viewBox="0 0 362 234">
            <path d="M297,225a56,56,0,0,0,0-112c-.85,0-1.68.09-2.53.13A83.9,83.9,0,0,0,141.6,48.92,55.91,55.91,0,0,0,57,97a56.56,56.56,0,0,0,.8,9.08A60,60,0,0,0,69,225" fill="none" stroke="#e2e8f0" stroke-linecap="round" stroke-linejoin="round" stroke-width="18"/>
        </symbol>
        <symbol id="b" viewBox="0 0 449.16 373">
            <g clip-path="url(#a)">
                <use width="214.26" height="140.12" transform="translate(197.01 165.01)" xlink:href="#c"/>
            </g>
            <use width="362" height="234" transform="translate(0 139)" xlink:href="#d"/>
        </symbol>
        <symbol id="e" viewBox="0 0 173 217">
            <circle cx="88.5" cy="188.5" r="24" fill="none" stroke="#afb4bc" stroke-miterlimit="10" stroke-width="9"/>
            <circle cx="40.5" cy="124.5" r="36" fill="none" stroke="#afb4bc" stroke-miterlimit="10" stroke-width="9"/>
            <circle cx="120.5" cy="52.5" r="48" fill="none" stroke="#afb4bc" stroke-miterlimit="10" stroke-width="9"/>
        </symbol>
    </defs>
    <use width="449.16" height="373" transform="translate(62.84)" xlink:href="#b"/>
    <use width="173" height="217" transform="translate(169.5 229.5)" xlink:href="#e"/>
</svg>
