<svg xmlns="http://www.w3.org/2000/svg" xmlns:xlink="http://www.w3.org/1999/xlink" viewBox="0 0 512 512">
    <defs>
        <clipPath id="a">
            <path d="M351.5,308a56,56,0,0,0-56-56c-.85,0-1.68.09-2.53.13A83.7,83.7,0,0,0,211.5,148V0H447.66V308Z" fill="none"/>
        </clipPath>
        <clipPath id="b">
            <path d="M276,148a83.84,83.84,0,0,0-71.4,39.92A55.91,55.91,0,0,0,120,236a56.56,56.56,0,0,0,.8,9.08A60,60,0,0,0,72,304H0V0H276Z" fill="none"/>
        </clipPath>
        <symbol id="d" viewBox="0 0 178 178">
            <path d="M163.62,110.4c-47.17,0-85.41-37.73-85.41-84.26A83.31,83.31,0,0,1,81,5C38.27,9.61,5,45.33,5,88.73,5,135.27,43.24,173,90.41,173A85.16,85.16,0,0,0,173,109.87,88,88,0,0,1,163.62,110.4Z" fill="none" stroke="#72b9d5" stroke-linecap="round" stroke-linejoin="round" stroke-width="10"/>
        </symbol>
        <symbol id="f" viewBox="0 0 214.26 140.12">
            <path d="M7.5,100.18a32.44,32.44,0,0,0,32.44,32.44H169.69v-.12c.77.05,1.53.12,2.31.12a34.75,34.75,0,0,0,6.49-68.89A32.38,32.38,0,0,0,130,30.62,48.58,48.58,0,0,0,41.4,67.81c-.49,0-1-.07-1.46-.07A32.44,32.44,0,0,0,7.5,100.18Z" fill="none" stroke="#94a3b8" stroke-linejoin="round" stroke-width="15"/>
        </symbol>
        <symbol id="g" viewBox="0 0 359 231">
            <path d="M295.5,223.5a56,56,0,0,0,0-112c-.85,0-1.68.09-2.53.13A83.9,83.9,0,0,0,140.1,47.42,55.91,55.91,0,0,0,55.5,95.5a56.56,56.56,0,0,0,.8,9.08A60,60,0,0,0,67.5,223.5" fill="none" stroke="#e2e8f0" stroke-linecap="round" stroke-linejoin="round" stroke-width="15"/>
        </symbol>
        <symbol id="e" viewBox="0 0 447.66 371.5">
            <g clip-path="url(#a)">
                <use width="214.26" height="140.12" transform="translate(195.51 165.01)" xlink:href="#f"/>
            </g>
            <use width="359" height="231" transform="translate(0 140.5)" xlink:href="#g"/>
        </symbol>
        <symbol id="c" viewBox="0 0 512 371.5">
            <g clip-path="url(#b)">
                <use width="178" height="178" transform="translate(65 118)" xlink:href="#d"/>
            </g>
            <use width="447.66" height="371.5" transform="translate(64.34)" xlink:href="#e"/>
        </symbol>
        <symbol id="h" viewBox="0 0 136 114">
            <path d="M12,0A12,12,0,1,0,24,12,12,12,0,0,0,12,0Z" fill="#86c3db"/>
            <path d="M68,90a12,12,0,1,0,12,12A12,12,0,0,0,68,90Z" fill="#86c3db"/>
            <path d="M124,30a12,12,0,1,0,12,12,12,12,0,0,0-12-12Z" fill="#86c3db"/>
        </symbol>
    </defs>
    <use width="512" height="371.5" xlink:href="#c"/>
    <use width="136" height="114" transform="translate(188 350)" xlink:href="#h"/>
</svg>
