<svg xmlns="http://www.w3.org/2000/svg" xmlns:xlink="http://www.w3.org/1999/xlink" viewBox="0 0 512 512">
    <defs>
        <clipPath id="a">
            <path d="M288,148a83.84,83.84,0,0,0-71.4,39.92A55.91,55.91,0,0,0,132,236a56.56,56.56,0,0,0,.8,9.08A60,60,0,0,0,84,304H0V0H288Z" fill="none"/>
        </clipPath>
        <symbol id="c" viewBox="0 0 178 178">
            <path d="M163.62,110.4c-47.17,0-85.41-37.73-85.41-84.26A83.31,83.31,0,0,1,81,5C38.27,9.61,5,45.33,5,88.73,5,135.27,43.24,173,90.41,173A85.16,85.16,0,0,0,173,109.87,88,88,0,0,1,163.62,110.4Z" fill="none" stroke="#72b9d5" stroke-linecap="round" stroke-linejoin="round" stroke-width="10"/>
        </symbol>
        <symbol id="d" viewBox="0 0 359 231">
            <path d="M295.5,223.5a56,56,0,0,0,0-112c-.85,0-1.68.09-2.53.13A83.9,83.9,0,0,0,140.1,47.42,55.91,55.91,0,0,0,55.5,95.5a56.56,56.56,0,0,0,.8,9.08A60,60,0,0,0,67.5,223.5" fill="none" stroke="#e2e8f0" stroke-linecap="round" stroke-linejoin="round" stroke-width="15"/>
        </symbol>
        <symbol id="b" viewBox="0 0 435.5 371.5">
            <g clip-path="url(#a)">
                <use width="178" height="178" transform="translate(77 118)" xlink:href="#c"/>
            </g>
            <use width="359" height="231" transform="translate(76.5 140.5)" xlink:href="#d"/>
        </symbol>
        <symbol id="e" viewBox="0 0 173 217">
            <circle cx="88.5" cy="188.5" r="24" fill="none" stroke="#afb4bc" stroke-miterlimit="10" stroke-width="9"/>
            <circle cx="40.5" cy="124.5" r="36" fill="none" stroke="#afb4bc" stroke-miterlimit="10" stroke-width="9"/>
            <circle cx="120.5" cy="52.5" r="48" fill="none" stroke="#afb4bc" stroke-miterlimit="10" stroke-width="9"/>
        </symbol>
    </defs>
    <use width="435.5" height="371.5" xlink:href="#b"/>
    <use width="173" height="217" transform="translate(169.5 229.5)" xlink:href="#e"/>
</svg>
