<svg xmlns="http://www.w3.org/2000/svg" xmlns:xlink="http://www.w3.org/1999/xlink" viewBox="0 0 512 512">
    <defs>
        <clipPath id="a">
            <polygon points="238 59.13 36 59.13 36 268 88.4 268 155.77 185.4 238 166.21 238 59.13" fill="none"/>
        </clipPath>
        <clipPath id="b">
            <path d="M368.44,0V225.59h-16.5a45.2,45.2,0,0,0-38.5,21.52A30.16,30.16,0,0,0,267.82,273a29.37,29.37,0,0,0,.44,4.9,32.34,32.34,0,0,0-26.32,31.77v9.8H0V0Z" fill="none"/>
        </clipPath>
        <symbol id="c" viewBox="0 0 193 193">
            <circle cx="96.5" cy="96.5" r="40" fill="none" stroke="#fbbf24" stroke-miterlimit="10" stroke-width="9"/>
            <path d="M96.5,29.88V4.5m0,184V163.12M143.61,49.39l17.94-17.94M31.45,161.55l17.94-17.94m0-94.22L31.45,31.45m130.1,130.1-17.94-17.94M4.5,96.5H29.88m158.62,0H163.12" fill="none" stroke="#fbbf24" stroke-linecap="round" stroke-miterlimit="10" stroke-width="9"/>
        </symbol>
        <symbol id="d" viewBox="0 0 197.48 128.47">
            <path d="M161.29,62.08c-.46,0-.91,0-1.36.07a45.76,45.76,0,0,0,1.36-10.86A45.26,45.26,0,0,0,77.5,27.52,30.15,30.15,0,0,0,31.88,53.45a30.47,30.47,0,0,0,.43,4.9,32.34,32.34,0,0,0,6,64.12c.73,0,1.44-.06,2.16-.11v.11H161.29a30.2,30.2,0,0,0,0-60.39Z" fill="none" stroke="#e2e8f0" stroke-miterlimit="10" stroke-width="12"/>
        </symbol>
    </defs>
    <g clip-path="url(#a)">
        <use width="193" height="193" transform="translate(49.5 79.5)" xlink:href="#c"/>
    </g>
    <g clip-path="url(#b)">
        <path d="M82,310c0-79.53,66.26-144,148-144s148,64.47,148,144" fill="none" stroke="#f87171" stroke-miterlimit="10" stroke-width="24"/>
        <path d="M106,310c0-66.27,55.52-120,124-120s124,53.73,124,120" fill="none" stroke="#fbbf24" stroke-miterlimit="10" stroke-width="24"/>
        <path d="M130,310c0-53,44.77-96,100-96s100,43,100,96" fill="none" stroke="#51cf66" stroke-miterlimit="10" stroke-width="24"/>
    </g>
    <use width="197.48" height="128.47" transform="translate(235.94 219.59)" xlink:href="#d"/>
</svg>
