<svg xmlns="http://www.w3.org/2000/svg" viewBox="0 0 512 512">
    <path d="M372,295.22l-34.26-19.77a83.79,83.79,0,0,0-.08-38.86L372,216.78a24,24,0,1,0-24-41.56L313.67,195A81.44,81.44,0,0,0,280,175.58V136a24,24,0,0,0-48,0v39.62A84.08,84.08,0,0,0,198.28,195L164,175.22a24,24,0,1,0-24,41.56l34.26,19.77a83.79,83.79,0,0,0,.08,38.86L140,295.22a24,24,0,1,0,24,41.56L198.33,317A80.62,80.62,0,0,0,232,336.37V376a24,24,0,0,0,48,0V336.32A84,84,0,0,0,313.67,317L348,336.78a24,24,0,1,0,24-41.56Zm-134-8A36,36,0,1,1,287.2,274,36,36,0,0,1,238,287.18Z" fill="none" stroke="#72b9d5" stroke-linecap="round" stroke-linejoin="round" stroke-width="15"/>
</svg>
