<svg xmlns="http://www.w3.org/2000/svg" xmlns:xlink="http://www.w3.org/1999/xlink" viewBox="0 0 512 512">
    <defs>
        <symbol id="a" viewBox="0 0 279 279">
            <path d="M256.75,173.13c-74.12,0-134.21-59.28-134.21-132.42A130.48,130.48,0,0,1,127,7.5C59.79,14.75,7.5,70.87,7.5,139.08c0,73.13,60.09,132.42,134.21,132.42,62.48,0,114.83-42.18,129.79-99.21A135.56,135.56,0,0,1,256.75,173.13Z" fill="none" stroke="#72b9d5" stroke-linecap="round" stroke-linejoin="round" stroke-width="15"/>
        </symbol>
    </defs>
    <path d="M282.83,162.84l24.93-6.42a1.78,1.78,0,0,1,1.71.46l18.37,18a1.8,1.8,0,0,0,3-1.73l-6.42-24.93a1.78,1.78,0,0,1,.46-1.71l18-18.37a1.8,1.8,0,0,0-1.73-3l-24.93,6.42a1.78,1.78,0,0,1-1.71-.46l-18.37-18a1.8,1.8,0,0,0-3,1.73l6.42,24.93a1.78,1.78,0,0,1-.46,1.71l-18,18.37A1.8,1.8,0,0,0,282.83,162.84Z" fill="#fcd34d"/>
    <path d="M285.4,193.44l12,12.25a1.19,1.19,0,0,1,.3,1.14l-4.28,16.62a1.2,1.2,0,0,0,2,1.15l12.25-12a1.19,1.19,0,0,1,1.14-.3l16.62,4.28a1.2,1.2,0,0,0,1.15-2l-12-12.25a1.19,1.19,0,0,1-.3-1.14l4.28-16.62a1.2,1.2,0,0,0-2-1.15l-12.25,12a1.19,1.19,0,0,1-1.14.3l-16.62-4.28A1.2,1.2,0,0,0,285.4,193.44Z" fill="#fcd34d"/>
    <path d="M337.32,223.73l24.8,6.9a1.83,1.83,0,0,1,1.25,1.25l6.9,24.8a1.79,1.79,0,0,0,3.46,0l6.9-24.8a1.83,1.83,0,0,1,1.25-1.25l24.8-6.9a1.79,1.79,0,0,0,0-3.46l-24.8-6.9a1.83,1.83,0,0,1-1.25-1.25l-6.9-24.8a1.79,1.79,0,0,0-3.46,0l-6.9,24.8a1.83,1.83,0,0,1-1.25,1.25l-24.8,6.9A1.79,1.79,0,0,0,337.32,223.73Z" fill="#fcd34d"/>
    <use width="279" height="279" transform="translate(116.5 116.5)" xlink:href="#a"/>
</svg>
