<svg xmlns="http://www.w3.org/2000/svg" xmlns:xlink="http://www.w3.org/1999/xlink" viewBox="0 0 512 512">
    <defs>
        <clipPath id="a">
            <polygon points="0 0 512 0 0 512 0 0" fill="none"/>
        </clipPath>
        <symbol id="b" viewBox="0 0 375 375">
            <circle cx="187.5" cy="187.5" r="84" fill="none" stroke="#fbbf24" stroke-miterlimit="10" stroke-width="15"/>
            <path d="M187.5,57.16V7.5m0,360V317.84M279.67,95.33l35.11-35.11M60.22,314.78l35.11-35.11m0-184.34L60.22,60.22M314.78,314.78l-35.11-35.11M57.16,187.5H7.5m360,0H317.84" fill="none" stroke="#fbbf24" stroke-linecap="round" stroke-miterlimit="10" stroke-width="15"/>
        </symbol>
    </defs>
    <g clip-path="url(#a)">
        <use width="375" height="375" transform="translate(68.5 68.5)" xlink:href="#b"/>
    </g>
    <path d="M197.48,355.79c11.43-12,24.46.42,35.89-11.58s-1.61-24.41,9.82-36.41,24.46.41,35.89-11.59-1.6-24.41,9.82-36.41,24.47.41,35.9-11.59-1.61-24.41,9.82-36.41,24.47.41,35.9-11.59" fill="none" stroke="#cbd5e1" stroke-linecap="round" stroke-linejoin="round" stroke-width="12"/>
    <path d="M257.48,355.79c11.43-12,24.46.42,35.89-11.58s-1.61-24.41,9.82-36.41,24.46.41,35.89-11.59-1.6-24.41,9.82-36.41,24.47.41,35.9-11.59-1.61-24.41,9.82-36.41,24.47.41,35.9-11.59" fill="none" stroke="#cbd5e1" stroke-linecap="round" stroke-linejoin="round" stroke-width="12"/>
</svg>
