<svg xmlns="http://www.w3.org/2000/svg" xmlns:xlink="http://www.w3.org/1999/xlink" viewBox="0 0 512 512">
    <defs>
        <symbol id="b" viewBox="0 0 72 168">
            <circle cx="36" cy="132" r="36" fill="#ef4444"/>
            <path d="M36,12V132" fill="none" stroke="#ef4444" stroke-linecap="round" stroke-miterlimit="10" stroke-width="24"/>
        </symbol>
        <symbol id="c" viewBox="0 0 118 278">
            <path d="M115,218.16C115,249.55,89.93,275,59,275S3,249.55,3,218.16a57,57,0,0,1,24-46.6V35.48a32,32,0,1,1,64,0V171.56A57,57,0,0,1,115,218.16ZM63,83H91M63,51H91M63,115H91" fill="none" stroke="#cbd5e1" stroke-linecap="round" stroke-linejoin="round" stroke-width="6"/>
        </symbol>
        <symbol id="a" viewBox="0 0 118 278">
            <use width="72" height="168" transform="translate(23 87)" xlink:href="#b"/>
            <use width="118" height="278" xlink:href="#c"/>
        </symbol>
    </defs>
    <use width="118" height="278" transform="translate(197 117)" xlink:href="#a"/>
    <path d="M372.5,247a4.59,4.59,0,0,1-3.18-1.26L350,227.34l-19.32,18.4a4.64,4.64,0,0,1-6.36,0,4.14,4.14,0,0,1,0-6.06l22.5-21.42a4.64,4.64,0,0,1,6.36,0l22.5,21.42a4.14,4.14,0,0,1,0,6.06A4.59,4.59,0,0,1,372.5,247Z" fill="#e34647"/>
    <path d="M372.5,274a4.59,4.59,0,0,1-3.18-1.26L350,254.34l-19.32,18.4a4.64,4.64,0,0,1-6.36,0,4.14,4.14,0,0,1,0-6.06l22.5-21.42a4.64,4.64,0,0,1,6.36,0l22.5,21.42a4.14,4.14,0,0,1,0,6.06A4.59,4.59,0,0,1,372.5,274Z" fill="#e34647"/>
    <path d="M372.5,301a4.59,4.59,0,0,1-3.18-1.26L350,281.34l-19.32,18.4a4.64,4.64,0,0,1-6.36,0,4.14,4.14,0,0,1,0-6.06l22.5-21.42a4.64,4.64,0,0,1,6.36,0l22.5,21.42a4.14,4.14,0,0,1,0,6.06A4.59,4.59,0,0,1,372.5,301Z" fill="#e34647"/>
</svg>
