<svg xmlns="http://www.w3.org/2000/svg" xmlns:xlink="http://www.w3.org/1999/xlink" viewBox="0 0 512 512">
    <defs>
        <clipPath id="a">
            <path d="M333.92,392c-30.93,0-56-25.45-56-56.84a57,57,0,0,1,24-46.6V152.46a32.23,32.23,0,0,1,32-32.47H167.4V392Zm4-192h28m-28-32h28m-28,64h28" fill="none"/>
        </clipPath>
        <symbol id="b" viewBox="0 0 175 260.88">
            <path d="M87.5,13.38c-48.7,72-80,117-80,160.75s35.79,79.25,80,79.25,80-35.47,80-79.25S136.2,85.35,87.5,13.38Z" fill="none" stroke="#2885c7" stroke-miterlimit="10" stroke-width="15"/>
        </symbol>
        <symbol id="d" viewBox="0 0 72 168">
            <circle cx="36" cy="132" r="36" fill="#ef4444"/>
            <path d="M36,12V132" fill="none" stroke="#ef4444" stroke-linecap="round" stroke-miterlimit="10" stroke-width="24"/>
        </symbol>
        <symbol id="e" viewBox="0 0 118 278">
            <path d="M115,218.16C115,249.55,89.93,275,59,275S3,249.55,3,218.16a57,57,0,0,1,24-46.6V35.48a32,32,0,1,1,64,0V171.56A57,57,0,0,1,115,218.16ZM63,83H91M63,51H91M63,115H91" fill="none" stroke="#cbd5e1" stroke-linecap="round" stroke-linejoin="round" stroke-width="6"/>
        </symbol>
        <symbol id="c" viewBox="0 0 118 278">
            <use width="72" height="168" transform="translate(23 87)" xlink:href="#d"/>
            <use width="118" height="278" xlink:href="#e"/>
        </symbol>
    </defs>
    <g clip-path="url(#a)">
        <use width="175" height="260.88" transform="translate(168.43 123.18)" xlink:href="#b"/>
    </g>
    <use width="118" height="278" transform="translate(275 117)" xlink:href="#c"/>
</svg>
