<svg xmlns="http://www.w3.org/2000/svg" xmlns:xlink="http://www.w3.org/1999/xlink" viewBox="0 0 512 512">
    <defs>
        <clipPath id="a">
            <path d="M372,357c-22.09,0-40-18.15-40-40.54a40.64,40.64,0,0,1,17.14-33.24V186.16A23,23,0,0,1,372,163H119.24V357Zm2.86-136.94h20m-20-22.82h20m-20,45.64h20" fill="none"/>
        </clipPath>
        <symbol id="b" viewBox="0 0 252 100">
            <path d="M246,28.63h-8c-10.92,0-20.85-11.66-26-21.39a2.28,2.28,0,0,0-4.06,0c-5.12,9.73-15.05,21.39-26,21.39S161.15,17,156,7.24a2.28,2.28,0,0,0-4.06,0c-5.12,9.73-15.05,21.39-26,21.39S105.15,17,100,7.24a2.28,2.28,0,0,0-4.06,0c-5.12,9.73-15,21.39-26,21.39S49.15,17,44,7.24a2.28,2.28,0,0,0-4.06,0c-5.12,9.73-15,21.39-26,21.39H6V77.7A16.14,16.14,0,0,0,22,94H230a16.14,16.14,0,0,0,16-16.3Z" fill="none" stroke="#2885c7" stroke-linecap="round" stroke-linejoin="round" stroke-width="12"/>
        </symbol>
    </defs>
    <g clip-path="url(#a)">
        <use width="252" height="100" transform="translate(130 238)" xlink:href="#b"/>
    </g>
    <ellipse cx="372" cy="317.06" rx="25.71" ry="25.68" fill="#ef4444"/>
    <path d="M372,231.47v85.59" fill="none" stroke="#ef4444" stroke-linecap="round" stroke-miterlimit="10" stroke-width="17.13"/>
    <path d="M412,316.46c0,22.39-17.91,40.54-40,40.54s-40-18.15-40-40.54a40.64,40.64,0,0,1,17.14-33.24V186.16a22.86,22.86,0,1,1,45.72,0v97.06A40.64,40.64,0,0,1,412,316.46Zm-37.14-96.4h20m-20-22.82h20m-20,45.64h20" fill="none" stroke="#cbd5e1" stroke-linecap="round" stroke-linejoin="round" stroke-width="4.28"/>
</svg>
