<svg xmlns="http://www.w3.org/2000/svg" xmlns:xlink="http://www.w3.org/1999/xlink" viewBox="0 0 512 512">
    <defs>
        <symbol id="a" viewBox="0 0 252 100">
            <path d="M246,28.63h-8c-10.92,0-20.85-11.66-26-21.39a2.28,2.28,0,0,0-4.06,0c-5.12,9.73-15.05,21.39-26,21.39S161.15,17,156,7.24a2.28,2.28,0,0,0-4.06,0c-5.12,9.73-15.05,21.39-26,21.39S105.15,17,100,7.24a2.28,2.28,0,0,0-4.06,0c-5.12,9.73-15,21.39-26,21.39S49.15,17,44,7.24a2.28,2.28,0,0,0-4.06,0c-5.12,9.73-15,21.39-26,21.39H6V77.7A16.14,16.14,0,0,0,22,94H230a16.14,16.14,0,0,0,16-16.3Z" fill="none" stroke="#2885c7" stroke-linecap="round" stroke-linejoin="round" stroke-width="12"/>
        </symbol>
    </defs>
    <use width="252" height="100" transform="translate(130 238)" xlink:href="#a"/>
    <polyline points="256 218 256 146 232 173.58 256 146 280 173.58" fill="none" stroke="#374151" stroke-linecap="round" stroke-linejoin="round" stroke-width="12"/>
</svg>
