<svg xmlns="http://www.w3.org/2000/svg" xmlns:xlink="http://www.w3.org/1999/xlink" viewBox="0 0 512 512">
    <defs>
        <symbol id="a" viewBox="0 0 291.56 290.63">
            <ellipse cx="145.78" cy="145.31" rx="64.53" ry="64.31" fill="none" stroke="#ff922b" stroke-miterlimit="10" stroke-width="12"/>
            <path d="M145.78,45.52V7.5m0,275.63v-38M216.59,74.75l27-26.89M48,242.76l27-26.88M75,74.75,48,47.86m195.56,194.9-27-26.88M45.65,145.31H7.5m276.56,0H245.92" fill="none" stroke="#ff922b" stroke-linecap="round" stroke-miterlimit="10" stroke-width="15"/>
        </symbol>
    </defs>
    <path d="M185.26,438.38H171.8v-32H159.12v-9h2.17q5.53,0,8.78-2.37c2-1.49,3.33-3.92,4-7.27l.14-.58h11.09Z" fill="#374251"/>
    <path d="M217.3,439.68q-8.78,0-14.36-4a16.15,16.15,0,0,1-6.59-11.45l12.81-1a7.23,7.23,0,0,0,2.78,4.43,8.75,8.75,0,0,0,5.29,1.55,8.44,8.44,0,0,0,6.15-2.2,8.44,8.44,0,0,0,0-11.52,8.48,8.48,0,0,0-6.15-2.2,9.22,9.22,0,0,0-7.13,3.1L198,415.27l4.68-28.15h32.26v10.73H212.41l-1.66,8.78.21.15a17.12,17.12,0,0,1,10.37-3q7.78,0,12.46,4.61t4.75,12.46q0,8.64-5.69,13.68T217.3,439.68Z" fill="#374251"/>
    <path d="M266.26,423.34H245.74V413.4h20.52Z" fill="#374251"/>
    <path d="M297.44,438.38H284v-32H271.3v-9h2.16q5.54,0,8.78-2.37c2-1.49,3.34-3.92,4-7.27l.14-.58h11.09Z" fill="#374251"/>
    <path d="M345.68,435.29q-5.91,4.38-16.06,4.39t-16-4.39a14.19,14.19,0,0,1-5.9-12,12.16,12.16,0,0,1,2.63-8,13.21,13.21,0,0,1,7.38-4.36v-.22a11.05,11.05,0,0,1-5.58-4.13,11.41,11.41,0,0,1-2.05-6.74,11.93,11.93,0,0,1,5.14-10.25q5.16-3.72,14.37-3.72t14.47,3.72a11.9,11.9,0,0,1,5.19,10.25,11.53,11.53,0,0,1-2.06,6.81,10.62,10.62,0,0,1-5.58,4.06V411a13.55,13.55,0,0,1,7.35,4.39,12.18,12.18,0,0,1,2.59,7.93A14.19,14.19,0,0,1,345.68,435.29Zm-16-5.26a10.67,10.67,0,0,0,6.7-1.91,7,7,0,0,0,0-10.58,10.61,10.61,0,0,0-6.73-1.91,10.89,10.89,0,0,0-6.84,1.91,6.9,6.9,0,0,0,0,10.58A10.9,10.9,0,0,0,329.69,430Zm0-22.68a9.35,9.35,0,0,0,5.87-1.65,5.55,5.55,0,0,0,2.12-4.61,5.18,5.18,0,0,0-2.08-4.43,9.82,9.82,0,0,0-5.91-1.55q-8.07,0-8.06,6a5.52,5.52,0,0,0,2.12,4.61A9.49,9.49,0,0,0,329.69,407.35Z" fill="#374251"/>
    <use width="291.56" height="290.63" transform="translate(110.33 72.62)" xlink:href="#a"/>
</svg>
