<svg xmlns="http://www.w3.org/2000/svg" xmlns:xlink="http://www.w3.org/1999/xlink" viewBox="0 0 512 512">
    <defs>
        <symbol id="a" viewBox="0 0 291 291">
            <circle cx="145.5" cy="145.5" r="64.4" fill="none" stroke="#fbbf24" stroke-miterlimit="10" stroke-width="12"/>
            <path d="M145.5,45.57V7.5m0,276V245.43M216.16,74.84l26.92-26.92M47.92,243.08l26.92-26.92m0-141.32L47.92,47.92M243.08,243.08l-26.92-26.92M45.57,145.5H7.5m276,0H245.43" fill="none" stroke="#fbbf24" stroke-linecap="round" stroke-miterlimit="10" stroke-width="15"/>
        </symbol>
    </defs>
    <path d="M185.26,438.38H171.8v-32H159.12v-9h2.17q5.53,0,8.78-2.37c2-1.49,3.33-3.92,4-7.27l.14-.58h11.09Z" fill="#374251"/>
    <path d="M237.75,438.38H197.14a20.77,20.77,0,0,1,3-11.44q3-4.47,10.8-9.87l7.92-5.61a16.34,16.34,0,0,0,4.29-4,7.45,7.45,0,0,0,1.26-4.25,6.35,6.35,0,0,0-1.88-4.86,7.12,7.12,0,0,0-5.11-1.77q-7.34,0-7.34,8.57v1.08H197.86v-1.58q0-8.85,5.18-13.83t14.69-5q9.08,0,14.4,4.4t5.4,12.17a16.09,16.09,0,0,1-2.55,8.92A26.72,26.72,0,0,1,226.8,419L218,424.56c-1.68,1.1-2.59,2-2.74,2.81h22.54Z" fill="#374251"/>
    <path d="M266.26,423.34H245.74V413.4h20.52Z" fill="#374251"/>
    <path d="M297.44,438.38H284v-32H271.3v-9h2.16q5.54,0,8.78-2.37c2-1.49,3.34-3.92,4-7.27l.14-.58h11.09Z" fill="#374251"/>
    <path d="M329.47,439.68q-8.78,0-14.36-4a16.18,16.18,0,0,1-6.59-11.45l12.82-1a7.22,7.22,0,0,0,2.77,4.43,8.77,8.77,0,0,0,5.29,1.55,8.46,8.46,0,0,0,6.16-2.2,8.44,8.44,0,0,0,0-11.52,8.5,8.5,0,0,0-6.16-2.2,9.2,9.2,0,0,0-7.12,3.1l-12.1-1.08,4.68-28.15h32.26v10.73H324.58l-1.66,8.78.22.15a17.1,17.1,0,0,1,10.37-3q7.77,0,12.45,4.61t4.75,12.46q0,8.64-5.68,13.68T329.47,439.68Z" fill="#374251"/>
    <use width="291" height="291" transform="translate(110.38 72.63)" xlink:href="#a"/>
</svg>
