<svg xmlns="http://www.w3.org/2000/svg" xmlns:xlink="http://www.w3.org/1999/xlink" viewBox="0 0 512 512">
    <defs>
        <clipPath id="a">
            <rect y="12" width="512" height="282" fill="none"/>
        </clipPath>
        <symbol id="b" viewBox="0 0 291 291">
            <circle cx="145.5" cy="145.5" r="64.4" fill="none" stroke="#fbbf24" stroke-miterlimit="10" stroke-width="12"/>
            <path d="M145.5,45.57V7.5m0,276V245.43M216.16,74.84l26.92-26.92M47.92,243.08l26.92-26.92m0-141.32L47.92,47.92M243.08,243.08l-26.92-26.92M45.57,145.5H7.5m276,0H245.43" fill="none" stroke="#fbbf24" stroke-linecap="round" stroke-miterlimit="10" stroke-width="15"/>
        </symbol>
    </defs>
    <g clip-path="url(#a)">
        <use width="291" height="291" transform="translate(110.44 110.63)" xlink:href="#b"/>
    </g>
    <line x1="128" y1="320" x2="384" y2="320" fill="none" stroke="#374151" stroke-linecap="round" stroke-linejoin="round" stroke-width="18"/>
    <path d="M214.46,392q7.2,6.76,7.2,20.59,0,13.09-5.73,20.26T199.27,440c-5.05,0-9.23-1.14-12.57-3.42a16.28,16.28,0,0,1-6.66-9.61l12.39-.8c1,2.74,3.36,4.11,6.91,4.11a8.06,8.06,0,0,0,6.73-3q2.34-3,2.84-9.69-4.46,5.34-12.38,5.33-8.13,0-13.18-4.82t-5.11-12.89A17.87,17.87,0,0,1,184,391.44q5.69-5.25,15.05-5.26T214.46,392Zm-14.91,21.3a8.16,8.16,0,0,0,6-2.3,9.07,9.07,0,0,0,2.52-6.19,8.63,8.63,0,0,0-2.09-5.4,8.34,8.34,0,0,0-6.62-2.81,8,8,0,0,0-6.16,2.34,8.45,8.45,0,0,0-2.19,6A8.1,8.1,0,0,0,193.4,411,8.37,8.37,0,0,0,199.55,413.25Z" fill="#374251"/>
    <path d="M248.73,423.34H228.21V413.4h20.52Z" fill="#374251"/>
    <path d="M279.9,438.38H266.44v-32H253.77v-9h2.16q5.54,0,8.78-2.37c2-1.49,3.34-3.92,4-7.27l.15-.58H279.9Z" fill="#374251"/>
    <path d="M332.39,438.38H291.78a20.77,20.77,0,0,1,3-11.44q2.94-4.47,10.8-9.87l7.92-5.61a16.44,16.44,0,0,0,4.28-4,7.45,7.45,0,0,0,1.26-4.25,6.38,6.38,0,0,0-1.87-4.86,7.14,7.14,0,0,0-5.11-1.77q-7.35,0-7.35,8.57v1.08H292.5v-1.58q0-8.85,5.19-13.83t14.68-5q9.08,0,14.41,4.4c3.59,3,5.4,7,5.4,12.17a16.1,16.1,0,0,1-2.56,8.92,26.67,26.67,0,0,1-8.17,7.57l-8.86,5.61c-1.68,1.1-2.59,2-2.73,2.81h22.53Z" fill="#374251"/>
</svg>
