<svg xmlns="http://www.w3.org/2000/svg" xmlns:xlink="http://www.w3.org/1999/xlink" viewBox="0 0 512 512">
    <defs>
        <clipPath id="a">
            <rect y="12" width="512" height="282" fill="none"/>
        </clipPath>
        <symbol id="b" viewBox="0 0 291 291">
            <circle cx="145.5" cy="145.5" r="64.4" fill="none" stroke="#fbbf24" stroke-miterlimit="10" stroke-width="12"/>
            <path d="M145.5,45.57V7.5m0,276V245.43M216.16,74.84l26.92-26.92M47.92,243.08l26.92-26.92m0-141.32L47.92,47.92M243.08,243.08l-26.92-26.92M45.57,145.5H7.5m276,0H245.43" fill="none" stroke="#fbbf24" stroke-linecap="round" stroke-miterlimit="10" stroke-width="15"/>
        </symbol>
    </defs>
    <g clip-path="url(#a)">
        <use width="291" height="291" transform="translate(110.5 168.5)" xlink:href="#b"/>
    </g>
    <line x1="128" y1="320" x2="384" y2="320" fill="none" stroke="#374151" stroke-linecap="round" stroke-linejoin="round" stroke-width="18"/>
    <path d="M220.83,403q8.21,0,13.25,4.83t5.11,12.95a17.89,17.89,0,0,1-5.76,13.76q-5.76,5.25-15.12,5.25T202.9,434q-7.12-6.76-7.13-20.66,0-13.11,5.73-20.27t16.59-7.17a21.8,21.8,0,0,1,12.57,3.43,16.65,16.65,0,0,1,6.73,9.68l-12.46.72c-1.05-2.74-3.36-4.1-6.91-4.1a7.89,7.89,0,0,0-6.73,3q-2.26,3-2.77,9.75Q212.84,403,220.83,403Zm-9.5,23.61a8.57,8.57,0,0,0,6.62,2.81,7.82,7.82,0,0,0,6.19-2.44,8.88,8.88,0,0,0,2.16-6,8,8,0,0,0-2.38-6,8.43,8.43,0,0,0-6.12-2.3,8.24,8.24,0,0,0-6,2.27,8.94,8.94,0,0,0-2.52,6.16A9.13,9.13,0,0,0,211.33,426.57Z" fill="#374251"/>
    <path d="M266.26,423.34H245.74V413.4h20.52Z" fill="#374251"/>
    <path d="M309.1,392q7.2,6.76,7.2,20.59,0,13.09-5.72,20.26T293.91,440q-7.56,0-12.57-3.42a16.37,16.37,0,0,1-6.66-9.61l12.39-.8c1.05,2.74,3.36,4.11,6.91,4.11a8,8,0,0,0,6.73-3q2.34-3,2.85-9.69-4.47,5.34-12.39,5.33-8.13,0-13.17-4.82t-5.12-12.89a17.87,17.87,0,0,1,5.76-13.75q5.7-5.25,15.05-5.26T309.1,392Zm-14.9,21.3a8.14,8.14,0,0,0,6-2.3,9.07,9.07,0,0,0,2.52-6.19,8.68,8.68,0,0,0-2.08-5.4,8.36,8.36,0,0,0-6.63-2.81,8,8,0,0,0-6.15,2.34,8.42,8.42,0,0,0-2.2,6A8.1,8.1,0,0,0,288,411,8.38,8.38,0,0,0,294.2,413.25Z" fill="#374251"/>
</svg>
