<svg xmlns="http://www.w3.org/2000/svg" xmlns:xlink="http://www.w3.org/1999/xlink" viewBox="0 0 512 512">
    <defs>
        <clipPath id="a">
            <path d="M64,64H448V256H328a72,72,0,0,0-72,72V448H64Z" fill="none"/>
        </clipPath>
        <symbol id="b" viewBox="0 0 375 375">
            <circle cx="187.5" cy="187.5" r="84" fill="none" stroke="#fbbf24" stroke-miterlimit="10" stroke-width="15"/>
            <path d="M187.5,57.16V7.5m0,360V317.84M279.67,95.33l35.11-35.11M60.22,314.78l35.11-35.11m0-184.34L60.22,60.22M314.78,314.78l-35.11-35.11M57.16,187.5H7.5m360,0H317.84" fill="none" stroke="#fbbf24" stroke-linecap="round" stroke-miterlimit="10" stroke-width="15"/>
        </symbol>
    </defs>
    <g clip-path="url(#a)">
        <use width="375" height="375" transform="translate(68.5 68.5)" xlink:href="#b"/>
        <path d="M254,338V328a74,74,0,0,1,74-74h10" fill="none" stroke="#fbbf24" stroke-miterlimit="10" stroke-width="15"/>
    </g>
    <rect x="280" y="280" width="144" height="144" rx="48" fill="#ff8d00"/>
    <path d="M355.34,388H335.21q0-13.65,6.58-28.92a88.43,88.43,0,0,1,17.89-26.8H324.19V316h55.62v14.66q-12.35,13.15-18.2,26.8A81.85,81.85,0,0,0,355.34,388Z" fill="#fff"/>
</svg>
