<svg xmlns="http://www.w3.org/2000/svg" xmlns:xlink="http://www.w3.org/1999/xlink" viewBox="0 0 512 512">
    <defs>
        <clipPath id="a">
            <path d="M64,64H448V256H328a72,72,0,0,0-72,72V448H64Z" fill="none"/>
        </clipPath>
        <symbol id="b" viewBox="0 0 375 375">
            <circle cx="187.5" cy="187.5" r="84" fill="none" stroke="#fbbf24" stroke-miterlimit="10" stroke-width="15"/>
            <path d="M187.5,57.16V7.5m0,360V317.84M279.67,95.33l35.11-35.11M60.22,314.78l35.11-35.11m0-184.34L60.22,60.22M314.78,314.78l-35.11-35.11M57.16,187.5H7.5m360,0H317.84" fill="none" stroke="#fbbf24" stroke-linecap="round" stroke-miterlimit="10" stroke-width="15"/>
        </symbol>
    </defs>
    <g clip-path="url(#a)">
        <use width="375" height="375" transform="translate(68.5 68.5)" xlink:href="#b"/>
        <path d="M254,338V328a74,74,0,0,1,74-74h10" fill="none" stroke="#fbbf24" stroke-miterlimit="10" stroke-width="15"/>
    </g>
    <rect x="280" y="280" width="144" height="144" rx="48" fill="#ffb800"/>
    <path d="M365.52,349.21a17.76,17.76,0,0,1,10.78,5.73,16.42,16.42,0,0,1,3.85,11.11,20,20,0,0,1-7.21,15.79Q365.62,388,352.63,388q-13.58,0-20.94-6.74t-7.84-18.58H340.3q.58,11.74,11.65,11.75A11.56,11.56,0,0,0,359.7,372a8.12,8.12,0,0,0,2.84-6.54,7.54,7.54,0,0,0-3-6.45c-2-1.48-4.82-2.22-8.47-2.22h-4.82V344.88h5.11c3,0,5.34-.68,7-2a7.07,7.07,0,0,0,2.46-5.78,7.19,7.19,0,0,0-2.46-5.82c-1.63-1.38-4-2.07-7-2.07s-5.2.74-6.74,2.21-2.44,3.88-2.7,7.22H326q1-22.62,26-22.62,11.85,0,18.48,5.2a16.13,16.13,0,0,1,6.64,13.28,14.88,14.88,0,0,1-3,9.34A15.22,15.22,0,0,1,365.52,349.21Z" fill="#fff"/>
</svg>
