<svg xmlns="http://www.w3.org/2000/svg" xmlns:xlink="http://www.w3.org/1999/xlink" viewBox="0 0 512 512">
    <defs>
        <clipPath id="a">
            <path d="M64,64H448V256H328a72,72,0,0,0-72,72V448H64Z" fill="none"/>
        </clipPath>
        <symbol id="b" viewBox="0 0 375 375">
            <circle cx="187.5" cy="187.5" r="84" fill="none" stroke="#fbbf24" stroke-miterlimit="10" stroke-width="15"/>
            <path d="M187.5,57.16V7.5m0,360V317.84M279.67,95.33l35.11-35.11M60.22,314.78l35.11-35.11m0-184.34L60.22,60.22M314.78,314.78l-35.11-35.11M57.16,187.5H7.5m360,0H317.84" fill="none" stroke="#fbbf24" stroke-linecap="round" stroke-miterlimit="10" stroke-width="15"/>
        </symbol>
    </defs>
    <g clip-path="url(#a)">
        <use width="375" height="375" transform="translate(68.5 68.5)" xlink:href="#b"/>
        <path d="M254,338V328a74,74,0,0,1,74-74h10" fill="none" stroke="#fbbf24" stroke-miterlimit="10" stroke-width="15"/>
    </g>
    <rect x="280" y="280" width="144" height="144" rx="48" fill="#ff3c00"/>
    <path d="M371.42,323.71q9.65,9.06,9.64,27.57,0,17.54-7.66,27.13T351.08,388q-10.11,0-16.82-4.58a21.87,21.87,0,0,1-8.91-12.87l16.58-1.06q2.11,5.5,9.25,5.5,5.88,0,9-4T364,358q-6,7.14-16.58,7.14-10.89,0-17.64-6.46t-6.84-17.25q0-11.28,7.71-18.41t20.14-7Q363.42,316,371.42,323.71Zm-19.95,28.53a11,11,0,0,0,8.1-3.08,12.24,12.24,0,0,0,3.37-8.29,11.63,11.63,0,0,0-2.79-7.23,11.17,11.17,0,0,0-8.87-3.76c-3.54,0-6.29,1.05-8.24,3.13a11.25,11.25,0,0,0-2.94,8.05,10.86,10.86,0,0,0,3.13,8.1A11.25,11.25,0,0,0,351.47,352.24Z" fill="#fff"/>
</svg>
