<svg xmlns="http://www.w3.org/2000/svg" xmlns:xlink="http://www.w3.org/1999/xlink" viewBox="0 0 512 512">
    <defs>
        <clipPath id="a">
            <path d="M64,64H448V256H328a72,72,0,0,0-72,72V448H64Z" fill="none"/>
        </clipPath>
        <symbol id="b" viewBox="0 0 375 375">
            <circle cx="187.5" cy="187.5" r="84" fill="none" stroke="#fbbf24" stroke-miterlimit="10" stroke-width="15"/>
            <path d="M187.5,57.16V7.5m0,360V317.84M279.67,95.33l35.11-35.11M60.22,314.78l35.11-35.11m0-184.34L60.22,60.22M314.78,314.78l-35.11-35.11M57.16,187.5H7.5m360,0H317.84" fill="none" stroke="#fbbf24" stroke-linecap="round" stroke-miterlimit="10" stroke-width="15"/>
        </symbol>
    </defs>
    <g clip-path="url(#a)">
        <use width="375" height="375" transform="translate(68.5 68.5)" xlink:href="#b"/>
        <path d="M254,338V328a74,74,0,0,1,74-74h10" fill="none" stroke="#fbbf24" stroke-miterlimit="10" stroke-width="15"/>
    </g>
    <rect x="280" y="280" width="144" height="144" rx="48" fill="#ff3c00"/>
    <path d="M373.45,382.12Q365.53,388,352,388t-21.4-5.88a19,19,0,0,1-7.9-16.1,16.22,16.22,0,0,1,3.52-10.65,17.7,17.7,0,0,1,9.88-5.83v-.29a14.79,14.79,0,0,1-7.47-5.54,15.26,15.26,0,0,1-2.75-9A16,16,0,0,1,332.72,321q6.9-5,19.23-5t19.37,5a15.94,15.94,0,0,1,6.94,13.73,15.45,15.45,0,0,1-2.74,9.11,14.28,14.28,0,0,1-7.47,5.44v.29a18.15,18.15,0,0,1,9.83,5.88,16.21,16.21,0,0,1,3.47,10.6A19,19,0,0,1,373.45,382.12Zm-21.4-7q5.68,0,9-2.55a8.46,8.46,0,0,0,3.28-7.08,8.54,8.54,0,0,0-3.23-7.09c-2.15-1.7-5.16-2.55-9-2.55s-7,.85-9.16,2.55a8.5,8.5,0,0,0-3.28,7.09,8.42,8.42,0,0,0,3.33,7.08C345.16,374.23,348.19,375.08,352.05,375.08Zm0-30.36q5,0,7.85-2.21a7.39,7.39,0,0,0,2.85-6.17,7,7,0,0,0-2.8-5.93c-1.86-1.38-4.5-2.07-7.9-2.07q-10.8,0-10.8,8a7.39,7.39,0,0,0,2.85,6.17Q346.94,344.72,352.05,344.72Z" fill="#fff"/>
</svg>
