<svg xmlns="http://www.w3.org/2000/svg" xmlns:xlink="http://www.w3.org/1999/xlink" viewBox="0 0 512 512">
    <defs>
        <clipPath id="a">
            <path d="M64,64H448V256H328a72,72,0,0,0-72,72V448H64Z" fill="none"/>
        </clipPath>
        <symbol id="b" viewBox="0 0 375 375">
            <circle cx="187.5" cy="187.5" r="84" fill="none" stroke="#fbbf24" stroke-miterlimit="10" stroke-width="15"/>
            <path d="M187.5,57.16V7.5m0,360V317.84M279.67,95.33l35.11-35.11M60.22,314.78l35.11-35.11m0-184.34L60.22,60.22M314.78,314.78l-35.11-35.11M57.16,187.5H7.5m360,0H317.84" fill="none" stroke="#fbbf24" stroke-linecap="round" stroke-miterlimit="10" stroke-width="15"/>
        </symbol>
    </defs>
    <g clip-path="url(#a)">
        <use width="375" height="375" transform="translate(68.5 68.5)" xlink:href="#b"/>
        <path d="M254,338V328a74,74,0,0,1,74-74h10" fill="none" stroke="#fbbf24" stroke-miterlimit="10" stroke-width="15"/>
    </g>
    <rect x="280" y="280" width="144" height="144" rx="48" fill="#ffb800"/>
    <path d="M351.8,388q-12,0-19.67-5.52t-9-15.69l17.56-1.38a9.87,9.87,0,0,0,3.8,6.07,12,12,0,0,0,7.24,2.12,11.59,11.59,0,0,0,8.44-3,10.54,10.54,0,0,0,3.1-7.94,10.43,10.43,0,0,0-3.1-7.84,11.63,11.63,0,0,0-8.44-3,12.62,12.62,0,0,0-9.76,4.24l-16.57-1.48L331.78,316H376v14.69H345.1l-2.27,12,.29.2q5.53-4.05,14.21-4.05,10.65,0,17.06,6.31t6.51,17.07q0,11.83-7.79,18.74T351.8,388Z" fill="#fff"/>
</svg>
