<svg xmlns="http://www.w3.org/2000/svg" xmlns:xlink="http://www.w3.org/1999/xlink" viewBox="0 0 512 512">
    <defs>
        <clipPath id="a">
            <path d="M64,64H448V256H328a72,72,0,0,0-72,72V448H64Z" fill="none"/>
        </clipPath>
        <symbol id="b" viewBox="0 0 375 375">
            <circle cx="187.5" cy="187.5" r="84" fill="none" stroke="#fbbf24" stroke-miterlimit="10" stroke-width="15"/>
            <path d="M187.5,57.16V7.5m0,360V317.84M279.67,95.33l35.11-35.11M60.22,314.78l35.11-35.11m0-184.34L60.22,60.22M314.78,314.78l-35.11-35.11M57.16,187.5H7.5m360,0H317.84" fill="none" stroke="#fbbf24" stroke-linecap="round" stroke-miterlimit="10" stroke-width="15"/>
        </symbol>
    </defs>
    <g clip-path="url(#a)">
        <use width="375" height="375" transform="translate(68.5 68.5)" xlink:href="#b"/>
        <path d="M254,338V328a74,74,0,0,1,74-74h10" fill="none" stroke="#fbbf24" stroke-miterlimit="10" stroke-width="15"/>
    </g>
    <rect x="280" y="280" width="144" height="144" rx="48" fill="#91c700"/>
    <path d="M379.85,388h-55.7q0-9.39,4.05-15.7,4.05-6.14,14.81-13.53l10.87-7.71a22.36,22.36,0,0,0,5.87-5.43,10.2,10.2,0,0,0,1.73-5.83,8.71,8.71,0,0,0-2.57-6.66,9.78,9.78,0,0,0-7-2.42q-10.08,0-10.07,11.75V344h-16.7v-2.17q0-12.15,7.12-19T352.39,316q12.45,0,19.76,6t7.4,16.7a22.05,22.05,0,0,1-3.5,12.24q-3.51,5.43-11.21,10.37L352.69,369c-2.31,1.51-3.56,2.8-3.75,3.85h30.91Z" fill="#fff"/>
</svg>
