<svg xmlns="http://www.w3.org/2000/svg" xmlns:xlink="http://www.w3.org/1999/xlink" viewBox="0 0 512 512">
    <defs>
        <symbol id="a" viewBox="0 0 342 234">
            <path d="M264.16,21.29A40,40,0,1,1,293,89H9" fill="none" stroke="#e2e8f0" stroke-linecap="round" stroke-miterlimit="10" stroke-width="18"/>
            <path d="M148.16,212.71A40,40,0,1,0,177,145H9" fill="none" stroke="#e2e8f0" stroke-linecap="round" stroke-miterlimit="10" stroke-width="18"/>
        </symbol>
    </defs>
    <use width="342" height="234" transform="translate(85 139)" xlink:href="#a"/>
    <path d="M249.55,180.67l-5.78-3.36a14.33,14.33,0,0,0,0-6.61l5.79-3.37a4.1,4.1,0,0,0,1.48-5.57,4,4,0,0,0-5.53-1.5l-5.78,3.37a14.21,14.21,0,0,0-2.64-2,14.61,14.61,0,0,0-3-1.31v-6.73a4.05,4.05,0,1,0-8.1,0v6.74a14.18,14.18,0,0,0-5.68,3.29l-5.77-3.36a4,4,0,0,0-5.53,1.5,4.1,4.1,0,0,0,1.48,5.57l5.78,3.36a14.33,14.33,0,0,0,0,6.61l-5.79,3.37a4.1,4.1,0,0,0-1.48,5.57,4,4,0,0,0,5.53,1.5l5.78-3.37a14.21,14.21,0,0,0,2.64,2,13.85,13.85,0,0,0,3,1.3v6.74a4.05,4.05,0,1,0,8.1,0v-6.75a14.14,14.14,0,0,0,5.67-3.29l5.78,3.37a4,4,0,0,0,5.53-1.5A4.1,4.1,0,0,0,249.55,180.67ZM227,179.3a6.17,6.17,0,0,1-2.22-8.36,6.08,6.08,0,0,1,5.27-3.06,6,6,0,0,1,3,.82,6.17,6.17,0,0,1,2.22,8.36A6,6,0,0,1,227,179.3Z" fill="#86c3db"/>
    <path d="M393.55,282.67l-5.78-3.36a14.33,14.33,0,0,0,0-6.61l5.79-3.37a4.1,4.1,0,0,0,1.48-5.57,4,4,0,0,0-5.53-1.5l-5.78,3.37a14.21,14.21,0,0,0-2.64-2,14.61,14.61,0,0,0-3-1.31v-6.73a4.05,4.05,0,1,0-8.1,0v6.74a14.18,14.18,0,0,0-5.68,3.29l-5.77-3.36a4,4,0,0,0-5.53,1.5,4.1,4.1,0,0,0,1.48,5.57l5.78,3.36a14.33,14.33,0,0,0,0,6.61l-5.79,3.37a4.1,4.1,0,0,0-1.48,5.57,4,4,0,0,0,5.53,1.5l5.78-3.37a14.21,14.21,0,0,0,2.64,2,13.85,13.85,0,0,0,3,1.3v6.74a4.05,4.05,0,1,0,8.1,0v-6.75a14.14,14.14,0,0,0,5.67-3.29l5.78,3.37a4,4,0,0,0,5.53-1.5A4.1,4.1,0,0,0,393.55,282.67ZM371,281.3a6.17,6.17,0,0,1-2.22-8.36,6.08,6.08,0,0,1,5.27-3.06,6,6,0,0,1,3,.82,6.17,6.17,0,0,1,2.22,8.36A6,6,0,0,1,371,281.3Z" fill="#86c3db"/>
    <path d="M163.55,340.67l-5.78-3.36a14.33,14.33,0,0,0,0-6.61l5.79-3.37a4.1,4.1,0,0,0,1.48-5.57,4,4,0,0,0-5.53-1.5l-5.78,3.37a14.21,14.21,0,0,0-2.64-2,14.61,14.61,0,0,0-3-1.31v-6.73a4.05,4.05,0,1,0-8.1,0v6.74a14.18,14.18,0,0,0-5.68,3.29l-5.77-3.36a4,4,0,0,0-5.53,1.5,4.1,4.1,0,0,0,1.48,5.57l5.78,3.36a14.33,14.33,0,0,0,0,6.61l-5.79,3.37a4.1,4.1,0,0,0-1.48,5.57,4,4,0,0,0,5.53,1.5l5.78-3.37a14.21,14.21,0,0,0,2.64,2,13.85,13.85,0,0,0,3,1.3v6.74a4.05,4.05,0,1,0,8.1,0v-6.75a14.14,14.14,0,0,0,5.67-3.29l5.78,3.37a4,4,0,0,0,5.53-1.5A4.1,4.1,0,0,0,163.55,340.67ZM141,339.3a6.17,6.17,0,0,1-2.22-8.36,6.08,6.08,0,0,1,5.27-3.06,6,6,0,0,1,3,.82,6.17,6.17,0,0,1,2.22,8.36A6,6,0,0,1,141,339.3Z" fill="#86c3db"/>
</svg>
