<svg xmlns="http://www.w3.org/2000/svg" xmlns:xlink="http://www.w3.org/1999/xlink" viewBox="0 0 512 512">
    <defs>
        <symbol id="a" viewBox="0 0 342 234">
            <path d="M264.16,21.29A40,40,0,1,1,293,89H9" fill="none" stroke="#e2e8f0" stroke-linecap="round" stroke-miterlimit="10" stroke-width="18"/>
            <path d="M148.16,212.71A40,40,0,1,0,177,145H9" fill="none" stroke="#e2e8f0" stroke-linecap="round" stroke-miterlimit="10" stroke-width="18"/>
        </symbol>
    </defs>
    <use width="342" height="234" transform="translate(85 139)" xlink:href="#a"/>
    <path d="M397.52,305.21a17.76,17.76,0,0,1,10.78,5.73,16.42,16.42,0,0,1,3.85,11.11,20,20,0,0,1-7.21,15.79Q397.62,344,384.63,344q-13.58,0-20.94-6.74t-7.84-18.58H372.3q.58,11.74,11.65,11.75A11.56,11.56,0,0,0,391.7,328a8.12,8.12,0,0,0,2.84-6.54,7.54,7.54,0,0,0-3-6.45c-2-1.48-4.82-2.22-8.47-2.22h-4.82V300.88h5.11c3,0,5.34-.68,7-2a7.07,7.07,0,0,0,2.46-5.78,7.19,7.19,0,0,0-2.46-5.82c-1.63-1.38-4-2.07-7-2.07s-5.2.74-6.74,2.21-2.44,3.88-2.7,7.22H358q1-22.62,26-22.62,11.85,0,18.48,5.2a16.13,16.13,0,0,1,6.64,13.28,14.88,14.88,0,0,1-3,9.34A15.22,15.22,0,0,1,397.52,305.21Z" fill="#374251"/>
</svg>
