<svg xmlns="http://www.w3.org/2000/svg" xmlns:xlink="http://www.w3.org/1999/xlink" viewBox="0 0 512 512">
    <defs>
        <symbol id="a" viewBox="0 0 342 234">
            <path d="M264.16,21.29A40,40,0,1,1,293,89H9" fill="none" stroke="#e2e8f0" stroke-linecap="round" stroke-miterlimit="10" stroke-width="18"/>
            <path d="M148.16,212.71A40,40,0,1,0,177,145H9" fill="none" stroke="#e2e8f0" stroke-linecap="round" stroke-miterlimit="10" stroke-width="18"/>
        </symbol>
    </defs>
    <use width="342" height="234" transform="translate(85 139)" xlink:href="#a"/>
    <path d="M411.85,344h-55.7q0-9.39,4.05-15.7,4.05-6.14,14.81-13.53l10.87-7.71a22.36,22.36,0,0,0,5.87-5.43,10.2,10.2,0,0,0,1.73-5.83,8.71,8.71,0,0,0-2.57-6.66,9.78,9.78,0,0,0-7-2.42q-10.08,0-10.07,11.75V300h-16.7v-2.17q0-12.15,7.12-19T384.39,272q12.45,0,19.76,6t7.4,16.7a22.05,22.05,0,0,1-3.5,12.24q-3.51,5.43-11.21,10.37L384.69,325c-2.31,1.51-3.56,2.8-3.75,3.85h30.91Z" fill="#374251"/>
</svg>
